<svg xmlns="http://www.w3.org/2000/svg" viewBox="0 0 512 512"><path d="M363.493 0h-72.744C217.05 0 142.684 54.422 142.684 176.006c0 62.978 26.691 112.027 75.619 139.922l-89.552 162.091c-4.246 7.666-4.357 16.354-.298 23.24 3.963 6.725 11.21 10.741 19.378 10.741h45.301c10.291 0 18.315-4.974 22.163-13.688L299.26 334.08h6.128v157.451c0 11.096 9.363 20.469 20.446 20.469h39.574c12.429 0 21.106-8.678 21.106-21.104V22.403C386.516 9.213 377.05 0 363.493 0zm-58.105 261.126h-10.81c-41.915 0-66.938-34.214-66.938-91.523 0-71.259 31.61-96.648 61.194-96.648h16.554v188.171z" fill="#d7143a"/></svg>