<svg width="27" height="26" viewBox="0 0 27 26" fill="none" xmlns="http://www.w3.org/2000/svg">
<path d="M15.2133 0.816211L18.1457 7.02945C18.3497 7.46159 18.7439 7.76102 19.2001 7.83021L25.7576 8.82662C26.9063 9.00129 27.3646 10.4769 26.5337 11.3236L21.7887 16.1599C21.4589 16.4962 21.3082 16.9811 21.3863 17.4557L22.5062 24.2849C22.7025 25.4809 21.5018 26.3928 20.4746 25.8285L14.6096 22.6045C14.2018 22.3805 13.7142 22.3805 13.3064 22.6045L7.44144 25.8285C6.41423 26.3934 5.21347 25.4809 5.4098 24.2849L6.52975 17.4557C6.60785 16.9811 6.45708 16.4962 6.12733 16.1599L1.38234 11.3236C0.551459 10.4763 1.00974 9.00072 2.15843 8.82662L8.71595 7.83021C9.17207 7.76102 9.56635 7.46159 9.77028 7.02945L12.7027 0.816211C13.2158 -0.27207 14.6997 -0.27207 15.2133 0.816211Z" fill="#FFB21C"/>
</svg>
