<svg width="26" height="33" viewBox="0 0 26 33" fill="none" xmlns="http://www.w3.org/2000/svg">
<path class="p-FFB64C" d="M25.1367 29.1328V33H13.5352V29.1328L15.4688 27.1992H23.2031L25.1367 29.1328Z" fill="#AFD9F6"/>
<path class="p-FF9100" d="M25.1377 29.1328V33H19.3369V27.1992H23.2041L25.1377 29.1328Z" fill="#76B7E2"/>
<path class="p-FFD396" d="M25.1367 15.4688H13.5352V29.1328H25.1367V15.4688Z" fill="#58ADE5"/>
<path class="p-FFB64C" d="M25.1377 15.4688H19.3369V29.1328H25.1377V15.4688Z" fill="#4D98CB"/>
<path class="p-F23055" d="M9.667 4.83423H1.93262V12.5686H9.667V4.83423Z" fill="#5FBEFF"/>
<path class="p-AE2538" d="M9.66797 4.83423H5.80078V12.5686H9.66797V4.83423Z" fill="#4D98CB"/>
<path class="p-FFB64C" d="M0.966798 11.6016L0.128906 17.4024H11.4727L10.6348 11.6016H0.966798Z" fill="#AFD9F6"/>
<path class="p-FFB64C" d="M19.3357 22.8601L17.9629 24.2329L19.3357 25.6057L20.7085 24.2329L19.3357 22.8601Z" fill="#5FBEFF"/>
<path class="p-FF9100" d="M10.6348 11.6016H5.80078V17.4024H11.4727L10.6348 11.6016Z" fill="#76B7E2"/>
<path class="p-FF5093" d="M5.79981 0C3.67292 0 1.93262 2.16563 1.93262 4.83399C1.93262 7.50236 3.67292 9.66798 5.79981 9.66798C7.9267 9.66798 9.667 7.50236 9.667 4.83399C9.667 2.16563 7.9267 0 5.79981 0Z" fill="#A1D1FD"/>
<path class="p-F23055" d="M5.80078 9.66798V0C7.92767 0 9.66797 2.16563 9.66797 4.83399C9.66797 7.50236 7.92767 9.66798 5.80078 9.66798Z" fill="#B9DFFC"/>
<path class="p-FFB64C" d="M11.6016 29.1328V33H0V29.1328L1.9336 27.1992H9.66798L11.6016 29.1328Z" fill="#AFD9F6"/>
<path class="p-FF9100" d="M11.6016 29.1328V33H5.80078V27.1992H9.66797L11.6016 29.1328Z" fill="#76B7E2"/>
<path class="p-FFD396" d="M11.6016 15.4688H0V29.1328H11.6016V15.4688Z" fill="#58ADE5"/>
<path class="p-FFB64C" d="M11.6016 15.4688H5.80078V29.1328H11.6016V15.4688Z" fill="#4D98CB"/>
<path class="p-FF9100" d="M20.7098 24.2342L19.3369 25.607V22.8613L20.7098 24.2342Z" fill="#76B7E2"/>
</svg>
