<svg width="27" height="34" viewBox="0 0 27 34" fill="none" xmlns="http://www.w3.org/2000/svg">
<path class="p-FDBF00" d="M20.0393 17.8367L15.5768 18.6535L13.4651 18.0558L10.417 17.1793L8.3252 14.5098L13.4651 2.45044L20.0393 17.8367Z" fill="#5FBEFF"/>
<path class="p-FF9100" d="M15.5795 18.6535L13.4678 18.0558V2.45044L20.042 17.8367L15.5795 18.6535Z" fill="#58ADE5"/>
<path class="p-FF6498" d="M22.9687 24.6496L21.2553 26.2434L13.4659 24.0121L7.36985 22.2789L6.03516 19.8286L8.32603 14.5095L13.4659 15.9637L20.0401 17.8364L22.9687 24.6496Z" fill="#58ADE5"/>
<path class="p-FF3980" d="M21.2571 26.2436L13.4678 24.0123V15.9639L20.042 17.8365L22.9705 24.6497L21.2571 26.2436Z" fill="#4D98CB"/>
<path class="p-FDBF00" d="M25.8777 31.463L22.8298 32.7247L13.4665 29.9887L5.11933 27.5982L3.76465 25.1477L6.0358 19.8286L13.4665 21.9403L22.9693 24.6497L25.8777 31.463Z" fill="#5FBEFF"/>
<path class="p-FF9100" d="M25.879 31.4631L22.831 32.7248L13.4678 29.9888V21.9404L22.9705 24.6498L25.879 31.4631Z" fill="#58ADE5"/>
<path class="p-FF6498" d="M25.8783 31.4433L13.4671 27.9171L3.76521 25.1479L0 33.9999H26.9342L25.8783 31.4433Z" fill="#58ADE5"/>
<path class="p-FF3980" d="M26.9349 33.9998H13.4678V27.917L25.879 31.4432L26.9349 33.9998Z" fill="#4D98CB"/>
<path class="p-8CD95B" d="M15.4587 4.98044L18.2875 6.61402L17.2914 8.3273L13.4665 6.13584L9.6416 8.3273L8.64551 6.61402L11.4743 4.98044L8.64551 3.34686L9.6416 1.63358L12.4704 3.24725V0H14.4626V3.24725L17.2914 1.63358L18.2875 3.34686L15.4587 4.98044Z" fill="#58ADE5"/>
<path class="p-61C27C" d="M15.4599 4.98044L18.2888 6.61402L17.2927 8.3273L13.4678 6.13584V0H14.4639V3.24725L17.2927 1.63358L18.2888 3.34686L15.4599 4.98044Z" fill="#4D98CB"/>
</svg>
