<svg width="40" height="40" viewBox="0 0 40 40" fill="none" xmlns="http://www.w3.org/2000/svg">
<path d="M25.8594 7.1875H37.5781V18.9062H25.8594V7.1875Z" fill="#A1D1FD"/>
<path d="M31.7188 7.1875H37.5781V18.9062H31.7188V7.1875Z" fill="#B9DFFC"/>
<path d="M30.5469 14.2188H32.8906V18.0859H30.5469V14.2188Z" fill="#AFD9F6"/>
<path d="M40 9.53124H23.5156L25.8594 4.84375H37.5781L40 9.53124Z" fill="#AFD9F6"/>
<path d="M31.7188 14.2188H32.8906V18.0859H31.7188V14.2188Z" fill="#4D98CB"/>
<path d="M40 9.53124H31.7188V4.84375H37.5781L40 9.53124Z" fill="#4D98CB"/>
<path d="M40 16.445V23.5465L31.7188 25.8432L20.1642 29.0778L16.1094 23.3121C20.7737 20.0074 26.1408 17.8278 31.7188 16.9138C34.039 16.5152 36.4844 16.3514 38.8516 16.4215L40 16.445Z" fill="#58ADE5"/>
<path d="M40 16.4451V23.5466L31.7188 25.8433V16.9136C34.039 16.5153 36.4844 16.3512 38.8516 16.4216L40 16.4451Z" fill="#4D98CB"/>
<path d="M39.9998 23.5465V30.5777L31.7186 32.7576L24.1719 34.7497L20.1641 29.0778C23.6562 26.6403 27.5935 24.9527 31.7186 24.1324C34.3904 23.5465 37.2343 23.3591 39.9998 23.5465Z" fill="#5FBEFF"/>
<path d="M40 23.5465V30.5777L31.7188 32.7576V24.1324C34.3906 23.5465 37.2345 23.3591 40 23.5465Z" fill="#58ADE5"/>
<path d="M39.9998 30.5781V40H27.8749L25.5076 36.6486L24.1719 34.7501C26.4216 33.2032 28.9997 32.0313 31.7185 31.3282C33.6872 30.7657 35.7496 30.4844 37.7888 30.4844L39.9998 30.5781Z" fill="#58ADE5"/>
<path d="M37.789 30.4844L40 30.5781V40H31.7188V31.3282C33.6874 30.7657 35.7498 30.4844 37.789 30.4844Z" fill="#4D98CB"/>
<path d="M9.45312 0H11.7969V3.67186H9.45312V0Z" fill="#AFD9F6"/>
<path d="M9.45312 13.0469H11.7969V16.5625H9.45312V13.0469Z" fill="#AFD9F6"/>
<path d="M5.65222 1.72949L8.13909 4.21636L6.48199 5.87346L3.99512 3.38659L5.65222 1.72949Z" fill="#AFD9F6"/>
<path d="M14.7675 10.8447L17.2543 13.3316L15.5972 14.9887L13.1104 12.5018L14.7675 10.8447Z" fill="#58ADE5"/>
<path d="M2.42188 7.1875H5.93749V9.53124H2.42188V7.1875Z" fill="#AFD9F6"/>
<path d="M15.3125 7.1875H18.8281V9.53124H15.3125V7.1875Z" fill="#58ADE5"/>
<path d="M6.48266 10.8452L8.13976 12.5023L5.65289 14.9889L3.99609 13.3318L6.48266 10.8452Z" fill="#AFD9F6"/>
<path d="M15.5969 1.72949L17.254 3.38659L14.7675 5.87346L13.1104 4.21636L15.5969 1.72949Z" fill="#58ADE5"/>
<path d="M10.625 0H11.7969V3.67186H10.625V0Z" fill="#58ADE5"/>
<path d="M10.625 13.0469H11.7969V16.5625H10.625V13.0469Z" fill="#58ADE5"/>
<path d="M10.625 2.5C7.39074 2.5 4.76562 5.12511 4.76562 8.35936C4.76562 11.5936 7.39074 14.2187 10.625 14.2187C13.8592 14.2187 16.4843 11.5936 16.4843 8.35936C16.4843 5.12511 13.8592 2.5 10.625 2.5Z" fill="#58ADE5"/>
<path d="M16.4844 8.35936C16.4844 11.5936 13.8592 14.2187 10.625 14.2187V2.5C13.8592 2.5 16.4844 5.12511 16.4844 8.35936Z" fill="#4D98CB"/>
<path d="M27.875 39.9999H20.4452L0 25.9841V18.9529C3.56261 18.8125 7.17985 19.3047 10.625 20.5703C12.5705 21.2966 14.422 22.2109 16.1093 23.3123C21.2188 26.6405 25.0625 31.5859 27.0312 37.4919L27.875 39.9999Z" fill="#4D98CB"/>
<path d="M10.2209 28.0372C7.00468 26.4402 3.47075 25.7716 0 25.9742V33.0442L12.8393 39.9998H20.4345C18.7911 34.8161 15.1925 30.5067 10.2209 28.0372Z" fill="#58ADE5"/>
<path d="M5.75102 33.7742C3.89678 33.0909 1.89453 32.8663 0 33.0442V39.9998H12.8393C11.3537 37.1736 8.87601 34.9244 5.75102 33.7742Z" fill="#4D98CB"/>
</svg>
