<svg width="37" height="37" viewBox="0 0 37 37" fill="none" xmlns="http://www.w3.org/2000/svg">
<path class="p-FF9100" d="M1.47266 35.5276C2.38241 36.4374 3.63918 37 5.0274 37C6.41563 37 7.6724 36.4374 8.58215 35.5276L5.0274 29.9272L1.47266 35.5276Z" fill="#B9DFFC"/>
<path class="p-FFDE55" d="M1.47241 28.418C0.56266 29.3276 0 30.5844 0 31.9726C0 33.3609 0.56266 34.6176 1.47241 35.5274L6.04993 30.9499L1.47241 28.418Z" fill="#A1D1FD"/>
<path class="p-B4D2D7" d="M9.93263 30.8697L19.9281 20.8742L18.0268 16.9272L8.03125 28.9684L9.93263 30.8697Z" fill="#B9DFFC"/>
<path class="p-E1EBF0" d="M6.12988 27.0674L8.03126 28.9686L19.0497 17.9503L16.1255 17.0718L6.12988 27.0674Z" fill="#A1D1FD"/>
<path class="p-FF9100" d="M17.7979 19.2023C19.8334 21.2378 22.6455 22.4968 25.7517 22.4968C26.6592 22.4968 27.5413 22.3887 28.3865 22.1857L21.6004 13.354L17.7979 19.2023Z" fill="#65B3E7"/>
<path class="p-FFDE55" d="M14.814 8.61377C14.6111 9.45899 14.5029 10.3411 14.5029 11.2486C14.5029 14.3548 15.7619 17.1668 17.7975 19.2024L22.6229 14.377L14.814 8.61377Z" fill="#AFD9F6"/>
<path class="p-FF3C7D" d="M34.2294 18.6404C34.6548 15.9177 30.206 7.40073 28.8803 6.07422L21.6006 15.3995L28.3867 22.1856C30.6919 21.6322 32.7207 20.3692 34.2294 18.6404Z" fill="#4D98CB"/>
<path class="p-FFA2C1" d="M29.9026 7.09708C28.577 5.77144 21.5086 2.29474 18.3597 2.77104C16.6308 4.27973 15.3678 6.30859 14.8145 8.61379L21.6006 15.3999L29.903 7.09744C29.9029 7.09737 29.9028 7.09722 29.9026 7.09708Z" fill="#65B3E7"/>
<path class="p-00CC76" d="M30.5113 17.0937C31.8307 18.4131 32.9122 17.3444 34.2293 18.6407C35.4012 17.2979 36.2593 15.6741 36.6891 13.8836L29.903 5.05176L25.209 11.7913C26.5344 13.1163 27.6199 12.0311 28.9454 13.3565C30.2712 14.6824 29.1856 15.768 30.5113 17.0937Z" fill="#65B3E7"/>
<path class="p-CCFC5C" d="M23.1165 0.311035C21.326 0.740871 19.7021 1.59888 18.3594 2.77081C19.6557 4.08771 18.5868 5.16931 19.906 6.48845C21.2316 7.81401 22.3171 6.72844 23.6427 8.05401C24.9684 9.37965 23.8827 10.4652 25.2083 11.7909C25.2085 11.791 25.2086 11.7911 25.2087 11.7912L30.9255 6.07444L23.1165 0.311035Z" fill="#AFD9F6"/>
<path class="p-3440DB" d="M36.6884 13.8832C36.8914 13.0379 36.9996 12.1558 36.9996 11.2483C36.9996 8.14209 35.7406 5.33001 33.705 3.29443L30.3541 4.59977L29.9023 7.09705L36.6884 13.8832Z" fill="#4D98CB"/>
<path class="p-2682FF" d="M33.706 3.29459C31.6704 1.25901 28.8583 0 25.7521 0C24.8446 0 23.9625 0.108254 23.1172 0.311176L29.9033 7.09728L33.706 3.29459Z" fill="#65B3E7"/>
<path class="p-FF3C7D" d="M8.58202 35.5275C9.49177 34.6177 10.0544 33.3609 10.0544 31.9727C10.0544 30.5845 9.49177 29.3277 8.58202 28.418L5.78187 29.1725L5.02734 31.9726L8.58202 35.5275Z" fill="#4D98CB"/>
<path class="p-FFA2C1" d="M1.47266 28.4182L5.0274 31.973L8.58215 28.4182C7.6724 27.5085 6.41563 26.9458 5.0274 26.9458C3.63918 26.9457 2.38241 27.5085 1.47266 28.4182Z" fill="#58ADE5"/>
</svg>
