<svg width="31" height="28" viewBox="0 0 31 28" fill="none" xmlns="http://www.w3.org/2000/svg">
<path d="M21.684 0V6.30683H19.882V1.80195H10.8723V6.30683H9.07031V0H21.684Z" fill="#B9DFFC"/>
<path d="M27.0891 2.77271H25.2871V6.37661H27.0891V2.77271Z" fill="#A1D1FD"/>
<path d="M21.6828 0V6.30683H19.8809V1.80195H15.376V0H21.6828Z" fill="#A1D1FD"/>
<path d="M30.7533 11.5662V28H0V11.5662L13.3224 13.5482H17.4309L30.7533 11.5662Z" fill="#58ADE5"/>
<path d="M30.7526 11.5662V28H15.376V13.5482H17.4302L30.7526 11.5662Z" fill="#4D98CB"/>
<path d="M30.7533 4.57471V11.5663L17.4309 17.0127H13.3224L0 11.5663V4.57471H30.7533Z" fill="#5FBEFF"/>
<path d="M30.7526 4.57471V11.5663L17.4302 17.0127H15.376V4.57471H30.7526Z" fill="#76B7E2"/>
<path d="M12.6738 15.2468V20.7923H18.0797V15.2468H12.6738Z" fill="#AFD9F6"/>
<path d="M18.0789 15.2468H15.376V20.7923H18.0789V15.2468Z" fill="#65B3E7"/>
</svg>
