<svg width="30" height="30" viewBox="0 0 30 30" fill="none" xmlns="http://www.w3.org/2000/svg">
<path d="M24.6387 23.7305H26.3965C26.8819 23.7305 27.2754 24.124 27.2754 24.6094C27.2754 25.0948 26.8819 25.4883 26.3965 25.4883H24.6387V23.7305Z" fill="#5FBEFF"/>
<path d="M9.66797 24.6094H8.20312L8.78906 30H9.66797V24.6094Z" fill="#4D98CB"/>
<path d="M7.91016 24.6094H8.78906V30H7.91016V24.6094Z" fill="#65B3E7"/>
<path d="M24.0527 25.4883L24.6387 30H25.5176V27.2461L24.0527 25.4883Z" fill="#4D98CB"/>
<path d="M23.7598 27.2461V30H24.6387V25.4883L23.7598 27.2461Z" fill="#65B3E7"/>
<path d="M25.5176 27.2461V21.0938H24.0527L24.6387 27.2461H25.5176Z" fill="#A1D1FD"/>
<path d="M23.7598 21.0938H24.6387V27.2461H23.7598V21.0938Z" fill="#B9DFFC"/>
<path d="M24.6387 0C25.1241 0 25.5176 0.3935 25.5176 0.878906V6.15234H24.0527L24.6387 0Z" fill="#4D98CB"/>
<path d="M23.7598 0.878906C23.7598 0.3935 24.1533 0 24.6387 0V6.15234H23.7598V0.878906Z" fill="#65B3E7"/>
<path d="M24.6387 1.75781L22.8809 11.8652L24.6387 21.9727H27.2754V18.6438C28.9478 17.7003 30 15.9261 30 13.9746V7.11914C30 4.1629 27.5949 1.75781 24.6387 1.75781Z" fill="#4D98CB"/>
<path d="M19.2773 7.11914V13.9746C19.2773 15.9261 20.3295 17.7003 22.002 18.6438V21.9727H24.6387V1.75781C21.6824 1.75781 19.2773 4.1629 19.2773 7.11914Z" fill="#65B3E7"/>
<path d="M14.9707 21.9727V17.5781H8.78906L7.03125 23.7305L14.9707 21.9727Z" fill="#4D98CB"/>
<path d="M8.78906 17.5781H2.60742V21.9727L8.78906 23.1445V17.5781Z" fill="#65B3E7"/>
<path d="M8.78906 21.9727L7.03125 23.7305L8.78906 25.4883H14.9707V21.9727H8.78906Z" fill="#A1D1FD"/>
<path d="M2.60742 21.9727H8.78906V25.4883H2.60742V21.9727Z" fill="#B9DFFC"/>
<path d="M8.78906 0L4.39453 8.78906L8.78906 17.5781C13.6432 17.5781 17.5781 13.6432 17.5781 8.78906C17.5781 3.93494 13.6432 0 8.78906 0Z" fill="#58ADE5"/>
<path d="M0 8.78906C0 13.6432 3.93494 17.5781 8.78906 17.5781V0C3.93494 0 0 3.93494 0 8.78906Z" fill="#A1D1FD"/>
<path d="M8.78906 1.75781L5.27344 8.78906L8.78906 15.8203C12.6723 15.8203 15.8203 12.6723 15.8203 8.78906C15.8203 4.90585 12.6723 1.75781 8.78906 1.75781Z" fill="#A1D1FD"/>
<path d="M1.75781 8.78906C1.75781 12.6723 4.90585 15.8203 8.78906 15.8203V1.75781C4.90585 1.75781 1.75781 4.90585 1.75781 8.78906Z" fill="#B9DFFC"/>
<path d="M9.66797 7.93945H8.78906L8.20312 11.001L8.78906 14.0625C9.27447 14.0625 9.66797 13.669 9.66797 13.1836V7.93945Z" fill="#4D98CB"/>
<path d="M7.91016 7.93945H8.78906V14.0625C8.30366 14.0625 7.91016 13.669 7.91016 13.1836V7.93945Z" fill="#65B3E7"/>
</svg>
