<svg width="36" height="36" viewBox="0 0 36 36" fill="none" xmlns="http://www.w3.org/2000/svg">
<path d="M20.462 0H15.8888L14.4814 12.0195L16.1762 12.3264L20.462 0Z" fill="#65B3E7"/>
<path d="M24.596 32.3567L25.5912 30.4968L18.1242 26.501L25.5912 22.5051L24.596 20.6453L15.8888 25.3047L14.4814 26.501L15.8888 27.6972L24.596 32.3567Z" fill="#76B7E2"/>
<path d="M6.18652 22.5051L13.6535 26.501L6.18652 30.4968L7.1818 32.3567L15.8889 27.6972V25.3047L7.1818 20.6453L6.18652 22.5051Z" fill="#5FBEFF"/>
<path d="M31.7774 13.1835L29.668 14.9419V7.87744H35.9995V9.98682H31.7774V13.1835Z" fill="#76B7E2"/>
<path d="M31.7778 18.0001L14.4814 16.5928L15.8888 23.3338H31.7778V18.0001Z" fill="#4D98CB"/>
<path d="M0 18.0001V23.3338H15.889V16.5928L0 18.0001Z" fill="#58ADE5"/>
<path d="M8.35757 0C3.74921 0 0 3.74921 0 8.35757V12.3264L15.889 12.0195V0H8.35757Z" fill="#5FBEFF"/>
<path d="M27.4925 33.1851V31.0757H15.8892L15.1855 32.1304L15.8892 33.1851H27.4925Z" fill="#65B3E7"/>
<path d="M15.8884 31.0757H4.28516V33.1851H15.8884V31.0757Z" fill="#AFD9F6"/>
<path d="M31.7778 11.4692H15.8888L14.4814 14.306L15.8888 18H31.7778V11.4692Z" fill="#A1D1FD"/>
<path d="M15.889 11.4692H0V18H15.889V11.4692Z" fill="#B9DFFC"/>
<path d="M3.86945 28.261C1.73588 28.261 0 29.9968 0 32.1304C0 34.2641 1.73588 35.9999 3.86945 35.9999C6.00301 35.9999 7.73889 34.264 7.73889 32.1304C7.73889 29.9969 6.00308 28.261 3.86945 28.261Z" fill="#76B7E2"/>
<path d="M27.9075 28.261C25.7739 28.261 24.0381 29.9969 24.0381 32.1304C24.0381 34.264 25.7739 35.9999 27.9075 35.9999C30.0412 35.9999 31.777 34.264 31.777 32.1304C31.777 29.9969 30.0412 28.261 27.9075 28.261Z" fill="#4D98CB"/>
</svg>
