<svg width="34" height="32" viewBox="0 0 34 32" fill="none" xmlns="http://www.w3.org/2000/svg">
<path class="p-AF2768" d="M24.435 13.7487L28.6676 32.0001L22.4238 25.9663L18.8815 31.3097L16.6602 12.4279L18.8815 7.98511L24.435 13.7487Z" fill="#58ADE5"/>
<path class="p-EA348B" d="M8.88596 13.7487L4.65332 31.0995L10.8972 25.9663L14.4394 31.3097L16.6608 12.4279L14.4394 7.98511L8.88596 13.7487Z" fill="#A1D1FD"/>
<path class="p-AF2768" d="M2.43152 0C2.43152 0 0 3.33208 0 8.88554C0 14.439 2.43152 17.7711 2.43152 17.7711C10.2064 17.7711 16.6604 8.88554 16.6604 8.88554C16.6604 8.88554 10.2064 0 2.43152 0Z" fill="#58ADE5"/>
<path class="p-EA348B" d="M30.889 0C23.1142 0 16.6602 8.88554 16.6602 8.88554C16.6602 8.88554 23.1142 17.7711 30.889 17.7711C30.889 17.7711 33.3206 14.439 33.3206 8.88554C33.3206 3.33208 30.889 0 30.889 0Z" fill="#A1D1FD"/>
<path class="p-751A46" d="M16.6605 13.3287C19.1142 13.3287 21.1033 11.3396 21.1033 8.88589C21.1033 6.43221 19.1142 4.44312 16.6605 4.44312C14.2069 4.44312 12.2178 6.43221 12.2178 8.88589C12.2178 11.3396 14.2069 13.3287 16.6605 13.3287Z" fill="#4D98CB"/>
</svg>
