<svg width="30" height="30" viewBox="0 0 30 30" fill="none" xmlns="http://www.w3.org/2000/svg">
<path d="M30 5.66577V8.84746H28.2422V6.75571L26.4844 5.8768V11.4842H24.7266V3.02905L30 5.66577Z" fill="#A1D1FD"/>
<path d="M8.84766 2.63672V5.877H7.08984V3.72665L5.33203 2.84775V7.96875H3.57422V0L8.84766 2.63672Z" fill="#A1D1FD"/>
<path d="M4.87012 13.2422L7.3647 15L9.54549 13.2422L15.0002 7.08984C10.5938 7.08984 6.77647 9.58832 4.87012 13.2422Z" fill="#A1D1FD"/>
<path d="M15 7.08984L20.4547 13.2422L22.4194 15L25.1884 13.2422C23.2823 9.58832 19.4064 7.08984 15 7.08984Z" fill="#4D98CB"/>
<path d="M14.9996 7.08984C12.627 7.08984 10.5715 9.58832 9.54492 13.2422L12.2723 15L14.9996 13.2422L16.7574 10.166L14.9996 7.08984Z" fill="#58ADE5"/>
<path d="M20.4547 13.2422C19.4282 9.58832 17.3726 7.08984 15 7.08984V13.2422L18.0762 15L20.4547 13.2422Z" fill="#A1D1FD"/>
<path d="M14.1211 0H15.8789V7.83256H14.1211V0Z" fill="#B9DFFC"/>
<path d="M15 0H15.8789V7.83256H15V0Z" fill="#4D98CB"/>
<path d="M4.45312 6.01753C3.99605 5.5957 3.38081 5.33203 2.69531 5.33203C1.23619 5.33203 0 6.50963 0 7.96875C0 9.42764 1.23619 10.6055 2.69531 10.6055C3.38081 10.6055 3.99605 10.3418 4.45312 9.91997C4.99809 9.44527 5.33203 8.74214 5.33203 7.96875C5.33203 7.19536 4.99809 6.49223 4.45312 6.01753Z" fill="#A1D1FD"/>
<path d="M28.2422 12.3633H30V14.1211H28.2422V12.3633Z" fill="#A1D1FD"/>
<path d="M5.33203 26.4844H3.57422V24.7266H1.81641V26.4844H0V28.2422H1.81641V30H3.57422V28.2422H5.33203V26.4844Z" fill="#A1D1FD"/>
<path d="M12.3633 6.95361V7.96871C12.3633 9.4276 13.5409 10.6054 15 10.6054C16.4591 10.6054 17.6367 9.4276 17.6367 7.96871V6.95361H12.3633Z" fill="#B9DFFC"/>
<path d="M17.6367 6.95361V7.96871C17.6367 9.4276 16.4591 10.6054 15 10.6054V6.95361H17.6367Z" fill="#4D98CB"/>
<path d="M25.1889 13.2422H20.4549L19.0459 15.8789L21.1525 18.5156L24.7267 20.2734L26.4846 18.5156C26.4846 16.612 26.0124 14.8208 25.1889 13.2422Z" fill="#B9DFFC"/>
<path d="M4.86992 13.2422C4.0464 14.8208 3.57422 16.612 3.57422 18.5156L5.77148 20.2734L8.84766 18.5156L10.9543 15.8789L9.54529 13.2422H4.86992Z" fill="#58ADE5"/>
<path d="M15 13.2422H9.54529C9.10194 14.8208 8.84766 16.612 8.84766 18.5156L11.9238 20.2734L15 18.5156L16.7578 15.8789L15 13.2422Z" fill="#B9DFFC"/>
<path d="M15 18.5156L18.0762 20.2734L21.1523 18.5156C21.1523 16.612 20.8981 14.8208 20.4547 13.2422H15V18.5156Z" fill="#4D98CB"/>
<path d="M21.1525 18.5156L19.0459 21.2109L20.4549 23.8477H25.1886C26.0124 22.2691 26.4846 20.4192 26.4846 18.5156H21.1525Z" fill="#4D98CB"/>
<path d="M8.84766 18.5156H3.57422C3.57422 20.4192 4.0464 22.2691 4.86992 23.8477L7.26425 25.6055L9.54529 23.8477L10.9543 21.2109L8.84766 18.5156Z" fill="#B9DFFC"/>
<path d="M15 18.5156H8.84766C8.84766 20.4192 9.10194 22.2691 9.54529 23.8477L11.9238 25.6055L15 23.8477L16.7578 21.2109L15 18.5156Z" fill="#58ADE5"/>
<path d="M15 23.8477L17.7274 25.6055L20.4547 23.8477C20.8981 22.2691 21.1523 20.4192 21.1523 18.5156H15V23.8477Z" fill="#B9DFFC"/>
<path d="M20.4547 23.8477L15 30C19.4064 30 23.2823 27.5015 25.1887 23.8477H20.4547Z" fill="#A1D1FD"/>
<path d="M9.54549 23.8477H4.87012C6.77647 27.5015 10.5938 30 15.0002 30L9.54549 23.8477Z" fill="#58ADE5"/>
<path d="M9.54492 23.8477C10.5715 27.5015 12.627 30 14.9996 30L16.7574 26.9238L14.9996 23.8477H9.54492Z" fill="#A1D1FD"/>
<path d="M20.4547 23.8477H15V30C17.3726 30 19.4282 27.5015 20.4547 23.8477Z" fill="#4D98CB"/>
<path d="M25.6055 9.53316C25.1484 9.1111 24.5332 8.84766 23.8477 8.84766C22.3885 8.84766 21.1523 10.0253 21.1523 11.4844C21.1523 12.9433 22.3885 14.1211 23.8477 14.1211C24.5332 14.1211 25.1484 13.8574 25.6055 13.4356C26.1504 12.9609 26.4844 12.2578 26.4844 11.4844C26.4844 10.711 26.1504 10.0079 25.6055 9.53316Z" fill="#A1D1FD"/>
</svg>
