<svg width="30" height="30" viewBox="0 0 30 30" fill="none" xmlns="http://www.w3.org/2000/svg">
<path d="M7.41388 26.3489L2.76215 29.2059L0.790039 27.2337L3.65957 22.6194L5.75505 22.2202L7.78814 24.2534L7.41388 26.3489Z" fill="#58ADE5"/>
<path d="M7.78746 24.253L7.4132 26.3486L2.76147 29.2056L1.77539 28.2195L6.76465 23.2302L7.78746 24.253Z" fill="#4D98CB"/>
<path d="M25.6231 4.39764C25.6106 4.38517 25.6106 4.38517 25.6106 4.38517C19.5861 -1.61443 10.0815 -1.31509 4.35634 4.4101C0.988571 7.77787 -0.632868 12.6174 0.227831 17.5693L0.427394 18.6419L1.43774 18.2304C4.20675 17.1078 7.68671 17.6192 10.0317 19.9641C12.3143 22.2467 12.9754 25.6519 11.7779 28.5706L11.3664 29.5809L12.4391 29.7805C17.3285 30.6286 22.2304 28.9697 25.5857 25.6144C31.4729 19.7272 31.4356 10.2101 25.6231 4.39764Z" fill="#B9DFFC"/>
<path d="M25.5863 25.6145C22.231 28.9698 17.3291 30.6287 12.4396 29.7806L11.367 29.581L11.7785 28.5708C12.9759 25.6521 12.3149 22.2469 10.0322 19.9643L25.6113 4.38525C25.6113 4.38525 25.6113 4.38525 25.6238 4.39772C31.4363 10.2102 31.4736 19.7272 25.5863 25.6145Z" fill="#A1D1FD"/>
<path d="M15.1707 18.5671L11.4412 14.8376L3.4834 22.7955L7.22536 26.5374L15.1707 18.5671Z" fill="#A1D1FD"/>
<path d="M7.22524 26.5373L5.3418 24.6539L13.2996 16.696L15.1706 18.567L7.22524 26.5373Z" fill="#5FBEFF"/>
<path d="M21.2732 13.476C20.2498 12.4526 20.236 10.7751 21.2772 9.73387C22.2967 8.71435 23.9732 8.69172 25.019 9.73751C26.0424 10.7609 26.0566 12.4389 25.0154 13.4801C23.9796 14.5158 22.3047 14.5075 21.2732 13.476Z" fill="#4D98CB"/>
<path d="M25.0336 20.2262C24.0031 21.2568 22.3226 21.264 21.2878 20.2292C20.2767 19.2181 20.2372 17.5365 21.2882 16.4855C22.3077 15.466 23.9861 15.4396 25.0319 16.4854C26.0414 17.4949 26.0862 19.1736 25.0336 20.2262Z" fill="#58ADE5"/>
<path d="M4.97748 13.5134C3.96584 12.5017 3.92504 10.8236 4.97554 9.77312C6.02798 8.72068 7.70775 8.75561 8.72121 9.76906C9.73031 10.7782 9.77429 12.4601 8.72115 13.5132C7.68382 14.5506 6.0064 14.5423 4.97748 13.5134Z" fill="#65B3E7"/>
<path d="M16.5242 25.0103C15.5008 23.9869 15.4869 22.3094 16.5282 21.2682C17.5468 20.2495 19.2249 20.2263 20.2698 21.2712C21.2911 22.2925 21.3097 23.971 20.2664 25.0143C19.2307 26.0501 17.5557 26.0418 16.5242 25.0103Z" fill="#4D98CB"/>
<path d="M9.74004 8.72659C8.71664 7.70319 8.70276 6.02566 9.74397 4.98445C10.7572 3.97123 12.4327 3.93442 13.4848 4.98656C14.5061 6.00784 14.5256 7.68732 13.4822 8.73064C12.4465 9.76639 10.7715 9.7581 9.74004 8.72659Z" fill="#A1D1FD"/>
<path d="M16.491 8.71619C15.4741 7.69926 15.4435 6.0199 16.4909 4.97252C17.508 3.95535 19.1839 3.92307 20.2315 4.97075C21.2767 6.0159 21.2541 7.69738 20.2352 8.7163C19.2072 9.74429 17.5276 9.75269 16.491 8.71619Z" fill="#76B7E2"/>
<path d="M19.0121 10.9844C18.1391 11.0343 16.8169 11.9941 15.5446 12.2185C14.2973 12.443 12.2025 12.8048 11.5788 13.4284C10.2068 14.8005 10.2068 17.0456 11.5788 18.4176C12.9634 19.8022 15.196 19.7897 16.5681 18.4176C17.8154 17.1703 18.9248 12.7432 19.0121 10.9844Z" fill="#58ADE5"/>
<path d="M16.5684 18.4176C15.1963 19.7897 12.9637 19.8022 11.5791 18.4176L19.0124 10.9844C18.9251 12.7432 17.8157 17.1703 16.5684 18.4176Z" fill="#4D98CB"/>
</svg>
