<svg width="32" height="32" viewBox="0 0 32 32" fill="none" xmlns="http://www.w3.org/2000/svg">
<path d="M0 7.00796L2.97515 9.98311L6.18891 10.3937L9.82413 9.03592L10.3937 6.18891L9.98311 2.97515L7.00796 0L0 7.00796Z" fill="#5FBEFF"/>
<path d="M25.8113 21.6062L22.351 22.3508L21.6064 25.811L22.0171 29.0248L24.9922 31.9999L32.0002 24.992L29.025 22.0168L25.8113 21.6062Z" fill="#4D98CB"/>
<path d="M24.9922 0L22.0171 2.97515L21.6064 6.18891L22.9643 9.82413L25.8113 10.3937L29.025 9.98311L32.0002 7.00796L24.9922 0Z" fill="#4D98CB"/>
<path d="M10.3937 25.811L9.64914 22.3508L6.18891 21.6062L2.97515 22.0168L0 24.992L7.00796 31.9999L9.98311 29.0248L10.3937 25.811Z" fill="#5FBEFF"/>
<path d="M20.2054 16.0001L25.8116 10.3938L21.6068 6.18896L16.0005 11.7952L10.3943 6.18896L6.18945 10.3938L11.7957 16.0001L6.18945 21.6063L10.3943 25.8111L16.0005 20.2049L21.6068 25.8111L25.8116 21.6063L20.2054 16.0001Z" fill="#A1D1FD"/>
<path d="M25.8111 21.6063L21.6063 25.8111L16 20.2049V11.7952L21.6063 6.18896L25.8111 10.3938L20.2048 16.0001L25.8111 21.6063Z" fill="#65B3E7"/>
</svg>
