<svg width="37" height="28" viewBox="0 0 37 28" fill="none" xmlns="http://www.w3.org/2000/svg">
<path d="M25.788 10.9056C27.0586 10.9056 28.0887 9.87551 28.0887 8.60488C28.0887 7.33425 27.0586 6.3042 25.788 6.3042C24.5174 6.3042 23.4873 7.33425 23.4873 8.60488C23.4873 9.87551 24.5174 10.9056 25.788 10.9056Z" fill="#A1D1FD"/>
<path d="M18.4668 14.2437L17.0225 19.3861L36.9338 17.9418V14.2437H18.4668Z" fill="#4D98CB"/>
<path d="M18.4671 14.2437H0V17.9418L18.4671 19.3861V14.2437Z" fill="#58ADE5"/>
<path d="M18.4668 28H28.1929C33.0205 28 36.934 24.0865 36.934 19.259V17.9419H18.4668L17.0225 22.9709L18.4668 28Z" fill="#76B7E2"/>
<path d="M0 17.9419V19.259C0 24.0866 3.91347 28 8.74104 28H18.4672V17.9419H0Z" fill="#5FBEFF"/>
<path d="M21.9177 3.45094C21.9177 1.54504 20.3727 0 18.4668 0L17.0225 3.45101L18.4668 6.90203C20.3727 6.90195 21.9177 5.35684 21.9177 3.45094Z" fill="#A1D1FD"/>
<path d="M15.0166 3.45094C15.0166 5.35684 16.5616 6.90196 18.4675 6.90196V0C16.5616 0 15.0166 1.54504 15.0166 3.45094Z" fill="#B9DFFC"/>
</svg>
