<svg width="32" height="42" viewBox="0 0 32 42" fill="none" xmlns="http://www.w3.org/2000/svg">
<path d="M23.133 35.6836C22.9853 37.6523 22.6898 39.6867 22.0502 41.2371L21.7549 42H10.2375L9.94219 41.2371C9.30251 39.6867 9.00703 37.6523 8.85938 35.6836L15.9962 33.2227L23.133 35.6836Z" fill="#A1D1FD"/>
<path d="M23.1329 35.6836C22.9852 37.6523 22.6898 39.6867 22.0501 41.2371L21.7548 42H15.9961V33.2227L23.1329 35.6836Z" fill="#58ADE5"/>
<path d="M23.1329 35.6835H8.85934C8.51489 31.1307 9.20387 26.0858 9.86841 23.1082H22.1239C22.7883 26.0858 23.4773 31.1307 23.1329 35.6835Z" fill="#AFD9F6"/>
<path d="M23.1329 35.6835H15.9961V23.1082H22.1238C22.7883 26.0858 23.4773 31.1307 23.1329 35.6835Z" fill="#76B7E2"/>
<path d="M24.6094 4.92188V7.38281H22.1484V4.92188C22.1484 3.56836 21.041 2.46094 19.6875 2.46094C18.334 2.46094 17.2266 3.56836 17.2266 4.92188V15.3633H14.7656V4.92188C14.7656 3.69141 15.2086 2.55929 15.9961 1.69805C16.882 0.664371 18.211 0 19.6875 0C22.3944 0 24.6094 2.21476 24.6094 4.92188Z" fill="#AFD9F6"/>
<path d="M24.6094 4.92187V7.38281H22.1484V4.92187C22.1484 3.56836 21.041 2.46094 19.6875 2.46094C18.334 2.46094 17.2266 3.56836 17.2266 4.92187V14.4492H15.9961V1.69805C16.882 0.664371 18.211 0 19.6875 0C22.3944 0 24.6094 2.21476 24.6094 4.92187Z" fill="#AFD9F6"/>
<path d="M15.9961 7.38281H7.38281V9.84375H15.9961V7.38281Z" fill="#AFD9F6"/>
<path d="M27.0703 7.38281H19.6875V9.84375H27.0703V7.38281Z" fill="#A1D1FD"/>
<path d="M12.3047 8.61328H9.84375V15.3633H12.3047V8.61328Z" fill="#AFD9F6"/>
<path d="M0 14.1328V15.3633C0 21.4663 4.97118 24.6094 11.0742 24.6094H20.918C27.021 24.6094 31.9922 21.4663 31.9922 15.3633V14.1328H0Z" fill="#B9DFFC"/>
<path d="M31.9922 14.1328V15.3633C31.9922 21.4663 27.021 24.6094 20.918 24.6094H15.9961V14.1328H31.9922Z" fill="#A1D1FD"/>
</svg>
