<svg width="34" height="34" viewBox="0 0 34 34" fill="none" xmlns="http://www.w3.org/2000/svg">
<path d="M13.0156 9.36328L17 15.0078H22.3789L25.6992 13.6797L29.0195 15.0078H33.0039V9.36328H13.0156Z" fill="#4D98CB"/>
<path d="M17 9.36328H0.996094V15.0078H17V9.36328Z" fill="#65B3E7"/>
<path d="M32.0078 10.0273L33.0039 11.0234H30.0156L29.0195 12.3516L28.0234 11.0234H23.375L22.3789 12.3516L21.3828 11.0234H17L15.0078 9.03125L17 7.03906H29.0195C30.6631 7.03906 32.0078 8.38379 32.0078 10.0273Z" fill="#58ADE5"/>
<path d="M10.7293 4.05078H4.98047C3.33691 4.05078 1.99219 5.39551 1.99219 7.03906L7.85493 9.69531L13.7177 7.03906C13.7176 5.39551 12.3729 4.05078 10.7293 4.05078Z" fill="#A1D1FD"/>
<path d="M17 7.03906H0.996094V11.0234H17V7.03906Z" fill="#B9DFFC"/>
<path d="M13.0156 25.3008L17 30.9453H22.3789L25.6992 29.9492L29.0195 30.9453H33.0039V25.3008H13.0156Z" fill="#4D98CB"/>
<path d="M17 25.3008H0.996094V30.9453H17V25.3008Z" fill="#65B3E7"/>
<path d="M32.0078 25.9648L33.0039 26.9609H29.0195L25.6992 25.9648L22.3789 26.9609H17L15.0078 24.9688L17 22.9766H22.3789L25.6992 21.9805L29.0195 22.9766C30.6631 22.9766 32.0078 24.3213 32.0078 25.9648Z" fill="#58ADE5"/>
<path d="M10.7293 19.9883H4.98047C3.33691 19.9883 1.99219 21.333 1.99219 22.9766L7.85493 25.6328L13.7177 22.9766C13.7176 21.333 12.3729 19.9883 10.7293 19.9883Z" fill="#A1D1FD"/>
<path d="M17 22.9766H0.996094V26.9609H17V22.9766Z" fill="#B9DFFC"/>
<path d="M34 34V3.05469C34 2.50456 33.554 2.05859 33.0039 2.05859C32.4538 2.05859 32.0078 2.50456 32.0078 3.05469V34H34Z" fill="#65B3E7"/>
<path d="M1.99219 34V0.996094C1.99219 0.445966 1.54622 0 0.996094 0C0.445966 0 0 0.445966 0 0.996094V34H1.99219Z" fill="#5FBEFF"/>
<path d="M29.0195 17H22.3789V18.9922H29.0195V17Z" fill="#B9DFFC"/>
<path d="M29.0195 20.9844H22.3789V22.9766H29.0195V20.9844Z" fill="#B9DFFC"/>
<path d="M29.0195 28.9531H22.3789V30.9453H29.0195V28.9531Z" fill="#B9DFFC"/>
<path d="M29.0195 24.9688H22.3789V26.9609H29.0195V24.9688Z" fill="#B9DFFC"/>
<path d="M29.0195 13.0156H22.3789V15.0078H29.0195V13.0156Z" fill="#B9DFFC"/>
<path d="M30.0156 11.0234H28.0234V34H30.0156V11.0234Z" fill="#A1D1FD"/>
<path d="M23.375 11.0234H21.3828V34H23.375V11.0234Z" fill="#A1D1FD"/>
</svg>
