<svg width="20" height="20" viewBox="0 0 20 20" fill="none" xmlns="http://www.w3.org/2000/svg">
<path fill-rule="evenodd" clip-rule="evenodd" d="M12.1875 4.0625C14.4312 6.30616 14.4312 9.94384 12.1875 12.1875C9.94384 14.4312 6.30616 14.4312 4.0625 12.1875C1.81884 9.94384 1.81884 6.30616 4.0625 4.0625C6.30616 1.81884 9.94384 1.81884 12.1875 4.0625ZM10.9373 5.3125C12.4906 6.8658 12.4906 9.3842 10.9373 10.9375C9.384 12.4908 6.8656 12.4908 5.3123 10.9375C3.759 9.3842 3.759 6.8658 5.3123 5.3125C6.8656 3.7592 9.384 3.7592 10.9373 5.3125Z" fill="#318CCA"/>
<rect x="10.3125" y="11.5625" width="1.76777" height="7.07107" rx="0.883883" transform="rotate(-45 10.3125 11.5625)" fill="#318CCA"/>
<circle cx="5" cy="10" r="5" fill="#318CCA" fill-opacity="0.35"/>
</svg>