<svg width="37" height="37" viewBox="0 0 37 37" fill="none" xmlns="http://www.w3.org/2000/svg">
<path d="M31.4922 0H30.4082V2.16797H31.4922C32.0899 2.16797 32.5762 2.65424 32.5762 3.25195C32.5762 3.84966 32.0899 4.33594 31.4922 4.33594H30.2992C29.7956 1.86503 27.6057 0 24.9883 0C22.3709 0 20.181 1.86503 19.6774 4.33594H17.2913C16.7877 1.86503 14.5979 0 11.9804 0C9.36294 0 7.17321 1.86503 6.66967 4.33594H5.47656C4.87885 4.33594 4.39258 3.84966 4.39258 3.25195C4.39258 2.65424 4.87885 2.16797 5.47656 2.16797H6.51538V0H5.47656C3.68344 0 2.22461 1.45883 2.22461 3.25195C2.22461 5.04508 3.68344 6.50391 5.47656 6.50391H6.6696C7.17314 8.97481 9.36301 10.8398 11.9805 10.8398H15.2324H17.4004H20.6523H21.7363H24.9883C27.6057 10.8398 29.7955 8.97481 30.2992 6.50391H31.4922C33.2853 6.50391 34.7441 5.04508 34.7441 3.25195C34.7441 1.45883 33.2853 0 31.4922 0ZM15.2324 8.67188H11.9805C10.1873 8.67188 8.72852 7.21305 8.72852 5.41992C8.72852 3.6268 10.1873 2.16797 11.9805 2.16797C13.7736 2.16797 15.2324 3.6268 15.2324 5.41992V8.67188ZM24.9883 8.67188H21.7363V5.41992C21.7363 3.6268 23.1952 2.16797 24.9883 2.16797C26.7814 2.16797 28.2402 3.6268 28.2402 5.41992C28.2402 7.21305 26.7814 8.67188 24.9883 8.67188Z" fill="#58ADE5"/>
<path d="M31.4924 0H30.4084V2.16797H31.4924C32.0901 2.16797 32.5764 2.65424 32.5764 3.25195C32.5764 3.84966 32.0901 4.33594 31.4924 4.33594H30.2994C29.7958 1.86503 27.6059 0 24.9885 0C22.3711 0 20.1813 1.86503 19.6776 4.33594H18.5V10.8398H20.6526H21.7366H24.9885C27.6059 10.8398 29.7958 8.97481 30.2994 6.50391H31.4924C33.2855 6.50391 34.7444 5.04508 34.7444 3.25195C34.7444 1.45883 33.2855 0 31.4924 0ZM24.9885 8.67188H21.7366V5.41992C21.7366 3.6268 23.1954 2.16797 24.9885 2.16797C26.7816 2.16797 28.2405 3.6268 28.2405 5.41992C28.2405 7.21305 26.7816 8.67188 24.9885 8.67188Z" fill="#4D98CB"/>
<path d="M34.7598 15.248V37H23.9199L19.584 31.768L18.5 32.6351L13.0801 37H2.24023V15.248H34.7598Z" fill="#76B7E2"/>
<path d="M34.7598 15.248V37H23.9199L19.584 31.768L18.5 32.6351V15.248H34.7598Z" fill="#76B7E2"/>
<path d="M13.0801 15.248V37H23.9199V15.248H13.0801Z" fill="#58ADE5"/>
<path d="M18.5 15.248H23.9199V37H18.5V15.248Z" fill="#4D98CB"/>
<path d="M37 8.67188V17.416H26.0879L18.5 14.3591L18.1532 14.229L10.9121 17.416H0V8.67188H10.9121L18.5 12.5959L20.3212 13.6221L26.0879 8.67188H37Z" fill="#A1D1FD"/>
<path d="M37 8.67188V17.416H26.0879L18.5 14.3591V12.5959L20.3212 13.6221L26.0879 8.67188H37Z" fill="#B9DFFC"/>
<path d="M10.9121 8.67188V17.416H26.0879V8.67188H10.9121Z" fill="#5FBEFF"/>
<path d="M18.5 8.67188H26.0879V17.416H18.5V8.67188Z" fill="#76B7E2"/>
</svg>
