<svg width="33" height="35" viewBox="0 0 33 35" fill="none" xmlns="http://www.w3.org/2000/svg">
<path d="M20.5762 14.4238H30.8301V20.5762H20.5762V14.4238Z" fill="#5FBEFF"/>
<path d="M25.7031 14.4238H30.8301V20.5762H25.7031V14.4238Z" fill="#4D98CB"/>
<path d="M30.8301 14.4238H20.5762L22.627 4.10156H28.7793L30.8301 14.4238Z" fill="#5FBEFF"/>
<path d="M30.8301 14.4238H25.7031V4.10156H28.7793L30.8301 14.4238Z" fill="#4D98CB"/>
<path d="M16.4746 6.15234V14.4238L14.4238 16.4746L12.373 14.4238V6.15234L14.4238 4.10156L16.4746 6.15234Z" fill="#A1D1FD"/>
<path d="M16.4746 6.15234V14.4238L14.4238 16.4746V4.10156L16.4746 6.15234Z" fill="#5FBEFF"/>
<path d="M13.3984 0H15.4492V3.07617H13.3984V0Z" fill="#5FBEFF"/>
<path d="M16.4746 14.4238V18.5254L14.4238 19.1406L9.62505 20.5762L0 18.5254L4.10156 14.4238H16.4746Z" fill="#5FBEFF"/>
<path d="M14.4238 0H15.4492V3.07617H14.4238V0Z" fill="#4D98CB"/>
<path d="M14.4238 14.4238H16.4746V18.5254L14.4238 19.1406V14.4238Z" fill="#4D98CB"/>
<path d="M0 18.5254H16.4746V35H0V18.5254Z" fill="#A1D1FD"/>
<path d="M14.4238 18.5254H16.4746V35H14.4238V18.5254Z" fill="#5FBEFF"/>
<path d="M12.373 2.05078H16.4746V6.15234H12.373V2.05078Z" fill="#5FBEFF"/>
<path d="M14.4238 2.05078H16.4746V6.15234H14.4238V2.05078Z" fill="#4D98CB"/>
<path d="M18.5254 14.4238C18.5254 13.2912 19.4436 12.373 20.5762 12.373H30.8301C31.9627 12.373 32.8809 13.2912 32.8809 14.4238C32.8809 15.5564 31.9627 16.4746 30.8301 16.4746H20.5762C19.4436 16.4746 18.5254 15.5564 18.5254 14.4238Z" fill="#A1D1FD"/>
<path d="M25.7031 12.373H30.8301C31.9627 12.373 32.8809 13.2912 32.8809 14.4238C32.8809 15.5564 31.9627 16.4746 30.8301 16.4746H25.7031V12.373Z" fill="#5FBEFF"/>
<path d="M32.8809 18.5254V35H18.5254V30.8984L20.5762 28.8477V24.6777L18.5254 22.627V18.5254H32.8809Z" fill="#A1D1FD"/>
<path d="M25.7031 18.5254H32.8809V35H25.7031V18.5254Z" fill="#5FBEFF"/>
<path d="M18.5254 22.627H28.7793V30.8984H18.5254V22.627Z" fill="#B9DFFC"/>
<path d="M25.7031 22.627H28.7793V30.8984H25.7031V22.627Z" fill="#A1D1FD"/>
</svg>
