<svg width="22" height="42" viewBox="0 0 22 42" fill="none" xmlns="http://www.w3.org/2000/svg">
<path d="M19.9011 13.877C19.9011 9.72908 17.1428 6.22601 13.3606 5.10021V2.61622C13.3607 1.17132 12.1894 0 10.7445 0L9.10254 15.5189L19.9011 13.877Z" fill="#65B3E7"/>
<path d="M10.7446 0C9.29965 0 8.12833 1.17132 8.12833 2.61622V5.10021C4.34611 6.22601 1.58789 9.72908 1.58789 13.877L10.7446 15.5189V0Z" fill="#AFD9F6"/>
<path d="M1.58789 13.877V42H10.7446L12.3865 26.5527L10.7446 13.877H1.58789Z" fill="#B9DFFC"/>
<path d="M10.7442 13.877V18.8594H5.51172V21.3203H10.7442V24.0917H5.51172V26.5527H10.7442V29.3242H5.51172V31.7851H10.7442V34.5566H5.51172V37.0176H10.7442V42H19.9008V13.877H10.7442Z" fill="#A1D1FD"/>
<path d="M21.4894 12.6465H9.8698L9.04883 13.877L9.8698 15.1074H21.4894V12.6465Z" fill="#4D98CB"/>
<path d="M10.7446 12.6465H0V15.1074H10.7446V12.6465Z" fill="#58ADE5"/>
</svg>
