<svg width="32" height="38" viewBox="0 0 32 38" fill="none" xmlns="http://www.w3.org/2000/svg">
<path class="p-FF4F1A" d="M11.5112 3.39776V13.6114H2.39453V6.77171C2.39453 4.5 2.39453 4.5 4.43451 3.28358L7.03958 1.81954L7.94431 1.31081C8.69367 0.889521 9.58395 0.896747 10.3261 1.33105C11.0682 1.76534 11.5112 2.53783 11.5112 3.39776Z" fill="#5FBEFF"/>
<path class="p-CA1C00" d="M11.5116 13.6112H7.04004V1.8194L7.94477 1.31067C8.69413 0.889375 10.2581 0.0655485 11.0002 0.499847C11.7424 0.934146 11.5116 3.53769 11.5116 4.39761V13.6112Z" fill="#4D98CB"/>
<path class="p-F1E7DF" d="M12.9211 12.9849H1.1582L0.158203 18.453H12.9211V12.9849Z" fill="#B9DFFC"/>
<path class="p-DFCDBD" d="M12.9215 12.9849H7.04004V18.453H12.9215V12.9849Z" fill="#A1D1FD"/>
<path class="p-8A6746" d="M14.0789 17.9526H0V37.9997H14.0789V17.9526Z" fill="#65B3E7"/>
<path class="p-644B31" d="M14.0791 17.9526H7.04004V37.9997H14.0791V17.9526Z" fill="#4D98CB"/>
<path class="p-60DD4E" d="M31.0314 22.248C31.0314 29.1917 25.3826 34.8405 18.4389 34.8405C11.4952 34.8405 5.8457 29.1917 5.8457 22.248C5.8457 15.3036 11.4952 9.65479 18.4389 9.65479C25.3826 9.65479 31.0314 15.3036 31.0314 22.248Z" fill="#B9DFFC"/>
<path class="p-00BB64" d="M31.031 22.248C31.031 29.1917 25.3822 34.8405 18.4385 34.8405V9.65479C25.3821 9.65479 31.031 15.3036 31.031 22.248Z" fill="#4D98CB"/>
<path class="p-B6EFAB" d="M27.4531 22.2479C27.4531 27.2188 23.4093 31.2627 18.4383 31.2627C13.4667 31.2627 9.42285 27.2188 9.42285 22.2479C9.42285 17.2762 13.4667 13.2324 18.4383 13.2324C23.4093 13.2324 27.4531 17.2762 27.4531 22.2479Z" fill="#A1D1FD"/>
<path class="p-95E0BA" d="M18.4385 31.2627V13.2324C23.4094 13.2324 27.4533 17.2762 27.4533 22.2479C27.4533 27.2188 23.4094 31.2627 18.4385 31.2627Z" fill="#58ADE5"/>
<path class="p-FFDC2D" d="M30.3326 32.0322V35.12C30.3326 36.7076 29.0405 37.9997 27.4529 37.9997H9.42264C7.83502 37.9997 6.54297 36.7076 6.54297 35.12V32.0322H30.3326Z" fill="#B9DFFC"/>
<path class="p-FFC002" d="M30.3329 32.0322V35.12C30.3329 36.7076 29.0409 37.9997 27.4532 37.9997H18.4385V32.0322H30.3329Z" fill="#5FBEFF"/>
</svg>
