<svg width="34" height="34" viewBox="0 0 34 34" fill="none" xmlns="http://www.w3.org/2000/svg">
<path d="M16.6794 29.8164H9.79391C8.51299 29.8164 7.40795 29.0367 6.97839 27.8299C6.54908 26.6232 6.91328 25.3208 7.90626 24.5114L10.7376 22.2043L11.9962 23.7488L9.16461 26.0559C8.65904 26.4678 8.80015 27.0066 8.8554 27.162C8.91065 27.3174 9.14152 27.8242 9.79391 27.8242H16.6794V29.8164Z" fill="#4D98CB"/>
<path d="M11.3662 27.8242H16.6787V29.8164H11.3662V27.8242Z" fill="#4D98CB"/>
<path d="M10.3701 22.9766H12.3623V34H10.3701V22.9766Z" fill="#5FBEFF"/>
<path d="M11.3662 22.9766H12.3623V34H11.3662V22.9766Z" fill="#4D98CB"/>
<path d="M33.0811 7.90234H31.0889V6.97266C31.0889 6.42351 30.6419 5.97656 30.0928 5.97656H28.2998V3.98438H30.0928C31.7405 3.98438 33.0811 5.32495 33.0811 6.97266V7.90234Z" fill="#4D98CB"/>
<path d="M5.72171 22.0469H0V21.0508C0 18.3046 2.23421 17.9082 4.98047 17.9082H6.64062L5.72171 22.0469Z" fill="#4D98CB"/>
<path d="M18.8145 21.9805H17.0107V16.9228H20.6523C21.5677 16.9228 22.3125 15.2592 22.3125 14.3438V7.63672H26.4512V14.3438C26.4512 18.5546 23.0253 21.9805 18.8145 21.9805Z" fill="#4D98CB"/>
<path d="M16.0146 23.9727H6.71777C5.07007 23.9727 3.72949 22.6321 3.72949 20.9844V18.3281C3.72949 14.1173 7.15538 10.6914 11.3662 10.6914C15.577 10.6914 19.0029 14.1173 19.0029 18.3281V20.9844C19.0029 22.6321 17.6624 23.9727 16.0146 23.9727Z" fill="#5FBEFF"/>
<path d="M11.3662 10.6914V23.9727H16.0146C17.6624 23.9727 19.0029 22.6321 19.0029 20.9844V18.3281C19.0029 14.1173 15.577 10.6914 11.3662 10.6914Z" fill="#58ADE5"/>
<path d="M11.3662 23.9727L5.87598 24.8916L6.7949 21.2392C6.7949 19.2253 9.35218 16.668 11.3662 16.668C13.3801 16.668 15.0185 18.3063 15.0185 20.3203C15.0185 22.3343 13.3801 23.9727 11.3662 23.9727Z" fill="#A1D1FD"/>
<path d="M24.3154 9.96094C21.5692 9.96094 19.335 7.72673 19.335 4.98047C19.335 2.23421 21.5692 0 24.3154 0C27.0617 0 29.2959 2.23421 29.2959 4.98047C29.2959 7.72673 27.0617 9.96094 24.3154 9.96094Z" fill="#58ADE5"/>
<path d="M15.0186 20.3203C15.0186 18.3063 13.3802 16.668 11.3662 16.668V23.9727C13.3802 23.9727 15.0186 22.3343 15.0186 20.3203Z" fill="#5FBEFF"/>
</svg>
