<svg width="30" height="38" viewBox="0 0 30 38" fill="none" xmlns="http://www.w3.org/2000/svg">
<path d="M20.1875 12.2461V38H0V12.2461C0 6.70195 4.54961 2.22656 10.0938 2.22656C12.8547 2.22656 15.3707 3.33984 17.1742 5.16562C19 6.96914 20.1875 9.48516 20.1875 12.2461Z" fill="#AFD9F6"/>
<path d="M20.1875 12.2461V38H10.0938V2.22656C12.8547 2.22656 15.3707 3.33984 17.1742 5.16562C19 6.96914 20.1875 9.48516 20.1875 12.2461Z" fill="#65B3E7"/>
<path d="M15.6602 25.375H4.52734V26.7931H15.6602V25.375Z" fill="#58ADE5"/>
<path d="M15.6602 29.8281H4.52734V31.2462H15.6602V29.8281Z" fill="#58ADE5"/>
<path d="M25.7539 8.90625H23.5273C23.5273 7.06459 22.0292 5.56641 20.1875 5.56641V3.33984C22.0292 3.33984 23.5273 1.84166 23.5273 0H25.7539C25.7539 1.84166 27.2521 3.33984 29.0938 3.33984V5.56641C27.2521 5.56641 25.7539 7.06459 25.7539 8.90625ZM22.7156 4.45312C23.1385 4.77056 24.3232 5.95528 24.6406 6.37818C24.9581 5.95528 26.1428 4.77056 26.5657 4.45312C26.1428 4.13569 24.9581 2.95097 24.6406 2.52807C24.3232 2.95097 23.1385 4.13569 22.7156 4.45312Z" fill="#5FBEFF"/>
<path d="M15.6602 5.56641V17.4637C15.304 17.5973 13.1219 19 10.0938 19.0445H9.98242C7.93406 19.0445 6.37539 18.4434 4.52734 17.5304V5.56641C4.52734 2.49375 7.02109 0 10.0938 0C13.1664 0 15.6602 2.49375 15.6602 5.56641Z" fill="#58ADE5"/>
<path d="M15.6602 5.56641V17.4637C15.304 17.5973 13.1219 19 10.0938 19.0445V0C13.1664 0 15.6602 2.49375 15.6602 5.56641Z" fill="#4D98CB"/>
<path d="M15.6602 25.375H10.0938V26.7931H15.6602V25.375Z" fill="#4D98CB"/>
<path d="M15.6602 29.8281H10.0938V31.2462H15.6602V29.8281Z" fill="#4D98CB"/>
</svg>
