<svg width="31" height="37" viewBox="0 0 31 37" fill="none" xmlns="http://www.w3.org/2000/svg">
<path d="M21.2538 4.60952C21.2538 2.06375 19.19 0 16.6443 0H12.735L11.2861 6.05841L21.2538 4.60952Z" fill="#4D98CB"/>
<path d="M12.7355 0H8.82631C6.28055 0 4.2168 2.06375 4.2168 4.60952L12.7355 6.05841V0Z" fill="#58ADE5"/>
<path d="M25.01 23.7587H22.0049V21.5871H25.01C26.8347 21.5871 28.3193 20.1026 28.3193 18.2778V8.00022H23.9758V5.82861H30.4909V18.2778C30.4909 21.2999 28.0322 23.7587 25.01 23.7587Z" fill="#4D98CB"/>
<path d="M18.9493 4.60938L16.6445 27.7809H20.8611C25.4706 23.643 25.4706 4.60938 25.4706 4.60938H18.9493Z" fill="#A1D1FD"/>
<path d="M11.2861 29.2298L16.6443 27.7809C18.949 25.7119 18.949 4.60938 18.949 4.60938H12.735L11.2861 29.2298Z" fill="#B9DFFC"/>
<path d="M6.52132 4.60938H0C0 4.60938 0 23.643 4.60951 27.7809H8.82604L6.52132 4.60938Z" fill="#B9DFFC"/>
<path d="M12.7355 4.60938H6.52148C6.52148 4.60938 6.52148 25.712 8.82621 27.7809L12.7355 29.2298V4.60938Z" fill="#A1D1FD"/>
<path d="M20.8608 27.7812H16.6443H12.735L11.2861 32.3907L12.735 37.0002H23.9338L20.8608 27.7812Z" fill="#65B3E7"/>
<path d="M8.82563 27.7812H4.6091L1.53613 37.0002H12.7349V27.7812H8.82563Z" fill="#A1D1FD"/>
<path d="M10.4972 31.3047H10.3641C9.76445 31.3047 9.27832 31.7908 9.27832 32.3905C9.27832 32.9902 9.76445 33.4763 10.3641 33.4763H10.4972C11.0969 33.4763 11.583 32.9902 11.583 32.3905C11.583 31.7908 11.0969 31.3047 10.4972 31.3047Z" fill="#58ADE5"/>
<path d="M15.1066 31.3047H14.9735C14.3738 31.3047 13.8877 31.7908 13.8877 32.3905C13.8877 32.9902 14.3738 33.4763 14.9735 33.4763H15.1066C15.7063 33.4763 16.1924 32.9902 16.1924 32.3905C16.1924 31.7908 15.7063 31.3047 15.1066 31.3047Z" fill="#4D98CB"/>
</svg>
