<svg width="34" height="38" viewBox="0 0 34 38" fill="none" xmlns="http://www.w3.org/2000/svg">
<path d="M19.4355 36.8867V1.11328C19.4355 0.498433 18.9371 0 18.3223 0C17.7074 0 17.209 0.498433 17.209 1.11328V36.8867C17.209 37.5016 17.7074 38 18.3223 38C18.9371 38 19.4355 37.5016 19.4355 36.8867Z" fill="#A1D1FD"/>
<path d="M19.4355 37.4434V1.11328C19.4355 0.498433 18.9371 0 18.3223 0V37.4434C18.3223 37.7508 18.5715 38 18.8789 38C19.1863 38 19.4355 37.7508 19.4355 37.4434Z" fill="#4D98CB"/>
<path d="M8.67383 24.418V1.11328C8.67383 0.498433 8.17539 0 7.56055 0C6.9457 0 6.44727 0.498434 6.44727 1.11328V24.418H8.67383Z" fill="#A1D1FD"/>
<path d="M8.67383 24.418V1.11328C8.67383 0.498433 8.1754 0 7.56055 0V24.418H8.67383Z" fill="#4D98CB"/>
<path d="M15.121 38H0L1.39932 26.1059C1.59719 24.4243 3.02315 23.1562 4.71623 23.1562H10.4048C12.098 23.1562 13.5238 24.4243 13.7218 26.1059L15.121 38Z" fill="#65B3E7"/>
<path d="M7.56055 38H15.1211L13.7217 26.1059C13.5239 24.4243 12.0979 23.1562 10.4048 23.1562H7.56055V38Z" fill="#4D98CB"/>
<path d="M1.39854 26.1059L1.22168 27.6094H13.8979L13.7211 26.1059C13.6915 25.8545 13.6339 25.6128 13.5528 25.3828H1.56695C1.48568 25.6128 1.42816 25.8545 1.39854 26.1059Z" fill="#A1D1FD"/>
<path d="M7.56055 27.6094H13.8987L13.7218 26.1059C13.6923 25.8545 13.6347 25.6128 13.5535 25.3828H7.56055V27.6094Z" fill="#58ADE5"/>
<path d="M33.166 38.0002H17.209V29.418L33.166 34.5932V38.0002Z" fill="#65B3E7"/>
<path d="M25.1875 32.0054V37.9999H33.166V34.593L25.1875 32.0054Z" fill="#4D98CB"/>
</svg>
