<svg width="32" height="37" viewBox="0 0 32 37" fill="none" xmlns="http://www.w3.org/2000/svg">
<path class="p-FF7452" d="M3.79395 0C1.70193 0 0 1.702 0 3.79395V33.2061H5.41992V0H3.79395Z" fill="#58ADE5"/>
<path class="p-FF7452" d="M31.2188 0H22.1133L10.1895 4.33594V31.6629L31.2188 29.4121V0Z" fill="#58ADE5"/>
<path class="p-FB9D46" d="M5.41992 0V33.2061H17.7773V3.25195L13.4414 0H5.41992Z" fill="#5FBEFF"/>
<path class="p-F7EDBC" d="M29.0508 30.4961H15.6094V35.916H29.0508V30.4961Z" fill="#A1D1FD"/>
<path class="p-FFFFFF" d="M3.79395 30.4961C2.29725 30.4961 1.08398 31.7094 1.08398 33.2061C1.08398 34.7027 2.29725 35.916 3.79395 35.916H17.7773V30.4961H3.79395Z" fill="#B9DFFC"/>
<path class="p-E24642" d="M31.2188 37V34.832H17.7773L16.332 35.916L17.7773 37H31.2188Z" fill="#4D98CB"/>
<path class="p-E24642" d="M31.2188 31.5801V29.4121H17.7773L16.332 30.4961L17.7773 31.5801H31.2188Z" fill="#4D98CB"/>
<path class="p-F15D4A" d="M2.16797 33.2061C2.16797 32.3095 2.89735 31.5801 3.79395 31.5801H17.7773V29.4121H3.79395C1.70193 29.4121 0 31.1141 0 33.2061C0 35.298 1.70193 37 3.79395 37H17.7773V34.832H3.79395C2.89735 34.832 2.16797 34.1026 2.16797 33.2061Z" fill="#65B3E7"/>
<path class="p-C42725" d="M17.7773 0L15.248 9.43832L17.7773 18.8767L23.1133 25.2127V0H17.7773Z" fill="#4D98CB"/>
<path class="p-D33734" d="M12.4414 0V25.2127L17.7773 18.8767V0H12.4414Z" fill="#A1D1FD"/>
</svg>
