<svg width="15" height="11" viewBox="0 0 15 11" fill="none" xmlns="http://www.w3.org/2000/svg">
<path d="M14.3229 5.46091C14.3197 5.44301 14.3148 5.42511 14.3099 5.40883C14.266 5.21515 14.0918 5.07843 13.8932 5.08331L1.58854 5.08331L5.41667 1.25519C5.49967 1.17706 5.54525 1.06964 5.54688 0.955706C5.54525 0.786435 5.44271 0.635068 5.28483 0.571592C5.12858 0.509743 4.94792 0.547177 4.83073 0.669248L0.286458 5.2005L0 5.49998L0.286458 5.79946L4.83073 10.3307C4.93164 10.4544 5.09277 10.5114 5.24902 10.4756C5.40365 10.4398 5.52572 10.3177 5.56152 10.1631C5.59733 10.0068 5.54036 9.84568 5.41667 9.74477L1.58854 5.91664L13.8932 5.91664C14.0137 5.92153 14.1292 5.8727 14.2106 5.78644C14.2936 5.69854 14.3343 5.57973 14.3229 5.46091Z" fill="black" />
</svg>