<svg width="30" height="42" viewBox="0 0 30 42" fill="none" xmlns="http://www.w3.org/2000/svg">
<path class="p-FFE98F" d="M11.8961 0H4.25977L5.11691 6.96813H11.039L11.8961 0Z" fill="#5FBEFF"/>
<path class="p-FFC170" d="M11.8972 0H8.0791V6.96813H11.0401L11.8972 0Z" fill="#76B7E2"/>
<path class="p-99EFF2" d="M16.1156 39.8998L16.0322 35.7379L15.063 11.5088L13.2859 9.42847H3.00019L1.09453 11.5088L0.125418 35.7379L0.0419922 39.8998H16.1156Z" fill="#58ADE5"/>
<path class="p-00D7DF" d="M16.115 39.8998L16.0316 35.7379L15.0624 11.5088L13.2853 9.42847H8.07812V39.8998H16.115Z" fill="#4D98CB"/>
<path class="p-CCF7F9" d="M0 41.9999H8.07883H16.1578L16.1005 39.1362H0.0573395L0 41.9999Z" fill="#AFD9F6"/>
<path class="p-CCF7F9" d="M11.8335 6.58447H4.32438L1.125 11.4546H15.0327L11.8335 6.58447Z" fill="#AFD9F6"/>
<path class="p-EBFCFC" d="M9.67026 19.5681H6.80664V27.4967H9.67026V19.5681Z" fill="#B9DFFC"/>
<path class="p-EBFCFC" d="M20.8672 5.53613V10.6906H24.3054V5.53613" fill="#EBFCFC"/>
<path class="p-00D7DF" d="M20.8672 1.90918V6.68191H25.0691V9.54553H20.8672V14.3182H25.7373V1.90918H20.8672Z" fill="#AFD9F6"/>
<path class="p-FFE98F" d="M24.3057 0C26.9416 0 29.0784 2.13683 29.0784 4.77273V39.6135C29.0784 40.9314 28.0099 41.9999 26.692 41.9999C25.3741 41.9999 24.3057 40.9314 24.3057 39.6135V12.8863V0Z" fill="#58ADE5"/>
<path class="p-FFC170" d="M26.6924 0.640137V41.9999C28.0103 41.9999 29.0787 40.9315 29.0787 39.6136V4.77278C29.0787 3.00657 28.1185 1.46553 26.6924 0.640137Z" fill="#4D98CB"/>
</svg>
