<svg width="35" height="42" viewBox="0 0 35 42" fill="none" xmlns="http://www.w3.org/2000/svg">
<path class="p-87A0AF" d="M8.61851 13.7715H4.51367L6.15561 41.9998H8.61851V13.7715Z" fill="#4D98CB"/>
<path class="p-87A0AF" d="M23.3968 13.7715H19.292L20.9339 41.9998H23.3968V13.7715Z" fill="#4D98CB"/>
<path class="p-B4D2D7" d="M20.9336 13.7715H18.4707V41.9998H20.9336V13.7715Z" fill="#5FBEFF"/>
<path class="p-E1EBF0" d="M17.2383 8.49681L14.7773 8.19822V0H17.2383V8.49681Z" fill="#B9DFFC"/>
<path class="p-E1EBF0" d="M22.1641 0H19.7031V8.49681H22.1641V0Z" fill="#B9DFFC"/>
<path class="p-B4D2D7" d="M27.0898 8.19822L24.6289 8.49681V0H27.0898V8.19822Z" fill="#A1D1FD"/>
<path class="p-B4D2D7" d="M6.15724 13.7715H3.69434V41.9998H6.15724V13.7715Z" fill="#5FBEFF"/>
<path class="p-B4D2D7" d="M20.9339 7.26636L19.292 9.35158L20.9339 15.6627C24.3285 15.6627 27.0902 12.9011 27.0902 9.50646V7.26636H20.9339Z" fill="#A1D1FD"/>
<path class="p-E1EBF0" d="M14.7773 7.26636V9.50637C14.7773 12.901 17.5391 15.6627 20.9336 15.6627V7.26636H14.7773Z" fill="#B9DFFC"/>
<path class="p-B4D2D7" d="M6.15561 0L4.51367 7.83136L6.15561 15.6627C9.55023 15.6627 12.3119 12.9011 12.3119 9.50644V6.15628C12.3119 2.76166 9.55023 0 6.15561 0Z" fill="#A1D1FD"/>
<path class="p-E1EBF0" d="M6.15628 0C2.76166 0 0 2.76166 0 6.15628V9.50644C0 12.9011 2.76175 15.6627 6.15628 15.6627V0Z" fill="#B9DFFC"/>
<path class="p-87A0AF" d="M34.4789 18.1275L30.374 16.4856L32.016 41.9999H34.4789V18.1275Z" fill="#4D98CB"/>
<path class="p-B4D2D7" d="M29.5537 18.1275V41.9999H32.0166V16.4856L29.5537 18.1275Z" fill="#5FBEFF"/>
<path class="p-B4D2D7" d="M34.4789 19.0595V4.92586C34.4789 3.10296 33.4878 1.51246 32.016 0.660645L30.374 10.5326L32.016 19.0594L34.4789 19.0595Z" fill="#A1D1FD"/>
<path class="p-E1EBF0" d="M32.0166 0.660598C31.292 0.241254 30.4512 0 29.5537 0V19.0595H32.0166V0.660598Z" fill="#B9DFFC"/>
</svg>
