<svg width="37" height="30" viewBox="0 0 37 30" fill="none" xmlns="http://www.w3.org/2000/svg">
<path d="M18.5 0H12.409C11.4911 0 10.6123 0.371763 9.97303 1.03051L0 10.893L4.55721 15.3997L10.973 9.055V30H15.3316C17.0814 30 18.5 28.5971 18.5 26.8667C18.5 28.5971 19.9186 30 21.6684 30H26.027V7.52704C26.027 3.37 22.657 3.94473e-05 18.5 0Z" fill="#A1D1FD"/>
<path d="M27.027 1.03051C26.3877 0.371763 25.5089 0 24.591 0H18.5V26.8667C18.5 28.5971 19.9186 30 21.6684 30H26.027V9.055L32.4428 15.3997L37 10.893L27.027 1.03051Z" fill="#65B3E7"/>
<path d="M1.4948 9.41469L6.05176 13.9211L7.58473 12.4052L3.02777 7.89871L1.4948 9.41469Z" fill="#B9DFFC"/>
<path d="M18.4997 0H14.9688L18.4997 10.8292L22.0307 0H18.4997Z" fill="#58ADE5"/>
<path d="M18.5 0V9.84025L22.031 0H18.5Z" fill="#4D98CB"/>
<path d="M20.9898 0H24.1141C24.9216 0 25.3961 0.907668 24.9352 1.57074L18.5 10.8292L20.9898 0Z" fill="#A1D1FD"/>
<path d="M33.972 7.89809L29.415 12.4045L30.948 13.9205L35.505 9.41407L33.972 7.89809Z" fill="#A1D1FD"/>
<path d="M24.2686 13.5281H22.1006V20.8861H24.2686V13.5281Z" fill="#4D98CB"/>
<path d="M26.0263 12.8486H10.9727V14.9926H26.0263V12.8486Z" fill="#B9DFFC"/>
<path d="M26.0272 12.8486H18.5V14.9926H26.0272V12.8486Z" fill="#A1D1FD"/>
<path d="M16.0099 0H12.8856C12.078 0 11.6035 0.907669 12.0644 1.57074L18.4996 10.8292L16.0099 0Z" fill="#B9DFFC"/>
<path d="M23.1846 12.8486H21.0166V20.2066H23.1846V12.8486Z" fill="#A1D1FD"/>
</svg>
