<svg width="23" height="38" viewBox="0 0 23 38" fill="none" xmlns="http://www.w3.org/2000/svg">
<path d="M16.2714 38.0001C13.8058 38.0001 11.8008 35.9952 11.8008 33.5295V29.2196L17.8891 32.2635L16.8892 33.4116L13.1994 31.5088V34.0636C13.1994 35.2958 14.4768 36.6164 16.2714 36.6164C18.6548 36.6164 19.3582 34.7618 19.3582 33.5295V27.9412H20.742V33.5295C20.742 35.9952 18.737 38.0001 16.2714 38.0001Z" fill="#A1D1FD"/>
<path d="M19.3584 3.32251H20.7421V21.2351H19.3584V3.32251Z" fill="#A1D1FD"/>
<path d="M15.0154 12.7183L12.8447 10.5211L14.4252 8.94067L16.5958 11.1381L15.0154 12.7183Z" fill="#4D98CB"/>
<path d="M22.2024 0.790229L21.4122 0L0 21.4122L0.785861 22.198L0.789938 22.2027L1.58046 22.9926L22.9926 1.58046L22.2024 0.790229Z" fill="#5FBEFF"/>
<path d="M1.58073 22.9924L22.9929 1.58027L22.2027 0.790039L0.786133 22.1979L0.790209 22.2025L1.58073 22.9924Z" fill="#58ADE5"/>
<path d="M20.0119 28.1022C18.3684 28.1022 17.0312 26.8129 17.0312 25.228V23.312C17.0312 21.7271 18.3684 20.438 20.0119 20.438C21.6555 20.438 22.9923 21.7271 22.9923 23.312V25.228C22.9923 26.8129 21.6555 28.1022 20.0119 28.1022Z" fill="#65B3E7"/>
</svg>
