<svg width="21" height="36" viewBox="0 0 21 36" fill="none" xmlns="http://www.w3.org/2000/svg">
<path class="p-03232E" d="M18.0605 8.96987L8.74414 7.5625V14.8621L18.0605 13.4548V8.96987Z" fill="#4D98CB"/>
<path class="p-07485E" d="M2.24219 8.96987V13.4548L10.1511 14.8621V7.5625L2.24219 8.96987Z" fill="#5FBEFF"/>
<path class="p-AB7B26" d="M20.3029 35.9999V13.4546H10.1515L8.74414 35.2962L11.2062 35.9999H14.1725L15.2272 35.2962L16.2819 35.9999H20.3029Z" fill="#58ADE5"/>
<path class="p-E1BB78" d="M0 35.9999H4.02096L5.07564 35.2962L6.13033 35.9999H9.09667L10.1514 35.2962V13.4546H0V35.9999Z" fill="#65B3E7"/>
<path class="p-B4D2D7" d="M20.3029 4.47539C20.3029 2.00369 18.2992 0 15.8275 0H10.1515L8.74414 4.48488L10.1515 8.96983H20.3029V4.47539Z" fill="#A1D1FD"/>
<path class="p-E1EBF0" d="M4.47539 0C2.00369 0 0 2.00369 0 4.47539V8.96976H10.1514V0H4.47539Z" fill="#B9DFFC"/>
<path class="p-AB7B26" d="M6.13086 30.3938H4.02148V36H6.13086V30.3938Z" fill="#B9DFFC"/>
<path class="p-71390F" d="M11.2061 30.3938H9.09668V36H11.2061V30.3938Z" fill="#B9DFFC"/>
<path class="p-71390F" d="M16.2822 30.3938H14.1729V36H16.2822V30.3938Z" fill="#A1D1FD"/>
<path class="p-607882" d="M15.7571 3.43018H13.5146V5.53955H15.7571V3.43018Z" fill="#4D98CB"/>
<path class="p-87A0AF" d="M11.2727 3.43018H9.03027V5.53955H11.2727V3.43018Z" fill="#58ADE5"/>
<path class="p-87A0AF" d="M6.7874 3.43018H4.54492V5.53955H6.7874V3.43018Z" fill="#58ADE5"/>
</svg>
