<svg width="33" height="33" viewBox="0 0 33 33" fill="none" xmlns="http://www.w3.org/2000/svg">
<path class="p-575F64" d="M16.5752 5.86523V13.5996H3.04004V5.86523H6.90723L7.75796 7.79883L8.84082 5.86523H10.7744L11.7994 7.79883L12.708 5.86523H16.5752Z" fill="#B9DFFC"/>
<path class="p-32393F" d="M9.80762 13.5996V5.86523H10.7744L11.7994 7.79883L12.708 5.86523H16.5752V13.5996H9.80762Z" fill="#65B3E7"/>
<path class="p-73BCFF" d="M19.6216 16.6114V17.6148L17.8432 19.6215H1.77839L0 18.5066V16.6114C0 13.8422 2.05117 11.5945 4.50527 11.5945H15.1756C17.6297 11.5945 19.6216 13.8422 19.6216 16.6114Z" fill="#58ADE5"/>
<path class="p-0095FF" d="M19.6214 16.6114V18.5066L17.8376 19.6215H9.81055V11.5945H15.1619C17.6234 11.5945 19.6214 13.8422 19.6214 16.6114Z" fill="#4D98CB"/>
<path class="p-73BCFF" d="M19.6216 26.9631V27.9582C19.6216 30.7045 17.6297 32.9999 15.1756 32.9999H4.50527C2.05117 32.9999 0 30.7045 0 27.9582V25.1793L3.61607 24.9729H16.0648L19.6216 26.9631Z" fill="#58ADE5"/>
<path class="p-0095FF" d="M16.0538 24.9729L19.6214 26.0712V27.9582C19.6214 30.7045 17.6234 32.9999 15.1619 32.9999H9.81055V24.9729H16.0538Z" fill="#4D98CB"/>
<path class="p-ECECF1" d="M0 17.8379H19.6216V26.7568H0V17.8379Z" fill="#B9DFFC"/>
<path class="p-D3D3D8" d="M9.81055 17.8379H19.6214V26.7568H9.81055V17.8379Z" fill="#A1D1FD"/>
<path class="p-ECECF1" d="M27.6731 3.93164L23.3419 5.86523L19.0107 3.93164L20.9249 1.21806C21.4665 0.406105 22.4139 0 23.3419 0C24.27 0 25.2174 0.406105 25.7589 1.21806L27.6731 3.93164Z" fill="#B9DFFC"/>
<path class="p-D3D3D8" d="M27.674 3.93164L23.3428 5.86523V0C24.2708 0 25.2182 0.406105 25.7598 1.21806L27.674 3.93164Z" fill="#A1D1FD"/>
<path class="p-73BCFF" d="M32.1084 3.93164V5.86523H27.9061L25.9725 11.666H20.713L18.4121 4.76299L19.0116 3.93164H32.1084Z" fill="#58ADE5"/>
<path class="p-0095FF" d="M32.1084 3.93164V5.86523H27.9061L25.9725 11.666H23.3428V3.93164H32.1084Z" fill="#4D98CB"/>
<path class="p-575F64" d="M3.04004 21.334H16.5752V23.2676H3.04004V21.334Z" fill="#5FBEFF"/>
<path class="p-32393F" d="M9.80762 21.334H16.5752V23.2676H9.80762V21.334Z" fill="#58ADE5"/>
<path class="p-0095FF" d="M12.708 19.4004H14.6416V25.2012H12.708V19.4004Z" fill="#4D98CB"/>
</svg>
