<svg width="38" height="48" viewBox="0 0 38 48" fill="none" xmlns="http://www.w3.org/2000/svg">
<path class="p-FF9100" d="M14.9701 15.4079V0H8.99023V13.5308L14.9701 15.4079Z" fill="#AFD9F6"/>
<path class="p-FF3939" d="M28.0473 13.5308V0H22.0674V15.4079L28.0473 13.5308Z" fill="#65B3E7"/>
<path class="p-F5CF2D" d="M31.0472 13.5308H18.5186L16.6416 25.4858L18.5186 36.4556H21.5086V47.9999H37.0371L34.0371 20.4857L31.0472 13.5308Z" fill="#4D98CB"/>
<path class="p-FFDE55" d="M5.98997 13.5308L3 20.4857L0 47.9999H15.5286V36.4556H18.5184V13.5308H5.98997Z" fill="#58ADE5"/>
<path class="p-FF9100" d="M18.5186 32.4803H21.0771C24.9403 32.4803 28.072 29.3486 28.072 25.4854L16.6416 23.6084L18.5186 32.4803Z" fill="#B9DFFC"/>
<path class="p-FF3939" d="M18.5186 19.5059L16.6416 22.4958L18.5186 25.4857H28.072V19.5059H18.5186Z" fill="#76B7E2"/>
<path class="p-E4BF24" d="M8.96484 25.4854C8.96484 29.3486 12.0965 32.4803 15.9597 32.4803H18.5182V23.6084L8.96484 25.4854Z" fill="#A1D1FD"/>
<path class="p-FF9100" d="M18.5182 19.5059H8.96484V25.4857H18.5182V19.5059Z" fill="#5FBEFF"/>
</svg>
