<svg width="41" height="31" viewBox="0 0 41 31" fill="none" xmlns="http://www.w3.org/2000/svg">
<path d="M15.1868 23.0691C14.3399 23.62 13.4158 23.3826 12.9391 22.4916C12.7947 22.2213 12.4923 22.1981 12.2642 22.4405C12.0361 22.6822 11.9682 23.0975 12.1128 23.3678C12.4706 24.0367 12.9966 24.4603 13.5922 24.6133C14.1877 24.7663 14.8526 24.6487 15.4886 24.2352C15.7454 24.068 15.8864 23.6715 15.803 23.3498C15.7198 23.0274 15.4439 22.902 15.1868 23.0691Z" fill="#FF8000"/>
<path d="M10.6556 16.9239C10.1249 16.7875 9.54804 16.9959 9.1127 17.4814C8.86015 17.763 8.81947 18.2178 9.022 18.4973C9.22452 18.7769 9.59338 18.7755 9.84632 18.4937C10.0282 18.291 10.2197 18.3132 10.2938 18.3323C10.3678 18.3513 10.5425 18.4259 10.608 18.6894C10.7444 19.2394 11.214 19.1438 11.3285 19.0899C11.6407 18.9426 11.8246 18.5246 11.739 18.1562C11.5913 17.5209 11.1863 17.0602 10.6556 16.9239Z" fill="#FF8000"/>
<path d="M19.7425 19.5031C19.2118 19.3668 18.635 19.5751 18.1996 20.0607C17.9471 20.3422 17.9064 20.797 18.1089 21.0766C18.3114 21.3561 18.6803 21.3547 18.9332 21.0729C19.1151 20.8702 19.3066 20.8924 19.3807 20.9115C19.4548 20.9305 19.6294 21.0051 19.6949 21.2686C19.8313 21.8186 20.3009 21.723 20.4154 21.6692C20.7276 21.5218 20.9115 21.1038 20.8259 20.7354C20.6782 20.1001 20.2733 19.6395 19.7425 19.5031Z" fill="#FF8000"/>
<path d="M20.2932 7.67779L10.7568 5.12331C10.3683 5.01767 9.97403 5.24987 9.87052 5.63479C9.7671 6.02043 9.99637 6.41755 10.382 6.52097L19.9184 9.07544C19.9814 9.09209 20.0443 9.10001 20.1058 9.10001C20.4256 9.10001 20.7178 8.88659 20.8039 8.56396C20.9088 8.1777 20.6795 7.7805 20.2932 7.67779Z" fill="#FF8000"/>
<path d="M22.4268 8.74121C22.4535 8.70356 22.476 8.66236 22.51 8.63049C22.4767 8.66307 22.4543 8.70356 22.4268 8.74121Z" fill="#FF8000"/>
<path d="M22.35 8.85498C22.3334 8.89192 22.329 8.93312 22.3188 8.97362C22.329 8.93383 22.3334 8.89263 22.35 8.85498Z" fill="#FF8000"/>
<path d="M22.7495 8.4812C22.6974 8.50069 22.6547 8.53327 22.6099 8.5637C22.6547 8.53398 22.6974 8.5014 22.7495 8.4812Z" fill="#FF8000"/>
<path d="M22.3222 29.923C22.1934 29.5447 22.3953 29.1338 22.7736 29.005L23.7307 28.6787V9.66735L23.2446 9.83592C22.8655 9.96755 22.4546 9.76721 22.3243 9.38958C22.2947 9.30352 22.286 9.21595 22.2889 9.12988C22.2889 9.1378 22.2845 9.1451 22.2845 9.15302V28.7591L7.20224 24.9103V12.5936L6.84918 12.7094L5.75537 12.9941V25.4718C5.75537 25.8024 5.97965 26.0903 6.30014 26.1728L22.8294 30.3906C22.8888 30.4058 22.9487 30.413 23.0081 30.413C22.7056 30.4135 22.4242 30.2239 22.3222 29.923Z" fill="#FF8000"/>
<path d="M23.0063 30.4136C23.0866 30.4136 23.1655 30.4006 23.2408 30.3745H23.2401C23.1626 30.4013 23.0838 30.4136 23.0063 30.4136Z" fill="#FF8000"/>
<path d="M6.07178 4.14208C6.12099 4.10808 6.17012 4.07337 6.22664 4.05237C6.1687 4.07328 6.12099 4.10737 6.07178 4.14208Z" fill="#FF8000"/>
<path d="M36.4028 4.36553C36.394 4.35031 36.3789 4.34168 36.3695 4.32788C36.4404 4.43352 36.4902 4.5543 36.4975 4.68815C36.5142 5.00935 36.316 5.30377 36.0121 5.4087L35.4449 5.60548L39.2162 12.1917L28.8753 15.7735L25.9851 11.6058C25.7572 11.2788 25.3058 11.1956 24.9781 11.4242C24.6497 11.6513 24.5686 12.1028 24.7958 12.4312L27.9985 17.0497C28.1367 17.2479 28.3609 17.3608 28.5932 17.3608C28.672 17.3608 28.7523 17.3485 28.8297 17.321L34.6513 15.3041V14.2876C34.6513 13.8875 34.9755 13.5641 35.3748 13.5641C35.7741 13.5641 36.0983 13.8875 36.0983 14.2876V14.8027L40.5142 13.2734C40.7175 13.2024 40.8795 13.0454 40.9547 12.843C41.03 12.6418 41.0119 12.4168 40.9048 12.2295L36.4028 4.36553Z" fill="#FF8000"/>
<path d="M36.1855 4.13599C36.2101 4.15334 36.2304 4.17435 36.2521 4.19384C36.2297 4.17426 36.2094 4.15254 36.1855 4.13599Z" fill="#FF8000"/>
<path d="M35.9531 4.02661C35.9748 4.0324 35.9936 4.04468 36.0146 4.05198C35.9929 4.04468 35.9748 4.0324 35.9531 4.02661Z" fill="#FF8000"/>
<path d="M34.6516 24.9546L23.7298 28.6789V29.6896C23.7298 29.9132 23.6264 30.1244 23.4498 30.2612C23.3861 30.3104 23.3152 30.348 23.2407 30.374L35.608 26.1563C35.901 26.0565 36.0978 25.7808 36.0978 25.4719V14.8032L34.6509 15.3046V24.9546H34.6516V24.9546Z" fill="#FF8000"/>
<path d="M23.7296 29.6905V28.6798L22.7725 29.0061C22.3941 29.1349 22.1923 29.5458 22.3211 29.9241C22.4238 30.2251 22.7045 30.4146 23.0055 30.4146C23.0829 30.4146 23.1618 30.4023 23.2392 30.3755H23.2399C23.3144 30.3502 23.3853 30.3126 23.449 30.2627C23.6262 30.1245 23.7296 29.9133 23.7296 29.6905Z" fill="#FF8000"/>
<path d="M35.3748 13.5648C34.9755 13.5648 34.6514 13.8882 34.6514 14.2883V15.3048L36.0982 14.8034V14.2883C36.0983 13.8882 35.7742 13.5648 35.3748 13.5648Z" fill="#FF8000"/>
<path d="M36.252 4.19446C36.2954 4.23353 36.3352 4.27767 36.3692 4.32831C36.3352 4.27767 36.2968 4.23424 36.252 4.19446Z" fill="#FF8000"/>
<path d="M36.0146 4.05176C36.0747 4.07276 36.1326 4.09875 36.1854 4.13568C36.1333 4.09946 36.0753 4.07338 36.0146 4.05176Z" fill="#FF8000"/>
<path d="M7.20014 4.72533V5.2498L18.7072 1.47344L33.176 4.86061L22.7686 8.46991C22.7614 8.47205 22.7564 8.47863 22.7491 8.48148C22.8294 8.45113 22.9148 8.43013 23.0053 8.43013C23.4046 8.43013 23.7288 8.75347 23.7288 9.15361V9.66794L35.4435 5.6058L35.1454 5.08569C34.9472 4.73912 35.0673 4.29643 35.4138 4.09823C35.5838 4.00202 35.7763 3.98324 35.9521 4.0273C35.947 4.02587 35.9434 4.02294 35.9384 4.02151L18.8388 0.01865C18.7093 -0.010987 18.5741 -0.00520194 18.4482 0.0352931L6.25095 4.03807C6.24152 4.041 6.23502 4.04893 6.22559 4.05258C6.30444 4.02294 6.38765 4.00193 6.47665 4.00193C6.87671 4.00193 7.20014 4.32527 7.20014 4.72533Z" fill="#FF8000"/>
<path d="M22.5103 8.63076C22.5392 8.60326 22.5768 8.5859 22.6101 8.56348C22.5767 8.5859 22.5392 8.60326 22.5103 8.63076Z" fill="#FF8000"/>
<path d="M22.2871 9.12992C22.2885 9.07491 22.3052 9.02499 22.319 8.97363C22.3052 9.02579 22.2892 9.07563 22.2871 9.12992Z" fill="#FF8000"/>
<path d="M22.4273 8.74121C22.4005 8.77886 22.3695 8.81286 22.3506 8.85478C22.3702 8.81286 22.4012 8.77886 22.4273 8.74121Z" fill="#FF8000"/>
<path d="M7.20038 5.2493V4.72482C7.20038 4.32477 6.87624 4.00134 6.4769 4.00134C6.3879 4.00134 6.30468 4.02235 6.22583 4.05198C6.1694 4.07299 6.12019 4.1077 6.07097 4.1417C5.88363 4.27261 5.75342 4.47883 5.75342 4.72482V6.34899L6.84723 5.36509L7.20038 5.2493Z" fill="#FF8000"/>
<path d="M23.0063 8.42944C22.9151 8.42944 22.8298 8.45045 22.7501 8.4808C22.6981 8.50109 22.6546 8.53286 22.6105 8.5633C22.5772 8.58573 22.5403 8.60308 22.5106 8.63058C22.4766 8.66316 22.4542 8.70365 22.4274 8.7413C22.4006 8.77895 22.3703 8.81294 22.3507 8.85486C22.334 8.89251 22.3297 8.93372 22.3195 8.9735C22.3058 9.02485 22.2899 9.07478 22.2877 9.12978C22.2847 9.21585 22.2927 9.30342 22.3231 9.38949C22.454 9.76711 22.8649 9.96754 23.2434 9.83582L23.7295 9.66726V9.15292C23.7297 8.75278 23.4056 8.42944 23.0063 8.42944Z" fill="#FF8000"/>
<path d="M35.4152 4.09722C35.0687 4.29542 34.9486 4.7382 35.1468 5.08476L35.4449 5.60488L36.0121 5.4081C36.3159 5.30246 36.5141 5.00876 36.4975 4.68755C36.4903 4.5537 36.4403 4.43364 36.3694 4.32728C36.3354 4.27664 36.2963 4.2325 36.2522 4.19343C36.2305 4.17314 36.2095 4.15222 36.1856 4.13558C36.1329 4.09944 36.0749 4.07265 36.0149 4.05165C35.9939 4.04444 35.9759 4.03216 35.9534 4.02628C35.7777 3.98143 35.5852 4.00021 35.4152 4.09722Z" fill="#FF8000"/>
<path d="M6.24688 4.22738C6.23963 4.24244 5.97413 4.14278 5.84638 4.40538L1.77963 11.505C1.70195 11.7064 1.71791 11.9315 1.82251 12.1191C1.9273 12.3079 2.11113 12.4388 2.32276 12.4783L18.978 16.6391C19.0587 16.6546 19.1399 16.6547 19.2179 16.6428C19.4475 16.6079 19.6522 16.4626 19.759 16.2459L23.6994 9.52156C23.8746 9.16272 23.7266 8.72855 23.3678 8.55338C23.0094 8.37661 22.5757 8.52675 22.3995 8.88429L18.7003 15.1161L3.44335 11.2138L6.89651 5.66083L7.27038 5.07288C6.95421 5.01483 5.96723 5.21494 5.93538 4.89488C5.92247 4.76145 6.19264 4.34249 6.24688 4.22738Z" fill="#FF8000"/>
</svg>
