<svg width="34" height="23" viewBox="0 0 34 23" fill="none" xmlns="http://www.w3.org/2000/svg">
<path d="M31.2392 19.8872H29.2871V23H31.2392V19.8872Z" fill="#4D98CB"/>
<path d="M23.7119 2.8479L25.0143 20.8638H33.3152V4.15032L23.7119 2.8479Z" fill="#65B3E7"/>
<path d="M29.2262 7.3252H29.103C28.5639 7.3252 28.127 7.76218 28.127 8.30123C28.127 8.84028 28.5639 9.27726 29.103 9.27726H29.2262C29.7652 9.27726 30.2022 8.84028 30.2022 8.30123C30.2022 7.76218 29.7652 7.3252 29.2262 7.3252Z" fill="#4D98CB"/>
<path d="M29.2262 11.4753H29.103C28.5639 11.4753 28.127 11.9123 28.127 12.4514C28.127 12.9904 28.5639 13.4274 29.103 13.4274H29.2262C29.7652 13.4274 30.2022 12.9904 30.2022 12.4514C30.2022 11.9123 29.7652 11.4753 29.2262 11.4753Z" fill="#4D98CB"/>
<path d="M29.2262 15.6255H29.103C28.5639 15.6255 28.127 16.0625 28.127 16.6015C28.127 17.1406 28.5639 17.5776 29.103 17.5776H29.2262C29.7652 17.5776 30.2022 17.1406 30.2022 16.6015C30.2022 16.0625 29.7652 15.6255 29.2262 15.6255Z" fill="#4D98CB"/>
<path d="M33.3152 0H25.0143L23.7119 4.15042H33.3152V0Z" fill="#4D98CB"/>
<path d="M4.02824 19.8872H2.07617V23H4.02824V19.8872Z" fill="#58ADE5"/>
<path d="M25.014 0H16.6569L15.3545 10.432L16.6569 20.8639H25.014V0Z" fill="#A1D1FD"/>
<path d="M16.6572 0H0V20.864H16.6572V0Z" fill="#B9DFFC"/>
<path d="M21.8437 5.17017C21.8437 4.0656 20.9483 3.17017 19.8437 3.17017H16.6569L15.3545 9.45504L16.6569 17.6935H19.8438C20.9483 17.6935 21.8437 16.798 21.8437 15.6935V5.17017Z" fill="#4D98CB"/>
<path d="M16.6568 3.17017H5.16992C4.06535 3.17017 3.16992 4.0656 3.16992 5.17017V15.6935C3.16992 16.798 4.06535 17.6935 5.16992 17.6935H16.6568V3.17017Z" fill="#58ADE5"/>
</svg>
