<svg width="28" height="28" viewBox="0 0 28 28" fill="none" xmlns="http://www.w3.org/2000/svg">
<path d="M14 28C10.2605 28 6.74477 26.5437 4.10047 23.8995C1.45627 21.2552 0 17.7395 0 14C0 10.2605 1.45627 6.74477 4.10047 4.10047C6.74477 1.45627 10.2605 0 14 0C17.7395 0 21.2552 1.45627 23.8995 4.10047C26.5437 6.74477 28 10.2605 28 14C28 17.7395 26.5437 21.2552 23.8995 23.8995C21.2552 26.5437 17.7395 28 14 28Z" fill="#B9DFFC"/>
<path d="M23.8995 4.10047C21.2552 1.45627 17.7395 0 14 0V28C17.7395 28 21.2552 26.5437 23.8995 23.8995C26.5437 21.2552 28 17.7395 28 14C28 10.2605 26.5437 6.74477 23.8995 4.10047Z" fill="#A1D1FD"/>
<path d="M4.37347 24.165C6.82959 21.3452 8.17097 17.7759 8.17097 14.0007C8.17097 10.2249 6.82948 6.65549 4.37298 3.83569C4.28121 3.9227 4.19027 4.01086 4.10047 4.1006C1.45627 6.7449 0 10.2606 0 14.0001C0 17.7397 1.45627 21.2554 4.10047 23.8997C4.19043 23.9896 4.28154 24.0778 4.37347 24.165Z" fill="#58ADE5"/>
<path d="M23.8995 4.1005C23.8918 4.09273 23.8838 4.08535 23.8761 4.07764C21.5541 6.85746 20.2891 10.3289 20.2891 13.9947C20.2891 17.6634 21.5558 21.1369 23.881 23.9176C23.8871 23.9115 23.8934 23.9057 23.8995 23.8996C26.5437 21.2553 28 17.7396 28 14C28 10.2605 26.5437 6.7448 23.8995 4.1005Z" fill="#4D98CB"/>
<path d="M18.6484 13.9946C18.6484 9.92359 20.0594 6.06933 22.6481 2.98873C20.1914 1.05142 17.1766 0 13.9999 0C10.9409 0 8.03195 0.975024 5.62695 2.77714C8.33382 5.89269 9.81159 9.83298 9.81159 14.0006C9.81159 18.1676 8.33393 22.1079 5.6275 25.2233C8.03238 27.0251 10.9412 28 13.9999 28C17.1789 28 20.1958 26.947 22.6535 25.007C20.0613 21.9254 18.6484 18.0689 18.6484 13.9946Z" fill="#58ADE5"/>
<path d="M18.6484 13.9946C18.6484 9.92359 20.0594 6.06933 22.6481 2.98873C20.1915 1.05142 17.1767 0 14 0V28C17.179 28 20.1959 26.947 22.6535 25.007C20.0613 21.9254 18.6484 18.0689 18.6484 13.9946Z" fill="#4D98CB"/>
</svg>
