<svg width="24" height="34" viewBox="0 0 24 34" fill="none" xmlns="http://www.w3.org/2000/svg">
<path d="M21.0055 4.48986L18.6321 6.86273L17.8031 6.0338L20.2335 3.60339C18.0195 1.30122 14.9634 0 11.7693 0C8.57527 0 5.51887 1.30122 3.30514 3.60339L5.73554 6.0338L4.90661 6.86273L2.53288 4.48986C0.891332 6.56075 -0.00142944 9.12655 1.71802e-06 11.7693V16.4327C0.00229158 19.9402 0.93255 23.385 2.69661 26.4168L4.90719 24.2062L5.73612 25.0351L3.33262 27.4386C4.89803 29.8015 6.9506 31.8025 9.35296 33.307C10.8314 34.2309 12.7073 34.2309 14.1857 33.307C16.5895 31.8034 18.6438 29.8029 20.2106 27.4398L17.8071 25.0363L18.6361 24.2073L20.8467 26.4179C22.6107 23.3861 23.541 19.9413 23.5433 16.4338V11.7693C23.5433 9.12598 22.6491 6.56018 21.0055 4.48986ZM13.852 21.1621L14.3761 22.2114C12.7339 23.0266 10.8047 23.0266 9.16233 22.2114L9.68642 21.1621C10.9985 21.8144 12.5402 21.8144 13.852 21.1621ZM2.97626 15.2414C2.97626 13.6227 4.55082 12.3103 6.49349 12.3103C8.43616 12.3103 10.0107 13.6227 10.0107 15.2414C10.0107 16.86 8.43616 18.1724 6.49349 18.1724C4.55082 18.1724 2.97626 16.86 2.97626 15.2414ZM12.9418 29.3103H10.5969C9.62574 29.3103 8.83831 28.5229 8.83831 27.5517C8.83831 26.5805 9.62574 25.7931 10.5969 25.7931H12.9418C13.9129 25.7931 14.7004 26.5805 14.7004 27.5517C14.7004 28.5229 13.9129 29.3103 12.9418 29.3103ZM17.0452 18.1724C15.1025 18.1724 13.528 16.86 13.528 15.2414C13.528 13.6227 15.1025 12.3103 17.0452 12.3103C18.9879 12.3103 20.5624 13.6227 20.5624 15.2414C20.5624 16.86 18.9879 18.1724 17.0452 18.1724Z" fill="#65B3E7"/>
</svg>
