<svg width="38" height="38" viewBox="0 0 38 38" fill="none" xmlns="http://www.w3.org/2000/svg">
<path d="M38 31.2312C38 34.9273 35.0163 37.9554 31.3203 38L30.118 36.8198H8.90625L6.70195 38C3.00579 37.9554 0 34.9273 0 31.2312C0 28.9156 0.423047 26.6667 1.29148 24.5515L4.16367 17.3374H33.8363L36.7085 24.5515C37.577 26.6667 38 28.9155 38 31.2312Z" fill="#5FBEFF"/>
<path d="M38 31.2312C38 34.9273 35.0163 37.9554 31.3203 38L30.118 36.8198H19V17.3374H33.8363L36.7085 24.5515C37.577 26.6667 38 28.9155 38 31.2312Z" fill="#76B7E2"/>
<path d="M31.3203 32.9679V38H6.67969V32.9679C6.67969 29.4499 8.69102 26.3105 11.8305 24.7519C14.1461 23.594 17.1445 21.1672 17.1445 18.5398V17.3374H20.8555V18.5398C20.8555 21.1672 23.8539 23.594 26.1695 24.7519C29.309 26.3105 31.3203 29.4499 31.3203 32.9679Z" fill="#58ADE5"/>
<path d="M31.3203 32.9679V38H19V17.3374L20.8555 17.3672V18.5398C20.8555 21.1672 23.8539 23.594 26.1695 24.7519C29.309 26.3105 31.3203 29.4499 31.3203 32.9679Z" fill="#4D98CB"/>
<path d="M28.9453 10.0195V16.8477H24.6259L24.6406 10.0195C24.6406 7.61477 22.8594 4.30469 18.9258 4.30469C14.7695 4.30469 13.2257 7.61477 13.2257 10.0195L13.2109 16.8477H8.90625V10.0195C8.90625 4.49758 13.404 0 18.9258 0C24.4476 0 28.9453 4.49758 28.9453 10.0195Z" fill="#58ADE5"/>
<path d="M13.4336 29.0938H24.5664V31.3203H16.5169H13.4336V29.0938Z" fill="#AFD9F6"/>
<path d="M19 29.0938H24.5664V31.3203H19V29.0938Z" fill="#65B3E7"/>
<path d="M28.9453 10.0195V16.8477L24.6406 16.625V9.79688C24.6406 7.39211 22.7852 4.31946 18.9258 4.31946V0C24.4476 0 28.9453 4.49758 28.9453 10.0195Z" fill="#4D98CB"/>
<path d="M2.22656 15.957H35.7734V17.9609H2.22656V15.957Z" fill="#AFD9F6"/>
<path d="M19 15.957H35.7734V17.9609H19V15.957Z" fill="#65B3E7"/>
</svg>
