<svg width="33" height="33" viewBox="0 0 33 33" fill="none" xmlns="http://www.w3.org/2000/svg">
<path d="M33 7.73434V19.4648L30.0352 21.3984H2.90039L0 19.4648V7.73434H12.9229L13.3095 8.70114H19.6905L19.4004 7.73434L20.2512 6.80615L21.334 7.73434H27.1348L28.3917 6.61279L29.0684 7.73434H33Z" fill="#B9DFFC"/>
<path d="M33 7.73434V19.4648L30.0352 21.3984H16.5V8.70114H19.6905L19.4004 7.73434L20.2512 6.80615L21.334 7.73434H27.1348L28.3917 6.61279L29.0684 7.73434H33Z" fill="#A1D1FD"/>
<path d="M21.334 3.36445V7.73438H19.4004V3.36445C19.4004 2.57162 18.7622 1.93359 17.9695 1.93359C17.4281 1.93359 16.9447 2.2429 16.7126 2.7263L16.5 3.15176L14.199 7.73438L13.5996 8.9332V20.4316H11.666V8.46914L14.9725 1.85619C15.3205 1.17949 15.8425 0.657357 16.5 0.348047C16.9447 0.116016 17.4475 0 17.9695 0C19.8257 0 21.334 1.50814 21.334 3.36445Z" fill="#5FBEFF"/>
<path d="M20.3672 11.6016H12.6328V13.5352H20.3672V11.6016Z" fill="#5FBEFF"/>
<path d="M20.3672 7.73438H12.6328V9.66797H20.3672V7.73438Z" fill="#5FBEFF"/>
<path d="M20.3672 7.73438H16.5V9.66797H20.3672V7.73438Z" fill="#4D98CB"/>
<path d="M20.3672 11.6016H16.5V13.5352H20.3672V11.6016Z" fill="#4D98CB"/>
<path d="M21.334 3.36445V7.73438H19.4004V3.36445C19.4004 2.57162 18.7622 1.93359 17.9695 1.93359C17.4281 1.93359 16.9447 2.2429 16.7126 2.7263L16.5 3.15176V0.348047C16.9447 0.116016 17.4475 0 17.9695 0C19.8257 0 21.334 1.50814 21.334 3.36445Z" fill="#4D98CB"/>
<path d="M20.3672 15.5977H12.6328V17.5312H20.3672V15.5977Z" fill="#5FBEFF"/>
<path d="M20.3672 15.5977H16.5V17.5312H20.3672V15.5977Z" fill="#4D98CB"/>
<path d="M29.0684 3.36445V7.73438H27.1348V3.36445C27.1348 2.57162 26.4966 1.93359 25.7039 1.93359C25.1624 1.93359 24.679 2.2429 24.447 2.7263L21.9334 7.73438L21.334 8.9332V20.4316H19.4004V8.46914L22.7069 1.85619C23.2869 0.71543 24.4277 0 25.7039 0C27.5601 0 29.0684 1.50814 29.0684 3.36445Z" fill="#4D98CB"/>
<path d="M33 27.1992L31.4917 28.398L33 29.1328V33H0V29.1328L1.08281 28.166L0 27.1992V19.4648H33V27.1992Z" fill="#AFD9F6"/>
<path d="M33 27.1992L31.4917 28.398L33 29.1328V33H16.5V19.4648H33V27.1992Z" fill="#76B7E2"/>
<path d="M13.5996 23.332H5.86523V24.3737H13.5996V23.332Z" fill="#58ADE5"/>
<path d="M27.1348 22.4402H19.4004V23.4819H27.1348V22.4402Z" fill="#4D98CB"/>
<path d="M33 27.1992H27.1348V29.1328H33V27.1992Z" fill="#4D98CB"/>
<path d="M5.86523 27.1992H0V29.1328H5.86523V27.1992Z" fill="#58ADE5"/>
<path d="M21.334 28.0911H11.666V29.1328H21.334V28.0911Z" fill="#58ADE5"/>
<path d="M21.334 28.0911H16.5V29.1328H21.334V28.0911Z" fill="#4D98CB"/>
</svg>
