<svg width="37" height="27" viewBox="0 0 37 27" fill="none" xmlns="http://www.w3.org/2000/svg">
<path d="M6.61823 8.07272L4.74987 4.33594H3.25195C2.65328 4.33594 2.16797 3.85062 2.16797 3.25195C2.16797 2.65329 2.65328 2.16797 3.25195 2.16797H6.08997L8.55755 7.10306L6.61823 8.07272Z" fill="#65B3E7"/>
<path d="M30.3817 8.07272L28.4424 7.10306L30.91 2.16797H33.748C34.3466 2.16797 34.832 2.65329 34.832 3.25195C34.832 3.85062 34.3466 4.33594 33.748 4.33594H32.2501L30.3817 8.07272Z" fill="#4D98CB"/>
<path d="M30.3007 10.2544L18.4998 10.4929L6.52539 10.7531L9.75566 1.08398H27.2439L30.3007 10.2544Z" fill="#A1D1FD"/>
<path d="M28.0244 0H8.97519L5.00781 11.8804L18.4998 11.5769L31.7966 11.295L28.0244 0ZM8.04304 9.64746L10.5361 2.16797H26.4635L28.8048 9.19219L18.4998 9.40891L8.04304 9.64746Z" fill="#65B3E7"/>
<path d="M30.3009 10.2544L18.5 10.4929V1.08398H27.2441L30.3009 10.2544Z" fill="#58ADE5"/>
<path d="M31.7968 11.295L18.5 11.5769V9.40891L28.805 9.19219L26.4637 2.16797H18.5V0H28.0246L31.7968 11.295Z" fill="#4D98CB"/>
<path d="M2.16797 20.5957V22.7637C2.16797 24.5569 3.62672 26.0156 5.41992 26.0156H7.58789C9.38109 26.0156 10.8398 24.5569 10.8398 22.7637V20.5957H2.16797Z" fill="#5FBEFF"/>
<path d="M26.1602 20.5957V22.7637C26.1602 24.5569 27.6189 26.0156 29.4121 26.0156H31.5801C33.3733 26.0156 34.832 24.5569 34.832 22.7637V20.5957H26.1602Z" fill="#4D98CB"/>
<path d="M26.1602 9.75586H23.9922C23.9922 7.95637 22.4675 6.50391 20.668 6.50391C19.8225 6.50391 19.0637 6.82903 18.5 7.34941C17.8279 7.93469 17.416 8.80188 17.416 9.75586H15.248C15.248 7.52278 16.5922 5.61497 18.5 4.79114C19.1721 4.4877 19.9093 4.33594 20.668 4.33594C23.6598 4.33594 26.1602 6.76406 26.1602 9.75586Z" fill="#5FBEFF"/>
<path d="M37 10.8398L33.618 14.5687L37 17.3438V21.6797H29.0002L24.4041 17.3438H12.5959L7.9998 21.6797H0V17.3438L2.08132 13.8966L0 10.8398V9.75586C0 7.95637 1.45247 6.50391 3.25195 6.50391H7.84805L12.184 8.67188H24.816L29.152 6.50391H33.748C35.5475 6.50391 37 7.95637 37 9.75586V10.8398Z" fill="#65B3E7"/>
<path d="M20.668 6.50398C19.8225 6.50398 19.0637 6.8291 18.5 7.34949V4.79114C19.1721 4.4877 19.9093 4.33594 20.668 4.33594C23.6598 4.33594 26.1602 6.76406 26.1602 9.75586H23.9922C23.9922 7.95645 22.4675 6.50398 20.668 6.50398Z" fill="#4D98CB"/>
<path d="M37 10.8398L33.618 14.5687L37 17.3438V21.6797H29.0002L24.4041 17.3438H18.5V8.67188H24.816L29.152 6.50391H33.748C35.5475 6.50391 37 7.95637 37 9.75586V10.8398Z" fill="#4D98CB"/>
<path d="M37 10.8398V17.3438H29.3281V16.2598C29.3281 13.268 30.7562 10.8398 33.748 10.8398H37Z" fill="#65B3E7"/>
<path d="M7.67188 17.3438H0V10.8398H3.25195C6.24035 10.8398 7.67188 13.2714 7.67188 16.2598V17.3438Z" fill="#A1D1FD"/>
<path d="M25.7484 16.1758H11.252L8 21.6797H29.0004L25.7484 16.1758Z" fill="#A1D1FD"/>
<path d="M29.0002 21.6797H18.5V16.1758H25.7482L29.0002 21.6797Z" fill="#5FBEFF"/>
</svg>
