<svg width="48" height="53" viewBox="0 0 48 53" fill="none" xmlns="http://www.w3.org/2000/svg">
<path d="M3.96582 13.2778H6.71158V23.9448H3.96582V13.2778Z" fill="#A1D1FD"/>
<path d="M0 17.2397H10.678V19.9827H0V17.2397Z" fill="#A1D1FD"/>
<path d="M41.3896 28.5166H43.932V39.1836H41.3896V28.5166Z" fill="#B9DFFC"/>
<path d="M37.3223 32.5801H48.0002V35.1198H37.3223V32.5801Z" fill="#B9DFFC"/>
<path d="M5.18652 34.6118H7.93229V37.3548H5.18652V34.6118Z" fill="#A1D1FD"/>
<path d="M39.7627 16.3257H42.5085V19.0686H39.7627V16.3257Z" fill="#B9DFFC"/>
<path d="M34.3719 0.985352H32.2363V8.18135H34.3719V0.985352Z" fill="#65B3E7"/>
<path d="M37.4231 51.4758V52.9997H31.2909H30.1011H28.2401H20.6943V22.4209H30.2028C35.1755 27.3887 37.4231 44.4356 37.4231 51.4758Z" fill="#4D98CB"/>
<path d="M34.3721 7.18272V13.5523C34.3721 17.5449 32.0636 19.3735 30.2027 22.4211H28.8806H17.6943L23.6943 13.1766C25.5551 10.0678 32.1037 12.5067 32.2366 7.18262L34.3721 7.18272Z" fill="#65B3E7"/>
<path d="M31.2912 52.9998H29.4912C29.6437 46.4167 28.9014 39.7016 27.2539 33.3929L28.9419 32.6919C30.6506 39.2749 31.4436 46.173 31.2912 52.9998Z" fill="#76B7E2"/>
<path d="M13.0166 0.985352H15.1522V8.18135H13.0166V0.985352Z" fill="#AFD9F6"/>
<path d="M13.0166 7.18272V13.5523C13.0166 17.5449 15.3251 19.3735 17.186 22.4211H18.508H23.6945V13.1766C21.8335 10.0678 15.285 12.5067 15.1521 7.18262L13.0166 7.18272Z" fill="#AFD9F6"/>
<path d="M9.96582 51.4758V52.9997H16.098H17.2879H19.1489H23.6946V22.4209H17.1862C12.2135 27.3887 9.96582 44.4356 9.96582 51.4758Z" fill="#58ADE5"/>
<path d="M16.0985 52.9998H17.8985C17.746 46.4167 18.4884 39.7016 20.1358 33.3929L18.4478 32.6919C16.7391 39.2749 15.9461 46.173 16.0985 52.9998Z" fill="#5FBEFF"/>
</svg>
