<svg width="37" height="37" viewBox="0 0 37 37" fill="none" xmlns="http://www.w3.org/2000/svg">
<path d="M32.6641 13.0078V31.5078H4.33594V13.0078L18.5 2.16797L32.6641 13.0078Z" fill="#A1D1FD"/>
<path d="M32.6641 13.0078V31.5078H18.5V2.16797L32.6641 13.0078Z" fill="#58ADE5"/>
<path d="M8.7145 8.89093C8.72466 8.88331 8.73398 8.87569 8.74414 8.86806V3.25195C8.74414 2.65322 8.25889 2.16797 7.66016 2.16797H5.41992C4.82119 2.16797 4.33594 2.65322 4.33594 3.25195V12.2442C5.71407 11.1724 7.28133 10.0079 8.7145 8.89093Z" fill="#A1D1FD"/>
<path d="M18.5 10.8398C16.7004 10.8398 15.248 12.2922 15.248 14.0918C15.248 15.8911 16.7004 17.3438 18.5 17.3438C20.2996 17.3438 21.752 15.8911 21.752 14.0918C21.752 12.2922 20.2996 10.8398 18.5 10.8398Z" fill="#5FBEFF"/>
<path d="M18.5 17.3438V10.8398C20.2996 10.8398 21.752 12.2922 21.752 14.0918C21.752 15.8911 20.2996 17.3438 18.5 17.3438Z" fill="#4D98CB"/>
<path d="M26.2137 31.5078H10.7855L8.85214 35.4389C8.70027 35.7641 8.70027 36.1763 8.89562 36.4797C9.11241 36.8049 9.45935 37 9.82773 37H27.1715C27.5401 37 27.8871 36.8049 28.1039 36.4797C28.2989 36.1763 28.2989 35.7641 28.1473 35.4389L26.2137 31.5078Z" fill="#A1D1FD"/>
<path d="M26.2141 31.5078H18.5V37H27.1719C27.5403 37 27.8875 36.8049 28.104 36.4797C28.2993 36.1763 28.2993 35.7641 28.1475 35.4389L26.2141 31.5078Z" fill="#58ADE5"/>
<path d="M37 31.5078C37 32.1147 36.5232 32.5918 35.916 32.5918H1.08398C0.476784 32.5918 0 32.1147 0 31.5078C0 30.9006 0.476784 30.4238 1.08398 30.4238H35.916C36.5232 30.4238 37 30.9006 37 31.5078Z" fill="#B9DFFC"/>
<path d="M37 31.5078C37 32.1147 36.5232 32.5918 35.916 32.5918H18.5V30.4238H35.916C36.5232 30.4238 37 30.9006 37 31.5078Z" fill="#65B3E7"/>
<path d="M26.0879 20.5957V32.5918H10.9121V20.5957C10.9121 19.9885 11.3889 19.5117 11.9961 19.5117H25.0039C25.6111 19.5117 26.0879 19.9885 26.0879 20.5957Z" fill="#5FBEFF"/>
<path d="M26.0879 20.5957V32.5918H18.5V19.5117H25.0039C25.6111 19.5117 26.0879 19.9885 26.0879 20.5957Z" fill="#4D98CB"/>
<path d="M13.0801 21.6797H17.416V30.4238H13.0801V21.6797Z" fill="#B9DFFC"/>
<path d="M19.584 21.6797H23.9199V30.4238H19.584V21.6797Z" fill="#A1D1FD"/>
<path d="M36.9784 14.3735C37.0218 14.6555 36.9566 14.9372 36.7833 15.1758L35.4825 16.9102C35.1356 17.3869 34.4637 17.4956 33.9867 17.127L18.5001 5.15965L3.03526 17.127C2.84019 17.2785 2.60166 17.3438 2.38486 17.3438C2.05967 17.3438 1.73447 17.1919 1.51768 16.9102L0.216896 15.1758C0.0435714 14.9372 -0.021637 14.6555 0.0218353 14.3735C0.0435714 14.0701 0.216896 13.8315 0.455429 13.6582L17.8497 0.216797C18.0448 0.0866623 18.2833 0 18.5001 0C18.7169 0 18.9554 0.0866623 19.1505 0.216797L36.5448 13.6582C36.7833 13.8101 36.9566 14.0701 36.9784 14.3735Z" fill="#5FBEFF"/>
<path d="M36.9783 14.3735C37.0217 14.6555 36.9565 14.9372 36.7832 15.1758L35.4824 16.9102C35.1355 17.3869 34.4636 17.4956 33.9866 17.127L18.5 5.15965V0C18.7168 0 18.9553 0.0866623 19.1504 0.216797L36.5447 13.6582C36.7832 13.8101 36.9565 14.0701 36.9783 14.3735Z" fill="#4D98CB"/>
</svg>
