<svg width="23" height="26" viewBox="0 0 23 26" fill="none" xmlns="http://www.w3.org/2000/svg">
<path class="p-C9001C" d="M17.0043 7.01083L10.3193 5.99438V23.7775L20.2434 22.7611C20.2434 22.7611 17.0043 17.6505 17.0043 7.01083Z" fill="#65B3E7"/>
<path class="p-FF4C04" d="M5.66781 7.01083C5.66781 17.6505 2.42871 22.7611 2.42871 22.7611L11.3363 23.7776V5.99438L5.66781 7.01083Z" fill="#A1D1FD"/>
<path class="p-FF4C04" d="M22.6714 24.761C22.6714 23.6564 21.776 22.761 20.6714 22.761H11.3358L10.3193 24.3805L11.3358 26.0001H22.6714V24.761Z" fill="#4D98CB"/>
<path class="p-FF9100" d="M11.3354 22.761H2C0.895431 22.761 0 23.6564 0 24.761V26.0001H11.3354V22.761Z" fill="#58ADE5"/>
<path class="p-FF4C04" d="M19.4323 1.61955C19.4323 0.725097 18.7072 0 17.8127 0C16.9183 0 16.1932 0.725123 16.1932 1.61957H12.954C12.954 0.725837 12.2295 0 11.3358 0L10.3193 3.80861L11.3358 7.01074H19.4323V1.61955Z" fill="#4D98CB"/>
<path class="p-FF9100" d="M11.3348 0C10.4403 0 9.71394 0.725108 9.71394 1.61957H6.47738C6.47738 0.725123 5.75228 0 4.85783 0C3.96338 0 3.23828 0.725097 3.23828 1.61955V7.01074H11.3348V0Z" fill="#58ADE5"/>
</svg>
