<svg width="33" height="26" viewBox="0 0 33 26" fill="none" xmlns="http://www.w3.org/2000/svg">
<path d="M26.1276 0V7.65059H2.86897C1.28141 7.65059 0 4.4564 0 2.86897C0 1.31973 1.26228 0 2.86897 0H26.1276Z" fill="#58ADE5"/>
<path d="M26.1273 0H16.3848V7.65059H26.1273V0Z" fill="#4D98CB"/>
<path d="M30.7299 14.4046V20.1426L32.6425 22.0552V26H4.78162C2.14216 26 0 23.8579 0 21.2184V1.97241C0 3.55985 1.28141 4.84138 2.86897 4.84138H32.6425V12.492L30.7299 14.4046Z" fill="#5FBEFF"/>
<path d="M30.7296 14.4045V20.1425L32.6423 22.0551V26H16.3848V4.84131H32.6423V12.4919L30.7296 14.4045Z" fill="#65B3E7"/>
<path d="M32.6429 22.0552H25.9486C23.3078 22.0552 21.167 19.9144 21.167 17.2736C21.167 14.6328 23.3078 12.4919 25.9486 12.4919H32.6429V22.0552Z" fill="#4D98CB"/>
<path d="M27.8013 16.3171H25.8887V18.2298H27.8013V16.3171Z" fill="#AFD9F6"/>
</svg>
