<svg width="33" height="32" viewBox="0 0 33 32" fill="none" xmlns="http://www.w3.org/2000/svg">
<path d="M24.0225 28.0256L28.0261 24.022L32.0298 26.1282L26.1579 31.9999L24.0225 28.0256Z" fill="#5FBEFF"/>
<path d="M26.1579 32.0001L24.0225 28.0257L25.9558 25.9565L29.0789 29.0794L26.1579 32.0001Z" fill="#65B3E7"/>
<path d="M19.0667 23.1243C16.8872 20.9448 14.1346 19.0167 11.7059 17.3159C9.64421 15.8717 7.69678 14.508 6.37572 13.1869L1.40768 8.21938L1.40742 8.21913C-0.469184 6.34177 -0.469184 3.28675 1.40768 1.40889C3.28529 -0.467719 6.3403 -0.467719 8.21792 1.40914L13.1852 6.37718C14.498 7.68995 15.9092 9.67857 17.4033 11.784C19.1267 14.2126 21.0802 16.9655 23.1529 19.038L24.7256 20.611L20.6394 24.697L19.0667 23.1243Z" fill="#A1D1FD"/>
<path d="M20.6394 24.6965L19.0667 23.1238C16.8872 20.9443 14.1346 19.0162 11.7059 17.3154C9.64421 15.8713 7.69678 14.5075 6.37572 13.1865L1.40768 8.21894L1.40743 8.21869C-0.469184 6.34133 -0.469184 3.28631 1.40768 1.40845L22.6677 22.6685L20.6394 24.6965Z" fill="#76B7E2"/>
<path d="M19.2773 23.3348L23.3636 19.2488L28.412 24.2979L24.326 28.3832L19.2773 23.3348Z" fill="#76B7E2"/>
<path d="M24.326 28.3829L19.2773 23.3344L21.3056 21.3064L26.3543 26.3551L24.326 28.3829Z" fill="#4D98CB"/>
<path d="M6.76159 31.9999L0.889648 26.1282L4.89331 24.022L8.89697 28.0256L6.76159 31.9999Z" fill="#5FBEFF"/>
<path d="M6.76087 32.0001L8.89623 28.0257L6.96292 25.9565L3.83984 29.0794L6.76087 32.0001Z" fill="#65B3E7"/>
<path d="M12.2796 24.6964L8.19336 20.6105L9.76607 19.0375C11.8388 16.965 13.7923 14.2121 15.5157 11.7835C17.0098 9.67805 18.421 7.68943 19.7338 6.37666L24.7011 1.40862C26.5787 -0.468238 29.6337 -0.468238 31.5113 1.40862C33.3882 3.28623 33.3882 6.34125 31.5116 8.21886H31.5113L26.5433 13.1864C25.2222 14.5075 23.2748 15.8712 21.2131 17.3153C18.7844 19.0161 16.0318 20.9442 13.8523 23.1237L12.2796 24.6964Z" fill="#B9DFFC"/>
<path d="M12.2803 24.6965L13.853 23.1238C16.0325 20.9443 18.7851 19.0162 21.2137 17.3154C23.2754 15.8713 25.2229 14.5075 26.5439 13.1865L31.512 8.21894C33.3886 6.34158 33.3888 3.28631 31.512 1.40845L10.252 22.6685L12.2803 24.6965Z" fill="#A1D1FD"/>
<path d="M8.59283 28.3832L4.50684 24.2979L9.55524 19.2488L13.6415 23.3348L8.59283 28.3832Z" fill="#76B7E2"/>
<path d="M8.59373 28.3829L13.6424 23.3345L11.6141 21.3064L6.56543 26.3551L8.59373 28.3829Z" fill="#4D98CB"/>
<path d="M16.4211 5.77543C15.6812 5.77543 14.9414 5.49389 14.378 4.93081C13.2516 3.80414 13.2516 1.97123 14.378 0.844813C15.5047 -0.281604 17.3376 -0.281604 18.464 0.844813C19.5904 1.97123 19.5904 3.80414 18.464 4.93081C17.9007 5.49389 17.1608 5.77543 16.4211 5.77543Z" fill="#B9DFFC"/>
<path d="M16.4209 0V5.77549C17.1605 5.77549 17.9004 5.49395 18.4638 4.93087C19.5902 3.8042 19.5902 1.97129 18.4638 0.844876C17.9004 0.281541 17.1605 0 16.4209 0Z" fill="#A1D1FD"/>
</svg>
