<svg width="32" height="24" viewBox="0 0 32 24" fill="none" xmlns="http://www.w3.org/2000/svg">
<path d="M3.17578 2C3.17578 0.89543 4.07121 0 5.17578 0H26.5809C27.6855 0 28.5809 0.89543 28.5809 2V9.19891C28.5809 10.3035 27.6855 11.1989 26.5809 11.1989H5.17578C4.07121 11.1989 3.17578 10.3035 3.17578 9.19891V2Z" fill="#B9DFFC"/>
<path d="M15.8779 0H26.5805C27.6851 0 28.5805 0.895431 28.5805 2V11.1989H15.8779V0Z" fill="#58ADE5"/>
<path d="M3.97461 20.458H5.84264V24H3.97461V20.458Z" fill="#5FBEFF"/>
<path d="M26.2871 20.458H28.1551V24H26.2871V20.458Z" fill="#4D98CB"/>
<path d="M1.76172 15.8125H30.3673V21.2677H1.76172V15.8125Z" fill="#B9DFFC"/>
<path d="M15.8779 15.8125H30.3675V21.2677H15.8779V15.8125Z" fill="#58ADE5"/>
<path d="M7.06738 9.82204H14.664V4.5293H7.06738V9.82204Z" fill="#76B7E2"/>
<path d="M17.2168 4.5293V9.82204H24.8134V4.5293H17.2168Z" fill="#A1D1FD"/>
<path d="M31.881 11.5027V16.991H0V11.4927C0 10.235 1.11887 9.21191 2.49508 9.21191H29.3754C30.757 9.21191 31.881 10.2398 31.881 11.5027Z" fill="#5FBEFF"/>
<path d="M31.8807 11.5027V16.991H15.8779V9.21191H29.3751C30.7567 9.21191 31.8807 10.2398 31.8807 11.5027Z" fill="#4D98CB"/>
</svg>
