<svg width="32" height="27" viewBox="0 0 32 27" fill="none" xmlns="http://www.w3.org/2000/svg">
<path class="p-CAE8F9" d="M27.6592 19.1534V22.4595H0V0H14.3529V8.47797H16.9831C17.0388 8.47797 17.0941 8.47845 17.1499 8.47918C17.858 8.49033 18.5502 8.57034 19.2193 8.71313C19.8635 8.85156 20.4858 9.04696 21.0812 9.29594C24.1706 10.585 26.5297 13.2852 27.347 16.5877C27.5513 17.41 27.6592 18.269 27.6592 19.1534Z" fill="#B9DFFC"/>
<path class="p-7FC8F1" d="M27.3473 16.5875C26.5301 13.285 24.1709 10.5848 21.0816 9.29576C20.4862 9.04678 19.8638 8.85137 19.2197 8.71294C18.5506 8.57015 17.8584 8.49015 17.1502 8.47899C17.0945 8.47827 17.0392 8.47778 16.9834 8.47778H14.3533V8.47754H14.3525V22.4593H27.6596V19.1532C27.6596 18.2688 27.5517 17.4098 27.3473 16.5875Z" fill="#A1D1FD"/>
<path class="p-CAE8F9" d="M31.0555 21.9657C31.4537 21.9657 31.7765 22.2885 31.7765 22.6867C31.7765 25.0657 29.8414 27.0001 27.4631 27.0001H0V25.1382H6.9659V21.5286H8.8278V25.1382H18.5844V21.5286H20.4463V25.1382H27.4631C28.8149 25.1382 29.9146 24.0385 29.9146 22.6867C29.9146 22.2885 30.2374 21.9657 30.6356 21.9657H31.0555Z" fill="#B9DFFC"/>
<path class="p-3A4DE3" d="M17.149 8.47924V13.0465C17.149 13.5606 16.7322 13.9774 16.2181 13.9774C15.7039 13.9774 15.2871 13.5606 15.2871 13.0465V8.47803H16.9822C17.038 8.47803 17.0933 8.47851 17.149 8.47924Z" fill="#4D98CB"/>
<path class="p-3A4DE3" d="M21.0816 9.29595V13.0464C21.0816 13.5606 20.6648 13.9774 20.1507 13.9774C19.6365 13.9774 19.2197 13.5606 19.2197 13.0464V8.71313C19.8639 8.85157 20.4862 9.04697 21.0816 9.29595Z" fill="#4D98CB"/>
<path class="p-0088FF" d="M0 4.5918H3.74394C4.25809 4.5918 4.67489 5.0086 4.67489 5.52275C4.67489 6.0369 4.25809 6.4537 3.74394 6.4537H0V4.5918Z" fill="#5FBEFF"/>
<path class="p-7FC8F1" d="M7.17969 2.57471H14.3534V7.61191H7.17969V2.57471Z" fill="#65B3E7"/>
<path class="p-7FC8F1" d="M31.0559 21.9657C31.4541 21.9657 31.7769 22.2885 31.7769 22.6867C31.7769 25.0657 29.8417 27.0001 27.4634 27.0001H14.3525V25.1382H18.5847V21.5286H20.4466V25.1382H27.4634C28.8153 25.1382 29.915 24.0385 29.915 22.6867C29.915 22.2885 30.2378 21.9657 30.636 21.9657H31.0559Z" fill="#65B3E7"/>
<path class="p-CAE8F9" d="M14.3525 2.57471H14.3533V8.47074H14.3525V2.57471Z" fill="#CAE8F9"/>
<path class="p-0088FF" d="M27.6592 19.1535V22.4596H0V12.5481H0.0572148C3.0319 12.5481 4.88677 13.7583 5.92779 14.7911C6.59618 15.4539 7.01681 16.1199 7.26143 16.5878H27.347C27.5513 17.4101 27.6592 18.2691 27.6592 19.1535Z" fill="#5FBEFF"/>
<path class="p-3A4DE3" d="M27.6596 19.1536V22.4597H14.3525V16.5879H27.3473C27.5517 17.4102 27.6596 18.2692 27.6596 19.1536Z" fill="#4D98CB"/>
</svg>
