<svg width="25" height="30" viewBox="0 0 25 30" fill="none" xmlns="http://www.w3.org/2000/svg">
<path d="M22.1407 9.54237C18.434 9.54237 17.8849 0 12.1505 0C6.41223 0 5.01089 5.25249 1.30233 5.25249H0L5.49167 15.8788H18.8091L23.443 9.54237H22.1407Z" fill="#B9DFFC"/>
<path d="M22.1406 9.54237C18.4339 9.54237 17.8848 0 12.1504 0L12.1522 15.8788H18.809L23.4429 9.54237H22.1406Z" fill="#A1D1FD"/>
<path d="M20.1051 25.2538C17.4794 25.2538 14.9134 24.7574 12.4781 23.7785C9.90341 22.7442 7.09459 22.177 4.19558 22.177H0.138672V29.9999H24.162V25.2538H20.1051Z" fill="#A1D1FD"/>
<path d="M20.1051 25.2538C16.9569 25.2538 14.6706 24.6166 12.1504 23.6516V29.9998H24.1621V25.2538H20.1051Z" fill="#5FBEFF"/>
<path d="M0.138672 14.1211V23.9348H4.19558C6.75607 23.9348 9.35021 24.4164 11.8226 25.4095C14.4671 26.4726 17.2537 27.0117 20.1051 27.0117H24.162V14.1211H0.138672Z" fill="#65B3E7"/>
<path d="M12.1523 14.1211V25.5377C14.6986 26.515 17.3722 27.0117 20.1055 27.0117H24.1624V14.1211H12.1523Z" fill="#4D98CB"/>
</svg>
