<svg width="33" height="26" viewBox="0 0 33 26" fill="none" xmlns="http://www.w3.org/2000/svg">
<path d="M18.6641 20.4599L17.9441 22.3399C17.3841 22.12 16.7641 22 16.1441 22C15.5241 22 14.9041 22.12 14.344 22.3399L13.624 20.4599C14.4241 20.1599 15.2841 20 16.1441 20C17.0041 20 17.8641 20.1599 18.6641 20.4599Z" fill="#A1D1FD"/>
<path d="M20.8442 16H11.4443V18H20.8442V16Z" fill="#A1D1FD"/>
<path d="M3.06665 16H0.999996C0.447713 16 0 16.4477 0 17C0 17.5523 0.447715 18 0.999997 18H3.06665V16Z" fill="#A1D1FD"/>
<path d="M31.2883 16H29.2217V18H31.2883C31.8406 18 32.2883 17.5523 32.2883 17C32.2883 16.4477 31.8406 16 31.2883 16Z" fill="#65B3E7"/>
<path d="M3.34961 16.2997L1.41016 15.8153L5.36327 0H12.1445C12.6968 0 13.1445 0.447713 13.1445 0.999996C13.1445 1.55228 12.6968 1.99999 12.1445 1.99999H6.9258L3.34961 16.2997Z" fill="#A1D1FD"/>
<path d="M28.9394 16.2997L25.3632 1.99999H20.1445C19.5922 1.99999 19.1445 1.55228 19.1445 0.999996C19.1445 0.447713 19.5922 0 20.1445 0H26.9258L30.8789 15.8153L28.9394 16.2997Z" fill="#65B3E7"/>
<path d="M16.1445 20C17.0045 20 17.8645 20.1599 18.6645 20.4599L17.9445 22.3399C17.3845 22.12 16.7645 22 16.1445 22V20Z" fill="#65B3E7"/>
<path d="M20.8444 16H16.1445V18H20.8444V16Z" fill="#65B3E7"/>
<path d="M24.1445 25.9999H20.1445C18.4903 25.9999 17.1445 24.6542 17.1445 23C17.1445 18.0371 21.1816 14 26.1445 14H28.1445C29.7987 14 31.1445 15.3457 31.1445 17V19C31.1445 22.8594 28.0039 25.9999 24.1445 25.9999Z" fill="#65B3E7"/>
<path d="M20.1445 24C19.5928 24 19.1445 23.5517 19.1445 23C19.1445 19.1406 22.2851 16 26.1445 16H28.1445C28.6962 16 29.1445 16.4483 29.1445 17V19C29.1445 21.7568 26.9014 24 24.1445 24H20.1445Z" fill="#4D98CB"/>
<path d="M12.1445 25.9999H8.1445C4.28512 25.9999 1.14453 22.8594 1.14453 19V17C1.14453 15.3457 2.49026 14 4.14452 14H6.14451C11.1074 14 15.1445 18.0371 15.1445 23C15.1445 24.6542 13.7987 25.9999 12.1445 25.9999Z" fill="#A1D1FD"/>
<path d="M8.14451 24C5.38766 24 3.14453 21.7568 3.14453 19V17C3.14453 16.4483 3.5928 16 4.14453 16H6.14452C10.0039 16 13.1445 19.1406 13.1445 23C13.1445 23.5517 12.6962 24 12.1445 24H8.14451Z" fill="#58ADE5"/>
</svg>
