<svg width="33" height="33" viewBox="0 0 33 33" fill="none" xmlns="http://www.w3.org/2000/svg">
<path d="M21.334 0L20.4059 1.14076L19.4004 0H13.5996L12.6135 0.986133L11.666 0H1.99805V15.5977C1.99805 16.6611 2.86816 17.5312 3.93164 17.5312H4.89844C10.1191 17.5312 14.6051 14.3408 16.5 9.79688C18.3949 14.3408 22.8809 17.5312 28.1016 17.5312H29.0684C30.1318 17.5312 31.002 16.6611 31.002 15.5977V0H21.334Z" fill="#FF637B"/>
<path d="M31.002 0V15.5977C31.002 16.6611 30.1318 17.5312 29.0684 17.5312H28.1016C22.8809 17.5312 18.3949 14.3408 16.5 9.79688V0H19.4004L20.4059 1.14076L21.334 0H31.002Z" fill="#E63950"/>
<path d="M1.9976 21.3927C1.9976 20.8924 2.37936 20.4746 2.87771 20.4298L3.9312 20.335L10.3894 19.7549C11.2208 21.1277 11.6656 22.6939 11.6656 24.2988V28.166C11.3158 28.166 1.70859 28.166 1.9976 28.166V21.3927Z" fill="#FF637B"/>
<path d="M30.1122 20.3218C30.6147 20.362 31.002 20.7815 31.002 21.2855V28.1661H21.334V24.2989C21.334 22.6939 21.7786 21.1278 22.6101 19.7549L29.0684 20.2383L30.1122 20.3218Z" fill="#E63950"/>
<path d="M7.79923 28.166H5.86563V24.2988C5.86563 22.9393 4.83367 21.4476 2.9209 21.3597L3.00965 19.428C5.74008 19.5536 7.79923 21.6477 7.79923 24.2988V28.166Z" fill="#E63950"/>
<path d="M27.1348 28.1662H25.2012V24.299C25.2012 21.6479 27.2603 19.5538 29.9908 19.4282L30.0796 21.3599C28.1667 21.4477 27.1348 22.9394 27.1348 24.299V28.1662Z" fill="#AE2538"/>
<path d="M13.5992 0V4.96289C13.5992 8.92676 10.9115 12.3878 7.06367 13.3934L6.59961 11.5178C9.57728 10.7443 11.6656 8.05658 11.6656 4.96289V0H13.5992Z" fill="#E63950"/>
<path d="M26.4 11.5178L25.9359 13.3933C22.0881 12.3878 19.4004 8.92676 19.4004 4.96289V0H21.334V4.96289C21.334 8.05658 23.4223 10.7443 26.4 11.5178Z" fill="#AE2538"/>
<path d="M11.666 18.498C11.666 20.1029 10.3706 21.3984 8.76562 21.3984H1.99805V15.5977H8.76562C10.3706 15.5977 11.666 16.8931 11.666 18.498Z" fill="#FFDA2D"/>
<path d="M31.002 15.5977V21.3984H24.2344C22.6294 21.3984 21.334 20.1029 21.334 18.498C21.334 16.8931 22.6294 15.5977 24.2344 15.5977H31.002Z" fill="#FDBF00"/>
<path d="M30.0996 27.1992H2.90039C1.29544 27.1992 0 28.4947 0 30.0996V33H33V30.0996C33 28.4947 31.7046 27.1992 30.0996 27.1992Z" fill="#596C76"/>
<path d="M33 30.0996V33H16.5V27.1992H30.0996C31.7046 27.1992 33 28.4947 33 30.0996Z" fill="#465A61"/>
<path d="M21.334 0L20.4059 1.14076L19.4004 0H13.5996L12.6135 0.986133L11.666 0H1.99805V15.5977C1.99805 16.6611 2.86816 17.5312 3.93164 17.5312H4.89844C10.1191 17.5312 14.6051 14.3408 16.5 9.79688C18.3949 14.3408 22.8809 17.5312 28.1016 17.5312H29.0684C30.1318 17.5312 31.002 16.6611 31.002 15.5977V0H21.334Z" fill="#58ADE5"/>
<path d="M31.002 0V15.5977C31.002 16.6611 30.1318 17.5312 29.0684 17.5312H28.1016C22.8809 17.5312 18.3949 14.3408 16.5 9.79688V0H19.4004L20.4059 1.14076L21.334 0H31.002Z" fill="#65B3E7"/>
<path d="M1.9976 21.3927C1.9976 20.8924 2.37936 20.4746 2.87771 20.4298L3.9312 20.335L10.3894 19.7549C11.2208 21.1277 11.6656 22.6939 11.6656 24.2988V28.166C11.3158 28.166 1.70859 28.166 1.9976 28.166V21.3927Z" fill="#58ADE5"/>
<path d="M30.1122 20.3218C30.6147 20.362 31.002 20.7815 31.002 21.2855V28.1661H21.334V24.2989C21.334 22.6939 21.7786 21.1278 22.6101 19.7549L29.0684 20.2383L30.1122 20.3218Z" fill="#65B3E7"/>
<path d="M7.79923 28.166H5.86563V24.2988C5.86563 22.9393 4.83367 21.4476 2.9209 21.3597L3.00965 19.428C5.74008 19.5536 7.79923 21.6477 7.79923 24.2988V28.166Z" fill="#5FBEFF"/>
<path d="M27.1348 28.1662H25.2012V24.299C25.2012 21.6479 27.2603 19.5538 29.9908 19.4282L30.0796 21.3599C28.1667 21.4477 27.1348 22.9394 27.1348 24.299V28.1662Z" fill="#4D98CB"/>
<path d="M13.5992 0V4.96289C13.5992 8.92676 10.9115 12.3878 7.06367 13.3934L6.59961 11.5178C9.57728 10.7443 11.6656 8.05658 11.6656 4.96289V0H13.5992Z" fill="#5FBEFF"/>
<path d="M26.4 11.5178L25.9359 13.3933C22.0881 12.3878 19.4004 8.92676 19.4004 4.96289V0H21.334V4.96289C21.334 8.05658 23.4223 10.7443 26.4 11.5178Z" fill="#4D98CB"/>
<path d="M11.666 18.498C11.666 20.1029 10.3706 21.3984 8.76562 21.3984H1.99805V15.5977H8.76562C10.3706 15.5977 11.666 16.8931 11.666 18.498Z" fill="#B9DFFC"/>
<path d="M31.002 15.5977V21.3984H24.2344C22.6294 21.3984 21.334 20.1029 21.334 18.498C21.334 16.8931 22.6294 15.5977 24.2344 15.5977H31.002Z" fill="#A1D1FD"/>
<path d="M30.0996 27.1992H2.90039C1.29544 27.1992 0 28.4947 0 30.0996V33H33V30.0996C33 28.4947 31.7046 27.1992 30.0996 27.1992Z" fill="#58ADE5"/>
<path d="M33 30.0996V33H16.5V27.1992H30.0996C31.7046 27.1992 33 28.4947 33 30.0996Z" fill="#4D98CB"/>
</svg>
