<svg width="27" height="28" viewBox="0 0 27 28" fill="none" xmlns="http://www.w3.org/2000/svg">
<path d="M22.243 7.10935H17.6792L17.5781 0H22.3441L22.243 7.10935Z" fill="#00C3FF"/>
<path d="M19.9609 7.10935H22.2428L22.3439 0H19.9609V7.10935Z" fill="#4D98CB"/>
<path d="M26.7968 27.9999H13.125V5.46875H26.7968V27.9999Z" fill="#B9DFFC"/>
<path d="M26.7969 27.9999H19.9609V5.46875H26.7969V27.9999Z" fill="#A1D1FD"/>
<path d="M7.66304 25.1312C7.11682 23.7383 7.10988 23.8795 7.10988 22.3834V18.0469H4.37551V22.3834C4.37551 23.8795 4.36857 23.7384 3.82235 25.1313C3.30113 26.4604 4.65349 28 5.74269 28C6.84098 28 8.18426 26.4604 7.66304 25.1312Z" fill="#5FBEFF"/>
<path d="M7.66324 25.1312C7.11702 23.7383 7.11007 23.8795 7.11007 22.3834V18.0469H5.74316V28C6.84139 27.9997 8.18441 26.4603 7.66324 25.1312Z" fill="#4D98CB"/>
<path d="M5.74217 19.1406C2.52229 19.1406 0 14.9368 0 9.57028C0 4.20376 2.52229 0 5.74217 0C8.96205 0 11.4843 4.20376 11.4843 9.57028C11.4843 14.9368 8.96205 19.1406 5.74217 19.1406Z" fill="#58ADE5"/>
<path d="M5.74219 0V19.1406C8.96207 19.1406 11.4844 14.9368 11.4844 9.57028C11.4844 4.20376 8.96207 0 5.74219 0Z" fill="#58ADE5"/>
<path d="M5.74217 1.64062C4.73686 1.64062 3.75478 2.40226 2.97685 3.7853C2.1152 5.3172 1.64062 7.37164 1.64062 9.57028C1.64062 11.7689 2.1152 13.8234 2.97685 15.3553C3.75478 16.7383 4.73686 17.4999 5.74217 17.4999C6.74749 17.4999 7.72956 16.7383 8.50749 15.3553C9.36914 13.8234 9.84372 11.7689 9.84372 9.57028C9.84372 7.37164 9.36914 5.3172 8.50749 3.7853C7.72956 2.40226 6.74749 1.64062 5.74217 1.64062Z" fill="#B9DFFC"/>
<path d="M8.50821 3.7853C7.73034 2.40242 6.74837 1.64073 5.74316 1.64062V17.4999C6.74837 17.4998 7.73034 16.7382 8.50821 15.3553C9.36987 13.8234 9.84444 11.7689 9.84444 9.57028C9.84444 7.37164 9.36987 5.3172 8.50821 3.7853Z" fill="#A1D1FD"/>
<path d="M26.7968 12.6245H13.125V20.8442H26.7968V12.6245Z" fill="#00C3FF"/>
<path d="M3.82812 10.6641C4.43218 10.6641 4.92187 10.1744 4.92187 9.57031C4.92187 8.96625 4.43218 8.47656 3.82812 8.47656C3.22406 8.47656 2.73438 8.96625 2.73438 9.57031C2.73438 10.1744 3.22406 10.6641 3.82812 10.6641Z" fill="#58ADE5"/>
<path d="M7.65625 10.6641C8.26031 10.6641 8.74999 10.1744 8.74999 9.57031C8.74999 8.96625 8.26031 8.47656 7.65625 8.47656C7.05219 8.47656 6.5625 8.96625 6.5625 9.57031C6.5625 10.1744 7.05219 10.6641 7.65625 10.6641Z" fill="#4D98CB"/>
<path d="M4.10156 6.83593C4.70562 6.83593 5.1953 6.34624 5.1953 5.74218C5.1953 5.13812 4.70562 4.64844 4.10156 4.64844C3.4975 4.64844 3.00781 5.13812 3.00781 5.74218C3.00781 6.34624 3.4975 6.83593 4.10156 6.83593Z" fill="#58ADE5"/>
<path d="M7.38281 6.83593C7.98687 6.83593 8.47655 6.34624 8.47655 5.74218C8.47655 5.13812 7.98687 4.64844 7.38281 4.64844C6.77875 4.64844 6.28906 5.13812 6.28906 5.74218C6.28906 6.34624 6.77875 6.83593 7.38281 6.83593Z" fill="#4D98CB"/>
<path d="M4.10156 14.4922C4.70562 14.4922 5.1953 14.0025 5.1953 13.3984C5.1953 12.7944 4.70562 12.3047 4.10156 12.3047C3.4975 12.3047 3.00781 12.7944 3.00781 13.3984C3.00781 14.0025 3.4975 14.4922 4.10156 14.4922Z" fill="#58ADE5"/>
<path d="M7.38281 14.4922C7.98687 14.4922 8.47655 14.0025 8.47655 13.3984C8.47655 12.7944 7.98687 12.3047 7.38281 12.3047C6.77875 12.3047 6.28906 12.7944 6.28906 13.3984C6.28906 14.0025 6.77875 14.4922 7.38281 14.4922Z" fill="#4D98CB"/>
<path d="M26.7969 12.6245H19.9609V20.8442H26.7969V12.6245Z" fill="#4D98CB"/>
</svg>
