<svg width="27" height="25" viewBox="0 0 27 25" fill="none" xmlns="http://www.w3.org/2000/svg">
<path d="M25.0522 14.8435C25.0522 11.7181 22.9893 9.04167 20.1635 8.12939L17.0851 11.6664L16.9736 15.6247L21.5366 17.1872L25.0522 15.6247V14.8435Z" fill="#4D98CB"/>
<path d="M14.1143 0V4.58333L12.5518 6.19792H4.9423L3.09863 4.58333C3.14543 4.27083 3.17676 3.94267 3.17676 3.6145V1.45833L3.09863 0H14.1143Z" fill="#B9DFFC"/>
<path d="M14.1143 0V4.58333L13.333 5.36458V0H14.1143Z" fill="#A1D1FD"/>
<path d="M20.1612 8.13529L16.9738 15.6249L15.2705 17.1874L13.333 16.078L12.5518 15.6249L7.86426 12.0885L6.30176 7.76034L7.86426 4.58325H14.1143V5.3645C14.1143 6.6615 14.3277 8.59367 15.6247 8.59367L18.0205 7.76034C18.1924 7.76034 19.333 7.85413 20.1612 8.13529Z" fill="#65B3E7"/>
<path d="M3.09648 4.58325C2.87431 6.07821 2.44035 6.48735 2.02734 7.76034L7.86434 12.0932V4.58325H3.09648Z" fill="#65B3E7"/>
<path d="M20.1612 8.13529L16.9738 15.6249L15.2705 17.1874L13.333 16.078V4.58325H14.1143V5.3645C14.1143 6.6615 14.3277 8.59367 15.6247 8.59367L18.0205 7.76034C18.1924 7.76034 19.333 7.85413 20.1612 8.13529Z" fill="#58ADE5"/>
<path d="M5.52051 7.7605H2.02726C1.76237 8.57694 1.61426 9.43184 1.61426 10.289V15.6251L3.17676 17.1876H10.208L12.5518 15.6251V14.8438C12.5518 10.9606 9.40377 7.7605 5.52051 7.7605Z" fill="#A1D1FD"/>
<path d="M1.61426 15.625H25.0518V18.75H1.61426V15.625Z" fill="#65B3E7"/>
<path d="M13.333 15.625H25.0518V18.75H13.333V15.625Z" fill="#4D98CB"/>
<path d="M16.458 20.3125H19.583V21.875H16.458V20.3125Z" fill="#65B3E7"/>
<path d="M7.08301 20.3125H10.208V21.875H7.08301V20.3125Z" fill="#A1D1FD"/>
<path d="M3.95833 25C1.80461 25 0 23.2475 0 21.0938C0 18.94 1.80461 17.1875 3.95833 17.1875C6.11206 17.1875 7.86458 18.94 7.86458 21.0938C7.86458 23.2475 6.11206 25 3.95833 25Z" fill="#A1D1FD"/>
<path d="M22.708 25C20.5543 25 18.8018 23.2475 18.8018 21.0938C18.8018 18.94 20.5543 17.1875 22.708 17.1875C24.8617 17.1875 26.6663 18.94 26.6663 21.0938C26.6663 23.2475 24.8617 25 22.708 25Z" fill="#65B3E7"/>
<path d="M3.95801 18.75C2.66569 18.75 1.61426 19.8014 1.61426 21.0938C1.61426 22.3861 2.66569 23.4375 3.95801 23.4375C5.25033 23.4375 6.30176 22.3861 6.30176 21.0938C6.30176 19.8014 5.25033 18.75 3.95801 18.75Z" fill="#B9DFFC"/>
<path d="M22.708 18.75C21.4157 18.75 20.3643 19.8014 20.3643 21.0938C20.3643 22.3861 21.4157 23.4375 22.708 23.4375C24.0003 23.4375 25.0518 22.3861 25.0518 21.0938C25.0518 19.8014 24.0003 18.75 22.708 18.75Z" fill="#A1D1FD"/>
<path d="M3.17676 20.3125H4.73926V21.875H3.17676V20.3125Z" fill="#58ADE5"/>
<path d="M21.9268 20.3125H23.4893V21.875H21.9268V20.3125Z" fill="#4D98CB"/>
<path d="M13.333 17.1875C11.1768 17.1875 9.42676 18.9376 9.42676 21.0938C9.42676 23.2499 11.1768 25 13.333 25C15.4892 25 17.2393 23.2499 17.2393 21.0938C17.2393 18.9376 15.4892 17.1875 13.333 17.1875Z" fill="#A1D1FD"/>
<path d="M17.2393 21.0938C17.2393 23.2499 15.4892 25 13.333 25V17.1875C15.4892 17.1875 17.2393 18.9376 17.2393 21.0938Z" fill="#65B3E7"/>
<path d="M13.333 18.75C12.036 18.75 10.9893 19.7968 10.9893 21.0938C10.9893 22.3907 12.036 23.4375 13.333 23.4375C14.63 23.4375 15.6768 22.3907 15.6768 21.0938C15.6768 19.7968 14.63 18.75 13.333 18.75Z" fill="#B9DFFC"/>
<path d="M15.6768 21.0938C15.6768 22.3907 14.63 23.4375 13.333 23.4375V18.75C14.63 18.75 15.6768 19.7968 15.6768 21.0938Z" fill="#A1D1FD"/>
<path d="M12.5518 20.3125H14.1143V21.875H12.5518V20.3125Z" fill="#58ADE5"/>
<path d="M13.333 20.3125H14.1143V21.875H13.333V20.3125Z" fill="#4D98CB"/>
</svg>
