<svg width="35" height="22" viewBox="0 0 35 22" fill="none" xmlns="http://www.w3.org/2000/svg">
<path d="M30.5977 12.9144C25.8737 11.8647 21.4387 9.76505 18.3794 7.06639C17.7455 6.50712 17.0862 5.82943 16.44 5.10745L13.8533 1.94554C13.5948 1.60536 13.3521 1.27975 13.1305 0.977872C12.3489 -0.0870715 10.853 -0.318266 9.7878 0.462887L2.8686 5.53699C1.5579 6.49814 0.784589 8.02707 0.787116 9.65241L0.797954 16.7783L8.14085 19.9549H23.0444L32.9997 16.7782C32.9997 16.7782 34.3358 13.745 30.5977 12.9144Z" fill="#65B3E7"/>
<path d="M30.5984 12.9143C25.8743 11.8645 21.4394 9.76491 18.38 7.06625C17.9355 6.67414 17.4786 6.22299 17.0225 5.73999V19.9548H23.0449L33.0003 16.7781C33.0003 16.7781 34.3364 13.7449 30.5984 12.9143Z" fill="#58ADE5"/>
<path d="M22.4469 9.88123C21.7858 9.51798 21.1511 9.13352 20.5487 8.72925L18.9186 11.3306C18.593 11.8501 18.7503 12.5352 19.2698 12.8608C19.7893 13.1863 20.4744 13.0291 20.8 12.5095L22.4469 9.88123Z" fill="#4D98CB"/>
<path d="M16.4248 11.1326C16.9469 11.454 17.6307 11.2913 17.9521 10.7693L19.6151 8.06813C19.1826 7.74451 18.7699 7.41032 18.38 7.06635C18.2206 6.92565 18.0595 6.77751 17.8975 6.62305L16.0615 9.6053C15.7401 10.1274 15.9027 10.8112 16.4248 11.1326Z" fill="#4D98CB"/>
<path d="M25.5817 11.3614C24.8803 11.0791 24.1964 10.7741 23.5349 10.448L21.9142 13.0493C21.59 13.5697 21.749 14.2544 22.2694 14.5786C22.7898 14.9028 23.4744 14.7437 23.7986 14.2234L25.5817 11.3614Z" fill="#4D98CB"/>
<path d="M11.7729 18.3809L4.27911 14.2702C3.25373 13.6018 2.6416 12.4719 2.6416 11.2479C2.6416 9.77958 4.4144 8.47047 5.77185 7.91154L9.85927 6.20142L10.7162 8.24958L6.61876 9.96403C6.09573 10.1786 4.86185 10.6826 4.86185 11.2479C4.86185 11.7154 5.09411 12.1473 5.48356 12.405L12.947 16.4966L11.7729 18.3809Z" fill="#B9DFFC"/>
<path d="M34.0441 18.5312C34.0441 19.3604 33.5268 20.1013 32.7483 20.3871C29.8408 21.4541 26.7677 22.0002 23.6705 22.0002H3.13286C1.40259 22.0002 0 20.5974 0 18.8672C0 17.137 1.40259 15.7344 3.13286 15.7344H9.18068C11.2342 15.7344 13.2811 15.9641 15.2836 16.4192L16.9195 16.791C19.9249 17.474 23.0245 17.6414 26.086 17.2858L30.5595 16.7663C30.9518 16.7207 31.3407 16.6514 31.7298 16.5828C32.9097 16.3742 34.0441 17.2801 34.0441 18.5312Z" fill="#FD387E"/>
<path d="M34.0441 18.5312C34.0441 19.3604 33.5268 20.1013 32.7483 20.3871C29.8407 21.4541 26.7677 22.0002 23.6705 22.0002H3.13286C1.40259 22.0002 0 20.5974 0 18.8672C0 17.137 1.40259 15.7344 3.13286 15.7344H9.18068C11.2342 15.7344 13.2811 15.9641 15.2836 16.4192L16.9195 16.791C19.9249 17.474 23.0245 17.6414 26.086 17.2858L30.5595 16.7663C30.9518 16.7207 31.3407 16.6514 31.7298 16.5828C32.9097 16.3742 34.0441 17.2801 34.0441 18.5312Z" fill="#B9DFFC"/>
<path d="M9.89232 9.58653L15.4491 5.78551C16.3768 5.15092 16.6145 3.8844 15.9799 2.95667C15.3453 2.02895 14.0788 1.79132 13.151 2.42591L7.59425 6.22693L9.89232 9.58653Z" fill="#4D98CB"/>
<path d="M32.626 16.5821C32.237 16.6508 30.9522 16.7202 30.5598 16.7657L26.0863 17.2852C23.0596 17.6368 19.9958 17.4763 17.0225 16.8126V21.9997H23.6709C26.7681 21.9997 29.8411 21.4536 32.7487 20.3866C33.5272 20.1009 34.0445 19.3599 34.0445 18.5307C34.0445 17.2797 33.806 16.3737 32.626 16.5821Z" fill="#A1D1FD"/>
</svg>
