<svg width="34" height="35" viewBox="0 0 34 35" fill="none" xmlns="http://www.w3.org/2000/svg">
<path d="M33.2051 24.3331V25.4227L31.4151 27.3683H1.71214L0 25.4227V24.4499L1.98452 8.30776L6.40106 3.89122H8.83062L9.72806 0H12.7113C13.8106 0 14.8171 0.359938 15.6297 0.972157C15.9968 1.24908 16.3243 2.5494 16.6026 2.91842C16.8808 2.5494 17.2083 1.24908 17.5754 0.972157C18.388 0.359938 19.3945 0 20.4938 0H23.477V3.89122H26.804L31.2206 8.30776L33.2051 24.3331Z" fill="#76B7E2"/>
<path d="M33.2051 24.3331V25.4227L31.4152 27.3683H16.6025V2.93418C16.6025 2.17143 16.9515 1.44617 17.5588 0.984739C18.3743 0.365062 19.3872 0 20.4938 0H23.477L24.3745 3.89122H26.8041L31.2206 8.3077L33.2051 24.3331Z" fill="#58ADE5"/>
<path d="M33.2051 25.4229H0V29.3141H33.2051V25.4229Z" fill="#58ADE5"/>
<path d="M33.2051 25.4229H16.6025V29.3141H33.2051V25.4229Z" fill="#4D98CB"/>
<path d="M27.3674 13.6191V29.3137L25.4218 31.2594H7.78155L5.83594 29.3137V13.6191H27.3674Z" fill="#76B7E2"/>
<path d="M27.3692 13.6196V29.3142L25.4236 31.2598H16.6035V13.6196H27.3692Z" fill="#58ADE5"/>
<path d="M27.3693 29.3145H5.83789V35.0005H27.3693V29.3145Z" fill="#58ADE5"/>
<path d="M27.3673 29.3145H16.6016V35.0005H27.3673V29.3145Z" fill="#4D98CB"/>
<path d="M29.3128 13.6196H27.3672V27.3686H29.3128V13.6196Z" fill="#4D98CB"/>
<path d="M5.83624 13.6191H3.89062V27.3681H5.83624V13.6191Z" fill="#58ADE5"/>
<path d="M17.5745 0.971924V34.9997H15.6289V0.971924C15.996 1.24885 16.3235 1.57636 16.6017 1.94538C16.8799 1.57636 17.2074 1.24885 17.5745 0.971924Z" fill="#B9DFFC"/>
<path d="M17.5753 0.971924C17.2083 1.24885 16.8808 1.57636 16.6025 1.94538V34.9997H17.5753V0.971924Z" fill="#A1D1FD"/>
</svg>
