<svg width="32" height="32" viewBox="0 0 32 32" fill="none" xmlns="http://www.w3.org/2000/svg">
<path d="M12.7207 11.3245L14.0466 9.99878L22.0015 17.9537L20.6758 19.2794L12.7207 11.3245Z" fill="#5FBEFF"/>
<path d="M20.6748 19.2801L16.6973 15.3025L18.0232 13.9766L22.0005 17.9541L20.6748 19.2801Z" fill="#4D98CB"/>
<path d="M28.6852 12.5953L19.0841 22.1967L5.77271 27.447L4.55273 26.2272L10.0684 12.6507L19.4044 3.3147L20.7303 4.64039L11.5269 13.8438L7.11184 24.8881L18.1561 20.473L27.3595 11.2696L28.6852 12.5953Z" fill="#A1D1FD"/>
<path d="M28.6855 12.595L19.0843 22.1964L5.77295 27.4467L5.16309 26.8368L7.11208 24.8878L18.1563 20.4727L27.3598 11.2693L28.6855 12.595Z" fill="#65B3E7"/>
<path d="M18.7418 3.97745C18.0096 3.24522 18.0096 2.05805 18.7418 1.32583C19.4741 0.593596 20.6612 0.593602 21.3935 1.32584L30.6741 10.6066C31.4063 11.3389 31.4063 12.526 30.6741 13.2583C29.9418 13.9905 28.7546 13.9905 28.0224 13.2583L18.7418 3.97745Z" fill="#5FBEFF"/>
<path d="M23.3828 8.6177L26.0344 5.96606L30.6748 10.6066C31.407 11.3388 31.407 12.526 30.6748 13.2582C29.9425 13.9904 28.7553 13.9904 28.0231 13.2582L23.3828 8.6177Z" fill="#4D98CB"/>
<path d="M6.09111 25.9089C4.99076 24.8083 3.21414 24.8083 2.11354 25.9089L0 28.0225L3.97732 32.0001L6.09111 29.8863C7.1917 28.7859 7.1917 27.0093 6.09111 25.9089Z" fill="#65B3E7"/>
<path d="M6.09085 29.8863L3.97707 32L1.98828 30.0113L6.09085 25.9087C7.19145 27.0093 7.19145 28.7859 6.09085 29.8863Z" fill="#4D98CB"/>
</svg>
