<svg width="42" height="37" fill="none" xmlns="http://www.w3.org/2000/svg"><path d="M3.978 16.32a.816.816 0 00.652-.016l6.446-2.93a.829.829 0 00.388-1.106c-.19-.397-.66-.578-1.064-.397l-4.515 2.056C8.039 7.48 14.039 3.172 20.948 3.172c7.238 0 13.569 4.837 15.392 11.761a.827.827 0 001.007.587.827.827 0 00.586-1.007C35.92 6.87 28.937 1.52 20.948 1.52c-7.618 0-14.246 4.755-16.64 11.87L2.41 8.643a.83.83 0 00-1.04-.528.83.83 0 00-.528 1.04c.008.033.025.066.041.1l2.633 6.602a.82.82 0 00.462.462zM40.403 28.497c-.016-.031-.023-.066-.036-.099l-2.613-6.553a.821.821 0 00-.463-.463.85.85 0 00-.652.017l-6.446 2.93a.829.829 0 00-.446 1.081c.174.42.66.619 1.082.446l.05-.025 4.514-2.055c-2.17 6.446-8.18 10.754-15.08 10.754-7.238 0-13.568-4.836-15.392-11.761a.827.827 0 00-1.007-.586.827.827 0 00-.586 1.007c2.006 7.65 8.996 12.99 16.986 12.99 7.618 0 14.237-4.753 16.639-11.868l1.898 4.746a.823.823 0 001.057.495.823.823 0 00.495-1.056z" fill="#36A6F2" stroke="#36A6F2" stroke-width="1.5"/></svg>