<svg width="44" height="43" viewBox="0 0 44 43" fill="none" xmlns="http://www.w3.org/2000/svg">
<path d="M16.1576 36.7306C16.7338 37.3068 17.2326 38.1711 16.9925 38.5312L28.1559 38.1711L28.8761 36.7306L31.757 35.2902L32.1171 24.847L38.239 17.6448L38.5991 12.2431L29.9565 5.76116H26.3554L22.3942 9.36226L17.3526 6.48138L14.8319 6.84149L13.0313 5.76116L5.8291 13.3235V17.6448L14.4717 26.2874C14.2317 28.208 13.8956 32.4093 14.4717 33.8497C15.192 35.6503 15.4374 36.0104 16.1576 36.7306Z" fill="#99D4FF"/>
<rect x="13.483" y="4.24859" width="12.9872" height="3.0749" rx="1.25" transform="rotate(132.951 13.483 4.24859)" fill="#99D4FF" stroke="#5181B8" stroke-width="1.5"/>
<path d="M13.2036 5.08965C13.6686 5.52259 14.5988 7.15096 16.1959 6.55433C18.0528 5.67864 20.5835 7.79286 22.2578 9.35146" stroke="#5181B8" stroke-width="1.5"/>
<path d="M5.15288 13.1784C5.60603 13.6002 6.53001 13.9658 5.78809 15.8532C4.72472 18.0858 8.67493 21.1449 12.7385 24.9278C13.2524 25.4061 13.7357 25.8702 14.1928 26.3116" stroke="#5181B8" stroke-width="1.5"/>
<rect x="39.8354" y="12.608" width="12.9872" height="3.0749" rx="1.25" transform="rotate(-141.347 39.8354 12.608)" fill="#99D4FF" stroke="#5181B8" stroke-width="1.5"/>
<path d="M38.9754 12.3924C38.5785 12.8886 37.7848 13.8811 38.4994 15.429C39.5118 17.2151 36.8329 19.9543 35.4042 21.7406C34.5823 22.7683 33.3942 24.4723 32.0231 25.3264" stroke="#5181B8" stroke-width="1.5"/>
<path d="M30.3057 4.97059C29.919 5.45408 29.6237 6.40286 27.686 5.80448C26.2095 5.23265 24.549 7.49847 22.6353 9.79214" stroke="#5181B8" stroke-width="1.5"/>
<path d="M16.6977 20.4539C15.9775 19.7337 15.5521 22.6719 14.8319 20.8713C14.3884 19.7628 14.272 24.7058 14.3514 26.1671L14.4717 26.2874C14.4164 26.73 14.3751 26.6046 14.3514 26.1671L5.8291 17.6448V13.3235L13.0313 5.76116L14.8319 6.84149L17.3526 6.48138L22.3942 9.36226L20.8721 10.4353L20.4547 10.8528L17.3526 12.1051L16.6977 20.4539Z" fill="#BAE2FF"/>
<rect x="13.483" y="4.24859" width="12.9872" height="3.0749" rx="1.25" transform="rotate(132.951 13.483 4.24859)" fill="#BAE2FF" stroke="#99D4FF" stroke-width="1.5"/>
<path d="M13.2036 5.08965C13.6686 5.52259 14.5988 7.15096 16.1959 6.55433C18.0528 5.67864 20.5835 7.79286 22.2578 9.35146" stroke="#99D4FF" stroke-width="1.5"/>
<path d="M5.15288 13.1784C5.60603 13.6002 6.53001 13.9658 5.78809 15.8532C4.72472 18.0858 8.67493 21.1449 12.7385 24.9278C13.2524 25.4061 13.7357 25.8702 14.1928 26.3116" stroke="#99D4FF" stroke-width="1.5"/>
<path d="M28.8028 15.4449C29.4389 14.6494 31.5807 15.8624 31.7249 16.6973C31.925 17.8563 32.0012 23.3014 31.8298 25.0475L31.5861 25.3298C31.6952 25.7851 31.7751 25.6045 31.8298 25.0475L38.3842 17.4535L38.7408 11.489L30.7459 4.77025L29.0759 6.04322L26.5308 5.96432L21.8391 9.38549L23.4706 10.2835L23.9316 10.6522L27.5505 10.6522L28.8028 15.4449Z" fill="#74B3E0"/>
<path d="M38.9749 12.3923C38.578 12.8886 37.7843 13.881 38.499 15.4289C39.5114 17.215 36.8324 19.9542 35.4037 21.7406C34.5818 22.7682 33.3937 24.4722 32.0226 25.3264" stroke="#7BC3F6" stroke-width="1.5"/>
<rect x="39.8344" y="12.6078" width="12.9872" height="3.0749" rx="1.25" transform="rotate(-141.347 39.8344 12.6078)" fill="#74B3E0" stroke="#7BC3F6" stroke-width="1.5"/>
<path d="M30.3052 4.97032C29.9185 5.45381 29.6232 6.40259 27.6855 5.80421C26.209 5.23238 24.5485 7.4982 22.6348 9.79188" stroke="#7BC3F6" stroke-width="1.5"/>
<path d="M17.9501 38.8214H28.3861L28.8035 37.1517C32.31 35.8159 32.4909 31.8641 32.143 30.0552C32.0039 26.02 31.7256 17.699 31.7256 16.6972C31.7256 15.6953 29.7775 15.4448 28.8035 15.4448L28.3861 16.2797C28.9574 12.4709 27.9648 11.1684 26.7163 10.4357C23.7943 12.1053 22.5419 8.88304 22.5419 9.60085V20.4544V28.3857V37.9866H17.1152L17.9501 38.8214Z" fill="#54B1F2" fill-opacity="0.2"/>
<path fill-rule="evenodd" clip-rule="evenodd" d="M25.5288 12.57C25.5288 12.3431 25.5986 11.9928 25.7811 11.7232C25.9365 11.4936 26.187 11.2924 26.685 11.2924C27.183 11.2924 27.4335 11.4936 27.5889 11.7232C27.7714 11.9928 27.8412 12.3431 27.8412 12.57V12.5922V12.6145V12.6368V12.6592V12.6817V12.7042V12.7268V12.7495V12.7722V12.795V12.8179V12.8408V12.8638V12.8869V12.91V12.9331V12.9564V12.9797V13.003V13.0264V13.0499V13.0734V13.097V13.1206V13.1443V13.1681V13.1919V13.2158V13.2397V13.2637V13.2877V13.3118V13.3359V13.3601V13.3844V13.4087V13.433V13.4574V13.4819V13.5064V13.5309V13.5555V13.5802V13.6049V13.6296V13.6544V13.6793V13.7042V13.7291V13.7541V13.7791V13.8042V13.8293V13.8545V13.8797V13.9049V13.9302V13.9556V13.981V14.0064V14.0319V14.0574V14.0829V14.1085V14.1341V14.1598V14.1855V14.2112V14.237V14.2628V14.2887V14.3146V14.3405V14.3665V14.3925V14.4185V14.4446V14.4707V14.4968V14.523V14.5492V14.5754V14.6017V14.628V14.6543V14.6807V14.7071V14.7335V14.76V14.7864V14.8129V14.8395V14.866V14.8926V14.9193V14.9459V14.9726V14.9993V15.026V15.0527V15.0795V15.1063V15.1331V15.16V15.1868V15.2137V15.2406V15.2675V15.2945V15.3214V15.3484V15.3754V15.4025V15.4295V15.4566V15.4837V15.5108V15.5379V15.565V15.5921V15.6193V15.6465V15.6737V15.7009V15.7281V15.7553V15.7826V15.8098V15.8371V15.8644V15.8917V15.919V15.9463V15.9736V16.001V16.0283V16.0557V16.083V16.1104V16.1378V16.1652V16.1925V16.2199V16.2473V16.2747V16.3021V16.3296V16.357V16.3844V16.4118V16.4393V16.4667V16.4941V16.5215V16.549V16.5764V16.6038V16.6313V16.6587V16.6861V16.7136V16.741V16.7684V16.7958V16.8233V16.8507V16.8781V16.9055V16.9329V16.9603V16.9877V17.015V17.0424V17.0698V17.0971V17.1245V17.1518V17.1792V17.2065V17.2338V17.2611V17.2884V17.3157V17.3429V17.3702V17.3974V17.4247V17.4519V17.4791V17.5063V17.5335V17.5606V17.5878V17.6149V17.642V17.6691V17.6962V17.7232V17.7503V17.7773V17.8043V17.8313V17.8582V17.8852V17.9121V17.939V17.9659V17.9927V18.0196V18.0464V18.0732V18.0999V18.1267V18.1534V18.1801V18.2067V18.2334V18.26V18.2866V18.3131V18.3397V18.3662V18.3926V18.4191V18.4455V18.4719V18.4982V18.5246V18.5509V18.5771V18.6034V18.6296V18.6557V18.6818V18.7079V18.734V18.76V18.786V18.812V18.8379V18.8638V18.8896V18.9154V18.9412V18.967V18.9927V19.0183V19.0439V19.0695V19.095V19.1205V19.146V19.1714V19.1968V19.2221V19.2474V19.2726V19.2978V19.323V19.3481V19.3732V19.3982V19.4232V19.4481V19.473V19.4978V19.5226V19.5473V19.572V19.5967V19.6213V19.6458V19.6703V19.6947V19.7191V19.7435V19.7677V19.792V19.8162V19.8403V19.8644V19.8884V19.9124V19.9363V19.9601V19.9839V20.0077V20.0313V20.055V20.0785V20.1021V20.1255V20.1489V20.1722V20.1955V20.2187V20.2419V20.265V20.288V20.311V20.3339V20.3568V20.3795V20.4023V20.4249V20.4475V20.47V20.4925V20.5149V20.5372V20.5595V20.5817V20.6038V20.6259V20.6479V20.6698V20.6916V20.7134V20.7351V20.7568V20.7783V20.7998V20.8213V20.8426V20.8639V20.8851V20.9062V20.9273V20.9483V20.9692V20.9901V21.0108V21.0315V21.0521V21.0726V21.0931V21.1135V21.1338V21.154V21.1741V21.1942V21.2142V21.2341V21.2539V21.2736V21.2933V21.3129V21.3323V21.3518V21.3711V21.3903V21.4095V21.4285V21.4475V21.4664V21.4852V21.504V21.5226V21.5412V21.5596V21.578V21.5963V21.6145V21.6326V21.6506V21.6686V21.6864V21.7041V21.7218V21.7394V21.7568V21.7742V21.7915V21.8087V21.8258V21.8428V21.8597V21.8765V21.8932V21.9098V21.9263V21.9428V21.9591V21.9753V21.9914V22.0075V22.0234V22.0392V22.0549V22.0706V22.0861V22.1015V22.1168V22.1321V22.1472V22.1622V22.1771V22.1919V22.2066V22.2212V22.2357V22.2501V22.2644V22.2785V22.2926V22.3065V22.3204V22.3341V22.3478V22.3613V22.3747V22.388V22.4012V22.4143V22.4272V22.4401V22.4528V22.4654V22.478V22.4904V22.5026V22.5148V22.5269V22.5388V22.5506V22.5623V22.5739V22.5854V22.5968V22.608V22.6191V22.6301V22.641V22.6518V22.6624V22.6729V22.6833V22.6936V22.7038V22.7138V22.7237V22.7335V22.7432V22.7527V22.7621V22.7714V22.7806V22.7896V22.7985V22.8073V22.816V22.8245V22.8329V22.8412V22.8493V22.8573V22.8652V22.873V22.8806V22.8881V22.8954V22.9027V22.9098V22.9167V22.9236V22.9302V22.9368V22.9432V22.9495V22.9557V22.9617V22.9676V22.9733V22.979V22.9844V22.9898V22.995V23V23.0049V23.0097V23.0144V23.0189V23.0232V23.0274V23.0315V23.0354V23.0392V23.0429V23.0464V23.0497V23.0529V23.056V23.0589V23.0617V23.0643V23.0668V23.0691V23.0713V23.0734V23.0753V23.077V23.0786V23.08V23.0813V23.0825V23.0835V23.0843V23.085V23.0855V23.0859V23.0862L28.5912 23.0862L29.3412 23.0862V23.0859V23.0855V23.085V23.0843V23.0835V23.0825V23.0813V23.08V23.0786V23.077V23.0753V23.0734V23.0713V23.0691V23.0668V23.0643V23.0617V23.0589V23.056V23.0529V23.0497V23.0464V23.0429V23.0392V23.0354V23.0315V23.0274V23.0232V23.0189V23.0144V23.0097V23.0049V23V22.995V22.9898V22.9844V22.979V22.9733V22.9676V22.9617V22.9557V22.9495V22.9432V22.9368V22.9302V22.9236V22.9167V22.9098V22.9027V22.8954V22.8881V22.8806V22.873V22.8652V22.8573V22.8493V22.8412V22.8329V22.8245V22.816V22.8073V22.7985V22.7896V22.7806V22.7714V22.7621V22.7527V22.7432V22.7335V22.7237V22.7138V22.7038V22.6936V22.6833V22.6729V22.6624V22.6518V22.641V22.6301V22.6191V22.608V22.5968V22.5854V22.5739V22.5623V22.5506V22.5388V22.5269V22.5148V22.5026V22.4904V22.478V22.4654V22.4528V22.4401V22.4272V22.4143V22.4012V22.388V22.3747V22.3613V22.3478V22.3341V22.3204V22.3065V22.2926V22.2785V22.2644V22.2501V22.2357V22.2212V22.2066V22.1919V22.1771V22.1622V22.1472V22.1321V22.1168V22.1015V22.0861V22.0706V22.0549V22.0392V22.0234V22.0075V21.9914V21.9753V21.9591V21.9428V21.9263V21.9098V21.8932V21.8765V21.8597V21.8428V21.8258V21.8087V21.7915V21.7742V21.7568V21.7394V21.7218V21.7041V21.6864V21.6686V21.6506V21.6326V21.6145V21.5963V21.578V21.5596V21.5412V21.5226V21.504V21.4852V21.4664V21.4475V21.4285V21.4095V21.3903V21.3711V21.3518V21.3323V21.3129V21.2933V21.2736V21.2539V21.2341V21.2142V21.1942V21.1741V21.154V21.1338V21.1135V21.0931V21.0726V21.0521V21.0315V21.0108V20.9901V20.9692V20.9483V20.9273V20.9062V20.8851V20.8639V20.8426V20.8213V20.7998V20.7783V20.7568V20.7351V20.7134V20.6916V20.6698V20.6479V20.6259V20.6038V20.5817V20.5595V20.5372V20.5149V20.4925V20.47V20.4475V20.4249V20.4023V20.3795V20.3568V20.3339V20.311V20.288V20.265V20.2419V20.2187V20.1955V20.1722V20.1489V20.1255V20.1021V20.0785V20.055V20.0313V20.0077V19.9839V19.9601V19.9363V19.9124V19.8884V19.8644V19.8403V19.8162V19.792V19.7677V19.7435V19.7191V19.6947V19.6703V19.6458V19.6213V19.5967V19.572V19.5473V19.5226V19.4978V19.473V19.4481V19.4232V19.3982V19.3732V19.3481V19.323V19.2978V19.2726V19.2474V19.2221V19.1968V19.1714V19.146V19.1205V19.095V19.0695V19.0439V19.0183V18.9927V18.967V18.9412V18.9154V18.8896V18.8638V18.8379V18.812V18.786V18.76V18.734V18.7079V18.6818V18.6557V18.6296V18.6034V18.5771V18.5509V18.5246V18.4982V18.4719V18.4455V18.4191V18.3926V18.3662V18.3397V18.3131V18.2866V18.26V18.2334V18.2067V18.1801V18.1534V18.1267V18.0999V18.0732V18.0464V18.0196V17.9927V17.9659V17.939V17.9121V17.8852V17.8582V17.8313V17.8043V17.7773V17.7503V17.7232V17.6962V17.6691V17.642V17.6149V17.5878V17.5606V17.5335V17.5063V17.4791V17.4519V17.4247V17.3974V17.3702V17.3429V17.3157V17.2884V17.2611V17.2338V17.2065V17.1792V17.1518V17.1245V17.0971V17.0698V17.0424V17.015V16.9877V16.9603V16.9329V16.9055V16.8781V16.8507V16.8233V16.7958V16.7684V16.741V16.7136V16.6861V16.6587V16.6313V16.6038V16.5764V16.549V16.5215V16.4941V16.4667V16.4393V16.4118V16.3844V16.357V16.3296V16.3021V16.2747V16.2473V16.2199V16.1925V16.1652V16.1378V16.1104V16.083V16.0557V16.0283V16.001V15.9736V15.9727C29.878 15.9974 30.216 16.1305 30.4415 16.3026C30.7523 16.5397 30.9937 16.9603 31.1439 17.7119C31.2945 18.4651 31.3319 19.4386 31.326 20.6554C31.3236 21.1486 31.3134 21.7052 31.3026 22.2992C31.2881 23.095 31.2724 23.958 31.2724 24.8259C31.2724 25.6666 31.2817 26.4844 31.2908 27.2716C31.313 29.2059 31.3331 30.9558 31.2066 32.4093C31.1181 33.4265 30.962 34.2223 30.7195 34.7891C30.4828 35.3424 30.2011 35.5984 29.8851 35.7008L29.8596 35.709L29.8347 35.7191C28.78 36.1461 28.1819 36.698 27.9386 37.389C27.8241 37.7143 27.8088 38.0175 27.8143 38.2551C27.8169 38.3635 27.8242 38.4673 27.8299 38.5487L27.8312 38.5663C27.8376 38.6582 27.8412 38.717 27.8412 38.7662H29.3412C29.3412 38.6564 29.3335 38.5464 29.3275 38.4614L29.3275 38.4612L29.3269 38.4524L29.3269 38.4523C29.3206 38.3634 29.3156 38.2921 29.3139 38.2201C29.3106 38.0765 29.3227 37.9747 29.3535 37.8871C29.4006 37.7534 29.5625 37.4518 30.3757 37.1184C31.2226 36.8334 31.7606 36.1694 32.0986 35.3791C32.4347 34.5934 32.6078 33.6101 32.701 32.5393C32.8342 31.0076 32.8128 29.1406 32.7902 27.1711V27.1711V27.171C32.7814 26.4003 32.7724 25.614 32.7724 24.8259C32.7724 23.9337 32.7874 23.1329 32.8016 22.374V22.374C32.8126 21.7862 32.8232 21.2234 32.8259 20.6628C32.8319 19.4411 32.7979 18.3337 32.6148 17.4179C32.4315 16.5004 32.0772 15.6638 31.3514 15.1101C30.805 14.6931 30.1289 14.4979 29.3412 14.4719V14.4707V14.4446V14.4185V14.3925V14.3665V14.3405V14.3146V14.2887V14.2628V14.237V14.2112V14.1855V14.1598V14.1341V14.1085V14.0829V14.0574V14.0319V14.0064V13.981V13.9556V13.9302V13.9049V13.8797V13.8545V13.8293V13.8042V13.7791V13.7541V13.7291V13.7042V13.6793V13.6544V13.6296V13.6049V13.5802V13.5555V13.5309V13.5064V13.4819V13.4574V13.433V13.4087V13.3844V13.3601V13.3359V13.3118V13.2877V13.2637V13.2397V13.2158V13.1919V13.1681V13.1443V13.1206V13.097V13.0734V13.0499V13.0264V13.003V12.9797V12.9564V12.9331V12.91V12.8869V12.8638V12.8408V12.8179V12.795V12.7722V12.7495V12.7268V12.7042V12.6817V12.6592V12.6368V12.6145V12.5922V12.57C29.3412 12.121 29.2204 11.4575 28.8311 10.8823C28.4146 10.2671 27.712 9.79242 26.685 9.79242C25.658 9.79242 24.9554 10.2671 24.539 10.8823C24.1496 11.4575 24.0288 12.121 24.0288 12.57V23.0862H25.5288V12.57Z" fill="#7BC3F7"/>
<rect x="16.3794" y="38.7535" width="12.9872" height="3.0749" rx="1.25" fill="#99D4FF" stroke="#7BC3F6" stroke-width="1.5"/>
<path fill-rule="evenodd" clip-rule="evenodd" d="M21.5966 11.8285C21.5966 11.6035 21.6662 11.2557 21.8482 10.9879C22.003 10.7602 22.2535 10.5591 22.7529 10.5591C23.2522 10.5591 23.5027 10.7602 23.6575 10.9879C23.8395 11.2557 23.9091 11.6035 23.9091 11.8285V11.8506V11.8728V11.8951V11.9175V11.94V11.9625V11.9852V12.0079V12.0307V12.0536V12.0765V12.0996V12.1227V12.1459V12.1692V12.1925V12.216V12.2395V12.2631V12.2868V12.3105V12.3344V12.3583V12.3822V12.4063V12.4304V12.4546V12.4789V12.5032V12.5276V12.5521V12.5767V12.6013V12.626V12.6507V12.6756V12.7005V12.7254V12.7505V12.7756V12.8007V12.826V12.8513V12.8766V12.902V12.9275V12.9531V12.9787V13.0044V13.0301V13.0559V13.0818V13.1077V13.1337V13.1597V13.1858V13.212V13.2382V13.2644V13.2908V13.3172V13.3436V13.3701V13.3966V13.4232V13.4499V13.4766V13.5033V13.5302V13.557V13.5839V13.6109V13.6379V13.665V13.6921V13.7192V13.7464V13.7737V13.801V13.8284V13.8557V13.8832V13.9107V13.9382V13.9658V13.9934V14.021V14.0487V14.0765V14.1043V14.1321V14.16V14.1879V14.2158V14.2438V14.2718V14.2999V14.328V14.3561V14.3843V14.4125V14.4407V14.469V14.4973V14.5256V14.554V14.5824V14.6109V14.6393V14.6678V14.6964V14.7249V14.7535V14.7822V14.8108V14.8395V14.8682V14.8969V14.9257V14.9545V14.9833V15.0121V15.041V15.0699V15.0988V15.1277V15.1567V15.1857V15.2147V15.2437V15.2727V15.3018V15.3309V15.36V15.3891V15.4182V15.4474V15.4765V15.5057V15.5349V15.5641V15.5934V15.6226V15.6519V15.6812V15.7105V15.7398V15.7691V15.7984V15.8277V15.8571V15.8864V15.9158V15.9452V15.9746V16.004V16.0333V16.0628V16.0922V16.1216V16.151V16.1804V16.2099V16.2393V16.2687V16.2982V16.3276V16.3571V16.3865V16.416V16.4454V16.4749V16.5043V16.5338V16.5632V16.5927V16.6221V16.6515V16.681V16.7104V16.7398V16.7692V16.7987V16.8281V16.8575V16.8869V16.9162V16.9456V16.975V17.0043V17.0337V17.063V17.0924V17.1217V17.151V17.1803V17.2096V17.2388V17.2681V17.2973V17.3265V17.3558V17.3849V17.4141V17.4433V17.4724V17.5015V17.5307V17.5597V17.5888V17.6179V17.6469V17.6759V17.7049V17.7338V17.7628V17.7917V17.8206V17.8495V17.8783V17.9071V17.9359V17.9647V17.9934V18.0222V18.0508V18.0795V18.1081V18.1367V18.1653V18.1939V18.2224V18.2509V18.2793V18.3077V18.3361V18.3645V18.3928V18.4211V18.4493V18.4775V18.5057V18.5339V18.562V18.59V18.6181V18.6461V18.674V18.702V18.7298V18.7577V18.7855V18.8132V18.8409V18.8686V18.8962V18.9238V18.9514V18.9789V19.0063V19.0337V19.0611V19.0884V19.1157V19.1429V19.1701V19.1972V19.2243V19.2513V19.2783V19.3052V19.3321V19.3589V19.3857V19.4124V19.4391V19.4657V19.4923V19.5188V19.5453V19.5717V19.598V19.6243V19.6505V19.6767V19.7028V19.7289V19.7549V19.7808V19.8067V19.8325V19.8583V19.884V19.9096V19.9352V19.9607V19.9861V20.0115V20.0368V20.0621V20.0873V20.1124V20.1374V20.1624V20.1874V20.2122V20.237V20.2617V20.2864V20.3109V20.3354V20.3599V20.3842V20.4085V20.4328V20.4569V20.481V20.505V20.5289V20.5527V20.5765V20.6002V20.6238V20.6474V20.6709V20.6942V20.7176V20.7408V20.7639V20.787V20.81V20.8329V20.8557V20.8785V20.9012V20.9237V20.9462V20.9686V20.991V21.0132V21.0354V21.0575V21.0794V21.1013V21.1231V21.1449V21.1665V21.1881V21.2095V21.2309V21.2521V21.2733V21.2944V21.3154V21.3363V21.3571V21.3779V21.3985V21.419V21.4395V21.4598V21.48V21.5002V21.5202V21.5402V21.56V21.5798V21.5995V21.619V21.6385V21.6578V21.6771V21.6962V21.7153V21.7342V21.7531V21.7718V21.7904V21.809V21.8274V21.8457V21.8639V21.882V21.9V21.9179V21.9357V21.9534V21.971V21.9884V22.0058V22.023V22.0401V22.0571V22.074V22.0908V22.1075V22.124V22.1405V22.1568V22.173V22.1891V22.2051V22.221V22.2367V22.2523V22.2678V22.2832V22.2985V22.3137V22.3287V22.3436V22.3584V22.3731V22.3876V22.402V22.4163V22.4305V22.4445V22.4585V22.4723V22.4859V22.4995V22.5129V22.5262V22.5394V22.5524V22.5653V22.5781V22.5907V22.6032V22.6156V22.6279V22.64V22.652V22.6638V22.6756V22.6871V22.6986V22.7099V22.7211V22.7321V22.743V22.7538V22.7645V22.7749V22.7853V22.7955V22.8056V22.8155V22.8253V22.835V22.8445V22.8539V22.8631V22.8722V22.8811V22.8899V22.8986V22.9071V22.9155V22.9237V22.9317V22.9397V22.9474V22.9551V22.9625V22.9699V22.977V22.9841V22.991V22.9977V23.0043V23.0107V23.0169V23.0231V23.029V23.0348V23.0405V23.046V23.0513V23.0565V23.0615V23.0664V23.0711V23.0757V23.0801V23.0843V23.0884V23.0923V23.096V23.0996V23.1031V23.1063V23.1094V23.1124V23.1152V23.1178V23.1202V23.1225V23.1246V23.1266V23.1284V23.13V23.1314V23.1327V23.1338V23.1348V23.1355V23.1361V23.1366V23.1368L24.6591 23.1369L25.4091 23.1368V23.1366V23.1361V23.1355V23.1348V23.1338V23.1327V23.1314V23.13V23.1284V23.1266V23.1246V23.1225V23.1202V23.1178V23.1152V23.1124V23.1094V23.1063V23.1031V23.0996V23.096V23.0923V23.0884V23.0843V23.0801V23.0757V23.0711V23.0664V23.0615V23.0565V23.0513V23.046V23.0405V23.0348V23.029V23.0231V23.0169V23.0107V23.0043V22.9977V22.991V22.9841V22.977V22.9699V22.9625V22.9551V22.9474V22.9397V22.9317V22.9237V22.9155V22.9071V22.8986V22.8899V22.8811V22.8722V22.8631V22.8539V22.8445V22.835V22.8253V22.8155V22.8056V22.7955V22.7853V22.7749V22.7645V22.7538V22.743V22.7321V22.7211V22.7099V22.6986V22.6871V22.6756V22.6638V22.652V22.64V22.6279V22.6156V22.6032V22.5907V22.5781V22.5653V22.5524V22.5394V22.5262V22.5129V22.4995V22.4859V22.4723V22.4585V22.4445V22.4305V22.4163V22.402V22.3876V22.3731V22.3584V22.3436V22.3287V22.3137V22.2985V22.2832V22.2678V22.2523V22.2367V22.221V22.2051V22.1891V22.173V22.1568V22.1405V22.124V22.1075V22.0908V22.074V22.0571V22.0401V22.023V22.0058V21.9884V21.971V21.9534V21.9357V21.9179V21.9V21.882V21.8639V21.8457V21.8274V21.809V21.7904V21.7718V21.7531V21.7342V21.7153V21.6962V21.6771V21.6578V21.6385V21.619V21.5995V21.5798V21.56V21.5402V21.5202V21.5002V21.48V21.4598V21.4395V21.419V21.3985V21.3779V21.3571V21.3363V21.3154V21.2944V21.2733V21.2521V21.2309V21.2095V21.1881V21.1665V21.1449V21.1231V21.1013V21.0794V21.0575V21.0354V21.0132V20.991V20.9686V20.9462V20.9237V20.9012V20.8785V20.8557V20.8329V20.81V20.787V20.7639V20.7408V20.7176V20.6942V20.6709V20.6474V20.6238V20.6002V20.5765V20.5527V20.5289V20.505V20.481V20.4569V20.4328V20.4085V20.3842V20.3599V20.3354V20.3109V20.2864V20.2617V20.237V20.2122V20.1874V20.1624V20.1374V20.1124V20.0873V20.0621V20.0368V20.0115V19.9861V19.9607V19.9352V19.9096V19.884V19.8583V19.8325V19.8067V19.7808V19.7549V19.7289V19.7028V19.6767V19.6505V19.6243V19.598V19.5717V19.5453V19.5188V19.4923V19.4657V19.4391V19.4124V19.3857V19.3589V19.3321V19.3052V19.2783V19.2513V19.2243V19.1972V19.1701V19.1429V19.1157V19.0884V19.0611V19.0337V19.0063V18.9789V18.9514V18.9238V18.8962V18.8686V18.8409V18.8132V18.7855V18.7577V18.7298V18.702V18.674V18.6461V18.6181V18.59V18.562V18.5339V18.5057V18.4775V18.4493V18.4211V18.3928V18.3645V18.3361V18.3077V18.2793V18.2509V18.2224V18.1939V18.1653V18.1367V18.1081V18.0795V18.0508V18.0222V17.9934V17.9647V17.9359V17.9071V17.8783V17.8495V17.8206V17.7917V17.7628V17.7338V17.7049V17.6759V17.6469V17.6179V17.5888V17.5597V17.5307V17.5015V17.4724V17.4433V17.4141V17.3849V17.3558V17.3265V17.2973V17.2681V17.2388V17.2096V17.1803V17.151V17.1217V17.0924V17.063V17.0337V17.0043V16.975V16.9456V16.9162V16.8869V16.8575V16.8281V16.7987V16.7692V16.7398V16.7104V16.681V16.6515V16.6221V16.5927V16.5632V16.5338V16.5043V16.4749V16.4454V16.416V16.3865V16.3571V16.3276V16.2982V16.2687V16.2393V16.2099V16.1804V16.151V16.1216V16.0922V16.0628V16.0333V16.004V15.9746V15.9452V15.9158V15.8864V15.8571V15.8277V15.7984V15.7691V15.7398V15.7105V15.6812V15.6519V15.6226V15.5934V15.5641V15.5349V15.5057V15.4765V15.4474V15.4182V15.3891V15.36V15.3309V15.3018V15.2727V15.2437V15.2147V15.1857V15.1567V15.1277V15.0988V15.0699V15.041V15.0121V14.9833V14.9545V14.9257V14.8969V14.8682V14.8395V14.8108V14.7822V14.7535V14.7249V14.6964V14.6678V14.6393V14.6109V14.5824V14.554V14.5256V14.4973V14.469V14.4407V14.4125V14.3843V14.3561V14.328V14.2999V14.2718V14.2438V14.2158V14.1879V14.16V14.1321V14.1043V14.0765V14.0487V14.021V13.9934V13.9658V13.9382V13.9107V13.8832V13.8557V13.8284V13.801V13.7737V13.7464V13.7192V13.6921V13.665V13.6379V13.6109V13.5839V13.557V13.5302V13.5033V13.4766V13.4499V13.4232V13.3966V13.3701V13.3436V13.3172V13.2908V13.2644V13.2382V13.212V13.1858V13.1597V13.1337V13.1077V13.0818V13.0559V13.0301V13.0044V12.9787V12.9531V12.9275V12.902V12.8766V12.8513V12.826V12.8007V12.7756V12.7505V12.7254V12.7005V12.6756V12.6507V12.626V12.6013V12.5767V12.5521V12.5276V12.5032V12.4789V12.4546V12.4304V12.4063V12.3822V12.3583V12.3344V12.3105V12.2868V12.2631V12.2395V12.216V12.1925V12.1692V12.1459V12.1227V12.0996V12.0765V12.0536V12.0307V12.0079V11.9852V11.9625V11.94V11.9175V11.8951V11.8728V11.8506V11.8285C25.4091 11.3803 25.288 10.7184 24.8981 10.1448C24.4811 9.53116 23.7785 9.0591 22.7529 9.0591C21.7272 9.0591 21.0246 9.53116 20.6076 10.1448C20.4346 10.3994 20.3145 10.6714 20.2344 10.9343C19.8796 10.7428 19.4499 10.627 18.9407 10.627C17.9174 10.627 17.2149 11.0947 16.7968 11.7055C16.4061 12.2765 16.2845 12.9357 16.2845 13.3825V19.4501C15.5 19.6519 14.9082 20.1679 14.4851 20.824C13.9579 21.6414 13.6669 22.7042 13.498 23.7577C13.2166 25.5119 13.2427 27.4801 13.2594 28.74C13.2628 28.9944 13.2658 29.2199 13.2658 29.409C13.2658 29.6992 13.2591 30.0277 13.252 30.3802C13.232 31.3718 13.2081 32.5528 13.3175 33.6026C13.3927 34.3242 13.5351 35.0516 13.8148 35.671C14.0937 36.2887 14.534 36.8495 15.222 37.1444C15.7972 37.4467 16.048 37.8176 16.1732 38.1501C16.3106 38.5152 16.3157 38.8802 16.3157 39.2088H17.8157L17.8157 39.1894C17.8158 38.86 17.816 38.2564 17.577 37.6216C17.3227 36.946 16.8162 36.2773 15.8837 35.7978L15.8554 35.7833L15.826 35.7712C15.5802 35.6701 15.363 35.455 15.1818 35.0537C14.9969 34.6441 14.8772 34.0975 14.8094 33.4472C14.7105 32.4977 14.7312 31.4702 14.7507 30.505L14.7507 30.505C14.7583 30.1273 14.7658 29.7592 14.7658 29.409C14.7658 29.1932 14.7627 28.9463 14.7593 28.6752L14.7593 28.6752C14.7433 27.4053 14.7207 25.6055 14.979 23.9952C15.1359 23.0174 15.3851 22.196 15.7457 21.637C15.9078 21.3856 16.0844 21.1965 16.2845 21.0676V27.0568H17.7845V13.3825C17.7845 13.1609 17.8536 12.8173 18.0347 12.5526C18.1886 12.3278 18.4391 12.127 18.9407 12.127C19.4423 12.127 19.6929 12.3278 19.8468 12.5526C20.021 12.8072 20.0915 13.1349 20.0966 13.3568V23.9209H21.5966V23.0091H21.5969V23.0089V23.0086V23.0081V23.0075V23.0068V23.0059V23.0049V23.0038V23.0025V23.0011V22.9996V22.998V22.9962V22.9943V22.9922V22.99V22.9877V22.9853V22.9827V22.9801V22.9772V22.9743V22.9712V22.9681V22.9647V22.9613V22.9577V22.954V22.9502V22.9463V22.9422V22.938V22.9337V22.9293V22.9247V22.9201V22.9153V22.9103V22.9053V22.9001V22.8949V22.8895V22.8839V22.8783V22.8726V22.8667V22.8607V22.8546V22.8484V22.842V22.8356V22.829V22.8223V22.8155V22.8086V22.8015V22.7944V22.7871V22.7797V22.7722V22.7646V22.7569V22.7491V22.7412V22.7331V22.725V22.7167V22.7083V22.6998V22.6912V22.6825V22.6737V22.6647V22.6557V22.6466V22.6373V22.628V22.6185V22.6089V22.5992V22.5895V22.5796V22.5696V22.5595V22.5493V22.539V22.5286V22.5181V22.5074V22.4967V22.4859V22.475V22.464V22.4528V22.4416V22.4303V22.4189V22.4073V22.3957V22.384V22.3722V22.3603V22.3482V22.3361V22.3239V22.3116V22.2992V22.2867V22.2741V22.2614V22.2486V22.2358V22.2228V22.2097V22.1966V22.1833V22.17V22.1565V22.143V22.1294V22.1157V22.1019V22.088V22.074V22.0599V22.0457V22.0315V22.0171V22.0027V21.9882V21.9736V21.9589V21.9441V21.9293V21.9143V21.8993V21.8841V21.8689V21.8536V21.8383V21.8228V21.8072V21.7916V21.7759V21.7601V21.7442V21.7283V21.7122V21.6961V21.6799V21.6636V21.6473V21.6308V21.6143V21.5977V21.581V21.5642V21.5474V21.5305V21.5135V21.4964V21.4793V21.4621V21.4448V21.4274V21.4099V21.3924V21.3748V21.3572V21.3394V21.3216V21.3037V21.2857V21.2677V21.2496V21.2314V21.2132V21.1948V21.1764V21.158V21.1395V21.1208V21.1022V21.0834V21.0646V21.0458V21.0268V21.0078V20.9887V20.9696V20.9504V20.9311V20.9118V20.8924V20.8729V20.8533V20.8337V20.8141V20.7944V20.7746V20.7547V20.7348V20.7148V20.6948V20.6747V20.6545V20.6343V20.614V20.5937V20.5733V20.5528V20.5323V20.5117V20.4911V20.4704V20.4497V20.4289V20.408V20.3871V20.3661V20.3451V20.324V20.3029V20.2817V20.2604V20.2391V20.2178V20.1964V20.1749V20.1534V20.1319V20.1102V20.0886V20.0669V20.0451V20.0233V20.0014V19.9795V19.9575V19.9355V19.9135V19.8914V19.8692V19.847V19.8247V19.8025V19.7801V19.7577V19.7353V19.7128V19.6903V19.6677V19.6451V19.6225V19.5998V19.577V19.5542V19.5314V19.5085V19.4856V19.4627V19.4397V19.4167V19.3936V19.3705V19.3473V19.3241V19.3009V19.2777V19.2544V19.231V19.2076V19.1842V19.1608V19.1373V19.1138V19.0902V19.0666V19.043V19.0193V18.9956V18.9719V18.9481V18.9243V18.9005V18.8767V18.8528V18.8288V18.8049V18.7809V18.7569V18.7329V18.7088V18.6847V18.6605V18.6364V18.6122V18.588V18.5637V18.5395V18.5152V18.4908V18.4665V18.4421V18.4177V18.3933V18.3688V18.3444V18.3199V18.2953V18.2708V18.2462V18.2216V18.197V18.1724V18.1477V18.1231V18.0984V18.0737V18.0489V18.0242V17.9994V17.9746V17.9498V17.925V17.9001V17.8752V17.8504V17.8255V17.8005V17.7756V17.7507V17.7257V17.7007V17.6757V17.6507V17.6257V17.6007V17.5756V17.5506V17.5255V17.5004V17.4753V17.4502V17.4251V17.4V17.3748V17.3497V17.3245V17.2994V17.2742V17.249V17.2238V17.1986V17.1734V17.1482V17.123V17.0977V17.0725V17.0473V17.022V16.9968V16.9715V16.9463V16.921V16.8957V16.8705V16.8452V16.8199V16.7947V16.7694V16.7441V16.7188V16.6935V16.6683V16.643V16.6177V16.5924V16.5672V16.5419V16.5166V16.4913V16.4661V16.4408V16.4156V16.3903V16.365V16.3398V16.3146V16.2893V16.2641V16.2389V16.2136V16.1884V16.1632V16.138V16.1128V16.0876V16.0625V16.0373V16.0122V15.987V15.9619V15.9367V15.9116V15.8865V15.8614V15.8363V15.8113V15.7862V15.7612V15.7361V15.7111V15.6861V15.6611V15.6361V15.6112V15.5862V15.5613V15.5364V15.5115V15.4866V15.4617V15.4369V15.4121V15.3873V15.3625V15.3377V15.3129V15.2882V15.2635V15.2388V15.2141V15.1895V15.1648V15.1402V15.1156V15.0911V15.0665V15.042V15.0175V14.993V14.9686V14.9442V14.9198V14.8954V14.871V14.8467V14.8224V14.7982V14.7739V14.7497V14.7255V14.7014V14.6772V14.6531V14.6291V14.605V14.581V14.557V14.5331V14.5091V14.4853V14.4614V14.4376V14.4138V14.39V14.3663V14.3426V14.3189V14.2953V14.2717V14.2482V14.2247V14.2012V14.1777V14.1543V14.1309V14.1076V14.0843V14.061V14.0378V14.0146V13.9915V13.9684V13.9453V13.9223V13.8993V13.8763V13.8534V13.8306V13.8078V13.785V13.7622V13.7395V13.7169V13.6943V13.6717V13.6492V13.6267V13.6043V13.5819V13.5596V13.5373V13.515V13.4928V13.4707V13.4486V13.4265V13.4045V13.3825C21.5969 13.3698 21.5968 13.3569 21.5966 13.3438V11.8285Z" fill="#7BC3F7"/>
</svg>
