<svg width="25" height="25" fill="none" xmlns="http://www.w3.org/2000/svg"><path d="M24.123 21.198a3.519 3.519 0 01-3.512 3.526H3.512A3.519 3.519 0 010 21.198V4.156A3.519 3.519 0 013.512.63h17.099a3.519 3.519 0 013.512 3.526v17.042z" fill="#C4C4C4"/><path d="M24 21.11a3.483 3.483 0 01-3.477 3.49H3.6a3.483 3.483 0 01-3.476-3.49V4.244A3.483 3.483 0 013.6.753h16.923A3.483 3.483 0 0124 4.244v16.868z" fill="#C4C4C4"/><path d="M12.048 4.231c-2.39 0-4.329 1.946-4.329 4.346 0 2.4 1.938 4.346 4.33 4.346 2.39 0 4.328-1.946 4.328-4.346 0-2.4-1.938-4.346-4.329-4.346zm0 6.143c-.988 0-1.79-.805-1.79-1.797 0-.992.802-1.796 1.79-1.796s1.79.804 1.79 1.796-.802 1.797-1.79 1.797zM13.576 16.381c1.733-.354 2.772-1.178 2.827-1.222a1.185 1.185 0 00.182-1.662 1.174 1.174 0 00-1.655-.182c-.01.008-1.118.862-2.94.863-1.823-.002-2.954-.855-2.965-.863a1.174 1.174 0 00-1.654.183 1.185 1.185 0 00.181 1.66c.056.045 1.137.89 2.92 1.237L7.987 19a1.185 1.185 0 00.03 1.67 1.17 1.17 0 001.665-.03l2.306-2.466 2.54 2.482c.46.462 1.205.46 1.665-.001.459-.462.458-1.21-.002-1.671l-2.616-2.603zM11.99 14.178c-.003 0 .002 0 0 0-.003 0 .002 0 0 0z" fill="#fff"/></svg>