<svg width="28" height="28" viewBox="0 0 28 28" fill="none" xmlns="http://www.w3.org/2000/svg">
<path fill-rule="evenodd" clip-rule="evenodd" d="M17.0625 5.68749C20.2037 8.82862 20.2037 13.9214 17.0625 17.0625C13.9214 20.2036 8.82863 20.2036 5.68751 17.0625C2.54638 13.9214 2.54638 8.82862 5.68751 5.68749C8.82863 2.54637 13.9214 2.54637 17.0625 5.68749ZM15.3122 7.43749C17.4869 9.61212 17.4869 13.1379 15.3122 15.3125C13.1376 17.4871 9.61184 17.4871 7.43722 15.3125C5.26259 13.1379 5.26259 9.61212 7.43722 7.43749C9.61184 5.26287 13.1376 5.26287 15.3122 7.43749Z" fill="#36A6F2"/>
<rect x="14.4375" y="16.1875" width="2.47488" height="9.89951" rx="1.23744" transform="rotate(-45 14.4375 16.1875)" fill="#36A6F2"/>
<circle cx="7" cy="14" r="7" fill="#36A6F2" fill-opacity="0.35"/>
</svg>
