<svg width="22" height="20" fill="none" xmlns="http://www.w3.org/2000/svg"><path d="M19.584 2.412a4.856 4.856 0 00-6.847 0L1.607 13.515c-.81.807-.81 2.12 0 2.928l1.956 1.952a2.08 2.08 0 002.935 0l8.645-8.624c.809-.807.809-2.12 0-2.928a2.08 2.08 0 00-2.935 0L7.601 11.44a.689.689 0 000 .976c.27.27.708.27.978 0l4.607-4.596a.69.69 0 11.978.976L5.52 17.419a.694.694 0 01-.978 0l-1.957-1.952a.69.69 0 010-.976l11.13-11.103a3.468 3.468 0 014.89 0 3.448 3.448 0 010 4.88l-7.091 7.075a.689.689 0 000 .976c.27.269.708.269.978 0l7.092-7.076a4.827 4.827 0 000-6.83z" fill="#000" stroke-width=".25"/></svg>