<svg width="16" height="14" fill="none" xmlns="http://www.w3.org/2000/svg"><path d="M8.654.955L16 2.932 13.047 14l-7.345-1.977L8.654.955z" fill="#fff"/><path fill-rule="evenodd" clip-rule="evenodd" d="M14.776 3.638L9.362 2.181l-2.437 9.136 5.414 1.457 2.437-9.136zM8.654.955L5.702 12.023 13.047 14 16 2.932 8.654.955z" fill="#318CCA"/><path d="M0 1.977L7.345 0l2.952 11.068-7.345 1.977L0 1.977z" fill="#fff"/><path fill-rule="evenodd" clip-rule="evenodd" d="M6.637 1.226L1.223 2.683 3.66 11.82l5.414-1.457-2.437-9.136zM0 1.977l2.952 11.068 7.345-1.977L7.345 0 0 1.977z" fill="#318CCA"/></svg>