<svg width="8" height="10" fill="none" xmlns="http://www.w3.org/2000/svg"><path fill-rule="evenodd" clip-rule="evenodd" d="M7.806 5.182A.665.665 0 007.333 5h-5.11V2.917c0-.46.173-.853.52-1.179A1.772 1.772 0 014 1.25c.49 0 .91.163 1.257.488.347.326.52.719.52 1.179 0 .113.045.21.133.293a.442.442 0 00.312.123h.445c.12 0 .224-.04.312-.123a.39.39 0 00.132-.293c0-.803-.304-1.49-.913-2.06C5.59.284 4.857 0 4 0c-.856 0-1.59.285-2.198.856-.609.57-.913 1.258-.913 2.06V5H.667a.666.666 0 00-.473.182.584.584 0 00-.194.443v3.75c0 .174.065.321.194.443.13.121.288.182.473.182h6.666c.186 0 .343-.06.473-.182A.585.585 0 008 9.375v-3.75a.584.584 0 00-.194-.443zM4.474 7.8a.66.66 0 00.356-.577c0-.368-.319-.667-.712-.667-.392 0-.71.299-.71.667a.66.66 0 00.355.578v.644h.711V7.8z" fill="#318CCA"/></svg>