<svg width="24" height="25" fill="none" xmlns="http://www.w3.org/2000/svg"><path fill-rule="evenodd" clip-rule="evenodd" d="M8.32.63h7.36C22.4.63 24 2.237 24 8.983v7.389c0 6.746-1.6 8.352-8.32 8.352H8.32C1.6 24.724 0 23.118 0 16.372V8.983C0 2.237 1.6.63 8.32.63z" fill="#C4C4C4"/><path fill-rule="evenodd" clip-rule="evenodd" d="M19.654 8.931c.111-.372 0-.646-.529-.646h-1.75c-.445 0-.65.237-.761.497 0 0-.89 2.178-2.151 3.592-.408.41-.593.54-.816.54-.111 0-.272-.13-.272-.502v-3.48c0-.448-.13-.647-.5-.647h-2.75c-.278 0-.445.208-.445.404 0 .424.63.521.695 1.713v2.587c0 .567-.102.67-.325.67-.593 0-2.036-2.188-2.892-4.69-.167-.487-.336-.684-.783-.684h-1.75c-.5 0-.6.237-.6.497 0 .465.593 2.773 2.762 5.826 1.447 2.084 3.484 3.214 5.338 3.214 1.112 0 1.25-.25 1.25-.683v-1.575c0-.502.105-.603.458-.603.26 0 .704.13 1.742 1.136 1.187 1.191 1.383 1.725 2.05 1.725h1.75c.5 0 .75-.25.606-.746-.158-.494-.725-1.21-1.476-2.059-.408-.484-1.02-1.005-1.205-1.265-.26-.335-.186-.484 0-.782 0 0 2.132-3.015 2.354-4.039z" fill="#fff"/></svg>