<svg width="76" height="43" fill="none" xmlns="http://www.w3.org/2000/svg"><path d="M11.027 4.39c.45-1.381 2.404-1.381 2.853 0l1.033 3.179a1.5 1.5 0 001.427 1.036h3.342c1.453 0 2.057 1.86.881 2.714l-2.703 1.964a1.5 1.5 0 00-.545 1.677l1.032 3.179c.45 1.382-1.132 2.53-2.308 1.677l-2.704-1.965a1.5 1.5 0 00-1.763 0l-2.704 1.965c-1.175.854-2.757-.295-2.308-1.677l1.033-3.179a1.5 1.5 0 00-.545-1.677L4.344 11.32c-1.175-.854-.571-2.714.882-2.714h3.342A1.5 1.5 0 009.995 7.57l1.032-3.178z" fill="#99D4FF"/><path d="M11.027 4.39c.45-1.381 2.404-1.381 2.853 0l1.033 3.179a1.5 1.5 0 001.427 1.036h3.341c1.454 0 2.058 1.86.882 2.714l-2.703 1.964a1.5 1.5 0 00-.545 1.677l1.032 3.179c.45 1.382-1.132 2.53-2.308 1.677l-3.19-2.319a1.5 1.5 0 01-.546-.75L9.808 9.07a1.5 1.5 0 010-.927l1.22-3.751z" fill="#8BCDFC"/><path d="M36.574 4.39c.449-1.381 2.404-1.381 2.853 0l1.032 3.179a1.5 1.5 0 001.427 1.036h3.342c1.453 0 2.057 1.86.882 2.714l-2.704 1.964a1.5 1.5 0 00-.545 1.677l1.033 3.179c.449 1.382-1.133 2.53-2.308 1.677l-2.704-1.965a1.5 1.5 0 00-1.764 0l-2.703 1.965c-1.176.854-2.757-.295-2.308-1.677l1.032-3.179a1.5 1.5 0 00-.545-1.677l-2.703-1.964c-1.176-.854-.572-2.714.881-2.714h3.342a1.5 1.5 0 001.427-1.036l1.033-3.178z" fill="#99D4FF"/><path d="M36.574 4.39c.449-1.381 2.404-1.381 2.853 0l1.032 3.179a1.5 1.5 0 001.427 1.036h3.342c1.453 0 2.057 1.86.882 2.714l-2.704 1.964a1.5 1.5 0 00-.545 1.677l1.033 3.179c.449 1.382-1.133 2.53-2.308 1.677l-3.191-2.319a1.5 1.5 0 01-.546-.75L35.355 9.07a1.5 1.5 0 010-.927l1.219-3.751z" fill="#8BCDFC"/><path d="M62.12 4.39c.449-1.381 2.404-1.381 2.853 0l1.032 3.179a1.5 1.5 0 001.427 1.036h3.342c1.453 0 2.057 1.86.882 2.714l-2.704 1.964a1.5 1.5 0 00-.545 1.677l1.033 3.179c.449 1.382-1.133 2.53-2.309 1.677l-2.703-1.965a1.5 1.5 0 00-1.764 0l-2.703 1.965c-1.176.854-2.758-.295-2.308-1.677l1.032-3.179a1.5 1.5 0 00-.545-1.677l-2.703-1.964c-1.176-.854-.572-2.714.881-2.714h3.342a1.5 1.5 0 001.427-1.036l1.032-3.178z" fill="#99D4FF"/><path d="M62.12 4.39c.449-1.381 2.404-1.381 2.853 0l1.032 3.179a1.5 1.5 0 001.427 1.036h3.342c1.453 0 2.057 1.86.882 2.714l-2.704 1.964a1.5 1.5 0 00-.545 1.677l1.033 3.179c.449 1.382-1.133 2.53-2.309 1.677l-3.535-2.569a.439.439 0 01-.16-.221l-2.54-7.96a1.5 1.5 0 01.003-.92l1.22-3.755z" fill="#8BCDFC"/><path d="M24.413 22.462c.45-1.382 2.405-1.382 2.854 0l1.032 3.178a1.5 1.5 0 001.427 1.037h3.342c1.453 0 2.057 1.859.882 2.713l-2.704 1.964a1.5 1.5 0 00-.545 1.677l1.033 3.179c.449 1.382-1.133 2.53-2.309 1.677l-2.703-1.965a1.5 1.5 0 00-1.764 0l-2.703 1.965c-1.176.854-2.758-.295-2.308-1.677l1.032-3.179a1.5 1.5 0 00-.545-1.677l-2.703-1.964c-1.176-.854-.572-2.713.881-2.713h3.342a1.5 1.5 0 001.427-1.037l1.032-3.178z" fill="#99D4FF"/><path d="M24.413 22.462c.45-1.382 2.405-1.382 2.854 0l1.032 3.178a1.5 1.5 0 001.427 1.037h3.342c1.453 0 2.057 1.86.881 2.713l-2.703 1.965a1.5 1.5 0 00-.545 1.677l1.033 3.178c.449 1.382-1.133 2.531-2.309 1.677l-3.19-2.319a1.5 1.5 0 01-.546-.75l-2.494-7.678a1.5 1.5 0 010-.927l1.218-3.751z" fill="#8BCDFC"/><path d="M49.96 22.462c.449-1.382 2.404-1.382 2.853 0l1.033 3.178a1.5 1.5 0 001.426 1.037h3.342c1.453 0 2.057 1.86.882 2.713l-2.704 1.965a1.5 1.5 0 00-.545 1.677l1.033 3.178c.45 1.382-1.133 2.531-2.308 1.677l-2.704-1.964a1.5 1.5 0 00-1.763 0L47.8 37.887c-1.175.854-2.757-.295-2.308-1.677l1.033-3.178a1.5 1.5 0 00-.545-1.677l-2.704-1.965c-1.176-.854-.571-2.713.882-2.713H47.5a1.5 1.5 0 001.426-1.037l1.033-3.178z" fill="#99D4FF"/><path d="M49.96 22.462c.45-1.382 2.404-1.382 2.853 0l1.033 3.178a1.5 1.5 0 001.427 1.037h3.342c1.453 0 2.057 1.86.881 2.713l-2.703 1.965a1.5 1.5 0 00-.545 1.677l1.033 3.178c.449 1.382-1.133 2.531-2.309 1.677l-3.535-2.569a.436.436 0 01-.16-.221l-2.54-7.96a1.5 1.5 0 01.003-.92l1.22-3.755z" fill="#8BCDFC"/></svg>