<svg width="71" height="75" viewBox="0 0 71 75" fill="none" xmlns="http://www.w3.org/2000/svg">
<circle cx="35.3828" cy="21.0688" r="21" fill="#FFB21C"/>
<path d="M35.6357 4.92529C31.7846 4.92529 28.6628 8.0471 28.6628 11.8981C28.6628 15.7492 31.7846 18.871 35.6357 18.871C39.4851 18.8672 42.6048 15.7476 42.6085 11.8981C42.6085 8.0471 39.4867 4.92529 35.6357 4.92529ZM35.6357 16.5467C33.0684 16.5467 30.9871 14.4655 30.9871 11.8981C30.9871 9.33083 33.0684 7.24958 35.6357 7.24958C38.203 7.24958 40.2843 9.33083 40.2843 11.8981C40.2843 14.4655 38.203 16.5467 35.6357 16.5467Z" fill="white"/>
<path d="M40.2844 20.0331H40.0101L39.7649 20.1551C37.1644 21.4499 34.1071 21.4499 31.5067 20.1551L31.2615 20.0331H30.9872C27.7797 20.0369 25.1803 22.6363 25.1765 25.8438V32.8166C25.1765 34.7422 26.7374 36.3031 28.6629 36.3031H42.6086C44.5342 36.3031 46.0951 34.7422 46.0951 32.8166V25.8438C46.0913 22.6363 43.4919 20.0369 40.2844 20.0331ZM43.7708 32.8166C43.7708 33.4584 43.2504 33.9788 42.6086 33.9788H28.6629C28.0211 33.9788 27.5008 33.4584 27.5008 32.8166V25.8438C27.5011 24.0146 28.915 22.4965 30.7397 22.3667C33.8448 23.8077 37.4269 23.8077 40.5319 22.3667C42.3565 22.4965 43.7705 24.0146 43.7708 25.8438V32.8166Z" fill="white"/>
<path d="M60.0407 43.2759C56.1897 43.2759 53.0679 46.3977 53.0679 50.2488C53.0679 54.0998 56.1897 57.2216 60.0407 57.2216C63.8918 57.2216 67.0136 54.0998 67.0136 50.2488C67.0098 46.3993 63.8902 43.2797 60.0407 43.2759ZM60.0407 54.8974C57.4734 54.8974 55.3922 52.8161 55.3922 50.2488C55.3922 47.6815 57.4734 45.6002 60.0407 45.6002C62.608 45.6002 64.6893 47.6815 64.6893 50.2488C64.6893 52.8161 62.608 54.8974 60.0407 54.8974Z" fill="#36A6F2"/>
<path d="M64.6894 58.3838H64.4151L64.1699 58.5C61.5695 59.7946 58.5122 59.7946 55.9117 58.5L55.6665 58.3838H55.3923C52.1847 58.3876 49.5853 60.987 49.5815 64.1945V71.1673C49.5815 73.0929 51.1424 74.6538 53.068 74.6538H67.0137C68.9392 74.6538 70.5001 73.0929 70.5001 71.1673V64.1945C70.4963 60.987 67.8969 58.3876 64.6894 58.3838ZM68.1758 71.1673C68.1758 71.8091 67.6555 72.3295 67.0137 72.3295H53.068C52.4262 72.3295 51.9058 71.8091 51.9058 71.1673V64.1945C51.9061 62.3653 53.32 60.8472 55.1447 60.7174C58.2498 62.1584 61.8318 62.1584 64.9369 60.7174C66.7616 60.8472 68.1755 62.3653 68.1758 64.1945V71.1673Z" fill="#36A6F2"/>
<path d="M11.2307 43.2759C7.37962 43.2759 4.25781 46.3977 4.25781 50.2488C4.25781 54.0998 7.37962 57.2216 11.2307 57.2216C15.0817 57.2216 18.2035 54.0998 18.2035 50.2488C18.1997 46.3993 15.0801 43.2797 11.2307 43.2759ZM11.2307 54.8974C8.66335 54.8974 6.5821 52.8161 6.5821 50.2488C6.5821 47.6815 8.66335 45.6002 11.2307 45.6002C13.798 45.6002 15.8792 47.6815 15.8792 50.2488C15.8792 52.8161 13.798 54.8974 11.2307 54.8974Z" fill="#36A6F2"/>
<path d="M15.8793 58.3838H15.6051L15.3599 58.5C12.7594 59.7946 9.70211 59.7946 7.10167 58.5L6.85646 58.3838H6.58219C3.37468 58.3876 0.775261 60.987 0.771484 64.1945V71.1673C0.771484 73.0929 2.33239 74.6538 4.25791 74.6538H18.2036C20.1291 74.6538 21.69 73.0929 21.69 71.1673V64.1945C21.6863 60.987 19.0868 58.3876 15.8793 58.3838ZM19.3658 71.1673C19.3658 71.8091 18.8454 72.3295 18.2036 72.3295H4.25791C3.61612 72.3295 3.09577 71.8091 3.09577 71.1673V64.1945C3.09606 62.3653 4.50995 60.8472 6.33466 60.7174C9.43976 62.1584 13.0218 62.1584 16.1269 60.7174C17.9516 60.8472 19.3655 62.3653 19.3658 64.1945V71.1673Z" fill="#36A6F2"/>
<path d="M26.305 14.9883C26.3012 14.9205 26.2912 14.8532 26.2747 14.7873C26.2747 14.7768 26.262 14.7698 26.2573 14.7582C26.2527 14.7466 26.2573 14.7385 26.2573 14.7292C26.2256 14.6727 26.189 14.6189 26.1481 14.5688C26.1104 14.5007 26.066 14.4365 26.0156 14.377C25.9469 14.3162 25.8708 14.2643 25.789 14.2225C25.7481 14.1878 25.7046 14.1562 25.6588 14.1283L21.0102 12.0051C20.4165 11.7613 19.7375 12.0451 19.4938 12.6388C19.2633 13.2002 19.5037 13.8446 20.0457 14.1179L22.4525 15.2184C13.3917 20.0676 7.73785 29.5128 7.74439 39.7896C7.74439 40.4314 8.26474 40.9517 8.90653 40.9517C9.54833 40.9517 10.0687 40.4314 10.0687 39.7896C10.0629 30.7404 14.8481 22.3644 22.6465 17.774L21.8063 19.53C21.5293 20.1077 21.772 20.8006 22.349 21.0791C22.5058 21.1557 22.6778 21.1955 22.8522 21.1953C23.2985 21.1947 23.705 20.9386 23.8982 20.5364L26.2224 15.6868C26.2224 15.6752 26.2224 15.6624 26.2317 15.6507C26.262 15.5713 26.283 15.4886 26.2945 15.4044C26.3144 15.3418 26.3292 15.2777 26.3387 15.2126C26.3347 15.1369 26.3236 15.0618 26.305 14.9883Z" fill="#36A6F2"/>
<path d="M45.2571 14.9883C45.2608 14.9205 45.2709 14.8532 45.2873 14.7873C45.2873 14.7768 45.3001 14.7698 45.3047 14.7582C45.3093 14.7466 45.3047 14.7385 45.3047 14.7292C45.3364 14.6727 45.373 14.6189 45.4139 14.5688C45.4516 14.5007 45.496 14.4365 45.5464 14.377C45.6151 14.3162 45.6913 14.2643 45.773 14.2225C45.8139 14.1878 45.8574 14.1562 45.9032 14.1283L50.5518 12.0051C51.1455 11.7613 51.8245 12.0451 52.0682 12.6388C52.2988 13.2002 52.0583 13.8446 51.5163 14.1179L49.1096 15.2184C58.1703 20.0676 63.8242 29.5128 63.8176 39.7896C63.8176 40.4314 63.2973 40.9517 62.6555 40.9517C62.0137 40.9517 61.4933 40.4314 61.4933 39.7896C61.4991 30.7404 56.7139 22.3644 48.9155 17.774L49.7557 19.53C50.0327 20.1077 49.79 20.8006 49.213 21.0791C49.0562 21.1557 48.8842 21.1955 48.7098 21.1953C48.2635 21.1947 47.8571 20.9386 47.6638 20.5364L45.3396 15.6868C45.3396 15.6752 45.3396 15.6624 45.3303 15.6507C45.3001 15.5713 45.279 15.4886 45.2675 15.4044C45.2476 15.3418 45.2328 15.2777 45.2234 15.2126C45.2273 15.1369 45.2385 15.0618 45.2571 14.9883Z" fill="#36A6F2"/>
</svg>
