<svg width="37" height="58" viewBox="0 0 37 58" fill="none" xmlns="http://www.w3.org/2000/svg">
<path d="M21.0794 26.4639V23.0532C21.0794 22.6003 20.712 22.2329 20.2591 22.2329H5.03247C4.57916 22.2329 4.21216 22.6003 4.21216 23.0532V26.4639C4.21216 26.9168 4.57916 27.2842 5.03247 27.2842H20.2591C20.712 27.2842 21.0794 26.9172 21.0794 26.4639ZM19.4388 25.6436H5.85278V23.8735H19.4388V25.6436Z" fill="#36A6F2" stroke="#36A6F2" stroke-width="0.903226"/>
<path d="M21.7903 48.502H32.3762C32.829 48.502 33.1965 48.1345 33.1965 47.6816V44.2705C33.1965 43.8176 32.829 43.4502 32.3762 43.4502H21.7903C21.337 43.4502 20.97 43.8176 20.97 44.2705V47.6816C20.97 48.1345 21.337 48.502 21.7903 48.502ZM22.6106 45.0908H31.5558V46.8613H22.6106V45.0908Z" fill="#36A6F2" stroke="#36A6F2" stroke-width="0.903226"/>
<path d="M32.3762 17.2637H5.03247C4.57916 17.2637 4.21216 17.6311 4.21216 18.084C4.21216 18.5373 4.57916 18.9043 5.03247 18.9043H32.3762C32.8291 18.9043 33.1965 18.5373 33.1965 18.084C33.1965 17.6311 32.8291 17.2637 32.3762 17.2637Z" fill="#36A6F2" stroke="#36A6F2" stroke-width="0.903226"/>
<path d="M14.9544 30.8809C14.9544 30.428 14.587 30.0605 14.1341 30.0605H5.03247C4.57916 30.0605 4.21216 30.428 4.21216 30.8809C4.21216 31.3342 4.57916 31.7012 5.03247 31.7012H14.1341C14.587 31.7012 14.9544 31.3342 14.9544 30.8809Z" fill="#36A6F2" stroke="#36A6F2" stroke-width="0.903226"/>
<path d="M12.6456 34.1987H5.03247C4.57916 34.1987 4.21216 34.5657 4.21216 35.019C4.21216 35.4719 4.57916 35.8394 5.03247 35.8394H12.6456C13.0989 35.8394 13.4659 35.4719 13.4659 35.019C13.4659 34.5657 13.0989 34.1987 12.6456 34.1987Z" fill="#36A6F2" stroke="#36A6F2" stroke-width="0.903226"/>
<path d="M12.6456 38.3367H5.03247C4.57916 38.3367 4.21216 38.7041 4.21216 39.157C4.21216 39.6103 4.57916 39.9773 5.03247 39.9773H12.6456C13.0989 39.9773 13.4659 39.6103 13.4659 39.157C13.4659 38.7041 13.0989 38.3367 12.6456 38.3367Z" fill="#36A6F2" stroke="#36A6F2" stroke-width="0.903226"/>
<path d="M32.3761 38.3367H28.5693C28.116 38.3367 27.749 38.7041 27.749 39.157C27.749 39.6103 28.116 39.9773 28.5693 39.9773H32.3761C32.829 39.9773 33.1964 39.6103 33.1964 39.157C33.1964 38.7041 32.829 38.3367 32.3761 38.3367Z" fill="#36A6F2" stroke="#36A6F2" stroke-width="0.903226"/>
<path d="M32.3761 34.1987H28.5693C28.116 34.1987 27.749 34.5662 27.749 35.019C27.749 35.4719 28.116 35.8394 28.5693 35.8394H32.3761C32.829 35.8394 33.1964 35.4719 33.1964 35.019C33.1964 34.5662 32.829 34.1987 32.3761 34.1987Z" fill="#36A6F2" stroke="#36A6F2" stroke-width="0.903226"/>
<path d="M32.3761 30.0605H28.5693C28.116 30.0605 27.749 30.428 27.749 30.8809C27.749 31.3342 28.116 31.7012 28.5693 31.7012H32.3761C32.829 31.7012 33.1964 31.3342 33.1964 30.8809C33.1964 30.428 32.829 30.0605 32.3761 30.0605Z" fill="#36A6F2" stroke="#36A6F2" stroke-width="0.903226"/>
<path d="M35.6807 20.2974C36.1336 20.2974 36.501 19.93 36.501 19.4771V1.82031C36.501 1.36743 36.1336 1 35.6807 1C33.0805 1 32.8626 4.28125 31.4356 4.28125C30.0095 4.28125 29.7941 1 27.1909 1C24.5916 1 24.3728 4.28125 22.9471 4.28125C21.5162 4.28125 21.3103 1 18.7024 1C16.103 1 15.8847 4.28125 14.4586 4.28125C13.0345 4.28125 12.8154 1 10.2147 1C7.61493 1 7.39703 4.28125 5.97089 4.28125C4.54004 4.28125 4.33539 1 1.72705 1C1.27374 1 0.906738 1.36743 0.906738 1.82031V56.1797C0.906738 56.6326 1.27374 57 1.72705 57C4.32684 57 4.54517 53.7188 5.97089 53.7188C7.40131 53.7188 7.60681 57 10.2147 57C12.8141 57 13.0324 53.7188 14.4586 53.7188C15.8894 53.7188 16.0949 57 18.7024 57C21.3022 57 21.5209 53.7188 22.9471 53.7188C24.3779 53.7188 24.583 57 27.1909 57C29.7911 57 30.009 53.7188 31.4356 53.7188C32.8622 53.7188 33.0775 57 35.6807 57C36.1336 57 36.501 56.6326 36.501 56.1797V22.5396C36.501 22.0863 36.1336 21.7193 35.6807 21.7193C35.2274 21.7193 34.8604 22.0863 34.8604 22.5396V54.9454C34.0414 54.04 33.4445 52.0781 31.4356 52.0781C28.8358 52.0781 28.6179 55.3594 27.1909 55.3594C25.7669 55.3594 25.5477 52.0781 22.9471 52.0781C20.3473 52.0781 20.1285 55.3594 18.7024 55.3594C17.272 55.3594 17.0665 52.0781 14.4586 52.0781C11.8588 52.0781 11.6404 55.3594 10.2147 55.3594C8.78345 55.3594 8.5788 52.0781 5.97089 52.0781C3.96326 52.0781 3.36682 54.0388 2.54736 54.9449V3.05505C3.36511 3.95953 3.96283 5.92188 5.97131 5.92188C8.57068 5.92188 8.789 2.64062 10.2147 2.64062C11.646 2.64062 11.8506 5.92188 14.4586 5.92188C17.0583 5.92188 17.2767 2.64062 18.7028 2.64062C20.1337 2.64062 20.3392 5.92188 22.9471 5.92188C25.5469 5.92188 25.7648 2.64062 27.1913 2.64062C28.6179 2.64062 28.8333 5.92188 31.436 5.92188C33.4445 5.92188 34.0418 3.95996 34.8604 3.05463V19.4771C34.8604 19.93 35.2274 20.2974 35.6807 20.2974Z" fill="#36A6F2" stroke="#36A6F2" stroke-width="0.903226"/>
<path d="M33.1965 10.3184C33.1965 9.86548 32.8291 9.49805 32.3762 9.49805H12.6456C12.1923 9.49805 11.8253 9.86548 11.8253 10.3184C11.8253 10.7717 12.1923 11.1387 12.6456 11.1387H31.5559V12.9092H5.85278V11.1387H9.58307C10.0364 11.1387 10.4034 10.7717 10.4034 10.3184C10.4034 9.86548 10.0364 9.49805 9.58307 9.49805H5.03247C4.57916 9.49805 4.21216 9.86548 4.21216 10.3184V13.7295C4.21216 14.1824 4.57916 14.5498 5.03247 14.5498H32.3762C32.8291 14.5498 33.1965 14.1824 33.1965 13.7295V10.3184Z" fill="#36A6F2" stroke="#36A6F2" stroke-width="0.903226"/>
</svg>
