<svg width="58" height="25" viewBox="0 0 58 25" fill="none" xmlns="http://www.w3.org/2000/svg">
<path d="M5 8C5 9.32292 5.11458 10.3125 5.34375 10.9688C5.58333 11.6146 5.96354 11.9375 6.48438 11.9375C7.48438 11.9375 7.98438 10.625 7.98438 8C7.98438 5.39583 7.48438 4.09375 6.48438 4.09375C5.96354 4.09375 5.58333 4.41667 5.34375 5.0625C5.11458 5.69792 5 6.67708 5 8ZM11.9219 7.96875C11.9219 10.3646 11.4583 12.1667 10.5312 13.375C9.60417 14.5729 8.24479 15.1719 6.45312 15.1719C4.73438 15.1719 3.40625 14.5573 2.46875 13.3281C1.53125 12.0885 1.0625 10.3021 1.0625 7.96875C1.0625 3.20833 2.85938 0.828125 6.45312 0.828125C8.21354 0.828125 9.5625 1.44792 10.5 2.6875C11.4479 3.91667 11.9219 5.67708 11.9219 7.96875ZM22.6719 1.15625L10 24H6.25L18.9219 1.15625H22.6719ZM21 17.125C21 18.4479 21.1146 19.4375 21.3438 20.0938C21.5833 20.7396 21.9635 21.0625 22.4844 21.0625C23.4844 21.0625 23.9844 19.75 23.9844 17.125C23.9844 14.5208 23.4844 13.2188 22.4844 13.2188C21.9635 13.2188 21.5833 13.5417 21.3438 14.1875C21.1146 14.8229 21 15.8021 21 17.125ZM27.9219 17.0938C27.9219 19.4792 27.4583 21.276 26.5312 22.4844C25.6042 23.6823 24.2448 24.2812 22.4531 24.2812C20.7344 24.2812 19.4062 23.6667 18.4688 22.4375C17.5312 21.1979 17.0625 19.4167 17.0625 17.0938C17.0625 12.3333 18.8594 9.95312 22.4531 9.95312C24.2135 9.95312 25.5625 10.5729 26.5 11.8125C27.4479 13.0417 27.9219 14.8021 27.9219 17.0938Z" fill="#36A6F2"/>
<path d="M5.34375 10.9688L5.10768 11.0512L5.10936 11.0557L5.34375 10.9688ZM5.34375 5.0625L5.10935 4.97554L5.10858 4.97768L5.34375 5.0625ZM10.5312 13.375L10.729 13.528L10.7296 13.5272L10.5312 13.375ZM2.46875 13.3281L2.26935 13.4789L2.26997 13.4797L2.46875 13.3281ZM10.5 2.6875L10.3006 2.83831L10.302 2.84017L10.5 2.6875ZM22.6719 1.15625L22.8905 1.27752L23.0964 0.90625H22.6719V1.15625ZM10 24V24.25H10.1472L10.2186 24.1213L10 24ZM6.25 24L6.03138 23.8787L5.82543 24.25H6.25V24ZM18.9219 1.15625V0.90625H18.7747L18.7033 1.03498L18.9219 1.15625ZM21.3438 20.0938L21.1077 20.1762L21.1094 20.1807L21.3438 20.0938ZM21.3438 14.1875L21.1093 14.1005L21.1086 14.1027L21.3438 14.1875ZM26.5312 22.4844L26.729 22.6374L26.7296 22.6366L26.5312 22.4844ZM18.4688 22.4375L18.2694 22.5883L18.27 22.5891L18.4688 22.4375ZM26.5 11.8125L26.3006 11.9633L26.302 11.9652L26.5 11.8125ZM4.75 8C4.75 9.3304 4.86435 10.3542 5.10773 11.0512L5.57977 10.8863C5.36482 10.2708 5.25 9.31543 5.25 8H4.75ZM5.10936 11.0557C5.23865 11.4042 5.41389 11.6881 5.64676 11.8859C5.88417 12.0875 6.16751 12.1875 6.48438 12.1875V11.6875C6.2804 11.6875 6.11322 11.626 5.97043 11.5048C5.82309 11.3796 5.68844 11.1791 5.57814 10.8818L5.10936 11.0557ZM6.48438 12.1875C6.7947 12.1875 7.07201 12.0836 7.30525 11.8795C7.5335 11.6798 7.70905 11.3937 7.843 11.0421C8.10952 10.3425 8.23438 9.3212 8.23438 8H7.73438C7.73438 9.3038 7.60923 10.2513 7.37575 10.8641C7.2597 11.1688 7.12275 11.3749 6.976 11.5033C6.83424 11.6273 6.67405 11.6875 6.48438 11.6875V12.1875ZM8.23438 8C8.23438 6.68912 8.10952 5.67538 7.84276 4.98069C7.70867 4.6315 7.53292 4.34737 7.30451 4.1491C7.07119 3.94657 6.79413 3.84375 6.48438 3.84375V4.34375C6.67462 4.34375 6.83506 4.40369 6.97674 4.52668C7.12333 4.65393 7.26008 4.85808 7.37599 5.15993C7.60923 5.76733 7.73438 6.70671 7.73438 8H8.23438ZM6.48438 3.84375C6.16751 3.84375 5.88417 3.94375 5.64676 4.14539C5.41389 4.34317 5.23865 4.62703 5.10936 4.97555L5.57814 5.14945C5.68844 4.85214 5.82309 4.65163 5.97043 4.52649C6.11322 4.40521 6.2804 4.34375 6.48438 4.34375V3.84375ZM5.10858 4.97768C4.86416 5.65539 4.75 6.6704 4.75 8H5.25C5.25 6.68377 5.36501 5.74044 5.57892 5.14732L5.10858 4.97768ZM11.6719 7.96875C11.6719 10.339 11.2121 12.0769 10.3329 13.2228L10.7296 13.5272C11.7045 12.2565 12.1719 10.3901 12.1719 7.96875H11.6719ZM10.3335 13.222C9.46274 14.3472 8.18331 14.9219 6.45312 14.9219V15.4219C8.30627 15.4219 9.74559 14.7987 10.729 13.528L10.3335 13.222ZM6.45312 14.9219C4.80235 14.9219 3.55199 14.3361 2.66753 13.1765L2.26997 13.4797C3.26051 14.7784 4.6664 15.4219 6.45312 15.4219V14.9219ZM2.66815 13.1773C1.77629 11.9981 1.3125 10.2736 1.3125 7.96875H0.8125C0.8125 10.3306 1.28621 12.179 2.26935 13.4789L2.66815 13.1773ZM1.3125 7.96875C1.3125 5.61284 1.75839 3.89157 2.60968 2.76391C3.45098 1.6495 4.71664 1.07812 6.45312 1.07812V0.578125C4.59586 0.578125 3.16621 1.19686 2.21063 2.46265C1.26505 3.7152 0.8125 5.56424 0.8125 7.96875H1.3125ZM6.45312 1.07812C8.14708 1.07812 9.41709 1.6701 10.3006 2.8383L10.6994 2.5367C9.70791 1.22573 8.28 0.578125 6.45312 0.578125V1.07812ZM10.302 2.84017C11.2035 4.0091 11.6719 5.70707 11.6719 7.96875H12.1719C12.1719 5.64709 11.6923 3.82423 10.698 2.53483L10.302 2.84017ZM22.4533 1.03498L9.78138 23.8787L10.2186 24.1213L22.8905 1.27752L22.4533 1.03498ZM10 23.75H6.25V24.25H10V23.75ZM6.46862 24.1213L19.1405 1.27752L18.7033 1.03498L6.03138 23.8787L6.46862 24.1213ZM18.9219 1.40625H22.6719V0.90625H18.9219V1.40625ZM20.75 17.125C20.75 18.4554 20.8643 19.4792 21.1077 20.1762L21.5798 20.0113C21.3648 19.3958 21.25 18.4404 21.25 17.125H20.75ZM21.1094 20.1807C21.2386 20.5292 21.4139 20.8131 21.6468 21.0109C21.8842 21.2125 22.1675 21.3125 22.4844 21.3125V20.8125C22.2804 20.8125 22.1132 20.751 21.9704 20.6298C21.8231 20.5046 21.6884 20.3041 21.5781 20.0068L21.1094 20.1807ZM22.4844 21.3125C22.7947 21.3125 23.072 21.2086 23.3053 21.0046C23.5335 20.8048 23.7091 20.5187 23.843 20.1671C24.1095 19.4675 24.2344 18.4462 24.2344 17.125H23.7344C23.7344 18.4288 23.6092 19.3763 23.3758 19.9891C23.2597 20.2938 23.1227 20.4999 22.976 20.6283C22.8342 20.7523 22.674 20.8125 22.4844 20.8125V21.3125ZM24.2344 17.125C24.2344 15.8141 24.1095 14.8004 23.8428 14.1057C23.7087 13.7565 23.5329 13.4724 23.3045 13.2741C23.0712 13.0716 22.7941 12.9688 22.4844 12.9688V13.4688C22.6746 13.4688 22.8351 13.5287 22.9767 13.6517C23.1233 13.7789 23.2601 13.9831 23.376 14.2849C23.6092 14.8923 23.7344 15.8317 23.7344 17.125H24.2344ZM22.4844 12.9688C22.1675 12.9688 21.8842 13.0687 21.6468 13.2704C21.4139 13.4682 21.2386 13.752 21.1094 14.1005L21.5781 14.2745C21.6884 13.9771 21.8231 13.7766 21.9704 13.6515C22.1132 13.5302 22.2804 13.4688 22.4844 13.4688V12.9688ZM21.1086 14.1027C20.8642 14.7804 20.75 15.7954 20.75 17.125H21.25C21.25 15.8088 21.365 14.8654 21.5789 14.2723L21.1086 14.1027ZM27.6719 17.0938C27.6719 19.4533 27.2122 21.1861 26.3329 22.3322L26.7296 22.6366C27.7044 21.366 28.1719 19.505 28.1719 17.0938H27.6719ZM26.3335 22.3314C25.4627 23.4566 24.1833 24.0312 22.4531 24.0312V24.5312C24.3063 24.5312 25.7456 23.908 26.729 22.6374L26.3335 22.3314ZM22.4531 24.0312C20.8024 24.0312 19.552 23.4455 18.6675 22.2859L18.27 22.5891C19.2605 23.8878 20.6664 24.5312 22.4531 24.5312V24.0312ZM18.6681 22.2867C17.7762 21.1073 17.3125 19.3879 17.3125 17.0938H16.8125C16.8125 19.4454 17.2863 21.2885 18.2694 22.5883L18.6681 22.2867ZM17.3125 17.0938C17.3125 14.7378 17.7584 13.0166 18.6097 11.8889C19.451 10.7745 20.7166 10.2031 22.4531 10.2031V9.70312C20.5959 9.70312 19.1662 10.3219 18.2106 11.5877C17.2651 12.8402 16.8125 14.6892 16.8125 17.0938H17.3125ZM22.4531 10.2031C24.1471 10.2031 25.4171 10.7951 26.3006 11.9633L26.6994 11.6617C25.7079 10.3507 24.28 9.70312 22.4531 9.70312V10.2031ZM26.302 11.9652C27.2035 13.1341 27.6719 14.8321 27.6719 17.0938H28.1719C28.1719 14.7721 27.6923 12.9492 26.698 11.6598L26.302 11.9652Z" fill="#36A6F2"/>
<path d="M34 8C34 9.32292 34.1146 10.3125 34.3438 10.9688C34.5833 11.6146 34.9635 11.9375 35.4844 11.9375C36.4844 11.9375 36.9844 10.625 36.9844 8C36.9844 5.39583 36.4844 4.09375 35.4844 4.09375C34.9635 4.09375 34.5833 4.41667 34.3438 5.0625C34.1146 5.69792 34 6.67708 34 8ZM40.9219 7.96875C40.9219 10.3646 40.4583 12.1667 39.5312 13.375C38.6042 14.5729 37.2448 15.1719 35.4531 15.1719C33.7344 15.1719 32.4062 14.5573 31.4688 13.3281C30.5312 12.0885 30.0625 10.3021 30.0625 7.96875C30.0625 3.20833 31.8594 0.828125 35.4531 0.828125C37.2135 0.828125 38.5625 1.44792 39.5 2.6875C40.4479 3.91667 40.9219 5.67708 40.9219 7.96875ZM51.6719 1.15625L39 24H35.25L47.9219 1.15625H51.6719ZM50 17.125C50 18.4479 50.1146 19.4375 50.3438 20.0938C50.5833 20.7396 50.9635 21.0625 51.4844 21.0625C52.4844 21.0625 52.9844 19.75 52.9844 17.125C52.9844 14.5208 52.4844 13.2188 51.4844 13.2188C50.9635 13.2188 50.5833 13.5417 50.3438 14.1875C50.1146 14.8229 50 15.8021 50 17.125ZM56.9219 17.0938C56.9219 19.4792 56.4583 21.276 55.5312 22.4844C54.6042 23.6823 53.2448 24.2812 51.4531 24.2812C49.7344 24.2812 48.4062 23.6667 47.4688 22.4375C46.5312 21.1979 46.0625 19.4167 46.0625 17.0938C46.0625 12.3333 47.8594 9.95312 51.4531 9.95312C53.2135 9.95312 54.5625 10.5729 55.5 11.8125C56.4479 13.0417 56.9219 14.8021 56.9219 17.0938Z" fill="#36A6F2"/>
<path d="M34.3438 10.9688L34.1077 11.0512L34.1094 11.0557L34.3438 10.9688ZM34.3438 5.0625L34.1093 4.97554L34.1086 4.97768L34.3438 5.0625ZM39.5312 13.375L39.729 13.528L39.7296 13.5272L39.5312 13.375ZM31.4688 13.3281L31.2694 13.4789L31.27 13.4797L31.4688 13.3281ZM39.5 2.6875L39.3006 2.83831L39.302 2.84017L39.5 2.6875ZM51.6719 1.15625L51.8905 1.27752L52.0964 0.90625H51.6719V1.15625ZM39 24V24.25H39.1472L39.2186 24.1213L39 24ZM35.25 24L35.0314 23.8787L34.8254 24.25H35.25V24ZM47.9219 1.15625V0.90625H47.7747L47.7033 1.03498L47.9219 1.15625ZM50.3438 20.0938L50.1077 20.1762L50.1094 20.1807L50.3438 20.0938ZM50.3438 14.1875L50.1093 14.1005L50.1086 14.1027L50.3438 14.1875ZM55.5312 22.4844L55.729 22.6374L55.7296 22.6366L55.5312 22.4844ZM47.4688 22.4375L47.2694 22.5883L47.27 22.5891L47.4688 22.4375ZM55.5 11.8125L55.3006 11.9633L55.302 11.9652L55.5 11.8125ZM33.75 8C33.75 9.3304 33.8643 10.3542 34.1077 11.0512L34.5798 10.8863C34.3648 10.2708 34.25 9.31543 34.25 8H33.75ZM34.1094 11.0557C34.2386 11.4042 34.4139 11.6881 34.6468 11.8859C34.8842 12.0875 35.1675 12.1875 35.4844 12.1875V11.6875C35.2804 11.6875 35.1132 11.626 34.9704 11.5048C34.8231 11.3796 34.6884 11.1791 34.5781 10.8818L34.1094 11.0557ZM35.4844 12.1875C35.7947 12.1875 36.072 12.0836 36.3053 11.8795C36.5335 11.6798 36.7091 11.3937 36.843 11.0421C37.1095 10.3425 37.2344 9.3212 37.2344 8H36.7344C36.7344 9.3038 36.6092 10.2513 36.3758 10.8641C36.2597 11.1688 36.1227 11.3749 35.976 11.5033C35.8342 11.6273 35.674 11.6875 35.4844 11.6875V12.1875ZM37.2344 8C37.2344 6.68912 37.1095 5.67538 36.8428 4.98069C36.7087 4.6315 36.5329 4.34737 36.3045 4.1491C36.0712 3.94657 35.7941 3.84375 35.4844 3.84375V4.34375C35.6746 4.34375 35.8351 4.40369 35.9767 4.52668C36.1233 4.65393 36.2601 4.85808 36.376 5.15993C36.6092 5.76733 36.7344 6.70671 36.7344 8H37.2344ZM35.4844 3.84375C35.1675 3.84375 34.8842 3.94375 34.6468 4.14539C34.4139 4.34317 34.2386 4.62703 34.1094 4.97555L34.5781 5.14945C34.6884 4.85214 34.8231 4.65163 34.9704 4.52649C35.1132 4.40521 35.2804 4.34375 35.4844 4.34375V3.84375ZM34.1086 4.97768C33.8642 5.65539 33.75 6.6704 33.75 8H34.25C34.25 6.68377 34.365 5.74044 34.5789 5.14732L34.1086 4.97768ZM40.6719 7.96875C40.6719 10.339 40.2121 12.0769 39.3329 13.2228L39.7296 13.5272C40.7045 12.2565 41.1719 10.3901 41.1719 7.96875H40.6719ZM39.3335 13.222C38.4627 14.3472 37.1833 14.9219 35.4531 14.9219V15.4219C37.3063 15.4219 38.7456 14.7987 39.729 13.528L39.3335 13.222ZM35.4531 14.9219C33.8024 14.9219 32.552 14.3361 31.6675 13.1765L31.27 13.4797C32.2605 14.7784 33.6664 15.4219 35.4531 15.4219V14.9219ZM31.6681 13.1773C30.7763 11.9981 30.3125 10.2736 30.3125 7.96875H29.8125C29.8125 10.3306 30.2862 12.179 31.2694 13.4789L31.6681 13.1773ZM30.3125 7.96875C30.3125 5.61284 30.7584 3.89157 31.6097 2.76391C32.451 1.6495 33.7166 1.07812 35.4531 1.07812V0.578125C33.5959 0.578125 32.1662 1.19686 31.2106 2.46265C30.2651 3.7152 29.8125 5.56424 29.8125 7.96875H30.3125ZM35.4531 1.07812C37.1471 1.07812 38.4171 1.6701 39.3006 2.8383L39.6994 2.5367C38.7079 1.22573 37.28 0.578125 35.4531 0.578125V1.07812ZM39.302 2.84017C40.2035 4.0091 40.6719 5.70707 40.6719 7.96875H41.1719C41.1719 5.64709 40.6923 3.82423 39.698 2.53483L39.302 2.84017ZM51.4533 1.03498L38.7814 23.8787L39.2186 24.1213L51.8905 1.27752L51.4533 1.03498ZM39 23.75H35.25V24.25H39V23.75ZM35.4686 24.1213L48.1405 1.27752L47.7033 1.03498L35.0314 23.8787L35.4686 24.1213ZM47.9219 1.40625H51.6719V0.90625H47.9219V1.40625ZM49.75 17.125C49.75 18.4554 49.8643 19.4792 50.1077 20.1762L50.5798 20.0113C50.3648 19.3958 50.25 18.4404 50.25 17.125H49.75ZM50.1094 20.1807C50.2386 20.5292 50.4139 20.8131 50.6468 21.0109C50.8842 21.2125 51.1675 21.3125 51.4844 21.3125V20.8125C51.2804 20.8125 51.1132 20.751 50.9704 20.6298C50.8231 20.5046 50.6884 20.3041 50.5781 20.0068L50.1094 20.1807ZM51.4844 21.3125C51.7947 21.3125 52.072 21.2086 52.3053 21.0046C52.5335 20.8048 52.7091 20.5187 52.843 20.1671C53.1095 19.4675 53.2344 18.4462 53.2344 17.125H52.7344C52.7344 18.4288 52.6092 19.3763 52.3758 19.9891C52.2597 20.2938 52.1227 20.4999 51.976 20.6283C51.8342 20.7523 51.674 20.8125 51.4844 20.8125V21.3125ZM53.2344 17.125C53.2344 15.8141 53.1095 14.8004 52.8428 14.1057C52.7087 13.7565 52.5329 13.4724 52.3045 13.2741C52.0712 13.0716 51.7941 12.9688 51.4844 12.9688V13.4688C51.6746 13.4688 51.8351 13.5287 51.9767 13.6517C52.1233 13.7789 52.2601 13.9831 52.376 14.2849C52.6092 14.8923 52.7344 15.8317 52.7344 17.125H53.2344ZM51.4844 12.9688C51.1675 12.9688 50.8842 13.0687 50.6468 13.2704C50.4139 13.4682 50.2386 13.752 50.1094 14.1005L50.5781 14.2745C50.6884 13.9771 50.8231 13.7766 50.9704 13.6515C51.1132 13.5302 51.2804 13.4688 51.4844 13.4688V12.9688ZM50.1086 14.1027C49.8642 14.7804 49.75 15.7954 49.75 17.125H50.25C50.25 15.8088 50.365 14.8654 50.5789 14.2723L50.1086 14.1027ZM56.6719 17.0938C56.6719 19.4533 56.2122 21.1861 55.3329 22.3322L55.7296 22.6366C56.7044 21.366 57.1719 19.505 57.1719 17.0938H56.6719ZM55.3335 22.3314C54.4627 23.4566 53.1833 24.0312 51.4531 24.0312V24.5312C53.3063 24.5312 54.7456 23.908 55.729 22.6374L55.3335 22.3314ZM51.4531 24.0312C49.8024 24.0312 48.552 23.4455 47.6675 22.2859L47.27 22.5891C48.2605 23.8878 49.6664 24.5312 51.4531 24.5312V24.0312ZM47.6681 22.2867C46.7762 21.1073 46.3125 19.3879 46.3125 17.0938H45.8125C45.8125 19.4454 46.2863 21.2885 47.2694 22.5883L47.6681 22.2867ZM46.3125 17.0938C46.3125 14.7378 46.7584 13.0166 47.6097 11.8889C48.451 10.7745 49.7166 10.2031 51.4531 10.2031V9.70312C49.5959 9.70312 48.1662 10.3219 47.2106 11.5877C46.2651 12.8402 45.8125 14.6892 45.8125 17.0938H46.3125ZM51.4531 10.2031C53.1471 10.2031 54.4171 10.7951 55.3006 11.9633L55.6994 11.6617C54.7079 10.3507 53.28 9.70312 51.4531 9.70312V10.2031ZM55.302 11.9652C56.2035 13.1341 56.6719 14.8321 56.6719 17.0938H57.1719C57.1719 14.7721 56.6923 12.9492 55.698 11.6598L55.302 11.9652Z" fill="#36A6F2"/>
</svg>
