<svg width="61" height="61" viewBox="0 0 61 61" fill="none" xmlns="http://www.w3.org/2000/svg">
<path d="M36.3171 30.6937C35.9798 30.3565 35.4323 30.3565 35.0946 30.6946C34.7574 31.0323 34.7574 31.5799 35.0955 31.9171L47.7564 44.5671C47.9189 44.7297 48.1391 44.8197 48.3674 44.8197C48.3872 44.8197 48.407 44.8193 48.4268 44.8179C48.6763 44.8004 48.9059 44.6761 49.0567 44.4771C52.1275 40.4198 53.7507 35.5809 53.7507 30.4826C53.7507 24.6445 51.5746 19.064 47.6222 14.7694C43.6941 10.501 38.3604 7.8674 32.6024 7.3532C32.1252 7.30997 31.7069 7.66208 31.6641 8.13755C31.6218 8.61303 31.973 9.03312 32.4485 9.07544C37.7773 9.55092 42.7139 11.9891 46.3498 15.9401C50.0072 19.915 52.0217 25.0799 52.0217 30.483C52.0217 34.8677 50.7249 39.0447 48.2607 42.6265L36.3171 30.6937Z" fill="#36A6F2" stroke="#36A6F2"/>
<path d="M29.3525 8.13742C29.3097 7.66194 28.8887 7.31074 28.4141 7.35307C24.0903 7.73939 19.9718 9.32881 16.5025 11.9498C16.303 12.1006 16.1788 12.3302 16.1612 12.5801C16.1441 12.8296 16.2359 13.0745 16.4129 13.251L32.2476 29.0718C32.4165 29.2406 32.6376 29.3248 32.8586 29.3248C33.0802 29.3248 33.3012 29.2402 33.4701 29.0713C33.8078 28.7336 33.8073 28.1861 33.4696 27.8489L18.3544 12.7467C21.3874 10.6679 24.898 9.4031 28.5681 9.07531C29.0436 9.03298 29.3948 8.61289 29.3525 8.13742Z" fill="#36A6F2" stroke="#36A6F2"/>
<path d="M12.5393 16.211C12.2899 16.229 12.0598 16.3538 11.9094 16.5541C8.87149 20.5975 7.26587 25.4139 7.26587 30.4829C7.26587 43.2878 17.6925 53.7055 30.5083 53.7055C35.5813 53.7055 40.4014 52.1012 44.4483 49.0665C44.6487 48.9156 44.7738 48.6855 44.7918 48.4356C44.8094 48.1858 44.7175 47.9404 44.5401 47.763L13.2115 16.4618C13.0346 16.2849 12.7897 16.1939 12.5393 16.211ZM30.5083 51.9765C18.6457 51.9765 8.99487 42.3346 8.99487 30.4829C8.99487 26.1266 10.2763 21.9716 12.71 18.4047L42.5964 48.265C39.0263 50.6964 34.8686 51.9765 30.5083 51.9765Z" fill="#36A6F2" stroke="#36A6F2"/>
<path d="M51.3737 9.63508C45.7999 4.06672 38.39 1 30.5082 1C22.6264 1 15.2165 4.06672 9.64273 9.63508C4.06942 15.2039 1 22.6075 1 30.483C1 37.9965 3.82988 45.1529 8.96779 50.6335C14.0809 56.0879 20.9933 59.3766 28.4312 59.8939C28.9075 59.9255 29.3204 59.5675 29.3533 59.0911C29.3866 58.6148 29.0273 58.2019 28.5509 58.169C21.5498 57.6823 15.0431 54.5863 10.229 49.4511C5.39273 44.292 2.729 37.5557 2.729 30.483C2.729 23.0699 5.61831 16.1004 10.8652 10.858C16.1121 5.61606 23.0879 2.729 30.5082 2.729C37.9285 2.729 44.9044 5.61606 50.1512 10.858C55.3981 16.1004 58.2874 23.0699 58.2874 30.483C58.2874 37.5557 55.6237 44.292 50.7874 49.4511C45.9733 54.5863 39.4666 57.6823 32.4655 58.169C31.9891 58.2023 31.6298 58.6152 31.6631 59.0916C31.6946 59.5472 32.0742 59.8957 32.5245 59.8957C32.5447 59.8957 32.565 59.8953 32.5853 59.8939C40.0231 59.3766 46.9355 56.0879 52.0486 50.6335C57.1865 45.1529 60.0164 37.9965 60.0164 30.483C60.0164 22.6075 56.947 15.2039 51.3737 9.63508Z" fill="#36A6F2" stroke="#36A6F2"/>
</svg>
