<svg width="24" height="23" viewBox="0 0 24 23" fill="none" xmlns="http://www.w3.org/2000/svg">
<path fill-rule="evenodd" clip-rule="evenodd" d="M12.082 3.6547C11.7203 3.04252 11.2785 2.506 10.7744 2.05728C9.65761 1.06314 8.23513 0.5 6.7003 0.5C3.28354 0.5 0.554525 3.29349 0.204887 7.14434C0.176039 7.31548 0.0629551 8.20919 0.407977 9.6699C0.905894 11.7765 2.0552 13.6925 3.73242 15.2068L12 22.7008V22.723L12.0703 22.7857L12.082 22.7751L12.0937 22.7857L12.1641 22.723V22.7008L20.4316 15.2068C22.1089 13.6925 23.2582 11.7765 23.7561 9.6699C24.1011 8.20919 23.988 7.31548 23.9592 7.14434C23.6095 3.29349 20.8805 0.5 17.4638 0.5C15.9289 0.5 14.5065 1.06314 13.3897 2.05728C12.8856 2.506 12.4438 3.04252 12.082 3.6547ZM12.082 20.0758L5.07561 13.7249L5.07269 13.7223C3.68352 12.468 2.75487 10.9042 2.35435 9.20986C2.09727 8.12132 2.17364 7.50655 2.1779 7.47221L2.17808 7.47078L2.18978 7.40136L2.19669 7.32519C2.47187 4.29441 4.51637 2.5 6.7003 2.5C8.18596 2.5 9.54811 3.2834 10.3719 4.69206L12.0784 7.61029L12.082 7.60426L12.0856 7.61029L13.7922 4.69206C14.616 3.2834 15.9781 2.5 17.4638 2.5C19.6477 2.5 21.6922 4.29441 21.9674 7.32519L21.9743 7.40136L21.986 7.47078L21.9862 7.47221C21.9904 7.50655 22.0668 8.12132 21.8097 9.20986C21.4092 10.9042 20.4805 12.468 19.0914 13.7223L19.0885 13.7249L12.082 20.0758Z" fill="#FF4E4E"/>
</svg>
