<svg width="24" height="25" fill="none" xmlns="http://www.w3.org/2000/svg"><path d="M16.85.63h-9.7C3.207.63 0 3.85 0 7.808v9.739c0 3.957 3.207 7.177 7.15 7.177h9.7c3.943 0 7.15-3.22 7.15-7.177V7.808C24 3.85 20.793.63 16.85.63zm4.736 16.917c0 2.625-2.12 4.753-4.736 4.753h-9.7c-2.615 0-4.736-2.128-4.736-4.753V7.808c0-2.625 2.12-4.754 4.736-4.754h9.7c2.615 0 4.736 2.129 4.736 4.754v9.739z" fill="#C4C4C4"/><path d="M12 6.446c-3.423 0-6.207 2.795-6.207 6.231S8.577 18.91 12 18.91s6.207-2.796 6.207-6.232c0-3.436-2.784-6.231-6.207-6.231zm0 10.04a3.8 3.8 0 01-3.793-3.809A3.8 3.8 0 0112 8.87a3.8 3.8 0 013.793 3.807A3.8 3.8 0 0112 16.485zM18.22 7.986a1.49 1.49 0 001.487-1.493 1.49 1.49 0 00-1.488-1.494 1.49 1.49 0 00-1.487 1.494 1.49 1.49 0 001.487 1.493z" fill="#C4C4C4"/></svg>