<svg width="8" height="10" viewBox="0 0 8 10" fill="none" xmlns="http://www.w3.org/2000/svg">
<path fill-rule="evenodd" clip-rule="evenodd" d="M7.80556 5.18227C7.67589 5.0607 7.51854 5.00002 7.33326 5.00002H2.22217V2.91671C2.22217 2.45656 2.39581 2.06382 2.74306 1.73828C3.09033 1.4128 3.50928 1.25003 4.00006 1.25003C4.49079 1.25003 4.90982 1.41278 5.25694 1.73828C5.60421 2.06382 5.77786 2.45658 5.77786 2.91671C5.77786 3.02952 5.82181 3.12716 5.90969 3.20962C5.99777 3.2921 6.10197 3.33335 6.22218 3.33335H6.66684C6.78712 3.33335 6.89128 3.2921 6.97935 3.20962C7.06706 3.12716 7.11119 3.02952 7.11119 2.91671C7.11119 2.11367 6.80677 1.42694 6.19805 0.856152C5.58923 0.285338 4.85652 0 4.00006 0C3.14352 0 2.41089 0.285338 1.80202 0.856129C1.19325 1.42685 0.888862 2.11364 0.888862 2.91669V5H0.666665C0.481537 5 0.324089 5.06082 0.194444 5.18224C0.0647984 5.30367 0 5.45132 0 5.62495V9.37501C0 9.5487 0.0648227 9.69628 0.194444 9.81778C0.324089 9.93921 0.481537 10 0.666665 10H7.33326C7.51854 10 7.67603 9.93921 7.80556 9.81778C7.93508 9.69628 8 9.5487 8 9.37501V5.62497C8.0001 5.45135 7.93525 5.30385 7.80556 5.18227ZM4.47414 7.79946C4.68658 7.68417 4.8295 7.46878 4.8295 7.22209C4.8295 6.8539 4.51113 6.55542 4.11839 6.55542C3.72565 6.55542 3.40727 6.8539 3.40727 7.22209C3.40727 7.46892 3.55036 7.68443 3.76302 7.79967V8.44439H4.47414V7.79946Z" fill="#318CCA"/>
</svg>
