<?xml version="1.0" standalone="no"?>
<!DOCTYPE svg PUBLIC "-//W3C//DTD SVG 1.1//EN" "http://www.w3.org/Graphics/SVG/1.1/DTD/svg11.dtd" >
<svg xmlns="http://www.w3.org/2000/svg">
<metadata>Generated by IcoMoon</metadata>
<defs>
<font id="icomoon" horiz-adv-x="1024">
<font-face units-per-em="1024" ascent="960" descent="-64" />
<missing-glyph horiz-adv-x="1024" />
<glyph unicode="&#x20;" horiz-adv-x="512" d="" />
<glyph unicode="&#xe900;" glyph-name="account" d="M507.318 935.424c-158.142 0-286.308-128.261-286.308-286.439 0-77.944 31.18-162.364 80.553-227.466 20.031-26.411 43.86-50.622 70.785-70.042-116.41-27.271-197.503-93.696-251.355-159.674-34.829-42.672-58.375-85.201-73.238-117.047-7.451-15.962-12.776-29.364-16.283-38.92-1.755-4.784-3.058-8.614-3.948-11.338-0.445-1.36-0.787-2.445-1.031-3.232l-0.292-0.963-0.092-0.307-0.033-0.111-0.013-0.045c-0.006-0.020-0.011-0.037 35.375-10.371l-35.386 10.334c-5.707-19.542 5.509-40.014 25.052-45.72 19.533-5.702 39.992 5.497 45.711 25.022l0.121 0.397c0.128 0.414 0.348 1.114 0.665 2.081 0.633 1.937 1.651 4.94 3.087 8.856 2.875 7.836 7.41 19.28 13.876 33.133 12.97 27.787 33.481 64.77 63.547 101.609 59.672 73.11 156.516 145.465 309.615 145.465 153.768 0 263.512-73.019 335.97-147.808 36.262-37.429 62.792-74.953 80.216-103.084 8.692-14.037 15.065-25.645 19.206-33.616 2.068-3.981 3.576-7.045 4.53-9.040 0.365-0.758 0.651-1.364 0.856-1.802l0.168-0.365 0.201-0.438 33.686 14.975c-33.686-14.975-33.681-14.991-33.673-15.004l0.008-0.020c8.286-18.571 30.052-26.923 48.64-18.657 18.604 8.27 26.98 30.056 18.706 48.66l-32.391-14.402c32.391 14.402 32.387 14.418 32.379 14.434l-0.020 0.041-0.045 0.098-0.131 0.291-0.418 0.922c-0.352 0.762-0.848 1.819-1.487 3.15-1.278 2.666-3.133 6.435-5.583 11.149-4.899 9.425-12.177 22.663-21.955 38.445-19.509 31.498-49.172 73.486-89.94 115.565-57.737 59.597-138.535 120.078-244.482 150.36 31.097 20.443 58.401 47.342 80.908 77.017 49.373 65.102 80.552 149.522 80.552 227.466 0 158.178-128.168 286.439-286.31 286.439zM294.738 648.985c0 117.495 95.194 212.711 212.58 212.711s212.582-95.216 212.582-212.711c0-59.893-24.662-128.973-65.569-182.913-41.116-54.211-93.79-87.22-147.014-87.22-53.219 0-105.896 33.010-147.011 87.22-40.909 53.94-65.569 123.021-65.569 182.913z" />
<glyph unicode="&#xe901;" glyph-name="arrow-left" horiz-adv-x="593" d="M547.382 48.424c21.59-21.596 21.59-56.606 0-78.201-21.596-21.596-56.608-21.596-78.202 0l-430.102 430.102c-12.362 12.363-17.647 29.119-15.856 45.24-1.782 16.113 3.504 32.859 15.859 45.213l430.102 430.102c21.595 21.594 56.606 21.594 78.199 0 21.596-21.595 21.596-56.606 0-78.2l-397.129-397.13 397.129-397.125z" />
<glyph unicode="&#xe902;" glyph-name="arrow-line-left" d="M315.792 122.747l-287.501 287.5c-17.642 17.643-17.642 46.247 0 63.889l287.501 287.502c17.642 17.643 46.247 17.643 63.889 0s17.642-46.247 0-63.889l-210.38-210.38h854.699v-90.353h-854.699l210.38-210.383c17.642-17.637 17.642-46.243 0-63.886s-46.247-17.643-63.889 0z" />
<glyph unicode="&#xe903;" glyph-name="arrow-line-right" d="M723.269 761.639l287.497-287.502c17.643-17.642 17.643-46.246 0-63.889l-287.497-287.501c-17.643-17.643-46.249-17.643-63.892 0s-17.643 46.249 0 63.892l210.378 210.378h-854.697v90.353h854.697l-210.378 210.38c-17.643 17.643-17.643 46.247 0 63.889s46.249 17.642 63.892 0z" />
<glyph unicode="&#xe904;" glyph-name="arrow-right" horiz-adv-x="593" d="M39.094 842.683c-21.594 21.594-21.594 56.606 0 78.2s56.606 21.594 78.2 0l430.104-430.102c12.358-12.361 17.645-29.119 15.856-45.241 1.779-16.112-3.509-32.857-15.861-45.216l-430.102-430.102c-21.595-21.59-56.606-21.59-78.201 0-21.594 21.596-21.594 56.606 0 78.201l397.13 397.131-397.127 397.127z" />
<glyph unicode="&#xe905;" glyph-name="box" horiz-adv-x="1354" d="M501.648 197.982c-27.975-18.197-58.5-10.352-74.247 19.076-4.77 8.929-14.759 9.695-22.293 1.688-7.538-7.984-9.778-21.699-5.001-30.631 11.816-22.092 29.194-36.084 48.865-41.138 19.674-5.057 41.634-1.169 62.646 12.489 8.483 5.523 13.14 18.62 10.385 29.247-2.752 10.65-11.865 14.792-20.354 9.269zM351.975 400.965c-17.53 4.506-36.586-2.378-50.966-18.415-8.343-9.302-9.686-24.325-2.996-33.557 6.69-9.236 18.874-9.19 27.229 0.119 6.005 6.696 12.334 5.962 14.779 5.331 2.448-0.628 8.218-3.092 10.382-11.796 4.506-18.168 20.014-15.010 23.796-13.229 10.313 4.866 16.387 18.673 13.563 30.842-4.879 20.985-18.257 36.203-35.787 40.706zM652.139 315.772c-17.53 4.506-36.587-2.378-50.965-18.415-8.344-9.302-9.688-24.325-2.999-33.557 6.692-9.236 18.875-9.19 27.232 0.119 6.005 6.696 12.331 5.962 14.779 5.331 2.448-0.628 8.218-3.092 10.379-11.796 4.509-18.168 20.018-15.010 23.8-13.229 10.313 4.866 16.387 18.673 13.56 30.842-4.876 20.985-18.254 36.203-35.784 40.706zM670.33 706.389l-315.012 84.38c-12.833 3.49-25.855-4.181-29.275-16.895-3.416-12.739 4.157-25.856 16.894-29.272l315.012-84.38c2.078-0.55 4.155-0.812 6.187-0.812 10.564 0 20.219 7.050 23.060 17.707 3.468 12.759-4.109 25.88-16.866 29.272zM740.801 671.262c0.885 1.244 1.625 2.605 2.748 3.657-1.1-1.076-1.84-2.414-2.748-3.657zM738.274 667.5c-0.552-1.22-0.694-2.581-1.031-3.919 0.337 1.314 0.479 2.675 1.031 3.919zM751.464 679.855c-1.718-0.644-3.128-1.72-4.611-2.725 1.483 0.982 2.894 2.058 4.611 2.725zM737.349-28.424c-4.255 12.496 2.411 26.069 14.911 30.324l31.615 10.778v627.988l-16.057-5.568c-12.523-4.348-26.095 2.27-30.4 14.744-0.978 2.843-1.268 5.735-1.169 8.578 0-0.262-0.145-0.503-0.145-0.764v-647.633l-498.202 127.135v406.848l-11.662-3.825-36.131-9.404v-412.167c0-10.92 7.408-20.43 17.995-23.156l545.999-139.323c1.959-0.502 3.941-0.74 5.903-0.74-9.992-0.017-19.288 6.246-22.657 16.186zM759.957-44.63c2.649 0 5.255 0.429 7.743 1.292h-0.023c-2.557-0.885-5.163-1.292-7.72-1.292zM200.569 823.182c1.626 1.123 3.248 2.27 5.115 2.963-1.914-0.691-3.49-1.817-5.115-2.963zM1202.457 815.805c-0.287 0.502-0.786 0.788-1.1 1.243 2.345-3.49 3.99-7.479 4.231-11.901 0.548-10.61-5.999-20.335-16.034-23.801l-18.736-6.5 124.575-217.559-341.583-118.315-95.47 137.672c-7.528 10.802-22.442 13.55-33.267 5.995-10.848-7.502-13.523-22.416-6.018-33.263l105.789-152.559c4.568-6.547 11.971-10.273 19.644-10.273 2.606 0 5.259 0.406 7.815 1.315l192.301 66.623v33.574c0 13.216 10.706 23.899 23.899 23.899 13.19 0 23.896-10.679 23.896-23.899v-17.015l145.87 50.52c6.712 2.342 12.067 7.528 14.551 14.217 2.484 6.643 1.886 14.075-1.648 20.265l-148.715 259.763zM1195.289 823.387c0.813-0.573 1.483-1.267 2.2-1.911-0.74 0.647-1.41 1.364-2.2 1.911zM1187.612 827c0.717-0.191 1.338-0.597 2.031-0.838-0.72 0.241-1.315 0.647-2.031 0.838zM1144.624 135.693l-360.775-123.022v-33.386c0-7.386-3.416-14.362-9.249-18.881-2.101-1.625-4.443-2.867-6.904-3.726l408.517 139.32c9.678 3.297 16.179 12.404 16.179 22.607v352.411l-47.794-16.562v-318.761h0.026zM783.836-20.741v33.386l-31.615-10.778c-12.496-4.251-19.165-17.828-14.911-30.324 3.392-9.943 12.665-16.202 22.607-16.202 2.557 0 5.163 0.406 7.72 1.292h0.023c2.461 0.836 4.806 2.078 6.907 3.729 5.853 4.562 9.269 11.538 9.269 18.898zM1168.506 511.921c-13.193 0-23.899-10.683-23.899-23.899v-33.577l47.794 16.559v17.018c0 13.213-10.706 23.899-23.896 23.899zM1197.485 821.451c1.434-1.291 2.748-2.749 3.871-4.421-1.123 1.673-2.392 3.107-3.871 4.421zM1189.64 826.161c1.985-0.694 3.898-1.552 5.639-2.772-1.718 1.196-3.634 2.058-5.639 2.772zM237.837 803.912v-17.324l380.104 124.742 477.937-111.886-343.78-119.223c-0.238-0.071-0.403-0.288-0.644-0.382 2.652 1.003 5.473 1.696 8.463 1.696 13.19 0 23.899-10.681 23.899-23.898v-16.989l386.963 134.182-9.847 17.18c-6.547 11.448-2.58 26.071 8.866 32.618 5.615 3.178 11.974 3.798 17.781 2.343-0.168 0.047-0.287 0.144-0.453 0.191l-564.838 132.224c-4.278 0.979-8.744 0.788-12.902-0.55l-402.903-132.221c-0.311-0.097-0.526-0.359-0.838-0.479 2.605 0.979 5.353 1.673 8.293 1.673 13.215 0 23.899-10.681 23.899-23.896zM743.566 674.907c0.955 0.908 2.197 1.482 3.297 2.222-1.103-0.741-2.342-1.314-3.297-2.222zM736.187 658.418c0.050 1.817 0.598 3.466 1.054 5.163-0.456-1.723-0.981-3.369-1.054-5.163zM740.818 671.258c-0.885-1.244-1.913-2.367-2.537-3.751 0.647 1.385 1.675 2.508 2.537 3.751zM237.841 786.6v17.324c0 13.215-10.707 23.899-23.898 23.899-2.94 0-5.689-0.694-8.293-1.673-1.864-0.694-3.49-1.84-5.115-2.963-6.189-4.325-10.489-11.136-10.489-19.262v-53.65l36.131 32.5 11.665 3.825zM759.943 681.548c-3.013 0-5.83-0.694-8.463-1.696-1.718-0.67-3.155-1.72-4.611-2.725-1.1-0.741-2.316-1.314-3.3-2.223-1.123-1.076-1.863-2.414-2.748-3.657s-1.886-2.367-2.534-3.751c-0.548-1.243-0.694-2.605-1.027-3.919-0.456-1.696-0.981-3.346-1.054-5.162-0.096-2.843 0.168-5.736 1.169-8.578 4.324-12.474 17.897-19.095 30.4-14.744l16.057 5.568v16.989c0.007 13.218-10.699 23.898-23.889 23.898zM1169.834 824.652c-11.446-6.547-15.413-21.173-8.866-32.621l9.847-17.18 18.736 6.5c10.035 3.49 16.582 13.191 16.034 23.801-0.238 4.422-1.889 8.388-4.231 11.901-1.123 1.673-2.415 3.131-3.871 4.422-0.717 0.67-1.41 1.361-2.2 1.911-1.744 1.193-3.657 2.078-5.639 2.772-0.694 0.238-1.292 0.644-2.031 0.838-5.807 1.482-12.162 0.861-17.778-2.343zM206.351 820.356c-0.239-0.497-9.010 2.795-13.229-5.88l-134.334-234.519c-2.566-6.649-2.039-14.085 1.416-20.282 3.461-6.236 9.534-10.56 16.524-11.868l550.162-137.437c2.666-0.515 5.348-0.515 7.921-0.126 7.588 1.156 14.349 5.952 17.877 13.114l130.157 222.119c5.791 11.853 0.902 26.195-10.953 31.981-11.835 5.839-26.165 0.88-31.985-10.931l-122.19-205.85-503.973 128.898 114.066 183.43 12.35 19.421c-10.444 1.918-43.046-4.692-44.098 5.88-0.426 4.407 8.498 18.247 10.29 22.049z" />
<glyph unicode="&#xe906;" glyph-name="boxes" horiz-adv-x="1189" d="M335.406 931.097c-20.043 0-36.525-15.767-36.525-35.493v-424.501h-233.451c-20.043 0-36.527-15.76-36.527-35.487v-459.994c0-19.727 16.482-35.493 36.527-35.493h1058.301c20.044 0 36.527 15.766 36.527 35.493v459.994c0 19.727-16.483 35.487-36.527 35.487h-233.452v424.501c0 19.726-16.48 35.493-36.524 35.493h-518.349zM371.933 471.103v389.009h99.731v-173.593c0-19.725 16.473-35.493 36.527-35.493h172.779c20.054 0 36.527 15.768 36.527 35.493v173.593h99.731v-389.009h-445.295zM544.712 722.011v138.1h99.738v-138.1h-99.738zM101.957 11.115v389.008h99.731v-173.601c0-19.724 16.482-35.493 36.527-35.493h172.786c20.044 0 36.527 15.77 36.527 35.493v173.601h110.526v-389.008h-456.097zM274.742 262.015v138.108h99.732v-138.108h-99.732zM631.108 11.115v389.008h99.731v-173.601c0-19.724 16.483-35.493 36.527-35.493h172.785c20.044 0 36.527 15.77 36.527 35.493v173.601h110.526v-389.008h-456.096zM803.893 262.015v138.108h99.731v-138.108h-99.731zM659.38 596.566c-20.044 0-36.524-15.77-36.524-35.493 0-19.727 16.48-35.493 36.524-35.493h86.389c20.044 0 36.527 15.766 36.527 35.493 0 19.724-16.483 35.493-36.527 35.493h-86.389zM929.349 136.582c-20.054 0-36.527-15.77-36.527-35.493 0-19.727 16.473-35.493 36.527-35.493h86.389c20.044 0 36.527 15.766 36.527 35.493 0 19.724-16.483 35.493-36.527 35.493h-86.389zM389.397 136.582c-20.044 0-36.527-15.77-36.527-35.493 0-19.727 16.483-35.493 36.527-35.493h86.396c20.044 0 36.527 15.766 36.527 35.493 0 19.724-16.483 35.493-36.527 35.493h-86.396z" />
<glyph unicode="&#xe907;" glyph-name="burger" horiz-adv-x="1205" d="M85.333 362.669h1034.040c47.128 0 85.333 38.205 85.333 85.333s-38.205 85.333-85.333 85.333h-1034.040c-47.128 0-85.333-38.205-85.333-85.333s38.205-85.333 85.333-85.333zM85.333-63.994h1034.040c47.128 0 85.333 38.205 85.333 85.333s-38.205 85.333-85.333 85.333h-1034.040c-47.128 0-85.333-38.205-85.333-85.333s38.205-85.333 85.333-85.333zM85.333 789.333h1034.040c47.128 0 85.333 38.205 85.333 85.333s-38.205 85.333-85.333 85.333h-1034.040c-47.128 0-85.333-38.205-85.333-85.333s38.205-85.333 85.333-85.333z" />
<glyph unicode="&#xe908;" glyph-name="calendar" d="M769.203 501.666c22.012 0 39.855 17.843 39.855 39.855s-17.843 39.855-39.855 39.855c-22.012 0-39.855-17.844-39.855-39.855s17.843-39.855 39.855-39.855zM860.868 880.29h-51.81v39.855c0 22.012-17.843 39.855-39.855 39.855s-39.855-17.843-39.855-39.855v-39.855h-181.342v39.855c0 22.012-17.843 39.855-39.855 39.855s-39.855-17.843-39.855-39.855v-39.855h-179.347v39.855c0 22.012-17.843 39.855-39.855 39.855s-39.855-17.843-39.855-39.855v-39.855h-49.819c-87.904 0-159.42-71.516-159.42-159.42v-621.738c0-87.906 71.516-159.42 159.42-159.42h304.891c22.012 0 39.855 17.843 39.855 39.855s-17.843 39.855-39.855 39.855h-304.891c-43.952 0-79.71 35.755-79.71 79.71v621.738c0 43.952 35.758 79.71 79.71 79.71h49.819v-39.855c0-22.012 17.843-39.855 39.855-39.855s39.855 17.843 39.855 39.855v39.855h179.347v-39.855c0-22.012 17.843-39.855 39.855-39.855s39.855 17.843 39.855 39.855v39.855h181.342v-39.855c0-22.012 17.843-39.855 39.855-39.855s39.855 17.843 39.855 39.855v39.855h51.81c43.955 0 79.71-35.758 79.71-79.71v-227.174c0-22.012 17.843-39.855 39.855-39.855s39.855 17.843 39.855 39.855v227.174c0 87.904-71.514 159.42-159.42 159.42zM595.836 501.666c22.012 0 39.855 17.843 39.855 39.855s-17.843 39.855-39.855 39.855c-22.012 0-39.855-17.844-39.855-39.855s17.843-39.855 39.855-39.855zM422.464 328.299c22.011 0 39.855 17.843 39.855 39.855s-17.843 39.855-39.855 39.855c-22.011 0-39.855-17.843-39.855-39.855s17.844-39.855 39.855-39.855zM249.095 501.666c22.011 0 39.855 17.843 39.855 39.855s-17.844 39.855-39.855 39.855c-22.012 0-39.855-17.844-39.855-39.855s17.844-39.855 39.855-39.855zM249.095 328.299c22.011 0 39.855 17.843 39.855 39.855s-17.844 39.855-39.855 39.855c-22.012 0-39.855-17.843-39.855-39.855s17.844-39.855 39.855-39.855zM249.095 154.927c22.011 0 39.855 17.843 39.855 39.855s-17.844 39.855-39.855 39.855c-22.012 0-39.855-17.843-39.855-39.855s17.844-39.855 39.855-39.855zM422.464 154.927c22.011 0 39.855 17.843 39.855 39.855s-17.843 39.855-39.855 39.855c-22.011 0-39.855-17.843-39.855-39.855s17.844-39.855 39.855-39.855zM422.464 501.666c22.011 0 39.855 17.843 39.855 39.855s-17.843 39.855-39.855 39.855c-22.011 0-39.855-17.844-39.855-39.855s17.844-39.855 39.855-39.855z" />
<glyph unicode="&#xe909;" glyph-name="car" horiz-adv-x="1682" d="M311.646 928.089c-35.796 0-65.023-28.863-65.023-64.543v-413.937c0-22.268 18.188-40.196 40.463-40.196 22.269 0 40.463 17.92 40.463 40.196v398.092h852.362v-398.099c0-22.268 18.191-40.192 40.466-40.192 22.268 0 40.463 17.916 40.463 40.192v8.514l254.672-0.004c15.865-0.113 30.241-6.601 40.635-17.009h-41.048c-22.272 0-40.466-17.92-40.466-40.196v-48.695c0-49.108 40.247-88.894 89.585-88.894h8.656v-65.704h-30.892c-25.176 57.253-82.757 97.397-149.687 97.397-53.895 0-101.731-26.032-131.463-66.063v123.264c0 22.272-18.187 40.196-40.463 40.196-22.268 0-40.463-17.92-40.463-40.196v-154.595h-448.41c-25.176 57.253-82.757 97.397-149.687 97.397s-124.515-40.141-149.691-97.397h-104.571v17.009h82.339c22.268 0 40.463 17.92 40.463 40.196 0 22.272-18.191 40.192-40.463 40.192h-221.042c-22.269 0-40.463-17.916-40.463-40.192s18.19-40.196 40.463-40.196h57.779v-32.856c0-35.679 29.228-64.541 65.024-64.541h107.675c8.057-81.96 77.901-146.092 162.487-146.092 84.582 0 154.43 64.132 162.487 146.092h485.511c8.057-81.96 77.901-146.092 162.487-146.092 84.582 0 154.43 64.132 162.487 146.092h58.558c22.268 0 40.463 17.92 40.463 40.196v243.489c0.004 64.841-45.378 119.205-106.16 133.756l-32.004 126.913c9.329 7.336 15.364 18.698 15.364 31.515v24.349c0 62.532-51.266 113.241-114.143 113.241h-156.017v32.858c0 35.68-29.228 64.543-65.024 64.543h-884.174zM755.185 793.268c-60.866 0-118.148-23.517-161.211-66.208-43.063-42.693-66.812-99.521-66.812-159.936 0-60.412 23.749-117.237 66.812-159.934 43.063-42.69 100.345-66.205 161.211-66.205 60.862 0 118.148 23.515 161.207 66.205 43.067 42.697 66.816 99.522 66.816 159.934 0 60.415-23.749 117.243-66.816 159.936-43.059 42.692-100.345 66.208-161.207 66.208zM1260.844 733.293v17.009h156.017c12.522 0 23.428-6.901 29.089-17.009h-185.106zM580.813 567.124c0 95.198 78.157 172.796 174.373 172.796 96.212 0 174.373-77.598 174.373-172.796 0-95.195-78.16-172.793-174.373-172.793-96.216 0-174.373 77.597-174.373 172.793zM755.182 713.5c-14.738 0-26.825-11.869-26.825-26.674v-119.68c0-7.102 2.845-13.893 7.885-18.889l60.357-59.842c5.244-5.197 12.116-7.786 18.944-7.786 6.824 0 13.7 2.589 18.944 7.786 10.511 10.427 10.511 27.355-0.004 37.778l-52.473 52.023v108.61c0 14.805-12.087 26.674-26.829 26.674zM1260.844 538.5v114.408h173.561l28.848-114.408h-202.408zM66.839 392.408c-22.269 0-40.464-17.92-40.464-40.196s18.19-40.196 40.464-40.196h294.724c22.269 0 40.463 17.92 40.463 40.196s-18.194 40.196-40.463 40.196h-294.724zM1555.566 352.212v8.507h17.313v-17.009h-8.656c-4.831 0-8.656 3.902-8.656 8.503zM778.291 295.003c-22.272 0-40.466-17.92-40.466-40.192 0-22.276 18.191-40.196 40.466-40.196h343.845c22.268 0 40.463 17.92 40.463 40.196 0 22.272-18.191 40.192-40.463 40.192h-343.845zM499.471 133.069c0 44.88 36.879 81.554 82.341 81.554s82.337-36.674 82.337-81.554c0-44.88-36.875-81.551-82.337-81.551s-82.341 36.67-82.341 81.551zM1309.963 133.069c0 44.88 36.879 81.554 82.337 81.554 45.462 0 82.341-36.674 82.341-81.554s-36.879-81.551-82.341-81.551c-45.458 0-82.337 36.67-82.337 81.551zM581.808 197.61c-35.792 0-65.020-28.862-65.020-64.545 0-35.679 29.228-64.541 65.020-64.541 35.796 0 65.024 28.862 65.024 64.541 0 35.683-29.228 64.545-65.024 64.545zM1392.3 197.61c-35.796 0-65.020-28.862-65.020-64.545 0-35.679 29.224-64.541 65.020-64.541s65.024 28.862 65.024 64.541c0 35.683-29.228 64.545-65.024 64.545z" />
<glyph unicode="&#xe90a;" horiz-adv-x="1170" d="M633 890.165l537.242-144.613-215.932-809.552-537.239 144.611 215.929 809.554z" />
<glyph unicode="&#xe90b;" horiz-adv-x="1170" d="M1080.759 693.892l-178.227-668.212-395.982 106.591 178.229 668.21 395.98-106.589zM633 890.165l-215.929-809.554 537.239-144.611 215.932 809.552-537.242 144.613z" />
<glyph unicode="&#xe90c;" horiz-adv-x="1170" d="M0 815.393l537.239 144.613 215.928-809.551-537.238-144.618-215.929 809.556z" />
<glyph unicode="&#xe90d;" horiz-adv-x="1170" d="M485.46 870.322l178.229-668.206-395.981-106.591-178.229 668.208 395.981 106.59zM0 815.393l215.929-809.556 537.238 144.618-215.928 809.551-537.239-144.613z" />
<glyph unicode="&#xe90e;" glyph-name="cart" horiz-adv-x="1202" d="M40.929 937.739h114.634c42.997 0 79.567-27.543 89.72-66.84l137.73-533.104h608.914l104.644 371.839h-711.535l-20.182 78.118h837.234l-130.088-462.57c-10.935-38.658-46.125-65.505-88.166-65.505h-592.543c-42.996 0-79.567 27.541-89.72 66.836l-137.73 533.108h-122.911c-23.052 0-40.929 18.084-40.929 39.059s17.877 39.059 40.929 39.059zM320.965 97.788c0-75.46 60.055-136.633 134.136-136.633 74.084 0 134.14 61.173 134.14 136.633 0 63.492-42.518 116.87-100.134 132.203h-68.008c-57.616-15.333-100.134-68.71-100.134-132.203zM783.275 97.788c0-75.46 60.055-136.633 134.14-136.633s134.14 61.173 134.14 136.633c0 33.796-12.048 64.726-32.002 88.576-0.089 0.085-0.174 0.165-0.249 0.24-0.138 0.142-0.263 0.307-0.378 0.508-17.475 20.582-40.875 35.791-67.504 42.879h-68.011c-57.616-15.333-100.134-68.71-100.134-132.203zM391.855 98.758c0 34.687 27.937 60.932 62.405 60.932 34.464 0 62.402-26.246 62.402-60.932 0-34.682-27.937-60.932-62.402-60.932-34.468 0-62.405 26.25-62.405 60.932zM856.848 98.758c0 34.687 27.937 60.932 62.406 60.932 34.464 0 62.402-26.246 62.402-60.932 0-34.682-27.937-60.932-62.402-60.932-34.469 0-62.406 26.25-62.406 60.932z" />
<glyph unicode="&#xe90f;" glyph-name="close" d="M717.835 741.529l62.42-62.42-499.364-499.364-62.42 62.42 499.364 499.364zM780.249 242.165l-62.42-62.42-499.364 499.364 62.42 62.42 499.364-499.364z" />
<glyph unicode="&#xe910;" glyph-name="cols" horiz-adv-x="1243" d="M0 960h365.714v-292.571h-365.714v292.571zM438.857 960h365.714v-292.571h-365.714v292.571zM1243.429 960h-365.714v-292.571h365.714v292.571zM0 594.286h365.714v-292.571h-365.714v292.571zM804.571 594.286h-365.714v-292.571h365.714v292.571zM877.714 594.286h365.714v-292.571h-365.714v292.571zM365.714 228.571h-365.714v-292.571h365.714v292.571zM438.857 228.571h365.714v-292.571h-365.714v292.571zM1243.429 228.571h-365.714v-292.571h365.714v292.571z" />
<glyph unicode="&#xe911;" glyph-name="cols-sm" horiz-adv-x="964" d="M385.506 919.294h-385.506v-385.506h385.506v385.506zM963.783 919.294h-385.503v-385.506h385.503v385.506zM0 341.034h385.506v-385.506h-385.506v385.506zM963.783 341.034h-385.503v-385.506h385.503v385.506z" />
<glyph unicode="&#xe912;" glyph-name="eye" horiz-adv-x="1575" d="M1565.373 490.84c-14.076 19.161-349.405 469.16-777.688 469.16-428.281 0-763.63-449.999-777.688-469.142-13.329-18.178-13.329-42.832 0-61.010 14.059-19.161 349.407-469.162 777.688-469.162 428.283 0 763.612 450.005 777.688 469.147 13.351 18.174 13.351 42.847 0 61.007zM787.685 64.063c-315.475 0-588.709 298.676-669.593 396.316 80.779 97.727 353.441 396.244 669.593 396.244 315.462 0 588.673-298.621 669.593-396.314-80.778-97.723-353.438-396.246-669.593-396.246zM785.443 770.062c-171.334 0-310.731-139.396-310.731-310.73s139.397-310.734 310.731-310.734c171.336 0 310.734 139.399 310.734 310.734s-139.398 310.73-310.734 310.73zM785.443 252.18c-114.229 0-207.152 92.926-207.152 207.152s92.926 207.152 207.152 207.152c114.228 0 207.152-92.926 207.152-207.152s-92.924-207.152-207.152-207.152z" />
<glyph unicode="&#xe913;" glyph-name="hand-slide" d="M322.427 890.359h-125.964l19.366 9.72 30.914 30.751c6.383 7.414 5.514 18.57-1.939 24.919-6.651 5.667-16.461 5.667-23.112 0l-71.066-70.693c-6.889-6.892-6.889-18.027 0-24.919l70.356-70.693c7.453-6.349 18.668-5.485 25.050 1.929 5.696 6.617 5.696 16.375 0 22.991l-30.203 30.575-19.366 10.074h125.964c9.812 0 17.767 7.913 17.767 17.673s-7.953 17.673-17.767 17.673zM700.241 854.836h125.965l-19.366-9.72-30.916-30.752c-6.383-7.414-5.513-18.57 1.941-24.919 6.652-5.667 16.461-5.667 23.113 0l71.066 70.693c6.886 6.893 6.886 18.027 0 24.919l-70.357 70.693c-7.454 6.349-18.667 5.485-25.050-1.929-5.696-6.616-5.696-16.374 0-22.991l30.204-30.575 19.366-10.074h-125.965c-9.813 0-17.766-7.913-17.766-17.673s7.953-17.673 17.766-17.673zM624.465 890.359h-88.832c-9.813 0-17.769-7.913-17.769-17.673s7.955-17.673 17.769-17.673h88.832c9.809 0 17.766 7.913 17.766 17.673s-7.953 17.673-17.766 17.673zM446.789 6.699h-35.533c-9.811 0-17.766-7.915-17.766-17.673 0-9.762 7.955-17.677 17.766-17.677h35.533c9.812 0 17.766 7.915 17.766 17.677 0 9.758-7.953 17.673-17.766 17.673zM819.904 93.641c0 0 0 0 0 1.417v48.951c-0.051 13.286 1.562 26.526 4.8 39.415l15.279 60.617c10.522 41.796 13.649 85.094 9.237 127.957l-17.766 111.518c-8.529 51.251-53.133 88.809-105.357 88.719h-12.791c-2.129-0.038-4.237-0.457-6.217-1.237-16.516 22.719-42.884 36.294-71.066 36.584h-11.55c-7.927 0.009-15.757-1.743-22.916-5.125-16.286 25.114-44.224 40.341-74.266 40.472h-9.416c-6.061-0.049-12.070-1.125-17.766-3.181v179.914c0 39.043-31.818 70.693-71.066 70.693h-3.376c-37.514 0.080-68.628-28.861-71.066-66.098l-25.584-400.832c-21.797 7.77-41.58 20.267-57.919 36.587l-15.99 15.906c-34.669 34.377-90.762 34.377-125.431 0l-10.127-9.724c-12.383-12.382-13.818-31.906-3.376-45.948l33.579-44.89c6.050-8.286 11.624-16.9 16.701-25.805l3.731-7.070c41.194-69.875 99.739-128.051 170.025-168.956 10.982-6.306 17.753-17.963 17.766-30.575v-47.893c-0.038-0.649-0.038-1.297 0-1.946-23.629-17.673-35.533-45.952-35.533-86.421v-53.022c0-9.758 7.955-17.673 17.766-17.673s17.766 7.915 17.766 17.673v53.022c0 50.897 19.898 70.69 71.066 70.69h319.796c53.299 0 71.066-17.673 71.066-70.69h-302.029c-9.812 0-17.766-7.915-17.766-17.673 0-9.762 7.955-17.677 17.766-17.677h302.029v-17.673c0-9.758 7.957-17.673 17.766-17.673 9.813 0 17.766 7.915 17.766 17.673v53.022c0 41.353-12.079 70.69-35.533 86.95zM807.825 251.819l-15.279-60.621c-4.668-15.334-7.415-31.185-8.175-47.189v-35.345c-11.652 2.662-23.573 4.028-35.533 4.066h-319.796c-11.961 0.013-23.887-1.353-35.533-4.066v34.108c0.165 25.421-13.402 48.973-35.533 61.683-64.828 37.687-118.845 91.298-156.878 155.699l-3.020 6.362c-5.956 10.027-12.481 19.699-19.543 28.988l-33.756 45.419 9.772 9.899c20.809 20.676 54.521 20.676 75.33 0l15.99-15.906c22.421-22.485 50.155-39.014 80.66-48.073l-2.31-37.291c-0.722-9.579 6.38-17.975 15.99-18.91h1.777c9.41-0.017 17.202 7.266 17.766 16.614l30.558 474.703c1.219 18.619 16.776 33.089 35.533 33.049h3.198c19.625 0 35.533-15.824 35.533-35.347v-300.446c0-9.762 7.955-17.673 17.766-17.673s17.767 7.91 17.767 17.673v70.693c0 9.76 7.955 17.673 17.766 17.673h9.416c26.752 0.263 49.553-19.246 53.3-45.597l8.35-62.916c1.25-8.785 8.849-15.287 17.766-15.198h2.487c9.728 1.259 16.593 10.125 15.33 19.802-0.017 0.115-0.034 0.23-0.051 0.346l-9.062 63.092c0 0 0 1.237 0 1.944 2.671 1.869 5.807 2.969 9.062 3.181h10.837c26.347 0.351 48.998-18.5 53.299-44.358l6.929-47.014c1.485-8.572 9.024-14.793 17.766-14.669h3.021c9.698 1.498 16.337 10.53 14.831 20.177-0.026 0.166-0.055 0.333-0.085 0.503l-7.817 47.010c0 1.061 0 2.121 0 3.181h4.087c35.319 0.424 65.591-25.022 71.066-59.735l17.766-110.635c3.913-38.485 1.088-77.35-8.35-114.876z" />
<glyph unicode="&#xe914;" glyph-name="heart" horiz-adv-x="1069" d="M537.912 797.286c-16.104 27.255-35.773 51.142-58.217 71.12-49.721 44.261-113.053 69.333-181.386 69.333-152.12 0-273.621-124.371-289.187-295.818-1.284-7.619-6.319-47.409 9.042-112.442 22.168-93.789 73.337-179.093 148.010-246.512l368.087-333.646v-0.988l3.13-2.792 0.521 0.472 0.521-0.472 3.134 2.792v0.988l368.083 333.646c74.676 67.419 125.845 152.723 148.013 246.512 15.36 65.033 10.325 104.823 9.042 112.442-15.569 171.447-137.069 295.818-289.187 295.818-68.336 0-131.664-25.072-181.386-69.333-22.443-19.978-42.113-43.865-58.221-71.12zM537.912 66.19l-312.067 282.869c-61.848 55.844-103.193 125.467-121.025 200.902-11.446 48.464-8.046 75.834-7.856 77.363l0.008 0.064 0.521 3.091 0.308 3.391c12.251 134.936 103.276 214.826 200.509 214.826 66.144 0 126.789-34.878 163.466-97.594l75.976-129.925 0.16 0.268 0.16-0.268 75.981 129.925c36.677 62.716 97.32 97.594 163.466 97.594 97.231 0 188.256-79.89 200.508-214.826l0.307-3.391 0.521-3.091 0.009-0.064c0.187-1.529 3.588-28.9-7.858-77.363-17.831-75.435-59.178-145.058-121.023-200.902l-0.129-0.116-311.942-282.753z" />
<glyph unicode="&#xe915;" glyph-name="heart-bold" horiz-adv-x="1062" d="M306.44 952.32c-163.384 0-288.235-133.242-304.508-306.533-2.060-13.572-5.697-54.668 9.084-117.327 22.296-94.455 73.68-179.94 148.029-247.163l0.029-0.027 368.729-334.662 375.023 334.59c74.32 67.311 125.709 152.804 148.036 247.269 14.856 62.992 10.972 104.168 9.072 117.179-16.198 173.365-141.1 306.674-304.5 306.674-88.284 0-170.098-39.15-226.801-104.005-55.47 65.31-134.758 104.005-222.194 104.005zM826.539 365.648l-298.113-265.967-292.973 265.853c-57.744 52.323-96.812 117.733-113.687 189.068-6.065 25.714-7.714 45.249-7.955 57.802-0.12 6.285 0.112 10.852 0.328 13.6 0.108 1.373 0.215 2.31 0.276 2.804l0.066 0.503 0.042 0.294 0.419 2.724 0.107 1.211c11.005 123.911 94.956 204.955 191.39 204.955 72.153 0 137.464-44.057 169.219-119.302l52.482-123.999 52.417 124.016c30.803 73.090 99.825 119.285 174.949 119.285 96.142 0 180.194-80.757 191.56-206.477l0.053-0.583 0.072-0.675 0.030-0.281 0.083-0.636 0.053-0.365 0.076-0.582c0.064-0.523 0.171-1.483 0.281-2.868 0.22-2.777 0.455-7.363 0.334-13.657-0.239-12.574-1.893-32.12-7.964-57.781-16.843-71.293-55.854-136.64-113.44-188.848l-0.106-0.095z" />
<glyph unicode="&#xe916;" glyph-name="heart-filled" d="M1022.285 676.142c-14.891 164.515-131.354 283.858-277.111 283.858-97.040 0-185.981-52.311-235.978-135.959-49.529 84.805-134.828 135.959-230.316 135.959-145.782 0-262.22-119.343-277.138-283.858-1.231-7.311-6.056-45.492 8.665-107.896 21.245-89.999 70.281-171.851 141.843-236.544l356.749-323.783 362.801 323.684c71.543 64.792 120.576 146.644 141.85 236.643 14.694 62.305 9.796 100.585 8.636 107.896z" />
<glyph unicode="&#xe917;" glyph-name="info" d="M0 448c0 282.308 229.692 512 512 512 282.31 0 512-229.692 512-512 0-282.31-229.69-512-512-512-282.308 0-512 229.69-512 512zM945.229 448c0 239.692-193.542 433.231-433.233 433.231-239.692 0-433.231-193.539-433.231-433.231s193.539-433.229 433.231-433.229c239.691 0 433.233 193.536 433.233 433.229zM472.614 684.307v-78.769h78.769v78.769h-78.769zM472.614 211.693v315.076h78.769v-315.076h-78.769z" />
<glyph unicode="&#xe918;" glyph-name="instagram" d="M718.946 960h-413.891c-168.208 0-305.055-136.847-305.055-305.055v-413.891c0-168.205 136.847-305.054 305.055-305.054h413.891c168.205 0 305.054 136.849 305.054 305.054v413.891c0 168.208-136.849 305.055-305.054 305.055zM920.986 241.054c0-111.582-90.458-202.039-202.039-202.039h-413.891c-111.583 0-202.041 90.458-202.041 202.039v413.891c0 111.585 90.458 202.041 202.041 202.041h413.891c111.582 0 202.039-90.456 202.039-202.041v-413.891zM512 712.844c-146.036 0-264.844-118.808-264.844-264.84 0-146.035 118.808-264.845 264.844-264.845s264.841 118.81 264.841 264.845c0 146.033-118.805 264.84-264.841 264.84zM512 286.174c-89.377 0-161.83 72.452-161.83 161.826 0 89.377 72.454 161.83 161.83 161.83 89.374 0 161.826-72.453 161.826-161.83 0-89.374-72.452-161.826-161.826-161.826zM777.357 647.394c35.051 0 63.462 28.413 63.462 63.462s-28.412 63.462-63.462 63.462c-35.046 0-63.462-28.413-63.462-63.462s28.416-63.462 63.462-63.462z" />
<glyph unicode="&#xe919;" glyph-name="magnifying-glass" d="M761.461 289.066l238.82-238.82c20.004-20.004 20.004-52.44 0-72.444l-18.084-18.084c-20.004-20.004-52.44-20.004-72.444 0l-238.82 238.82c-162.773-119.228-392.608-105.294-539.705 41.804-162.49 162.49-162.49 425.938 0 588.429s425.938 162.49 588.428 0c147.098-147.097 161.033-376.932 41.804-539.705zM629.111 330.87c112.493 112.492 112.493 294.88 0 407.372-112.492 112.494-294.88 112.494-407.374 0-112.493-112.492-112.493-294.88 0-407.372s294.882-112.493 407.374 0z" />
<glyph unicode="&#xe91a;" glyph-name="map-mark" horiz-adv-x="805" d="M391.682 948.881c-78.86 0-153.064-30.736-208.826-86.499-55.764-55.762-86.499-129.965-86.499-208.826 0-21.046 6.981-48.825 17.245-78.858 10.379-30.369 24.565-64.285 39.88-98.070 23.759-52.409 50.532-105.131 70.454-144.362v0c5.739-11.301 10.909-21.482 15.275-30.215 10.235-20.47 28.404-50.373 48.33-81.515-73.636-6.946-138.672-21.107-187.754-40.302-28.816-11.269-52.78-24.525-69.753-39.592-16.95-15.050-28.070-33.004-28.070-53.343 0-22.711 13.819-42.406 34.312-58.556 20.63-16.257 49.727-30.366 84.595-41.989 69.863-23.289 165.603-37.483 270.797-37.483 105.192 0 200.933 14.195 270.797 37.483 34.867 11.622 63.963 25.732 84.595 41.989 20.492 16.15 34.311 35.845 34.311 58.556 0 20.339-11.12 38.293-28.072 53.343-16.972 15.067-40.938 28.323-69.754 39.592-49.659 19.422-115.651 33.69-190.359 40.543 19.839 30.908 38.485 60.401 50.517 80.455 23.888 39.814 59.511 107.883 89.19 175.533 14.846 33.838 28.289 67.772 38.046 98.148 9.66 30.076 16.067 57.746 16.067 78.643 0 78.861-30.735 153.064-86.499 208.826-55.762 55.763-129.965 86.499-208.825 86.499zM158.783 137.884c41.699 14.297 98.59 24.842 163.684 29.282l0.085-0.127c15.77-23.657 30.552-45.334 41.389-61.096 5.417-7.882 9.852-14.29 12.934-18.727l3.562-5.12 1.256-1.797 10.284-14.692 9.899 14.994 4.523 6.866c2.916 4.428 7.122 10.823 12.286 18.693 10.33 15.74 24.496 37.383 39.846 60.996l0.102 0.158c66.031-4.347 123.748-14.967 165.925-29.428 23.557-8.075 41.582-17.12 53.472-26.431 12.054-9.438 16.048-17.674 16.048-24.159 0-7.122-4.864-16.352-19.585-26.792-14.404-10.218-36.037-19.917-63.868-28.267-55.508-16.652-132.923-27.129-218.951-27.129-86.026 0-163.44 10.476-218.947 27.129-27.831 8.35-49.466 18.049-63.87 28.267-14.721 10.44-19.584 19.671-19.584 26.792 0 6.485 3.994 14.721 16.045 24.159 11.891 9.311 29.914 18.354 53.467 26.429zM391.682 87.286l-9.989-6.988c0-0.002 0.002-0.002 9.989 6.988zM154.444 653.556c0 130.802 106.437 237.238 237.238 237.238s237.236-106.436 237.236-237.238c0-31.627-14.604-78.234-37.956-131.799-23.133-53.058-54.067-111.245-85.138-165.383-31.049-54.096-62.115-103.943-85.428-140.276-11.654-18.164-21.363-32.936-28.153-43.162l-0.561-0.846-0.563 0.846c-6.79 10.225-16.496 24.998-28.15 43.162-23.313 36.332-54.379 86.179-85.428 140.276-31.071 54.138-62.007 112.325-85.139 165.383-23.353 53.565-37.957 100.172-37.957 131.799zM220.921 733.539c36.152 36.152 94.966 36.155 131.118 0 10.435-10.435 10.435-27.353 0-37.785-5.215-5.218-12.066-7.829-18.893-7.829-6.829 0-13.675 2.611-18.89 7.829-15.309 15.309-40.236 15.309-55.547-0.002-10.433-10.433-27.352-10.43-37.787 0l-0.001 0.002c-10.434 10.433-10.435 27.352 0 37.785zM437.409 733.539c36.152 36.152 94.964 36.155 131.118 0 10.433-10.435 10.433-27.353 0-37.785-5.215-5.218-12.066-7.829-18.893-7.829-6.829 0-13.675 2.611-18.89 7.829-15.311 15.309-40.236 15.309-55.547-0.002-10.433-10.433-27.351-10.43-37.788 0v0.002c-10.435 10.433-10.435 27.352 0 37.785zM213.202 618.42c0 16.040 13.002 29.045 29.044 29.045h298.865c16.040 0 29.043-13.005 29.043-29.045 0-98.421-80.055-178.476-178.476-178.476s-178.475 80.055-178.475 178.476zM274.829 589.378c13.027-52.395 60.494-91.346 116.848-91.346s103.824 38.951 116.851 91.346h-233.699z" />
<glyph unicode="&#xe91b;" horiz-adv-x="1207" d="M548.217 452.228h292.992l157.378-150.682v150.682h66.728c46.881 0 85.146 38.268 85.146 85.146v315.712c0 46.878-38.265 85.147-85.146 85.147h-517.098c-46.877 0-85.146-38.268-85.146-85.147v-315.712c0-46.877 38.268-85.146 85.146-85.146z" />
<glyph unicode="&#xe91c;" horiz-adv-x="1207" d="M166.014-60.080c2.631-1.196 5.74-1.675 8.61-1.675 5.501 0 11.002 2.15 15.068 5.979l149.963 143.506h281.989c58.595 0 106.192 47.594 106.192 106.192v160.007c0 11.959-9.805 21.767-21.764 21.767s-21.767-9.808-21.767-21.767v-160.007c0-34.681-28.222-62.665-62.661-62.665h-290.839c-5.501 0-11.002-2.15-15.068-5.979l-119.588-114.326v98.304c0 11.959-9.806 21.764-21.765 21.764h-66.013c-34.68 0-62.664 28.222-62.664 62.665v313.318c0 34.681 28.223 62.903 62.664 62.903h256.635c11.96 0 21.764 9.805 21.764 21.764s-9.805 21.767-21.764 21.767h-256.635c-58.598 0-106.194-47.597-106.194-106.195v-313.318c0-58.598 47.596-106.192 106.194-106.192h44.487v-127.96c0-8.613 5.262-16.505 13.155-19.851z" />
<glyph unicode="&#xe91d;" horiz-adv-x="1207" d="M832.596 430.464l151.157-144.699c4.067-3.829 9.567-5.979 15.067-5.979 2.871 0 5.742 0.475 8.613 1.671 7.892 3.35 13.155 11.242 13.155 19.855v129.152h44.965c58.836 0 106.909 47.835 106.909 106.913v315.712c0 58.837-47.832 106.911-106.909 106.911h-517.336c-58.84 0-106.913-47.835-106.913-106.911v-315.712c0-58.836 47.835-106.913 106.913-106.913h284.379zM484.835 537.377v315.712c0 34.919 28.46 63.382 63.382 63.382h517.094c34.922 0 63.382-28.462 63.382-63.382v-315.712c0-34.918-28.46-63.382-63.382-63.382h-66.728c-11.959 0-21.764-9.805-21.764-21.764v-99.975l-120.784 115.522c-4.067 3.825-9.329 5.979-15.067 5.979h-292.751c-34.922 0-63.382 28.46-63.382 63.62z" />
<glyph unicode="&#xe91e;" horiz-adv-x="1207" d="M806.766 669.162c5.738 0 11.242 2.392 15.305 6.458 4.067 4.066 6.459 9.567 6.459 15.307s-2.392 11.241-6.459 15.307c-4.063 4.066-9.567 6.458-15.305 6.458-5.742 0-11.242-2.392-15.309-6.458s-6.459-9.567-6.459-15.307c0-5.74 2.392-11.241 6.459-15.307 4.067-4.305 9.567-6.458 15.309-6.458z" />
<glyph unicode="&#xe91f;" horiz-adv-x="1207" d="M887.603 669.162c5.742 0 11.242 2.392 15.309 6.458s6.459 9.567 6.459 15.307c0 5.74-2.392 11.241-6.459 15.307s-9.567 6.458-15.309 6.458c-5.738 0-11.242-2.392-15.305-6.458-4.067-4.066-6.459-9.567-6.459-15.307s2.392-11.241 6.459-15.307c3.825-4.305 9.567-6.458 15.305-6.458z" />
<glyph unicode="&#xe920;" horiz-adv-x="1207" d="M726.159 669.162c5.738 0 11.242 2.392 15.305 6.458 4.067 4.066 6.459 9.567 6.459 15.307s-2.392 11.241-6.459 15.307c-4.063 4.066-9.567 6.458-15.305 6.458-5.742 0-11.242-2.392-15.309-6.458s-6.459-9.567-6.459-15.307c0-5.74 2.392-11.241 6.459-15.307 4.067-4.305 9.567-6.458 15.309-6.458z" />
<glyph unicode="&#xe921;" glyph-name="ok" d="M875.661-58.739h-722.062c-81.908 0-148.307 66.398-148.307 148.305v716.867c0 81.908 66.401 148.307 148.307 148.307h722.062c81.907 0 148.309-66.401 148.309-148.307v-716.867c0-81.907-66.402-148.305-148.309-148.305zM329.354 622.263c0-102.007 82.691-184.708 184.698-184.708s184.695 82.701 184.695 184.708c0 102.004-82.688 184.698-184.695 184.698s-184.698-82.694-184.698-184.698zM437.7 622.26c0-42.166 34.185-76.353 76.352-76.353s76.348 34.187 76.348 76.353c0 42.166-34.18 76.35-76.348 76.35s-76.352-34.184-76.352-76.35zM579.264 290.59c73.941 15.066 118.251 50.082 120.597 51.959 21.636 17.353 25.109 48.96 7.757 70.601-17.348 21.636-48.951 25.114-70.592 7.761-0.461-0.367-47.718-36.621-125.478-36.676-0.009 0-0.021 0-0.034 0-0.004 0 0.021 0.004 0.043 0.004s0.034 0-0.013 0c-0.047 0-0.034 0-0.009 0 0.030 0 0.068-0.004 0.009-0.004-0.017 0-0.026 0-0.030 0-77.734 0.064-125.98 36.309-126.437 36.676-21.642 17.353-53.246 13.875-70.596-7.761-17.352-21.641-13.876-53.248 7.761-70.601 2.376-1.903 48.515-37.833 124.53-52.544l-105.941-110.716c-19.252-19.964-18.674-51.755 1.293-71.010 9.745-9.395 22.305-14.067 34.855-14.067 13.158 0 26.302 5.141 36.156 15.364l98.418 104.841 108.356-105.519c19.635-19.605 51.426-19.571 71.023 0.055s19.571 51.422-0.055 71.019l-111.612 110.618z" />
<glyph unicode="&#xe922;" glyph-name="rows" horiz-adv-x="1390" d="M146.286 960h-146.286v-146.286h146.286v146.286zM1389.714 960h-1170.286v-146.286h1170.286v146.286zM0 667.429h146.286v-146.286h-146.286v146.286zM1389.714 667.429h-1170.286v-146.286h1170.286v146.286zM0 374.857h146.286v-146.286h-146.286v146.286zM1389.714 374.857h-1170.286v-146.286h1170.286v146.286zM0 82.286h146.286v-146.286h-146.286v146.286zM1389.714 82.286h-1170.286v-146.286h1170.286v146.286z" />
<glyph unicode="&#xe923;" glyph-name="ruble" horiz-adv-x="996" d="M996.324 452.594c0-275.127-223.036-498.162-498.162-498.162s-498.162 223.036-498.162 498.162c0 275.128 223.035 498.163 498.162 498.163s498.162-223.035 498.162-498.163zM498.162 37.459c229.274 0 415.135 185.862 415.135 415.135s-185.862 415.136-415.135 415.136c-229.273 0-415.135-185.862-415.135-415.136s185.862-415.135 415.135-415.135zM521.058 710.851h-129.91v-358.853h-48.85v-58.188h48.85v-78.901h62.605v78.901h130.834v58.188h-130.834v55.766h54.895c63.402 0 112.521 13.37 146.961 40.512 34.761 27.443 52.044 66.549 52.044 116.899 0 48.272-15.562 84.903-47.029 109.366-31.337 24.36-78.015 36.309-139.566 36.309zM453.754 462.319v193.641h60.934c44.718 0 77.080-7.918 97.604-23.259 20.378-15.23 30.742-38.447 30.742-70.208 0-35.392-11.068-60.571-32.718-76.219-21.853-15.795-57.676-23.956-108.038-23.956h-48.524z" />
<glyph unicode="&#xe924;" glyph-name="sandglass" horiz-adv-x="614" d="M596.609 939.521l-589.294 7.136 2.134-171.348 46.69-0.566 1.597-127.812c0.758-72.821 32.79-142.096 87.154-190.043-53.393-46.873-83.724-115.618-82.685-188.448l1.588-127.075-46.689 0.565 2.141-171.356 589.36-7.253-2.142 171.362-46.691 0.565-1.595 127.792c-0.734 72.885-32.797 142.201-87.213 190.169 53.386 46.876 83.722 115.615 82.684 188.445l-1.586 127.075 46.689-0.566-2.142 171.358zM84.421 851.064l-0.219 18.071 437.453-5.4 0.219-18.071-437.453 5.399zM133.527 646.94l-1.583 127.085 344.196-4.376 1.597-127.832v-0.029c0.96-65.58-34.529-124.948-91.417-153.787l-65.273-33.213 65.618-34.857c57.985-30.495 94.989-91.121 95.659-156.745l1.586-127.122-344.114 4.245-1.592 127.813-0.001 0.088c-1.209 65.63 34.303 125.077 91.34 153.705l0.071 0.038 65.213 33.181-65.641 35.027c-57.983 30.498-94.988 91.124-95.659 156.748l-0.001 0.032zM94.198 46.358l-0.219 18.069 437.453-5.401 0.219-18.069-437.454 5.401z" />
<glyph unicode="&#xe925;" d="M624 752c-114.875 114.875-301.124 114.875-416 0s-114.876-301.126 0-416c114.875-114.875 301.125-114.875 416 0 114.878 114.875 114.878 301.125 0 416zM559.989 688c79.532-79.529 79.532-208.472 0-288-79.528-79.528-208.47-79.528-287.999 0s-79.529 208.471 0 288c79.529 79.529 208.471 79.529 287.999 0z" />
<glyph unicode="&#xe926;" d="M560 400c17.673 17.673 46.327 17.673 64 0l192-192c17.673-17.673 17.673-46.327 0-64s-46.327-17.673-64 0l-192 192c-17.673 17.673-17.673 46.327 0 64z" />
<glyph unicode="&#xe927;" d="M512 448c0-141.385-114.615-256-256-256s-256 114.615-256 256c0 141.385 114.615 256 256 256s256-114.615 256-256z" />
<glyph unicode="&#xe928;" glyph-name="sort" horiz-adv-x="1097" d="M265.527 930.857h-251.188v-107.006h251.188v107.006zM372.835 754.786h-358.495v-107.006h358.495v107.006zM14.339 578.677v-107.004h465.803v107.004h-465.803zM587.451 402.608h-573.111v-107.008h573.111v107.008zM14.339 226.501v-107.008h680.419v107.008h-680.419zM980.915 50.428h-966.576v-107.004h966.576v107.004zM948.22 860.411h-114.271v-487.62l-66.768 82.348-78.486-96.794 202.39-249.6 202.39 249.604-78.486 96.79-66.768-82.348v487.62z" />
<glyph unicode="&#xe929;" glyph-name="sqrt" horiz-adv-x="964" d="M0 919.294h963.765v-963.766h-963.765v963.766z" />
<glyph unicode="&#xe92a;" glyph-name="star" horiz-adv-x="945" d="M518.25 912.105l106.61-225.883c7.414-15.71 21.748-26.596 38.33-29.112l238.402-36.224c41.756-6.35 58.415-59.996 28.215-90.778l-172.508-175.824c-11.988-12.226-17.469-29.854-14.63-47.11l40.715-248.271c7.135-43.481-36.516-76.635-73.86-56.123l-213.22 117.209c-14.827 8.145-32.553 8.145-47.38 0l-213.22-117.209c-37.344-20.535-80.998 12.642-73.86 56.123l40.715 248.271c2.84 17.257-2.642 34.885-14.63 47.11l-172.504 175.824c-30.207 30.802-13.546 84.448 28.215 90.778l238.399 36.224c16.582 2.516 30.916 13.402 38.33 29.112l106.61 225.883c18.653 39.565 72.598 39.565 91.27 0z" />
<glyph unicode="&#xe92b;" glyph-name="stop" horiz-adv-x="1002" d="M853.436 449.49c0-192.525-156.073-348.596-348.596-348.596-192.525 0-348.596 156.071-348.596 348.596 0 192.523 156.071 348.595 348.596 348.595 192.523 0 348.596-156.072 348.596-348.595zM504.841 166.256c156.426 0 283.234 126.808 283.234 283.234s-126.808 283.234-283.234 283.234c-156.426 0-283.234-126.808-283.234-283.234s126.808-283.234 283.234-283.234zM412.541 573.725c-9.512 9.512-24.933 9.512-34.443 0-9.512-9.512-9.512-24.933 0-34.446l92.304-92.304-92.308-92.306c-9.51-9.512-9.51-24.933 0-34.446 9.512-9.51 24.933-9.51 34.446 0l92.306 92.308 92.304-92.304c9.512-9.512 24.933-9.512 34.446 0 9.51 9.51 9.51 24.931 0 34.443l-92.304 92.304 92.302 92.302c9.51 9.512 9.51 24.933 0 34.446-9.512 9.51-24.933 9.51-34.446 0l-92.302-92.302-92.304 92.304z" />
<glyph unicode="&#xe92c;" glyph-name="vk" d="M669.013 960h-314.027c-286.72 0-354.987-68.267-354.987-354.987v-314.027c0-286.72 68.267-354.987 354.987-354.987h314.027c286.72 0 354.987 68.267 354.987 354.987v314.027c0 286.72-68.267 354.987-354.987 354.987zM815.996 634.667c22.579 0 27.324-11.625 22.579-27.447-9.493-43.506-100.463-171.653-100.463-171.653-7.91-12.659-11.072-18.987 0-33.225 3.9-5.461 12.224-13.611 21.743-22.938 9.792-9.591 20.851-20.425 29.675-30.852 32.077-36.083 56.247-66.522 62.98-87.501 6.153-21.052-4.514-31.718-25.847-31.718h-74.667c-19.998 0-30.071 11.204-51.831 35.409-9.225 10.261-20.548 22.857-35.618 37.926-44.297 42.718-63.283 48.256-74.359 48.256-15.027 0-19.524-4.258-19.524-25.591v-66.961c0-18.372-5.871-29.039-53.333-29.039-79.104 0-166.035 48.026-227.735 136.619-92.551 129.732-117.865 227.821-117.865 247.598 0 11.074 4.267 21.117 25.6 21.117h74.667c19.083 0 26.26-8.352 33.417-29.028 36.518-106.379 98.091-199.341 123.404-199.341 9.493 0 13.845 4.369 13.845 28.476v109.955c-1.715 31.299-12.646 44.835-20.745 54.86-5.001 6.191-8.921 11.044-8.921 17.915 0 8.351 7.135 17.163 18.999 17.163h117.333c15.821 0 21.333-8.461 21.333-27.447v-147.922c0-15.821 6.869-21.359 11.614-21.359 9.493 0 17.404 5.538 34.807 22.938 53.79 60.122 91.759 152.673 91.759 152.673 4.749 11.074 13.5 21.117 32.486 21.117h74.667z" />
</font>
</defs>
</svg>
