<svg width="15" height="15" viewBox="0 0 15 15" fill="none" xmlns="http://www.w3.org/2000/svg">
<path d="M8.05448 0.742188C5.31491 0.742188 2.89721 2.32297 1.77139 4.71934L0.988242 3.09321L0 3.56921L1.62641 6.94526L5.00247 5.31875L4.52637 4.3307L2.76764 5.17778C3.71771 3.16543 5.75092 1.83908 8.05448 1.83908C11.2796 1.83908 13.9034 4.46295 13.9034 7.68807C13.9034 10.9132 11.2796 13.5372 8.05448 13.5372C6.15543 13.5372 4.36728 12.6094 3.27141 11.0555L2.37487 11.6878C3.67645 13.5326 5.79954 14.634 8.05448 14.634C11.8841 14.634 15 11.5181 15 7.68807C15 3.85808 11.8842 0.742188 8.05448 0.742188Z" fill="#C4C4C4"/>
<path d="M7.538 8.53203L5.67389 6.82582L4.74609 7.67904L7.53792 10.2344L12.6563 5.5491L11.7244 4.69727L7.538 8.53203Z" fill="#C4C4C4"/>
</svg>
