<svg width="88" height="88" viewBox="0 0 88 88" fill="none" xmlns="http://www.w3.org/2000/svg">
<g filter="url(#filter0_d)">
<path d="M40.3124 8.77476C41.6854 5.50772 46.3146 5.50771 47.6876 8.77476L54.7761 25.6421C55.3531 27.0152 56.6452 27.9539 58.1294 28.0784L76.3617 29.6077C79.8931 29.9039 81.3236 34.3066 78.6407 36.6219L64.7894 48.5758C63.6619 49.5489 63.1683 51.0678 63.5086 52.5178L67.6882 70.3303C68.4978 73.7804 64.7526 76.5014 61.7215 74.6653L46.0724 65.1859C44.7986 64.4142 43.2014 64.4142 41.9276 65.1859L26.2785 74.6653C23.2474 76.5014 19.5022 73.7804 20.3118 70.3303L24.4914 52.5178C24.8317 51.0678 24.3381 49.5489 23.2106 48.5758L9.35928 36.6219C6.67641 34.3066 8.10692 29.9039 11.6383 29.6077L29.8706 28.0784C31.3548 27.9539 32.6469 27.0152 33.2239 25.6421L40.3124 8.77476Z" fill="url(#paint0_linear)"/>
</g>
<path d="M50.6986 36.3639C50.6986 37.8396 50.2483 39.1092 49.3477 40.1725C48.447 41.225 47.145 41.99 45.4414 42.4674V42.5651C49.4128 43.0642 51.3984 44.9414 51.3984 48.1966C51.3984 50.4102 50.5195 52.1517 48.7617 53.4212C47.0148 54.6908 44.5842 55.3255 41.4701 55.3255C40.1897 55.3255 39.0015 55.2333 37.9056 55.0488C36.8205 54.8644 35.6432 54.528 34.3737 54.0397V48.7012C35.4154 49.2329 36.4733 49.6289 37.5475 49.8893C38.6326 50.1389 39.6309 50.2637 40.5423 50.2637C41.9529 50.2637 42.9783 50.0684 43.6185 49.6777C44.2695 49.2763 44.5951 48.6523 44.5951 47.806C44.5951 47.1549 44.4269 46.6558 44.0905 46.3086C43.7541 45.9505 43.2116 45.6847 42.4629 45.5111C41.7142 45.3266 40.7376 45.2344 39.5332 45.2344H38.0684V40.4004H39.5658C42.8318 40.4004 44.4648 39.5649 44.4648 37.8939C44.4648 37.2645 44.2207 36.798 43.7324 36.4941C43.255 36.1903 42.6094 36.0384 41.7956 36.0384C40.2765 36.0384 38.7031 36.5484 37.0755 37.5684L34.4062 33.2715C35.6649 32.4034 36.9507 31.7849 38.2637 31.416C39.5875 31.0471 41.1011 30.8626 42.8047 30.8626C45.2678 30.8626 47.1992 31.3509 48.599 32.3275C49.9987 33.304 50.6986 34.6495 50.6986 36.3639Z" fill="#66594D"/>
<path d="M49.3477 40.1725L50.1075 40.8227L50.1107 40.8188L49.3477 40.1725ZM45.4414 42.4674L45.1715 41.5045L44.4414 41.7092V42.4674H45.4414ZM45.4414 42.5651H44.4414V43.4473L45.3167 43.5573L45.4414 42.5651ZM48.7617 53.4212L48.1762 52.6105L48.1738 52.6123L48.7617 53.4212ZM37.9056 55.0488L37.738 56.0347L37.7396 56.035L37.9056 55.0488ZM34.3737 54.0397H33.3737V54.7265L34.0147 54.9731L34.3737 54.0397ZM34.3737 48.7012L34.8283 47.8105L33.3737 47.068V48.7012H34.3737ZM37.5475 49.8893L37.3119 50.8612L37.3234 50.8639L37.5475 49.8893ZM43.6185 49.6777L44.1394 50.5314L44.1434 50.5289L43.6185 49.6777ZM44.0905 46.3086L43.3616 46.9933L43.3669 46.9989L43.3723 47.0044L44.0905 46.3086ZM42.4629 45.5111L42.2236 46.4821L42.237 46.4852L42.4629 45.5111ZM38.0684 45.2344H37.0684V46.2344H38.0684V45.2344ZM38.0684 40.4004V39.4004H37.0684V40.4004H38.0684ZM43.7324 36.4941L43.1955 37.3378L43.2041 37.3432L43.7324 36.4941ZM37.0755 37.5684L36.2261 38.096L36.7558 38.9488L37.6065 38.4157L37.0755 37.5684ZM34.4062 33.2715L33.8385 32.4483L33.0538 32.9895L33.5568 33.7992L34.4062 33.2715ZM38.2637 31.416L37.9952 30.4527L37.9932 30.4533L38.2637 31.416ZM49.6986 36.3639C49.6986 37.6181 49.3227 38.6547 48.5846 39.5262L50.1107 40.8188C51.1738 39.5636 51.6986 38.0612 51.6986 36.3639H49.6986ZM48.5878 39.5224C47.8474 40.3877 46.737 41.0658 45.1715 41.5045L45.7113 43.4303C47.5529 42.9142 49.0467 42.0624 50.1075 40.8227L48.5878 39.5224ZM44.4414 42.4674V42.5651H46.4414V42.4674H44.4414ZM45.3167 43.5573C47.1853 43.7921 48.4407 44.3352 49.2222 45.074C49.9773 45.7879 50.3984 46.787 50.3984 48.1966H52.3984C52.3984 46.351 51.8267 44.784 50.5962 43.6206C49.392 42.4823 47.6689 41.8372 45.5661 41.5729L45.3167 43.5573ZM50.3984 48.1966C50.3984 50.097 49.6674 51.5336 48.1762 52.6105L49.3472 54.2319C51.3717 52.7698 52.3984 50.7233 52.3984 48.1966H50.3984ZM48.1738 52.6123C46.6583 53.7136 44.4628 54.3255 41.4701 54.3255V56.3255C44.7056 56.3255 47.3712 55.6679 49.3496 54.2302L48.1738 52.6123ZM41.4701 54.3255C40.2371 54.3255 39.1051 54.2367 38.0716 54.0627L37.7396 56.035C38.8979 56.2299 40.1422 56.3255 41.4701 56.3255V54.3255ZM38.0732 54.063C37.0667 53.8919 35.9542 53.5762 34.7327 53.1064L34.0147 54.9731C35.3323 55.4798 36.5744 55.8369 37.738 56.0347L38.0732 54.063ZM35.3737 54.0397V48.7012H33.3737V54.0397H35.3737ZM33.9191 49.5919C35.0263 50.157 36.1575 50.5813 37.3119 50.8612L37.7831 48.9175C36.7891 48.6765 35.8044 48.3087 34.8283 47.8105L33.9191 49.5919ZM37.3234 50.8639C38.4664 51.1268 39.541 51.2637 40.5423 51.2637V49.2637C39.7207 49.2637 38.7988 49.151 37.7717 48.9148L37.3234 50.8639ZM40.5423 51.2637C42 51.2637 43.2565 51.07 44.1394 50.5314L43.0976 48.8241C42.7001 49.0667 41.9058 49.2637 40.5423 49.2637V51.2637ZM44.1434 50.5289C45.1255 49.9233 45.5951 48.9551 45.5951 47.806H43.5951C43.5951 48.3496 43.4136 48.6292 43.0936 48.8266L44.1434 50.5289ZM45.5951 47.806C45.5951 46.9875 45.3812 46.2037 44.8087 45.6128L43.3723 47.0044C43.4726 47.1079 43.5951 47.3224 43.5951 47.806H45.5951ZM44.8193 45.6239C44.2911 45.0616 43.5298 44.7319 42.6888 44.5369L42.237 46.4852C42.8934 46.6374 43.2172 46.8395 43.3616 46.9933L44.8193 45.6239ZM42.7021 44.5401C41.8442 44.3287 40.7786 44.2344 39.5332 44.2344V46.2344C40.6967 46.2344 41.5842 46.3245 42.2237 46.482L42.7021 44.5401ZM39.5332 44.2344H38.0684V46.2344H39.5332V44.2344ZM39.0684 45.2344V40.4004H37.0684V45.2344H39.0684ZM38.0684 41.4004H39.5658V39.4004H38.0684V41.4004ZM39.5658 41.4004C41.2516 41.4004 42.6672 41.1901 43.6955 40.664C44.2242 40.3935 44.6778 40.0255 44.9965 39.5364C45.3186 39.042 45.4648 38.482 45.4648 37.8939H43.4648C43.4648 38.1413 43.407 38.3123 43.3208 38.4446C43.2312 38.582 43.0725 38.7362 42.7846 38.8835C42.1799 39.1929 41.1459 39.4004 39.5658 39.4004V41.4004ZM45.4648 37.8939C45.4648 36.9581 45.074 36.1511 44.2607 35.6451L43.2041 37.3432C43.3674 37.4448 43.4648 37.571 43.4648 37.8939H45.4648ZM44.2693 35.6505C43.5757 35.2091 42.7205 35.0384 41.7956 35.0384V37.0384C42.4983 37.0384 42.9343 37.1715 43.1955 37.3378L44.2693 35.6505ZM41.7956 35.0384C40.0448 35.0384 38.2895 35.6274 36.5445 36.721L37.6065 38.4157C39.1167 37.4693 40.5081 37.0384 41.7956 37.0384V35.0384ZM37.925 37.0407L35.2557 32.7438L33.5568 33.7992L36.2261 38.096L37.925 37.0407ZM34.974 34.0947C36.1528 33.2817 37.3393 32.7145 38.5342 32.3787L37.9932 30.4533C36.5621 30.8554 35.177 31.5252 33.8385 32.4483L34.974 34.0947ZM38.5321 32.3793C39.7506 32.0397 41.1711 31.8626 42.8047 31.8626V29.8626C41.0311 29.8626 39.4244 30.0544 37.9952 30.4527L38.5321 32.3793ZM42.8047 31.8626C45.1499 31.8626 46.8542 32.3295 48.0268 33.1476L49.1711 31.5073C47.5442 30.3723 45.3857 29.8626 42.8047 29.8626V31.8626ZM48.0268 33.1476C49.157 33.9361 49.6986 34.9746 49.6986 36.3639H51.6986C51.6986 34.3244 50.8404 32.6719 49.1711 31.5073L48.0268 33.1476Z" fill="url(#paint1_linear)"/>
<defs>
<filter id="filter0_d" x="5.96704" y="6.32446" width="76.0658" height="72.9318" filterUnits="userSpaceOnUse" color-interpolation-filters="sRGB">
<feFlood flood-opacity="0" result="BackgroundImageFix"/>
<feColorMatrix in="SourceAlpha" type="matrix" values="0 0 0 0 0 0 0 0 0 0 0 0 0 0 0 0 0 0 127 0"/>
<feOffset dy="2"/>
<feGaussianBlur stdDeviation="1"/>
<feColorMatrix type="matrix" values="0 0 0 0 0.925 0 0 0 0 0.4995 0 0 0 0 0 0 0 0 0.5 0"/>
<feBlend mode="normal" in2="BackgroundImageFix" result="effect1_dropShadow"/>
<feBlend mode="normal" in="SourceGraphic" in2="effect1_dropShadow" result="shape"/>
</filter>
<linearGradient id="paint0_linear" x1="44" y1="0" x2="44" y2="88" gradientUnits="userSpaceOnUse">
<stop offset="0.0791833" stop-color="#FFFF86"/>
<stop offset="0.835868" stop-color="#E08500"/>
</linearGradient>
<linearGradient id="paint1_linear" x1="43" y1="20" x2="43" y2="65" gradientUnits="userSpaceOnUse">
<stop stop-color="#EB5400"/>
<stop offset="1" stop-color="#FCF57B"/>
</linearGradient>
</defs>
</svg>
