<svg width="88" height="88" viewBox="0 0 88 88" fill="none" xmlns="http://www.w3.org/2000/svg">
<g filter="url(#filter0_d)">
<path d="M40.3124 8.77476C41.6854 5.50772 46.3146 5.50771 47.6876 8.77476L54.7761 25.6421C55.3531 27.0152 56.6452 27.9539 58.1294 28.0784L76.3617 29.6077C79.8931 29.9039 81.3236 34.3066 78.6407 36.6219L64.7894 48.5758C63.6619 49.5489 63.1683 51.0678 63.5086 52.5178L67.6882 70.3303C68.4978 73.7804 64.7526 76.5014 61.7215 74.6653L46.0724 65.1859C44.7986 64.4142 43.2014 64.4142 41.9276 65.1859L26.2785 74.6653C23.2474 76.5014 19.5022 73.7804 20.3118 70.3303L24.4914 52.5178C24.8317 51.0678 24.3381 49.5489 23.2106 48.5758L9.35928 36.6219C6.67641 34.3066 8.10692 29.9039 11.6383 29.6077L29.8706 28.0784C31.3548 27.9539 32.6469 27.0152 33.2239 25.6421L40.3124 8.77476Z" fill="url(#paint0_linear)"/>
</g>
<path d="M51.4961 55H34.2272V50.7682L40.0378 44.8926C41.6979 43.1565 42.783 41.9737 43.293 41.3444C43.803 40.7042 44.1556 40.1563 44.3509 39.7005C44.5571 39.2448 44.6602 38.7674 44.6602 38.2682C44.6602 37.6497 44.4594 37.1615 44.0579 36.8034C43.6565 36.4453 43.0922 36.2663 42.3652 36.2663C41.6165 36.2663 40.857 36.4833 40.0866 36.9173C39.327 37.3405 38.4644 37.9698 37.4987 38.8053L33.9668 34.6712C35.1929 33.5753 36.2237 32.7941 37.0592 32.3275C37.8947 31.85 38.8008 31.4865 39.7773 31.237C40.7648 30.9874 41.8715 30.8626 43.0977 30.8626C44.6385 30.8626 46.0111 31.1339 47.2155 31.6764C48.4308 32.219 49.3694 32.9948 50.0312 34.0039C50.704 35.0022 51.0404 36.1252 51.0404 37.373C51.0404 38.3062 50.921 39.1688 50.6823 39.9609C50.4544 40.753 50.0964 41.5343 49.6081 42.3047C49.1198 43.0642 48.4687 43.8672 47.6549 44.7135C46.852 45.5599 45.1322 47.1658 42.4954 49.5313V49.694H51.4961V55Z" fill="#666666"/>
<path d="M51.4961 55V56H52.4961V55H51.4961ZM34.2272 55H33.2272V56H34.2272V55ZM34.2272 50.7682L33.5162 50.0651L33.2272 50.3573V50.7682H34.2272ZM40.0378 44.8926L40.7488 45.5957L40.7547 45.5898L40.7605 45.5837L40.0378 44.8926ZM43.293 41.3444L44.0699 41.974L44.0751 41.9675L43.293 41.3444ZM44.3509 39.7005L43.4398 39.2884L43.4357 39.2974L43.4318 39.3066L44.3509 39.7005ZM40.0866 36.9173L40.5733 37.7909L40.5774 37.7886L40.0866 36.9173ZM37.4987 38.8053L36.7384 39.4549L37.392 40.22L38.153 39.5616L37.4987 38.8053ZM33.9668 34.6712L33.3004 33.9256L32.5713 34.5773L33.2065 35.3208L33.9668 34.6712ZM37.0592 32.3275L37.5468 33.2006L37.5554 33.1957L37.0592 32.3275ZM39.7773 31.237L39.5323 30.2675L39.5297 30.2681L39.7773 31.237ZM47.2155 31.6764L46.8048 32.5882L46.8078 32.5896L47.2155 31.6764ZM50.0312 34.0039L49.195 34.5524L49.202 34.5628L50.0312 34.0039ZM50.6823 39.9609L49.7248 39.6724L49.7213 39.6845L50.6823 39.9609ZM49.6081 42.3047L50.4493 42.8455L50.4527 42.84L49.6081 42.3047ZM47.6549 44.7135L46.9341 44.0204L46.9295 44.0253L47.6549 44.7135ZM42.4954 49.5312L41.8277 48.7869L41.4954 49.0849V49.5312H42.4954ZM42.4954 49.694H41.4954V50.694H42.4954V49.694ZM51.4961 49.694H52.4961V48.694H51.4961V49.694ZM51.4961 54H34.2272V56H51.4961V54ZM35.2272 55V50.7682H33.2272V55H35.2272ZM34.9382 51.4714L40.7488 45.5957L39.3267 44.1894L33.5162 50.0651L34.9382 51.4714ZM40.7605 45.5837C42.4162 43.8523 43.5299 42.6404 44.0699 41.974L42.516 40.7148C42.0361 41.3071 40.9797 42.4606 39.315 44.2015L40.7605 45.5837ZM44.0751 41.9675C44.6097 41.2964 45.0242 40.6682 45.2701 40.0944L43.4318 39.3066C43.287 39.6443 42.9962 40.112 42.5108 40.7213L44.0751 41.9675ZM45.262 40.1127C45.5266 39.5277 45.6602 38.9098 45.6602 38.2682H43.6602C43.6602 38.6249 43.5875 38.9618 43.4398 39.2884L45.262 40.1127ZM45.6602 38.2682C45.6602 37.4118 45.3706 36.6342 44.7236 36.0571L43.3923 37.5497C43.5482 37.6887 43.6602 37.8876 43.6602 38.2682H45.6602ZM44.7236 36.0571C44.0828 35.4856 43.2505 35.2663 42.3652 35.2663V37.2663C42.9339 37.2663 43.2301 37.405 43.3923 37.5497L44.7236 36.0571ZM42.3652 35.2663C41.4158 35.2663 40.4887 35.543 39.5957 36.0461L40.5774 37.7886C41.2252 37.4236 41.8173 37.2663 42.3652 37.2663V35.2663ZM39.5999 36.0438C38.7599 36.5117 37.8402 37.1876 36.8444 38.0491L38.153 39.5616C39.0887 38.7521 39.8941 38.1693 40.5733 37.7909L39.5999 36.0438ZM38.259 38.1558L34.7271 34.0217L33.2065 35.3208L36.7384 39.4549L38.259 38.1558ZM34.6332 35.4168C35.8376 34.3403 36.8051 33.6148 37.5468 33.2006L36.5717 31.4544C35.6424 31.9733 34.5482 32.8103 33.3004 33.9256L34.6332 35.4168ZM37.5554 33.1957C38.3093 32.7649 39.1312 32.4342 40.0249 32.2058L39.5297 30.2681C38.4703 30.5389 37.4802 30.9352 36.5631 31.4592L37.5554 33.1957ZM40.0224 32.2065C40.9154 31.9808 41.938 31.8626 43.0977 31.8626V29.8626C41.8051 29.8626 40.6141 29.994 39.5323 30.2675L40.0224 32.2065ZM43.0977 31.8626C44.5202 31.8626 45.7492 32.1127 46.8048 32.5882L47.6262 30.7647C46.2729 30.1551 44.7567 29.8626 43.0977 29.8626V31.8626ZM46.8078 32.5896C47.8669 33.0624 48.6488 33.7196 49.1951 34.5524L50.8674 33.4554C50.0899 32.27 48.9946 31.3756 47.6231 30.7633L46.8078 32.5896ZM49.202 34.5628C49.7592 35.3896 50.0404 36.3166 50.0404 37.373H52.0404C52.0404 35.9338 51.6488 34.6147 50.8605 33.4451L49.202 34.5628ZM50.0404 37.373C50.0404 38.2208 49.932 38.985 49.7248 39.6724L51.6398 40.2495C51.91 39.3527 52.0404 38.3916 52.0404 37.373H50.0404ZM49.7213 39.6845C49.5223 40.376 49.2062 41.0708 48.7634 41.7694L50.4527 42.84C50.9865 41.9978 51.3865 41.13 51.6433 40.2374L49.7213 39.6845ZM48.7669 41.7639C48.3223 42.4555 47.7155 43.2077 46.9341 44.0204L48.3758 45.4067C49.222 44.5266 49.9173 43.673 50.4493 42.8454L48.7669 41.7639ZM46.9295 44.0253C46.1589 44.8375 44.4697 46.4167 41.8277 48.7869L43.1632 50.2756C45.7947 47.9149 47.545 46.2823 48.3804 45.4018L46.9295 44.0253ZM41.4954 49.5312V49.694H43.4954V49.5312H41.4954ZM42.4954 50.694H51.4961V48.694H42.4954V50.694ZM50.4961 49.694V55H52.4961V49.694H50.4961Z" fill="url(#paint1_linear)"/>
<defs>
<filter id="filter0_d" x="5.96704" y="6.32446" width="76.0658" height="72.9318" filterUnits="userSpaceOnUse" color-interpolation-filters="sRGB">
<feFlood flood-opacity="0" result="BackgroundImageFix"/>
<feColorMatrix in="SourceAlpha" type="matrix" values="0 0 0 0 0 0 0 0 0 0 0 0 0 0 0 0 0 0 127 0"/>
<feOffset dy="2"/>
<feGaussianBlur stdDeviation="1"/>
<feColorMatrix type="matrix" values="0 0 0 0 0.721569 0 0 0 0 0.721569 0 0 0 0 0.721569 0 0 0 1 0"/>
<feBlend mode="normal" in2="BackgroundImageFix" result="effect1_dropShadow"/>
<feBlend mode="normal" in="SourceGraphic" in2="effect1_dropShadow" result="shape"/>
</filter>
<linearGradient id="paint0_linear" x1="44" y1="0" x2="44" y2="88" gradientUnits="userSpaceOnUse">
<stop offset="0.0791833" stop-color="#EBEBEB"/>
<stop offset="0.835868" stop-color="#939393"/>
</linearGradient>
<linearGradient id="paint1_linear" x1="43" y1="20" x2="43" y2="65" gradientUnits="userSpaceOnUse">
<stop stop-color="#9B9B9B"/>
<stop offset="1" stop-color="#E6E6E6"/>
</linearGradient>
</defs>
</svg>
