<svg width="88" height="88" viewBox="0 0 88 88" fill="none" xmlns="http://www.w3.org/2000/svg">
<g filter="url(#filter0_d)">
<path d="M40.3124 8.77476C41.6854 5.50772 46.3146 5.50771 47.6876 8.77476L54.7761 25.6421C55.3531 27.0152 56.6452 27.9539 58.1294 28.0784L76.3617 29.6077C79.8931 29.9039 81.3236 34.3066 78.6407 36.6219L64.7894 48.5758C63.6619 49.5489 63.1683 51.0678 63.5086 52.5178L67.6882 70.3303C68.4978 73.7804 64.7526 76.5014 61.7215 74.6653L46.0724 65.1859C44.7986 64.4142 43.2014 64.4142 41.9276 65.1859L26.2785 74.6653C23.2474 76.5014 19.5022 73.7804 20.3118 70.3303L24.4914 52.5178C24.8317 51.0678 24.3381 49.5489 23.2106 48.5758L9.35928 36.6219C6.67641 34.3066 8.10692 29.9039 11.6383 29.6077L29.8706 28.0784C31.3548 27.9539 32.6469 27.0152 33.2239 25.6421L40.3124 8.77476Z" fill="url(#paint0_linear)"/>
</g>
<path d="M47.5664 55H41.0397V42.4023C41.0397 40.8724 41.0723 39.4727 41.1374 38.2031C40.7359 38.6914 40.2368 39.2014 39.64 39.7331L36.9382 41.9629L33.6016 37.8613L41.7721 31.2044H47.5664V55Z" fill="#655547"/>
<path d="M47.5664 55V56H48.5664V55H47.5664ZM41.0397 55H40.0397V56H41.0397V55ZM41.1374 38.2031L42.1361 38.2543L42.2914 35.225L40.3649 37.568L41.1374 38.2031ZM39.64 39.7331L40.2765 40.5043L40.2911 40.4923L40.3052 40.4797L39.64 39.7331ZM36.9382 41.9629L36.1624 42.5939L36.7979 43.3752L37.5747 42.7341L36.9382 41.9629ZM33.6016 37.8613L32.9699 37.0861L32.1952 37.7172L32.8258 38.4924L33.6016 37.8613ZM41.7721 31.2044V30.2044H41.4163L41.1405 30.4292L41.7721 31.2044ZM47.5664 31.2044H48.5664V30.2044H47.5664V31.2044ZM47.5664 54H41.0397V56H47.5664V54ZM42.0397 55V42.4023H40.0397V55H42.0397ZM42.0397 42.4023C42.0397 40.8862 42.072 39.5038 42.1361 38.2543L40.1387 38.1519C40.0725 39.4415 40.0397 40.8586 40.0397 42.4023H42.0397ZM40.3649 37.568C40.0035 38.0076 39.5426 38.4806 38.9748 38.9864L40.3052 40.4797C40.931 39.9222 41.4683 39.3752 41.9098 38.8382L40.3649 37.568ZM39.0035 38.9618L36.3016 41.1916L37.5747 42.7341L40.2765 40.5043L39.0035 38.9618ZM37.7139 41.3318L34.3773 37.2303L32.8258 38.4924L36.1624 42.5939L37.7139 41.3318ZM34.2332 38.6366L42.4038 31.9797L41.1405 30.4292L32.9699 37.0861L34.2332 38.6366ZM41.7721 32.2044H47.5664V30.2044H41.7721V32.2044ZM46.5664 31.2044V55H48.5664V31.2044H46.5664Z" fill="url(#paint1_linear)"/>
<defs>
<filter id="filter0_d" x="5.96704" y="6.32446" width="76.0658" height="72.9318" filterUnits="userSpaceOnUse" color-interpolation-filters="sRGB">
<feFlood flood-opacity="0" result="BackgroundImageFix"/>
<feColorMatrix in="SourceAlpha" type="matrix" values="0 0 0 0 0 0 0 0 0 0 0 0 0 0 0 0 0 0 127 0"/>
<feOffset dy="2"/>
<feGaussianBlur stdDeviation="1"/>
<feColorMatrix type="matrix" values="0 0 0 0 0.745098 0 0 0 0 0.360784 0 0 0 0 0 0 0 0 0.35 0"/>
<feBlend mode="normal" in2="BackgroundImageFix" result="effect1_dropShadow"/>
<feBlend mode="normal" in="SourceGraphic" in2="effect1_dropShadow" result="shape"/>
</filter>
<linearGradient id="paint0_linear" x1="44" y1="0" x2="44" y2="88" gradientUnits="userSpaceOnUse">
<stop offset="0.0791833" stop-color="#FFCD96"/>
<stop offset="0.835868" stop-color="#C27C3E"/>
</linearGradient>
<linearGradient id="paint1_linear" x1="42" y1="20" x2="42" y2="65" gradientUnits="userSpaceOnUse">
<stop stop-color="#844914"/>
<stop offset="1" stop-color="#FDCA94"/>
</linearGradient>
</defs>
</svg>
