<!-- Generated by IcoMoon.io -->
<svg version="1.1" xmlns="http://www.w3.org/2000/svg" width="1024" height="1024" viewBox="0 0 1024 1024">
<title></title>
<g id="icomoon-ignore">
</g>
<path d="M507.318 24.576c-158.142 0-286.308 128.261-286.308 286.439 0 77.944 31.18 162.364 80.553 227.466 20.031 26.411 43.86 50.622 70.785 70.042-116.41 27.271-197.503 93.696-251.355 159.674-34.829 42.672-58.375 85.201-73.238 117.047-7.451 15.962-12.776 29.364-16.283 38.92-1.755 4.784-3.058 8.614-3.948 11.338-0.445 1.36-0.787 2.445-1.031 3.232l-0.292 0.963-0.092 0.307-0.033 0.111-0.013 0.045c-0.006 0.020-0.011 0.037 35.375 10.371l-35.386-10.334c-5.707 19.542 5.509 40.014 25.052 45.72 19.533 5.702 39.992-5.497 45.711-25.022l0.121-0.397c0.128-0.414 0.348-1.114 0.665-2.081 0.633-1.937 1.651-4.94 3.087-8.856 2.875-7.836 7.41-19.28 13.876-33.133 12.97-27.787 33.481-64.77 63.547-101.609 59.672-73.11 156.516-145.465 309.615-145.465 153.768 0 263.512 73.019 335.97 147.808 36.262 37.429 62.792 74.953 80.216 103.084 8.692 14.037 15.065 25.645 19.206 33.616 2.068 3.981 3.576 7.045 4.53 9.040 0.365 0.758 0.651 1.364 0.856 1.802l0.168 0.365 0.201 0.438 33.686-14.975c-33.686 14.975-33.681 14.991-33.673 15.004l0.008 0.020c8.286 18.571 30.052 26.923 48.64 18.657 18.604-8.27 26.98-30.056 18.706-48.66l-32.391 14.402c32.391-14.402 32.387-14.418 32.379-14.434l-0.020-0.041-0.045-0.098-0.131-0.291-0.418-0.922c-0.352-0.762-0.848-1.819-1.487-3.15-1.278-2.666-3.133-6.435-5.583-11.149-4.899-9.425-12.177-22.663-21.955-38.445-19.509-31.498-49.172-73.486-89.94-115.565-57.737-59.597-138.535-120.078-244.482-150.36 31.097-20.443 58.401-47.342 80.908-77.017 49.373-65.102 80.552-149.522 80.552-227.466 0-158.178-128.168-286.439-286.31-286.439zM294.738 311.015c0-117.495 95.194-212.711 212.58-212.711s212.582 95.216 212.582 212.711c0 59.893-24.662 128.973-65.569 182.913-41.116 54.211-93.79 87.22-147.014 87.22-53.219 0-105.896-33.010-147.011-87.22-40.909-53.94-65.569-123.021-65.569-182.913z"></path>
</svg>
