<svg width="22" height="24" viewBox="0 0 22 24" fill="none" xmlns="http://www.w3.org/2000/svg">
<path fill-rule="evenodd" clip-rule="evenodd" d="M11.0421 2.91663C10.0683 2.91663 9.27895 3.70602 9.27895 4.67979V5.51662C8.86022 5.64463 8.45252 5.82037 8.06408 6.04387C6.24573 7.09008 5.1255 9.02334 5.1255 11.1158V13.5578L3.6062 15.0718C3.07405 15.6023 2.775 16.3216 2.775 17.0717C2.775 17.8219 3.07406 18.5413 3.60641 19.0718C4.13855 19.6022 4.86045 19.9002 5.61336 19.9004H16.392C17.144 19.8996 17.8649 19.6014 18.3965 19.0714C18.928 18.5413 19.2268 17.823 19.2275 17.0736C19.2279 16.3243 18.93 15.6054 18.3991 15.0747L16.8798 13.5578V11.1158C16.8798 9.02334 15.7596 7.09008 13.9413 6.04387C13.5773 5.83443 13.1963 5.66692 12.8053 5.54134V4.67979C12.8053 3.70602 12.0159 2.91663 11.0421 2.91663ZM5.26919 16.7292L7.47623 14.5301V11.1158C7.47623 9.86039 8.14838 8.70024 9.23927 8.07255C10.3304 7.44487 11.6746 7.44487 12.7657 8.07255C13.8566 8.70024 14.5288 9.86039 14.5288 11.1158V14.5301L16.7386 16.7322V16.732C16.8756 16.8717 16.9153 17.0792 16.8397 17.2594C16.7641 17.4393 16.5878 17.557 16.3918 17.5578H5.61299C5.41641 17.557 5.23951 17.4385 5.16428 17.2573C5.08926 17.0764 5.13046 16.868 5.26903 16.7291L5.26919 16.7292ZM9.82696 21.6574C9.40696 21.6574 9.01896 21.8806 8.80885 22.2432C8.59895 22.6055 8.59895 23.0521 8.80885 23.4144C9.01895 23.7767 9.40695 24 9.82696 24H12.1777C12.5977 24 12.9857 23.7767 13.1958 23.4144C13.4057 23.052 13.4057 22.6055 13.1958 22.2432C12.9857 21.8806 12.5977 21.6574 12.1777 21.6574H9.82696ZM3.92771 5.11647C4.46081 5.48692 4.59267 6.2194 4.22223 6.7525C4.0799 6.95732 3.83668 7.39565 3.66389 7.9389C3.49044 8.48421 3.41611 9.04648 3.50806 9.5411C3.6267 10.1793 3.20549 10.7929 2.56724 10.9116C1.929 11.0302 1.31542 10.609 1.19677 9.97075C1.01037 8.96797 1.17957 7.99355 1.4236 7.22633C1.66829 6.45704 2.01652 5.80698 2.29168 5.41099C2.66213 4.87789 3.3946 4.74603 3.92771 5.11647ZM17.7804 6.75248C17.4099 6.21938 17.5418 5.4869 18.0749 5.11645C18.608 4.74601 19.3405 4.87787 19.7109 5.41097C19.9861 5.80696 20.3343 6.45702 20.579 7.22631C20.8231 7.99353 20.9923 8.96795 20.8058 9.97073C20.6872 10.609 20.0736 11.0302 19.4354 10.9116C18.7971 10.7929 18.3759 10.1793 18.4946 9.54108C18.5865 9.04646 18.5122 8.48419 18.3387 7.93888C18.1659 7.39563 17.9227 6.9573 17.7804 6.75248Z" fill="#36A6F2"/>
</svg>
