<svg width="28" height="28" viewBox="0 0 28 28" fill="none" xmlns="http://www.w3.org/2000/svg">
<path fill-rule="evenodd" clip-rule="evenodd" d="M13.821 3C12.8443 3 12.0525 3.79182 12.0525 4.76857V5.61726C11.6325 5.74611 11.2235 5.92302 10.8339 6.14799C10.6105 6.27698 10.3976 6.41937 10.196 6.57381L12.1722 8.10338C13.2362 7.55971 14.5081 7.58862 15.55 8.19009C16.6442 8.82193 17.3184 9.98976 17.3184 11.2534V12.0866L19.6767 13.9119V13.7117V11.2534C19.6767 9.14717 18.553 7.20112 16.7291 6.14799C16.364 5.93716 15.9819 5.76854 15.5896 5.64212V4.76857C15.5896 3.79182 14.7978 3 13.821 3ZM8.03161 9.95197L5.42602 7.93525C4.94643 7.56404 4.85856 6.87434 5.22977 6.39474C5.60097 5.91515 6.29068 5.82728 6.77027 6.19849L8.94543 7.88206L10.814 9.32831L17.3184 14.3628L21.9453 17.9439L23.1383 18.8673C23.6179 19.2385 23.7057 19.9283 23.3345 20.4078C22.9633 20.8874 22.2736 20.9753 21.794 20.6041L20.629 19.7024L18.0912 17.7381L10.2442 11.6645L8.03161 9.95197ZM7.8863 13.7117V12.1157L10.2442 13.9407V14.6904L8.03043 16.904C7.89144 17.0438 7.84995 17.2535 7.9252 17.4357C8.00066 17.618 8.1781 17.7373 8.37528 17.7381H15.1504L18.1971 20.0962H8.37544C7.62023 20.096 6.89633 19.7961 6.36255 19.2621C5.82857 18.7281 5.52859 18.004 5.52859 17.2488C5.52859 16.4937 5.82856 15.7696 6.36234 15.2356L7.8863 13.7117ZM12.6021 21.8647C12.1808 21.8647 11.7916 22.0895 11.5808 22.4544C11.3703 22.8192 11.3703 23.2686 11.5808 23.6334C11.7916 23.9981 12.1808 24.2228 12.6021 24.2228H14.96C15.3813 24.2228 15.7705 23.9981 15.9812 23.6334C16.1918 23.2686 16.1918 22.8191 15.9812 22.4544C15.7705 22.0895 15.3813 21.8647 14.96 21.8647H12.6021Z" fill="#80888C"/>
</svg>
