<!-- Generated by IcoMoon.io -->
<svg version="1.1" xmlns="http://www.w3.org/2000/svg" width="1354" height="1024" viewBox="0 0 1354 1024">
<title></title>
<g id="icomoon-ignore">
</g>
<path d="M501.648 762.018c-27.975 18.197-58.5 10.352-74.247-19.076-4.77-8.929-14.759-9.695-22.293-1.688-7.538 7.984-9.778 21.699-5.001 30.631 11.816 22.092 29.194 36.084 48.865 41.138 19.674 5.057 41.634 1.169 62.646-12.489 8.483-5.523 13.14-18.62 10.385-29.247-2.752-10.65-11.865-14.792-20.354-9.269z"></path>
<path d="M351.975 559.035c-17.53-4.506-36.586 2.378-50.966 18.415-8.343 9.302-9.686 24.325-2.996 33.557 6.69 9.236 18.874 9.19 27.229-0.119 6.005-6.696 12.334-5.962 14.779-5.331 2.448 0.628 8.218 3.092 10.382 11.796 4.506 18.168 20.014 15.010 23.796 13.229 10.313-4.866 16.387-18.673 13.563-30.842-4.879-20.985-18.257-36.203-35.787-40.706z"></path>
<path d="M652.139 644.228c-17.53-4.506-36.587 2.378-50.965 18.415-8.344 9.302-9.688 24.325-2.999 33.557 6.692 9.236 18.875 9.19 27.232-0.119 6.005-6.696 12.331-5.962 14.779-5.331 2.448 0.628 8.218 3.092 10.379 11.796 4.509 18.168 20.018 15.010 23.8 13.229 10.313-4.866 16.387-18.673 13.56-30.842-4.876-20.985-18.254-36.203-35.784-40.706z"></path>
<path d="M670.33 253.611l-315.012-84.38c-12.833-3.49-25.855 4.181-29.275 16.895-3.416 12.739 4.157 25.856 16.894 29.272l315.012 84.38c2.078 0.55 4.155 0.812 6.187 0.812 10.564 0 20.219-7.050 23.060-17.707 3.468-12.759-4.109-25.88-16.866-29.272z"></path>
<path d="M740.801 288.738c0.885-1.244 1.625-2.605 2.748-3.657-1.1 1.076-1.84 2.414-2.748 3.657z"></path>
<path d="M738.274 292.5c-0.552 1.22-0.694 2.581-1.031 3.919 0.337-1.314 0.479-2.675 1.031-3.919z"></path>
<path d="M751.464 280.145c-1.718 0.644-3.128 1.72-4.611 2.725 1.483-0.982 2.894-2.058 4.611-2.725z"></path>
<path d="M737.349 988.424c-4.255-12.496 2.411-26.069 14.911-30.324l31.615-10.778v-627.988l-16.057 5.568c-12.523 4.348-26.095-2.27-30.4-14.744-0.978-2.843-1.268-5.735-1.169-8.578 0 0.262-0.145 0.503-0.145 0.764v647.633l-498.202-127.135v-406.848l-11.662 3.825-36.131 9.404v412.167c0 10.92 7.408 20.43 17.995 23.156l545.999 139.323c1.959 0.502 3.941 0.74 5.903 0.74-9.992 0.017-19.288-6.246-22.657-16.186z"></path>
<path d="M759.957 1004.63c2.649 0 5.255-0.429 7.743-1.292h-0.023c-2.557 0.885-5.163 1.292-7.72 1.292z"></path>
<path d="M200.569 136.818c1.626-1.123 3.248-2.27 5.115-2.963-1.914 0.691-3.49 1.817-5.115 2.963z"></path>
<path d="M1202.457 144.195c-0.287-0.502-0.786-0.788-1.1-1.243 2.345 3.49 3.99 7.479 4.231 11.901 0.548 10.61-5.999 20.335-16.034 23.801l-18.736 6.5 124.575 217.559-341.583 118.315-95.47-137.672c-7.528-10.802-22.442-13.55-33.267-5.995-10.848 7.502-13.523 22.416-6.018 33.263l105.789 152.559c4.568 6.547 11.971 10.273 19.644 10.273 2.606 0 5.259-0.406 7.815-1.315l192.301-66.623v-33.574c0-13.216 10.706-23.899 23.899-23.899 13.19 0 23.896 10.679 23.896 23.899v17.015l145.87-50.52c6.712-2.342 12.067-7.528 14.551-14.217 2.484-6.643 1.886-14.075-1.648-20.265l-148.715-259.763z"></path>
<path d="M1195.289 136.613c0.813 0.573 1.483 1.267 2.2 1.911-0.74-0.647-1.41-1.364-2.2-1.911z"></path>
<path d="M1187.612 133c0.717 0.191 1.338 0.597 2.031 0.838-0.72-0.241-1.315-0.647-2.031-0.838z"></path>
<path d="M1144.624 824.307l-360.775 123.022v33.386c0 7.386-3.416 14.362-9.249 18.881-2.101 1.625-4.443 2.867-6.904 3.726l408.517-139.32c9.678-3.297 16.179-12.404 16.179-22.607v-352.411l-47.794 16.562v318.761h0.026z"></path>
<path d="M783.836 980.741v-33.386l-31.615 10.778c-12.496 4.251-19.165 17.828-14.911 30.324 3.392 9.943 12.665 16.202 22.607 16.202 2.557 0 5.163-0.406 7.72-1.292h0.023c2.461-0.836 4.806-2.078 6.907-3.729 5.853-4.562 9.269-11.538 9.269-18.898z"></path>
<path d="M1168.506 448.079c-13.193 0-23.899 10.683-23.899 23.899v33.577l47.794-16.559v-17.018c0-13.213-10.706-23.899-23.896-23.899z"></path>
<path d="M1197.485 138.549c1.434 1.291 2.748 2.749 3.871 4.421-1.123-1.673-2.392-3.107-3.871-4.421z"></path>
<path d="M1189.64 133.839c1.985 0.694 3.898 1.552 5.639 2.772-1.718-1.196-3.634-2.058-5.639-2.772z"></path>
<path d="M237.837 156.088v17.324l380.104-124.742 477.937 111.886-343.78 119.223c-0.238 0.071-0.403 0.288-0.644 0.382 2.652-1.003 5.473-1.696 8.463-1.696 13.19 0 23.899 10.681 23.899 23.898v16.989l386.963-134.182-9.847-17.18c-6.547-11.448-2.58-26.071 8.866-32.618 5.615-3.178 11.974-3.798 17.781-2.343-0.168-0.047-0.287-0.144-0.453-0.191l-564.838-132.224c-4.278-0.979-8.744-0.788-12.902 0.55l-402.903 132.221c-0.311 0.097-0.526 0.359-0.838 0.479 2.605-0.979 5.353-1.673 8.293-1.673 13.215 0 23.899 10.681 23.899 23.896z"></path>
<path d="M743.566 285.093c0.955-0.908 2.197-1.482 3.297-2.222-1.103 0.741-2.342 1.314-3.297 2.222z"></path>
<path d="M736.187 301.582c0.050-1.817 0.598-3.466 1.054-5.163-0.456 1.723-0.981 3.369-1.054 5.163z"></path>
<path d="M740.818 288.742c-0.885 1.244-1.913 2.367-2.537 3.751 0.647-1.385 1.675-2.508 2.537-3.751z"></path>
<path d="M237.841 173.4v-17.324c0-13.215-10.707-23.899-23.898-23.899-2.94 0-5.689 0.694-8.293 1.673-1.864 0.694-3.49 1.84-5.115 2.963-6.189 4.325-10.489 11.136-10.489 19.262v53.65l36.131-32.5 11.665-3.825z"></path>
<path d="M759.943 278.452c-3.013 0-5.83 0.694-8.463 1.696-1.718 0.67-3.155 1.72-4.611 2.725-1.1 0.741-2.316 1.314-3.3 2.223-1.123 1.076-1.863 2.414-2.748 3.657s-1.886 2.367-2.534 3.751c-0.548 1.243-0.694 2.605-1.027 3.919-0.456 1.696-0.981 3.346-1.054 5.162-0.096 2.843 0.168 5.736 1.169 8.578 4.324 12.474 17.897 19.095 30.4 14.744l16.057-5.568v-16.989c0.007-13.218-10.699-23.898-23.889-23.898z"></path>
<path d="M1169.834 135.348c-11.446 6.547-15.413 21.173-8.866 32.621l9.847 17.18 18.736-6.5c10.035-3.49 16.582-13.191 16.034-23.801-0.238-4.422-1.889-8.388-4.231-11.901-1.123-1.673-2.415-3.131-3.871-4.422-0.717-0.67-1.41-1.361-2.2-1.911-1.744-1.193-3.657-2.078-5.639-2.772-0.694-0.238-1.292-0.644-2.031-0.838-5.807-1.482-12.162-0.861-17.778 2.343z"></path>
<path d="M206.351 139.644c-0.239 0.497-9.010-2.795-13.229 5.88l-134.334 234.519c-2.566 6.649-2.039 14.085 1.416 20.282 3.461 6.236 9.534 10.56 16.524 11.868l550.162 137.437c2.666 0.515 5.348 0.515 7.921 0.126 7.588-1.156 14.349-5.952 17.877-13.114l130.157-222.119c5.791-11.853 0.902-26.195-10.953-31.981-11.835-5.839-26.165-0.88-31.985 10.931l-122.19 205.85-503.973-128.898 114.066-183.43 12.35-19.421c-10.444-1.918-43.046 4.692-44.098-5.88-0.426-4.407 8.498-18.247 10.29-22.049z"></path>
</svg>
