<svg xmlns="http://www.w3.org/2000/svg" width="1189" height="1024"><path d="M335.406 28.903c-20.043 0-36.525 15.767-36.525 35.493v424.501H65.43c-20.043 0-36.527 15.76-36.527 35.487v459.994c0 19.727 16.482 35.493 36.527 35.493h1058.301c20.044 0 36.527-15.766 36.527-35.493V524.384c0-19.727-16.483-35.487-36.527-35.487H890.279V64.396c0-19.726-16.48-35.493-36.524-35.493H335.406zm36.527 459.994V99.888h99.731v173.593c0 19.725 16.473 35.493 36.527 35.493H680.97c20.054 0 36.527-15.768 36.527-35.493V99.888h99.731v389.009H371.933zm172.779-250.908v-138.1h99.738v138.1h-99.738zM101.957 948.885V559.877h99.731v173.601c0 19.724 16.482 35.493 36.527 35.493h172.786c20.044 0 36.527-15.77 36.527-35.493V559.877h110.526v389.008H101.957zm172.785-250.9V559.877h99.732v138.108h-99.732zm356.366 250.9V559.877h99.731v173.601c0 19.724 16.483 35.493 36.527 35.493h172.785c20.044 0 36.527-15.77 36.527-35.493V559.877h110.526v389.008H631.108zm172.785-250.9V559.877h99.731v138.108h-99.731zM659.38 363.434c-20.044 0-36.524 15.77-36.524 35.493 0 19.727 16.48 35.493 36.524 35.493h86.389c20.044 0 36.527-15.766 36.527-35.493 0-19.724-16.483-35.493-36.527-35.493H659.38zm269.969 459.984c-20.054 0-36.527 15.77-36.527 35.493 0 19.727 16.473 35.493 36.527 35.493h86.389c20.044 0 36.527-15.766 36.527-35.493 0-19.724-16.483-35.493-36.527-35.493h-86.389zm-539.952 0c-20.044 0-36.527 15.77-36.527 35.493 0 19.727 16.483 35.493 36.527 35.493h86.396c20.044 0 36.527-15.766 36.527-35.493 0-19.724-16.483-35.493-36.527-35.493h-86.396z"/></svg>