<!-- Generated by IcoMoon.io -->
<svg version="1.1" xmlns="http://www.w3.org/2000/svg" width="1205" height="1024" viewBox="0 0 1205 1024">
<title></title>
<g id="icomoon-ignore">
</g>
<path d="M85.333 597.331h1034.040c47.128 0 85.333-38.205 85.333-85.333s-38.205-85.333-85.333-85.333h-1034.040c-47.128 0-85.333 38.205-85.333 85.333s38.205 85.333 85.333 85.333z"></path>
<path d="M85.333 1023.994h1034.040c47.128 0 85.333-38.205 85.333-85.333s-38.205-85.333-85.333-85.333h-1034.040c-47.128 0-85.333 38.205-85.333 85.333s38.205 85.333 85.333 85.333z"></path>
<path d="M85.333 170.667h1034.040c47.128 0 85.333-38.205 85.333-85.333s-38.205-85.333-85.333-85.333h-1034.040c-47.128 0-85.333 38.205-85.333 85.333s38.205 85.333 85.333 85.333z"></path>
</svg>
