<svg xmlns="http://www.w3.org/2000/svg" width="1205" height="1024"><path d="M85.333 597.331h1034.04c47.128 0 85.333-38.205 85.333-85.333s-38.205-85.333-85.333-85.333H85.333C38.205 426.665 0 464.87 0 511.998s38.205 85.333 85.333 85.333zM85.333 1023.994h1034.04c47.128 0 85.333-38.205 85.333-85.333s-38.205-85.333-85.333-85.333H85.333C38.205 853.328 0 891.533 0 938.661s38.205 85.333 85.333 85.333zM85.333 170.667h1034.04c47.128 0 85.333-38.205 85.333-85.333S1166.501.001 1119.373.001H85.333C38.205.001 0 38.206 0 85.334s38.205 85.333 85.333 85.333z"/></svg>