<!-- Generated by IcoMoon.io -->
<svg version="1.1" xmlns="http://www.w3.org/2000/svg" width="1024" height="1024" viewBox="0 0 1024 1024">
<title></title>
<g id="icomoon-ignore">
</g>
<path d="M769.203 458.334c22.012 0 39.855-17.843 39.855-39.855s-17.843-39.855-39.855-39.855c-22.012 0-39.855 17.844-39.855 39.855s17.843 39.855 39.855 39.855z"></path>
<path d="M860.868 79.71h-51.81v-39.855c0-22.012-17.843-39.855-39.855-39.855s-39.855 17.843-39.855 39.855v39.855h-181.342v-39.855c0-22.012-17.843-39.855-39.855-39.855s-39.855 17.843-39.855 39.855v39.855h-179.347v-39.855c0-22.012-17.843-39.855-39.855-39.855s-39.855 17.843-39.855 39.855v39.855h-49.819c-87.904 0-159.42 71.516-159.42 159.42v621.738c0 87.906 71.516 159.42 159.42 159.42h304.891c22.012 0 39.855-17.843 39.855-39.855s-17.843-39.855-39.855-39.855h-304.891c-43.952 0-79.71-35.755-79.71-79.71v-621.738c0-43.952 35.758-79.71 79.71-79.71h49.819v39.855c0 22.012 17.843 39.855 39.855 39.855s39.855-17.843 39.855-39.855v-39.855h179.347v39.855c0 22.012 17.843 39.855 39.855 39.855s39.855-17.843 39.855-39.855v-39.855h181.342v39.855c0 22.012 17.843 39.855 39.855 39.855s39.855-17.843 39.855-39.855v-39.855h51.81c43.955 0 79.71 35.758 79.71 79.71v227.174c0 22.012 17.843 39.855 39.855 39.855s39.855-17.843 39.855-39.855v-227.174c0-87.904-71.514-159.42-159.42-159.42z"></path>
<path d="M595.836 458.334c22.012 0 39.855-17.843 39.855-39.855s-17.843-39.855-39.855-39.855c-22.012 0-39.855 17.844-39.855 39.855s17.843 39.855 39.855 39.855z"></path>
<path d="M422.464 631.701c22.011 0 39.855-17.843 39.855-39.855s-17.843-39.855-39.855-39.855c-22.011 0-39.855 17.843-39.855 39.855s17.844 39.855 39.855 39.855z"></path>
<path d="M249.095 458.334c22.011 0 39.855-17.843 39.855-39.855s-17.844-39.855-39.855-39.855c-22.012 0-39.855 17.844-39.855 39.855s17.844 39.855 39.855 39.855z"></path>
<path d="M249.095 631.701c22.011 0 39.855-17.843 39.855-39.855s-17.844-39.855-39.855-39.855c-22.012 0-39.855 17.843-39.855 39.855s17.844 39.855 39.855 39.855z"></path>
<path d="M249.095 805.073c22.011 0 39.855-17.843 39.855-39.855s-17.844-39.855-39.855-39.855c-22.012 0-39.855 17.843-39.855 39.855s17.844 39.855 39.855 39.855z"></path>
<path d="M422.464 805.073c22.011 0 39.855-17.843 39.855-39.855s-17.843-39.855-39.855-39.855c-22.011 0-39.855 17.843-39.855 39.855s17.844 39.855 39.855 39.855z"></path>
<path d="M422.464 458.334c22.011 0 39.855-17.843 39.855-39.855s-17.843-39.855-39.855-39.855c-22.011 0-39.855 17.844-39.855 39.855s17.844 39.855 39.855 39.855z"></path>
</svg>
