<!-- Generated by IcoMoon.io -->
<svg version="1.1" xmlns="http://www.w3.org/2000/svg" width="983" height="1024" viewBox="0 0 983 1024">
<title></title>
<g id="icomoon-ignore">
</g>
<path d="M738.435 463.098c21.131 0 38.261-17.129 38.261-38.261 0-21.13-17.129-38.26-38.261-38.26s-38.261 17.13-38.261 38.26c0 21.131 17.129 38.261 38.261 38.261z"></path>
<path d="M572.002 463.098c21.131 0 38.261-17.129 38.261-38.261 0-21.13-17.129-38.26-38.261-38.26s-38.261 17.13-38.261 38.26c0 21.131 17.129 38.261 38.261 38.261z"></path>
<path d="M405.566 629.535c21.131 0 38.26-17.134 38.26-38.261 0-21.131-17.129-38.261-38.26-38.261s-38.261 17.129-38.261 38.261c0 21.127 17.13 38.261 38.261 38.261z"></path>
<path d="M239.131 463.098c21.131 0 38.261-17.129 38.261-38.261 0-21.13-17.13-38.26-38.261-38.26s-38.261 17.13-38.261 38.26c0 21.131 17.13 38.261 38.261 38.261z"></path>
<path d="M239.131 629.535c21.131 0 38.261-17.134 38.261-38.261 0-21.131-17.13-38.261-38.261-38.261s-38.261 17.129-38.261 38.261c0 21.127 17.13 38.261 38.261 38.261z"></path>
<path d="M239.131 795.967c21.131 0 38.261-17.129 38.261-38.261s-17.13-38.261-38.261-38.261c-21.131 0-38.261 17.129-38.261 38.261s17.13 38.261 38.261 38.261z"></path>
<path d="M405.566 795.967c21.131 0 38.26-17.129 38.26-38.261s-17.129-38.261-38.26-38.261c-21.131 0-38.261 17.129-38.261 38.261s17.13 38.261 38.261 38.261z"></path>
<path d="M572.002 629.535c21.131 0 38.261-17.134 38.261-38.261 0-21.131-17.129-38.261-38.261-38.261s-38.261 17.129-38.261 38.261c0 21.127 17.129 38.261 38.261 38.261z"></path>
<path d="M572.002 795.967c21.131 0 38.261-17.129 38.261-38.261s-17.129-38.261-38.261-38.261c-21.131 0-38.261 17.129-38.261 38.261s17.129 38.261 38.261 38.261z"></path>
<path d="M748.835 629.535c21.131 0 38.261-17.134 38.261-38.261 0-21.131-17.129-38.261-38.261-38.261s-38.261 17.129-38.261 38.261c0 21.127 17.129 38.261 38.261 38.261z"></path>
<path d="M748.835 795.967c21.131 0 38.261-17.129 38.261-38.261s-17.129-38.261-38.261-38.261c-21.131 0-38.261 17.129-38.261 38.261s17.129 38.261 38.261 38.261z"></path>
<path d="M405.566 463.098c21.131 0 38.26-17.129 38.26-38.261 0-21.13-17.129-38.26-38.26-38.26s-38.261 17.13-38.261 38.26c0 21.131 17.13 38.261 38.261 38.261z"></path>
<path d="M776.696 99.62h49.738c84.39 0 153.047 68.656 153.047 153.044v596.867c0 84.39-68.657 153.047-153.047 153.047h-673.389c-84.39 0-153.045-68.657-153.045-153.043v-596.871c0-84.387 68.655-153.044 153.045-153.044h47.825v-38.26c0-21.131 17.13-38.261 38.26-38.261s38.26 17.13 38.26 38.261v38.26h172.175v-38.26c0-21.131 17.129-38.261 38.261-38.261 21.135 0 38.261 17.13 38.261 38.261v38.26h174.088v-38.26c0-21.131 17.129-38.261 38.261-38.261s38.261 17.13 38.261 38.261v38.26zM446.181 926.056h380.252c42.197 0 76.521-34.329 76.521-76.526v-596.867c0-42.194-34.324-76.521-76.521-76.521h-49.738v38.26c0 21.132-17.129 38.261-38.261 38.261s-38.261-17.129-38.261-38.261v-38.26h-174.088v38.26c0 21.132-17.125 38.261-38.261 38.261-21.131 0-38.261-17.129-38.261-38.261v-38.26h-172.175v38.26c0 21.132-17.13 38.261-38.26 38.261s-38.26-17.129-38.26-38.261v-38.26h-47.825c-42.195 0-76.525 34.328-76.525 76.521v596.871c0 42.193 34.33 76.521 76.525 76.521h292.694c0.152 0 0.295 0 0.442 0z"></path>
</svg>
