<svg xmlns="http://www.w3.org/2000/svg" width="983" height="1024"><path d="M738.435 463.098c21.131 0 38.261-17.129 38.261-38.261 0-21.13-17.129-38.26-38.261-38.26s-38.261 17.13-38.261 38.26c0 21.131 17.129 38.261 38.261 38.261zM572.002 463.098c21.131 0 38.261-17.129 38.261-38.261 0-21.13-17.129-38.26-38.261-38.26s-38.261 17.13-38.261 38.26c0 21.131 17.129 38.261 38.261 38.261zM405.566 629.535c21.131 0 38.26-17.134 38.26-38.261 0-21.131-17.129-38.261-38.26-38.261s-38.261 17.129-38.261 38.261c0 21.127 17.13 38.261 38.261 38.261zM239.131 463.098c21.131 0 38.261-17.129 38.261-38.261 0-21.13-17.13-38.26-38.261-38.26s-38.261 17.13-38.261 38.26c0 21.131 17.13 38.261 38.261 38.261zM239.131 629.535c21.131 0 38.261-17.134 38.261-38.261 0-21.131-17.13-38.261-38.261-38.261s-38.261 17.129-38.261 38.261c0 21.127 17.13 38.261 38.261 38.261zM239.131 795.967c21.131 0 38.261-17.129 38.261-38.261s-17.13-38.261-38.261-38.261c-21.131 0-38.261 17.129-38.261 38.261s17.13 38.261 38.261 38.261zM405.566 795.967c21.131 0 38.26-17.129 38.26-38.261s-17.129-38.261-38.26-38.261c-21.131 0-38.261 17.129-38.261 38.261s17.13 38.261 38.261 38.261zM572.002 629.535c21.131 0 38.261-17.134 38.261-38.261 0-21.131-17.129-38.261-38.261-38.261s-38.261 17.129-38.261 38.261c0 21.127 17.129 38.261 38.261 38.261zM572.002 795.967c21.131 0 38.261-17.129 38.261-38.261s-17.129-38.261-38.261-38.261c-21.131 0-38.261 17.129-38.261 38.261s17.129 38.261 38.261 38.261zM748.835 629.535c21.131 0 38.261-17.134 38.261-38.261 0-21.131-17.129-38.261-38.261-38.261s-38.261 17.129-38.261 38.261c0 21.127 17.129 38.261 38.261 38.261zM748.835 795.967c21.131 0 38.261-17.129 38.261-38.261s-17.129-38.261-38.261-38.261c-21.131 0-38.261 17.129-38.261 38.261s17.129 38.261 38.261 38.261zM405.566 463.098c21.131 0 38.26-17.129 38.26-38.261 0-21.13-17.129-38.26-38.26-38.26s-38.261 17.13-38.261 38.26c0 21.131 17.13 38.261 38.261 38.261z"/><path d="M776.696 99.62h49.738c84.39 0 153.047 68.656 153.047 153.044v596.867c0 84.39-68.657 153.047-153.047 153.047H153.045C68.655 1002.578 0 933.921 0 849.535V252.664C0 168.277 68.655 99.62 153.045 99.62h47.825V61.36c0-21.131 17.13-38.261 38.26-38.261s38.26 17.13 38.26 38.261v38.26h172.175V61.36c0-21.131 17.129-38.261 38.261-38.261 21.135 0 38.261 17.13 38.261 38.261v38.26h174.088V61.36c0-21.131 17.129-38.261 38.261-38.261s38.261 17.13 38.261 38.261v38.26zM446.181 926.056h380.252c42.197 0 76.521-34.329 76.521-76.526V252.663c0-42.194-34.324-76.521-76.521-76.521h-49.738v38.26c0 21.132-17.129 38.261-38.261 38.261s-38.261-17.129-38.261-38.261v-38.26H526.085v38.26c0 21.132-17.125 38.261-38.261 38.261-21.131 0-38.261-17.129-38.261-38.261v-38.26H277.388v38.26c0 21.132-17.13 38.261-38.26 38.261s-38.26-17.129-38.26-38.261v-38.26h-47.825c-42.195 0-76.525 34.328-76.525 76.521v596.871c0 42.193 34.33 76.521 76.525 76.521h293.136z"/></svg>