<!-- Generated by IcoMoon.io -->
<svg version="1.1" xmlns="http://www.w3.org/2000/svg" width="1229" height="1024" viewBox="0 0 1229 1024">
<title></title>
<g id="icomoon-ignore">
</g>
<path d="M1181.998 172.494c-28.078-29.417-66.857-46.8-110.981-46.8h-136.714v-2.675c0-33.429-13.368-65.521-36.101-86.916-22.733-22.732-53.489-36.104-86.917-36.104h-401.15c-34.766 0-65.521 13.372-88.253 36.104s-36.103 53.487-36.103 86.916v2.675h-127.993c-44.126 0-82.904 17.383-110.985 46.8-28.080 28.081-46.801 68.196-46.801 110.985v572.185c0 44.124 17.383 82.903 46.801 110.986 28.081 28.078 68.195 46.797 110.985 46.797h913.231c44.124 0 82.903-17.382 110.981-46.797 28.083-28.083 46.802-68.198 46.802-110.986v-572.185c0-44.127-17.382-82.905-46.802-110.985zM1159.265 855.665h-1.336c0 24.069-9.359 45.466-25.405 61.512s-37.443 25.405-61.507 25.405h-913.231c-24.069 0-45.464-9.359-61.51-25.405s-25.406-37.443-25.406-61.512v-572.185c0-24.069 9.36-45.464 25.406-61.51s37.441-25.406 61.51-25.406h165.433c20.058 0 36.104-16.046 36.104-36.103v-38.778c0-14.709 5.348-28.081 14.709-37.441s22.732-14.709 37.441-14.709h399.813c14.71 0 28.083 5.349 37.443 14.709s14.71 22.732 14.71 37.441v38.778c0 20.057 16.046 36.103 36.101 36.103h172.815c24.069 0 45.46 9.36 61.507 25.406s25.405 37.441 25.405 61.51v572.185z"></path>
<path d="M608.425 283.010c-77.266 0-147.711 31.814-197.705 81.808-51.13 51.13-81.808 120.439-81.808 197.702 0 77.261 31.814 147.707 81.808 197.704 51.13 51.128 120.439 81.807 197.705 81.807 77.261 0 147.707-31.816 197.699-81.807 51.133-51.133 81.807-120.443 81.807-197.704 0-77.263-31.811-147.708-81.807-197.702-49.992-49.994-120.438-81.808-197.699-81.808zM762.947 718.182c-39.767 38.63-94.305 63.626-154.522 63.626-60.221 0-114.761-24.996-154.528-63.626-39.768-39.767-63.628-94.305-63.628-154.527 0-60.22 24.997-114.758 63.628-154.526 39.768-39.768 94.307-63.628 154.528-63.628 60.216 0 114.755 24.996 154.522 63.628 39.767 39.768 63.631 94.306 63.631 154.526 1.137 60.221-23.864 114.76-63.631 154.527z"></path>
<path d="M1007.222 403.236c36.188 0 65.521-29.335 65.521-65.522s-29.332-65.521-65.521-65.521c-36.188 0-65.521 29.335-65.521 65.521s29.332 65.522 65.521 65.522z"></path>
</svg>
