<svg xmlns="http://www.w3.org/2000/svg" width="1202" height="1024"><path d="M40.929 22.261h114.634c42.997 0 79.567 27.543 89.72 66.84l137.73 533.104h608.914l104.644-371.839H385.036l-20.182-78.118h837.234L1072 634.818c-10.935 38.658-46.125 65.505-88.166 65.505H391.291c-42.996 0-79.567-27.541-89.72-66.836l-137.73-533.108H40.93C17.878 100.379.001 82.295.001 61.32S17.878 22.261 40.93 22.261zm280.036 839.951c0 75.46 60.055 136.633 134.136 136.633 74.084 0 134.14-61.173 134.14-136.633 0-63.492-42.518-116.87-100.134-132.203h-68.008c-57.616 15.333-100.134 68.71-100.134 132.203zm462.31 0c0 75.46 60.055 136.633 134.14 136.633s134.14-61.173 134.14-136.633c0-33.796-12.048-64.726-32.002-88.576-.089-.085-.174-.165-.249-.24a2.496 2.496 0 01-.378-.508c-17.475-20.582-40.875-35.791-67.504-42.879h-68.011c-57.616 15.333-100.134 68.71-100.134 132.203zm-391.42-.97c0-34.687 27.937-60.932 62.405-60.932 34.464 0 62.402 26.246 62.402 60.932 0 34.682-27.937 60.932-62.402 60.932-34.468 0-62.405-26.25-62.405-60.932zm464.993 0c0-34.687 27.937-60.932 62.406-60.932 34.464 0 62.402 26.246 62.402 60.932 0 34.682-27.937 60.932-62.402 60.932-34.469 0-62.406-26.25-62.406-60.932z"/></svg>