<?xml version="1.0" encoding="utf-8"?>
<svg viewBox="83.471 81.617 16.001 16" xmlns="http://www.w3.org/2000/svg">
  <path d="M12.4004 5.32829C12.4004 4.48629 11.7064 3.80371 10.8504 3.80371H1.5504C0.694365 3.80371 0.000406265 4.48629 0.000406265 5.32829V14.4758C0.000406265 15.3178 0.694365 16.0004 1.5504 16.0004H10.8504C11.7064 16.0004 12.4004 15.3178 12.4004 14.4758V5.32829ZM10.8504 4.8201C11.1357 4.8201 11.3671 5.04763 11.3671 5.32829V14.4758C11.3671 14.7565 11.1357 14.984 10.8504 14.984H1.5504C1.26506 14.984 1.03374 14.7565 1.03374 14.4758V5.32829C1.03374 5.04763 1.26506 4.8201 1.5504 4.8201H10.8504Z" transform="matrix(1, 0, 0, 1, 83.470245, 81.616608)"/>
  <path d="M14.501 0C15.3294 0 16.001 0.671581 16.001 1.50002V10.6803C16.001 11.5087 15.3294 12.1803 14.501 12.1803H13.6919V11.1803H14.501C14.7771 11.1803 15.001 10.9564 15.001 10.6803V1.50002C15.001 1.22387 14.7771 1.00001 14.501 1.00001H5.13433C4.85818 1.00001 4.63432 1.22387 4.63432 1.50002V2.27952H3.63431V1.50002C3.63431 0.67158 4.30589 0 5.13433 0H14.501Z" transform="matrix(1, 0, 0, 1, 83.470245, 81.616608)"/>
</svg>