<?xml version="1.0" encoding="iso-8859-1"?>
<!-- Generator: Adobe Illustrator 19.0.0, SVG Export Plug-In . SVG Version: 6.00 Build 0)  -->
<svg version="1.1" id="Layer_1" xmlns="http://www.w3.org/2000/svg" xmlns:xlink="http://www.w3.org/1999/xlink" x="0px" y="0px"
	 viewBox="0 0 511.999 511.999" style="enable-background:new 0 0 511.999 511.999;" xml:space="preserve">
<g>
	<g>
		<circle cx="333.469" cy="106.628" r="16.597"/>
	</g>
</g>
<g>
	<g>
		<path d="M505.73,100.677c-6.119-8.801-15.758-14.27-26.447-15.007l-55.286-3.804c-20.942-39.553-63.508-66.328-110.909-69.042
			c-36.118-2.068-71.688,10.072-97.582,33.314c-23.778,21.343-37.735,50.157-39.302,81.133
			c-1.858,36.742,7.678,64.546,29.106,84.632c-7.167,3.319-14.562,6.996-22.386,11.129c-41.993,22.195-64.137,13.688-112.251-14.375
			c-21.386-12.48-42.907-8.277-56.164,10.962c-15.34,22.266-18.799,64.203-9.026,109.446c6.286,29.102,23.491,83.292,68.1,119.25
			c40.348,32.526,99.166,51.087,161.701,51.087c0.804,0,1.611-0.003,2.417-0.01c62.795-0.48,120.328-19.347,157.847-51.766
			c20.814-17.984,36.64-39.232,47.037-63.157c9.747-22.424,14.197-46.575,12.87-69.839c-2.257-39.582-20.94-74.32-51.328-95.515
			c8.09-7.964,14.385-17.885,18.183-28.525c62.213-4.172,81.988-38.914,88.257-60.149
			C513.567,120.264,511.806,109.415,505.73,100.677z M422.311,316.521c2.214,38.832-15.453,77.463-48.469,105.99
			c-31.649,27.346-81.364,43.27-136.399,43.69c-55.885,0.405-108.03-15.51-143.031-43.727
			c-26.776-21.586-47.366-58.186-56.487-100.418c-6.368-29.48-7.067-67.665,3.917-83.606c2.247-3.261,4.023-5.836,12.103-1.123
			c31.004,18.084,57.022,31.385,86.291,31.383c17.62-0.002,36.425-4.825,58.191-16.331c10.526-5.558,20.168-10.211,29.481-14.227
			c8.857-3.818,14.829-11.818,15.975-21.395c1.144-9.566-2.766-18.739-10.46-24.531c-11.277-8.492-26.04-24.29-24.071-63.28
			c1.118-22.078,11.177-42.714,28.326-58.108c19.359-17.378,46.144-26.448,73.51-24.876c36.757,2.104,69.501,23.01,84.589,53.641
			l-5.57,12.76c-9.072,20.783-8.351,44.336,1.681,64.377c-2.343,8.347-7.745,16.549-14.566,21.784
			c-7.03,5.395-10.96,13.875-10.517,22.683c0.443,8.79,5.194,16.81,12.701,21.454c1.674,1.036,3.339,2.117,4.936,3.204
			C406.819,261.129,420.621,286.882,422.311,316.521z M478.728,121.043c-6.555,22.199-26.401,34.441-59.052,36.468
			c-3.765-10.242-3.507-21.65,0.953-31.869l4.55-10.423l51.825,3.566c0.772,0.053,1.227,0.485,1.473,0.839
			C478.947,120.301,478.782,120.859,478.728,121.043z"/>
	</g>
</g>
<g>
	<g>
		<path d="M217.308,280.562c-56.803,0-101.297,31.946-101.297,72.728c0,40.781,44.495,72.727,101.297,72.727
			s101.297-31.945,101.297-72.727S274.11,280.562,217.308,280.562z M217.308,392.824c-36.279,0-68.104-18.473-68.104-39.533
			c0-21.06,31.825-39.534,68.104-39.534s68.104,18.474,68.104,39.534C285.412,374.351,253.587,392.824,217.308,392.824z"/>
	</g>
</g>
<g>
</g>
<g>
</g>
<g>
</g>
<g>
</g>
<g>
</g>
<g>
</g>
<g>
</g>
<g>
</g>
<g>
</g>
<g>
</g>
<g>
</g>
<g>
</g>
<g>
</g>
<g>
</g>
<g>
</g>
</svg>
