<svg xmlns="http://www.w3.org/2000/svg" viewBox="0 0 511.999 511.999"><circle cx="333.469" cy="106.628" r="16.597"/><path d="M505.73 100.677c-6.119-8.801-15.758-14.27-26.447-15.007l-55.286-3.804c-20.942-39.553-63.508-66.328-110.909-69.042-36.118-2.068-71.688 10.072-97.582 33.314-23.778 21.343-37.735 50.157-39.302 81.133-1.858 36.742 7.678 64.546 29.106 84.632-7.167 3.319-14.562 6.996-22.386 11.129-41.993 22.195-64.137 13.688-112.251-14.375-21.386-12.48-42.907-8.277-56.164 10.962-15.34 22.266-18.799 64.203-9.026 109.446 6.286 29.102 23.491 83.292 68.1 119.25 40.348 32.526 99.166 51.087 161.701 51.087.804 0 1.611-.003 2.417-.01 62.795-.48 120.328-19.347 157.847-51.766 20.814-17.984 36.64-39.232 47.037-63.157 9.747-22.424 14.197-46.575 12.87-69.839-2.257-39.582-20.94-74.32-51.328-95.515 8.09-7.964 14.385-17.885 18.183-28.525 62.213-4.172 81.988-38.914 88.257-60.149 3-10.177 1.239-21.026-4.837-29.764zm-83.419 215.844c2.214 38.832-15.453 77.463-48.469 105.99-31.649 27.346-81.364 43.27-136.399 43.69-55.885.405-108.03-15.51-143.031-43.727-26.776-21.586-47.366-58.186-56.487-100.418-6.368-29.48-7.067-67.665 3.917-83.606 2.247-3.261 4.023-5.836 12.103-1.123 31.004 18.084 57.022 31.385 86.291 31.383 17.62-.002 36.425-4.825 58.191-16.331 10.526-5.558 20.168-10.211 29.481-14.227 8.857-3.818 14.829-11.818 15.975-21.395 1.144-9.566-2.766-18.739-10.46-24.531-11.277-8.492-26.04-24.29-24.071-63.28 1.118-22.078 11.177-42.714 28.326-58.108 19.359-17.378 46.144-26.448 73.51-24.876 36.757 2.104 69.501 23.01 84.589 53.641l-5.57 12.76a75.897 75.897 0 001.681 64.377c-2.343 8.347-7.745 16.549-14.566 21.784-7.03 5.395-10.96 13.875-10.517 22.683.443 8.79 5.194 16.81 12.701 21.454a136.294 136.294 0 014.936 3.204c22.377 15.264 36.179 41.017 37.869 70.656zm56.417-195.478c-6.555 22.199-26.401 34.441-59.052 36.468a42.753 42.753 0 01.953-31.869l4.55-10.423 51.825 3.566a1.903 1.903 0 011.473.839c.47.677.305 1.235.251 1.419z"/><path d="M217.308 280.562c-56.803 0-101.297 31.946-101.297 72.728 0 40.781 44.495 72.727 101.297 72.727s101.297-31.945 101.297-72.727-44.495-72.728-101.297-72.728zm0 112.262c-36.279 0-68.104-18.473-68.104-39.533 0-21.06 31.825-39.534 68.104-39.534s68.104 18.474 68.104 39.534-31.825 39.533-68.104 39.533z"/></svg>