<svg xmlns="http://www.w3.org/2000/svg" width="1385" height="1024"><path d="M1202.507 413.879c-21.745-20.804-57.091-20.911-78.944-.107L940.044 589.487l-72.029-68.92c-21.739-20.805-57.085-20.805-78.824 0-21.745 20.804-21.745 54.624 0 75.428l111.496 106.686c10.812 10.348 25.088 15.577 39.358 15.577s28.539-5.228 39.466-15.577l222.997-213.373c21.739-20.804 21.739-54.624 0-75.428z"/><path d="M1184.756 128h133.765c36.858 0 66.885 28.736 66.885 64v768c0 35.262-30.027 64-66.885 64H649.68c-36.852 0-66.886-28.738-66.886-64V853.335h66.886V960h668.841V192h-133.765v32c0 17.664-14.987 32-33.443 32H816.887c-18.456 0-33.443-14.336-33.443-32v-32H649.679v149.334h-66.886V192c0-35.264 30.034-64 66.886-64h133.765V96c0-17.664 14.987-32 33.443-32h72.571C903.306 26.752 940.489 0 984.1 0s80.794 26.752 94.642 64h72.571c18.456 0 33.443 14.336 33.443 32v32zm-267.541 0H850.33v64h267.541v-64h-66.885c-18.462 0-33.443-14.336-33.443-32s-14.981-32-33.443-32c-18.462 0-33.443 14.336-33.443 32s-14.981 32-33.443 32z"/><path d="M36.514 621.562l-1.014-.157h434.758l-136.672 95.371c-6.693 4.656-10.363 10.963-10.363 17.583s3.671 12.884 10.363 17.547l21.266 14.818c6.687 4.656 15.599 7.228 25.101 7.228 9.508 0 18.424-2.554 25.111-7.21l234.285-163.105c6.71-4.675 10.385-10.901 10.354-17.525.03-6.66-3.644-12.89-10.354-17.557L405.064 405.437c-6.687-4.653-15.599-7.213-25.111-7.213-9.503 0-18.414 2.564-25.101 7.213l-21.266 14.814c-6.693 4.648-10.363 10.857-10.363 17.477 0 6.616 3.671 12.497 10.363 17.149l138.215 95.901H36.028c-19.581 0-36.035 11.75-36.035 25.376v20.952c0 13.628 16.94 24.458 36.521 24.458z"/></svg>