<!-- Generated by IcoMoon.io -->
<svg version="1.1" xmlns="http://www.w3.org/2000/svg" width="39" height="32" viewBox="0 0 39 32">
<title>envelope</title>
<path d="M36.583 5.385c-1.071-0.115-16.093 0-16.093 0h-1.869c0 0-15.539-0.077-16.092 0-1.558 0.835-2.528 2.555-2.528 4.33v17.445c0 2.669 2.175 4.841 4.848 4.841h29.091c2.673 0 5.17-2.172 5.17-4.841v-17.445c0-1.775-0.978-3.505-2.526-4.33zM4.074 8.298l15.481 0.421 15.479-0.423c0.519 0.284 0.842 0.826 0.842 1.418v2.015l-15.535 7.933c-0.583 0.302-1.311 0.302-1.889 0.003l-15.219-7.937v-2.015c0-0.592 0.323-1.134 0.842-1.417z"></path>
<path d="M1.778 0h35.553c0.982 0 1.778 0.796 1.778 1.778s-0.796 1.778-1.778 1.778h-35.553c-0.982 0-1.778-0.796-1.778-1.778s0.796-1.778 1.778-1.778z"></path>
</svg>
