<!-- Generated by IcoMoon.io -->
<svg version="1.1" xmlns="http://www.w3.org/2000/svg" width="35" height="32" viewBox="0 0 35 32">
<title>envelope-open</title>
<path d="M32.924 8.079l-14.484-7.901c-0.435-0.237-1.248-0.237-1.683 0l-14.483 7.901c-1.404 0.764-2.275 2.231-2.275 3.831v15.726c0 2.406 1.958 4.364 4.364 4.364h26.182c2.406 0 4.653-1.958 4.653-4.364v-15.726c0-1.6-0.871-3.068-2.273-3.831zM3.667 10.633l13.933-7.521 13.931 7.52c0.467 0.256 0.758 0.745 0.758 1.279v1.817l-13.982 7.152c-0.525 0.272-1.18 0.272-1.7 0.003l-13.697-7.155v-1.817c0-0.534 0.291-1.023 0.758-1.277z"></path>
</svg>
