<svg width="36" height="33" viewBox="0 0 36 33" fill="none" xmlns="http://www.w3.org/2000/svg">
<path d="M5.74276 33H30.2572C32.8449 33 34.4892 30.2302 33.2501 27.9585L20.9928 5.48685C19.7007 3.11799 16.2993 3.11799 15.0072 5.48685L2.74993 27.9585C1.51081 30.2302 3.15505 33 5.74276 33Z" fill="#FF6565"/>
<path d="M19.9731 22.2246H16.1527L15.5622 11.2727H20.5635L19.9731 22.2246ZM15.6085 26.2765C15.6085 25.5742 15.8169 25.0301 16.2337 24.6442C16.6505 24.2505 17.2563 24.0537 18.0513 24.0537C18.8385 24.0537 19.4328 24.2505 19.8341 24.6442C20.2432 25.0301 20.4477 25.5742 20.4477 26.2765C20.4477 26.9711 20.2355 27.5153 19.811 27.9089C19.3942 28.2948 18.8076 28.4877 18.0513 28.4877C17.2872 28.4877 16.6891 28.2948 16.2568 27.9089C15.8246 27.5153 15.6085 26.9711 15.6085 26.2765Z" fill="white"/>
</svg>
