<svg width="32" height="30" viewBox="0 0 32 30" fill="none" xmlns="http://www.w3.org/2000/svg">
<path fill-rule="evenodd" clip-rule="evenodd" d="M28.2573 30H3.74277C1.15506 30 -0.489182 27.2302 0.749944 24.9585L13.0072 2.48686C14.2993 0.118008 17.7007 0.118008 18.9928 2.48686L31.2501 24.9585C32.4892 27.2302 30.845 30 28.2573 30ZM14.1527 19.2246H17.9731L18.5635 8.27278H13.5623L14.1527 19.2246ZM14.2337 21.6442C13.817 22.0301 13.6086 22.5742 13.6086 23.2766C13.6086 23.9712 13.8247 24.5153 14.2569 24.9089C14.6891 25.2948 15.2872 25.4878 16.0513 25.4878C16.8077 25.4878 17.3943 25.2948 17.811 24.9089C18.2355 24.5153 18.4478 23.9712 18.4478 23.2766C18.4478 22.5742 18.2432 22.0301 17.8342 21.6442C17.4328 21.2506 16.8386 21.0538 16.0513 21.0538C15.2564 21.0538 14.6505 21.2506 14.2337 21.6442Z" fill="#FF6565"/>
</svg>
