<svg xmlns="http://www.w3.org/2000/svg" width="31" height="17">
    <path d="M30.5848 8.02879C30.7165 8.1522 30.8088 8.3565 30.8098 8.55666C30.8088 8.75681 30.7268 8.9466 30.5858 9.08556C27.6021 11.9593 22.478 13.6673 17.8101 13.3573C15.3761 15.6233 12.7088 16.876 10.2613 16.876C10.0632 16.875 9.8786 16.7962 9.74274 16.6603C9.69503 16.6126 9.65459 16.5597 9.6214 16.4996C9.49073 16.2673 9.49695 15.9831 9.63592 15.757L11.3149 13.0202L11.2869 13.0192C11.0992 13.0098 10.9323 12.93 10.8078 12.8055C10.674 12.6718 10.5911 12.4892 10.5921 12.287L10.5921 4.82631C10.5921 4.43638 10.898 4.11385 11.2869 4.09414L11.3149 4.09311L9.63592 1.35627C9.49695 1.12812 9.49177 0.844998 9.6214 0.613731C9.75104 0.382465 9.99578 0.239349 10.2613 0.239349C12.7067 0.239349 15.3761 1.49213 17.8091 3.75709C22.4666 3.44286 27.598 5.15195 30.5848 8.02879ZM0.688701 7.91137C1.43228 7.51003 5.21344 5.51055 6.60519 5.51055C8.28317 5.50848 9.65106 6.8743 9.65314 8.55643C9.6521 10.2375 8.28628 11.6033 6.60622 11.6033C5.2124 11.6033 1.43332 9.60387 0.689739 9.20252C0.625439 9.16726 0.568401 9.12474 0.518622 9.07496C0.382766 8.93911 0.303948 8.75451 0.302911 8.55643C0.303949 8.28783 0.451212 8.03893 0.688701 7.91137Z" />
</svg>