<svg xmlns="http://www.w3.org/2000/svg" width="30" height="18">
    <path d="M16.0633 3.63265C13.976 0.676938 10.4436 -0.412009 7.23229 0.988065C8.67737 1.61032 9.96188 2.69927 10.845 4.17712C10.283 4.25491 9.64075 4.41047 9.07878 4.64381C8.83793 4.7216 8.67737 4.87716 8.67737 5.03273L8.67737 12.8109C8.67737 13.122 8.83793 13.2776 9.07878 13.3554C9.64075 13.5887 10.283 13.7443 10.9253 13.8999C10.0422 15.3777 8.75765 16.4667 7.31258 17.0889C10.5239 18.489 14.0563 17.2445 16.1436 14.4443C21.0408 14.3666 26.1788 12.6554 29.7112 9.38851C29.9521 9.15516 29.9521 8.84404 29.7112 8.61069C26.1788 5.34385 21.0408 3.63265 16.0633 3.63265ZM6.10833 4.87745L2.73649 4.87745C2.09423 4.87745 1.61254 5.34414 1.61254 5.9664C1.61254 6.58865 2.09423 7.05534 2.73649 7.05534L6.10833 7.05534C6.75058 7.05534 7.23227 6.58865 7.23227 5.9664C7.23227 5.34414 6.75058 4.87745 6.10833 4.87745ZM2.73649 10.9439L6.10833 10.9439C6.75058 10.9439 7.23227 11.4105 7.23227 12.0328C7.23227 12.6551 6.75058 13.1217 6.10833 13.1217L2.73649 13.1217C2.09423 13.1217 1.61254 12.6551 1.61254 12.0328C1.61254 11.4105 2.09423 10.9439 2.73649 10.9439ZM6.10832 7.9878L1.45197 7.9878C0.809711 7.9878 0.32802 8.45449 0.32802 9.07675C0.32802 9.699 0.809712 10.1657 1.45197 10.1657L6.10832 10.1657C6.75058 10.1657 7.23227 9.699 7.23227 9.07675C7.23227 8.45449 6.75058 7.9878 6.10832 7.9878Z" />
</svg>