<!-- Generated by IcoMoon.io -->
<svg version="1.1" xmlns="http://www.w3.org/2000/svg" width="1062" height="1024" viewBox="0 0 1062 1024">
<title></title>
<g id="icomoon-ignore">
</g>
<path d="M306.44 7.68c-163.384 0-288.235 133.242-304.508 306.533-2.060 13.572-5.697 54.668 9.084 117.327 22.296 94.455 73.68 179.94 148.029 247.163l0.029 0.027 368.729 334.662 375.023-334.59c74.32-67.311 125.709-152.804 148.036-247.269 14.856-62.992 10.972-104.168 9.072-117.179-16.198-173.365-141.1-306.674-304.5-306.674-88.284 0-170.098 39.15-226.801 104.005-55.47-65.31-134.758-104.005-222.194-104.005zM826.539 594.352l-298.113 265.967-292.973-265.853c-57.744-52.323-96.812-117.733-113.687-189.068-6.065-25.714-7.714-45.249-7.955-57.802-0.12-6.285 0.112-10.852 0.328-13.6 0.108-1.373 0.215-2.31 0.276-2.804l0.066-0.503 0.042-0.294 0.419-2.724 0.107-1.211c11.005-123.911 94.956-204.955 191.39-204.955 72.153 0 137.464 44.057 169.219 119.302l52.482 123.999 52.417-124.016c30.803-73.090 99.825-119.285 174.949-119.285 96.142 0 180.194 80.757 191.56 206.477l0.053 0.583 0.072 0.675 0.030 0.281 0.083 0.636 0.053 0.365 0.076 0.582c0.064 0.523 0.171 1.483 0.281 2.868 0.22 2.777 0.455 7.363 0.334 13.657-0.239 12.574-1.893 32.12-7.964 57.781-16.843 71.293-55.854 136.64-113.44 188.848l-0.106 0.095z"></path>
</svg>
