<!-- Generated by IcoMoon.io -->
<svg version="1.1" xmlns="http://www.w3.org/2000/svg" width="1024" height="1024" viewBox="0 0 1024 1024">
<title></title>
<g id="icomoon-ignore">
</g>
<path d="M0 512c0-282.308 229.692-512 512-512 282.31 0 512 229.692 512 512 0 282.31-229.69 512-512 512-282.308 0-512-229.69-512-512zM945.229 512c0-239.692-193.542-433.231-433.233-433.231-239.692 0-433.231 193.539-433.231 433.231s193.539 433.229 433.231 433.229c239.691 0 433.233-193.536 433.233-433.229zM472.614 275.693v78.769h78.769v-78.769h-78.769zM472.614 748.307v-315.076h78.769v315.076h-78.769z"></path>
</svg>
