<!-- Generated by IcoMoon.io -->
<svg version="1.1" xmlns="http://www.w3.org/2000/svg" width="819" height="1024" viewBox="0 0 819 1024">
<title></title>
<g id="icomoon-ignore">
</g>
<path d="M799.289 530.664c13.28 12.45 19.921 27.554 19.911 45.332v384.004c0 17.786-6.648 32.898-19.911 45.34-13.264 12.434-29.391 18.659-48.364 18.659h-682.659c-18.957 0-35.080-6.225-48.355-18.659-13.273-12.442-19.911-27.554-19.911-45.34v-384.006c0-17.78 6.635-32.899 19.911-45.334 13.276-12.433 29.398-18.661 48.355-18.661h22.753v-213.331c0-82.232 31.169-152.56 93.507-211.001 62.348-58.449 137.37-87.668 225.079-87.668 87.702 0 162.731 29.219 225.074 87.67 62.333 58.449 93.506 128.77 93.506 211.001 0 11.552-4.519 21.55-13.5 29.994-9.018 8.446-19.684 12.67-32.001 12.67h-45.533c-12.31 0-22.98-4.224-31.999-12.67-8.999-8.444-13.499-18.442-13.499-29.994 0-47.117-17.782-87.336-53.342-120.671-35.545-33.331-78.454-49.997-128.705-49.997-50.256 0-93.156 16.668-128.717 49.997-35.558 33.335-53.339 73.552-53.339 120.671v213.331h523.376c18.973 0 35.085 6.214 48.364 18.662zM458.152 798.665c21.754-11.806 36.389-33.862 36.389-59.123 0-37.703-32.601-68.267-72.818-68.267s-72.819 30.564-72.819 68.267c0 25.275 14.652 47.344 36.429 59.144v66.019h72.819v-66.041z"></path>
</svg>
