<!-- Generated by IcoMoon.io -->
<svg version="1.1" xmlns="http://www.w3.org/2000/svg" width="1109" height="1024" viewBox="0 0 1109 1024">
<title></title>
<g id="icomoon-ignore">
</g>
<path d="M1070.861 206.252c-372.109-73.958-348.019-70.097-356.446-68.678-2.697 0.45-35.721 7.088-112.7 22.483-32.273-93.059-120.811-160.056-224.715-160.056-104.001 0-192.609 67.123-224.806 160.32l-113.8-22.614c-19.835-3.933-38.394 11.231-38.394 31.516v753.999c0 15.33 10.832 28.527 25.867 31.514 368.964 73.335 344.808 68.604 347.254 68.902 7.759 0.951-16.22 4.919 346.627-67.652l338.586 67.298c19.849 3.938 38.396-11.251 38.396-31.514v-754.002c0-15.331-10.833-28.526-25.869-31.516zM377.001 64.262c95.669 0 173.506 77.833 173.506 173.506 0 80.719-129.161 285.616-173.506 353.414-44.295-67.721-173.506-272.678-173.506-353.414 0-95.672 77.836-173.506 173.506-173.506zM64.262 208.364l75.421 14.988c-0.287 4.77-0.45 9.573-0.45 14.414 0 53.581 35.050 140.049 107.156 264.349 42.104 72.58 83.61 134.891 98.481 156.843v293.662l-280.608-55.77v-688.486zM409.131 658.957c14.868-21.952 56.375-84.262 98.483-156.843 72.102-124.3 107.153-210.768 107.153-264.347 0-4.935-0.166-9.832-0.465-14.692l73.297-14.662v688.471l-278.468 55.693v-293.619zM1032.469 952.623l-280.61-55.774v-688.483l280.61 55.773v688.485z"></path>
<path d="M377.002 338.441c55.514 0 100.677-45.163 100.677-100.676s-45.163-100.676-100.677-100.676c-55.513 0-100.676 45.163-100.676 100.676s45.163 100.676 100.676 100.676zM377.002 201.35c20.079 0 36.415 16.335 36.415 36.415s-16.335 36.415-36.415 36.415c-20.079 0-36.415-16.335-36.415-36.415s16.335-36.415 36.415-36.415z"></path>
</svg>
