<!-- Generated by IcoMoon.io -->
<svg version="1.1" xmlns="http://www.w3.org/2000/svg" width="33" height="32" viewBox="0 0 33 32">
<title>mega-star</title>
<path d="M29.755 12.556c0.579-0.573 0.784-1.415 0.534-2.196s-0.903-1.34-1.704-1.458l-7.002-1.033c-0.137-0.020-0.256-0.108-0.318-0.234l-3.131-6.441c-0.358-0.737-1.083-1.194-1.892-1.194s-1.534 0.458-1.892 1.194l-3.131 6.441c-0.062 0.126-0.18 0.214-0.318 0.234l-7.002 1.033c-0.801 0.118-1.453 0.677-1.704 1.458s-0.046 1.623 0.534 2.196l5.067 5.013c0.099 0.099 0.145 0.24 0.121 0.379l-1.196 7.079c-0.137 0.81 0.185 1.612 0.84 2.095s1.506 0.545 2.222 0.163l6.263-3.342c0.123-0.066 0.27-0.066 0.393 0l6.263 3.342c0.311 0.166 0.648 0.248 0.984 0.248 0.436 0 0.869-0.139 1.238-0.412 0.655-0.483 0.976-1.286 0.84-2.095l-1.196-7.079c-0.023-0.139 0.022-0.281 0.121-0.379l5.067-5.013zM22.904 18.238l1.196 7.079c0.040 0.237-0.104 0.372-0.168 0.419s-0.235 0.145-0.445 0.033l-6.263-3.342c-0.308-0.164-0.645-0.246-0.982-0.246s-0.675 0.082-0.982 0.246l-6.263 3.342c-0.21 0.112-0.381 0.015-0.444-0.032s-0.208-0.182-0.168-0.419l1.196-7.079c0.117-0.695-0.109-1.404-0.607-1.896l-5.067-5.013c-0.17-0.168-0.131-0.363-0.107-0.439s0.106-0.257 0.341-0.291l7.002-1.033c0.687-0.101 1.281-0.539 1.589-1.172l3.131-6.441c0.105-0.216 0.3-0.239 0.379-0.239s0.274 0.023 0.378 0.239v0l3.131 6.441c0.307 0.632 0.901 1.070 1.589 1.172l7.002 1.033c0.234 0.034 0.316 0.215 0.341 0.292s0.063 0.271-0.107 0.439l-5.067 5.013c-0.497 0.492-0.724 1.201-0.607 1.896z"></path>
<path d="M26.104 1.194c-0.377-0.278-0.905-0.193-1.179 0.19l-0.896 1.252c-0.274 0.383-0.19 0.919 0.187 1.197 0.15 0.11 0.323 0.164 0.495 0.164 0.261 0 0.518-0.123 0.683-0.353l0.896-1.252c0.274-0.383 0.19-0.919-0.187-1.197z"></path>
<path d="M8.452 2.63l-0.896-1.252c-0.274-0.383-0.802-0.468-1.179-0.19s-0.461 0.814-0.187 1.197l0.896 1.252c0.165 0.231 0.423 0.353 0.684 0.353 0.172 0 0.346-0.053 0.495-0.164 0.377-0.278 0.461-0.814 0.187-1.197z"></path>
<path d="M3.339 19.225c-0.144-0.45-0.62-0.696-1.064-0.55l-1.45 0.478c-0.443 0.146-0.686 0.63-0.542 1.080 0.116 0.362 0.447 0.592 0.803 0.592 0.086 0 0.174-0.014 0.261-0.042l1.45-0.478c0.443-0.146 0.686-0.63 0.542-1.080z"></path>
<path d="M16.243 28.739c-0.466 0-0.844 0.384-0.844 0.857v1.547c0 0.473 0.378 0.857 0.844 0.857s0.844-0.384 0.844-0.857v-1.547c0-0.473-0.378-0.857-0.844-0.857z"></path>
<path d="M31.659 19.154l-1.45-0.478c-0.443-0.146-0.92 0.1-1.064 0.55s0.099 0.933 0.542 1.080l1.45 0.478c0.087 0.029 0.174 0.042 0.261 0.042 0.356 0 0.687-0.23 0.803-0.592 0.144-0.45-0.099-0.933-0.542-1.080z"></path>
<path d="M22.621 13.755c0.273-0.271 0.37-0.668 0.252-1.037s-0.426-0.632-0.804-0.688l-3.305-0.488c-0.065-0.010-0.121-0.051-0.15-0.111l-1.478-3.040c-0.169-0.348-0.511-0.564-0.893-0.564s-0.724 0.216-0.893 0.564l-1.478 3.040c-0.029 0.060-0.085 0.101-0.15 0.111l-3.305 0.488c-0.378 0.056-0.686 0.319-0.804 0.688s-0.021 0.766 0.252 1.037l2.392 2.366c0.047 0.047 0.068 0.113 0.057 0.179l-0.565 3.341c-0.065 0.382 0.087 0.761 0.396 0.989s0.711 0.257 1.049 0.077l2.956-1.578c0.058-0.031 0.127-0.031 0.186 0l2.956 1.578c0.147 0.078 0.306 0.117 0.465 0.117 0.206 0 0.41-0.065 0.584-0.194 0.309-0.228 0.461-0.607 0.396-0.989l-0.564-3.341c-0.011-0.066 0.010-0.133 0.057-0.179l2.392-2.366z"></path>
</svg>
