<!-- Generated by IcoMoon.io -->
<svg version="1.1" xmlns="http://www.w3.org/2000/svg" width="1658" height="1024" viewBox="0 0 1658 1024">
<title></title>
<g id="icomoon-ignore">
</g>
<path d="M1561.527 214.654c-98.723-170.759-317.976-228.777-489.672-129.785-171.705 98.998-231.024 317.65-132.296 488.419 87.576 151.479 269.995 214.231 429.924 157.379l129.492 223.983c18.115 31.334 58.212 42.077 89.566 24.001 31.364-18.086 42.106-58.158 23.981-89.502l-129.477-223.959c129.273-109.9 166.059-299.053 78.482-450.536zM1137.128 197.851c109.1-62.901 248.242-25.964 310.838 82.304 62.591 108.258 25.054 247.044-84.031 309.937-109.1 62.903-248.247 25.966-310.843-82.305-62.586-108.256-25.054-247.040 84.036-309.936zM97.457 85.267c-33.626 0-60.886 27.259-60.886 60.886s27.259 60.886 60.886 60.886h341.467c33.626 0 60.886-27.259 60.886-60.886s-27.259-60.886-60.886-60.886h-341.467zM97.457 474.827c-33.626 0-60.886 27.259-60.886 60.886s27.259 60.884 60.886 60.884h585.278c33.626 0 60.884-27.258 60.884-60.884s-27.258-60.886-60.884-60.886h-585.278zM97.457 864.388c-33.626 0-60.886 27.258-60.886 60.884s27.259 60.889 60.886 60.889h975.373c33.626 0 60.884-27.263 60.884-60.889s-27.258-60.884-60.884-60.884h-975.373z"></path>
</svg>
