<svg xmlns="http://www.w3.org/2000/svg" width="1024" height="1024"><path d="M875.661 1018.739H153.599c-81.908 0-148.307-66.398-148.307-148.305V153.567C5.292 71.659 71.693 5.26 153.599 5.26h722.062c81.907 0 148.309 66.401 148.309 148.307v716.867c0 81.907-66.402 148.305-148.309 148.305zM329.354 337.737c0 102.007 82.691 184.708 184.698 184.708s184.695-82.701 184.695-184.708c0-102.004-82.688-184.698-184.695-184.698s-184.698 82.694-184.698 184.698zm108.346.003c0 42.166 34.185 76.353 76.352 76.353S590.4 379.906 590.4 337.74s-34.18-76.35-76.348-76.35-76.352 34.184-76.352 76.35zm141.564 331.67c73.941-15.066 118.251-50.082 120.597-51.959 21.636-17.353 25.109-48.96 7.757-70.601-17.348-21.636-48.951-25.114-70.592-7.761-.461.367-47.718 36.621-125.478 36.676h-.034c-.004 0 .021-.004.043-.004h-.022c.03 0 .068.004.009.004h-.03c-77.734-.064-125.98-36.309-126.437-36.676-21.642-17.353-53.246-13.875-70.596 7.761-17.352 21.641-13.876 53.248 7.761 70.601 2.376 1.903 48.515 37.833 124.53 52.544L340.831 780.711c-19.252 19.964-18.674 51.755 1.293 71.01 9.745 9.395 22.305 14.067 34.855 14.067 13.158 0 26.302-5.141 36.156-15.364l98.418-104.841 108.356 105.519c19.635 19.605 51.426 19.571 71.023-.055s19.571-51.422-.055-71.019L579.265 669.41z"/></svg>