<!-- Generated by IcoMoon.io -->
<svg version="1.1" xmlns="http://www.w3.org/2000/svg" width="1024" height="1024" viewBox="0 0 1024 1024">
<title></title>
<g id="icomoon-ignore">
</g>
<path d="M875.661 1018.739h-722.062c-81.908 0-148.307-66.398-148.307-148.305v-716.867c0-81.908 66.401-148.307 148.307-148.307h722.062c81.907 0 148.309 66.401 148.309 148.307v716.867c0 81.907-66.402 148.305-148.309 148.305zM329.354 337.737c0 102.007 82.691 184.708 184.698 184.708s184.695-82.701 184.695-184.708c0-102.004-82.688-184.698-184.695-184.698s-184.698 82.694-184.698 184.698zM437.7 337.74c0 42.166 34.185 76.353 76.352 76.353s76.348-34.187 76.348-76.353c0-42.166-34.18-76.35-76.348-76.35s-76.352 34.184-76.352 76.35zM579.264 669.41c73.941-15.066 118.251-50.082 120.597-51.959 21.636-17.353 25.109-48.96 7.757-70.601-17.348-21.636-48.951-25.114-70.592-7.761-0.461 0.367-47.718 36.621-125.478 36.676-0.009 0-0.021 0-0.034 0-0.004 0 0.021-0.004 0.043-0.004s0.034 0-0.013 0c-0.047 0-0.034 0-0.009 0 0.030 0 0.068 0.004 0.009 0.004-0.017 0-0.026 0-0.030 0-77.734-0.064-125.98-36.309-126.437-36.676-21.642-17.353-53.246-13.875-70.596 7.761-17.352 21.641-13.876 53.248 7.761 70.601 2.376 1.903 48.515 37.833 124.53 52.544l-105.941 110.716c-19.252 19.964-18.674 51.755 1.293 71.010 9.745 9.395 22.305 14.067 34.855 14.067 13.158 0 26.302-5.141 36.156-15.364l98.418-104.841 108.356 105.519c19.635 19.605 51.426 19.571 71.023-0.055s19.571-51.422-0.055-71.019l-111.612-110.618z"></path>
</svg>
