<!-- Generated by IcoMoon.io -->
<svg version="1.1" xmlns="http://www.w3.org/2000/svg" width="1024" height="1024" viewBox="0 0 1024 1024">
<title></title>
<g id="icomoon-ignore">
</g>
<path d="M549.853 50.667c-187.021 0-352.070 107.915-428.926 271.507l-53.463-111.010-67.464 32.495 111.030 230.472 230.472-111.036-32.502-67.451-120.063 57.827c64.858-137.376 203.659-227.922 360.915-227.922 220.168 0 399.286 179.123 399.286 399.291s-179.118 399.301-399.286 399.301c-129.642 0-251.713-63.338-326.524-169.417l-61.204 43.165c88.855 125.938 233.791 201.127 387.728 201.127 261.435 0 474.147-212.712 474.147-474.175 0-261.461-212.705-474.172-474.147-474.172z"></path>
<path d="M514.594 582.453l-127.257-116.477-63.338 58.246 190.589 174.446 349.415-319.85-63.618-58.152-285.792 261.786z"></path>
</svg>
