<svg width="12" height="12" viewBox="0 0 12 12" fill="none" xmlns="http://www.w3.org/2000/svg">
<path d="M11.0755 7.49264C10.9104 7.49264 10.7767 7.62642 10.7767 7.7915V10.4451C10.7761 10.9401 10.3751 11.3412 9.88007 11.3417H1.49431C0.999319 11.3412 0.598307 10.9401 0.597724 10.4451V2.65703C0.598307 2.16216 0.999319 1.76103 1.49431 1.76044H4.14788C4.31295 1.76044 4.44674 1.62666 4.44674 1.46158C4.44674 1.29662 4.31295 1.16272 4.14788 1.16272H1.49431C0.669404 1.16365 0.000933943 1.83212 0 2.65703V10.4452C0.000933943 11.2701 0.669404 11.9386 1.49431 11.9395H9.88007C10.705 11.9386 11.3734 11.2701 11.3744 10.4452V7.7915C11.3744 7.62642 11.2406 7.49264 11.0755 7.49264Z" fill="#1D1E1F"/>
<path d="M11.2555 0.39392C10.7303 -0.131307 9.87878 -0.131307 9.35356 0.39392L4.02167 5.7258C3.98513 5.76234 3.95875 5.80764 3.94497 5.85737L3.24382 8.38871C3.21498 8.49249 3.24428 8.60363 3.3204 8.67986C3.39663 8.75598 3.50777 8.78528 3.61156 8.75656L6.14289 8.05529C6.19262 8.04151 6.23792 8.01513 6.27446 7.97859L11.6062 2.64659C12.1306 2.12101 12.1306 1.27019 11.6062 0.744615L11.2555 0.39392ZM4.67287 5.92006L9.0366 1.55621L10.4439 2.96355L6.08008 7.3274L4.67287 5.92006ZM4.39175 6.48416L5.5161 7.60863L3.96085 8.03953L4.39175 6.48416ZM11.1836 2.22398L10.8667 2.54094L9.45921 1.13349L9.77628 0.816529C10.068 0.524788 10.5411 0.524788 10.8328 0.816529L11.1836 1.16722C11.4749 1.45932 11.4749 1.93201 11.1836 2.22398Z" fill="#1D1E1F"/>
</svg>
