<!-- Generated by IcoMoon.io -->
<svg version="1.1" xmlns="http://www.w3.org/2000/svg" width="1024" height="1024" viewBox="0 0 1024 1024">
<title></title>
<g id="icomoon-ignore">
</g>
<path fill="#000" d="M945.109 639.372c-14.089 0-25.498 11.416-25.498 25.503v226.441c-0.051 42.24-34.27 76.467-76.512 76.51h-715.585c-42.239-0.043-76.459-34.27-76.509-76.51v-664.582c0.050-42.229 34.269-76.459 76.509-76.509h226.438c14.086 0 25.503-11.416 25.503-25.503 0-14.077-11.417-25.503-25.503-25.503h-226.438c-70.392 0.079-127.435 57.122-127.514 127.514v664.591c0.080 70.391 57.122 127.437 127.514 127.514h715.585c70.394-0.077 127.431-57.122 127.516-127.514v-226.449c0-14.087-11.418-25.503-25.506-25.503z"></path>
<path fill="#000" d="M960.469 33.615c-44.817-44.819-117.48-44.819-162.299 0l-454.988 454.987c-3.118 3.118-5.369 6.984-6.545 11.227l-59.831 216.008c-2.461 8.856 0.039 18.34 6.535 24.845 6.505 6.496 15.989 8.996 24.846 6.545l216.007-59.842c4.244-1.176 8.109-3.427 11.227-6.545l454.975-454.997c44.749-44.849 44.749-117.453 0-162.302l-29.926-29.926zM398.752 505.178l372.372-372.382 120.090 120.093-372.379 372.382-120.082-120.093zM374.763 553.315l95.945 95.955-132.715 36.77 36.77-132.725zM954.334 189.78l-27.042 27.047-120.106-120.102 27.057-27.047c24.893-24.895 65.265-24.895 90.156 0l29.935 29.926c24.858 24.926 24.858 65.262 0 90.177z"></path>
</svg>
