<!-- Generated by IcoMoon.io -->
<svg version="1.1" xmlns="http://www.w3.org/2000/svg" width="2048" height="1024" viewBox="0 0 2048 1024">
<title></title>
<g id="icomoon-ignore">
</g>
<path d="M1064.747 454.193c136.747-0.928 453.658 63.34 376.132 153.731-55.228 64.385-36.898 178.022-7.305 219.825 29.594 41.798 159.983 111.242 322.039 98.425 162.057-12.826 298.394-16.094 272.265-181.58-32.657-206.857-191.727-616.026-1035.947-657.178-844.221-41.152-972.706 600.491-952.694 670.683s75.241 147.961 294.030 146.476c218.789-1.485 277.209-29.235 312.212-52.915s54.060-94.138 17.916-238.457c-36.144-144.318 237.264-157.897 401.352-159.011z"></path>
</svg>
