<?xml version="1.0" encoding="utf-8"?>
<svg viewBox="273.183 121.554 21.001 14" xmlns="http://www.w3.org/2000/svg">
  <path d="M15.861 8.90869C14.4013 8.90869 13.2139 10.0506 13.2139 11.4542C13.2139 12.8579 14.4013 13.9998 15.861 13.9998C17.3209 13.9998 18.5081 12.8579 18.5081 11.4542C18.5081 10.0506 17.3206 8.90869 15.861 8.90869ZM15.861 12.727C15.1311 12.727 14.5374 12.1562 14.5374 11.4542C14.5374 10.7523 15.1311 10.1815 15.861 10.1815C16.5909 10.1815 17.1845 10.7523 17.1845 11.4542C17.1845 12.1562 16.5909 12.727 15.861 12.727Z" transform="matrix(1, 0, 0, 1, 273.182892, 121.553871)"/>
  <path d="M6.81704 8.90869C5.35739 8.90869 4.16992 10.0506 4.16992 11.4542C4.16992 12.8579 5.35739 13.9998 6.81704 13.9998C8.27669 13.9998 9.46415 12.8579 9.46415 11.4542C9.46415 10.0506 8.27669 8.90869 6.81704 8.90869ZM6.81704 12.727C6.08711 12.727 5.49348 12.1562 5.49348 11.4542C5.49348 10.7523 6.08711 10.1815 6.81704 10.1815C7.54676 10.1815 8.1406 10.7523 8.1406 11.4542C8.1406 12.1562 7.54697 12.727 6.81704 12.727Z" transform="matrix(1, 0, 0, 1, 273.182892, 121.553871)"/>
  <path d="M17.6442 1.6234C17.5317 1.40851 17.3029 1.27295 17.0528 1.27295H13.5674V2.54573H16.6446L18.4467 5.99239L19.6295 5.42047L17.6442 1.6234Z" transform="matrix(1, 0, 0, 1, 273.182892, 121.553871)"/>
  <path d="M13.8756 10.8398H8.86816V12.1126H13.8756V10.8398Z" transform="matrix(1, 0, 0, 1, 273.182892, 121.553871)"/>
  <path d="M4.83186 10.8398H2.53773C2.1722 10.8398 1.87598 11.1247 1.87598 11.4762C1.87598 11.8277 2.17224 12.1126 2.53773 12.1126H4.8319C5.19744 12.1126 5.49366 11.8277 5.49366 11.4762C5.49366 11.1247 5.1974 10.8398 4.83186 10.8398Z" transform="matrix(1, 0, 0, 1, 273.182892, 121.553871)"/>
  <path d="M20.8623 6.94934L19.5606 5.33716C19.4356 5.18187 19.2426 5.09107 19.0381 5.09107H14.2291V0.636369C14.2291 0.284855 13.9329 0 13.5674 0H2.53774C2.1722 0 1.87598 0.284895 1.87598 0.636369C1.87598 0.987844 2.17224 1.27274 2.53774 1.27274H12.9056V5.72744C12.9056 6.07896 13.2018 6.36381 13.5673 6.36381H18.714L19.6777 7.55767V10.8397H17.8468C17.4813 10.8397 17.1851 11.1246 17.1851 11.4761C17.1851 11.8276 17.4813 12.1125 17.8468 12.1125H20.3395C20.705 12.1125 21.0013 11.8276 21.0013 11.4761V7.33967C21.0013 7.19838 20.9523 7.06092 20.8623 6.94934Z" transform="matrix(1, 0, 0, 1, 273.182892, 121.553871)"/>
  <path d="M4.78603 7.61523H1.74184C1.3763 7.61523 1.08008 7.90013 1.08008 8.2516C1.08008 8.60312 1.37634 8.88797 1.74184 8.88797H4.78599C5.15153 8.88797 5.44775 8.60308 5.44775 8.2516C5.44779 7.90013 5.15153 7.61523 4.78603 7.61523Z" transform="matrix(1, 0, 0, 1, 273.182892, 121.553871)"/>
  <path d="M6.30894 5.11279H0.661759C0.296261 5.11279 0 5.39769 0 5.7492C0 6.10072 0.296261 6.38557 0.661759 6.38557H6.30894C6.67448 6.38557 6.9707 6.10068 6.9707 5.7492C6.9707 5.39773 6.67448 5.11279 6.30894 5.11279Z" transform="matrix(1, 0, 0, 1, 273.182892, 121.553871)"/>
  <path d="M7.38902 2.60938H1.74184C1.3763 2.60938 1.08008 2.89427 1.08008 3.24574C1.08008 3.59726 1.37634 3.88211 1.74184 3.88211H7.38902C7.75455 3.88211 8.05077 3.59722 8.05077 3.24574C8.05082 2.89427 7.75455 2.60938 7.38902 2.60938Z" transform="matrix(1, 0, 0, 1, 273.182892, 121.553871)"/>
</svg>