<svg height="479pt" viewBox="0 -23 479.99485 479" width="479pt" xmlns="http://www.w3.org/2000/svg"><path d="m463.996094 434.234375h-288c-8.832032 0-16-7.167969-16-16s7.167968-16 16-16h288c8.832031 0 16 7.167969 16 16s-7.167969 16-16 16zm0 0"/><path d="m15.996094 434.234375c-4.203125 0-8.277344-1.640625-11.308594-4.691406-3.925781-3.925781-5.523438-9.578125-4.265625-14.976563l23.253906-98.667968c.683594-2.898438 2.152344-5.546876 4.265625-7.636719l294.164063-294.164063c18.09375-18.113281 49.75-18.15625 67.882812 0l30.167969 30.164063c9.066406 9.066406 14.058594 21.121093 14.058594 33.941406 0 12.824219-4.992188 24.898437-14.058594 33.941406l-294.167969 294.144531c-2.109375 2.113282-4.757812 3.585938-7.636719 4.265626l-98.667968 23.253906c-1.234375.300781-2.472656.425781-3.6875.425781zm37.78125-106.578125-16.277344 69.074219 69.078125-16.277344 290.941406-290.941406c3.03125-3.03125 4.695313-7.039063 4.695313-11.308594 0-4.265625-1.664063-8.296875-4.695313-11.304687l-30.164062-30.1875c-6.039063-6.039063-16.597657-6.039063-22.613281 0zm60.882812 67.328125h.214844zm0 0"/><path d="m344.292969 181.351562c-4.09375 0-8.191407-1.558593-11.304688-4.695312l-75.4375-75.433594c-6.25-6.25-6.25-16.382812 0-22.632812 6.253907-6.253906 16.386719-6.253906 22.636719 0l75.433594 75.433594c6.25 6.25 6.25 16.382812 0 22.632812-3.136719 3.136719-7.230469 4.695312-11.328125 4.695312zm0 0"/></svg>