<svg height="512pt" viewBox="0 0 512 512" width="512pt" xmlns="http://www.w3.org/2000/svg"><path d="M106.98 190.629l-12.683-15.164L71.28 194.71l32.602 38.976 54.215-48.585-20.02-22.344zm0 0M180.668 187h115.977v30H180.668zm0 0M106.98 276.887l-12.683-15.164-23.016 19.246 32.602 38.976 54.215-48.586-20.02-22.34zm0 0M180.668 273.258h115.977v30H180.668zm0 0M106.98 363.145L94.297 347.98 71.28 367.227l32.602 38.976 54.215-48.586-20.02-22.34zm0 0M180.668 359.52h115.977v30H180.668zm0 0"/><path d="M302.547 0h-30v30.547h-38.695V0h-30v30.547h-38.704V0h-30v30.547H96.453V0h-30v30.547H0V512h369V30.547h-66.453zM339 60.547V482H30V60.547h36.453V91.09h30V60.547h38.695V91.09h30V60.547h38.7V91.09h30V60.547h38.699V91.09h30V60.547zm0 0M404.438 26.48v412.727L449.363 512h17.707L512 439.203V26.48zm77.562 30v52.11h-47.563V56.48zm-47.563 82.11H482v244.426h-47.563zm23.782 330.637l-23.781-38.532v-17.68H482v17.676zm0 0"/></svg>