<!-- Generated by IcoMoon.io -->
<svg version="1.1" xmlns="http://www.w3.org/2000/svg" width="1024" height="1024" viewBox="0 0 1024 1024">
<title></title>
<g id="icomoon-ignore">
</g>
<path d="M512 0c-282.8 0-512 229.131-512 512 0 282.73 229.2 511.965 512 511.965s512-229.235 512-511.965c-0.035-282.869-229.235-512-512-512zM512 940.446c-236.724 0-428.55-191.792-428.55-428.481 0-236.724 191.827-428.585 428.55-428.585 236.654 0 428.481 191.896 428.481 428.585s-191.827 428.481-428.481 428.481z"></path>
<path d="M498.722 670.405c-46.388 0-79.359 32.971-79.359 81.127 0 46.319 32.104 81.092 79.359 81.092 49.023 0 80.225-34.774 80.225-81.092-0.936-48.156-32.173-81.127-80.225-81.127z"></path>
<path d="M511.099 211.207c-63.237 0-115.796 17.785-148.836 36.507l30.336 97.213c23.159-16.017 58.834-26.765 88.234-26.765 44.55 0.936 65.144 22.327 65.144 53.495 0 29.469-23.229 58.834-51.796 93.642-40.078 47.289-55.263 93.642-52.559 139.094l0.867 23.194h118.57v-16.052c-0.867-40.147 13.417-74.956 45.452-111.463 33.941-37.443 76.654-82.028 76.654-149.807 0-74.020-54.293-139.060-172.065-139.060z"></path>
</svg>
