<svg width="22" height="22" viewBox="0 0 22 22" fill="none" xmlns="http://www.w3.org/2000/svg">
<path fill-rule="evenodd" clip-rule="evenodd" d="M11.0424 0C10.0657 0 9.27386 0.791816 9.27386 1.76857V2.61726C8.85386 2.74611 8.44493 2.92302 8.05531 3.14799C6.23138 4.20112 5.10771 6.14717 5.10771 8.25344V10.7117L3.58375 12.2356C3.04997 12.7696 2.75 13.4937 2.75 14.2488C2.75 15.004 3.04998 15.7281 3.58396 16.2621C4.11774 16.7961 4.84185 17.096 5.59707 17.0962H16.4088C17.1631 17.0954 17.8862 16.7952 18.4194 16.2617C18.9525 15.7281 19.2523 15.005 19.2529 14.2506C19.2533 13.4965 18.9546 12.7727 18.4221 12.2385L16.8981 10.7117V8.25344C16.8981 6.14717 15.7744 4.20112 13.9505 3.14799C13.5854 2.93716 13.2033 2.76854 12.811 2.64212V1.76857C12.811 0.791816 12.0192 0 11.0424 0ZM5.25184 13.904L7.46565 11.6904V8.25344C7.46565 6.98976 8.13986 5.82193 9.2341 5.19009C10.3286 4.55825 11.6769 4.55825 12.7714 5.19009C13.8656 5.82193 14.5398 6.98976 14.5398 8.25344V11.6904L16.7565 13.907V13.9068C16.8938 14.0475 16.9337 14.2564 16.8578 14.4377C16.782 14.6189 16.6052 14.7373 16.4086 14.7381H5.59669C5.39951 14.7373 5.22207 14.618 5.14661 14.4357C5.07136 14.2535 5.11269 14.0438 5.25168 13.9039L5.25184 13.904ZM9.82347 18.8647C9.40218 18.8647 9.01299 19.0895 8.80223 19.4544C8.59169 19.8192 8.59169 20.2686 8.80223 20.6334C9.01298 20.9981 9.40218 21.2228 9.82347 21.2228H12.1814C12.6027 21.2228 12.9919 20.9981 13.2026 20.6334C13.4132 20.2686 13.4132 19.8191 13.2026 19.4544C12.9919 19.0895 12.6027 18.8647 12.1814 18.8647H9.82347Z" fill="#80888C"/>
</svg>
