<!-- Generated by IcoMoon.io -->
<svg version="1.1" xmlns="http://www.w3.org/2000/svg" width="614" height="1024" viewBox="0 0 614 1024">
<title></title>
<g id="icomoon-ignore">
</g>
<path d="M596.609 20.479l-589.294-7.136 2.134 171.348 46.69 0.566 1.597 127.812c0.758 72.821 32.79 142.096 87.154 190.043-53.393 46.873-83.724 115.618-82.685 188.448l1.588 127.075-46.689-0.565 2.141 171.356 589.36 7.253-2.142-171.362-46.691-0.565-1.595-127.792c-0.734-72.885-32.797-142.201-87.213-190.169 53.386-46.876 83.722-115.615 82.684-188.445l-1.586-127.075 46.689 0.566-2.142-171.358zM84.421 108.936l-0.219-18.071 437.453 5.4 0.219 18.071-437.453-5.399zM133.527 313.060l-1.583-127.085 344.196 4.376 1.597 127.832v0.029c0.96 65.58-34.529 124.948-91.417 153.787l-65.273 33.213 65.618 34.857c57.985 30.495 94.989 91.121 95.659 156.745l1.586 127.122-344.114-4.245-1.592-127.813-0.001-0.088c-1.209-65.63 34.303-125.077 91.34-153.705l0.071-0.038 65.213-33.181-65.641-35.027c-57.983-30.498-94.988-91.124-95.659-156.748l-0.001-0.032zM94.198 913.642l-0.219-18.069 437.453 5.401 0.219 18.069-437.454-5.401z"></path>
</svg>
