<svg width="46" height="46" viewBox="0 0 46 46" fill="none" xmlns="http://www.w3.org/2000/svg">
<path d="M0 11.5L11.5 0H34.5L46 11.5V34.5L34.5 46H11.5L0 34.5V11.5Z" fill="#FFB21C"/>
<path d="M8.52533 19.0267C7.70644 19.0267 7.07239 19.3355 6.62317 19.9532C6.17395 20.5662 5.94934 21.4225 5.94934 22.5222C5.94934 24.8104 6.808 25.9545 8.52533 25.9545C9.24595 25.9545 10.1187 25.7743 11.1434 25.414V27.239C10.3011 27.5899 9.3606 27.7654 8.32178 27.7654C6.82906 27.7654 5.6873 27.3138 4.89648 26.4107C4.10567 25.5029 3.71027 24.202 3.71027 22.5081C3.71027 21.4412 3.90446 20.5077 4.29285 19.7075C4.68123 18.9027 5.23808 18.2873 5.96338 17.8615C6.69336 17.431 7.54734 17.2158 8.52533 17.2158C9.52203 17.2158 10.5234 17.4567 11.5295 17.9387L10.8276 19.7075C10.4439 19.525 10.0578 19.3659 9.66943 19.2302C9.28105 19.0945 8.89968 19.0267 8.52533 19.0267ZM17.2921 27.625H15.1162V19.1741H12.3297V17.3632H20.0787V19.1741H17.2921V27.625ZM30.9722 22.48C30.9722 24.1786 30.5511 25.4842 29.7088 26.3967C28.8665 27.3091 27.6592 27.7654 26.087 27.7654C24.5147 27.7654 23.3074 27.3091 22.4651 26.3967C21.6229 25.4842 21.2017 24.174 21.2017 22.466C21.2017 20.758 21.6229 19.4548 22.4651 18.5564C23.3121 17.6533 24.5241 17.2017 26.101 17.2017C27.678 17.2017 28.8829 17.6556 29.7158 18.5634C30.5534 19.4712 30.9722 20.7768 30.9722 22.48ZM23.4829 22.48C23.4829 23.6265 23.7005 24.4898 24.1357 25.0701C24.5709 25.6503 25.2213 25.9404 26.087 25.9404C27.823 25.9404 28.691 24.787 28.691 22.48C28.691 20.1684 27.8277 19.0126 26.101 19.0126C25.2353 19.0126 24.5826 19.3051 24.1427 19.89C23.7028 20.4703 23.4829 21.3336 23.4829 22.48ZM41.22 27.625H39.0511V19.1741H35.2749V27.625H33.099V17.3632H41.22V27.625Z" fill="white"/>
</svg>
