<!-- Generated by IcoMoon.io -->
<svg version="1.1" xmlns="http://www.w3.org/2000/svg" width="945" height="1024" viewBox="0 0 945 1024">
<title></title>
<g id="icomoon-ignore">
</g>
<path d="M518.25 47.895l106.61 225.883c7.414 15.71 21.748 26.596 38.33 29.112l238.402 36.224c41.756 6.35 58.415 59.996 28.215 90.778l-172.508 175.824c-11.988 12.226-17.469 29.854-14.63 47.11l40.715 248.271c7.135 43.481-36.516 76.635-73.86 56.123l-213.22-117.209c-14.827-8.145-32.553-8.145-47.38 0l-213.22 117.209c-37.344 20.535-80.998-12.642-73.86-56.123l40.715-248.271c2.84-17.257-2.642-34.885-14.63-47.11l-172.504-175.824c-30.207-30.802-13.546-84.448 28.215-90.778l238.399-36.224c16.582-2.516 30.916-13.402 38.33-29.112l106.61-225.883c18.653-39.565 72.598-39.565 91.27 0z"></path>
</svg>
