<!-- Generated by IcoMoon.io -->
<svg version="1.1" xmlns="http://www.w3.org/2000/svg" width="1002" height="1024" viewBox="0 0 1002 1024">
<title></title>
<g id="icomoon-ignore">
</g>
<path d="M853.436 510.51c0 192.525-156.073 348.596-348.596 348.596-192.525 0-348.596-156.071-348.596-348.596 0-192.523 156.071-348.595 348.596-348.595 192.523 0 348.596 156.072 348.596 348.595zM504.841 793.744c156.426 0 283.234-126.808 283.234-283.234s-126.808-283.234-283.234-283.234c-156.426 0-283.234 126.808-283.234 283.234s126.808 283.234 283.234 283.234zM412.541 386.275c-9.512-9.512-24.933-9.512-34.443 0-9.512 9.512-9.512 24.933 0 34.446l92.304 92.304-92.308 92.306c-9.51 9.512-9.51 24.933 0 34.446 9.512 9.51 24.933 9.51 34.446 0l92.306-92.308 92.304 92.304c9.512 9.512 24.933 9.512 34.446 0 9.51-9.51 9.51-24.931 0-34.443l-92.304-92.304 92.302-92.302c9.51-9.512 9.51-24.933 0-34.446-9.512-9.51-24.933-9.51-34.446 0l-92.302 92.302-92.304-92.304z"></path>
</svg>
