<!-- Generated by IcoMoon.io -->
<svg version="1.1" xmlns="http://www.w3.org/2000/svg" width="26" height="32" viewBox="0 0 26 32">
<title>trash</title>
<path d="M10.050 1.932h5.5v0.9h1.986v-1.026c0-0.996-0.832-1.806-1.856-1.806h-5.761c-1.023 0-1.856 0.81-1.856 1.806v1.026h1.986v-0.9z"></path>
<path d="M22.123 11.238h-18.646c-0.511 0-0.913 0.424-0.872 0.919l1.558 17.991c0.087 1.046 0.984 1.852 2.063 1.852h13.146c1.078 0 1.976-0.806 2.063-1.853l1.559-17.991c0.041-0.495-0.361-0.919-0.872-0.919z"></path>
<path d="M25.557 7.504l-0.652-1.901c-0.172-0.501-0.655-0.839-1.198-0.839h-21.814c-0.543 0-1.026 0.338-1.198 0.839l-0.652 1.901c-0.126 0.367 0.038 0.741 0.343 0.927 0.125 0.076 0.272 0.122 0.434 0.122h23.96c0.162 0 0.31-0.046 0.434-0.122 0.306-0.187 0.469-0.561 0.343-0.927z"></path>
</svg>
