<!-- Generated by IcoMoon.io -->
<svg version="1.1" xmlns="http://www.w3.org/2000/svg" width="1024" height="1024" viewBox="0 0 1024 1024">
<title></title>
<g id="icomoon-ignore">
</g>
<path d="M669.013 0h-314.027c-286.72 0-354.987 68.267-354.987 354.987v314.027c0 286.72 68.267 354.987 354.987 354.987h314.027c286.72 0 354.987-68.267 354.987-354.987v-314.027c0-286.72-68.267-354.987-354.987-354.987zM815.996 325.333c22.579 0 27.324 11.625 22.579 27.447-9.493 43.506-100.463 171.653-100.463 171.653-7.91 12.659-11.072 18.987 0 33.225 3.9 5.461 12.224 13.611 21.743 22.938 9.792 9.591 20.851 20.425 29.675 30.852 32.077 36.083 56.247 66.522 62.98 87.501 6.153 21.052-4.514 31.718-25.847 31.718h-74.667c-19.998 0-30.071-11.204-51.831-35.409-9.225-10.261-20.548-22.857-35.618-37.926-44.297-42.718-63.283-48.256-74.359-48.256-15.027 0-19.524 4.258-19.524 25.591v66.961c0 18.372-5.871 29.039-53.333 29.039-79.104 0-166.035-48.026-227.735-136.619-92.551-129.732-117.865-227.821-117.865-247.598 0-11.074 4.267-21.117 25.6-21.117h74.667c19.083 0 26.26 8.352 33.417 29.028 36.518 106.379 98.091 199.341 123.404 199.341 9.493 0 13.845-4.369 13.845-28.476v-109.955c-1.715-31.299-12.646-44.835-20.745-54.86-5.001-6.191-8.921-11.044-8.921-17.915 0-8.351 7.135-17.163 18.999-17.163h117.333c15.821 0 21.333 8.461 21.333 27.447v147.922c0 15.821 6.869 21.359 11.614 21.359 9.493 0 17.404-5.538 34.807-22.938 53.79-60.122 91.759-152.673 91.759-152.673 4.749-11.074 13.5-21.117 32.486-21.117h74.667z"></path>
</svg>
