<svg width="2294" height="1959" fill="none" xmlns="http://www.w3.org/2000/svg"><path d="M617.353 704.524c-125.648 47.631-163 239-178.001 290-15 50.996-42 335.996 198.019 293.426 254.89-34.38 372.359-191.38 572.359-81.37C1551.74 1394.8 2046 1316 2046 1316v-240s-101.74 20.88-225.14-36.83c-144.57-67.677-230.24-328.277-453.51-380.646-157.62-22-202.9 100.405-303 92-130.998-11-140.997-162-446.997-46z" fill="#D8EEFE"/><path d="M1062.17 976.908c-39.11 122.712-220.817 102.612-221.817 200.612-.597 58.54-227.215 1.28-345.352 0-35.15-.38-117.648 61.48-117.648 61.48s-7.647 31.82 0-262.092C385.001 683 377.354 715 377.354 715s74.151 32.04 92.999 9.523c18.527-22.133 82.25-15.624 103.625 27.125 21.375 42.75 174.317 234.462 287.41 205.991 104.347-26.309 118.008-216.21 162.042-200.62 37.18 13.168 64.92 137.615 38.74 219.889z" fill="#99D4FF"/><path d="M690.674 1392.28c109.012 85.77 333.676-204.76 207.679-182.76-126 22-35-127-404.999-26-34.957 32.83 3.437 167.49 40.948 194 52.122 36.87 85.862-40.69 156.372 14.76z" fill="#fff"/><path d="M1958.47 1103.4c.83-.1.69-.1.83-.1-1.66.3-.76.1-.83.1zM1941.89 1106.4l.35-.1-2.49.6 2.14-.5zM1926.42 1109.1c1.52 0 5.59-1 8.36-1.4h.48l1.24-.4c-3.38.6-7.73 1.5-10.08 1.8zM1918.06 1109.7c.55.1-1.8.4 1.93-.3h-.34c-.35.2-.76.2-1.59.3z" fill="#99D4FF"/><path d="M1919.65 1109.5c1.66-.3-1.11.1 0 0zM1912.12 1110.7l2.14-.4c-.48 0-2.35.2-1.66 0-2.21.4-1.79.4-.48.4zM1910.12 1111.3l1.1-.2c-.21 0-.55 0-1.1.2zM1913.57 1110.6l-2.35.5c.35 0 .35.2 1.11-.2-.21.1.2-.1 1.24-.3zM1914.88 1110.5c1.24-.1 2.76-.3.62.2 4.15-.8 3.53-.9-.62-.2zM1925.66 1109.6l1.59-.2 1.38-.3c-.69.1-3.11.4-2.97.5zM1898.65 1112.4c-.14.1.76.2.9.3l1.58-.4c-.82.1-2.34.2-2.48.1zM1899.55 1112.7l-2.35.5c2.14-.3 2.48-.4 2.35-.5zM1909.77 1111.9l3.87-1-4.63 1.1.76-.1zM1889.53 1113.6l1.31-.5-2.35.7 1.04-.2zM1883.52 1114.4c.97-.4-1.38-.3-.34-.6-1.66.2-3.04.6-4.29 1 1.32-.3 2.77-.4 4.63-.4zM1876.82 1115.4l2.07-.6-2.07.6zM1893.12 1113.7c-.21 0-.55-.2-1.93-.1l.96.2c.35 0 .7 0 .97-.1zM1892.22 1113.9c-1.03.1-1.72.2-2.07.2.28 0 .9-.1 2.07-.2zM1893.4 1113.7h-.21c.07.1.07.1.21 0zM1903.48 1112.6c-1.38.4-4.28 1-1.45.8.97-.3-.62-.2 1.45-.8zM1894.57 1114l2.56-.3c-.07-.1-.55-.1.14-.3l-2.7.6zM1893.33 1114.3l1.24-.3-.96.1-.28.2zM1881.17 1115.2c-1.1.3-2.28.5-3.59.7 1.45-.1 2.97-.3 4.35-.5.14-.1.76-.4-.76-.2zM1886.56 1114.6c-.07 0-.14 0-.21.1.07 0 .21 0 .21-.1zM1864.25 1117.8h.21s0-.1.06-.1l-.27.1z" fill="#99D4FF"/><path d="M1882.14 1115.5c1.1-.1 1.73-.3 2.35-.5-.83.1-1.66.3-2.63.4-.07.1-.07.2.28.1zM1873.09 1116.1h1.93c-.62-.1-1.72-.1-1.93 0zM1885.94 1114.6h.14c-.35-.1-.28 0-.14 0zM1885.94 1114.6c-.55.1-.97.3-1.45.4.69-.1 1.24-.2 1.79-.4h-.34zM1860.38 1121.1c.14-.4 2.97-1.2 5.53-1.1 2.41-.7.76-1.8-1.46-2.2-.06.2-.06.3-2.55 1 .9.1 5.59-.3 3.52.4-3.31.7-2.69.3-4.35.3 1.38.3-4.14 1.3-3.38 1.9l2.9-.7c0 .1-1.04.5-.21.4zM1869.22 1117.2l1.04-.2c-1.18.1-2 .1-3.59 0-1.73.5-2.08.7-2.14.8l5.04-.7-.35.1zM1874.89 1116.4c-.76.5-3.25 1.1-1.66 1.3 3.04-.5 2.07-.7 3.87-1.1-4.91.8 1.31-.5-2.21-.2.96-.2 1.86-.3 2.69-.4-.9.1-1.73.1-2.56.2H1875.23h-.07c-.14 0-.21.1-.27.2-1.46.1-.21-.1.2-.2 0 0 .07 0 .07-.1l-4.83.9c.96-.1 2.21-.3 4.56-.6zM1899.48 1114.5h-.14c-.35.1-.42.1.14 0zM1897.47 1114.7c.35-.1.63-.3 1.8-.4 1.04-.1 0 .2.07.2.69-.2 2.42-.6.21-.4l-.35.1c-2 .2-4.56.2-4.21.1.62.2 1.17.3 2.48.4zM1886.01 1115.8l-4.08.8h2.07l-.13-.2c2.41-.3 1.86-.4 2.14-.6zM1863.76 1117.7l.49-.6-2.28 1 1.79-.4zM1858.45 1118.5l.2-.4-1.38.4h1.18zM1559.83 1111.7l-1.18-.2c.55.1.9.2 1.18.2zM1568.39 1114.1l.21-.1c-.35 0-.55 0-.21.1zM1728.44 1128.7c-1.72-.4-3.73-.9-3.45-.5l.55.4c1.18-.1 2.14 0 2.9.1zM1639.27 1125.9c.13.1.34.1.48.2.41-.1.83-.2 1.17-.3-.48 0-1.1.1-1.65.1zM1637.88 1127.5l-2.28-.6c.56.2 1.25.4 2.28.6zM1513.41 1096.3s-.35 0-.69-.1c-.35 0-.69-.1-.69-.1 2.07 1 1.24.4 1.38.2zM1804.36 1125c-1.52 0-2.69 0-3.8.1 1.87.1 3.32.3 3.8-.1zM1563.83 1108.1c-.76-.1-1.03-.1-1.03 0 .76.1 1.17.2 1.03 0zM1796.21 1125.5h.83c1.1-.2 2.21-.3 3.52-.4-1.31-.1-2.9-.1-4.35.4zM1356.81 993.504l-.28-.4c-.07.1.07.2.28.4zM1317.23 948.704c.41.4 1.04 1.2 1.59 1.8-.21-.3-.69-.9-1.59-1.8zM1837.24 1121.1c1.1-.1.14 0 0 0zM1842.77 1122.1c-.21.1-.42.2-.42.3.07-.1.21-.2.42-.3zM1838.9 1121.1c-.42 0-.9 0-1.45.1.27 0 .69 0 1.45-.1zM1838.69 1120.9c.41 0 .69-.1.97-.1.13 0 0-.1-.97.1zM1835.65 1121.3c.62-.1 1.24-.1 1.8-.2h-.28c-.28.1-.76.1-1.52.2zM1438.25 1056.4c-.07-.1-.14-.1-.21-.2-1.1-.4-.62-.2.21.2zM1695.08 1132.9c1.73-.5 2.69-.3 4.01-.2l-1.32-1.3-2.69 1.5z" fill="#99D4FF"/><path d="M1539.45 1105.5l2.69 1.3c-3.45-.5-5.87-1.5-3.31-.1.62-1.2 10.84 3.4 11.4 2.2l1.79.9c-.55-.2-.62-.1-1.1-.3 1.72.9 2.41.9 3.24.8.83-.1 1.8-.2 4.08.6 1.59.5 2.69 1.1 1.59.9l3.66.7c1.03.3.76.5-.28.2l5.46 1.4h-.07c.83 0 2.62.2 3.52.3 1.38.6-.69-.1-.41.2l3.04.5c1.17.7-1.38.3-3.46-.3 2.7 2.1 2.56.4 8.57 2.6l-2.9-.5c1.79 1.2 4.07 1.4 7.25 2.7-.76-.4-6.35-2.7-3.04-2.3.9.3 2.14.7 3.94.8-.07.5 1.73.8 3.87 1.3l-.21.6c2.35.4 2.21 0 3.66 0 2.63.7 3.11 1.3 3.66 1.8 4.22.9-2.83-1.3 2.14-.5 3.46.9 6.01 1.1 10.23 1.6 2.41.7-.49.3.41.7l2.21-.1c.55.1.35.2.28.3 1.86.2.21-.6 3.11-.2.41-.3 1.86.3 3.66.8 1.79.5 4 1.1 5.8 1 .9.3-.48.3-.21.6 4.98.2 4.22.3 8.29.2l3.39.9c-2.49-.9.76-.9 3.59-1-.9-.3-1.66-.6-2.14-.8 0 0 1.1.1 2.28.1 1.1 0 2.28.1 2.28.1.55.2.07.3-.69.5.27 0 .62 0 .82-.1 1.59.4.76.7-.41.9-.55-.2-1.11-.4-1.59-.6-1.1.3-2.21.6-2 1h1.52c-.28.1-.49.1-.35.2s.62 0 1.38-.1l.97.8.28-.3 5.87 1.1c2.14-.1 4.14-.3 6.42-.5 2.28-.1 4.91-.1 8.29 0-1.66.4-.41.8-.48 1.4-1.8-.8-5.18-.2-8.71-.8 1.8.3 1.39.5.9.6 0 0 1.59 0 3.11.1H1659.85c-.14.5 1.31.5 2.9.8-1.17-1.1 4.63-.3 7.19-.4.13.3-.49.6-3.53.3 3.39 1 4.42-.8 7.74.1-.76-.1-1.18-.1-1.45 0 1.79-.2 6.08.4 5.04.6l-.76-.1c2.49.3 6.29.5 9.6.5 3.25 0 6.01-.1 6.43-.5.07.1-.69 1-.97 1.2l8.98-2.4c-.83.7 2.21 2.6-1.93 2.8 1.17.2 2.69.4 5.18.1-.83-.1-2.01-1.1-.9-1.1 3.04.9 2.14.5 5.87 1.2-1.24-.2.14-1.3 2.07-1.2-.27.2.14 1.1-.55 1.2l4.83-1c-1.17.2-.2.9.83 1.3-.48-.2 4.15.1 5.46 0l-2-.3c1.38.1 2.35 0 3.18-.1.82-.1 1.51-.4 2.14-.6 1.31-.4 2.62-.9 5.32-.9-.63.2-1.59 1.4 1.1 1.6 1.24-.6 5.53-2.8 10.29-3.3l.9.3 1.8-.2c.9-.1 1.79-.3 1.79-.3-2.28 1-8.56 2.8-12.09 3.6 2.01.2.56.4 3.6.3 1.1.3-1.66.5-2.56.5l7.05.1c-.14-.3 1.17-.5 2.55-.7 1.38-.2 2.7-.4 2.56-.7 0 0-.49.1-1.18.2s-1.65.2-2.62.3l-3.87.4c-.34-.7 4.42-1.9 9.4-2 1.24.2-.97 1.2-.83 1.5.62-.3 4.76-.6 5.18-.5l-2.14.4c2.76.1 4.55-1.1 7.87-.5 1.17 0 3.45.7 3.66.3-1.93-.7-2.35-3.1-1.1-3.7.2 0 1.72.2 3.38.3 1.66.2 3.39.3 4.08.4 1.93.5-2.84 1.6-1.18 2 .07-.2 1.11-.5 1.52-.6 1.25.1-.48.6 2.14.4.42-.7 5.39-.3 1.25-.7 2.55-.4 2.76 0 5.73-.3-.97-.4 2.69-1.7 5.25-2-.14.2.41.4.69.5 5.25-.3 8.15-.3 13.06-.7.48.1 2.83.1 1.86.5.69-.2 1.31-.5 2.83-.6 2.97.3-3.38.4-1.1.9.21-.4 3.87-.9 6.08-1.3-.69-.6-4.98.3-7.19.7-.07-.8 3.66-2 8.78-2.9 4.07-.6 1.79.4 2.48.2 7.67-.7 6.43-2.2 12.85-2.2 2.56.3.14 1.1.76 1.4-3.32.6-5.11.2-7.39.5h2.76c-1.03.3-3.24.7-4.49.6 1.04.1 4.29-.2 8.02-.6 1.86-.2 3.79-.4 5.73-.6 1.86-.2 3.66-.4 5.18-.4 1.04-.3 2.83-.7 2-.8l-1.86.3c-1.73-.2 3.45-1 1.1-.9 2.49-.6 5.25-1.5 8.84-1.7l.7.5c-.07-.2-2.35-.1-3.32.2 1.45-.5 5.46.1 7.05-.9l-2.49-.1c2.49-.6 5.59-1.7 8.7-1.9-1.45-.4-.69.2-2.97-.2 2.01.6-8.01 1-4.83 1.5-2.35-.5-3.94.2-6.98-.2.14.2 1.11.3-1.52.5-.14.1-.41.2-.55.3h-.21.14c-.14 0-.14.1.07 0 .62 0 1.17.1 1.38.1-1.24.6-5.46 1.1-6.84 1.6-1.59.1.62-.3-.21-.4l-2.07.6c-.21-.4-4.21-.3-.55-.9l-3.32.3c-1.93 0-4.63.1-6.28.5-1.59.1-3.94.9-2.56.4l-5.18.8-.07-.1c-1.31.1-2.55.3-3.87.5-1.31.2-2.62.3-4 .5-2.7.3-5.53.6-8.5.4-1.73.3-3.52.6-6.36.7l-.55-.3c-2.21.4-6.63.1-7.6.5-2.41-.9-10.77.4-14.64.5l-.14.5c-2.69.1-5.25.3-8.56.7l.2.4c-2.83.5-7.39 0-11.95.2.28-.2 1.45-.2 2.28-.1-5.45-.7-11.46 1-16.37.3-1.24.2-2.14.1-2.97 0h.28-.49c-.55-.1-1.1-.1-1.72-.2.48.1 1.03.2 1.45.2-.97 0-2.35.1-3.8.2l-.62-.5h-.35c-1.38-.2-1.1.2-.34.6-.7.1-1.39.2-1.87.3-1.1-.8-3.66.2-5.18-.7-.97.4-7.05.2-7.81 1-.06-.1-.48-.2.28-.2-1.59-.1-3.11-.2-4.56 0l-.69-.6-3.45.8c-2.08-.5-2.9-.7-.83-1.1-4.98.5-4.08.1-8.29.6l.21-.4c-1.52-.1-3.94.4-4.84 0-.83-.2-2.28-.4-4.14-.5-.97-.1-1.94-.1-3.04-.2-1.11-.1-2.28-.2-3.46-.3-4.83-.4-10.36-.9-14.71-1.6 1.66 1.3-4.01-.8-4.42 0-.49-.3-1.66-.6-.28-.7-4.42-.2-6.63-1.2-9.74-.8-.48-.3.97-.3.55-.5-.34 0-1.45.1-1.86-.1-.41-.2.69-.2 1.38-.2-4.49-.5-5.04.3-5.39 1.1-2.28-.7-3.38-.7-5.11-.4-.76-.4-2.07-.9.69-.5-1.59-.3-9.6-1.8-9.81-1.2-.48-.2-2.21-.4-2.62-.4-3.52-.6-3.87-.7-7.32-1.2l.96.3c-.69.3-1.45.2-2.34 0-.9-.2-1.94-.5-3.39-.8l.07-.1c-6.36-1.8-2.76-.3-9.05-2.1l.28.5c-.69.9-5.53-1.7-9.26-2 0 0 .35.2.62.3.35.1.62.3.62.3-2.07 0-5.45-2.7-7.39-3.2-.41-.2.69 0 1.31.1-5.18-1.8-.75.5-4.69-.3-.69-.5 1.03-.6-1.59-1.3-.62-.3-2.56-.5-4.77-.7-2.21-.3-4.69-.7-6.42-1.5.76.5 1.52.9-.35.6-2.76-.7-7.32-3-9.94-2.9-.35-.2-.49-.3-.49-.3-2.14-.4-6.91-1.6-8.22-1.5-1.72-2.3-13.19-3.5-12.91-4.9l-6.5-2 .21-.1c-4.08-1.5-5.6-1.8-7.12-2-.89-.5-.2-.3-.13-.4-5.94-2.5-6.57-2.7-11.68-3.8l-.41-.7c-.35-.1-1.04-.3-2.01-.8a75.5 75.5 0 00-3.45-1.7c-2.69-1.3-5.87-2.8-8.84-3.8.07 0 .21-.1.69.1-1.66-.6-3.45-1.3-5.25-2.2-.9-.4-1.8-.9-2.69-1.3-.9-.5-1.73-.9-2.56-1.4-3.32-1.8-6.15-3.2-7.53-2.9l-4.35-1.6c5.52 2.8-.97.3 1.24 1.7-2.21-1-5.52-3.2-2.83-2l.41.3c.63-.2-1.1-1.1-2.9-2-1.79-.9-3.73-2-3.59-2.2-5.39-2.9-10.64-5.9-15.82-8.8-.62-.4-1.31-.7-1.93-1.1-.62-.4-1.25-.8-1.87-1.2-1.24-.8-2.55-1.6-3.8-2.4-2.48-1.6-4.97-3.1-7.46-4.6l.97 1.4-3.45-2.1c-.83-.7-1.04-1.3 1.38.3-1.18-1.2-4.22-2.2-4.35-2.1-2.35-1.6-1.8-1.6-.9-1.1.97.4 2.28 1 1.52.6 0 0-.49-.3-1.04-.6-.27-.1-.48-.3-.69-.4-.21-.1-.27-.2-.27-.2l.41.4c-1.66-.8-1.93-.6-4.84-2.6-1.79-1.4-.82-1-1.52-1.6 0 0-.2-.2-1.1-.8l-4.28-2.9 1.52 1.7c-2.01-1-4.01-2.7-2.21-.8-.63-.7-1.94-1.8-3.6-3-.83-.6-1.72-1.2-2.62-1.9-.97-.6-1.87-1.4-2.83-2.1-3.8-2.8-7.46-5.5-8.22-6.2-2.77-1.6-5.32-3.5-8.5-5.9.35.3.62.8.41.8-.2.1-.82-.2-2.14-1.4 1.45-.4-4.69-4.6-6.56-7.2 1.73 2.2-7.67-6.2-4.97-2.9-2.21-2 .07-.6-1.52-2.2-1.38-1-2.83-2.1-4.22-3.3-1.38-1.3-2.9-2.6-4.35-4a295.06 295.06 0 00-9.39-8.496c-.14 0 .83 1.2-.62.2l-3.18-3.6c-1.31-1.1-1.45-.4-3.59-3 .27.4.69 1-.14.2-3.04-3.1-6.15-6.2-9.26-9.2-1.59-1.5-3.18-3-4.76-4.5-.83-.7-1.59-1.5-2.35-2.4l-2.35-2.4c-3.11-3.3-6.15-6.5-9.26-9.8-1.52-1.6-3.04-3.3-4.56-4.9-1.52-1.7-2.97-3.4-4.42-5.2 1.59 1.9.49.7-.76-.7.76.9-.07.1.07.3l-4.9-5.8c-.97-1-5.32-6.1-5.87-6.6l1.58 1.8c-2.07-2.4 2.84 3.5 2.49 3.2 1.18 1.3 2.7 3.2 4.35 5.3 1.66 2.1 3.53 4.4 5.46 6.6.83 1.1-.76-.8-.35-.2.49.5 1.04 1.2 1.73 1.9.69.8 1.52 1.7 2.63 3l-.28-.2c3.11 3.4 5.32 5.9 7.6 8.5 1.1 1.3 2.28 2.7 3.59 4.2.62.8 1.31 1.6 2.07 2.4.76.9 1.52 1.8 2.42 2.7l-.41-.8c1.52 1.6 1.79 2 2.48 2.8 1.94 1.4-4.28-4.4-2.48-3.2 1.79 2.6 10.91 11 11.95 13.1 2.35 2.4-.56-1.1 1.86 1.4l.55.8.69.4c1.52 1.6 2.22 2.7 2.22 2.9-.35-.4-1.11-1.1-1.52-1.5.48.6 1.03 1.2 1.72 1.9.62.6 1.32 1.3 2.01 1.8 1.31 1.2 2.48 2.2 2.76 2.496l-2.28-2.296c3.38 2.996 7.05 6.496 10.71 9.896 1.86 1.7 3.66 3.4 5.45 5 1.87 1.5 3.66 2.8 5.39 4.1l-.41-.6c5.25 3.8 4 3.5 9.67 8l-.21-.1c1.17.7 2.69 1.9 4.21 3.1-.76-.5-.13.2.49.8.55.6 1.1 1.1.14.5 5.8 3.8 2.9 1.8 6.9 3.8l.76 1c1.38.6 1.52.6 4.42 2.6-2.41-1.5 1.66 1.9-1.1.3 2.83 2.6 5.18 4.1 6.98 5.3 1.86 1.2 3.38 2 4.55 3.5 3.11 1-5.11-4.1-3.45-3.2-1.24-1.2 2.56.9 4.42 2.3 1.94 1.3 2.9 3.4 7.81 6.7-.49-.3-.56-.3-1.04-.6 1.73 1.5 3.66 2.1 5.8 4 1.45.3 2.97 1.9 3.53 1.4 0 0-.28-.2-.69-.4-.42-.3-1.04-.5-1.59-.9-1.11-.7-2.28-1.4-2.28-1.4 2.55 1.6 5.32 2.2 9.39 5.2-.34-.1-1.72-.6-2.62-1.1 1.17 1 2.41 1.3 3.66 2.3-.55.5-5.6-3.2-8.57-4.4 1.25 1.2 5.39 2.7 3.8 2.6 2.28.2 4.91 3.1 8.5 4.4l-.35.3c.56.3 1.73.7 2.7 1.3l-1.94-.5c2.9 1.2 5.11 3.7 7.88 4.9-5.53-3.3-1.11-1.3-3.32-3 3.46 1.8 4.35 2.6 5.39 3.5.97.9 2.07 2 5.94 4-1.04-.5-3.87-2.4-2.14-1.7 1.45.9 3.31 2.1 4.14 2.8 5.12 2.7-.69-.9 1.59 0 1.59 1.5 2.56 1.1 4.84 2.2l-.07.5c2.9 1.7 3.31 1.7 3.66 1.6.35-.1.69-.2 3.25 1.3l-2.42-.5 2.83 1.2-.69.2c3.11 1.1 4.01 1.6 6.91 3.2-.62-.7.55-.6 3.18.6 1.72 1.1-1.11 0 2.62 1.7-.9-.1-1.86-.2-3.38-1.4-.21.1-.9-.1-1.11 0 1.87 1.2 4.77 2.4 6.15 3-.49-.3-1.11-.6-1.45-.8l2.76 1c.69.3 1.38.4 1.93.6.56.2.9.3.9.3.83.5.14.4-.62.2 1.11.4 1.94.5 3.52 1.2-.48.2-.48.6-2.83-.2l5.25 1.8c.28.3 2.56 1.6 1.87 1.4 2.83 1.4 7.18 2.3 10.91 4.2.21 0 .62.1 1.45.3 3.59 1.4 6.7 3.1 11.05 4.2l2.28 1.6c3.39 1.1-3.11-2.1 2.49-.3 4.01 1.3 1.38 1.1 2.69 1.8 2.01.3 5.6.7 9.12 2.5-.69-.6-1.66-1-2.76-1.3zm41.72 11.7c-.83-.1-2.49-.2-3.04-.6 1.04-.3 1.73.1 3.04.6zm64.24 10.3c-.62.1-1.59-.1-2.62-.4.76.1 1.66.2 2.62.4zm179.53-4.5h0zm3.8-.2c.35-.1.35-.2.21-.2-.28.2-1.11.2-2.07.3.27.1.76.1 1.86-.1zm-400.5-76.5l.62.6c-1.59-.9-1.11-.7-.62-.6z" fill="#99D4FF"/><path d="M1638.09 1127.3c-.21-.1-.28-.2-.34-.3-.35.1-.35.2.34.3zM1513.68 1096.4l-.13-.1h-.14l.27.1zM1770.03 1131.9c-.76 0-1.25-.1-1.52-.2-.07.2.27.2 1.52.2zM1848.78 1119.4l-2.42.4c1.17-.2 1.59-.1 2.21-.1-.07-.1-.55-.2.21-.3zM1870.05 1119.4c.35-.1.76-.1 1.11-.2l-.14-.2c-1.45.2-2.49.5-.97.4zM1851.12 1120.7c.21.4 1.73 0 3.46-.3h-.28c.42-.5-1.38-.1-3.18.3zM1854.99 1120.4c.55-.1 1.04-.2 1.59-.2.14-.3-.69 0-1.59.2zM1833.58 1121.9c.83 0 .48-.6.96-.5.83-.6-5.38 1.4-.96.5zM1852.64 1121.9l-.69-.4-.9.5 1.59-.1zM1839.17 1123.2l2.77-.2c-.07-.1.27-.2.69-.3-1.73.3-3.53.4-3.46.5zM1842.56 1122.8c.9-.1 1.73-.2 2.21-.4-.48.1-1.45.2-2.21.4zM1848.91 1122.5h-.83l-1.93.2 2.76-.2zM1809.88 1126.4s-.76.1-1.45.2c-.76.1-1.45.2-1.45.2-.27.2.56.2 1.66.1.62-.1 1.66-.3 1.24-.5zM1818.93 1126.9c-.82 0-.89-.1-1.31-.2l-.07.6 1.38-.4zM1810.23 1127.9c-.28.2-4.28.9-.55.5.34-.2 3.31-.6.55-.5zM1765.33 1130.5l.76-.1-.14-1-.62 1.1zM1725.75 1133.9c3.52.2.83-.6 4.01-.4.82-.2-2.63-.2-1.8-.4-2.07.3-3.18.1-2.21.8zM1728.03 1133.1c.34 0 .69-.1 1.1-.2-.62.1-.89.1-1.1.2zM1310.74 941.204l-1.8-2.1 1.17 1.4.63.7zM1307.28 937.304l-.41-.5-1.11-1.2c.42.5 1.25 1.3 1.52 1.7zM1587.32 1119.9l.21-.1c-.35-.2-.83-.4-1.94-.7l1.73.8zM1556.93 1111.5l.55.2-.9-.9.35.7zM1531.51 1104.1c1.03.4 2.28.7 3.31 1.1-1.1-.3-2-.8-2.55-1.1-.63-.3-.83-.4-.76 0z" fill="#99D4FF"/><path d="M1670.41 959.104c5.85 0 10.6-4.746 10.6-10.6 0-5.854-4.75-10.6-10.6-10.6-5.86 0-10.6 4.746-10.6 10.6 0 5.854 4.74 10.6 10.6 10.6zM1717.01 959.104c5.85 0 10.6-4.746 10.6-10.6 0-5.854-4.75-10.6-10.6-10.6-5.86 0-10.6 4.746-10.6 10.6 0 5.854 4.74 10.6 10.6 10.6zM1623.81 959.104c5.85 0 10.6-4.746 10.6-10.6 0-5.854-4.75-10.6-10.6-10.6-5.86 0-10.6 4.746-10.6 10.6 0 5.854 4.74 10.6 10.6 10.6zM1670.41 1006.3c5.85 0 10.6-4.74 10.6-10.596 0-5.854-4.75-10.6-10.6-10.6-5.86 0-10.6 4.746-10.6 10.6 0 5.856 4.74 10.596 10.6 10.596zM1717.01 1006.3c5.85 0 10.6-4.74 10.6-10.596 0-5.854-4.75-10.6-10.6-10.6-5.86 0-10.6 4.746-10.6 10.6 0 5.856 4.74 10.596 10.6 10.596zM1623.81 1006.3c5.85 0 10.6-4.74 10.6-10.596 0-5.854-4.75-10.6-10.6-10.6-5.86 0-10.6 4.746-10.6 10.6 0 5.856 4.74 10.596 10.6 10.596zM1530.61 959.704c5.85 0 10.6-4.746 10.6-10.6 0-5.854-4.75-10.6-10.6-10.6-5.86 0-10.6 4.746-10.6 10.6 0 5.854 4.74 10.6 10.6 10.6zM1577.21 959.704c5.85 0 10.6-4.746 10.6-10.6 0-5.854-4.75-10.6-10.6-10.6-5.86 0-10.6 4.746-10.6 10.6 0 5.854 4.74 10.6 10.6 10.6zM1484.01 959.704c5.85 0 10.6-4.746 10.6-10.6 0-5.854-4.75-10.6-10.6-10.6-5.86 0-10.6 4.746-10.6 10.6 0 5.854 4.74 10.6 10.6 10.6zM1530.61 1006.9c5.85 0 10.6-4.74 10.6-10.596 0-5.855-4.75-10.6-10.6-10.6-5.86 0-10.6 4.745-10.6 10.6 0 5.856 4.74 10.596 10.6 10.596zM1577.21 1006.9c5.85 0 10.6-4.74 10.6-10.596 0-5.855-4.75-10.6-10.6-10.6-5.86 0-10.6 4.745-10.6 10.6 0 5.856 4.74 10.596 10.6 10.596zM1484.01 1006.9c5.85 0 10.6-4.74 10.6-10.596 0-5.855-4.75-10.6-10.6-10.6-5.86 0-10.6 4.745-10.6 10.6 0 5.856 4.74 10.596 10.6 10.596zM1670.41 1053.5c5.85 0 10.6-4.74 10.6-10.6 0-5.85-4.75-10.6-10.6-10.6-5.86 0-10.6 4.75-10.6 10.6 0 5.86 4.74 10.6 10.6 10.6zM1717.01 1053.5c5.85 0 10.6-4.74 10.6-10.6 0-5.85-4.75-10.6-10.6-10.6-5.86 0-10.6 4.75-10.6 10.6 0 5.86 4.74 10.6 10.6 10.6zM1623.81 1053.5c5.85 0 10.6-4.74 10.6-10.6 0-5.85-4.75-10.6-10.6-10.6-5.86 0-10.6 4.75-10.6 10.6 0 5.86 4.74 10.6 10.6 10.6zM1670.41 1100.8c5.85 0 10.6-4.74 10.6-10.6 0-5.85-4.75-10.6-10.6-10.6-5.86 0-10.6 4.75-10.6 10.6 0 5.86 4.74 10.6 10.6 10.6zM1717.01 1100.8c5.85 0 10.6-4.74 10.6-10.6 0-5.85-4.75-10.6-10.6-10.6-5.86 0-10.6 4.75-10.6 10.6 0 5.86 4.74 10.6 10.6 10.6zM1623.81 1100.8c5.85 0 10.6-4.74 10.6-10.6 0-5.85-4.75-10.6-10.6-10.6-5.86 0-10.6 4.75-10.6 10.6 0 5.86 4.74 10.6 10.6 10.6zM1530.61 1055.8c5.85 0 10.6-4.74 10.6-10.6 0-5.85-4.75-10.6-10.6-10.6-5.86 0-10.6 4.75-10.6 10.6 0 5.86 4.74 10.6 10.6 10.6zM1577.21 1055.8c5.85 0 10.6-4.74 10.6-10.6 0-5.85-4.75-10.6-10.6-10.6-5.86 0-10.6 4.75-10.6 10.6 0 5.86 4.74 10.6 10.6 10.6zM1484.01 1055.8c5.85 0 10.6-4.74 10.6-10.6 0-5.85-4.75-10.6-10.6-10.6-5.86 0-10.6 4.75-10.6 10.6 0 5.86 4.74 10.6 10.6 10.6zM1530.61 1103c5.85 0 10.6-4.74 10.6-10.6 0-5.85-4.75-10.6-10.6-10.6-5.86 0-10.6 4.75-10.6 10.6 0 5.86 4.74 10.6 10.6 10.6zM1577.21 1103c5.85 0 10.6-4.74 10.6-10.6 0-5.85-4.75-10.6-10.6-10.6-5.86 0-10.6 4.75-10.6 10.6 0 5.86 4.74 10.6 10.6 10.6zM1484.01 1103c5.85 0 10.6-4.74 10.6-10.6 0-5.85-4.75-10.6-10.6-10.6-5.86 0-10.6 4.75-10.6 10.6 0 5.86 4.74 10.6 10.6 10.6z" fill="#15EEB5" fill-opacity=".3"/><path d="M2080.48 830.524c1.26-1.259 1.04-1.053 1.26-1.259-2.59 2.494-1.26 1.259-1.26 1.259zM2055.05 856.26l.38-.436-3.68 3.825 3.3-3.389zM2031.31 880.023c2.07-1.527 8.59-8.631 12.74-12.566l.66-.617 2.07-2.408c-5.07 5.036-11.93 12.298-15.47 15.591zM2019.25 890.511c.69-.316-2.79 3.001 2.88-2.676-.28.182-.28.182-.5.388-.61.641-1.27 1.259-2.38 2.288z" fill="#99D4FF"/><path d="M2021.63 888.223c2.43-2.264-1.61 1.417 0 0zM2010.16 899.529l3.3-3.389c-.56.364-3.44 3.04-2.39 1.987-3.26 3.111-2.7 2.748-.91 1.402zM2006.88 903.22l1.71-1.67c-.28.182-.62.34-1.71 1.67zM2012.21 897.702l-3.68 3.824c.45-.411.47-.11 1.65-1.694-.26.483.45-.412 2.03-2.13zM2014.27 895.872c1.83-1.623 4.1-3.658.74-.292 6.18-6.066 5.43-5.774-.74.292zM2029.96 881.836l2.44-2.265 2.19-2.36c-1.15 1.307-4.75 4.577-4.63 4.625zM1990.18 918.033c-.26.483.87-.244 1.05-.172l2.47-2.542c-1.23.981-3.5 3.016-3.52 2.714z" fill="#99D4FF"/><path d="M1991.23 917.86l-3.68 3.825c3.16-2.858 3.8-3.777 3.68-3.825zM2006 904.924l6.2-6.645-7.31 7.674 1.11-1.029zM1976.58 930.843l2.23-2.638-3.92 4.61 1.69-1.972zM1967.56 939.305c1.63-1.996-1.77.766-.12-.928-2.44 2.264-4.73 4.878-6.7 7.032 2.09-2.106 4.21-3.911 6.82-6.104zM1957.47 949.099c1.04-1.053 2.13-2.384 3.33-3.666-1.1 1.029-2.25 2.336-3.33 3.666zM1981.47 927.497c-.28.182-.58.062-2.64 1.891l1.15-.426a8.53 8.53 0 011.49-1.465z" fill="#99D4FF"/><path d="M1980.14 928.73c-1.55 1.441-2.65 2.47-3.09 2.882.38-.435 1.32-1.235 3.09-2.882zM1981.85 927.06c-.16.229-.22.205-.38.435.06.024.22-.206.38-.435zM1996.7 913.571c-2.19 2.36-6.69 7.032-2.63 3.652 1.63-1.996-.7.015 2.63-3.652zM1983.29 926.451l3.76-3.499c-.06-.024-.69.316.46-.991l-4.22 4.49zM1981.41 928.352l1.87-1.901-1.32 1.235-.55.666zM1963.71 943.94c-1.75 1.948-3.52 3.595-5.62 5.701 2.12-1.804 4.33-3.863 6.48-5.945.32-.46 1.35-1.815-.86.244zM1971.57 936.782c-.16.23-.22.206-.38.436.22-.206.44-.412.38-.436zM1938.29 968.215c.06.024.12.048.28-.182l.1-.254-.38.436z" fill="#99D4FF"/><path d="M1964.91 943.537c1.61-1.417 2.6-2.494 3.58-3.571-1.26 1.259-2.53 2.518-3.92 3.729-.16.23-.26.484.34-.158zM1951.89 954.525c.79-.57 1.73-1.369 2.58-1.915-.69.316-2.26 1.455-2.58 1.915zM1970.79 937.352c.06.024.16-.229.22-.205-.5.386-.5.386-.22.205z" fill="#99D4FF"/><path d="M1970.79 937.352c-.83.848-1.59 1.719-2.29 2.614 1.04-1.053 1.93-1.877 2.75-2.724-.18-.072-.4.134-.46.11zM1930.54 980.401c.56-1.245 5.11-6.194 8.53-8.655 3.78-4.078 2.25-4.978-.49-3.714-.2.507-.34 1.039-4.25 5.069 1.19-.703 7.97-6.529 4.64-2.863-5.01 5.06-3.95 3.428-6.24 5.161 1.77-.766-6.72 7.611-6.13 8.43l4.5-4.673c-.04.278-1.73 2.25-.56 1.245zM1945.66 961.447l1.65-1.695c-1.67 1.393-2.9 2.375-5.04 3.878-2.73 3.025-3.27 3.69-3.53 4.174l7.62-7.252-.7.895zM1954.11 953.346c-1.45 2.068-5.29 6.123-3.26 4.873 4.53-4.371 3.34-3.667 6.14-6.668-7.28 7.094 2.19-2.36-2.88 1.795 1.49-1.465 2.82-2.7 4.08-3.959-1.33 1.235-2.55 2.217-3.62 2.968.06.024.06.024.22-.206.28-.181.34-.158.06.024l-.16.23c-.26.484-.42.713-.58.943-2.05 1.829-.24-.096.42-.713l.16-.23s-1.87 1.901-3.64 3.547l-3.74 3.801c1.39-1.211 3.38-3.063 6.8-6.405zM1989.79 922.57c-.22.206-.22.206-.12-.048-.6.642-.77.871.12.048z" fill="#99D4FF"/><path d="M1986.79 925.197c.55-.665 1.09-1.331 2.8-3.002 1.45-1.187-.04.278-.08.556 1.15-1.307 3.78-4.079.62-1.221l-.54.665c-2.88 2.676-6.46 5.367-5.92 4.702.75-.293 1.43-.609 3.12-1.7zM1970.15 940.033l-6.22 6.343 2.86-2.097-.02-.302c3.42-3.341 2.74-3.025 3.38-3.944zM1937.67 968.555l1.1-1.91-3.96 4.887 2.86-2.977zM1929.76 975.989l.56-1.245-2.29 2.614 1.73-1.369zM1539.09 1211.75l-1.29.08c.58-.06 1.04-.17 1.29-.08zM1547.77 1212.83l.38-.43c-.47.11-.69.31-.38.43zM1744.36 1128.58c-2.07.65-4.23.97-4.29 1.83l.34.72c1.74-1.37 2.92-2.07 3.95-2.55zM1628.6 1194.9c.18.07.3.11.49.19.66-.62 1.16-1.01 1.77-1.65-.63.34-1.41.91-2.26 1.46zM1625.65 1199.89l-2.46.2c.52-.09 1.29-.08 2.46-.2zM1494.88 1197.23l-1.57.26c1.79 1.3 1.25.2 1.57-.26zM1850.19 1047.5c-2.07 1.53-3.7 2.64-5.15 3.83 2.37-1.41 4.25-2.43 5.15-3.83zM1546.9 1200.47c-.76-.01-1.27.38-1.31.66.87-.25 1.39-.33 1.31-.66zM1838.7 1056.74c.34-.15.72-.59 1.06-.75 1.61-1.41 3.22-2.83 5.12-4.43-1.7 1.09-3.83 2.59-6.18 5.18zM1400.76 991.189c-.02-.301-.04-.603 0-.881-.16.23-.08.556 0 .881zM1394.73 887.94c.12.928.13 2.69.29 4.221-.1-.627-.15-2.11-.29-4.221zM1898.35 1004.64c1.71-1.67.32-.46 0 0zM1905.36 1001.25c-.38.44-.7.9-.8 1.15l.8-1.15zM1820.92 1076.41s-.06-.03-.16.23c.5-.39.44-.41.16-.23zM1900.7 1002.93c-.56.36-1.28.96-2.01 1.55.28-.18.95-.8 2.01-1.55zM1900.56 1002.58c.51-.39.95-.8 1.39-1.21.22-.21.1-.25-1.39 1.21z" fill="#99D4FF"/><path d="M1896.07 1006.67c.95-.8 1.84-1.62 2.62-2.19-.28.18-.44.41-.34.16-.44.41-1.11 1.03-2.28 2.03zM1439.63 1126.75c-.06-.02-.02-.3-.08-.32-.83-.92-.51-.5.08.32zM1702.11 1164.1c.07.02.07.02.23-.21-.16.23-.23.21-.23.21zM1696.5 1168.04c2.59-2.5 3.84-3.18 5.45-3.71l-.79-2.08-4.66 5.79z" fill="#99D4FF"/><path d="M1563.4 1226.17l2.92 1.73c-4.16-.29-6.86-1.55-4.22.27.68-1.08 3.73-.08 6.85.96 3.04 1.01 6.29 1.71 6.9.8l1.91 1.13c-.59-.23-.72-.09-1.31-.32 1.83 1.11 2.83.93 3.83.74 1.07-.16 2.41-.59 5.02.25 1.82.71 2.99 1.37 1.62 1.22l4.32.54c1.23.29.74.68-.49.39 0 0 1.59.43 3.25.7l3.32.54-.08-.03c1.07-.16 3.29-.25 4.43-.38 1.53.61-.85.05-.62.53l3.8.15c1.25.88-1.91.79-4.36.21 2.53 2.93 3.15.08 9.97 2.58l-3.51-.23c1.77 1.67 4.57 1.61 8.2 3.05-.81-.51-7.14-3.2-2.91-3.27 1.02.4 2.53.61 4.75.52-.26.86 1.89.94 4.56 1.22l-.61 1.11c2.94 0 2.92-.58 4.77-.82 3.17.48 3.49 1.38 4.02 2.17 5.1.47-3.14-1.63 3.03-1.31 4.18.68 7.26.54 12.7.18 2.95.39-.77.66.25 1.06l2.98-.75c.65.06.37.34.16.45 2.36-.23.53-1.14 4.19-1.24 1.25-1.05 6.86 1.74 11.76.39.95.38-.76.67-.53 1.14 6.42-.94 5.49-.72 10.89-2.07l4.18.49c-2.9-.75 1.37-1.77 5.2-2.77-1.01-.4-1.88-.55-2.46-.78l5.92-.94c.64.06-.06.55-1.11 1.1.42-.22.85-.24 1.13-.32 1.94.19.68 1.04-1.01 1.72-.58-.23-1.3-.32-1.89-.55-1.62.71-3.16 1.65-3.07 2.26.42-.22 1.13-.32 1.92-.4-.42.22-.71.3-.63.53.15.05.85-.25 1.92-.6l.97 1.16.48-.58 7.32.18c2.9-.98 5.6-1.84 8.78-2.9 1.56-.55 3.27-1.03 5.04-1.49 1.78-.46 3.84-.99 5.98-1.31-2.4 1.18-.88 1.59-1.28 2.59-1.01-.4-2.72-.11-4.78.43-2 .37-4.27 1.01-6.49 1.1 2.29-.06 1.67.47 1.03.6 0 0 2.06-.54 4.12-.88 1-.18 2.06-.54 2.85-.61.78-.28 1.28-.27 1.28-.27-.4.81 1.52.41 3.53.43-1.06-1.58 6.31-1.95 9.78-3.09.02.59-.96 1.36-4.89 1.74 4.04.63 6.28-2.93 10.31-2.5-1 .19-1.5.18-1.99.57 2.48-.95 7.98-1.49 6.5-.72l-1 .19c3.21-.47 8.26-1.57 12.6-2.56s8.16-2.38 8.78-3.1c.01.2-1.37 1.97-1.78 2.39 0 0 3.23-1.81 6.53-3.79 3.24-1.81 6.54-3.79 6.54-3.79-1.31 1.41 1.91 3.45-3.76 5.46 1.5-.18 3.5-.55 6.9-1.72-1.07.16-2.26-1.08-.7-1.62 3.73.31 2.65.08 7.31-.01-1.58.15.71-2.23 3.26-2.96-.49.38-.22 1.84-1.21 2.22l6.9-3.65c-1.63.71-.66 1.67.63 1.8-.58-.23 5.54-1.48 7.38-2.3l-2.64.31c7.24-1.97 7.86-4.82 15.03-6.81-.91.6-2.76 3.16.93 2.1 1.95-1.54 8.57-7.04 15.14-9.85l1.15.07 5.08-2.24c-1.67 1.27-4.9 3.47-8.26 5.62-3.37 2.14-6.95 4.2-9.41 5.55 2.63-.51.58.42 4.76-1.02 1.3.13-2.45 1.54-3.59 1.87 0 0 2.35-.62 4.75-1.41 2.35-.62 4.76-1.4 4.76-1.4-.18-1.04 7.54-3.59 7.44-4.4l-10.66 4.67c-.18-1.04 6.77-5.24 13.51-7.41 1.64-.12-1.71 2.41-1.7 2.81.91-.61 6.64-2.98 7.21-2.95l-3.02 1.7c3.76-1.02 6.53-3.79 10.88-4.39 1.56-.54 4.43-.37 4.91-1.15-2.31-.33-2-4.07-.05-5.62.57-.16 8.1-2.01 9.82-2.11 2.43 0-4.38 3.87-2.38 3.89.13-.33 1.68-1.27 2.31-1.6 1.57-.34-.89 1.2 2.72-.28.88-1.39 7.35-2.89 1.88-1.57 3.66-1.84 3.68-1.25 7.92-3.05-1.16-.27 4.24-3.93 7.9-5.76-.2.3.44.36.87.34 7.28-2.92 11.11-4.11 18.03-7.17.57.03 3.83-1.19 2.36-.03.99-.58 1.96-1.35 4.15-2.42 3.91-.77-4.73 2.19-1.8 1.99.41-.8 5.69-3.35 8.78-5.22-.74-.68-6.99 3.03-10.01 4.74.12-.73 1.51-1.92 3.89-3.49 2.31-1.59 5.54-3.6 9.13-5.47 5.78-2.93 2.29-.25 3.34-.8 10.73-4.84 9.59-6.64 18.37-9.93 3.34-.81-.16 1.67.49 1.93-4.71 2.58-7.07 2.81-10.24 4.45l3.83-1.38c-1.55.93-4.64 2.6-6.34 3.29 1.42-.41 6.01-2.46 11.16-4.87 5.21-2.57 11.07-5.28 15.23-7.11 1.54-1.13 4.14-2.61 3-2.29l-2.67 1.45c-2.28.46 5.12-3.38 1.86-2.16 3.65-2.22 7.71-5.06 12.66-7.16l.8.51c-.08-.23-3.19 1.05-4.59 2.05 2.18-1.46 7.44-2.47 9.94-4.96l-3.4 1.17c3.64-2.43 8.19-5.65 12.57-7.59-1.87.03-1.05.74-3.98 1.13 2.51.03-11.34 5.76-7.21 5.07-2.99.36-5.51 2.27-9.49 3.2.08.23 1.36-.04-2.31 1.6-.14.14-.63.53-.84.64-.07-.03-.21.11-.21.11.07.02.07.02.21-.11-.14.13-.21.11.08.03.85-.25 1.55-.55 1.77-.46-2.02 1.71-7.87 4.61-9.9 5.94-2.19.87.98-.78-.17-.65l-3.08 2.07c-.16-.65-5.6 1.64-.4-1.32l-4.65 2.22c-2.63.89-6.37 2.5-8.76 3.88-2.19.87-5.62 3.38-3.66 2.03l-7.32 3.87v-.2c-7.13 3.17-14.99 7.98-22.8 10.11-2.4 1.18-5 2.66-8.9 4.02l-.65-.26c-3.1 1.48-9.06 3.18-10.59 4.51-2.96-.39-14.79 5.75-20.03 7.34l-.4 1.01c-3.61 1.27-7.27 3.11-11.87 4.96l.09.62c-4.08 2.05-9.99 3.2-16.22 5.37.49-.39 2.04-.93 3.11-1.09-3.5.36-7.45 2.08-11.4 3.8-3.89 1.56-7.64 3.17-10.84 3.64-1.77.85-2.9 1.17-4.05 1.3.22-.11.29-.08.43-.22-.21.11-.43.22-.64.13-.72.11-1.43.21-2.21.29.64.06 1.28-.07 1.85-.24-1.27.47-3.19 1.06-5.17 1.83l-.59-.63c-.21.11-.29.09-.5.2-1.78.26-1.62.9-.68 1.08-.99.38-1.91.79-2.61 1.29-1.17-.85-5.02 1.87-6.77.99-1.4.99-9.57 3.17-10.94 4.75-.01-.19-.58-.03.48-.38-2.06.34-4.06.71-6.1 1.64l-.6-.82-4.86 2.53c-2.65.11-3.66-.1-.77-1.46-6.92 2.86-5.46 1.7-11.39 4.19l.47-.78c-1.99.37-5.45 2.09-6.46 1.69-2.02-.21-7.57.88-13.91 2.04-3.13.5-6.55 1.08-9.76 1.55-3.28.45-6.43.75-9.15.84 1.64 1.6-4.95-.22-5.83 1.36-.51-.39-2.02-.41-.1-1.01-5.77 1.01-8.31.2-12.55 1.81-.52-.4 1.4-.8.89-1-.49.19-1.91.6-2.42.4-.51-.21.92-.41 1.91-.8-5.79.62-6.74 1.98-7.55 3.39-2.67-.47-4.17-.29-6.57.89-.87-.35-2.39-.75 1.18-1.08-2 .18-11.97-.09-12.5 1.05-.58-.23-2.79.05-3.3.05-4.37.01-4.73-.13-9.17.05l1.09.23c-2.11 1.29-3.72.27-7.16.26l.14-.13c-7.57-1.25-3.64.49-11-1.06l.17.84c-1.24 1.63-6.5-1.41-11.22-1.15 0 0 .36.14.73.29l.72.28c-2.64.31-5.98-3.13-8.29-3.66-.51-.2.92-.21 1.64-.12-5.94-1.77-1.12.91-5.99.72-.67-.65 1.6-1.3-1.5-1.94-.73-.29-3.1-.26-5.89-.2-1.36.04-2.8-.14-4.16-.29-1.37-.16-2.6-.45-3.55-1.02.74.68 1.54 1.19-.68 1.08-3.32-.53-8.22-3.43-11.64-2.85-.36-.14-.44-.37-.45-.56-2.58-.25-8.21-1.32-9.92-1.03-.56-1.76-4.46-2.53-8.07-3.18-3.6-.65-6.86-1.55-6.32-2.69 0 0-1.88-.55-3.63-1.24-.87-.34-1.88-.55-2.53-.81-.66-.25-1.09-.43-1.09-.43l.35-.24c-4.52-1.98-6.38-2.14-8.25-2.1-1.02-.6-.15-.45-.02-.59-3.21-1.65-5.03-2.56-6.7-3.22-1.74-.69-3.4-.96-6.37-1.74l-.25-1.07c-.86-.15-3-1.76-5.85-3.47-1.39-.93-2.93-1.93-4.61-2.78-1.68-.86-3.29-1.88-4.89-2.51.07.03.29-.08.86-.05-3.64-1.63-7.61-4.55-10.86-7.37-3.32-2.66-6.32-4.62-8.17-4.19l-4.67-2.43c5.46 4.47-1.41.6.67 2.78-2.27-1.48-5.27-5.17-2.48-3.3l.3.51c.85-.44-.85-1.88-2.62-3.35-1.77-1.47-3.62-3.17-3.35-3.64-10.9-8.55-20.51-19.1-29.66-29.09l.51 2.33-3.21-3.58c-.69-1.24-.65-2.19 1.59.43-.92-1.91-4.13-3.56-4.34-3.45-2.1-2.76-1.46-2.7-.5-1.94.95.57 2.28 1.68 1.61 1.03 0 0-.45-.57-.96-.96-.45-.57-.97-.96-.97-.96l.31.7c-1.69-1.25-2.04-1-4.73-4.19-1.58-2.16-.49-1.73-1.16-2.58 0 0-.16-.45-1.04-1.18 0 0-.97-1.16-1.95-2.31-.9-1.33-1.87-2.48-1.87-2.48l1.03 2.91c-1.92-1.72-3.53-4.67-2.34-1.3-.47-1.15-1.47-3.09-2.97-5.04-1.36-2.08-3.16-4.33-4.74-6.7-3.31-4.58-6.54-8.95-7.17-10.35-2.53-2.74-4.65-6.09-7.3-10.22.54 1.18.39 2.85-1.82-.91 1.91-.6-3.56-7.59-4.57-12.04.56 1.77-1.03-.79-2.62-3.16-1.51-2.33-2.88-4.61-2.06-1.78-1.7-3.37.32-1.03-.71-3.95-1.14-1.8-2.35-3.63-3.43-5.79a54.627 54.627 0 01-3.45-6.77c-2.25-4.74-4.7-9.58-7.31-14.47-.21.11.43 2.11-.85.25l-1.94-6.37c-1-1.93-1.6-.63-2.89-5 .16.64.34 1.68-.35.44-2.25-5.13-4.37-10.6-6.77-15.6-1.16-2.59-2.26-5.34-3.42-7.92-1.1-2.75-2.26-5.33-3.36-8.08l-1.65-4.13-1.64-4.12c-1.1-2.752-2.06-5.641-3.16-8.391-2.19-5.5-4.05-11.443-5.97-17.22 1.04 3.113.33 1.093-.54-1.179.49 1.542-.14.138-.05.558l-1.6-4.879c-.47-1.151-.8-2.44-1.12-3.337-.32-.898-.48-1.542-.48-1.542-.7-1.628-3.44-10.432-3.77-11.525l.97 3.084c-1.29-4.177 1.64 6.054 1.41 5.576 1.45 4.626 3.52 12.78 6.14 20.185.49 1.737-.55-1.375-.3-.311.71 1.824 1.5 4.068 2.8 8.441l-.16-.449c2.07 5.834 3.43 10.236 4.95 14.699 1.38 4.59 3.1 8.94 5.41 15.65l-.12-1.4c.96 2.89 1.12 3.53 1.6 4.88 1.59 2.56-2.85-7.89-1.41-5.58.44 2.3 2.18 7.23 4.13 11.67 1.88 4.6 3.61 9.15 3.74 10.94 1.65 4.12-.13-1.79 1.59 2.36l.26 1.46.67.64c1.1 2.75 1.44 4.44 1.31 4.77-.24-.67-.85-1.69-1.16-2.39 1.28 3.79 4.27 9.6 4.68 10.92l-1.58-4.1c5.09 10.51 10.93 24.01 16.88 32.34l-.18-1.03c2.2 3.37 3.03 4.67 3.87 6.35.78 1.66 1.7 3.37 3.98 7.17l-.16-.25c1.12 1.21 2.48 3.1 3.76 5.15-1.41-1.52 1.87 4.21.01 2.32 5.1 6.65 2.62 3.15 6.46 6.6l.42 1.71c1.33 1.11 1.68.86 4.16 4.35-2.3-2.46 1.11 3.14-1.55.54 2.22 4.36 4.38 6.75 6.1 8.78 1.79 1.87 3.13 3.36 3.86 5.97 3.28 1.68-4.25-6.89-2.62-5.48-.86-2.08 2.7 1.45 4.28 3.82.9 1.12 1.31 2.64 2.09 4.49.78 1.85 2.01 4.07 4.25 6.69-.45-.56-.59-.42-.97-.96 1.52 2.34 3.63 3.37 5.31 6.54 1.67.46 2.69 3.19 3.74 2.25 0 0-.3-.31-.67-.65-.44-.37-.97-.96-1.49-1.56-1.04-1.18-2.09-2.36-2.09-2.36 2.46 2.51 5.5 3.52 9.12 8.61-.44-.17-1.76-1.08-2.65-1.81.99 1.54 2.3 2.26 3.43 3.86-.9.8-5.34-5.39-8.35-7.35.93 1.91 5.39 4.44 3.38 4.42 2.73.31 4.48 5.24 8.28 7.32l-.56.56c.59.42 1.83 1.1 2.72 2.04l-2.24-.7c3.07 1.79 4.71 5.72 7.5 7.79-5.33-5.19-.78-2.05-2.67-4.92 1.76 1.28 2.8 2.46 3.48 3.31.75.87 1.13 1.6 1.51 2.33.84 1.49 1.62 3.35 5.53 6.43-1.11-.82-3.58-3.92-1.82-2.84 1.34 1.5 3.06 3.52 3.81 4.59 5.16 4.16-.41-1.51 2-.17 1.3 2.44 2.71 1.65 5.13 3.18l-.33.84c2.81 2.65 3.38 2.49 3.81 2.47.49-.19.85-.25 3.51 1.96l-2.82-.53 3 1.76-.99.38c3.42 1.55 4.24 2.45 7.12 4.94-.39-1.13 1.04-1.14 3.75.71 1.71 1.63-1.36.04 2.53 2.54-1.08-.04-2.3-.14-3.66-2.03-.28.09-1.07-.03-1.36.05 1.79 1.86 5 3.51 6.39 4.45-.51-.4-1.17-.85-1.47-1.16 0 0 1.52.6 2.98 1.37.8.32 1.53.6 2.11.83.58.23.95.37.95.37.74.88-.06.56-.85.44 1.17.66 2.17.67 3.86 1.72-.71.3-.97 1.16-3.44-.01l5.82 2.49c.23.48 2.45 2.51 1.65 2.2 1.4 1.13 3.5 1.77 5.61 2.6 2.1.83 4.42 1.55 6.4 2.91.29-.08.72.09 1.67.47 3.93 1.94 7.03 4.51 12.09 5.74l2.23 2.23c3.84 1.32-3.12-2.97 3.26-.84 4.57 1.42 1.28 1.66 2.67 2.6 2.38.36 6.82.38 10.56 2.82-2.02-.41-3.04-1.01-4.34-1.33zm48.77 11.72c-1-.01-3.14.31-3.73-.31 1.4-.8 2.07-.15 3.73.31zm79.92.27c-.85.25-2.07.35-3.29.06.93-.02 2.07-.15 3.29-.06zm243.61-81.06l-.14.14c-2.48.95-1.56.54.14-.14zm5.36-2.32c.56-.36.49-.39.35-.45-.42.42-1.62.91-2.96 1.54.29.11 1-.19 2.61-1.09zm-489.4-18.86l.46.95c-1.42-1.52-.91-1.32-.46-.95z" fill="#99D4FF"/><path d="M1626.07 1199.17c-.24-.09-.2-.37-.26-.39-.44.41-.54.66.26.39zM1495.22 1197.08l-.12-.05c-.06-.02-.22.2-.22.2l.34-.15zM1798.2 1097.94c-1.06.75-1.59.83-1.93.99-.2.51.2.38 1.93-.99zM1915.71 988.33l-3.64 3.548c1.77-1.647 2.34-2.011 3.12-2.581-.12-.048-.64.039.52-.967zM1945.27 965.984c.54-.666 1.1-1.029 1.65-1.695l-.02-.301c-2.22 2.058-3.97 4.006-1.63 1.996zM1917.95 989.215c.05.603 2.36-1.709 4.96-4.203-.16.23-.29.182-.45.412 1.15-2.188-1.71.79-4.51 3.791zM1923.51 984.371c.82-.847 1.55-1.441 2.37-2.288.42-.714-.94.799-2.37 2.288zM1892.74 1010.34c1.06-.75 1.1-1.91 1.63-1.99 1.64-2.58-8.31 8.44-1.63 1.99zM1919.27 990.321l-.67-.263-1.66 2.274 2.33-2.011zM1899.57 1007.76l3.94-3.43c-.06-.02.55-.66 1.15-1.3-2.5 2.24-5.11 4.43-5.09 4.73zM1904.66 1003.03c1.33-1.24 2.5-2.24 3.26-3.116-.66.616-2.21 2.056-3.26 3.116zM1913.54 995.974l-1.07.752-2.88 2.676 3.95-3.428zM1856.82 1045.43l-4.42 4.11c-.49.69.58-.06 2.19-1.48 1.15-1.3 2.76-2.72 2.23-2.63zM1868.99 1037.33c-1.07.75-1.09.45-1.65.81l-.54 1.55 2.19-2.36zM1856.23 1048.71c-.48.69-6.56 6.5-1.17 1.88.65-.91 5.07-5.03 1.17-1.88zM1792.96 1098.8l1.01-.78.59-2.4-1.6 3.18zM1736.82 1143.78c4.59-2.58 1.61-2.3 5.7-4.49 1.26-1.26-3.31 1.63-1.98.39-3.12 2.58-4.49 3.21-3.72 4.1z" fill="#99D4FF"/><path d="M1740.44 1139.94c.5-.39 1.01-.78 1.61-1.42-.85.54-1.29.96-1.61 1.42zM1393.87 870.595l-.32-4.523.15 2.992.17 1.531zM1393.36 861.597l-.02-1.183-.19-2.713c.02 1.182.11 3.269.21 3.896zM1566.78 1215.94l.32-.46c-.2-.37-.78-.31-1.85-.44 0 0 .42.17.78.31.43.17.75.59.75.59zM1535.58 1213.01l.58-.07-.4-1.62-.18 1.69zM1510.46 1207.78c.97.39 2.23.59 3.13.95-2.16-.56-2.67-2.82-3.13-.95z" fill="#99D4FF"/></svg>