<svg width="66" height="39" fill="none" xmlns="http://www.w3.org/2000/svg"><path fill-rule="evenodd" clip-rule="evenodd" d="M60.663 16.306l-1.527-6.056a.917.917 0 00.73-.895V8.38c0-2.12-1.739-3.845-3.877-3.845h-6.956V2.52A1.902 1.902 0 0047.125.628H11.668A1.902 1.902 0 009.76 2.52v16.6a.92.92 0 00.923.915.92.92 0 00.924-.915V2.52c0-.033.027-.06.061-.06h35.457c.034 0 .061.027.061.06v16.6a.92.92 0 00.923.915.92.92 0 00.924-.915v-1.038H59.93c1.34.001 2.478.873 2.87 2.075h-2.872a.92.92 0 00-.923.916v1.953c0 1.581 1.298 2.868 2.893 2.868h1.046v4.028H60.53a5.853 5.853 0 00-5.526-3.906 5.853 5.853 0 00-5.527 3.906h-.444v-6.897a.92.92 0 00-.924-.915.92.92 0 00-.923.915v6.896H28.029a5.853 5.853 0 00-5.527-3.905 5.853 5.853 0 00-5.526 3.905h-5.308a.061.061 0 01-.061-.06v-2.015h4a.92.92 0 00.924-.915.92.92 0 00-.923-.916H6.744a.92.92 0 00-.924.916.92.92 0 00.924.915H9.76v2.014c0 1.044.856 1.892 1.908 1.892h4.988v.028a.92.92 0 00-.002.033c0 3.197 2.624 5.798 5.848 5.798 3.225 0 5.848-2.601 5.848-5.798a.52.52 0 000-.022v-.011l-.002-.028h20.81l-.001.028-.001.033c0 3.197 2.623 5.798 5.848 5.798 3.224 0 5.847-2.601 5.847-5.798v-.033l-.001-.028h3.018a.92.92 0 00.923-.915v-9.765c0-2.41-1.794-4.413-4.128-4.765zm-11.63-9.94h6.956c1.12 0 2.031.903 2.031 2.013v.061h-8.987V6.365zm0 9.885v-5.98h8.205l1.508 5.98h-9.713zm-26.53 19.53c-2.207 0-4.002-1.78-4.002-3.968 0-2.187 1.795-3.966 4.001-3.966 2.206 0 4.001 1.779 4.001 3.966 0 2.188-1.795 3.967-4 3.967zm32.5 0c-2.205 0-4-1.78-4-3.968 0-2.187 1.795-3.966 4-3.966 2.207 0 4.002 1.779 4.002 3.966 0 2.188-1.795 3.967-4.001 3.967zm7.941-11.718h-1.046a1.043 1.043 0 01-1.046-1.038v-1.037h2.093v2.075zm-40.442 5.859a1.902 1.902 0 00-1.908 1.891c0 1.044.856 1.892 1.908 1.892a1.902 1.902 0 001.908-1.892 1.902 1.902 0 00-1.908-1.891zm30.594 1.891c0-1.043.856-1.891 1.908-1.891s1.908.848 1.908 1.891a1.902 1.902 0 01-1.908 1.892 1.902 1.902 0 01-1.908-1.892zM1.85 22.11H13.67c.51 0 .923.41.923.915a.92.92 0 01-.923.916H1.85a.92.92 0 01-.923-.916.92.92 0 01.923-.915z" fill="#36A6F2"/><path d="M59.936 18.41l-.018.001H49.364v.707a1.25 1.25 0 01-1.256 1.245 1.25 1.25 0 01-1.256-1.245V2.788H11.938v16.33a1.25 1.25 0 01-1.256 1.245 1.25 1.25 0 01-1.256-1.245v-16.6a2.233 2.233 0 012.24-2.221h35.457c1.236 0 2.241.996 2.241 2.221v1.685h6.623c2.322 0 4.21 1.872 4.21 4.174v.977c0 .477-.27.891-.668 1.1l1.403 5.563c2.386.465 4.19 2.554 4.19 5.054v9.764a1.25 1.25 0 01-1.256 1.245h-2.69c-.142 3.255-2.857 5.859-6.174 5.859s-6.032-2.604-6.174-5.859H28.675c-.142 3.255-2.857 5.859-6.174 5.859-3.318 0-6.033-2.604-6.175-5.859h-4.66a2.233 2.233 0 01-2.24-2.221v-1.685H6.742a1.25 1.25 0 01-1.256-1.245 1.25 1.25 0 011.256-1.245h8.864a1.25 1.25 0 011.256 1.245 1.25 1.25 0 01-1.256 1.245h-3.668v1.416h4.804a6.188 6.188 0 015.759-3.906 6.187 6.187 0 015.758 3.906h18.593v-6.566a1.25 1.25 0 011.256-1.246 1.25 1.25 0 011.256 1.246v6.283a6.19 6.19 0 015.638-3.623 6.187 6.187 0 015.758 3.906h1.85v-3.368h-.713c-1.78 0-3.226-1.435-3.226-3.198V21.07a1.25 1.25 0 011.256-1.245h2.37a2.69 2.69 0 00-2.361-1.416z" stroke="#36A6F2" stroke-width=".5"/></svg>