<svg width="58" height="49" fill="none" xmlns="http://www.w3.org/2000/svg"><path d="M2.985.945C1.624.945.802 1.81.802 2.672c0 1.219.822 1.817 2.183 1.817h4.132a1 1 0 01.969.751l6.294 24.476c.55 2.09 2.52 3.521 4.788 3.521H47.51c2.23 0 4.122-1.403 4.71-3.448l5.315-18.55a3 3 0 00-2.884-3.827H19.73a1.772 1.772 0 100 3.544h32.896a1 1 0 01.962 1.272l-4.517 16.008a2 2 0 01-1.924 1.457H18.016L10.953 3.891C10.302.369 8.574.945 6.741.945H2.985z" fill="#36A6F2"/><circle cx="23.544" cy="41.715" r="6.909" fill="#36A6F2"/><circle cx="23.544" cy="41.716" r="4.03" fill="#fff"/><circle cx="42.545" cy="41.715" r="6.909" fill="#36A6F2"/><circle cx="42.545" cy="41.715" r="4.03" fill="#fff"/></svg>