<svg width="49" height="36" fill="none" xmlns="http://www.w3.org/2000/svg"><mask id="a" maskUnits="userSpaceOnUse" x="-.198" y="-.479" width="49" height="36" fill="#000"><path fill="#fff" d="M-.198-.479h49v36h-49z"/><path fill-rule="evenodd" clip-rule="evenodd" d="M47.802 4.521a4 4 0 00-4-4h-39a4 4 0 00-4 4v26.44a4 4 0 004 4h39a4 4 0 004-4V4.521zM5.02 2.856a2 2 0 00-2 2v25.77a2 2 0 002 2h38.704a2 2 0 002-2V4.857a2 2 0 00-2-2H5.02z"/></mask><path fill-rule="evenodd" clip-rule="evenodd" d="M47.802 4.521a4 4 0 00-4-4h-39a4 4 0 00-4 4v26.44a4 4 0 004 4h39a4 4 0 004-4V4.521zM5.02 2.856a2 2 0 00-2 2v25.77a2 2 0 002 2h38.704a2 2 0 002-2V4.857a2 2 0 00-2-2H5.02z" fill="#36A6F2"/><path d="M4.802.821h39v-.6h-39v.6zm-3.7 30.14V4.521h-.6v26.44h.6zm42.7 3.7h-39v.6h39v-.6zm3.7-30.14v26.44h.6V4.521h-.6zM3.32 4.856a1.7 1.7 0 011.7-1.7v-.6a2.3 2.3 0 00-2.3 2.3h.6zm0 25.77V4.857h-.6v25.77h.6zm1.7 1.7a1.7 1.7 0 01-1.7-1.7h-.6a2.3 2.3 0 002.3 2.3v-.6zm38.704 0H5.02v.6h38.704v-.6zm1.7-1.7a1.7 1.7 0 01-1.7 1.7v.6a2.3 2.3 0 002.3-2.3h-.6zm0-25.77v25.77h.6V4.857h-.6zm-1.7-1.7a1.7 1.7 0 011.7 1.7h.6a2.3 2.3 0 00-2.3-2.3v.6zm-38.704 0h38.704v-.6H5.02v.6zM43.8 35.261a4.3 4.3 0 004.3-4.3h-.6a3.7 3.7 0 01-3.7 3.7v.6zm-43.3-4.3a4.3 4.3 0 004.3 4.3v-.6a3.7 3.7 0 01-3.7-3.7h-.6zm43.3-30.14a3.7 3.7 0 013.7 3.7h.6a4.3 4.3 0 00-4.3-4.3v.6zm-39-.6a4.3 4.3 0 00-4.3 4.3h.6a3.7 3.7 0 013.7-3.7v-.6z" fill="#36A6F2" mask="url(#a)"/><circle cx="10.646" cy="16.718" r="1.738" fill="#36A6F2" stroke="#36A6F2" stroke-width=".3"/><rect x="18.435" y="14.98" width="21.895" height="3.476" rx="1.738" fill="#36A6F2" stroke="#36A6F2" stroke-width=".3"/><circle cx="10.646" cy="24.975" r="1.738" fill="#36A6F2" stroke="#36A6F2" stroke-width=".3"/><rect x="18.435" y="23.237" width="21.895" height="3.476" rx="1.738" fill="#36A6F2" stroke="#36A6F2" stroke-width=".3"/></svg>