<svg width="54" height="56" fill="none" xmlns="http://www.w3.org/2000/svg"><path d="M43.812 43.49h3.04a6.533 6.533 0 006.533-6.532V7.342A6.533 6.533 0 0046.853.808H7.184A6.533 6.533 0 00.652 7.341v29.617a6.533 6.533 0 006.532 6.532h20.691l15.7 11.154.237.168V43.49zm-14.637-3.17l-.04-.03H7.184a3.331 3.331 0 01-3.331-3.332V7.342A3.331 3.331 0 017.184 4.01h39.669a3.331 3.331 0 013.331 3.332v29.616a3.331 3.331 0 01-3.331 3.331h-5.517v9.43l-12.16-9.398z" fill="#36A6F2" stroke="#36A6F2" stroke-width=".3"/><path fill="#36A6F2" d="M11.024 10.908h32.058v3.917H11.024zM11.024 20.191h32.058v3.917H11.024zM11.024 29.475h32.058v3.917H11.024z"/></svg>