<svg width="29" height="26" viewBox="0 0 29 26" fill="none" xmlns="http://www.w3.org/2000/svg">
<path d="M13.3371 12.4774H20.4935L24.3375 16.1804V12.4774H25.9674C27.1124 12.4774 28.0472 11.537 28.0472 10.385V2.6264C28.0472 1.47437 27.1124 0.533936 25.9674 0.533936H13.3371C12.192 0.533936 11.2573 1.47437 11.2573 2.6264V10.385C11.2573 11.537 12.192 12.4774 13.3371 12.4774Z" fill="#E0EEF7"/>
<path d="M4.00175 25.0692C4.06601 25.0986 4.14196 25.1103 4.21206 25.1103C4.34643 25.1103 4.48079 25.0574 4.58011 24.9634L8.24303 21.4368H15.1307C16.562 21.4368 17.7246 20.2671 17.7246 18.8271V14.8949C17.7246 14.601 17.485 14.36 17.1929 14.36C16.9008 14.36 16.6613 14.601 16.6613 14.8949V18.8271C16.6613 19.6793 15.972 20.367 15.1307 20.367H8.02687C7.89251 20.367 7.75814 20.4199 7.65883 20.514L4.73784 23.3235V20.9078C4.73784 20.6139 4.49832 20.3729 4.20622 20.3729H2.59384C1.74675 20.3729 1.06324 19.6793 1.06324 18.8329V11.1332C1.06324 10.2809 1.75259 9.58732 2.59384 9.58732H8.86228C9.15438 9.58732 9.3939 9.34633 9.3939 9.05245C9.3939 8.75856 9.15438 8.51758 8.86228 8.51758H2.59384C1.16255 8.51758 0 9.68724 0 11.1273V18.8271C0 20.2671 1.16255 21.4368 2.59384 21.4368H3.68044V24.5813C3.68044 24.7929 3.80897 24.9869 4.00175 25.0692Z" fill="#318CCA"/>
<path d="M20.2835 13.0132L23.9757 16.5692C24.075 16.6633 24.2094 16.7162 24.3437 16.7162C24.4138 16.7162 24.4839 16.7044 24.554 16.675C24.7468 16.5928 24.8753 16.3988 24.8753 16.1872V13.0132H25.9736C27.4108 13.0132 28.585 11.8377 28.585 10.3859V2.62733C28.585 1.18142 27.4166 0 25.9736 0H13.3374C11.9003 0 10.7261 1.17554 10.7261 2.62733V10.3859C10.7261 11.8318 11.8945 13.0132 13.3374 13.0132H20.2835ZM11.7893 10.3859V2.62733C11.7893 1.76919 12.4845 1.06974 13.3374 1.06974H25.9678C26.8207 1.06974 27.5159 1.76919 27.5159 2.62733V10.3859C27.5159 11.244 26.8207 11.9435 25.9678 11.9435H24.3379C24.0458 11.9435 23.8063 12.1845 23.8063 12.4784V14.9352L20.8561 12.0963C20.7567 12.0023 20.6282 11.9494 20.488 11.9494H13.3374C12.4845 11.9494 11.7893 11.2499 11.7893 10.3859Z" fill="#318CCA"/>
<path d="M19.6522 7.14811C19.7924 7.14811 19.9268 7.08933 20.0261 6.98941C20.1254 6.88949 20.1838 6.75431 20.1838 6.61324C20.1838 6.47218 20.1254 6.33699 20.0261 6.23707C19.9268 6.13715 19.7924 6.07837 19.6522 6.07837C19.512 6.07837 19.3777 6.13715 19.2783 6.23707C19.179 6.33699 19.1206 6.47218 19.1206 6.61324C19.1206 6.75431 19.179 6.88949 19.2783 6.98941C19.3777 7.09521 19.512 7.14811 19.6522 7.14811Z" fill="#318CCA"/>
<path d="M21.6263 7.14811C21.7666 7.14811 21.9009 7.08933 22.0002 6.98941C22.0995 6.88949 22.158 6.75431 22.158 6.61324C22.158 6.47218 22.0995 6.33699 22.0002 6.23707C21.9009 6.13715 21.7666 6.07837 21.6263 6.07837C21.4861 6.07837 21.3518 6.13715 21.2525 6.23707C21.1531 6.33699 21.0947 6.47218 21.0947 6.61324C21.0947 6.75431 21.1531 6.88949 21.2525 6.98941C21.3459 7.09521 21.4861 7.14811 21.6263 7.14811Z" fill="#318CCA"/>
<path d="M17.6835 7.14811C17.8237 7.14811 17.958 7.08933 18.0574 6.98941C18.1567 6.88949 18.2151 6.75431 18.2151 6.61324C18.2151 6.47218 18.1567 6.33699 18.0574 6.23707C17.958 6.13715 17.8237 6.07837 17.6835 6.07837C17.5433 6.07837 17.4089 6.13715 17.3096 6.23707C17.2103 6.33699 17.1519 6.47218 17.1519 6.61324C17.1519 6.75431 17.2103 6.88949 17.3096 6.98941C17.4089 7.09521 17.5433 7.14811 17.6835 7.14811Z" fill="#318CCA"/>
</svg>
