<svg width="62" height="48" fill="none" xmlns="http://www.w3.org/2000/svg"><path d="M24.938 2.307c0 3 .676 4.57 1.619 5.436.966.887 2.51 1.317 4.916 1.317v1.893c-2.604 0-4.492-.166-6.195-1.73-1.315-1.207-1.824-3.254-2.048-5.548a1.024 1.024 0 00-1.011-.932h-5.963a4 4 0 00-2.84 1.183L3.969 13.45a1 1 0 00.015 1.423l4.949 4.782a1 1 0 001.444-.056c.24-.27.498-.562.774-.87a645.655 645.655 0 014.98-5.54c.055-.06 1.102-1.1 2.136-.263 1.034.837.858 2.178.817 3.022-.04.844-.051 1.905-.136 3.05-.151 2.042-.714 7.797-.926 12.335-.175 3.773-.977 10.562-1.013 13.065-.009.602.438.939 1.04.942l18.653.098v1.743H16.649a1.697 1.697 0 01-1.69-1.846c.263-3.51 1.015-10.99 1.226-15.506.21-4.53.448-8.244.693-10.831.245-2.587.507-3.948 0-3.758-.508.19-3.5 3.936-4.647 5.226-.714.802-.397.415-.827.901-.017.02-.04.046-.07.077-.778.842-2.142.855-2.96.051l-6.238-6.128a2 2 0 01.007-2.86L12.524 2.415A5 5 0 0116.01 1h7.62c.722 0 1.308.585 1.308 1.307z" fill="#36A6F2" stroke="#36A6F2" stroke-width=".7"/><path d="M44.163 31.361c.175 3.771 1.085 10.538 1.159 13.036.017.603-.426.94-1.029.943l-18.652.098v1.743h20.052c.996 0 1.778-.854 1.69-1.846-.263-3.51-1.168-14.256-1.205-14.6-.03-.262-.283-4.047-.402-5.834-.035-.518-.185-.918-.704-.915-.548.005-1.272.444-1.245.991.092 1.936.315 5.939.336 6.384zM37.404 2.307c0 3-.676 4.57-1.62 5.436-.965.887-2.509 1.317-4.915 1.317v1.893c2.604 0 4.492-.166 6.195-1.73 1.315-1.207 1.824-3.254 2.048-5.548a1.024 1.024 0 011.011-.932h5.962a4 4 0 012.84 1.183l9.45 9.525a1 1 0 01-.016 1.423l-4.949 4.782a1 1 0 01-1.444-.056l-.774-.87a645.655 645.655 0 00-4.98-5.54c-.055-.06-1.102-1.1-2.137-.263-1.034.837-.857 2.178-.816 3.022.04.844.124 2.669.136 3.05l.007.106a.96.96 0 00.959.895h.1A.902.902 0 0045.347 19c-.015-.157-.39-3.948.117-3.758.508.19 3.499 3.936 4.647 5.226.714.802.397.415.826.901l.07.077c.78.842 2.142.855 2.96.051l6.239-6.128a2 2 0 00-.007-2.86L49.818 2.415A5 5 0 0046.332 1h-7.62c-.723 0-1.308.585-1.308 1.307z" fill="#36A6F2" stroke="#36A6F2" stroke-width=".7"/></svg>