<svg width="24" height="24" fill="none" xmlns="http://www.w3.org/2000/svg"><path d="M16.754 0H7.109C3.189 0 0 3.207 0 7.15v9.7C0 20.793 3.189 24 7.109 24h9.645c3.92 0 7.108-3.207 7.108-7.15v-9.7c0-3.943-3.189-7.15-7.108-7.15zm4.708 16.85c0 2.615-2.108 4.736-4.708 4.736H7.109c-2.6 0-4.708-2.12-4.708-4.736v-9.7c0-2.616 2.107-4.736 4.708-4.736h9.645c2.6 0 4.708 2.12 4.708 4.736v9.7z" fill="url(#paint0_linear)"/><path d="M11.931 5.793C8.528 5.793 5.76 8.578 5.76 12c0 3.423 2.768 6.207 6.171 6.207 3.403 0 6.172-2.784 6.172-6.207s-2.769-6.207-6.172-6.207zm0 10c-2.083 0-3.77-1.698-3.77-3.793s1.687-3.793 3.77-3.793S15.702 9.905 15.702 12s-1.688 3.793-3.77 3.793z" fill="url(#paint1_linear)"/><path d="M18.115 7.327c.816 0 1.478-.666 1.478-1.488 0-.821-.662-1.487-1.478-1.487-.817 0-1.48.666-1.48 1.487 0 .822.663 1.488 1.48 1.488z" fill="url(#paint2_linear)"/><defs><linearGradient id="paint0_linear" x1="11.931" y1="23.93" x2="11.931" y2=".186" gradientUnits="userSpaceOnUse"><stop stop-color="#E09B3D"/><stop offset=".3" stop-color="#C74C4D"/><stop offset=".6" stop-color="#C21975"/><stop offset="1" stop-color="#7024C4"/></linearGradient><linearGradient id="paint1_linear" x1="11.931" y1="23.93" x2="11.931" y2=".187" gradientUnits="userSpaceOnUse"><stop stop-color="#E09B3D"/><stop offset=".3" stop-color="#C74C4D"/><stop offset=".6" stop-color="#C21975"/><stop offset="1" stop-color="#7024C4"/></linearGradient><linearGradient id="paint2_linear" x1="18.115" y1="23.93" x2="18.115" y2=".186" gradientUnits="userSpaceOnUse"><stop stop-color="#E09B3D"/><stop offset=".3" stop-color="#C74C4D"/><stop offset=".6" stop-color="#C21975"/><stop offset="1" stop-color="#7024C4"/></linearGradient></defs></svg>