<svg width="31" height="30" fill="none" xmlns="http://www.w3.org/2000/svg"><path d="M21.36 0H9.306C4.405 0 .419 4.01.419 8.937v12.126C.419 25.99 4.405 30 9.305 30H21.36c4.9 0 8.886-4.01 8.886-8.937V8.937C30.247 4.01 26.26 0 21.36 0zm5.886 21.063c0 3.269-2.635 5.919-5.885 5.919H9.305c-3.25 0-5.885-2.65-5.885-5.92V8.938c0-3.269 2.635-5.919 5.885-5.919H21.36c3.25 0 5.885 2.65 5.885 5.92v12.125z" fill="url(#paint0_linear)"/><path d="M15.333 7.241c-4.254 0-7.715 3.48-7.715 7.76 0 4.278 3.46 7.758 7.715 7.758 4.254 0 7.714-3.48 7.714-7.759 0-4.278-3.46-7.759-7.714-7.759zm0 12.5c-2.604 0-4.714-2.122-4.714-4.74 0-2.62 2.11-4.742 4.714-4.742 2.603 0 4.714 2.123 4.714 4.741 0 2.619-2.11 4.741-4.714 4.741z" fill="url(#paint1_linear)"/><path d="M23.062 9.158A1.854 1.854 0 0024.911 7.3c0-1.027-.828-1.86-1.849-1.86-1.02 0-1.848.833-1.848 1.86 0 1.027.828 1.86 1.848 1.86z" fill="url(#paint2_linear)"/><defs><linearGradient id="paint0_linear" x1="15.333" y1="29.913" x2="15.333" y2=".233" gradientUnits="userSpaceOnUse"><stop stop-color="#E09B3D"/><stop offset=".3" stop-color="#C74C4D"/><stop offset=".6" stop-color="#C21975"/><stop offset="1" stop-color="#7024C4"/></linearGradient><linearGradient id="paint1_linear" x1="15.333" y1="29.913" x2="15.333" y2=".233" gradientUnits="userSpaceOnUse"><stop stop-color="#E09B3D"/><stop offset=".3" stop-color="#C74C4D"/><stop offset=".6" stop-color="#C21975"/><stop offset="1" stop-color="#7024C4"/></linearGradient><linearGradient id="paint2_linear" x1="23.062" y1="29.913" x2="23.062" y2=".233" gradientUnits="userSpaceOnUse"><stop stop-color="#E09B3D"/><stop offset=".3" stop-color="#C74C4D"/><stop offset=".6" stop-color="#C21975"/><stop offset="1" stop-color="#7024C4"/></linearGradient></defs></svg>