<svg width="200" height="67" viewBox="0 0 200 67" fill="none" xmlns="http://www.w3.org/2000/svg">
<rect width="199.958" height="66.9996" fill="white"/>
<path fill-rule="evenodd" clip-rule="evenodd" d="M59.4434 19.5351L59.3616 19.4941L58.8704 19.3304L58.3792 19.1666L57.8881 19.0028L57.3969 18.839L56.9057 18.6752L56.3736 18.5114L55.8415 18.3476L55.5959 19.0847L56.128 19.2485L56.6602 19.4122L57.1513 19.576L57.6425 19.7398L58.1337 19.9036L58.6248 20.0674L59.116 20.2312L59.1979 20.2722L59.4434 19.5351ZM163.776 22.729L163.531 22.6472L163.285 23.3842L163.531 23.4661L163.776 22.729ZM161.32 21.9101L160.584 21.6644L159.806 21.4187L159.028 21.173L158.251 20.9273L157.678 20.7635L157.473 21.5006L158.046 21.6644L158.824 21.9101L159.601 22.1558L160.379 22.4015L161.116 22.6472L161.361 21.9101H161.32ZM155.467 20.1084L155.222 20.0265L154.485 19.8217L153.748 19.617L153.011 19.4122L152.275 19.2075L151.743 19.0437L151.538 19.7808L152.07 19.9446L152.766 20.1493L153.503 20.3541L154.239 20.5588L154.976 20.7635L155.222 20.8454L155.426 20.1084H155.467ZM149.573 18.4704H149.532L148.836 18.3066L148.141 18.1429L147.445 17.9791L146.79 17.8153L146.135 17.6515L145.849 17.5696L145.685 18.3066L145.971 18.3885L146.626 18.5523L147.281 18.7161L147.936 18.8799L148.632 19.0437L149.328 19.2075H149.369L149.573 18.4704ZM143.597 17.0373H143.556L142.902 16.9144L142.288 16.7916L141.674 16.6687L141.06 16.5459L140.446 16.423L139.873 16.3002L139.75 17.0373L140.323 17.1601L140.937 17.2829L141.551 17.4058L142.165 17.5286L142.779 17.6515L143.393 17.7743H143.434L143.597 17.0373ZM137.58 15.8498L137.458 15.8088L136.885 15.7269L136.312 15.645L135.739 15.5631L135.166 15.4812L134.593 15.3993L134.02 15.3174L133.774 15.2765L133.692 16.0545L133.938 16.0954L134.511 16.1773L135.084 16.2592L135.657 16.3411L136.23 16.423L136.803 16.5049L137.376 16.5868L137.499 16.6278L137.621 15.8907L137.58 15.8498ZM131.523 14.9898L131.318 14.9489L130.786 14.9079L130.254 14.867L129.722 14.8261L129.19 14.7851L128.698 14.7442L128.207 14.7032L127.716 14.6623H127.675L127.634 15.4403H127.675L128.166 15.4812L128.658 15.5222L129.149 15.5631L129.64 15.6041L130.172 15.645L130.704 15.686L131.236 15.7269L131.441 15.7679L131.523 14.9898ZM125.383 14.4985H125.26H124.769H124.278H123.828H123.377H122.927H122.477H122.027H121.577H121.536V15.2765H121.577H122.027H122.477H122.927H123.377H123.828H124.278H124.728H125.219H125.342L125.383 14.4985ZM119.243 14.4575H118.957H118.548H118.138L117.729 14.4985L117.32 14.5394L116.91 14.5804L116.501 14.6213L116.092 14.6623L115.682 14.7032L115.396 14.7442L115.478 15.5222L115.764 15.4812L116.174 15.4403L116.583 15.3993L116.992 15.3584L117.402 15.3174L117.811 15.2765L118.22 15.2355H118.63H119.039H119.325L119.284 14.4575H119.243ZM113.104 14.9489H112.94L112.572 14.9898L112.203 15.0308L111.835 15.0717L111.467 15.1127L111.098 15.1536L110.73 15.1946L110.361 15.2355L109.993 15.2765L109.625 15.3584L109.256 15.4403L109.379 16.1773L109.747 16.0954L110.116 16.0136L110.484 15.9726L110.853 15.9317L111.221 15.8907L111.589 15.8498L111.958 15.8088L112.326 15.7679L112.695 15.7269L113.063 15.686H113.227L113.145 14.9079L113.104 14.9489ZM107.046 15.9726L106.923 16.0136L106.596 16.0954L106.268 16.1773L105.941 16.2592L105.613 16.3411L105.286 16.423L104.959 16.5049L104.631 16.5868L104.304 16.6687L103.976 16.7506L103.649 16.8325L103.321 16.9144H103.28L103.485 17.6515H103.526L103.853 17.5696L104.181 17.4877L104.508 17.4058L104.836 17.3239L105.163 17.242L105.491 17.1601L105.818 17.0782L106.146 16.9963L106.473 16.9144L106.8 16.8325L107.128 16.7506L107.251 16.7097L107.087 15.9726H107.046ZM101.111 17.4877L100.906 17.5286L100.62 17.6105L100.333 17.6924L100.047 17.7743L99.7604 17.8562L99.4739 17.9381L99.1873 18.02L98.9008 18.1019L98.6143 18.1838L98.3278 18.2657L98.0413 18.3476L97.7548 18.4295L97.5501 18.5114L97.7957 19.2485L98.0003 19.1666L98.2869 19.0847L98.5734 19.0028L98.8599 18.9209L99.1464 18.839L99.4329 18.7571L99.7194 18.6752L100.006 18.5933L100.292 18.5114L100.579 18.4295L100.865 18.3476L101.152 18.2657L101.357 18.2248L101.152 17.4877H101.111ZM95.258 19.2485L95.0533 19.3304L94.7668 19.4122L94.4803 19.4941L94.1938 19.576L93.9072 19.6579L93.6207 19.7398L93.3342 19.8217L93.0477 19.9036L92.7612 19.9855L92.4747 20.0674L92.1882 20.1493L91.9016 20.2312L91.6151 20.3131H91.5742L91.7788 21.0502H91.8198L92.1063 20.9683L92.3928 20.8864L92.6793 20.8045L92.9658 20.7226L93.2524 20.6407L93.5389 20.5588L93.8254 20.4769L94.1119 20.395L94.3984 20.3131L94.6849 20.2312L94.9715 20.1493L95.258 20.0674L95.4626 20.0265L95.217 19.2894L95.258 19.2485ZM89.4049 20.9273H89.3639L89.0774 21.0092L88.7909 21.0911L88.5044 21.173L88.2179 21.2549L87.9313 21.3368L87.6448 21.4187L87.3583 21.5006L87.0718 21.5825L86.7853 21.6644L86.4988 21.7053L86.2122 21.7463L85.9257 21.7872L85.762 21.8282L85.8848 22.5653L86.0485 22.5243L86.335 22.4834L86.6216 22.4424L86.9081 22.4015L87.1946 22.3196L87.4811 22.2377L87.7676 22.1558L88.0541 22.0739L88.3406 21.992L88.6272 21.9101L88.9137 21.8282L89.2002 21.7463L89.4867 21.6644H89.5276L89.323 20.9273H89.4049ZM83.4699 22.1148L83.1834 22.1558L82.8559 22.1967L82.5285 22.2377L82.201 22.2786L81.8736 22.3196L81.5461 22.3605L81.2187 22.4015L80.8912 22.4424L80.5638 22.4834L80.2363 22.5243L79.9089 22.5653H79.5814L79.6224 23.3433H79.9498L80.2773 23.3023L80.6047 23.2614L80.9322 23.2204L81.2596 23.1795L81.5871 23.1385L81.9145 23.0976L82.2419 23.0566L82.5694 23.0157L82.8968 22.9747L83.2243 22.9338L83.5108 22.8928L83.4289 22.1148H83.4699ZM77.4121 22.5243H77.3302H77.0028H76.6754H76.307H75.9386H75.5702H75.2018H74.8335H74.4651L74.0967 22.4834L73.7283 22.4424H73.5646L73.4827 23.2204H73.6465L74.0148 23.2614L74.3832 23.3023L74.7516 23.3433H75.12H75.4884H75.8567H76.2251H76.5935H76.9619H77.3302H77.4121V22.5653V22.5243ZM71.3543 22.1558L71.1497 22.1148L70.7404 22.0739L70.3311 22.0329L69.9218 21.992L69.5124 21.9101L69.1031 21.8282L68.6938 21.7463L68.2845 21.6644L67.8752 21.5825L67.5478 21.5006L67.384 22.2377L67.7115 22.3196L68.1208 22.4015L68.5301 22.4834L68.9394 22.5653L69.3487 22.6472L69.758 22.729L70.1673 22.77L70.5766 22.8109L70.986 22.8519L71.1906 22.8928L71.2725 22.1148L71.3543 22.1558ZM65.3784 21.0911L64.9691 21.0092L64.5189 20.8864L64.0686 20.7635L63.6184 20.6407L63.1682 20.5178L62.7179 20.395L62.2677 20.2722L61.8174 20.1493L61.7356 20.1084L61.5309 20.8454L61.6537 20.8864L62.104 21.0092L62.5542 21.1321L63.0044 21.2549L63.4547 21.3778L63.9049 21.5006L64.3552 21.6234L64.8054 21.7463L65.2147 21.8282L65.3784 21.0911Z" fill="#36A6F2"/>
<path fill-rule="evenodd" clip-rule="evenodd" d="M45.4451 63.9576C44.8721 66.1279 42.6209 67.4382 40.4106 66.8649L3.04074 56.9555C0.871406 56.3822 -0.438381 54.13 0.134651 51.9188L13.1097 3.60001C13.6828 1.42976 15.934 0.119417 18.1442 0.692691L55.5141 10.6021C57.6835 11.1754 58.9932 13.4276 58.4202 15.6388L45.4451 63.9576Z" fill="url(#paint0_linear)"/>
<path fill-rule="evenodd" clip-rule="evenodd" d="M45.4451 63.9576C44.8721 66.1279 42.6209 67.4382 40.4106 66.8649L3.04074 56.9555C0.871406 56.3822 -0.438381 54.1301 0.134651 51.9188L13.1097 3.60001C13.6828 1.42976 15.934 0.119417 18.1442 0.692691L55.5141 10.6021C57.6835 11.1754 58.9932 13.4276 58.4202 15.6388L45.4451 63.9576Z" fill="#36A6F2"/>
<path d="M199.671 51.0243C198.77 50.6148 198.32 48.9359 198.32 46.0286L198.566 38.0847C198.852 38.1256 199.057 38.0028 199.18 37.7571C199.343 37.5114 199.384 37.2657 199.384 37.02C199.384 36.4877 199.139 36.2011 198.689 36.1601H195.537C195.087 36.2011 194.841 36.4468 194.841 36.8562C194.841 37.1019 194.923 37.3476 195.087 37.6343C195.25 37.9209 195.455 38.0437 195.66 38.0437V43.9403C195.66 45.0868 195.455 46.1105 195.087 47.0523C194.8 47.7075 194.473 48.2398 194.104 48.6084C193.818 48.895 193.327 49.2226 192.631 49.673C192.303 49.8778 191.976 49.9596 191.608 49.9596C190.502 49.9596 189.684 49.7549 189.111 49.3454C188.333 48.8131 187.965 48.1989 188.006 47.5437L187.924 46.3153C187.883 45.6601 187.924 45.1278 188.006 44.6773C188.251 42.9575 188.374 42.0567 188.374 41.9748C188.661 40.0911 188.947 38.8627 189.274 38.2075C189.807 38.1256 190.093 37.7161 190.093 36.9381C190.093 36.4877 189.97 36.2011 189.684 36.1192H186.368C185.836 36.2011 185.55 36.4877 185.55 36.9791C185.55 37.2657 185.632 37.5114 185.795 37.798C185.959 38.0847 186.164 38.2075 186.409 38.1666C185.959 39.7636 185.632 42.0976 185.427 45.2097C185.345 46.4381 185.386 47.4618 185.591 48.3627C186.164 50.9834 187.965 52.2527 191.035 52.2527C193.736 52.2527 195.291 51.5566 195.66 50.1644C195.66 50.6967 195.701 51.0243 195.782 51.229C195.864 51.4338 196.151 51.6385 196.56 51.9252C197.051 52.048 197.502 52.089 197.952 52.089C199.303 52.089 199.957 51.8433 199.957 51.3519C199.957 51.1881 199.835 51.0652 199.63 50.9834L199.671 51.0243Z" fill="#2B2A29"/>
<path d="M199.671 51.0243C198.77 50.6148 198.32 48.9359 198.32 46.0286L198.566 38.0847C198.852 38.1256 199.057 38.0028 199.18 37.7571C199.343 37.5114 199.384 37.2657 199.384 37.02C199.384 36.4877 199.139 36.2011 198.689 36.1601H195.537C195.087 36.2011 194.841 36.4468 194.841 36.8562C194.841 37.1019 194.923 37.3476 195.087 37.6343C195.25 37.9209 195.455 38.0437 195.66 38.0437V43.9403C195.66 45.0868 195.455 46.1105 195.087 47.0523C194.8 47.7075 194.473 48.2398 194.104 48.6084C193.818 48.895 193.327 49.2226 192.631 49.673C192.303 49.8778 191.976 49.9596 191.608 49.9596C190.502 49.9596 189.684 49.7549 189.111 49.3454C188.333 48.8131 187.965 48.1989 188.006 47.5437L187.924 46.3153C187.883 45.6601 187.924 45.1278 188.006 44.6773C188.251 42.9575 188.374 42.0567 188.374 41.9748C188.661 40.0911 188.947 38.8627 189.274 38.2075C189.807 38.1256 190.093 37.7161 190.093 36.9381C190.093 36.4877 189.97 36.2011 189.684 36.1192H186.368C185.836 36.2011 185.55 36.4877 185.55 36.9791C185.55 37.2657 185.632 37.5114 185.795 37.798C185.959 38.0847 186.164 38.2075 186.409 38.1666C185.959 39.7636 185.632 42.0976 185.427 45.2097C185.345 46.4381 185.386 47.4618 185.591 48.3627C186.164 50.9834 187.965 52.2527 191.035 52.2527C193.736 52.2527 195.291 51.5566 195.66 50.1644C195.66 50.6967 195.701 51.0243 195.782 51.229C195.864 51.4338 196.151 51.6385 196.56 51.9252C197.051 52.048 197.502 52.089 197.952 52.089C199.303 52.089 199.957 51.8433 199.957 51.3519C199.957 51.1881 199.835 51.0652 199.63 50.9834L199.671 51.0243Z" fill="#2B2A29"/>
<path d="M80.4 36.243C78.5171 36.243 76.8799 36.8982 75.3655 38.1675C73.3189 39.9283 72.2957 42.0576 72.2957 44.5555C72.2957 46.7257 73.1961 48.7322 74.9562 50.6158C76.4297 52.1309 78.2306 52.9089 80.359 52.9089C83.3879 52.9089 85.5573 51.6395 86.908 49.0598C87.8085 47.299 88.2587 45.743 88.2587 44.3507C88.2587 42.2214 87.3991 40.2968 85.721 38.5361C84.2065 36.98 82.4465 36.243 80.3181 36.243H80.4ZM85.0661 47.299C84.7386 48.3227 84.2884 49.1417 83.7563 49.7968C82.774 50.9434 81.6688 51.4757 80.4 51.4757C79.1311 51.4757 78.026 50.9024 77.0436 49.7968C76.4706 49.1417 76.0204 48.3227 75.652 47.3809C75.2836 46.3981 75.1199 45.4973 75.1199 44.5964C75.1199 43.6546 75.3245 42.6309 75.7338 41.5662C76.798 38.9456 78.3534 37.6352 80.4 37.6352C81.6688 37.6352 82.774 38.2085 83.7563 39.3141C84.2884 39.9283 84.7386 40.7473 85.0661 41.8119C85.3935 42.7947 85.5573 43.7365 85.5573 44.5964C85.5573 45.4973 85.3935 46.3981 85.107 47.3809L85.0661 47.299Z" fill="#2B2A29"/>
<path d="M80.4 36.243C78.5171 36.243 76.8799 36.8982 75.3655 38.1675C73.3189 39.9283 72.2957 42.0576 72.2957 44.5555C72.2957 46.7257 73.1961 48.7322 74.9562 50.6158C76.4297 52.1309 78.2306 52.9089 80.359 52.9089C83.3879 52.9089 85.5573 51.6395 86.908 49.0598C87.8085 47.299 88.2587 45.743 88.2587 44.3507C88.2587 42.2214 87.3991 40.2968 85.721 38.5361C84.2065 36.98 82.4465 36.243 80.3181 36.243H80.4ZM85.0661 47.299C84.7386 48.3227 84.2884 49.1417 83.7563 49.7968C82.774 50.9434 81.6688 51.4757 80.4 51.4757C79.1311 51.4757 78.026 50.9024 77.0436 49.7968C76.4706 49.1417 76.0204 48.3227 75.652 47.3809C75.2836 46.3981 75.1199 45.4973 75.1199 44.5964C75.1199 43.6546 75.3245 42.6309 75.7338 41.5662C76.798 38.9456 78.3534 37.6352 80.4 37.6352C81.6688 37.6352 82.774 38.2085 83.7563 39.3141C84.2884 39.9283 84.7386 40.7473 85.0661 41.8119C85.3935 42.7947 85.5573 43.7365 85.5573 44.5964C85.5573 45.4973 85.3935 46.3981 85.107 47.3809L85.0661 47.299Z" fill="#2B2A29"/>
<path d="M102.664 50.8608L97.3843 41.4837L102.009 37.7165C103.442 37.6755 104.138 37.4298 104.138 36.8566C104.138 36.4471 103.851 36.2423 103.319 36.2014H100.29C99.1443 36.2014 98.6122 36.4061 98.6122 36.8566C98.6122 37.1022 98.8578 37.307 99.308 37.5117L93.4549 42.2617V32.1066C94.3963 32.1066 94.8466 31.779 94.8466 31.0829C94.8466 30.4277 94.3963 30.1411 93.4549 30.1411H90.7535C89.8121 30.1411 89.3618 30.4277 89.3618 31.001C89.3618 31.3285 89.5255 31.5333 89.8121 31.738C90.0986 31.9018 90.426 31.9837 90.7535 31.9837V50.4513C89.8121 50.4513 89.3618 50.738 89.3618 51.3522C89.3618 51.9255 89.8121 52.1712 90.7535 52.1712H93.4549C94.1917 52.1712 94.56 51.9255 94.56 51.4341C94.56 50.9018 94.1917 50.5742 93.4549 50.4513V44.6367L95.3787 43.1216L99.6355 51.0656C99.0624 51.1884 98.8168 51.4341 98.8168 51.8436C98.8168 52.4987 99.3899 52.7854 100.536 52.7854H103.851C104.22 52.7854 104.424 52.5806 104.424 52.2121C104.424 51.8026 104.261 51.475 103.892 51.2294C103.524 50.9837 103.156 50.8608 102.746 50.8608H102.664Z" fill="#2B2A29"/>
<path d="M102.664 50.8608L97.3843 41.4837L102.009 37.7165C103.442 37.6755 104.138 37.4298 104.138 36.8566C104.138 36.4471 103.851 36.2423 103.319 36.2014H100.29C99.1443 36.2014 98.6122 36.4061 98.6122 36.8566C98.6122 37.1022 98.8578 37.307 99.308 37.5117L93.4549 42.2617V32.1066C94.3963 32.1066 94.8466 31.779 94.8466 31.0829C94.8466 30.4277 94.3963 30.1411 93.4549 30.1411H90.7535C89.8121 30.1411 89.3618 30.4277 89.3618 31.001C89.3618 31.3285 89.5255 31.5333 89.8121 31.738C90.0986 31.9018 90.426 31.9837 90.7535 31.9837V50.4513C89.8121 50.4513 89.3618 50.738 89.3618 51.3522C89.3618 51.9255 89.8121 52.1712 90.7535 52.1712H93.4549C94.1917 52.1712 94.56 51.9255 94.56 51.4341C94.56 50.9018 94.1917 50.5742 93.4549 50.4513V44.6367L95.3787 43.1216L99.6355 51.0656C99.0624 51.1884 98.8168 51.4341 98.8168 51.8436C98.8168 52.4987 99.3899 52.7854 100.536 52.7854H103.851C104.22 52.7854 104.424 52.5806 104.424 52.2121C104.424 51.8026 104.261 51.475 103.892 51.2294C103.524 50.9837 103.156 50.8608 102.746 50.8608H102.664Z" fill="#2B2A29"/>
<path d="M158.047 36.1587C158.538 36.1587 158.948 35.9949 159.275 35.6673C159.603 35.3397 159.766 34.9303 159.766 34.4389C159.766 33.9475 159.603 33.579 159.275 33.2514C158.948 32.9238 158.538 32.76 158.047 32.76C157.556 32.76 157.188 32.9238 156.86 33.2514C156.533 33.579 156.369 33.9885 156.369 34.4389C156.369 34.9303 156.533 35.3397 156.86 35.6673C157.188 35.9949 157.597 36.1587 158.047 36.1587Z" fill="#2B2A29"/>
<path d="M158.047 36.1587C158.538 36.1587 158.948 35.9949 159.275 35.6673C159.603 35.3397 159.766 34.9303 159.766 34.4389C159.766 33.9475 159.603 33.579 159.275 33.2514C158.948 32.9238 158.538 32.76 158.047 32.76C157.556 32.76 157.188 32.9238 156.86 33.2514C156.533 33.579 156.369 33.9885 156.369 34.4389C156.369 34.9303 156.533 35.3397 156.86 35.6673C157.188 35.9949 157.597 36.1587 158.047 36.1587Z" fill="#2B2A29"/>
<path d="M70.0426 40.2941C69.838 39.8437 69.4696 39.3113 68.9784 38.6562C68.4463 38.001 68.037 37.5506 67.6686 37.3049C66.3179 36.404 64.9263 35.9536 63.4528 35.9536C61.529 35.9536 60.0146 36.7726 58.8276 38.3695V37.4277C59.1141 37.3458 59.3597 37.1001 59.5643 36.7316C59.769 36.3631 59.8918 35.9945 59.8918 35.7079C59.8918 35.1756 59.6053 34.9708 59.0322 35.0118L56.3717 35.9536C55.5531 36.1583 55.1438 36.4859 55.1438 37.0592C55.1438 37.3458 55.2666 37.5915 55.4712 37.7553C55.6759 37.9601 55.9215 38.0419 56.1671 38.0419C56.2489 38.0419 56.3308 38.0419 56.3717 38.0419L56.6582 56.7962C55.9624 56.7962 55.635 57.0828 55.635 57.6561C55.635 57.9428 55.7168 58.1884 55.9215 58.3932C56.1261 58.5979 56.3717 58.6798 56.6582 58.6389H59.3597C60.1374 58.6389 60.5467 58.3522 60.5467 57.738C60.5467 57.0419 60.1374 56.7553 59.3187 56.7962L59.0732 48.7704C59.6053 48.9751 60.3829 49.057 61.4472 49.0161C61.7746 48.9751 62.1839 49.0161 62.7569 49.057C63.33 49.098 63.7393 49.1389 63.9849 49.1389C65.1719 49.1389 66.3179 48.8932 67.3821 48.4428C68.651 47.9105 69.5105 47.1734 70.0426 46.2725C70.411 45.6174 70.6566 45.085 70.7794 44.7165C70.9022 44.348 70.9431 43.7747 70.9431 43.0376C70.9431 42.4644 70.8203 41.973 70.6157 41.5225C70.411 41.0721 70.2064 40.6217 70.0017 40.2122L70.0426 40.2941ZM67.9552 45.0031C67.8324 45.3307 67.5459 45.7812 67.0547 46.3544C66.277 47.2962 65.09 47.7467 63.5346 47.7467C61.7746 47.7467 60.6285 47.3781 60.0555 46.682C59.5234 46.0678 59.2369 45.6583 59.1141 45.4126C58.9094 44.9212 58.7866 44.2251 58.7866 43.3243C58.7866 42.3825 58.9094 41.6454 59.1141 41.154C59.2778 40.8264 59.6053 40.335 60.1374 39.7208C61.0378 38.6562 62.0202 38.1238 63.1662 38.1238C63.7802 38.1238 64.3942 38.2876 65.1309 38.6562C65.8268 39.0247 66.3998 39.4342 66.7682 39.9256C67.0138 40.1713 67.2593 40.6217 67.5049 41.2359C67.8733 42.0549 68.037 42.751 68.037 43.4062C68.037 44.2661 67.9961 44.7984 67.9552 44.9622V45.0031Z" fill="#2B2A29"/>
<path d="M70.0426 40.2941C69.838 39.8437 69.4696 39.3113 68.9784 38.6562C68.4463 38.001 68.037 37.5506 67.6686 37.3049C66.3179 36.404 64.9263 35.9536 63.4528 35.9536C61.529 35.9536 60.0146 36.7726 58.8276 38.3695V37.4277C59.1141 37.3458 59.3597 37.1001 59.5643 36.7316C59.769 36.3631 59.8918 35.9945 59.8918 35.7079C59.8918 35.1756 59.6053 34.9708 59.0322 35.0118L56.3717 35.9536C55.5531 36.1583 55.1438 36.4859 55.1438 37.0592C55.1438 37.3458 55.2666 37.5915 55.4712 37.7553C55.6759 37.9601 55.9215 38.0419 56.1671 38.0419C56.2489 38.0419 56.3308 38.0419 56.3717 38.0419L56.6582 56.7962C55.9624 56.7962 55.635 57.0828 55.635 57.6561C55.635 57.9428 55.7168 58.1884 55.9215 58.3932C56.1261 58.5979 56.3717 58.6798 56.6582 58.6389H59.3597C60.1374 58.6389 60.5467 58.3522 60.5467 57.738C60.5467 57.0419 60.1374 56.7553 59.3187 56.7962L59.0732 48.7704C59.6053 48.9751 60.3829 49.057 61.4472 49.0161C61.7746 48.9751 62.1839 49.0161 62.7569 49.057C63.33 49.098 63.7393 49.1389 63.9849 49.1389C65.1719 49.1389 66.3179 48.8932 67.3821 48.4428C68.651 47.9105 69.5105 47.1734 70.0426 46.2725C70.411 45.6174 70.6566 45.085 70.7794 44.7165C70.9022 44.348 70.9431 43.7747 70.9431 43.0376C70.9431 42.4644 70.8203 41.973 70.6157 41.5225C70.411 41.0721 70.2064 40.6217 70.0017 40.2122L70.0426 40.2941ZM67.9552 45.0031C67.8324 45.3307 67.5459 45.7812 67.0547 46.3544C66.277 47.2962 65.09 47.7467 63.5346 47.7467C61.7746 47.7467 60.6285 47.3781 60.0555 46.682C59.5234 46.0678 59.2369 45.6583 59.1141 45.4126C58.9094 44.9212 58.7866 44.2251 58.7866 43.3243C58.7866 42.3825 58.9094 41.6454 59.1141 41.154C59.2778 40.8264 59.6053 40.335 60.1374 39.7208C61.0378 38.6562 62.0202 38.1238 63.1662 38.1238C63.7802 38.1238 64.3942 38.2876 65.1309 38.6562C65.8268 39.0247 66.3998 39.4342 66.7682 39.9256C67.0138 40.1713 67.2593 40.6217 67.5049 41.2359C67.8733 42.0549 68.037 42.751 68.037 43.4062C68.037 44.2661 67.9961 44.7984 67.9552 44.9622V45.0031Z" fill="#2B2A29"/>
<path d="M179.984 36.4861C179.78 36.4452 179.166 36.4042 178.06 36.4042C177.446 36.4042 176.873 36.609 176.341 36.9775C175.564 37.5508 174.991 38.124 174.622 38.7792C174.909 38.2059 175.032 37.7146 175.032 37.2641C175.032 36.609 174.745 36.3223 174.213 36.3223L171.921 36.7728C171.348 37.0184 171.061 37.387 171.061 37.9193C171.061 38.6564 171.471 38.984 172.248 38.8611V50.6951C171.593 50.8999 171.307 51.2275 171.307 51.6779C171.307 51.9236 171.389 52.1693 171.593 52.374C171.798 52.6197 172.003 52.7016 172.248 52.7016H174.95C175.646 52.7016 176.014 52.374 176.014 51.7598C176.014 51.0227 175.564 50.6951 174.663 50.6951V44.3482C174.663 43.2016 174.827 42.137 175.113 41.1952C175.236 40.7447 175.686 40.2533 176.423 39.6801C177.037 39.2296 177.774 39.0659 178.593 39.1477C178.92 39.1887 179.207 39.3934 179.452 39.721C179.78 40.2124 179.984 40.499 180.148 40.6219C180.557 40.9495 181.089 41.0723 181.826 41.0314C182.522 40.4171 182.849 39.8439 182.849 39.3525C182.849 38.8202 182.44 38.124 181.662 37.2641C181.13 36.7728 180.598 36.5271 180.066 36.4452L179.984 36.4861Z" fill="#2B2A29"/>
<path d="M179.984 36.4861C179.78 36.4452 179.166 36.4042 178.06 36.4042C177.446 36.4042 176.873 36.609 176.341 36.9775C175.564 37.5508 174.991 38.124 174.622 38.7792C174.909 38.2059 175.032 37.7146 175.032 37.2641C175.032 36.609 174.745 36.3223 174.213 36.3223L171.921 36.7728C171.348 37.0184 171.061 37.387 171.061 37.9193C171.061 38.6564 171.471 38.984 172.248 38.8611V50.6951C171.593 50.8999 171.307 51.2275 171.307 51.6779C171.307 51.9236 171.389 52.1693 171.593 52.374C171.798 52.6197 172.003 52.7016 172.248 52.7016H174.95C175.646 52.7016 176.014 52.374 176.014 51.7598C176.014 51.0227 175.564 50.6951 174.663 50.6951V44.3482C174.663 43.2016 174.827 42.137 175.113 41.1952C175.236 40.7447 175.686 40.2533 176.423 39.6801C177.037 39.2296 177.774 39.0659 178.593 39.1477C178.92 39.1887 179.207 39.3934 179.452 39.721C179.78 40.2124 179.984 40.499 180.148 40.6219C180.557 40.9495 181.089 41.0723 181.826 41.0314C182.522 40.4171 182.849 39.8439 182.849 39.3525C182.849 38.8202 182.44 38.124 181.662 37.2641C181.13 36.7728 180.598 36.5271 180.066 36.4452L179.984 36.4861Z" fill="#2B2A29"/>
<path d="M120.799 51.0243C119.898 50.6148 119.448 48.9359 119.448 46.0286L119.694 38.0847C119.98 38.1256 120.185 38.0028 120.308 37.7571C120.471 37.5114 120.512 37.2657 120.512 37.02C120.512 36.4877 120.267 36.2011 119.817 36.1601H116.665C116.215 36.2011 115.969 36.4468 115.969 36.8562C115.969 37.1019 116.051 37.3476 116.215 37.6343C116.378 37.9209 116.583 38.0437 116.788 38.0437V43.9403C116.788 45.0868 116.583 46.1105 116.215 47.0523C115.928 47.7075 115.601 48.2398 115.232 48.6084C114.946 48.895 114.455 49.2226 113.759 49.673C113.431 49.8778 113.104 49.9596 112.735 49.9596C111.63 49.9596 110.812 49.7549 110.239 49.3454C109.461 48.8131 109.093 48.1989 109.134 47.5437L109.052 46.3153C109.011 45.6601 109.052 45.1278 109.134 44.6773C109.379 42.9575 109.502 42.0567 109.502 41.9748C109.788 40.0911 110.075 38.8627 110.402 38.2075C110.935 38.1256 111.221 37.7161 111.221 36.9381C111.221 36.4877 111.098 36.2011 110.812 36.1192H107.496C106.964 36.2011 106.678 36.4877 106.678 36.9791C106.678 37.2657 106.76 37.5114 106.923 37.798C107.087 38.0847 107.292 38.2075 107.537 38.1666C107.087 39.7636 106.76 42.0976 106.555 45.2097C106.473 46.4381 106.514 47.4618 106.719 48.3627C107.292 50.9834 109.093 52.2527 112.162 52.2527C114.864 52.2527 116.419 51.5566 116.788 50.1644C116.788 50.6967 116.829 51.0243 116.91 51.229C116.992 51.4338 117.279 51.6385 117.688 51.9252C118.179 52.048 118.63 52.089 119.08 52.089C120.43 52.089 121.085 51.8433 121.085 51.3519C121.085 51.1881 120.963 51.0652 120.758 50.9834L120.799 51.0243Z" fill="#2B2A29"/>
<path d="M120.799 51.0243C119.898 50.6148 119.448 48.9359 119.448 46.0286L119.694 38.0847C119.98 38.1256 120.185 38.0028 120.308 37.7571C120.471 37.5114 120.512 37.2657 120.512 37.02C120.512 36.4877 120.267 36.2011 119.817 36.1601H116.665C116.215 36.2011 115.969 36.4468 115.969 36.8562C115.969 37.1019 116.051 37.3476 116.215 37.6343C116.378 37.9209 116.583 38.0437 116.788 38.0437V43.9403C116.788 45.0868 116.583 46.1105 116.215 47.0523C115.928 47.7075 115.601 48.2398 115.232 48.6084C114.946 48.895 114.455 49.2226 113.759 49.673C113.431 49.8778 113.104 49.9596 112.735 49.9596C111.63 49.9596 110.812 49.7549 110.239 49.3454C109.461 48.8131 109.093 48.1989 109.134 47.5437L109.052 46.3153C109.011 45.6601 109.052 45.1278 109.134 44.6773C109.379 42.9575 109.502 42.0567 109.502 41.9748C109.788 40.0911 110.075 38.8627 110.402 38.2075C110.935 38.1256 111.221 37.7161 111.221 36.9381C111.221 36.4877 111.098 36.2011 110.812 36.1192H107.496C106.964 36.2011 106.678 36.4877 106.678 36.9791C106.678 37.2657 106.76 37.5114 106.923 37.798C107.087 38.0847 107.292 38.2075 107.537 38.1666C107.087 39.7636 106.76 42.0976 106.555 45.2097C106.473 46.4381 106.514 47.4618 106.719 48.3627C107.292 50.9834 109.093 52.2527 112.162 52.2527C114.864 52.2527 116.419 51.5566 116.788 50.1644C116.788 50.6967 116.829 51.0243 116.91 51.229C116.992 51.4338 117.279 51.6385 117.688 51.9252C118.179 52.048 118.63 52.089 119.08 52.089C120.43 52.089 121.085 51.8433 121.085 51.3519C121.085 51.1881 120.963 51.0652 120.758 50.9834L120.799 51.0243Z" fill="#2B2A29"/>
<path d="M152.846 50.8608L147.566 41.4837L152.191 37.7165C153.624 37.6755 154.32 37.4298 154.32 36.8566C154.32 36.4471 154.033 36.2423 153.501 36.2014H150.472C149.326 36.2014 148.794 36.4061 148.794 36.8566C148.794 37.1022 149.04 37.307 149.49 37.5117L143.637 42.2617V32.1066C144.578 32.1066 145.028 31.779 145.028 31.0829C145.028 30.4277 144.578 30.1411 143.637 30.1411H140.935C139.994 30.1411 139.544 30.4277 139.544 31.001C139.544 31.3285 139.707 31.5333 139.994 31.738C140.28 31.9018 140.608 31.9837 140.935 31.9837V50.4513C139.994 50.4513 139.544 50.738 139.544 51.3522C139.544 51.9255 139.994 52.1712 140.935 52.1712H143.637C144.374 52.1712 144.742 51.9255 144.742 51.4341C144.742 50.9018 144.374 50.5742 143.637 50.4513V44.6367L145.561 43.1216L149.817 51.0656C149.244 51.1884 148.999 51.4341 148.999 51.8436C148.999 52.4987 149.572 52.7854 150.718 52.7854H154.033C154.402 52.7854 154.606 52.5806 154.606 52.2121C154.606 51.8026 154.443 51.475 154.074 51.2294C153.706 50.9837 153.337 50.8608 152.928 50.8608H152.846Z" fill="#2B2A29"/>
<path d="M152.846 50.8608L147.566 41.4837L152.191 37.7165C153.624 37.6755 154.32 37.4298 154.32 36.8566C154.32 36.4471 154.033 36.2423 153.501 36.2014H150.472C149.326 36.2014 148.794 36.4061 148.794 36.8566C148.794 37.1022 149.04 37.307 149.49 37.5117L143.637 42.2617V32.1066C144.578 32.1066 145.028 31.779 145.028 31.0829C145.028 30.4277 144.578 30.1411 143.637 30.1411H140.935C139.994 30.1411 139.544 30.4277 139.544 31.001C139.544 31.3285 139.707 31.5333 139.994 31.738C140.28 31.9018 140.608 31.9837 140.935 31.9837V50.4513C139.994 50.4513 139.544 50.738 139.544 51.3522C139.544 51.9255 139.994 52.1712 140.935 52.1712H143.637C144.374 52.1712 144.742 51.9255 144.742 51.4341C144.742 50.9018 144.374 50.5742 143.637 50.4513V44.6367L145.561 43.1216L149.817 51.0656C149.244 51.1884 148.999 51.4341 148.999 51.8436C148.999 52.4987 149.572 52.7854 150.718 52.7854H154.033C154.402 52.7854 154.606 52.5806 154.606 52.2121C154.606 51.8026 154.443 51.475 154.074 51.2294C153.706 50.9837 153.337 50.8608 152.928 50.8608H152.846Z" fill="#2B2A29"/>
<path d="M160.5 39.1926C160.5 38.6603 160.173 38.3327 159.559 38.2508L156.857 38.8241C156.202 38.9879 155.916 39.2745 155.916 39.684C155.916 39.9297 155.998 40.1344 156.202 40.3391C156.407 40.5439 156.612 40.6258 156.857 40.6258V50.8628C156.202 50.8628 155.916 51.1495 155.916 51.7637C155.916 52.3779 156.243 52.7055 156.857 52.7055H159.559C159.845 52.7055 160.05 52.6236 160.214 52.3779C160.377 52.1732 160.459 51.9275 160.459 51.6818C160.459 51.1495 160.132 50.8628 159.518 50.8628V40.0116C160.132 40.0116 160.459 39.7249 160.459 39.1107L160.5 39.1926Z" fill="#2B2A29"/>
<path d="M160.5 39.1926C160.5 38.6603 160.173 38.3327 159.559 38.2508L156.857 38.8241C156.202 38.9879 155.916 39.2745 155.916 39.684C155.916 39.9297 155.998 40.1344 156.202 40.3391C156.407 40.5439 156.612 40.6258 156.857 40.6258V50.8628C156.202 50.8628 155.916 51.1495 155.916 51.7637C155.916 52.3779 156.243 52.7055 156.857 52.7055H159.559C159.845 52.7055 160.05 52.6236 160.214 52.3779C160.377 52.1732 160.459 51.9275 160.459 51.6818C160.459 51.1495 160.132 50.8628 159.518 50.8628V40.0116C160.132 40.0116 160.459 39.7249 160.459 39.1107L160.5 39.1926Z" fill="#2B2A29"/>
<path d="M166.025 48.4861C165.534 48.4861 165.125 48.6498 164.798 48.9774C164.47 49.305 164.306 49.7145 164.306 50.1649C164.306 50.6563 164.47 51.0658 164.798 51.3934C165.125 51.721 165.534 51.8848 166.025 51.8848C166.517 51.8848 166.885 51.721 167.212 51.3934C167.54 51.0658 167.704 50.6563 167.704 50.1649C167.704 49.6736 167.54 49.305 167.212 48.9774C166.885 48.6498 166.476 48.4861 166.025 48.4861Z" fill="#2B2A29"/>
<path d="M166.025 48.4861C165.534 48.4861 165.125 48.6498 164.798 48.9774C164.47 49.305 164.306 49.7145 164.306 50.1649C164.306 50.6563 164.47 51.0658 164.798 51.3934C165.125 51.721 165.534 51.8848 166.025 51.8848C166.517 51.8848 166.885 51.721 167.212 51.3934C167.54 51.0658 167.704 50.6563 167.704 50.1649C167.704 49.6736 167.54 49.305 167.212 48.9774C166.885 48.6498 166.476 48.4861 166.025 48.4861Z" fill="#2B2A29"/>
<path d="M137.454 40.2941C137.249 39.8437 136.881 39.3113 136.39 38.6562C135.858 38.001 135.448 37.5506 135.08 37.3049C133.729 36.404 132.338 35.9536 130.864 35.9536C128.94 35.9536 127.426 36.7726 126.239 38.3695V37.4277C126.525 37.3458 126.771 37.1001 126.976 36.7316C127.18 36.3631 127.303 35.9945 127.303 35.7079C127.303 35.1756 127.017 34.9708 126.444 35.0118L123.783 35.9536C122.964 36.1583 122.555 36.4859 122.555 37.0592C122.555 37.3458 122.678 37.5915 122.883 37.7553C123.087 37.9601 123.333 38.0419 123.578 38.0419C123.66 38.0419 123.742 38.0419 123.783 38.0419L124.07 56.7962C123.374 56.7962 123.046 57.0828 123.046 57.6561C123.046 57.9428 123.128 58.1884 123.333 58.3932C123.538 58.5979 123.783 58.6798 124.07 58.6389H126.771C127.549 58.6389 127.958 58.3522 127.958 57.738C127.958 57.0419 127.549 56.7553 126.73 56.7962L126.485 48.7704C127.017 48.9751 127.794 49.057 128.859 49.0161C129.186 48.9751 129.595 49.0161 130.168 49.057C130.741 49.098 131.151 49.1389 131.396 49.1389C132.583 49.1389 133.729 48.8932 134.794 48.4428C136.062 47.9105 136.922 47.1734 137.454 46.2725C137.822 45.6174 138.068 45.085 138.191 44.7165C138.314 44.348 138.354 43.7747 138.354 43.0376C138.354 42.4644 138.232 41.973 138.027 41.5225C137.822 41.0721 137.618 40.6217 137.413 40.2122L137.454 40.2941ZM135.367 45.0031C135.244 45.3307 134.957 45.7812 134.466 46.3544C133.688 47.2962 132.501 47.7467 130.946 47.7467C129.186 47.7467 128.04 47.3781 127.467 46.682C126.935 46.0678 126.648 45.6583 126.525 45.4126C126.321 44.9212 126.198 44.2251 126.198 43.3243C126.198 42.3825 126.321 41.6454 126.525 41.154C126.689 40.8264 127.017 40.335 127.549 39.7208C128.449 38.6562 129.432 38.1238 130.578 38.1238C131.192 38.1238 131.806 38.2876 132.542 38.6562C133.238 39.0247 133.811 39.4342 134.18 39.9256C134.425 40.1713 134.671 40.6217 134.916 41.2359C135.285 42.0549 135.448 42.751 135.448 43.4062C135.448 44.2661 135.407 44.7984 135.367 44.9622V45.0031Z" fill="#2B2A29"/>
<path d="M137.454 40.2941C137.249 39.8437 136.881 39.3113 136.39 38.6562C135.858 38.001 135.448 37.5506 135.08 37.3049C133.729 36.404 132.338 35.9536 130.864 35.9536C128.94 35.9536 127.426 36.7726 126.239 38.3695V37.4277C126.525 37.3458 126.771 37.1001 126.976 36.7316C127.18 36.3631 127.303 35.9945 127.303 35.7079C127.303 35.1756 127.017 34.9708 126.444 35.0118L123.783 35.9536C122.964 36.1583 122.555 36.4859 122.555 37.0592C122.555 37.3458 122.678 37.5915 122.883 37.7553C123.087 37.9601 123.333 38.0419 123.578 38.0419C123.66 38.0419 123.742 38.0419 123.783 38.0419L124.07 56.7962C123.374 56.7962 123.046 57.0828 123.046 57.6561C123.046 57.9428 123.128 58.1884 123.333 58.3932C123.538 58.5979 123.783 58.6798 124.07 58.6389H126.771C127.549 58.6389 127.958 58.3522 127.958 57.738C127.958 57.0419 127.549 56.7553 126.73 56.7962L126.485 48.7704C127.017 48.9751 127.794 49.057 128.859 49.0161C129.186 48.9751 129.595 49.0161 130.168 49.057C130.741 49.098 131.151 49.1389 131.396 49.1389C132.583 49.1389 133.729 48.8932 134.794 48.4428C136.062 47.9105 136.922 47.1734 137.454 46.2725C137.822 45.6174 138.068 45.085 138.191 44.7165C138.314 44.348 138.354 43.7747 138.354 43.0376C138.354 42.4644 138.232 41.973 138.027 41.5225C137.822 41.0721 137.618 40.6217 137.413 40.2122L137.454 40.2941ZM135.367 45.0031C135.244 45.3307 134.957 45.7812 134.466 46.3544C133.688 47.2962 132.501 47.7467 130.946 47.7467C129.186 47.7467 128.04 47.3781 127.467 46.682C126.935 46.0678 126.648 45.6583 126.525 45.4126C126.321 44.9212 126.198 44.2251 126.198 43.3243C126.198 42.3825 126.321 41.6454 126.525 41.154C126.689 40.8264 127.017 40.335 127.549 39.7208C128.449 38.6562 129.432 38.1238 130.578 38.1238C131.192 38.1238 131.806 38.2876 132.542 38.6562C133.238 39.0247 133.811 39.4342 134.18 39.9256C134.425 40.1713 134.671 40.6217 134.916 41.2359C135.285 42.0549 135.448 42.751 135.448 43.4062C135.448 44.2661 135.407 44.7984 135.367 44.9622V45.0031Z" fill="#2B2A29"/>
<path fill-rule="evenodd" clip-rule="evenodd" d="M52.0752 13.5962C53.385 13.5962 54.4492 14.6608 54.4492 15.9712C54.4492 17.2815 53.385 18.3461 52.0752 18.3461C50.7654 18.3461 49.7012 17.2815 49.7012 15.9712C49.7012 14.6608 50.7654 13.5962 52.0752 13.5962Z" fill="#FEFEFE"/>
<path fill-rule="evenodd" clip-rule="evenodd" d="M52.0752 13.5962C53.385 13.5962 54.4492 14.6608 54.4492 15.9712C54.4492 17.2815 53.385 18.3461 52.0752 18.3461C50.7654 18.3461 49.7012 17.2815 49.7012 15.9712C49.7012 14.6608 50.7654 13.5962 52.0752 13.5962Z" fill="#FEFEFE"/>
<path fill-rule="evenodd" clip-rule="evenodd" d="M3.90186 37.9996L8.0768 22.3574C10.7782 19.6138 14.0118 18.3854 18.1867 18.3854C18.6779 18.3854 19.6602 18.5901 21.1747 18.9996C22.6891 19.4091 23.6715 19.6138 24.1217 19.6138C24.9813 19.6138 25.6361 19.2044 26.1273 18.4263C26.4548 17.6483 26.8231 16.9113 27.1506 16.2151C27.3143 16.5427 27.4371 17.3617 27.5599 18.7539C27.6827 20.2281 27.7646 21.088 27.8464 21.3746C28.0101 21.9479 28.2557 22.7669 28.5832 23.8725C28.9515 25.1828 29.3199 25.9608 29.6064 26.2474C29.4837 26.2065 29.3609 26.2065 29.279 26.2065C29.1971 26.2065 29.0743 26.2884 28.9106 26.4522C28.8697 26.4112 28.7878 26.3703 28.665 26.2884L24.7357 22.2755C22.7301 20.5966 20.1923 19.7776 17.1635 19.7776C15.8946 19.7776 14.7076 20.2281 13.5615 21.1289C10.6964 23.3811 9.30473 27.1074 9.30473 32.3078C9.30473 34.2733 9.30473 35.0923 9.30473 34.8466C9.22287 35.3789 9.18194 35.9522 9.18194 36.4845C9.18194 40.9888 10.6964 44.797 13.7662 47.8681L13.9299 48.0319C15.1988 49.3422 17.2863 49.9564 20.1923 49.9564C21.9114 49.9564 23.2622 49.6698 24.3264 49.1375C25.104 47.7043 25.4724 46.1483 25.4724 44.4284C25.4724 42.0534 24.7357 40.0879 23.2212 38.4909C21.8296 37.0168 20.1514 36.2797 18.2277 36.2797C15.8946 36.2797 13.5206 37.3853 11.1057 39.5556L11.0238 39.4328L13.316 36.853C14.3392 35.6655 15.5262 34.7647 16.9997 34.0685C18.4323 33.3724 19.8649 33.0448 21.2565 33.0448C23.2622 33.0448 25.0222 33.7819 26.4957 35.2151C28.0511 36.8121 28.8288 38.8185 28.8288 41.2754C28.8288 44.0599 27.9692 46.2711 26.291 47.95L23.0575 51.1849C21.8705 52.3724 19.783 52.9456 16.7541 52.9456C13.9299 52.9456 11.9243 52.3314 10.7373 51.1439C10.0006 50.4888 9.2638 49.8336 8.52704 49.1375C7.70843 48.3185 7.09446 47.4995 6.68515 46.6806C6.4805 46.1892 5.86654 44.5922 4.84327 41.9715C4.59768 41.3164 4.27023 40.0879 3.94279 38.2862V37.8767L3.90186 37.9996Z" fill="#FEFEFE"/>
<path fill-rule="evenodd" clip-rule="evenodd" d="M3.90186 37.9996L8.0768 22.3574C10.7782 19.6138 14.0118 18.3854 18.1867 18.3854C18.6779 18.3854 19.6602 18.5901 21.1747 18.9996C22.6891 19.4091 23.6715 19.6138 24.1217 19.6138C24.9813 19.6138 25.6361 19.2044 26.1273 18.4263C26.4548 17.6483 26.8231 16.9113 27.1506 16.2151C27.3143 16.5427 27.4371 17.3617 27.5599 18.7539C27.6827 20.2281 27.7646 21.088 27.8464 21.3746C28.0101 21.9479 28.2557 22.7669 28.5832 23.8725C28.9515 25.1828 29.3199 25.9608 29.6064 26.2474C29.4837 26.2065 29.3609 26.2065 29.279 26.2065C29.1971 26.2065 29.0743 26.2884 28.9106 26.4522C28.8697 26.4112 28.7878 26.3703 28.665 26.2884L24.7357 22.2755C22.7301 20.5966 20.1923 19.7776 17.1635 19.7776C15.8946 19.7776 14.7076 20.2281 13.5615 21.1289C10.6964 23.3811 9.30473 27.1074 9.30473 32.3078C9.30473 34.2733 9.30473 35.0923 9.30473 34.8466C9.22287 35.3789 9.18194 35.9522 9.18194 36.4845C9.18194 40.9888 10.6964 44.797 13.7662 47.8681L13.9299 48.0319C15.1988 49.3422 17.2863 49.9564 20.1923 49.9564C21.9114 49.9564 23.2622 49.6698 24.3264 49.1375C25.104 47.7043 25.4724 46.1483 25.4724 44.4284C25.4724 42.0534 24.7357 40.0879 23.2212 38.4909C21.8296 37.0168 20.1514 36.2797 18.2277 36.2797C15.8946 36.2797 13.5206 37.3853 11.1057 39.5556L11.0238 39.4328L13.316 36.853C14.3392 35.6655 15.5262 34.7647 16.9997 34.0685C18.4323 33.3724 19.8649 33.0448 21.2565 33.0448C23.2622 33.0448 25.0222 33.7819 26.4957 35.2151C28.0511 36.8121 28.8288 38.8185 28.8288 41.2754C28.8288 44.0599 27.9692 46.2711 26.291 47.95L23.0575 51.1849C21.8705 52.3724 19.783 52.9456 16.7541 52.9456C13.9299 52.9456 11.9243 52.3314 10.7373 51.1439C10.0006 50.4888 9.2638 49.8336 8.52704 49.1375C7.70843 48.3185 7.09446 47.4995 6.68515 46.6806C6.4805 46.1892 5.86654 44.5922 4.84327 41.9715C4.59768 41.3164 4.27023 40.0879 3.94279 38.2862V37.8767L3.90186 37.9996Z" fill="#FEFEFE"/>
<path fill-rule="evenodd" clip-rule="evenodd" d="M51.4618 41.5637L48.7194 52.0055C46.7547 54.5443 44.3807 56.0594 41.5974 56.6326C40.7788 57.0012 40.1649 57.165 39.7556 57.165H37.9955C35.8262 57.165 33.7387 56.6326 31.774 55.6089C29.3591 54.3395 28.1721 52.7426 28.1721 50.7771C28.1721 48.9344 29.1545 47.4193 31.1601 46.1499C32.9201 45.0443 34.7211 44.512 36.6448 44.512C37.9955 44.512 39.4281 44.9215 40.9426 45.7404C42.6616 46.6822 43.5212 47.7469 43.5212 49.0163C43.5212 49.999 42.9482 50.8589 41.843 51.5551C40.8607 52.2102 39.8783 52.4969 38.8141 52.4969C38.0774 52.4969 37.2588 52.2921 36.4402 51.8827C35.4578 51.3913 34.9257 50.818 34.9257 50.2038C34.9257 49.8762 35.0894 49.5077 35.4169 49.1391C35.7443 48.7706 36.0718 48.5658 36.3992 48.5658C36.8085 48.5658 37.2997 48.8525 37.8727 49.4667C37.095 49.999 36.7267 50.4085 36.7267 50.7361C36.7267 51.4322 37.095 51.7598 37.8727 51.7598C38.4458 51.7598 38.9369 51.4322 39.4281 50.7361C39.9193 50.04 40.1649 49.3848 40.1649 48.7296C40.1649 47.8288 39.7556 47.0508 38.896 46.3546C38.0774 45.6995 37.2178 45.3719 36.2355 45.3719C34.6392 45.3719 33.4113 45.8633 32.4699 46.846C31.5285 47.8288 31.0782 49.0982 31.0782 50.7361C31.0782 52.2512 31.8559 53.5615 33.4522 54.5852C34.8439 55.527 36.3583 55.9775 37.9546 55.9775C38.3639 55.9775 38.8551 55.9365 39.469 55.8546C42.1705 55.2404 44.2989 53.8482 45.7724 51.6779C47.1231 49.7124 47.8189 47.5012 47.8189 45.0034C47.8189 44.9215 47.8189 44.7577 47.778 44.512C47.7371 44.2663 47.7371 44.0616 47.7371 43.9797C47.7371 42.7512 46.6319 41.3999 44.3807 39.9258C42.3342 38.5745 40.656 37.8784 39.4281 37.8784C40.4514 37.387 41.4337 36.6499 42.4161 35.5853C43.5212 34.3978 44.0533 33.3331 44.0533 32.3504C44.0533 31.1219 43.5212 30.0982 42.457 29.2793C41.4747 28.5422 40.3695 28.1737 39.1416 28.1737C37.1769 28.1737 35.7034 28.6241 34.6392 29.525C34.0252 30.0573 33.3703 30.9172 32.7154 32.1866C32.1424 33.2512 31.6512 33.8245 31.201 33.9474C31.5694 32.2685 32.0196 29.6068 32.5927 25.9625C32.8792 26.331 33.1657 26.7405 33.4522 27.15C33.9024 27.6413 34.2708 27.928 34.5164 27.928C34.8439 27.928 35.7034 27.7642 37.095 27.4775C38.5276 27.15 39.3462 27.0271 39.5918 27.0271C41.4337 26.9862 43.1937 27.3138 44.8719 27.9689C47.0822 28.8288 48.1873 30.0163 48.1873 31.5314C48.1873 32.5551 47.6961 33.5379 46.7138 34.4797C46.4682 34.6844 45.5677 35.3805 44.0124 36.609C44.6673 36.7728 45.4449 37.0185 46.3864 37.2642C47.3687 37.6327 48.0236 37.9193 48.2692 38.1241C48.7194 38.4107 49.1697 38.6973 49.538 38.9021C50.1929 39.3116 50.766 40.0486 51.2571 41.1133C51.2981 41.2361 51.339 41.5228 51.4209 41.6456L51.4618 41.5637Z" fill="#FEFEFE"/>
<path fill-rule="evenodd" clip-rule="evenodd" d="M51.4618 41.5637L48.7194 52.0055C46.7547 54.5443 44.3807 56.0594 41.5974 56.6326C40.7788 57.0012 40.1649 57.165 39.7556 57.165H37.9955C35.8262 57.165 33.7387 56.6326 31.774 55.6089C29.3591 54.3395 28.1721 52.7426 28.1721 50.7771C28.1721 48.9344 29.1545 47.4193 31.1601 46.1499C32.9201 45.0443 34.7211 44.512 36.6448 44.512C37.9955 44.512 39.4281 44.9215 40.9426 45.7404C42.6616 46.6822 43.5212 47.7469 43.5212 49.0163C43.5212 49.999 42.9482 50.8589 41.843 51.5551C40.8607 52.2102 39.8783 52.4969 38.8141 52.4969C38.0774 52.4969 37.2588 52.2921 36.4402 51.8827C35.4578 51.3913 34.9257 50.818 34.9257 50.2038C34.9257 49.8762 35.0894 49.5077 35.4169 49.1391C35.7443 48.7706 36.0718 48.5658 36.3992 48.5658C36.8085 48.5658 37.2997 48.8525 37.8727 49.4667C37.095 49.999 36.7267 50.4085 36.7267 50.7361C36.7267 51.4322 37.095 51.7598 37.8727 51.7598C38.4458 51.7598 38.9369 51.4322 39.4281 50.7361C39.9193 50.04 40.1649 49.3848 40.1649 48.7296C40.1649 47.8288 39.7556 47.0508 38.896 46.3546C38.0774 45.6995 37.2178 45.3719 36.2355 45.3719C34.6392 45.3719 33.4113 45.8633 32.4699 46.846C31.5285 47.8288 31.0782 49.0982 31.0782 50.7361C31.0782 52.2512 31.8559 53.5615 33.4522 54.5852C34.8439 55.527 36.3583 55.9775 37.9546 55.9775C38.3639 55.9775 38.8551 55.9365 39.469 55.8546C42.1705 55.2404 44.2989 53.8482 45.7724 51.6779C47.1231 49.7124 47.8189 47.5012 47.8189 45.0034C47.8189 44.9215 47.8189 44.7577 47.778 44.512C47.7371 44.2663 47.7371 44.0616 47.7371 43.9797C47.7371 42.7512 46.6319 41.3999 44.3807 39.9258C42.3342 38.5745 40.656 37.8784 39.4281 37.8784C40.4514 37.387 41.4337 36.6499 42.4161 35.5853C43.5212 34.3978 44.0533 33.3331 44.0533 32.3504C44.0533 31.1219 43.5212 30.0982 42.457 29.2793C41.4747 28.5422 40.3695 28.1737 39.1416 28.1737C37.1769 28.1737 35.7034 28.6241 34.6392 29.525C34.0252 30.0573 33.3703 30.9172 32.7154 32.1866C32.1424 33.2512 31.6512 33.8245 31.201 33.9474C31.5694 32.2685 32.0196 29.6068 32.5927 25.9625C32.8792 26.331 33.1657 26.7405 33.4522 27.15C33.9024 27.6413 34.2708 27.928 34.5164 27.928C34.8439 27.928 35.7034 27.7642 37.095 27.4775C38.5276 27.15 39.3462 27.0271 39.5918 27.0271C41.4337 26.9862 43.1937 27.3138 44.8719 27.9689C47.0822 28.8288 48.1873 30.0163 48.1873 31.5314C48.1873 32.5551 47.6961 33.5379 46.7138 34.4797C46.4682 34.6844 45.5677 35.3805 44.0124 36.609C44.6673 36.7728 45.4449 37.0185 46.3864 37.2642C47.3687 37.6327 48.0236 37.9193 48.2692 38.1241C48.7194 38.4107 49.1697 38.6973 49.538 38.9021C50.1929 39.3116 50.766 40.0486 51.2571 41.1133C51.2981 41.2361 51.339 41.5228 51.4209 41.6456L51.4618 41.5637Z" fill="#FEFEFE"/>
<path fill-rule="evenodd" clip-rule="evenodd" d="M59.6488 1.63793C60.5084 1.39224 61.327 1.1875 62.2275 0.982756C62.5958 0.900859 62.884 0.843285 63.2523 0.720441L63.4145 0.696119L63.1279 0C63.0461 0 62.3502 0.163793 62.2275 0.204741C61.286 0.409482 60.3856 0.655171 59.4442 0.900859L59.6488 1.63793ZM53.1408 15.4784C52.445 14.3728 52.1994 13.3491 52.1175 12.0388L51.3398 12.0797C51.4217 13.431 51.7492 14.7413 52.4859 15.8879L53.1408 15.4784ZM52.2403 9.82756C52.445 8.64006 52.8543 7.41162 53.4273 6.30602L52.7315 5.93748C52.1585 7.08403 51.7082 8.39437 51.4626 9.66377L52.1994 9.78661L52.2403 9.82756Z" fill="#36A6F2"/>
<path d="M57.6113 1.56058C55.4989 2.28102 54.4107 3.46174 54.1306 3.96205C54.2106 4.02208 54.4307 4.19019 54.6707 4.3823C55.2948 3.27763 57.0912 2.48114 57.9113 2.22098C57.8713 2.14093 57.7553 1.89678 57.6113 1.56058Z" fill="#3EAAE0"/>
<defs>
<linearGradient id="paint0_linear" x1="20.8379" y1="3.49361" x2="39.3902" y2="55.2004" gradientUnits="userSpaceOnUse">
<stop stop-color="#0478B1"/>
<stop offset="1" stop-color="#3EAAE0"/>
</linearGradient>
</defs>
</svg>
