<svg width="200" height="67" fill="none" xmlns="http://www.w3.org/2000/svg"><path fill="#fff" d="M0 0h199.958v67H0z"/><path fill-rule="evenodd" clip-rule="evenodd" d="M59.443 19.535l-.081-.04-.492-.165-.49-.163-.492-.164-.491-.164-.491-.164-.532-.164-.532-.163-.246.737.532.163.532.164.491.164.491.164.492.164.49.163.492.164.082.041.245-.737zm104.333 3.194l-.245-.082-.246.737.246.082.245-.737zm-2.456-.819l-.736-.246-.778-.245-.778-.246-.777-.246-.573-.163-.205.737.573.163.778.246.777.246.778.245.737.246.245-.737h-.041zm-5.853-1.802l-.245-.082-.737-.204-.737-.205-.737-.205-.736-.204-.532-.164-.205.737.532.164.696.204.737.205.736.205.737.204.246.082.204-.737h.041zm-5.894-1.638h-.041l-.696-.163-.695-.164-.696-.164-.655-.164-.655-.164-.286-.081-.164.737.286.082.655.163.655.164.655.164.696.164.696.163h.041l.204-.737zm-5.976-1.433h-.041l-.654-.123-.614-.122-.614-.123-.614-.123-.614-.123-.573-.123-.123.737.573.123.614.123.614.123.614.123.614.122.614.123h.041l.163-.737zm-6.017-1.187l-.122-.041-.573-.082-.573-.082-.573-.082-.573-.082-.573-.082-.573-.082-.246-.04-.082.778.246.04.573.082.573.082.573.082.573.082.573.082.573.082.123.04.122-.736-.041-.041zm-6.057-.86l-.205-.041-.532-.041-.532-.041-.532-.04-.532-.042-.492-.04-.491-.042-.491-.04h-.041l-.041.777h.041l.491.041.492.041.491.041.491.041.532.041.532.041.532.04.205.042.082-.778zm-6.14-.492H121.536v.779h3.806l.041-.778zm-6.14-.04h-1.105l-.409.04-.409.041-.41.041-.409.041-.409.041-.41.041-.286.041.082.778.286-.04.41-.042.409-.04.409-.042.41-.04.409-.041.409-.041h1.105l-.041-.779h-.041zm-6.139.49h-.164l-.368.042-.369.04-.368.042-.368.04-.369.042-.368.04-.369.041-.368.042-.368.081-.369.082.123.737.368-.082.369-.081.368-.041.369-.041.368-.041.368-.041.369-.041.368-.041.369-.041.368-.041h.164l-.082-.778-.041.04zm-6.058 1.025l-.123.04-.327.082-.328.082-.327.082-.328.082-.327.082-.327.082-.328.082-.327.082-.328.082-.327.081-.328.082h-.041l.205.737h.041l.327-.081.328-.082.327-.082.328-.082.327-.082.328-.082.327-.082.328-.082.327-.082.327-.082.328-.081.123-.041-.164-.737h-.041zm-5.935 1.515l-.205.04-.286.082-.287.082-.286.082-.287.082-.286.082-.287.082-.286.082-.287.082-.286.082-.287.082-.286.082-.205.081.246.738.204-.082.287-.082.286-.082.287-.082.286-.082.287-.082.286-.082.287-.082.286-.082.287-.081.286-.082.287-.082.205-.041-.205-.737h-.041zm-5.853 1.76l-.205.082-.286.082-.287.082-.286.082-.287.082-.286.082-.287.082-.286.082-.287.081-.286.082-.287.082-.286.082-.287.082h-.04l.204.737h.04l.287-.082.287-.082.286-.081.287-.082.286-.082.287-.082.286-.082.287-.082.286-.082.287-.082.287-.082.286-.082.205-.04-.246-.738.041-.04zm-5.853 1.68h-.041l-.287.081-.286.082-.287.082-.286.082-.287.082-.286.082-.287.082-.286.081-.287.082-.286.041-.287.041-.286.041-.164.041.123.737.163-.04.287-.042.287-.04.286-.042.287-.081.286-.082.287-.082.286-.082.287-.082.286-.082.287-.082.286-.082.287-.082h.04l-.204-.737h.082zm-5.935 1.187l-.287.04-.327.042-.328.04-.327.042-.327.04-.328.041-.327.041-.328.041-.327.041-.328.041-.327.041h-.328l.041.778h.328l.327-.04.328-.042.327-.04.328-.041.327-.041.328-.041.327-.041.327-.041.328-.041.327-.041.287-.041-.082-.778h.04zm-6.058.41h-2.947l-.368-.042-.369-.04h-.163l-.082.777h.163l.369.041.368.041.369.041H77.412V22.525zm-6.058-.37l-.204-.04-.41-.041-.409-.041-.41-.041-.409-.082-.409-.082-.41-.082-.409-.082-.409-.082-.327-.081-.164.737.328.082.409.081.41.082.408.082.41.082.409.082.41.041.409.04.409.042.205.04.081-.777.082.04zm-5.976-1.064l-.409-.082-.45-.123-.45-.122-.45-.123-.45-.123-.451-.123-.45-.123-.45-.123-.082-.04-.205.736.123.041.45.123.45.123.45.123.45.123.45.123.451.122.45.123.41.082.163-.737z" fill="#36A6F2"/><path fill-rule="evenodd" clip-rule="evenodd" d="M45.445 63.958c-.573 2.17-2.824 3.48-5.034 2.907l-37.37-9.91C.87 56.383-.44 54.13.135 51.92L13.11 3.6c.573-2.17 2.824-3.48 5.034-2.907l37.37 9.91c2.17.572 3.48 2.825 2.906 5.036L45.445 63.958z" fill="url(#paint0_linear)"/><path fill-rule="evenodd" clip-rule="evenodd" d="M45.445 63.958c-.573 2.17-2.824 3.48-5.034 2.907l-37.37-9.91C.87 56.383-.44 54.13.135 51.92L13.11 3.6c.573-2.17 2.824-3.48 5.034-2.907l37.37 9.91c2.17.572 3.48 2.825 2.906 5.036L45.445 63.958z" fill="#36A6F2"/><path d="M199.671 51.024c-.901-.41-1.351-2.088-1.351-4.995l.246-7.944c.286.04.491-.082.614-.328.163-.246.204-.491.204-.737 0-.532-.245-.819-.695-.86h-3.152c-.45.041-.696.287-.696.696 0 .246.082.492.246.778.163.287.368.41.573.41v5.896c0 1.147-.205 2.17-.573 3.112-.287.656-.614 1.188-.983 1.556-.286.287-.777.615-1.473 1.065a1.848 1.848 0 01-1.023.287c-1.106 0-1.924-.205-2.497-.615-.778-.532-1.146-1.146-1.105-1.801l-.082-1.229c-.041-.655 0-1.187.082-1.638.245-1.72.368-2.62.368-2.702.287-1.884.573-3.112.9-3.767.533-.082.819-.492.819-1.27 0-.45-.123-.737-.409-.819h-3.316c-.532.082-.818.369-.818.86 0 .287.082.532.245.819.164.287.369.41.614.369-.45 1.597-.777 3.93-.982 7.043-.082 1.228-.041 2.252.164 3.153.573 2.62 2.374 3.89 5.444 3.89 2.701 0 4.256-.696 4.625-2.089 0 .533.041.86.122 1.065.082.205.369.41.778.696.491.123.942.164 1.392.164 1.351 0 2.005-.246 2.005-.737 0-.164-.122-.287-.327-.369l.041.041z" fill="#2B2A29"/><path d="M199.671 51.024c-.901-.41-1.351-2.088-1.351-4.995l.246-7.944c.286.04.491-.082.614-.328.163-.246.204-.491.204-.737 0-.532-.245-.819-.695-.86h-3.152c-.45.041-.696.287-.696.696 0 .246.082.492.246.778.163.287.368.41.573.41v5.896c0 1.147-.205 2.17-.573 3.112-.287.656-.614 1.188-.983 1.556-.286.287-.777.615-1.473 1.065a1.848 1.848 0 01-1.023.287c-1.106 0-1.924-.205-2.497-.615-.778-.532-1.146-1.146-1.105-1.801l-.082-1.229c-.041-.655 0-1.187.082-1.638.245-1.72.368-2.62.368-2.702.287-1.884.573-3.112.9-3.767.533-.082.819-.492.819-1.27 0-.45-.123-.737-.409-.819h-3.316c-.532.082-.818.369-.818.86 0 .287.082.532.245.819.164.287.369.41.614.369-.45 1.597-.777 3.93-.982 7.043-.082 1.228-.041 2.252.164 3.153.573 2.62 2.374 3.89 5.444 3.89 2.701 0 4.256-.696 4.625-2.089 0 .533.041.86.122 1.065.082.205.369.41.778.696.491.123.942.164 1.392.164 1.351 0 2.005-.246 2.005-.737 0-.164-.122-.287-.327-.369l.041.041zM80.4 36.243c-1.883 0-3.52.655-5.035 1.924-2.046 1.761-3.07 3.89-3.07 6.389 0 2.17.901 4.176 2.661 6.06 1.474 1.515 3.275 2.293 5.403 2.293 3.029 0 5.198-1.27 6.549-3.85.9-1.76 1.35-3.316 1.35-4.708 0-2.13-.859-4.054-2.537-5.815-1.514-1.556-3.275-2.293-5.403-2.293h.082zm4.666 11.056c-.327 1.024-.778 1.843-1.31 2.498-.982 1.146-2.087 1.679-3.356 1.679-1.269 0-2.374-.574-3.356-1.68-.573-.654-1.024-1.473-1.392-2.415-.368-.983-.532-1.884-.532-2.785 0-.941.204-1.965.614-3.03 1.064-2.62 2.62-3.93 4.666-3.93 1.269 0 2.374.572 3.356 1.678.532.614.983 1.433 1.31 2.498.328.983.491 1.925.491 2.784 0 .901-.163 1.802-.45 2.785l-.04-.082z" fill="#2B2A29"/><path d="M80.4 36.243c-1.883 0-3.52.655-5.035 1.924-2.046 1.761-3.07 3.89-3.07 6.389 0 2.17.901 4.176 2.661 6.06 1.474 1.515 3.275 2.293 5.403 2.293 3.029 0 5.198-1.27 6.549-3.85.9-1.76 1.35-3.316 1.35-4.708 0-2.13-.859-4.054-2.537-5.815-1.514-1.556-3.275-2.293-5.403-2.293h.082zm4.666 11.056c-.327 1.024-.778 1.843-1.31 2.498-.982 1.146-2.087 1.679-3.356 1.679-1.269 0-2.374-.574-3.356-1.68-.573-.654-1.024-1.473-1.392-2.415-.368-.983-.532-1.884-.532-2.785 0-.941.204-1.965.614-3.03 1.064-2.62 2.62-3.93 4.666-3.93 1.269 0 2.374.572 3.356 1.678.532.614.983 1.433 1.31 2.498.328.983.491 1.925.491 2.784 0 .901-.163 1.802-.45 2.785l-.04-.082zM102.664 50.86l-5.28-9.376 4.625-3.767c1.433-.041 2.129-.287 2.129-.86 0-.41-.287-.615-.819-.656h-3.029c-1.146 0-1.678.205-1.678.656 0 .245.246.45.696.655l-5.853 4.75V32.107c.941 0 1.392-.328 1.392-1.024 0-.655-.45-.942-1.392-.942h-2.701c-.942 0-1.392.287-1.392.86 0 .327.163.532.45.737a1.9 1.9 0 00.942.246V50.45c-.942 0-1.392.287-1.392.901 0 .574.45.82 1.392.82h2.7c.738 0 1.106-.246 1.106-.738 0-.532-.368-.86-1.105-.983v-5.814l1.924-1.515 4.256 7.944c-.573.122-.818.368-.818.778 0 .655.573.941 1.719.941h3.315c.369 0 .573-.204.573-.573 0-.41-.163-.737-.532-.983-.368-.245-.736-.368-1.146-.368h-.082z" fill="#2B2A29"/><path d="M102.664 50.86l-5.28-9.376 4.625-3.767c1.433-.041 2.129-.287 2.129-.86 0-.41-.287-.615-.819-.656h-3.029c-1.146 0-1.678.205-1.678.656 0 .245.246.45.696.655l-5.853 4.75V32.107c.941 0 1.392-.328 1.392-1.024 0-.655-.45-.942-1.392-.942h-2.701c-.942 0-1.392.287-1.392.86 0 .327.163.532.45.737a1.9 1.9 0 00.942.246V50.45c-.942 0-1.392.287-1.392.901 0 .574.45.82 1.392.82h2.7c.738 0 1.106-.246 1.106-.738 0-.532-.368-.86-1.105-.983v-5.814l1.924-1.515 4.256 7.944c-.573.122-.818.368-.818.778 0 .655.573.941 1.719.941h3.315c.369 0 .573-.204.573-.573 0-.41-.163-.737-.532-.983-.368-.245-.736-.368-1.146-.368h-.082zM158.047 36.159c.491 0 .901-.164 1.228-.492.328-.327.491-.737.491-1.228 0-.492-.163-.86-.491-1.188-.327-.327-.737-.491-1.228-.491s-.859.164-1.187.491a1.642 1.642 0 00-.491 1.188c0 .491.164.9.491 1.228a1.64 1.64 0 001.187.492z" fill="#2B2A29"/><path d="M158.047 36.159c.491 0 .901-.164 1.228-.492.328-.327.491-.737.491-1.228 0-.492-.163-.86-.491-1.188-.327-.327-.737-.491-1.228-.491s-.859.164-1.187.491a1.642 1.642 0 00-.491 1.188c0 .491.164.9.491 1.228a1.64 1.64 0 001.187.492zM70.043 40.294c-.205-.45-.573-.983-1.065-1.638-.532-.655-.941-1.105-1.31-1.351-1.35-.901-2.742-1.351-4.215-1.351-1.924 0-3.438.819-4.625 2.416v-.942c.286-.082.532-.328.736-.696.205-.369.328-.737.328-1.024 0-.532-.287-.737-.86-.696l-2.66.942c-.819.204-1.228.532-1.228 1.105 0 .287.123.533.327.696.205.205.45.287.696.287h.205l.286 18.754c-.696 0-1.023.287-1.023.86 0 .287.082.532.287.737.204.205.45.287.736.246h2.702c.777 0 1.187-.287 1.187-.901 0-.696-.41-.983-1.228-.942l-.246-8.026c.532.205 1.31.287 2.374.246.328-.04.737 0 1.31.041.573.041.982.082 1.228.082a8.691 8.691 0 003.397-.696c1.269-.532 2.128-1.27 2.66-2.17.369-.656.615-1.188.737-1.556.123-.369.164-.942.164-1.68 0-.573-.123-1.064-.327-1.514-.205-.45-.41-.901-.614-1.31l.04.081zm-2.088 4.71c-.123.327-.41.777-.9 1.35-.778.942-1.965 1.393-3.52 1.393-1.76 0-2.906-.369-3.48-1.065-.532-.614-.818-1.024-.94-1.27-.206-.49-.328-1.187-.328-2.088 0-.941.122-1.679.327-2.17.164-.328.491-.819 1.023-1.433.9-1.065 1.883-1.597 3.03-1.597.613 0 1.227.164 1.964.532.696.369 1.269.778 1.637 1.27.246.245.491.696.737 1.31.368.819.532 1.515.532 2.17 0 .86-.04 1.392-.082 1.556v.041z" fill="#2B2A29"/><path d="M70.043 40.294c-.205-.45-.573-.983-1.065-1.638-.532-.655-.941-1.105-1.31-1.351-1.35-.901-2.742-1.351-4.215-1.351-1.924 0-3.438.819-4.625 2.416v-.942c.286-.082.532-.328.736-.696.205-.369.328-.737.328-1.024 0-.532-.287-.737-.86-.696l-2.66.942c-.819.204-1.228.532-1.228 1.105 0 .287.123.533.327.696.205.205.45.287.696.287h.205l.286 18.754c-.696 0-1.023.287-1.023.86 0 .287.082.532.287.737.204.205.45.287.736.246h2.702c.777 0 1.187-.287 1.187-.901 0-.696-.41-.983-1.228-.942l-.246-8.026c.532.205 1.31.287 2.374.246.328-.04.737 0 1.31.041.573.041.982.082 1.228.082a8.691 8.691 0 003.397-.696c1.269-.532 2.128-1.27 2.66-2.17.369-.656.615-1.188.737-1.556.123-.369.164-.942.164-1.68 0-.573-.123-1.064-.327-1.514-.205-.45-.41-.901-.614-1.31l.04.081zm-2.088 4.71c-.123.327-.41.777-.9 1.35-.778.942-1.965 1.393-3.52 1.393-1.76 0-2.906-.369-3.48-1.065-.532-.614-.818-1.024-.94-1.27-.206-.49-.328-1.187-.328-2.088 0-.941.122-1.679.327-2.17.164-.328.491-.819 1.023-1.433.9-1.065 1.883-1.597 3.03-1.597.613 0 1.227.164 1.964.532.696.369 1.269.778 1.637 1.27.246.245.491.696.737 1.31.368.819.532 1.515.532 2.17 0 .86-.04 1.392-.082 1.556v.041zM179.984 36.486c-.204-.04-.818-.082-1.924-.082-.614 0-1.187.205-1.719.573-.777.574-1.35 1.147-1.719 1.802.287-.573.41-1.064.41-1.515 0-.655-.287-.942-.819-.942l-2.292.45c-.573.246-.86.615-.86 1.147 0 .737.41 1.065 1.187.942v11.834c-.655.205-.941.532-.941.983 0 .246.082.491.286.696.205.246.41.328.655.328h2.702c.696 0 1.064-.328 1.064-.942 0-.737-.45-1.065-1.351-1.065v-6.347c0-1.146.164-2.211.45-3.153.123-.45.573-.942 1.31-1.515.614-.45 1.351-.614 2.17-.532.327.04.614.245.859.573.328.491.532.778.696.9.409.328.941.451 1.678.41.696-.614 1.023-1.187 1.023-1.678 0-.533-.409-1.229-1.187-2.089-.532-.491-1.064-.737-1.596-.819l-.082.041z" fill="#2B2A29"/><path d="M179.984 36.486c-.204-.04-.818-.082-1.924-.082-.614 0-1.187.205-1.719.573-.777.574-1.35 1.147-1.719 1.802.287-.573.41-1.064.41-1.515 0-.655-.287-.942-.819-.942l-2.292.45c-.573.246-.86.615-.86 1.147 0 .737.41 1.065 1.187.942v11.834c-.655.205-.941.532-.941.983 0 .246.082.491.286.696.205.246.41.328.655.328h2.702c.696 0 1.064-.328 1.064-.942 0-.737-.45-1.065-1.351-1.065v-6.347c0-1.146.164-2.211.45-3.153.123-.45.573-.942 1.31-1.515.614-.45 1.351-.614 2.17-.532.327.04.614.245.859.573.328.491.532.778.696.9.409.328.941.451 1.678.41.696-.614 1.023-1.187 1.023-1.678 0-.533-.409-1.229-1.187-2.089-.532-.491-1.064-.737-1.596-.819l-.082.041zM120.799 51.024c-.901-.41-1.351-2.088-1.351-4.995l.246-7.944c.286.04.491-.082.614-.328.163-.246.204-.491.204-.737 0-.532-.245-.819-.695-.86h-3.152c-.45.041-.696.287-.696.696 0 .246.082.492.246.778.163.287.368.41.573.41v5.896c0 1.147-.205 2.17-.573 3.112-.287.656-.614 1.188-.983 1.556-.286.287-.777.615-1.473 1.065a1.849 1.849 0 01-1.024.287c-1.105 0-1.923-.205-2.496-.615-.778-.532-1.146-1.146-1.105-1.801l-.082-1.229c-.041-.655 0-1.187.082-1.638.245-1.72.368-2.62.368-2.702.286-1.884.573-3.112.9-3.767.533-.082.819-.492.819-1.27 0-.45-.123-.737-.409-.819h-3.316c-.532.082-.818.369-.818.86 0 .287.082.532.245.819.164.287.369.41.614.369-.45 1.597-.777 3.93-.982 7.043-.082 1.228-.041 2.252.164 3.153.573 2.62 2.374 3.89 5.443 3.89 2.702 0 4.257-.696 4.626-2.089 0 .533.041.86.122 1.065.082.205.369.41.778.696.491.123.942.164 1.392.164 1.35 0 2.005-.246 2.005-.737 0-.164-.122-.287-.327-.369l.041.041z" fill="#2B2A29"/><path d="M120.799 51.024c-.901-.41-1.351-2.088-1.351-4.995l.246-7.944c.286.04.491-.082.614-.328.163-.246.204-.491.204-.737 0-.532-.245-.819-.695-.86h-3.152c-.45.041-.696.287-.696.696 0 .246.082.492.246.778.163.287.368.41.573.41v5.896c0 1.147-.205 2.17-.573 3.112-.287.656-.614 1.188-.983 1.556-.286.287-.777.615-1.473 1.065a1.849 1.849 0 01-1.024.287c-1.105 0-1.923-.205-2.496-.615-.778-.532-1.146-1.146-1.105-1.801l-.082-1.229c-.041-.655 0-1.187.082-1.638.245-1.72.368-2.62.368-2.702.286-1.884.573-3.112.9-3.767.533-.082.819-.492.819-1.27 0-.45-.123-.737-.409-.819h-3.316c-.532.082-.818.369-.818.86 0 .287.082.532.245.819.164.287.369.41.614.369-.45 1.597-.777 3.93-.982 7.043-.082 1.228-.041 2.252.164 3.153.573 2.62 2.374 3.89 5.443 3.89 2.702 0 4.257-.696 4.626-2.089 0 .533.041.86.122 1.065.082.205.369.41.778.696.491.123.942.164 1.392.164 1.35 0 2.005-.246 2.005-.737 0-.164-.122-.287-.327-.369l.041.041zM152.846 50.86l-5.28-9.376 4.625-3.767c1.433-.041 2.129-.287 2.129-.86 0-.41-.287-.615-.819-.656h-3.029c-1.146 0-1.678.205-1.678.656 0 .245.246.45.696.655l-5.853 4.75V32.107c.941 0 1.391-.328 1.391-1.024 0-.655-.45-.942-1.391-.942h-2.702c-.941 0-1.391.287-1.391.86 0 .327.163.532.45.737.286.164.614.246.941.246V50.45c-.941 0-1.391.287-1.391.901 0 .574.45.82 1.391.82h2.702c.737 0 1.105-.246 1.105-.738 0-.532-.368-.86-1.105-.983v-5.814l1.924-1.515 4.256 7.944c-.573.122-.818.368-.818.778 0 .655.573.941 1.719.941h3.315c.369 0 .573-.204.573-.573 0-.41-.163-.737-.532-.983-.368-.245-.737-.368-1.146-.368h-.082z" fill="#2B2A29"/><path d="M152.846 50.86l-5.28-9.376 4.625-3.767c1.433-.041 2.129-.287 2.129-.86 0-.41-.287-.615-.819-.656h-3.029c-1.146 0-1.678.205-1.678.656 0 .245.246.45.696.655l-5.853 4.75V32.107c.941 0 1.391-.328 1.391-1.024 0-.655-.45-.942-1.391-.942h-2.702c-.941 0-1.391.287-1.391.86 0 .327.163.532.45.737.286.164.614.246.941.246V50.45c-.941 0-1.391.287-1.391.901 0 .574.45.82 1.391.82h2.702c.737 0 1.105-.246 1.105-.738 0-.532-.368-.86-1.105-.983v-5.814l1.924-1.515 4.256 7.944c-.573.122-.818.368-.818.778 0 .655.573.941 1.719.941h3.315c.369 0 .573-.204.573-.573 0-.41-.163-.737-.532-.983-.368-.245-.737-.368-1.146-.368h-.082zM160.5 39.193c0-.533-.327-.86-.941-.942l-2.702.573c-.655.164-.941.45-.941.86 0 .246.082.45.286.655.205.205.41.287.655.287v10.237c-.655 0-.941.287-.941.9 0 .615.327.943.941.943h2.702c.286 0 .491-.082.655-.328.163-.205.245-.45.245-.696 0-.532-.327-.82-.941-.82v-10.85c.614 0 .941-.287.941-.901l.041.082z" fill="#2B2A29"/><path d="M160.5 39.193c0-.533-.327-.86-.941-.942l-2.702.573c-.655.164-.941.45-.941.86 0 .246.082.45.286.655.205.205.41.287.655.287v10.237c-.655 0-.941.287-.941.9 0 .615.327.943.941.943h2.702c.286 0 .491-.082.655-.328.163-.205.245-.45.245-.696 0-.532-.327-.82-.941-.82v-10.85c.614 0 .941-.287.941-.901l.041.082zM166.025 48.486c-.491 0-.9.164-1.227.491a1.639 1.639 0 00-.492 1.188c0 .491.164.9.492 1.228.327.328.736.492 1.227.492.492 0 .86-.164 1.187-.492.328-.327.492-.737.492-1.228s-.164-.86-.492-1.188a1.637 1.637 0 00-1.187-.49z" fill="#2B2A29"/><path d="M166.025 48.486c-.491 0-.9.164-1.227.491a1.639 1.639 0 00-.492 1.188c0 .491.164.9.492 1.228.327.328.736.492 1.227.492.492 0 .86-.164 1.187-.492.328-.327.492-.737.492-1.228s-.164-.86-.492-1.188a1.637 1.637 0 00-1.187-.49zM137.454 40.294c-.205-.45-.573-.983-1.064-1.638-.532-.655-.942-1.105-1.31-1.351-1.351-.901-2.742-1.351-4.216-1.351-1.924 0-3.438.819-4.625 2.416v-.942c.286-.082.532-.328.737-.696.204-.369.327-.737.327-1.024 0-.532-.286-.737-.859-.696l-2.661.942c-.819.204-1.228.532-1.228 1.105 0 .287.123.533.328.696.204.205.45.287.695.287h.205l.287 18.754c-.696 0-1.024.287-1.024.86 0 .287.082.532.287.737.205.205.45.287.737.246h2.701c.778 0 1.187-.287 1.187-.901 0-.696-.409-.983-1.228-.942l-.245-8.026c.532.205 1.309.287 2.374.246.327-.04.736 0 1.309.041s.983.082 1.228.082a8.698 8.698 0 003.398-.696c1.268-.532 2.128-1.27 2.66-2.17.368-.656.614-1.188.737-1.556.123-.369.163-.942.163-1.68 0-.573-.122-1.064-.327-1.514-.205-.45-.409-.901-.614-1.31l.041.081zm-2.087 4.71c-.123.327-.41.777-.901 1.35-.778.942-1.965 1.393-3.52 1.393-1.76 0-2.906-.369-3.479-1.065-.532-.614-.819-1.024-.942-1.27-.204-.49-.327-1.187-.327-2.088 0-.941.123-1.679.327-2.17.164-.328.492-.819 1.024-1.433.9-1.065 1.883-1.597 3.029-1.597.614 0 1.228.164 1.964.532.696.369 1.269.778 1.638 1.27.245.245.491.696.736 1.31.369.819.532 1.515.532 2.17 0 .86-.041 1.392-.081 1.556v.041z" fill="#2B2A29"/><path d="M137.454 40.294c-.205-.45-.573-.983-1.064-1.638-.532-.655-.942-1.105-1.31-1.351-1.351-.901-2.742-1.351-4.216-1.351-1.924 0-3.438.819-4.625 2.416v-.942c.286-.082.532-.328.737-.696.204-.369.327-.737.327-1.024 0-.532-.286-.737-.859-.696l-2.661.942c-.819.204-1.228.532-1.228 1.105 0 .287.123.533.328.696.204.205.45.287.695.287h.205l.287 18.754c-.696 0-1.024.287-1.024.86 0 .287.082.532.287.737.205.205.45.287.737.246h2.701c.778 0 1.187-.287 1.187-.901 0-.696-.409-.983-1.228-.942l-.245-8.026c.532.205 1.309.287 2.374.246.327-.04.736 0 1.309.041s.983.082 1.228.082a8.698 8.698 0 003.398-.696c1.268-.532 2.128-1.27 2.66-2.17.368-.656.614-1.188.737-1.556.123-.369.163-.942.163-1.68 0-.573-.122-1.064-.327-1.514-.205-.45-.409-.901-.614-1.31l.041.081zm-2.087 4.71c-.123.327-.41.777-.901 1.35-.778.942-1.965 1.393-3.52 1.393-1.76 0-2.906-.369-3.479-1.065-.532-.614-.819-1.024-.942-1.27-.204-.49-.327-1.187-.327-2.088 0-.941.123-1.679.327-2.17.164-.328.492-.819 1.024-1.433.9-1.065 1.883-1.597 3.029-1.597.614 0 1.228.164 1.964.532.696.369 1.269.778 1.638 1.27.245.245.491.696.736 1.31.369.819.532 1.515.532 2.17 0 .86-.041 1.392-.081 1.556v.041z" fill="#2B2A29"/><path fill-rule="evenodd" clip-rule="evenodd" d="M52.075 13.596a2.376 2.376 0 010 4.75 2.376 2.376 0 010-4.75z" fill="#FEFEFE"/><path fill-rule="evenodd" clip-rule="evenodd" d="M52.075 13.596a2.376 2.376 0 010 4.75 2.376 2.376 0 010-4.75zM3.902 38l4.175-15.643c2.701-2.743 5.935-3.972 10.11-3.972.49 0 1.473.205 2.988.615 1.514.41 2.497.614 2.947.614.86 0 1.514-.41 2.005-1.188.328-.778.696-1.515 1.024-2.21.163.327.286 1.146.409 2.538.123 1.474.205 2.334.286 2.62.164.574.41 1.393.737 2.498.369 1.31.737 2.089 1.023 2.375-.122-.04-.245-.04-.327-.04-.082 0-.205.081-.368.245-.041-.04-.123-.082-.246-.164l-3.93-4.012c-2.005-1.68-4.543-2.498-7.572-2.498-1.268 0-2.455.45-3.601 1.35-2.866 2.253-4.257 5.98-4.257 11.18v2.539a11.031 11.031 0 00-.123 1.637c0 4.505 1.514 8.313 4.584 11.384l.164.164c1.269 1.31 3.356 1.924 6.262 1.924 1.72 0 3.07-.286 4.134-.819.778-1.433 1.146-2.989 1.146-4.709 0-2.375-.736-4.34-2.25-5.937-1.392-1.474-3.07-2.211-4.994-2.211-2.333 0-4.707 1.105-7.122 3.276l-.082-.123 2.292-2.58c1.023-1.188 2.21-2.088 3.684-2.785 1.432-.696 2.865-1.023 4.256-1.023 2.006 0 3.766.737 5.24 2.17 1.555 1.597 2.333 3.603 2.333 6.06 0 2.785-.86 4.996-2.538 6.675l-3.233 3.235c-1.188 1.187-3.275 1.76-6.304 1.76-2.824 0-4.83-.614-6.017-1.801a97.975 97.975 0 01-2.21-2.006c-.819-.82-1.433-1.639-1.842-2.457-.204-.492-.818-2.089-1.842-4.71-.245-.655-.573-1.883-.9-3.685v-.41L3.902 38z" fill="#FEFEFE"/><path fill-rule="evenodd" clip-rule="evenodd" d="M3.902 38l4.175-15.643c2.701-2.743 5.935-3.972 10.11-3.972.49 0 1.473.205 2.988.615 1.514.41 2.497.614 2.947.614.86 0 1.514-.41 2.005-1.188.328-.778.696-1.515 1.024-2.21.163.327.286 1.146.409 2.538.123 1.474.205 2.334.286 2.62.164.574.41 1.393.737 2.498.369 1.31.737 2.089 1.023 2.375-.122-.04-.245-.04-.327-.04-.082 0-.205.081-.368.245-.041-.04-.123-.082-.246-.164l-3.93-4.012c-2.005-1.68-4.543-2.498-7.572-2.498-1.268 0-2.455.45-3.601 1.35-2.866 2.253-4.257 5.98-4.257 11.18v2.539a11.031 11.031 0 00-.123 1.637c0 4.505 1.514 8.313 4.584 11.384l.164.164c1.269 1.31 3.356 1.924 6.262 1.924 1.72 0 3.07-.286 4.134-.819.778-1.433 1.146-2.989 1.146-4.709 0-2.375-.736-4.34-2.25-5.937-1.392-1.474-3.07-2.211-4.994-2.211-2.333 0-4.707 1.105-7.122 3.276l-.082-.123 2.292-2.58c1.023-1.188 2.21-2.088 3.684-2.785 1.432-.696 2.865-1.023 4.256-1.023 2.006 0 3.766.737 5.24 2.17 1.555 1.597 2.333 3.603 2.333 6.06 0 2.785-.86 4.996-2.538 6.675l-3.233 3.235c-1.188 1.187-3.275 1.76-6.304 1.76-2.824 0-4.83-.614-6.017-1.801a97.975 97.975 0 01-2.21-2.006c-.819-.82-1.433-1.639-1.842-2.457-.204-.492-.818-2.089-1.842-4.71-.245-.655-.573-1.883-.9-3.685v-.41L3.902 38zM51.462 41.564l-2.743 10.441c-1.964 2.54-4.338 4.054-7.122 4.628-.818.368-1.432.532-1.841.532h-1.76c-2.17 0-4.257-.532-6.222-1.556-2.415-1.27-3.602-2.866-3.602-4.832 0-1.843.982-3.358 2.988-4.627 1.76-1.106 3.561-1.638 5.485-1.638 1.35 0 2.783.41 4.298 1.228 1.719.942 2.578 2.007 2.578 3.276 0 .983-.573 1.843-1.678 2.54-.982.654-1.965.94-3.029.94-.737 0-1.555-.204-2.374-.613-.982-.492-1.514-1.065-1.514-1.68 0-.327.163-.695.49-1.064.328-.368.656-.573.983-.573.41 0 .9.286 1.474.9-.778.533-1.146.942-1.146 1.27 0 .696.368 1.024 1.146 1.024.573 0 1.064-.328 1.555-1.024.491-.696.737-1.351.737-2.006 0-.901-.41-1.68-1.269-2.375-.819-.655-1.678-.983-2.66-.983-1.597 0-2.825.491-3.766 1.474-.941.983-1.392 2.252-1.392 3.89 0 1.515.778 2.826 2.374 3.85a7.889 7.889 0 004.503 1.392c.409 0 .9-.041 1.514-.123 2.701-.615 4.83-2.007 6.303-4.177 1.351-1.966 2.047-4.177 2.047-6.675 0-.081 0-.245-.041-.491-.04-.246-.04-.45-.04-.532 0-1.229-1.106-2.58-3.357-4.054-2.047-1.352-3.725-2.048-4.953-2.048 1.023-.491 2.006-1.228 2.988-2.293 1.105-1.187 1.637-2.252 1.637-3.235 0-1.228-.532-2.252-1.596-3.07a5.386 5.386 0 00-3.315-1.106c-1.965 0-3.439.45-4.503 1.351-.614.532-1.269 1.392-1.924 2.662-.573 1.064-1.064 1.638-1.514 1.76.368-1.678.819-4.34 1.392-7.985.286.369.573.779.86 1.188.45.491.818.778 1.063.778.328 0 1.187-.164 2.579-.45 1.433-.328 2.251-.45 2.497-.45 1.842-.042 3.602.286 5.28.94 2.21.86 3.315 2.048 3.315 3.563 0 1.024-.49 2.007-1.473 2.949-.246.204-1.146.9-2.702 2.129.655.164 1.433.41 2.374.655.983.369 1.638.655 1.883.86.45.287.9.573 1.269.778.655.41 1.228 1.147 1.72 2.211.04.123.081.41.163.533l.04-.082z" fill="#FEFEFE"/><path fill-rule="evenodd" clip-rule="evenodd" d="M51.462 41.564l-2.743 10.441c-1.964 2.54-4.338 4.054-7.122 4.628-.818.368-1.432.532-1.841.532h-1.76c-2.17 0-4.257-.532-6.222-1.556-2.415-1.27-3.602-2.866-3.602-4.832 0-1.843.982-3.358 2.988-4.627 1.76-1.106 3.561-1.638 5.485-1.638 1.35 0 2.783.41 4.298 1.228 1.719.942 2.578 2.007 2.578 3.276 0 .983-.573 1.843-1.678 2.54-.982.654-1.965.94-3.029.94-.737 0-1.555-.204-2.374-.613-.982-.492-1.514-1.065-1.514-1.68 0-.327.163-.695.49-1.064.328-.368.656-.573.983-.573.41 0 .9.286 1.474.9-.778.533-1.146.942-1.146 1.27 0 .696.368 1.024 1.146 1.024.573 0 1.064-.328 1.555-1.024.491-.696.737-1.351.737-2.006 0-.901-.41-1.68-1.269-2.375-.819-.655-1.678-.983-2.66-.983-1.597 0-2.825.491-3.766 1.474-.941.983-1.392 2.252-1.392 3.89 0 1.515.778 2.826 2.374 3.85a7.889 7.889 0 004.503 1.392c.409 0 .9-.041 1.514-.123 2.701-.615 4.83-2.007 6.303-4.177 1.351-1.966 2.047-4.177 2.047-6.675 0-.081 0-.245-.041-.491-.04-.246-.04-.45-.04-.532 0-1.229-1.106-2.58-3.357-4.054-2.047-1.352-3.725-2.048-4.953-2.048 1.023-.491 2.006-1.228 2.988-2.293 1.105-1.187 1.637-2.252 1.637-3.235 0-1.228-.532-2.252-1.596-3.07a5.386 5.386 0 00-3.315-1.106c-1.965 0-3.439.45-4.503 1.351-.614.532-1.269 1.392-1.924 2.662-.573 1.064-1.064 1.638-1.514 1.76.368-1.678.819-4.34 1.392-7.985.286.369.573.779.86 1.188.45.491.818.778 1.063.778.328 0 1.187-.164 2.579-.45 1.433-.328 2.251-.45 2.497-.45 1.842-.042 3.602.286 5.28.94 2.21.86 3.315 2.048 3.315 3.563 0 1.024-.49 2.007-1.473 2.949-.246.204-1.146.9-2.702 2.129.655.164 1.433.41 2.374.655.983.369 1.638.655 1.883.86.45.287.9.573 1.269.778.655.41 1.228 1.147 1.72 2.211.04.123.081.41.163.533l.04-.082z" fill="#FEFEFE"/><path fill-rule="evenodd" clip-rule="evenodd" d="M59.649 1.638a47.43 47.43 0 012.578-.655c.369-.082.657-.14 1.025-.263l.162-.024L63.128 0c-.082 0-.778.164-.9.205-.942.204-1.842.45-2.784.696l.205.737zm-6.508 13.84c-.696-1.105-.942-2.129-1.023-3.44l-.778.042c.082 1.351.41 2.661 1.146 3.808l.655-.41zm-.9-5.65a12.34 12.34 0 011.186-3.522l-.696-.369a14.843 14.843 0 00-1.268 3.727l.736.123.041.04z" fill="#36A6F2"/><path d="M57.611 1.56c-2.112.721-3.2 1.902-3.48 2.402.08.06.3.228.54.42.624-1.104 2.42-1.9 3.24-2.161-.04-.08-.156-.324-.3-.66z" fill="#3EAAE0"/><defs><linearGradient id="paint0_linear" x1="20.838" y1="3.494" x2="39.39" y2="55.2" gradientUnits="userSpaceOnUse"><stop stop-color="#0478B1"/><stop offset="1" stop-color="#3EAAE0"/></linearGradient></defs></svg>