<svg width="33" height="28" fill="none" xmlns="http://www.w3.org/2000/svg"><path d="M14.99 13.884h8.012l4.303 4.12v-4.12h1.825a2.333 2.333 0 002.328-2.328V2.923A2.333 2.333 0 0029.13.595H14.99a2.333 2.333 0 00-2.328 2.328v8.633a2.333 2.333 0 002.328 2.328z" fill="#E0EEF7"/><path d="M4.54 27.893a.607.607 0 00.647-.118l4.1-3.924h7.711a2.906 2.906 0 002.904-2.904v-4.375a.597.597 0 00-.595-.595.597.597 0 00-.595.595v4.375c0 .949-.772 1.714-1.714 1.714H9.045c-.15 0-.3.059-.412.163l-3.27 3.127v-2.689a.597.597 0 00-.595-.595H2.963a1.715 1.715 0 01-1.713-1.713v-8.567c0-.949.772-1.72 1.713-1.72h7.018a.597.597 0 00.595-.595.597.597 0 00-.595-.596H2.963A2.906 2.906 0 00.06 12.38v8.567a2.905 2.905 0 002.903 2.904H4.18v3.499c0 .235.144.451.36.543z" fill="#318CCA"/><path d="M22.766 14.48l4.134 3.956a.607.607 0 00.647.118.594.594 0 00.36-.543V14.48h1.23a2.926 2.926 0 002.922-2.924V2.923A2.926 2.926 0 0029.136 0H14.99a2.926 2.926 0 00-2.923 2.923v8.633a2.927 2.927 0 002.923 2.924h7.776zm-9.509-2.924V2.923c0-.954.778-1.733 1.733-1.733h14.14c.954 0 1.733.779 1.733 1.733v8.633c0 .955-.779 1.733-1.733 1.733h-1.825a.597.597 0 00-.595.595v2.734l-3.303-3.159a.595.595 0 00-.412-.163H14.99a1.737 1.737 0 01-1.733-1.74z" fill="#318CCA"/><path d="M22.06 7.953a.595.595 0 00.419-.177.595.595 0 00.176-.419.595.595 0 00-.177-.418.595.595 0 00-.418-.177.595.595 0 00-.419.177.595.595 0 00-.176.418c0 .157.065.308.176.419a.569.569 0 00.419.177zM24.27 7.953a.595.595 0 00.419-.177.595.595 0 00.177-.419.595.595 0 00-.177-.418.595.595 0 00-.419-.177.595.595 0 00-.418.177.595.595 0 00-.177.418c0 .157.066.308.177.419a.558.558 0 00.418.177zM19.856 7.953a.595.595 0 00.418-.177.595.595 0 00.177-.419.595.595 0 00-.177-.418.595.595 0 00-.418-.177.595.595 0 00-.419.177.595.595 0 00-.176.418c0 .157.065.308.176.419a.569.569 0 00.419.177z" fill="#318CCA"/></svg>