<svg width="25" height="24" fill="none" xmlns="http://www.w3.org/2000/svg"><path d="M24.941 20.488A3.503 3.503 0 0121.447 24H4.435a3.503 3.503 0 01-3.494-3.512V3.512A3.503 3.503 0 014.435 0h17.012a3.503 3.503 0 013.494 3.512v16.976z" fill="#FAAB62"/><path d="M24.818 20.4a3.467 3.467 0 01-3.458 3.477H4.523A3.467 3.467 0 011.065 20.4V3.599A3.467 3.467 0 014.523.123H21.36A3.467 3.467 0 0124.818 3.6v16.802z" fill="#F7931E"/><path d="M12.928 3.587c-2.378 0-4.307 1.938-4.307 4.329 0 2.39 1.929 4.329 4.307 4.329 2.379 0 4.307-1.938 4.307-4.33 0-2.39-1.928-4.328-4.307-4.328zm0 6.118c-.983 0-1.78-.8-1.78-1.79 0-.987.797-1.789 1.78-1.789s1.78.802 1.78 1.79-.796 1.79-1.78 1.79zM14.448 15.69c1.725-.354 2.758-1.174 2.813-1.218a1.181 1.181 0 00.18-1.655 1.167 1.167 0 00-1.646-.182c-.01.009-1.112.858-2.926.86-1.813-.002-2.938-.851-2.949-.86a1.167 1.167 0 00-1.646.182 1.181 1.181 0 00.181 1.655c.056.044 1.131.886 2.904 1.231l-2.47 2.595a1.181 1.181 0 00.03 1.664 1.164 1.164 0 001.656-.03l2.295-2.457 2.526 2.473c.458.46 1.2.459 1.656-.001a1.181 1.181 0 00-.001-1.665l-2.603-2.593zM12.87 13.495c-.005 0 .004 0 0 0-.005 0 .005 0 0 0z" fill="#fff"/></svg>