<svg width="25" height="26" fill="none" xmlns="http://www.w3.org/2000/svg"><path d="M21.496 15.775c-4.911 4.91-12.9 4.91-17.812 0l-2.29-2.62a1 1 0 010-1.318l2.372-2.703a12.556 12.556 0 018.906-3.684c3.225 0 6.45 1.228 8.905 3.684l2.291 2.62a1 1 0 01-.001 1.318l-2.371 2.703zm-.503-6.057c-4.589-4.589-12.055-4.589-16.643 0l-1.814 2.13a1 1 0 00-.002 1.295l1.734 2.048c4.59 4.588 12.055 4.588 16.644 0l1.814-2.13a1 1 0 00.001-1.295l-1.734-2.048z" fill="#606266" stroke="#606266"/><path d="M12.617 17.836a5.376 5.376 0 01-5.37-5.37c0-2.96 2.409-5.369 5.37-5.369 2.96 0 5.37 2.409 5.37 5.37 0 2.96-2.409 5.37-5.37 5.37zm0-9.913a4.549 4.549 0 00-4.544 4.544 4.549 4.549 0 004.544 4.543 4.549 4.549 0 004.543-4.543 4.549 4.549 0 00-4.543-4.544z" fill="#606266" stroke="#606266"/><rect x="2.465" y="2.991" width="3.2" height="28.724" rx="1.6" transform="rotate(-40.457 2.465 2.991)" fill="#606266" stroke="#fff" stroke-width="1.2"/></svg>