<svg width="56" height="29" fill="none" xmlns="http://www.w3.org/2000/svg"><path fill="#99D4FF" d="M2.154 4.732h28v23.692h-28z"/><path fill="#7BC3F6" d="M13.408 4.732h28v23.692h-28z"/><path d="M0 3.614h32.308v8.616H0V3.614z" fill="#B3DFFF"/><path d="M11.043 3.614H43.35v8.615H11.043V3.614z" fill="#8BCDFC"/><path fill="#99D4FF" d="M23.662 3.155h29.972v25.239H23.662z"/><path fill="#7BC3F6" d="M38.648 3.155h14.986v25.239H38.648z"/><path d="M21.539 0H56v8.615H21.54V0z" fill="#B3DFFF"/><path d="M37.07 0H56v8.676H37.07V0z" fill="#8BCDFC"/><path d="M32.308 11.042H45.23v1.578H32.308v-1.578z" fill="#5181B8"/><path d="M32.338 11.042h6.31v1.578h-6.31v-1.578z" fill="#318CCA"/><path d="M9.465 14.986h10.253v1.577H9.465v-1.577z" fill="#5181B8"/><path d="M7.099 14.986h6.31v1.577h-6.31v-1.577z" fill="#318CCA"/></svg>