<svg width="24" height="24" fill="none" xmlns="http://www.w3.org/2000/svg"><path fill-rule="evenodd" clip-rule="evenodd" d="M8.272 0h7.318c6.681 0 8.272 1.6 8.272 8.32v7.36c0 6.72-1.59 8.32-8.272 8.32H8.272C1.591 24 0 22.4 0 15.68V8.32C0 1.6 1.59 0 8.272 0z" fill="#5181B8"/><path fill-rule="evenodd" clip-rule="evenodd" d="M19.541 8.268c.11-.37 0-.643-.526-.643h-1.74c-.442 0-.646.235-.757.495 0 0-.885 2.17-2.138 3.578-.406.408-.59.538-.811.538-.11 0-.27-.13-.27-.5V8.267c0-.445-.13-.643-.498-.643h-2.734c-.277 0-.443.206-.443.402 0 .422.627.52.691 1.706v2.577c0 .565-.101.667-.322.667-.59 0-2.025-2.178-2.876-4.672-.167-.484-.334-.68-.779-.68h-1.74c-.497 0-.596.235-.596.495 0 .463.59 2.762 2.746 5.803 1.438 2.076 3.464 3.202 5.307 3.202 1.106 0 1.243-.25 1.243-.68v-1.57c0-.5.105-.6.455-.6.258 0 .7.13 1.733 1.131 1.18 1.187 1.374 1.719 2.038 1.719h1.74c.497 0 .745-.25.602-.743-.157-.492-.72-1.206-1.468-2.051-.405-.482-1.013-1.001-1.198-1.261-.258-.334-.184-.482 0-.779 0 0 2.12-3.003 2.341-4.023z" fill="#fff"/></svg>