<svg width="30" height="30" fill="none" xmlns="http://www.w3.org/2000/svg"><path fill-rule="evenodd" clip-rule="evenodd" d="M10.34 0h9.148c8.351 0 10.34 2 10.34 10.4v9.2c0 8.4-1.989 10.4-10.34 10.4H10.34C1.99 30 0 28 0 19.6v-9.2C0 2 1.989 0 10.34 0z" fill="#5181B8"/><path fill-rule="evenodd" clip-rule="evenodd" d="M24.427 10.335c.138-.463 0-.804-.658-.804h-2.175c-.553 0-.808.294-.946.619 0 0-1.106 2.711-2.673 4.473-.507.51-.737.672-1.014.672-.138 0-.338-.162-.338-.626v-4.334c0-.556-.16-.804-.622-.804h-3.417c-.346 0-.554.258-.554.503 0 .527.784.649.864 2.132v3.221c0 .707-.126.835-.403.835-.737 0-2.53-2.724-3.595-5.84-.208-.606-.417-.85-.973-.85H5.748c-.621 0-.746.293-.746.618 0 .58.738 3.453 3.434 7.254 1.797 2.595 4.33 4.002 6.633 4.002 1.383 0 1.554-.312 1.554-.85v-1.962c0-.625.13-.75.569-.75.322 0 .875.162 2.166 1.414 1.474 1.483 1.717 2.148 2.547 2.148h2.175c.621 0 .932-.312.753-.929-.196-.615-.9-1.506-1.835-2.564-.507-.602-1.267-1.251-1.498-1.576-.322-.417-.23-.602 0-.973 0 0 2.65-3.754 2.927-5.029z" fill="#fff"/></svg>