<svg xmlns="http://www.w3.org/2000/svg" width="1024" height="1024"><path d="M769.203 458.334c22.012 0 39.855-17.843 39.855-39.855s-17.843-39.855-39.855-39.855c-22.012 0-39.855 17.844-39.855 39.855s17.843 39.855 39.855 39.855z"/><path d="M860.868 79.71h-51.81V39.855C809.058 17.843 791.215 0 769.203 0s-39.855 17.843-39.855 39.855V79.71H548.006V39.855C548.006 17.843 530.163 0 508.151 0s-39.855 17.843-39.855 39.855V79.71H288.949V39.855C288.949 17.843 271.106 0 249.094 0s-39.855 17.843-39.855 39.855V79.71H159.42C71.516 79.71 0 151.226 0 239.13v621.738c0 87.906 71.516 159.42 159.42 159.42h304.891c22.012 0 39.855-17.843 39.855-39.855s-17.843-39.855-39.855-39.855H159.42c-43.952 0-79.71-35.755-79.71-79.71V239.13c0-43.952 35.758-79.71 79.71-79.71h49.819v39.855c0 22.012 17.843 39.855 39.855 39.855s39.855-17.843 39.855-39.855V159.42h179.347v39.855c0 22.012 17.843 39.855 39.855 39.855s39.855-17.843 39.855-39.855V159.42h181.342v39.855c0 22.012 17.843 39.855 39.855 39.855s39.855-17.843 39.855-39.855V159.42h51.81c43.955 0 79.71 35.758 79.71 79.71v227.174c0 22.012 17.843 39.855 39.855 39.855s39.855-17.843 39.855-39.855V239.13c0-87.904-71.514-159.42-159.42-159.42z"/><path d="M595.836 458.334c22.012 0 39.855-17.843 39.855-39.855s-17.843-39.855-39.855-39.855c-22.012 0-39.855 17.844-39.855 39.855s17.843 39.855 39.855 39.855zM422.464 631.701c22.011 0 39.855-17.843 39.855-39.855s-17.843-39.855-39.855-39.855c-22.011 0-39.855 17.843-39.855 39.855s17.844 39.855 39.855 39.855zM249.095 458.334c22.011 0 39.855-17.843 39.855-39.855s-17.844-39.855-39.855-39.855c-22.012 0-39.855 17.844-39.855 39.855s17.844 39.855 39.855 39.855zM249.095 631.701c22.011 0 39.855-17.843 39.855-39.855s-17.844-39.855-39.855-39.855c-22.012 0-39.855 17.843-39.855 39.855s17.844 39.855 39.855 39.855zM249.095 805.073c22.011 0 39.855-17.843 39.855-39.855s-17.844-39.855-39.855-39.855c-22.012 0-39.855 17.843-39.855 39.855s17.844 39.855 39.855 39.855zM422.464 805.073c22.011 0 39.855-17.843 39.855-39.855s-17.843-39.855-39.855-39.855c-22.011 0-39.855 17.843-39.855 39.855s17.844 39.855 39.855 39.855zM422.464 458.334c22.011 0 39.855-17.843 39.855-39.855s-17.843-39.855-39.855-39.855c-22.011 0-39.855 17.844-39.855 39.855s17.844 39.855 39.855 39.855z"/></svg>