<svg xmlns="http://www.w3.org/2000/svg" width="1682" height="1024"><path d="M311.646 31.911c-35.796 0-65.023 28.863-65.023 64.543v413.937c0 22.268 18.188 40.196 40.463 40.196 22.269 0 40.463-17.92 40.463-40.196V112.299h852.362v398.099c0 22.268 18.191 40.192 40.466 40.192 22.268 0 40.463-17.916 40.463-40.192v-8.514l254.672.004c15.865.113 30.241 6.601 40.635 17.009h-41.048c-22.272 0-40.466 17.92-40.466 40.196v48.695c0 49.108 40.247 88.894 89.585 88.894h8.656v65.704h-30.892c-25.176-57.253-82.757-97.397-149.687-97.397-53.895 0-101.731 26.032-131.463 66.063V607.788c0-22.272-18.187-40.196-40.463-40.196-22.268 0-40.463 17.92-40.463 40.196v154.595h-448.41c-25.176-57.253-82.757-97.397-149.687-97.397s-124.515 40.141-149.691 97.397H327.547v-17.009h82.339c22.268 0 40.463-17.92 40.463-40.196 0-22.272-18.191-40.192-40.463-40.192H188.844c-22.269 0-40.463 17.916-40.463 40.192s18.19 40.196 40.463 40.196h57.779v32.856c0 35.679 29.228 64.541 65.024 64.541h107.675c8.057 81.96 77.901 146.092 162.487 146.092 84.582 0 154.43-64.132 162.487-146.092h485.511c8.057 81.96 77.901 146.092 162.487 146.092 84.582 0 154.43-64.132 162.487-146.092h58.558c22.268 0 40.463-17.92 40.463-40.196V559.086c.004-64.841-45.378-119.205-106.16-133.756l-32.004-126.913c9.329-7.336 15.364-18.698 15.364-31.515v-24.349c0-62.532-51.266-113.241-114.143-113.241h-156.017V96.454c0-35.68-29.228-64.543-65.024-64.543H311.644zm443.539 134.821c-60.866 0-118.148 23.517-161.211 66.208-43.063 42.693-66.812 99.521-66.812 159.936 0 60.412 23.749 117.237 66.812 159.934 43.063 42.69 100.345 66.205 161.211 66.205 60.862 0 118.148-23.515 161.207-66.205 43.067-42.697 66.816-99.522 66.816-159.934 0-60.415-23.749-117.243-66.816-159.936-43.059-42.692-100.345-66.208-161.207-66.208zm505.659 59.975v-17.009h156.017c12.522 0 23.428 6.901 29.089 17.009h-185.106zM580.813 392.876c0-95.198 78.157-172.796 174.373-172.796 96.212 0 174.373 77.598 174.373 172.796 0 95.195-78.16 172.793-174.373 172.793-96.216 0-174.373-77.597-174.373-172.793zM755.182 246.5c-14.738 0-26.825 11.869-26.825 26.674v119.68a26.591 26.591 0 007.885 18.889l60.357 59.842c5.244 5.197 12.116 7.786 18.944 7.786 6.824 0 13.7-2.589 18.944-7.786 10.511-10.427 10.511-27.355-.004-37.778l-52.473-52.023v-108.61c0-14.805-12.087-26.674-26.829-26.674zm505.662 175V307.092h173.561l28.848 114.408h-202.408zM66.839 567.592c-22.269 0-40.464 17.92-40.464 40.196s18.19 40.196 40.464 40.196h294.724c22.269 0 40.463-17.92 40.463-40.196s-18.194-40.196-40.463-40.196H66.839zm1488.727 40.196v-8.507h17.313v17.009h-8.656c-4.831 0-8.656-3.902-8.656-8.503zm-777.275 57.209c-22.272 0-40.466 17.92-40.466 40.192 0 22.276 18.191 40.196 40.466 40.196h343.845c22.268 0 40.463-17.92 40.463-40.196 0-22.272-18.191-40.192-40.463-40.192H778.291zm-278.82 161.934c0-44.88 36.879-81.554 82.341-81.554s82.337 36.674 82.337 81.554-36.875 81.551-82.337 81.551-82.341-36.67-82.341-81.551zm810.492 0c0-44.88 36.879-81.554 82.337-81.554 45.462 0 82.341 36.674 82.341 81.554s-36.879 81.551-82.341 81.551c-45.458 0-82.337-36.67-82.337-81.551zM581.808 762.39c-35.792 0-65.02 28.862-65.02 64.545 0 35.679 29.228 64.541 65.02 64.541 35.796 0 65.024-28.862 65.024-64.541 0-35.683-29.228-64.545-65.024-64.545zm810.492 0c-35.796 0-65.02 28.862-65.02 64.545 0 35.679 29.224 64.541 65.02 64.541s65.024-28.862 65.024-64.541c0-35.683-29.228-64.545-65.024-64.545z"/></svg>