<svg xmlns="http://www.w3.org/2000/svg" width="1575" height="1024"><path d="M1565.373 469.16C1551.297 449.999 1215.968 0 787.685 0 359.404 0 24.055 449.999 9.997 469.142a51.541 51.541 0 000 61.01c14.059 19.161 349.407 469.162 777.688 469.162 428.283 0 763.612-450.005 777.688-469.147 13.351-18.174 13.351-42.847 0-61.007zM787.685 895.937c-315.475 0-588.709-298.676-669.593-396.316 80.779-97.727 353.441-396.244 669.593-396.244 315.462 0 588.673 298.621 669.593 396.314-80.778 97.723-353.438 396.246-669.593 396.246z"/><path d="M785.443 189.938c-171.334 0-310.731 139.396-310.731 310.73s139.397 310.734 310.731 310.734c171.336 0 310.734-139.399 310.734-310.734s-139.398-310.73-310.734-310.73zm0 517.882c-114.229 0-207.152-92.926-207.152-207.152s92.926-207.152 207.152-207.152c114.228 0 207.152 92.926 207.152 207.152S899.671 707.82 785.443 707.82z"/></svg>