<svg xmlns="http://www.w3.org/2000/svg" width="1024" height="1024"><path d="M322.427 69.641H196.463l19.366-9.72 30.914-30.751c6.383-7.414 5.514-18.57-1.939-24.919-6.651-5.667-16.461-5.667-23.112 0l-71.066 70.693c-6.889 6.892-6.889 18.027 0 24.919l70.356 70.693c7.453 6.349 18.668 5.485 25.05-1.929a17.603 17.603 0 000-22.991l-30.203-30.575-19.366-10.074h125.964c9.812 0 17.767-7.913 17.767-17.673s-7.953-17.673-17.767-17.673zM700.241 105.164h125.965l-19.366 9.72-30.916 30.752c-6.383 7.414-5.513 18.57 1.941 24.919 6.652 5.667 16.461 5.667 23.113 0l71.066-70.693c6.886-6.893 6.886-18.027 0-24.919L801.687 4.25c-7.454-6.349-18.667-5.485-25.05 1.929a17.603 17.603 0 000 22.991l30.204 30.575 19.366 10.074H700.242c-9.813 0-17.766 7.913-17.766 17.673s7.953 17.673 17.766 17.673zM624.465 69.641h-88.832c-9.813 0-17.769 7.913-17.769 17.673s7.955 17.673 17.769 17.673h88.832c9.809 0 17.766-7.913 17.766-17.673s-7.953-17.673-17.766-17.673zM446.789 953.301h-35.533c-9.811 0-17.766 7.915-17.766 17.673 0 9.762 7.955 17.677 17.766 17.677h35.533c9.812 0 17.766-7.915 17.766-17.677 0-9.758-7.953-17.673-17.766-17.673z"/><path d="M819.904 866.359v-50.368a159.253 159.253 0 014.8-39.415l15.279-60.617a369.23 369.23 0 009.237-127.957l-17.766-111.518c-8.529-51.251-53.133-88.809-105.357-88.719h-12.791a17.84 17.84 0 00-6.217 1.237c-16.516-22.719-42.884-36.294-71.066-36.584h-11.55a53.516 53.516 0 00-22.916 5.125c-16.286-25.114-44.224-40.341-74.266-40.472h-9.416a53.612 53.612 0 00-17.766 3.181V140.338c0-39.043-31.818-70.693-71.066-70.693h-3.376c-37.514-.08-68.628 28.861-71.066 66.098l-25.584 400.832a156.13 156.13 0 01-57.919-36.587l-15.99-15.906c-34.669-34.377-90.762-34.377-125.431 0l-10.127 9.724c-12.383 12.382-13.818 31.906-3.376 45.948l33.579 44.89a273.324 273.324 0 0116.701 25.805l3.731 7.07c41.194 69.875 99.739 128.051 170.025 168.956 10.982 6.306 17.753 17.963 17.766 30.575v47.893a16.624 16.624 0 000 1.946c-23.629 17.673-35.533 45.952-35.533 86.421v53.022c0 9.758 7.955 17.673 17.766 17.673s17.766-7.915 17.766-17.673V953.31c0-50.897 19.898-70.69 71.066-70.69h319.796c53.299 0 71.066 17.673 71.066 70.69H517.874c-9.812 0-17.766 7.915-17.766 17.673 0 9.762 7.955 17.677 17.766 17.677h302.029v17.673c0 9.758 7.957 17.673 17.766 17.673 9.813 0 17.766-7.915 17.766-17.673v-53.022c0-41.353-12.079-70.69-35.533-86.95zm-12.079-158.178l-15.279 60.621a193.566 193.566 0 00-8.175 47.189v35.345a161.879 161.879 0 00-35.533-4.066H429.042a155.891 155.891 0 00-35.533 4.066v-34.108c.165-25.421-13.402-48.973-35.533-61.683-64.828-37.687-118.845-91.298-156.878-155.699l-3.02-6.362a306.665 306.665 0 00-19.543-28.988l-33.756-45.419 9.772-9.899c20.809-20.676 54.521-20.676 75.33 0l15.99 15.906c22.421 22.485 50.155 39.014 80.66 48.073l-2.31 37.291c-.722 9.579 6.38 17.975 15.99 18.91h1.777c9.41.017 17.202-7.266 17.766-16.614l30.558-474.703c1.219-18.619 16.776-33.089 35.533-33.049h3.198c19.625 0 35.533 15.824 35.533 35.347v300.446c0 9.762 7.955 17.673 17.766 17.673s17.767-7.91 17.767-17.673v-70.693c0-9.76 7.955-17.673 17.766-17.673h9.416c26.752-.263 49.553 19.246 53.3 45.597l8.35 62.916c1.25 8.785 8.849 15.287 17.766 15.198h2.487c9.728-1.259 16.593-10.125 15.33-19.802l-.051-.346-9.062-63.092v-1.944a17.83 17.83 0 019.062-3.181h10.837c26.347-.351 48.998 18.5 53.299 44.358l6.929 47.014c1.485 8.572 9.024 14.793 17.766 14.669h3.021c9.698-1.498 16.337-10.53 14.831-20.177a26.465 26.465 0 00-.085-.503l-7.817-47.01v-3.181h4.087c35.319-.424 65.591 25.022 71.066 59.735l17.766 110.635a332.875 332.875 0 01-8.35 114.876z"/></svg>