<svg xmlns="http://www.w3.org/2000/svg" width="1062" height="1024"><path d="M306.44 7.68C143.056 7.68 18.205 140.922 1.932 314.213c-2.06 13.572-5.697 54.668 9.084 117.327 22.296 94.455 73.68 179.94 148.029 247.163l.029.027 368.729 334.662 375.023-334.59c74.32-67.311 125.709-152.804 148.036-247.269 14.856-62.992 10.972-104.168 9.072-117.179-16.198-173.365-141.1-306.674-304.5-306.674-88.284 0-170.098 39.15-226.801 104.005C473.163 46.375 393.875 7.68 306.439 7.68zm520.099 586.672L528.426 860.319 235.453 594.466c-57.744-52.323-96.812-117.733-113.687-189.068-6.065-25.714-7.714-45.249-7.955-57.802-.12-6.285.112-10.852.328-13.6.108-1.373.215-2.31.276-2.804l.066-.503.042-.294.419-2.724.107-1.211c11.005-123.911 94.956-204.955 191.39-204.955 72.153 0 137.464 44.057 169.219 119.302l52.482 123.999 52.417-124.016c30.803-73.09 99.825-119.285 174.949-119.285 96.142 0 180.194 80.757 191.56 206.477l.053.583.072.675.03.281.083.636.053.365.076.582c.064.523.171 1.483.281 2.868.22 2.777.455 7.363.334 13.657-.239 12.574-1.893 32.12-7.964 57.781-16.843 71.293-55.854 136.64-113.44 188.848l-.106.095z"/></svg>