<svg xmlns="http://www.w3.org/2000/svg" width="1069" height="1024"><path d="M537.912 162.714c-16.104-27.255-35.773-51.142-58.217-71.12-49.721-44.261-113.053-69.333-181.386-69.333-152.12 0-273.621 124.371-289.187 295.818-1.284 7.619-6.319 47.409 9.042 112.442 22.168 93.789 73.337 179.093 148.01 246.512l368.087 333.646v.988l3.13 2.792.521-.472.521.472 3.134-2.792v-.988L909.65 677.033c74.676-67.419 125.845-152.723 148.013-246.512 15.36-65.033 10.325-104.823 9.042-112.442-15.569-171.447-137.069-295.818-289.187-295.818-68.336 0-131.664 25.072-181.386 69.333-22.443 19.978-42.113 43.865-58.221 71.12zm0 731.096L225.845 610.941c-61.848-55.844-103.193-125.467-121.025-200.902-11.446-48.464-8.046-75.834-7.856-77.363l.008-.064.521-3.091.308-3.391c12.251-134.936 103.276-214.826 200.509-214.826 66.144 0 126.789 34.878 163.466 97.594l75.976 129.925.16-.268.16.268 75.981-129.925c36.677-62.716 97.32-97.594 163.466-97.594 97.231 0 188.256 79.89 200.508 214.826l.307 3.391.521 3.091.009.064c.187 1.529 3.588 28.9-7.858 77.363-17.831 75.435-59.178 145.058-121.023 200.902l-.129.116L537.912 893.81z"/></svg>