<svg xmlns="http://www.w3.org/2000/svg" width="1024" height="1024"><path d="M761.461 670.934l238.82 238.82c20.004 20.004 20.004 52.44 0 72.444l-18.084 18.084c-20.004 20.004-52.44 20.004-72.444 0l-238.82-238.82C508.16 880.69 278.325 866.756 131.228 719.658c-162.49-162.49-162.49-425.938 0-588.429s425.938-162.49 588.428 0c147.098 147.097 161.033 376.932 41.804 539.705zm-132.35-41.804c112.493-112.492 112.493-294.88 0-407.372-112.492-112.494-294.88-112.494-407.374 0-112.493 112.492-112.493 294.88 0 407.372s294.882 112.493 407.374 0z"/></svg>