<svg xmlns="http://www.w3.org/2000/svg" width="805" height="1024"><path d="M391.682 11.119c-78.86 0-153.064 30.736-208.826 86.499-55.764 55.762-86.499 129.965-86.499 208.826 0 21.046 6.981 48.825 17.245 78.858 10.379 30.369 24.565 64.285 39.88 98.07 23.759 52.409 50.532 105.131 70.454 144.362 5.739 11.301 10.909 21.482 15.275 30.215 10.235 20.47 28.404 50.373 48.33 81.515-73.636 6.946-138.672 21.107-187.754 40.302-28.816 11.269-52.78 24.525-69.753 39.592-16.95 15.05-28.07 33.004-28.07 53.343 0 22.711 13.819 42.406 34.312 58.556 20.63 16.257 49.727 30.366 84.595 41.989 69.863 23.289 165.603 37.483 270.797 37.483 105.192 0 200.933-14.195 270.797-37.483 34.867-11.622 63.963-25.732 84.595-41.989 20.492-16.15 34.311-35.845 34.311-58.556 0-20.339-11.12-38.293-28.072-53.343-16.972-15.067-40.938-28.323-69.754-39.592-49.659-19.422-115.651-33.69-190.359-40.543 19.839-30.908 38.485-60.401 50.517-80.455 23.888-39.814 59.511-107.883 89.19-175.533 14.846-33.838 28.289-67.772 38.046-98.148 9.66-30.076 16.067-57.746 16.067-78.643 0-78.861-30.735-153.064-86.499-208.826-55.762-55.763-129.965-86.499-208.825-86.499zM158.783 822.116c41.699-14.297 98.59-24.842 163.684-29.282l.085.127c15.77 23.657 30.552 45.334 41.389 61.096 5.417 7.882 9.852 14.29 12.934 18.727l3.562 5.12 1.256 1.797 10.284 14.692 9.899-14.994 4.523-6.866a17012.505 17012.505 0 0052.132-79.689l.102-.158c66.031 4.347 123.748 14.967 165.925 29.428 23.557 8.075 41.582 17.12 53.472 26.431 12.054 9.438 16.048 17.674 16.048 24.159 0 7.122-4.864 16.352-19.585 26.792-14.404 10.218-36.037 19.917-63.868 28.267-55.508 16.652-132.923 27.129-218.951 27.129-86.026 0-163.44-10.476-218.947-27.129-27.831-8.35-49.466-18.049-63.87-28.267-14.721-10.44-19.584-19.671-19.584-26.792 0-6.485 3.994-14.721 16.045-24.159 11.891-9.311 29.914-18.354 53.467-26.429zm232.899 50.598l-9.989 6.988c0 .002.002.002 9.989-6.988zm-237.238-566.27c0-130.802 106.437-237.238 237.238-237.238s237.236 106.436 237.236 237.238c0 31.627-14.604 78.234-37.956 131.799-23.133 53.058-54.067 111.245-85.138 165.383-31.049 54.096-62.115 103.943-85.428 140.276a3307.535 3307.535 0 01-28.153 43.162l-.561.846-.563-.846a3306.145 3306.145 0 01-28.15-43.162c-23.313-36.332-54.379-86.179-85.428-140.276-31.071-54.138-62.007-112.325-85.139-165.383-23.353-53.565-37.957-100.172-37.957-131.799zm66.477-79.983c36.152-36.152 94.966-36.155 131.118 0 10.435 10.435 10.435 27.353 0 37.785a26.65 26.65 0 01-18.893 7.829 26.64 26.64 0 01-18.89-7.829c-15.309-15.309-40.236-15.309-55.547.002-10.433 10.433-27.352 10.43-37.787 0l-.001-.002c-10.434-10.433-10.435-27.352 0-37.785zm216.488 0c36.152-36.152 94.964-36.155 131.118 0 10.433 10.435 10.433 27.353 0 37.785a26.65 26.65 0 01-18.893 7.829 26.64 26.64 0 01-18.89-7.829c-15.311-15.309-40.236-15.309-55.547.002-10.433 10.433-27.351 10.43-37.788 0v-.002c-10.435-10.433-10.435-27.352 0-37.785zM213.202 341.58c0-16.04 13.002-29.045 29.044-29.045h298.865c16.04 0 29.043 13.005 29.043 29.045 0 98.421-80.055 178.476-178.476 178.476S213.203 440.001 213.203 341.58zm61.627 29.042c13.027 52.395 60.494 91.346 116.848 91.346s103.824-38.951 116.851-91.346H274.829z"/></svg>