<svg xmlns="http://www.w3.org/2000/svg" width="1638" height="1024"><path d="M52.463 91.226h358.4c21.208 0 38.4 17.192 38.4 38.4s-17.192 38.4-38.4 38.4h-358.4c-21.208 0-38.4-17.192-38.4-38.4s17.192-38.4 38.4-38.4zM52.463 500.125h614.4c21.208 0 38.4 17.192 38.4 38.4s-17.192 38.4-38.4 38.4h-614.4c-21.208 0-38.4-17.192-38.4-38.4s17.192-38.4 38.4-38.4zM52.463 909.166h1022.403c21.208 0 38.4 17.192 38.4 38.4s-17.192 38.4-38.4 38.4H52.463c-21.208 0-38.4-17.192-38.4-38.4s17.192-38.4 38.4-38.4zM1403.139 633.807c20.536-11.84 46.801-4.802 58.665 15.719l156.367 270.465c11.864 20.521 4.835 46.756-15.701 58.595-20.536 11.84-46.801 4.802-58.665-15.719l-156.367-270.465c-11.864-20.521-4.835-46.756 15.701-58.595z"/><path d="M1439.208 694.254c-168.294 97.034-383.555 39.337-480.804-128.87-97.244-168.202-39.649-383.218 128.645-480.249s383.555-39.335 480.804 128.869c97.244 168.204 39.649 383.221-128.645 480.25zm-177.147-41.625c145.807 0 264.003-118.195 264.003-263.999s-118.195-264-264.003-264c-145.802 0-263.997 118.197-263.997 264s118.195 263.999 263.997 263.999z"/></svg>