<svg xmlns="http://www.w3.org/2000/svg" width="1024" height="1024"><path d="M945.109 639.372c-14.089 0-25.498 11.416-25.498 25.503v226.441c-.051 42.24-34.27 76.467-76.512 76.51H127.514c-42.239-.043-76.459-34.27-76.509-76.51V226.734c.05-42.229 34.269-76.459 76.509-76.509h226.438c14.086 0 25.503-11.416 25.503-25.503 0-14.077-11.417-25.503-25.503-25.503H127.514C57.122 99.298.079 156.341 0 226.733v664.591c.08 70.391 57.122 127.437 127.514 127.514h715.585c70.394-.077 127.431-57.122 127.516-127.514V664.875c0-14.087-11.418-25.503-25.506-25.503z"/><path d="M960.469 33.615c-44.817-44.819-117.48-44.819-162.299 0L343.182 488.602a25.504 25.504 0 00-6.545 11.227l-59.831 216.008a25.493 25.493 0 006.535 24.845 25.522 25.522 0 0024.846 6.545l216.007-59.842a25.498 25.498 0 0011.227-6.545l454.975-454.997c44.749-44.849 44.749-117.453 0-162.302L960.47 33.615zM398.752 505.178l372.372-372.382 120.09 120.093-372.379 372.382-120.082-120.093zm-23.989 48.137l95.945 95.955-132.715 36.77 36.77-132.725zM954.334 189.78l-27.042 27.047L807.186 96.725l27.057-27.047c24.893-24.895 65.265-24.895 90.156 0l29.935 29.926c24.858 24.926 24.858 65.262 0 90.177z"/></svg>