<svg height="479pt" viewBox="0 -23 479.995 479" width="479pt" xmlns="http://www.w3.org/2000/svg"><path d="M463.996 434.234h-288c-8.832 0-16-7.168-16-16s7.168-16 16-16h288c8.832 0 16 7.168 16 16s-7.168 16-16 16zm0 0M15.996 434.234c-4.203 0-8.277-1.64-11.309-4.691a16.01 16.01 0 01-4.265-14.977l23.254-98.668a15.836 15.836 0 014.265-7.636L322.105 14.098c18.094-18.114 49.75-18.157 67.883 0l30.168 30.164c9.067 9.066 14.059 21.12 14.059 33.941 0 12.824-4.992 24.899-14.059 33.942L125.988 406.289a15.983 15.983 0 01-7.636 4.266l-98.668 23.254c-1.235.3-2.473.425-3.688.425zm37.781-106.578L37.5 396.73l69.078-16.277L397.52 89.512c3.03-3.032 4.695-7.04 4.695-11.309 0-4.265-1.664-8.297-4.695-11.305l-30.165-30.187c-6.039-6.04-16.597-6.04-22.613 0zm60.883 67.328h.215zm0 0"/><path d="M344.293 181.352c-4.094 0-8.191-1.559-11.305-4.696l-75.437-75.433c-6.25-6.25-6.25-16.383 0-22.633 6.254-6.254 16.387-6.254 22.637 0l75.433 75.433c6.25 6.25 6.25 16.383 0 22.633a15.956 15.956 0 01-11.328 4.696zm0 0"/></svg>