<svg xmlns="http://www.w3.org/2000/svg" width="996" height="1024"><path d="M996.324 507.406c0 275.127-223.036 498.162-498.162 498.162S0 782.532 0 507.406C0 232.278 223.035 9.243 498.162 9.243s498.162 223.035 498.162 498.163zM498.162 922.541c229.274 0 415.135-185.862 415.135-415.135S727.435 92.27 498.162 92.27 83.027 278.132 83.027 507.406s185.862 415.135 415.135 415.135zm22.896-673.392h-129.91v358.853h-48.85v58.188h48.85v78.901h62.605V666.19h130.834v-58.188H453.753v-55.766h54.895c63.402 0 112.521-13.37 146.961-40.512 34.761-27.443 52.044-66.549 52.044-116.899 0-48.272-15.562-84.903-47.029-109.366-31.337-24.36-78.015-36.309-139.566-36.309zm-67.304 248.532V304.04h60.934c44.718 0 77.08 7.918 97.604 23.259 20.378 15.23 30.742 38.447 30.742 70.208 0 35.392-11.068 60.571-32.718 76.219-21.853 15.795-57.676 23.956-108.038 23.956h-48.524z"/></svg>