<svg height="512pt" viewBox="0 -1 512 512" width="512pt" xmlns="http://www.w3.org/2000/svg"><path d="m306.394531 257.609375c-2.925781-2.925781-7.675781-2.925781-10.605469.007813-2.925781 2.929687-2.925781 7.679687.007813 10.605468l109.839844 109.746094c1.410156 1.410156 3.320312 2.191406 5.300781 2.191406.171875 0 .34375-.003906.515625-.015625 2.164063-.152343 4.15625-1.230469 5.464844-2.957031 26.640625-35.199219 40.722656-77.179688 40.722656-121.410156 0-50.648438-18.878906-99.0625-53.167969-136.320313-34.078125-37.03125-80.351562-59.878906-130.304687-64.339843-4.140625-.375-7.769531 2.679687-8.140625 6.804687-.367188 4.125 2.679687 7.769531 6.804687 8.136719 46.230469 4.125 89.058594 25.277344 120.601563 59.554687 31.730468 34.484375 49.207031 79.292969 49.207031 126.167969 0 38.039062-11.25 74.277344-32.628906 105.351562zm0 0"/><path d="m245.972656 61.921875c-.371094-4.125-4.023437-7.171875-8.140625-6.804687-37.511719 3.351562-73.242187 17.140624-103.339843 39.878906-1.730469 1.308594-2.808594 3.300781-2.960938 5.46875-.148438 2.164062.648438 4.289062 2.183594 5.820312l137.375 137.253906c1.464844 1.464844 3.382812 2.195313 5.300781 2.195313 1.921875 0 3.839844-.734375 5.304687-2.199219 2.929688-2.929687 2.925782-7.679687-.003906-10.605468l-131.132812-131.019532c26.3125-18.035156 56.769531-29.007812 88.609375-31.851562 4.125-.367188 7.171875-4.011719 6.804687-8.136719zm0 0"/><path d="m100.109375 131.964844c-2.164063.15625-4.160156 1.238281-5.464844 2.976562-26.355469 35.078125-40.285156 76.863282-40.285156 120.839844 0 111.089844 90.457031 201.46875 201.640625 201.46875 44.011719 0 85.828125-13.917969 120.9375-40.246094 1.738281-1.308594 2.824219-3.304687 2.980469-5.472656.152343-2.167969-.644531-4.296875-2.183594-5.835938l-271.792969-271.554687c-1.535156-1.535156-3.660156-2.324219-5.832031-2.175781zm155.890625 310.285156c-102.914062 0-186.640625-83.648438-186.640625-186.46875 0-37.792969 11.117187-73.839844 32.230469-104.785156l259.28125 259.054687c-30.972656 21.09375-67.042969 32.199219-104.871094 32.199219zm0 0"/><path d="m437.019531 74.914062c-48.355469-48.308593-112.640625-74.914062-181.019531-74.914062s-132.664062 26.605469-181.019531 74.914062c-48.351563 48.3125-74.980469 112.542969-74.980469 180.867188 0 65.183594 24.550781 127.269531 69.125 174.816406 44.359375 47.320313 104.328125 75.851563 168.855469 80.339844 4.132812.273438 7.714843-2.832031 8-6.964844.289062-4.132812-2.828125-7.714844-6.960938-8-60.738281-4.222656-117.1875-31.082031-158.953125-75.632812-41.957031-44.757813-65.066406-103.199219-65.066406-164.558594 0-64.3125 25.066406-124.777344 70.585938-170.257812 45.519531-45.476563 106.039062-70.523438 170.414062-70.523438s124.894531 25.046875 170.414062 70.523438c45.519532 45.480468 70.585938 105.945312 70.585938 170.257812 0 61.359375-23.109375 119.800781-65.066406 164.558594-41.765625 44.550781-98.214844 71.410156-158.953125 75.632812-4.132813.289063-7.25 3.871094-6.960938 8.003906.273438 3.953126 3.566407 6.976563 7.472657 6.976563.175781 0 .351562-.003906.527343-.015625 64.527344-4.488281 124.496094-33.019531 168.855469-80.339844 44.574219-47.546875 69.125-109.632812 69.125-174.816406 0-68.324219-26.628906-132.554688-74.980469-180.867188zm0 0"/></svg>