<svg width="27" height="23" viewBox="0 0 27 23" fill="none" xmlns="http://www.w3.org/2000/svg">
<path fill-rule="evenodd" clip-rule="evenodd" d="M0.919308 0.5C0.401528 0.5 0 0.90619 0 1.3773C0 1.84841 0.401528 2.2546 0.919308 2.2546H3.68L6.77354 14.2287C7.00158 15.1113 7.82299 15.7299 8.78873 15.7299L10.1802 15.7299L10.2038 15.7299L10.2252 15.7299L20.6244 15.7299L20.648 15.7299L20.6694 15.7299H22.0978C23.0421 15.7299 23.8325 15.1269 24.0781 14.2586L27 3.86884H8.19495L8.48598 4.99535L8.64825 5.62344H9.5432H24.63L22.4689 13.3026L22.2796 13.9753H8.60282L5.88333 3.44912L5.50928 2.00129C5.28125 1.11864 4.45984 0.5 3.49409 0.5H0.919308ZM7.20918 19.3661C7.20918 17.94 8.16417 16.7411 9.45828 16.3967H10.9858C12.2799 16.7411 13.2349 17.94 13.2349 19.3661C13.2349 21.061 11.886 22.435 10.222 22.435C8.55808 22.435 7.20918 21.061 7.20918 19.3661ZM17.5931 19.3661C17.5931 17.94 18.5481 16.7411 19.8422 16.3967H21.3698C21.9679 16.5559 22.4935 16.8975 22.886 17.3598C22.8886 17.3643 22.8914 17.368 22.8945 17.3712C22.8962 17.3729 22.8981 17.3747 22.9001 17.3766C23.3483 17.9123 23.6189 18.607 23.6189 19.3661C23.6189 21.061 22.27 22.435 20.606 22.435C18.942 22.435 17.5931 21.061 17.5931 19.3661ZM8.80142 19.3443C8.80142 18.5652 9.4289 17.9757 10.2031 17.9757C10.9772 17.9757 11.6047 18.5652 11.6047 19.3443C11.6047 20.1233 10.9772 20.7129 10.2031 20.7129C9.42891 20.7129 8.80142 20.1233 8.80142 19.3443ZM19.2456 19.3443C19.2456 18.5652 19.8731 17.9757 20.6473 17.9757C21.4214 17.9757 22.0489 18.5652 22.0489 19.3443C22.0489 20.1233 21.4214 20.7129 20.6473 20.7129C19.8731 20.7129 19.2456 20.1233 19.2456 19.3443Z" fill="#606266"/>
</svg>
