<svg width="16" height="16" viewBox="0 0 16 16" fill="none" xmlns="http://www.w3.org/2000/svg">
<path fill-rule="evenodd" clip-rule="evenodd" d="M0 8C0 3.58894 3.58894 0 8 0C12.4111 0 16 3.58894 16 8C16 12.4111 12.4111 16 8 16C3.58894 16 0 12.4111 0 8ZM14.7692 8C14.7692 4.25481 11.7451 1.23077 7.99993 1.23077C4.25474 1.23077 1.2307 4.25481 1.2307 8C1.2307 11.7452 4.25474 14.7692 7.99993 14.7692C11.7451 14.7692 14.7692 11.7452 14.7692 8ZM7.38459 4.3077V5.53847H8.61536V4.3077H7.38459ZM7.38459 11.6923V6.76923H8.61536V11.6923H7.38459Z" fill="#318CCA"/>
</svg>
