<svg width="24" height="24" viewBox="0 0 24 24" fill="none" xmlns="http://www.w3.org/2000/svg">
<path d="M18.0282 10.7422C18.5441 10.7422 18.9623 10.324 18.9623 9.8081C18.9623 9.29221 18.5441 8.87399 18.0282 8.87399C17.5123 8.87399 17.0941 9.29221 17.0941 9.8081C17.0941 10.324 17.5123 10.7422 18.0282 10.7422Z" fill="#606266"/>
<path d="M20.1766 1.86821H18.9623V0.934103C18.9623 0.418198 18.5441 0 18.0282 0C17.5123 0 17.0941 0.418198 17.0941 0.934103V1.86821H12.8439V0.934103C12.8439 0.418198 12.4257 0 11.9098 0C11.3939 0 10.9757 0.418198 10.9757 0.934103V1.86821H6.77225V0.934103C6.77225 0.418198 6.35405 0 5.83815 0C5.32224 0 4.90404 0.418198 4.90404 0.934103V1.86821H3.73641C1.67615 1.86821 0 3.54436 0 5.60462V20.1766C0 22.2369 1.67615 23.913 3.73641 23.913H10.8823C11.3982 23.913 11.8164 23.4948 11.8164 22.9789C11.8164 22.463 11.3982 22.0448 10.8823 22.0448H3.73641C2.70628 22.0448 1.86821 21.2068 1.86821 20.1766V5.60462C1.86821 4.57449 2.70628 3.73641 3.73641 3.73641H4.90404V4.67052C4.90404 5.18642 5.32224 5.60462 5.83815 5.60462C6.35405 5.60462 6.77225 5.18642 6.77225 4.67052V3.73641H10.9757V4.67052C10.9757 5.18642 11.3939 5.60462 11.9098 5.60462C12.4257 5.60462 12.8439 5.18642 12.8439 4.67052V3.73641H17.0941V4.67052C17.0941 5.18642 17.5123 5.60462 18.0282 5.60462C18.5441 5.60462 18.9623 5.18642 18.9623 4.67052V3.73641H20.1766C21.2068 3.73641 22.0448 4.57449 22.0448 5.60462V10.929C22.0448 11.4449 22.463 11.8631 22.9789 11.8631C23.4948 11.8631 23.913 11.4449 23.913 10.929V5.60462C23.913 3.54436 22.2369 1.86821 20.1766 1.86821Z" fill="#606266"/>
<path d="M13.9649 10.7422C14.4808 10.7422 14.899 10.324 14.899 9.8081C14.899 9.29221 14.4808 8.87399 13.9649 8.87399C13.449 8.87399 13.0308 9.29221 13.0308 9.8081C13.0308 10.324 13.449 10.7422 13.9649 10.7422Z" fill="#606266"/>
<path d="M9.90151 14.8055C10.4174 14.8055 10.8356 14.3873 10.8356 13.8714C10.8356 13.3555 10.4174 12.9373 9.90151 12.9373C9.38562 12.9373 8.96741 13.3555 8.96741 13.8714C8.96741 14.3873 9.38562 14.8055 9.90151 14.8055Z" fill="#606266"/>
<path d="M5.83816 10.7422C6.35405 10.7422 6.77226 10.324 6.77226 9.8081C6.77226 9.29221 6.35405 8.87399 5.83816 8.87399C5.32226 8.87399 4.90405 9.29221 4.90405 9.8081C4.90405 10.324 5.32226 10.7422 5.83816 10.7422Z" fill="#606266"/>
<path d="M5.83816 14.8055C6.35405 14.8055 6.77226 14.3873 6.77226 13.8714C6.77226 13.3555 6.35405 12.9373 5.83816 12.9373C5.32226 12.9373 4.90405 13.3555 4.90405 13.8714C4.90405 14.3873 5.32226 14.8055 5.83816 14.8055Z" fill="#606266"/>
<path d="M5.83816 18.8689C6.35405 18.8689 6.77226 18.4507 6.77226 17.9348C6.77226 17.4189 6.35405 17.0007 5.83816 17.0007C5.32226 17.0007 4.90405 17.4189 4.90405 17.9348C4.90405 18.4507 5.32226 18.8689 5.83816 18.8689Z" fill="#606266"/>
<path d="M9.90151 18.8689C10.4174 18.8689 10.8356 18.4507 10.8356 17.9348C10.8356 17.4189 10.4174 17.0007 9.90151 17.0007C9.38562 17.0007 8.96741 17.4189 8.96741 17.9348C8.96741 18.4507 9.38562 18.8689 9.90151 18.8689Z" fill="#606266"/>
<path d="M9.90151 10.7422C10.4174 10.7422 10.8356 10.324 10.8356 9.8081C10.8356 9.29221 10.4174 8.87399 9.90151 8.87399C9.38562 8.87399 8.96741 9.29221 8.96741 9.8081C8.96741 10.324 9.38562 10.7422 9.90151 10.7422Z" fill="#606266"/>
</svg>
