<svg width="31" height="30" fill="none" xmlns="http://www.w3.org/2000/svg"><path d="M30.819 25.61c0 2.425-1.955 4.39-4.365 4.39H5.203c-2.41 0-4.365-1.965-4.365-4.39V4.39C.838 1.965 2.792 0 5.203 0h21.25c2.412 0 4.366 1.965 4.366 4.39v21.22z" fill="#FAAB62"/><path d="M30.666 25.501c0 2.4-1.935 4.345-4.32 4.345H5.313c-2.386 0-4.32-1.945-4.32-4.345V4.5c0-2.4 1.934-4.345 4.32-4.345h21.032c2.386 0 4.32 1.946 4.32 4.345v21.002z" fill="#F7931E"/><path d="M15.812 4.484c-2.971 0-5.38 2.422-5.38 5.41 0 2.99 2.409 5.412 5.38 5.412 2.972 0 5.38-2.423 5.38-5.411 0-2.989-2.409-5.411-5.38-5.411zm0 7.648a2.23 2.23 0 01-2.224-2.237 2.23 2.23 0 012.224-2.237 2.23 2.23 0 012.224 2.237 2.23 2.23 0 01-2.224 2.237zM17.711 19.612c2.154-.441 3.445-1.467 3.513-1.522.63-.509.732-1.435.226-2.069a1.457 1.457 0 00-2.056-.227c-.014.01-1.39 1.073-3.655 1.074-2.265-.001-3.67-1.063-3.684-1.074a1.457 1.457 0 00-2.057.227 1.477 1.477 0 00.227 2.069c.069.055 1.413 1.108 3.627 1.539l-3.086 3.243a1.477 1.477 0 00.038 2.08 1.453 1.453 0 002.068-.037l2.867-3.072 3.156 3.092a1.457 1.457 0 002.069-.002c.57-.575.57-1.506-.002-2.08l-3.25-3.241zM15.74 16.869c-.005 0 .004 0 0 0-.005 0 .004 0 0 0z" fill="#fff"/></svg>