<svg width="33" height="32" viewBox="0 0 33 32" fill="none" xmlns="http://www.w3.org/2000/svg">
<path d="M16.59 32C25.4265 32 32.59 24.8366 32.59 16C32.59 7.16344 25.4265 0 16.59 0C7.75341 0 0.589966 7.16344 0.589966 16C0.589966 24.8366 7.75341 32 16.59 32Z" fill="url(#paint0_linear)"/>
<path fill-rule="evenodd" clip-rule="evenodd" d="M7.83245 15.8311C12.4968 13.7989 15.6071 12.4592 17.1633 11.8119C21.6067 9.96372 22.53 9.64267 23.1317 9.63207C23.2641 9.62974 23.56 9.66254 23.7517 9.81809C23.9136 9.94944 23.9581 10.1269 23.9795 10.2514C24.0008 10.3759 24.0273 10.6596 24.0062 10.8813C23.7654 13.4112 22.7235 19.5508 22.1935 22.3844C21.9692 23.5835 21.5276 23.9855 21.1 24.0248C20.1709 24.1103 19.4653 23.4108 18.5654 22.8209C17.1572 21.8978 16.3617 21.3231 14.9947 20.4224C13.415 19.3814 14.4391 18.8092 15.3394 17.8742C15.575 17.6294 19.6688 13.9058 19.7481 13.568C19.758 13.5257 19.7672 13.3682 19.6736 13.2851C19.5801 13.2019 19.442 13.2304 19.3423 13.253C19.2011 13.285 16.9515 14.772 12.5934 17.7138C11.9549 18.1522 11.3765 18.3659 10.8583 18.3547C10.287 18.3423 9.18811 18.0317 8.37117 17.7661C7.36917 17.4404 6.5728 17.2682 6.64215 16.715C6.67827 16.4269 7.07504 16.1323 7.83245 15.8311Z" fill="white"/>
<defs>
<linearGradient id="paint0_linear" x1="16.59" y1="0" x2="16.59" y2="31.7627" gradientUnits="userSpaceOnUse">
<stop stop-color="#2AABEE"/>
<stop offset="1" stop-color="#229ED9"/>
</linearGradient>
</defs>
</svg>
