<svg width="31" height="31" fill="none" xmlns="http://www.w3.org/2000/svg"><path d="M30.1 7.323s-.311-2.932-1.19-4.227c-1.138-1.705-2.431-1.705-3-1.773-4.19-.409-10.5-.477-10.5-.477s-6.31.068-10.5.477c-.57.068-1.862.137-3 1.773C.979 4.391.72 7.323.72 7.323S.41 10.8.41 14.278v3.204c0 3.478.31 6.887.31 6.887s.31 2.932 1.19 4.227c1.138 1.705 2.638 1.636 3.31 1.841 2.38.34 10.19.409 10.19.409s6.31 0 10.5-.477c.569-.069 1.862-.137 3-1.773.879-1.295 1.19-4.227 1.19-4.227s.31-3.478.31-6.887v-3.204c0-3.478-.31-6.955-.31-6.955z" fill="#D8362A"/><path d="M11.243 9.716v12.26l10.734-5.989-10.734-6.27z" fill="#fff"/></svg>