<svg width="124" height="82" fill="none" xmlns="http://www.w3.org/2000/svg"><path fill="#fff" d="M1.924 1.925h120.282v77.942H1.924z"/><path d="M66.009 64.042c-2.582 2.789-6.177 2.789-8.743 0-.778-.847-1.904-.649-2.512.444-.61 1.09-.472 2.66.306 3.506 1.926 2.094 4.24 3.14 6.556 3.14 2.317 0 4.636-1.046 6.576-3.14.782-.846.93-2.417.327-3.506-.603-1.093-1.726-1.29-2.51-.444zM31.445 42.82c-2.065 0-3.978 1.295-5.118 3.463-.661 1.257-.389 2.945.61 3.771.999.826 2.344.477 3.007-.782.476-.905 1.196-1.003 1.484-1.003.288 0 .995.108 1.479 1.003 1.008 1.869 2.634 1.084 3.002.782 1.003-.826 1.288-2.514.634-3.771-1.128-2.168-3.034-3.462-5.098-3.462zM91.667 42.82c-2.064 0-3.978 1.294-5.118 3.462-.661 1.257-.388 2.946.61 3.771.999.826 2.345.477 3.007-.781.476-.906 1.196-1.004 1.484-1.004.289 0 .996.108 1.479 1.004 1.008 1.868 2.634 1.084 3.002.781 1.004-.825 1.288-2.514.634-3.77-1.128-2.169-3.034-3.463-5.098-3.463z" fill="#318CCA" stroke="#318CCA" stroke-width=".6"/><path fill-rule="evenodd" clip-rule="evenodd" d="M6.316 6.292V75.5h110.536V6.292H6.316zM1.58 0C.707 0 0 .704 0 1.573v78.646c0 .868.707 1.572 1.58 1.572h120.009c.872 0 1.579-.704 1.579-1.572V1.573c0-.869-.707-1.573-1.579-1.573H1.579z" fill="#36A5F2"/><path fill-rule="evenodd" clip-rule="evenodd" d="M61.103 46.19l56.188-36.567L4.928 8.66l56.175 37.53zm-2.405 6.193c1.327.721 3.284.721 4.612 0l54.085-35.062V9.623L5.774 8.66l.48 9.623 52.444 34.1z" fill="#36A5F2"/></svg>