<svg width="1281" height="1567" fill="none" xmlns="http://www.w3.org/2000/svg"><path d="M128.352 312.524c-125.648 47.631-163 239-178 290s-42 336 198.018 293.423c254.89-34.38 372.355-191.377 572.355-81.363C1062.74 1002.8 1557 924.003 1557 924.003v-240s-101.74 20.874-225.14-36.83c-144.57-67.68-230.24-328.28-453.509-380.649-157.626-22-202.903 100.405-303 92-131-11-140.999-162-446.999-46z" fill="#D8EEFE"/><path d="M569.17 584.907c-39.114 122.711-220.818 102.616-221.818 200.616-.597 58.532-227.215 1.272-345.352 0-35.15-.379-117.648 61.478-117.648 61.478s-7.647 31.814 0-262.094C-108 291-115.647 323-115.647 323s74.151 32.039 93 9.523c18.526-22.133 82.25-15.625 103.624 27.125 21.375 42.75 174.317 234.461 287.41 205.991 104.347-26.309 118.008-216.211 162.045-200.62 37.178 13.167 64.918 137.614 38.738 219.888z" fill="#99D4FF"/><path d="M197.673 1000.28c109.013 85.77 333.679-204.757 207.679-182.757-126 22-35-127-405-26-34.956 32.829 3.438 167.484 40.949 194 52.122 36.867 85.862-40.698 156.372 14.757z" fill="#fff"/><path d="M1066.83 719.703l-1.18-.2c.55.1.9.2 1.18.2zM1075.39 722.103l.21-.1c-.35 0-.55 0-.21.1zM1235.44 736.704c-1.72-.4-3.73-.9-3.45-.5l.55.4c1.18-.1 2.14 0 2.9.1zM1146.27 733.904c.13.1.34.1.48.2.41-.1.83-.2 1.17-.3-.48 0-1.1.1-1.65.1zM1144.88 735.503l-2.28-.6c.56.2 1.25.4 2.28.6zM1020.41 704.304s-.35 0-.69-.1c-.35 0-.69-.1-.69-.1 2.07 1 1.24.4 1.38.2zM1070.83 716.103c-.76-.1-1.03-.1-1.03 0 .76.1 1.17.2 1.03 0zM863.81 601.504l-.276-.4c-.069.1.069.2.276.4zM824.229 556.704c.415.4 1.037 1.2 1.589 1.8-.207-.3-.691-.9-1.589-1.8zM945.252 664.403c-.069-.1-.139-.1-.208-.2-1.105-.4-.621-.2.208.2zM1202.08 740.903c1.73-.5 2.69-.3 4.01-.2l-1.32-1.3-2.69 1.5z" fill="#99D4FF"/><path d="M1046.45 713.504l2.69 1.3c-3.45-.5-5.87-1.5-3.31-.1.62-1.2 10.84 3.4 11.4 2.2l1.79.9c-.55-.2-.62-.1-1.1-.3 1.72.9 2.41.9 3.24.8.83-.1 1.8-.2 4.08.6 1.59.5 2.69 1.1 1.59.9l3.66.7c1.03.3.76.5-.28.2l5.46 1.4h-.07c.83 0 2.62.2 3.52.3 1.38.6-.69-.1-.41.2l3.04.5c1.17.7-1.38.3-3.46-.3 2.7 2.1 2.56.4 8.57 2.6l-2.9-.5c1.79 1.2 4.07 1.4 7.25 2.7-.76-.4-6.35-2.7-3.04-2.3.9.3 2.14.7 3.94.8-.07.5 1.73.8 3.87 1.3l-.21.6c2.35.4 2.21 0 3.66 0 2.63.7 3.11 1.3 3.66 1.8 4.22.9-2.83-1.3 2.14-.5 3.46.9 6.01 1.1 10.23 1.6 2.41.7-.49.3.41.7l2.21-.1c.55.1.35.2.28.3 1.86.2.21-.6 3.11-.2.41-.3 1.86.3 3.66.8 1.79.5 4 1.1 5.8 1 .9.3-.48.3-.21.6 4.98.2 4.22.3 8.29.2l3.39.9c-2.49-.9.76-.9 3.59-1-.9-.3-1.66-.6-2.14-.8 0 0 1.1.1 2.28.1 1.1 0 2.28.1 2.28.1.55.2.07.3-.69.5.27 0 .62 0 .82-.1 1.59.4.76.7-.41.9-.55-.2-1.11-.4-1.59-.6-1.1.3-2.21.6-2 1h1.52c-.28.1-.49.1-.35.2s.62 0 1.38-.1l.97.8.28-.3 5.87 1.1c2.14-.1 4.14-.3 6.42-.5 2.28-.1 4.91-.1 8.29 0-1.66.4-.41.8-.48 1.4-1.8-.8-5.18-.2-8.71-.8 1.8.3 1.39.5.9.6 0 0 1.59 0 3.11.1H1166.85c-.14.5 1.31.5 2.9.8-1.17-1.1 4.63-.3 7.19-.4.13.3-.49.6-3.53.3 3.39 1 4.42-.8 7.74.1-.76-.1-1.18-.1-1.45 0 1.79-.2 6.08.4 5.04.6l-.76-.1c2.49.3 6.29.5 9.6.5 3.25 0 6.01-.1 6.43-.5.07.1-.69 1-.97 1.2l8.98-2.4c-.83.7 2.21 2.6-1.93 2.8 1.17.2 2.69.4 5.18.1-.83-.1-2.01-1.1-.9-1.1 3.04.9 2.14.5 5.87 1.2-1.24-.2.14-1.3 2.07-1.2-.27.2.14 1.1-.55 1.2l4.83-1c-1.17.2-.2.9.83 1.3-.48-.2 4.15.1 5.46 0l-2-.3c1.38.1 2.35 0 3.18-.1.82-.1 1.51-.4 2.14-.6 1.31-.4 2.62-.9 5.32-.9-.63.2-1.59 1.4 1.1 1.6 1.24-.6 5.53-2.8 10.29-3.3l.9.3 1.8-.2c.9-.1 1.79-.3 1.79-.3-2.28 1-8.56 2.8-12.09 3.6 2.01.2.56.4 3.6.3 1.1.3-1.66.5-2.56.5l7.05.1c-.14-.3 1.17-.5 2.55-.7 1.38-.2 2.7-.4 2.56-.7 0 0-.49.1-1.18.2s-1.65.2-2.62.3l-3.87.4c-.34-.7 4.42-1.9 9.4-2 1.24.2-.97 1.2-.83 1.5.62-.3 4.76-.6 5.18-.5l-2.14.4c2.76.1 4.55-1.1 7.87-.5 1.17 0 3.45.7 3.66.3-1.93-.7-2.35-3.1-1.1-3.7.2 0 1.72.2 3.38.3 1.66.2 3.39.3 4.08.4 1.93.5-2.84 1.6-1.18 2 .07-.2 1.11-.5 1.52-.6 1.25.1-.48.6 2.14.4.42-.7 5.39-.3 1.25-.7 2.55-.4 2.76 0 5.73-.3-.97-.4 2.69-1.7 5.25-2-.14.2.41.4.69.5 5.25-.3 8.15-.3 13.06-.7.48.1 2.83.1 1.86.5.69-.2 1.31-.5 2.83-.6 2.97.3-3.38.4-1.1.9.21-.4 3.87-.9 6.08-1.3-.69-.6-4.98.3-7.19.7-.07-.8 3.66-2 8.78-2.9 4.07-.6 1.79.4 2.48.2 7.67-.7 6.43-2.2 12.85-2.2 2.56.3.14 1.1.76 1.4-3.32.6-5.11.2-7.39.5h2.76c-1.03.3-3.24.7-4.49.6 1.04.1 4.29-.2 8.02-.6 1.86-.2 3.79-.4 5.73-.6 1.86-.2 3.66-.4 5.18-.4 1.04-.3 2.83-.7 2-.8l-1.86.3c-1.73-.2 3.45-1 1.1-.9 2.49-.6 5.25-1.5 8.84-1.7l.7.5c-.07-.2-2.35-.1-3.32.2 1.45-.5 5.46.1 7.05-.9l-2.49-.1c2.49-.6 5.59-1.7 8.7-1.9-1.45-.4-.69.2-2.97-.2 2.01.6-8.01 1-4.83 1.5-2.35-.5-3.94.2-6.98-.2.14.2 1.11.3-1.52.5-.14.1-.41.2-.55.3h-.21.14c-.14 0-.14.1.07 0 .62 0 1.17.1 1.38.1-1.24.6-5.46 1.1-6.84 1.6-1.59.1.62-.3-.21-.4l-2.07.6c-.21-.4-4.21-.3-.55-.9l-3.32.3c-1.93 0-4.63.1-6.28.5-1.59.1-3.94.9-2.56.4l-5.18.8-.07-.1c-1.31.1-2.55.3-3.87.5-1.31.2-2.62.3-4 .5-2.7.3-5.53.6-8.5.4-1.73.3-3.52.6-6.36.7l-.55-.3c-2.21.4-6.63.1-7.6.5-2.41-.9-10.77.4-14.64.5l-.14.5c-2.69.1-5.25.3-8.56.7l.2.4c-2.83.5-7.39 0-11.95.2.28-.2 1.45-.2 2.28-.1-5.45-.7-11.46 1-16.37.3-1.24.2-2.14.1-2.97 0h.28-.49c-.55-.1-1.1-.1-1.72-.2.48.1 1.03.2 1.45.2-.97 0-2.35.1-3.8.2l-.62-.5h-.35c-1.38-.2-1.1.2-.34.6-.7.1-1.39.2-1.87.3-1.1-.8-3.66.2-5.18-.7-.97.4-7.05.2-7.81 1-.06-.1-.48-.2.28-.2-1.59-.1-3.11-.2-4.56 0l-.69-.6-3.45.8c-2.08-.5-2.9-.7-.83-1.1-4.98.5-4.08.1-8.29.6l.21-.4c-1.52-.1-3.94.4-4.84 0-.83-.2-2.28-.4-4.14-.5-.97-.1-1.94-.1-3.04-.2-1.11-.1-2.28-.2-3.46-.3-4.83-.4-10.36-.9-14.71-1.6 1.66 1.3-4.01-.8-4.42 0-.49-.3-1.66-.6-.28-.7-4.42-.2-6.63-1.2-9.74-.8-.48-.3.97-.3.55-.5-.34 0-1.45.1-1.86-.1-.41-.2.69-.2 1.38-.2-4.49-.5-5.04.3-5.39 1.1-2.28-.7-3.38-.7-5.11-.4-.76-.4-2.07-.9.69-.5-1.59-.3-9.6-1.8-9.81-1.2-.48-.2-2.21-.4-2.62-.4-3.52-.6-3.87-.7-7.32-1.2l.96.3c-.69.3-1.45.2-2.34 0-.9-.2-1.94-.5-3.39-.8l.07-.1c-6.36-1.8-2.76-.3-9.05-2.1l.28.5c-.69.9-5.53-1.7-9.26-2 0 0 .35.2.62.3.35.1.62.3.62.3-2.07 0-5.45-2.7-7.39-3.2-.41-.2.69 0 1.31.1-5.18-1.8-.75.5-4.69-.3-.69-.5 1.03-.6-1.59-1.3-.62-.3-2.56-.5-4.77-.7-2.21-.3-4.69-.7-6.42-1.5.76.5 1.52.9-.35.6-2.76-.7-7.32-3-9.94-2.9-.35-.2-.49-.3-.49-.3-2.14-.4-6.91-1.6-8.22-1.5-1.72-2.3-13.19-3.5-12.91-4.9l-6.5-2 .21-.1c-4.08-1.5-5.6-1.8-7.12-2-.89-.5-.2-.3-.13-.4-5.94-2.5-6.57-2.7-11.68-3.8l-.41-.7c-.35-.1-1.04-.3-2.01-.8a75.5 75.5 0 00-3.45-1.7c-2.69-1.3-5.87-2.8-8.84-3.8.07 0 .21-.1.69.1-1.66-.6-3.45-1.3-5.25-2.2-.9-.4-1.8-.9-2.69-1.3-.9-.5-1.731-.9-2.56-1.4-3.316-1.8-6.148-3.2-7.53-2.9l-4.351-1.6c5.526 2.8-.967.3 1.243 1.7-2.21-1-5.526-3.2-2.832-2l.414.3c.622-.2-1.105-1.1-2.901-2-1.796-.9-3.73-2-3.592-2.2-5.388-2.9-10.638-5.9-15.819-8.8-.621-.4-1.312-.7-1.934-1.1l-1.865-1.2c-1.243-.8-2.556-1.6-3.799-2.4-2.487-1.6-4.973-3.1-7.46-4.6l.967 1.4-3.454-2.1c-.829-.7-1.036-1.3 1.382.3-1.175-1.2-4.214-2.2-4.352-2.1-2.349-1.6-1.796-1.6-.898-1.1.967.4 2.279 1 1.519.6 0 0-.483-.3-1.036-.6-.276-.1-.483-.3-.691-.4-.207-.1-.276-.2-.276-.2l.415.4c-1.658-.8-1.935-.6-4.836-2.6-1.796-1.4-.829-1-1.519-1.6 0 0-.208-.2-1.106-.8l-4.282-2.9 1.519 1.7c-2.003-1-4.006-2.7-2.21-.8-.622-.7-1.934-1.8-3.592-3-.829-.6-1.727-1.2-2.625-1.9-.967-.6-1.865-1.4-2.832-2.1-3.799-2.8-7.461-5.5-8.22-6.2-2.763-1.6-5.319-3.5-8.497-5.9.346.3.622.8.415.8-.208.1-.829-.2-2.142-1.4 1.451-.4-4.697-4.6-6.562-7.2 1.727 2.2-7.668-6.2-4.974-2.9-2.21-2 .07-.6-1.519-2.2-1.382-1-2.832-2.1-4.214-3.3-1.381-1.3-2.901-2.6-4.352-4-2.97-2.8-6.148-5.7-9.394-8.5-.138 0 .829 1.2-.622.2l-3.177-3.6c-1.313-1.1-1.451-.4-3.592-3 .276.4.69 1-.139.2-3.039-3.1-6.147-6.2-9.256-9.2l-4.766-4.5c-.829-.7-1.589-1.5-2.349-2.4l-2.348-2.4c-3.109-3.3-6.148-6.5-9.257-9.8-1.519-1.6-3.039-3.3-4.559-4.9-1.519-1.7-2.97-3.4-4.421-5.2 1.589 1.9.484.7-.759-.7.759.9-.07.1.069.3l-4.905-5.8c-.967-1-5.319-6.1-5.871-6.6l1.588 1.8c-2.072-2.4 2.833 3.5 2.487 3.2 1.174 1.3 2.694 3.2 4.352 5.3 1.658 2.1 3.523 4.4 5.457 6.6.829 1.1-.76-.8-.345-.2.483.5 1.036 1.2 1.727 1.9.69.8 1.519 1.7 2.624 3l-.276-.2c3.109 3.4 5.319 5.9 7.599 8.5 1.105 1.3 2.279 2.7 3.592 4.2.621.8 1.312 1.6 2.072 2.4.76.9 1.52 1.8 2.418 2.7l-.415-.8c1.52 1.6 1.796 2 2.487 2.8 1.934 1.4-4.283-4.4-2.487-3.2 1.796 2.6 10.914 11 11.95 13.1 2.349 2.4-.552-1.1 1.865 1.4l.553.8.691.4c1.52 1.6 2.21 2.7 2.21 2.9-.345-.4-1.105-1.1-1.519-1.5.483.6 1.036 1.2 1.727 1.9.621.6 1.312 1.3 2.003 1.8 1.312 1.2 2.487 2.2 2.763 2.5l-2.28-2.3c3.385 3 7.046 6.5 10.707 9.9 1.865 1.7 3.661 3.4 5.457 5 1.865 1.5 3.661 2.8 5.388 4.1l-.414-.6c5.25 3.8 4.006 3.5 9.671 8l-.208-.1c1.175.7 2.694 1.9 4.214 3.1-.76-.5-.138.2.484.8.552.6 1.105 1.1.138.5 5.802 3.8 2.901 1.8 6.907 3.8l.76 1c1.382.6 1.52.6 4.421 2.6-2.418-1.5 1.658 1.9-1.105.3 2.832 2.6 5.181 4.1 6.977 5.3 1.865 1.2 3.384 2 4.559 3.5 3.108 1-5.112-4.1-3.454-3.2-1.243-1.2 2.556.9 4.421 2.3 1.934 1.3 2.901 3.4 7.805 6.7-.483-.3-.552-.3-1.036-.6 1.727 1.5 3.661 2.1 5.803 4 1.45.3 2.97 1.9 3.523 1.4 0 0-.277-.2-.691-.4-.415-.3-1.036-.5-1.589-.9-1.105-.7-2.279-1.4-2.279-1.4 2.555 1.6 5.319 2.2 9.394 5.2-.345-.1-1.727-.6-2.625-1.1 1.174 1 2.418 1.3 3.661 2.3-.552.5-5.595-3.2-8.565-4.4 1.243 1.2 5.388 2.7 3.799 2.6 2.279.2 4.904 3.1 8.496 4.4l-.345.3c.553.3 1.727.7 2.694 1.3l-1.934-.5c2.901 1.2 5.112 3.7 7.875 4.9-5.527-3.3-1.106-1.3-3.316-3 3.454 1.8 4.352 2.6 5.388 3.5.967.9 2.072 2 5.94 4-1.036-.5-3.868-2.4-2.141-1.7 1.451.9 3.316 2.1 4.145 2.8 5.111 2.7-.691-.9 1.588 0 1.589 1.5 2.556 1.1 4.836 2.2l-.069.5c2.901 1.7 3.315 1.7 3.661 1.6.345-.1.691-.2 3.246 1.3l-2.417-.5 2.832 1.2-.691.2c3.109 1.1 4.007 1.6 6.908 3.2-.622-.7.552-.6 3.177.6 1.727 1.1-1.105 0 2.625 1.7-.898-.1-1.865-.2-3.384-1.4-.208.1-.899-.1-1.106 0 1.865 1.2 4.767 2.4 6.148 3-.483-.3-1.105-.6-1.45-.8l2.763 1c.69.3 1.379.4 1.929.6.56.2.9.3.9.3.83.5.14.4-.62.2 1.11.4 1.94.5 3.52 1.2-.48.2-.48.6-2.83-.2l5.25 1.8c.28.3 2.56 1.6 1.87 1.4 2.83 1.4 7.18 2.3 10.91 4.2.21 0 .62.1 1.45.3 3.59 1.4 6.7 3.1 11.05 4.2l2.28 1.6c3.39 1.1-3.11-2.1 2.49-.3 4.01 1.3 1.38 1.1 2.69 1.8 2.01.3 5.6.7 9.12 2.5-.69-.6-1.66-1-2.76-1.3zm41.72 11.7c-.83-.1-2.49-.2-3.04-.6 1.04-.3 1.73.1 3.04.6zm64.24 10.3c-.62.1-1.59-.1-2.62-.4.76.1 1.66.2 2.62.4zm179.53-4.5h0zm3.8-.2c.35-.1.35-.2.21-.2-.28.2-1.11.2-2.07.3.27.1.76.1 1.86-.1zm-400.505-76.5l.622.6c-1.589-.9-1.105-.7-.622-.6z" fill="#99D4FF"/><path d="M1145.09 735.303c-.21-.1-.28-.2-.34-.3-.35.1-.35.2.34.3zM1020.68 704.404l-.13-.1h-.14l.27.1zM1277.03 739.904c-.76 0-1.25-.1-1.52-.2-.07.2.27.2 1.52.2zM1272.33 738.503l.76-.1-.14-1-.62 1.1zM1232.75 741.904c3.52.2.83-.6 4.01-.4.82-.2-2.63-.2-1.8-.4-2.07.3-3.18.1-2.21.8zM1235.03 741.103c.34 0 .69-.1 1.1-.2-.62.1-.89.1-1.1.2zM817.736 549.204l-1.796-2.1 1.175 1.4.621.7zM814.282 545.304l-.414-.5-1.105-1.2c.414.5 1.243 1.3 1.519 1.7zM1094.32 727.904l.21-.1c-.35-.2-.83-.4-1.94-.7l1.73.8zM1063.93 719.504l.55.2-.9-.9.35.7zM1038.51 712.104c1.03.4 2.28.7 3.31 1.1-1.1-.3-2-.8-2.55-1.1-.63-.3-.83-.4-.76 0z" fill="#99D4FF"/><path d="M1177.41 567.104c5.85 0 10.6-4.746 10.6-10.6 0-5.854-4.75-10.6-10.6-10.6-5.86 0-10.6 4.746-10.6 10.6 0 5.854 4.74 10.6 10.6 10.6zM1224.01 567.104c5.85 0 10.6-4.746 10.6-10.6 0-5.854-4.75-10.6-10.6-10.6-5.86 0-10.6 4.746-10.6 10.6 0 5.854 4.74 10.6 10.6 10.6zM1130.81 567.104c5.85 0 10.6-4.746 10.6-10.6 0-5.854-4.75-10.6-10.6-10.6-5.86 0-10.6 4.746-10.6 10.6 0 5.854 4.74 10.6 10.6 10.6zM1177.41 614.304c5.85 0 10.6-4.746 10.6-10.6 0-5.854-4.75-10.6-10.6-10.6-5.86 0-10.6 4.746-10.6 10.6 0 5.854 4.74 10.6 10.6 10.6zM1224.01 614.304c5.85 0 10.6-4.746 10.6-10.6 0-5.854-4.75-10.6-10.6-10.6-5.86 0-10.6 4.746-10.6 10.6 0 5.854 4.74 10.6 10.6 10.6zM1130.81 614.304c5.85 0 10.6-4.746 10.6-10.6 0-5.854-4.75-10.6-10.6-10.6-5.86 0-10.6 4.746-10.6 10.6 0 5.854 4.74 10.6 10.6 10.6zM1037.61 567.704c5.85 0 10.6-4.746 10.6-10.6 0-5.854-4.75-10.6-10.6-10.6-5.86 0-10.6 4.746-10.6 10.6 0 5.854 4.74 10.6 10.6 10.6zM1084.21 567.704c5.85 0 10.6-4.746 10.6-10.6 0-5.854-4.75-10.6-10.6-10.6-5.86 0-10.6 4.746-10.6 10.6 0 5.854 4.74 10.6 10.6 10.6zM991.007 567.704c5.855 0 10.603-4.746 10.603-10.6 0-5.854-4.748-10.6-10.603-10.6-5.854 0-10.6 4.746-10.6 10.6 0 5.854 4.746 10.6 10.6 10.6zM1037.61 614.904c5.85 0 10.6-4.746 10.6-10.6 0-5.855-4.75-10.6-10.6-10.6-5.86 0-10.6 4.745-10.6 10.6 0 5.854 4.74 10.6 10.6 10.6zM1084.21 614.904c5.85 0 10.6-4.746 10.6-10.6 0-5.855-4.75-10.6-10.6-10.6-5.86 0-10.6 4.745-10.6 10.6 0 5.854 4.74 10.6 10.6 10.6zM991.007 614.904c5.855 0 10.603-4.746 10.603-10.6 0-5.855-4.748-10.6-10.603-10.6-5.854 0-10.6 4.745-10.6 10.6 0 5.854 4.746 10.6 10.6 10.6zM1177.41 661.504c5.85 0 10.6-4.746 10.6-10.6 0-5.855-4.75-10.6-10.6-10.6-5.86 0-10.6 4.745-10.6 10.6 0 5.854 4.74 10.6 10.6 10.6zM1224.01 661.504c5.85 0 10.6-4.746 10.6-10.6 0-5.855-4.75-10.6-10.6-10.6-5.86 0-10.6 4.745-10.6 10.6 0 5.854 4.74 10.6 10.6 10.6zM1130.81 661.504c5.85 0 10.6-4.746 10.6-10.6 0-5.855-4.75-10.6-10.6-10.6-5.86 0-10.6 4.745-10.6 10.6 0 5.854 4.74 10.6 10.6 10.6zM1177.41 708.804c5.85 0 10.6-4.746 10.6-10.6 0-5.855-4.75-10.6-10.6-10.6-5.86 0-10.6 4.745-10.6 10.6 0 5.854 4.74 10.6 10.6 10.6zM1224.01 708.804c5.85 0 10.6-4.746 10.6-10.6 0-5.855-4.75-10.6-10.6-10.6-5.86 0-10.6 4.745-10.6 10.6 0 5.854 4.74 10.6 10.6 10.6zM1130.81 708.804c5.85 0 10.6-4.746 10.6-10.6 0-5.855-4.75-10.6-10.6-10.6-5.86 0-10.6 4.745-10.6 10.6 0 5.854 4.74 10.6 10.6 10.6zM1037.61 663.804c5.85 0 10.6-4.746 10.6-10.6 0-5.854-4.75-10.6-10.6-10.6-5.86 0-10.6 4.746-10.6 10.6 0 5.854 4.74 10.6 10.6 10.6zM1084.21 663.804c5.85 0 10.6-4.746 10.6-10.6 0-5.854-4.75-10.6-10.6-10.6-5.86 0-10.6 4.746-10.6 10.6 0 5.854 4.74 10.6 10.6 10.6zM991.007 663.804c5.855 0 10.603-4.746 10.603-10.6 0-5.854-4.748-10.6-10.603-10.6-5.854 0-10.6 4.746-10.6 10.6 0 5.854 4.746 10.6 10.6 10.6zM1037.61 711.004c5.85 0 10.6-4.746 10.6-10.6 0-5.854-4.75-10.6-10.6-10.6-5.86 0-10.6 4.746-10.6 10.6 0 5.854 4.74 10.6 10.6 10.6zM1084.21 711.004c5.85 0 10.6-4.746 10.6-10.6 0-5.854-4.75-10.6-10.6-10.6-5.86 0-10.6 4.746-10.6 10.6 0 5.854 4.74 10.6 10.6 10.6zM991.007 711.004c5.855 0 10.603-4.746 10.603-10.6 0-5.854-4.748-10.6-10.603-10.6-5.854 0-10.6 4.746-10.6 10.6 0 5.854 4.746 10.6 10.6 10.6z" fill="#15EEB5" fill-opacity=".3"/><path d="M1044.09 819.754l-1.29.077c.58-.063 1.04-.173 1.29-.077zM1052.77 820.834l.38-.436c-.47.111-.69.316-.38.436zM1249.36 736.582c-2.07.646-4.23.967-4.29 1.824l.34.723c1.74-1.369 2.92-2.073 3.95-2.547zM1133.6 802.895c.18.072.3.12.49.192.66-.618 1.16-1.006 1.77-1.647-.63.34-1.41.909-2.26 1.455zM1130.65 807.887l-2.46.201c.52-.086 1.29-.077 2.46-.201zM999.878 805.235l-1.573.258c1.795 1.297 1.252.201 1.573-.258zM1051.9 808.472c-.76-.01-1.27.378-1.31.656.87-.245 1.39-.331 1.31-.656zM905.76 599.189c-.021-.301-.042-.603-.003-.881-.161.23-.079.556.003.881zM899.727 495.94c.123.928.128 2.69.294 4.221-.102-.627-.147-2.11-.294-4.221zM944.631 734.751c-.06-.024-.021-.301-.081-.325-.83-.914-.506-.493.081.325zM1207.11 772.098c.07.024.07.024.23-.206-.16.23-.23.206-.23.206zM1201.5 776.037c2.59-2.494 3.84-3.174 5.45-3.71l-.79-2.073-4.66 5.783z" fill="#99D4FF"/><path d="M1068.4 834.169l2.92 1.734c-4.16-.293-6.86-1.55-4.22.265.68-1.083 3.73-.074 6.85.963 3.04 1.009 6.29 1.712 6.9.796l1.91 1.137c-.59-.229-.72-.091-1.31-.32 1.83 1.108 2.83.923 3.83.737 1.07-.157 2.41-.591 5.02.246 1.82.717 2.99 1.372 1.62 1.218l4.32.546c1.23.292.74.679-.49.387 0 0 1.59.435 3.25.703l3.32.537-.08-.029c1.07-.157 3.29-.247 4.43-.375 1.53.602-.85.047-.62.525l3.8.15c1.25.879-1.91.791-4.36.208 2.53 2.932 3.15.087 9.97 2.587l-3.51-.231c1.77 1.667 4.57 1.611 8.2 3.045-.81-.511-7.14-3.202-2.91-3.271 1.02.401 2.53.612 4.75.523-.26.863 1.89.941 4.56 1.219l-.61 1.112c2.94.002 2.92-.585 4.77-.818 3.17.479 3.49 1.376 4.02 2.164 5.1.47-3.14-1.625 3.03-1.311 4.18.685 7.26.548 12.7.183 2.95.393-.77.663.25 1.065l2.98-.753c.65.063.37.339.16.449 2.36-.228.53-1.141 4.19-1.244 1.25-1.049 6.86 1.746 11.76.398.95.373-.76.663-.53 1.14 6.42-.941 5.49-.727 10.89-2.07l4.18.489c-2.9-.756 1.37-1.775 5.2-2.771-1.01-.401-1.88-.55-2.46-.779l5.92-.947c.64.063-.06.559-1.11 1.107.42-.219.85-.243 1.13-.324 1.94.187.68 1.041-1.01 1.723-.58-.23-1.3-.321-1.89-.55-1.62.71-3.16 1.645-3.07 2.261.42-.22 1.13-.324 1.92-.4-.42.219-.71.3-.63.524.15.058.85-.243 1.92-.595l.97 1.155.48-.582 7.32.186c2.9-.977 5.6-1.845 8.78-2.903 1.56-.543 3.27-1.029 5.04-1.486 1.78-.458 3.84-.996 5.98-1.31-2.4 1.178-.88 1.584-1.28 2.587-1.01-.402-2.72-.112-4.78.427-2 .371-4.27 1.019-6.49 1.108 2.29-.06 1.67.464 1.03.598 0 0 2.06-.539 4.12-.881 1-.186 2.06-.539 2.85-.614.78-.272 1.28-.267 1.28-.267-.4.806 1.52.406 3.53.427-1.06-1.576 6.31-1.949 9.78-3.088.02.587-.96 1.359-4.89 1.739 4.04.628 6.28-2.927 10.31-2.496-1 .186-1.5.181-1.99.567 2.48-.953 7.98-1.485 6.5-.717l-1 .186c3.21-.471 8.26-1.566 12.6-2.557 4.34-.99 8.16-2.377 8.78-3.098.01.196-1.37 1.971-1.78 2.386 0 0 3.23-1.812 6.53-3.792 3.24-1.812 6.54-3.791 6.54-3.791-1.31 1.412 1.91 3.457-3.76 5.468 1.5-.18 3.5-.552 6.9-1.719-1.07.157-2.26-1.085-.7-1.628 3.73.317 2.65.082 7.31-.011-1.58.152.71-2.228 3.26-2.957-.49.386-.22 1.842-1.21 2.223l6.9-3.648c-1.63.711-.66 1.671.63 1.795-.58-.229 5.54-1.481 7.38-2.301l-2.64.309c7.24-1.968 7.86-4.812 15.03-6.809-.91.606-2.76 3.159.93 2.106 1.95-1.546 8.57-7.041 15.14-9.854l1.15.068 5.08-2.241c-1.67 1.269-4.9 3.472-8.26 5.618a173.16 173.16 0 01-9.41 5.552c2.63-.505.58.425 4.76-1.015 1.3.125-2.45 1.541-3.59 1.865 0 0 2.35-.619 4.75-1.406 2.35-.619 4.76-1.405 4.76-1.405-.18-1.036 7.54-3.586 7.44-4.397l-10.66 4.672c-.18-1.036 6.77-5.243 13.51-7.411 1.64-.123-1.71 2.415-1.7 2.806.91-.606 6.64-2.98 7.21-2.946l-3.02 1.702c3.76-1.024 6.53-3.791 10.88-4.39 1.56-.543 4.43-.375 4.91-1.153-2.31-.33-2-4.072-.05-5.618.57-.162 8.1-2.015 9.82-2.109 2.43-.004-4.38 3.869-2.38 3.889.13-.334 1.68-1.269 2.31-1.598 1.57-.348-.89 1.193 2.72-.28.88-1.389 7.35-2.889 1.88-1.575 3.66-1.835 3.68-1.248 7.92-3.05-1.16-.263 4.24-3.926 7.9-5.762-.2.305.44.368.87.344 7.28-2.918 11.11-4.109 18.03-7.17.57.034 3.83-1.191 2.36-.032.99-.577 1.96-1.35 4.15-2.418 3.91-.771-4.73 2.189-1.8 1.995.41-.807 5.69-3.353 8.78-5.223-.74-.678-6.99 3.033-10.01 4.735.12-.725 1.51-1.913 3.89-3.482 2.31-1.598 5.54-3.606 9.13-5.471 5.78-2.932 2.29-.256 3.34-.804 10.73-4.84 9.59-6.64 18.37-9.934 3.34-.804-.16 1.676.49 1.934-4.71 2.58-7.07 2.808-10.24 4.453l3.83-1.387c-1.55.934-4.64 2.608-6.34 3.29 1.42-.405 6.01-2.455 11.16-4.863a408.752 408.752 0 0115.23-7.114c1.54-1.13 4.14-2.613 3-2.289l-2.67 1.454c-2.28.452 5.12-3.386 1.86-2.161 3.65-2.227 7.71-5.065 12.66-7.168l.8.511c-.08-.224-3.19 1.058-4.59 2.051 2.18-1.46 7.44-2.469 9.94-4.959l-3.4 1.167c3.64-2.423 8.19-5.647 12.57-7.587-1.87.037-1.05.744-3.98 1.133 2.51.026-11.34 5.756-7.21 5.071-2.99.361-5.51 2.264-9.49 3.202.08.225 1.36-.042-2.31 1.598-.14.139-.63.525-.84.635-.07-.029-.21.109-.21.109.07.029.07.029.21-.109-.14.138-.21.109.08.028.85-.243 1.55-.543 1.77-.457-2.02 1.713-7.87 4.616-9.9 5.937-2.19.873.98-.772-.17-.644l-3.08 2.065c-.16-.644-5.6 1.649-.4-1.317l-4.65 2.217c-2.63.896-6.37 2.507-8.76 3.881-2.19.872-5.62 3.381-3.66 2.031l-7.32 3.867v-.195c-7.13 3.17-14.99 7.982-22.8 10.112-2.4 1.178-5 2.661-8.9 4.019l-.65-.258c-3.1 1.478-9.06 3.179-10.59 4.505-2.96-.393-14.79 5.749-20.03 7.345l-.4 1.002c-3.61 1.278-7.27 3.114-11.87 4.968l.09.616c-4.08 2.055-9.99 3.197-16.22 5.371.49-.387 2.04-.93 3.11-1.087-3.5.356-7.45 2.077-11.4 3.798-3.89 1.554-7.64 3.166-10.84 3.637-1.77.848-2.9 1.172-4.05 1.301.22-.11.29-.081.43-.22-.21.11-.43.22-.64.134-.72.104-1.43.209-2.21.285.64.062 1.28-.071 1.85-.233-1.27.462-3.19 1.058-5.17 1.821l-.59-.621c-.21.109-.29.081-.5.19-1.78.262-1.62.906-.68 1.084-.99.381-1.91.791-2.61 1.287-1.17-.85-5.02 1.878-6.77.994-1.4.992-9.57 3.174-10.94 4.753-.01-.195-.58-.033.48-.386-2.06.342-4.06.714-6.1 1.644l-.6-.817-4.86 2.522c-2.65.114-3.66-.092-.77-1.461-6.92 2.866-5.46 1.706-11.39 4.19l.47-.778c-1.99.372-5.45 2.098-6.46 1.696-2.02-.216-7.57.875-13.91 2.041-3.13.499-6.55 1.08-9.76 1.551-3.28.442-6.43.746-9.15.83 1.64 1.61-4.95-.217-5.83 1.367-.51-.396-2.02-.412-.1-1.007-5.77 1.004-8.31.196-12.55 1.802-.52-.396 1.4-.796.89-.997-.49.191-1.91.596-2.42.395-.51-.201.92-.41 1.91-.791-5.79.612-6.74 1.972-7.55 3.39-2.67-.474-4.17-.294-6.57.884-.87-.344-2.39-.751 1.18-1.078-2 .175-11.97-.092-12.5 1.048-.58-.229-2.79.056-3.3.051-4.37.012-4.73-.132-9.17.048l1.09.234c-2.11 1.292-3.72.27-7.16.264l.14-.139c-7.57-1.25-3.64.495-11-1.06l.17.84c-1.24 1.636-6.5-1.407-11.22-1.147a370.585 370.585 0 011.45.574c-2.64.308-5.98-3.135-8.29-3.661-.51-.201.92-.214 1.64-.123-5.94-1.765-1.12.911-5.99.722-.67-.65 1.6-1.297-1.5-1.944-.73-.286-3.1-.254-5.89-.198-1.36.042-2.8-.14-4.16-.294-1.37-.153-2.6-.445-3.55-1.013.74.678 1.54 1.189-.68 1.083-3.32-.537-8.22-3.437-11.64-2.856-.36-.143-.44-.368-.45-.563-2.58-.25-8.21-1.313-9.92-1.022-.56-1.767-4.46-2.533-8.07-3.184-3.6-.651-6.86-1.55-6.32-2.69 0 0-1.88-.55-3.63-1.239-.87-.344-1.88-.549-2.53-.808-.66-.258-1.09-.43-1.09-.43l.35-.248c-4.52-1.973-6.38-2.132-8.25-2.095-1.02-.597-.15-.449-.02-.587-3.21-1.653-5.03-2.566-6.7-3.225-1.74-.689-3.4-.957-6.37-1.741l-.25-1.065c-.86-.148-3-1.763-5.85-3.468-1.39-.937-2.93-1.93-4.61-2.786-1.68-.855-3.29-1.877-4.89-2.508.07.029.29-.081.86-.047-3.64-1.63-7.61-4.549-10.86-7.376-3.32-2.66-6.32-4.619-8.17-4.19l-4.67-2.423c5.46 4.471-1.41.601.67 2.774-2.27-1.476-5.27-5.168-2.48-3.295l.3.506c.85-.439-.85-1.881-2.62-3.352-1.77-1.471-3.619-3.167-3.349-3.639-10.899-8.55-20.506-19.099-29.664-29.085l.51 2.325-3.205-3.582c-.687-1.237-.648-2.186 1.592.435-.926-1.91-4.136-3.563-4.347-3.453-2.101-2.76-1.454-2.698-.496-1.934.951.569 2.279 1.672 1.612 1.023 0 0-.45-.564-.965-.96-.449-.564-.965-.96-.965-.96l.311.702c-1.691-1.247-2.041-.999-4.73-4.184-1.579-2.168-.49-1.738-1.164-2.583 0 0-.158-.449-1.044-1.184l-1.942-2.312a36.07 36.07 0 00-1.877-2.478l1.032 2.917c-1.923-1.724-3.529-4.675-2.338-1.309-.47-1.151-1.468-3.089-2.968-5.033-1.361-2.082-3.159-4.336-4.745-6.699-3.311-4.589-6.542-8.953-7.164-10.357-2.53-2.737-4.652-6.084-7.302-10.219.542 1.179.385 2.855-1.823-.912 1.915-.596-3.557-7.582-4.569-12.036.562 1.766-1.031-.793-2.617-3.157-1.513-2.335-2.882-4.612-2.068-1.781-1.692-3.371.323-1.031-.709-3.948-1.136-1.8-2.346-3.629-3.423-5.792a54.709 54.709 0 01-3.458-6.77c-2.241-4.746-4.7-9.578-7.304-14.467-.212.109.43 2.1-.852.243l-1.938-6.364c-.998-1.939-1.599-.631-2.895-5.004.165.644.344 1.68-.343.444-2.255-5.137-4.378-10.609-6.771-15.608-1.163-2.583-2.261-5.333-3.425-7.916-1.097-2.75-2.261-5.333-3.359-8.082l-1.646-4.125-1.647-4.125c-1.098-2.75-2.057-5.639-3.154-8.389-2.196-5.5-4.048-11.443-5.966-17.22 1.038 3.113.324 1.093-.542-1.179.483 1.542-.139.138-.053.558l-1.601-4.879c-.469-1.151-.8-2.44-1.117-3.337-.318-.898-.483-1.542-.483-1.542-.701-1.628-3.44-10.432-3.764-11.525l.966 3.084c-1.29-4.177 1.641 6.054 1.409 5.576 1.449 4.626 3.521 12.78 6.14 20.185.489 1.737-.549-1.375-.298-.311.708 1.824 1.502 4.068 2.798 8.441l-.158-.449c2.063 5.834 3.432 10.236 4.947 14.695 1.376 4.597 3.102 8.947 5.41 15.65l-.119-1.399c.959 2.888 1.124 3.533 1.6 4.879 1.593 2.559-2.85-7.882-1.409-5.576.437 2.296 2.183 7.233 4.127 11.668 1.878 4.603 3.61 9.148 3.743 10.938 1.647 4.125-.133-1.79 1.587 2.363l.264 1.456.668.65c1.097 2.75 1.442 4.43 1.31 4.764-.238-.673-.846-1.685-1.157-2.387 1.277 3.786 4.271 9.601 4.675 10.919l-1.574-4.096c5.09 10.504 10.928 24.006 16.876 32.338l-.179-1.036c2.194 3.376 3.027 4.67 3.873 6.355.774 1.657 1.692 3.371 3.973 7.167l-.152-.253c1.116 1.213 2.471 3.099 3.76 5.152-1.414-1.523 1.864 4.211.008 2.32 5.101 6.647 2.616 3.157 6.461 6.605l.417 1.709c1.328 1.104 1.678.855 4.163 4.346-2.306-2.455 1.111 3.141-1.558.543 2.227 4.355 4.388 6.752 6.106 8.782 1.784 1.862 3.125 3.357 3.859 5.964 3.283 1.681-4.249-6.891-2.624-5.477-.86-2.077 2.701 1.453 4.287 3.816.899 1.127 1.309 2.641 2.09 4.493.78 1.852 2.003 4.073 4.243 6.694-.45-.563-.588-.425-.965-.96 1.513 2.335 3.627 3.363 5.313 6.538 1.664.464 2.689 3.185 3.732 2.245 0 0-.298-.31-.668-.649-.442-.368-.964-.96-1.486-1.552l-2.088-2.369c2.451 2.512 5.496 3.521 9.11 8.616-.436-.172-1.757-1.08-2.642-1.815.985 1.547 2.299 2.259 3.429 3.863-.904.801-5.345-5.392-8.35-7.35.925 1.909 5.384 4.442 3.377 4.421 2.733.307 4.479 5.244 8.277 7.322l-.554.554c.588.425 1.83 1.108 2.722 2.039l-2.246-.693c3.072 1.791 4.711 5.721 7.506 7.789-5.338-5.196-.787-2.048-2.677-4.918 1.763 1.276 2.807 2.46 3.481 3.305.747.874 1.13 1.605 1.514 2.335.839 1.49 1.62 3.342 5.524 6.428-1.104-.822-3.575-3.921-1.818-2.841 1.341 1.494 3.059 3.524 3.813 4.594 5.159 4.16-.41-1.514 2-.176 1.303 2.445 2.709 1.648 5.126 3.182l-.329.835c2.814 2.655 3.382 2.493 3.811 2.47.495-.191.851-.243 3.511 1.963l-2.817-.531 2.997 1.763-.99.381c3.42 1.544 4.24 2.446 7.12 4.935-.39-1.122 1.04-1.136 3.75.708 1.71 1.638-1.36.042 2.53 2.541-1.08-.039-2.3-.135-3.66-2.021-.28.081-1.07-.039-1.36.042 1.79 1.863 5 3.516 6.39 4.452-.51-.396-1.17-.85-1.47-1.16 0 0 1.52.602 2.98 1.371.8.316 1.53.602 2.11.832.58.229.95.373.95.373.74.873-.06.558-.85.438 1.17.655 2.17.665 3.86 1.716-.71.3-.97 1.164-3.44-.007l5.82 2.49c.23.478 2.45 2.512 1.65 2.197 1.4 1.132 3.5 1.768 5.61 2.599 2.1.832 4.42 1.554 6.4 2.915.29-.08.72.092 1.67.464 3.93 1.94 7.03 4.515 12.09 5.739l2.23 2.231c3.84 1.324-3.12-2.966 3.26-.834 4.57 1.415 1.28 1.662 2.67 2.598 2.38.359 6.82.376 10.56 2.817-2.02-.411-3.04-1.009-4.34-1.329zm48.77 11.725c-1-.01-3.14.304-3.73-.317 1.4-.797 2.07-.147 3.73.317zm79.92.271c-.85.243-2.07.343-3.29.051.93-.019 2.07-.147 3.29-.051zm243.61-81.066l-.14.139c-2.48.953-1.56.543.14-.139zm5.36-2.321c.56-.358.49-.387.35-.444-.42.415-1.62.906-2.96 1.535.29.115 1-.185 2.61-1.091zm-489.404-18.859l.463.955c-1.414-1.523-.906-1.323-.463-.955z" fill="#99D4FF"/><path d="M1131.07 807.174c-.24-.096-.2-.374-.26-.397-.44.411-.54.665.26.397zM1000.22 805.077l-.12-.047c-.06-.024-.222.205-.222.205l.342-.158zM1241.82 751.782c4.59-2.585 1.61-2.297 5.7-4.495 1.26-1.259-3.31 1.628-1.98.393-3.12 2.58-4.49 3.212-3.72 4.102z" fill="#99D4FF"/><path d="M1245.44 747.936c.5-.388 1.01-.776 1.61-1.418-.85.546-1.29.958-1.61 1.418zM898.87 478.595l-.316-4.523.15 2.992.166 1.531zM898.36 469.597l-.024-1.183-.19-2.713c.024 1.182.111 3.269.214 3.896zM1071.78 823.941l.32-.46c-.2-.373-.78-.311-1.85-.44l.78.311c.43.168.75.589.75.589zM1040.58 821.007l.58-.062-.4-1.628-.18 1.69zM1015.46 815.785c.97.382 2.23.583 3.13.942-2.16-.56-2.67-2.814-3.13-.942z" fill="#99D4FF"/></svg>