<svg width="1281" height="1567" viewBox="0 0 1281 1567" fill="none" xmlns="http://www.w3.org/2000/svg">
<path d="M128.352 312.524C2.70412 360.155 -34.6485 551.524 -49.6486 602.524C-64.6487 653.524 -91.6485 938.524 148.37 895.947C403.26 861.567 520.725 704.57 720.725 814.584C1062.74 1002.8 1557 924.003 1557 924.003L1557 684.003C1557 684.003 1455.26 704.877 1331.86 647.173C1187.29 579.493 1101.62 318.893 878.351 266.524C720.725 244.524 675.448 366.929 575.351 358.524C444.351 347.524 434.352 196.524 128.352 312.524Z" fill="#D8EEFE"/>
<path d="M569.17 584.907C530.056 707.618 348.352 687.523 347.352 785.523C346.755 844.055 120.137 786.795 1.99962 785.523C-33.1498 785.144 -115.648 847.001 -115.648 847.001C-115.648 847.001 -123.295 878.815 -115.648 584.907C-108 291 -115.647 323 -115.647 323C-115.647 323 -41.496 355.039 -22.6477 332.523C-4.12092 310.39 59.6024 316.898 80.9774 359.648C102.352 402.398 255.294 594.109 368.387 565.639C472.734 539.33 486.395 349.428 530.432 365.019C567.61 378.186 595.35 502.633 569.17 584.907Z" fill="#99D4FF"/>
<path d="M197.673 1000.28C306.686 1086.05 531.352 795.523 405.352 817.523C279.352 839.523 370.352 690.523 0.352577 791.523C-34.6039 824.352 3.79044 959.007 41.3007 985.523C93.4231 1022.39 127.163 944.825 197.673 1000.28Z" fill="white"/>
<path d="M1066.83 719.703L1065.65 719.503C1066.2 719.603 1066.55 719.703 1066.83 719.703Z" fill="#99D4FF"/>
<path d="M1075.39 722.103L1075.6 722.003C1075.25 722.003 1075.05 722.003 1075.39 722.103Z" fill="#99D4FF"/>
<path d="M1235.44 736.704C1233.72 736.304 1231.71 735.804 1231.99 736.204L1232.54 736.604C1233.72 736.504 1234.68 736.604 1235.44 736.704Z" fill="#99D4FF"/>
<path d="M1146.27 733.904C1146.4 734.004 1146.61 734.004 1146.75 734.104C1147.16 734.004 1147.58 733.904 1147.92 733.804C1147.44 733.804 1146.82 733.904 1146.27 733.904Z" fill="#99D4FF"/>
<path d="M1144.88 735.503L1142.6 734.903C1143.16 735.103 1143.85 735.303 1144.88 735.503Z" fill="#99D4FF"/>
<path d="M1020.41 704.304C1020.41 704.304 1020.06 704.304 1019.72 704.204C1019.37 704.204 1019.03 704.104 1019.03 704.104C1021.1 705.104 1020.27 704.504 1020.41 704.304Z" fill="#99D4FF"/>
<path d="M1070.83 716.103C1070.07 716.003 1069.8 716.003 1069.8 716.103C1070.56 716.203 1070.97 716.303 1070.83 716.103Z" fill="#99D4FF"/>
<path d="M863.81 601.504C863.741 601.404 863.603 601.204 863.534 601.104C863.465 601.204 863.603 601.304 863.81 601.504Z" fill="#99D4FF"/>
<path d="M824.229 556.704C824.644 557.104 825.266 557.904 825.818 558.504C825.611 558.204 825.127 557.604 824.229 556.704Z" fill="#99D4FF"/>
<path d="M945.252 664.403C945.183 664.303 945.113 664.303 945.044 664.203C943.939 663.803 944.423 664.003 945.252 664.403Z" fill="#99D4FF"/>
<path d="M1202.08 740.903C1203.81 740.403 1204.77 740.603 1206.09 740.703L1204.77 739.403L1202.08 740.903Z" fill="#99D4FF"/>
<path d="M1046.45 713.504L1049.14 714.804C1045.69 714.304 1043.27 713.304 1045.83 714.704C1046.45 713.504 1056.67 718.104 1057.23 716.904L1059.02 717.804C1058.47 717.604 1058.4 717.704 1057.92 717.504C1059.64 718.404 1060.33 718.404 1061.16 718.304C1061.99 718.204 1062.96 718.104 1065.24 718.904C1066.83 719.404 1067.93 720.004 1066.83 719.804L1070.49 720.504C1071.52 720.804 1071.25 721.004 1070.21 720.704L1075.67 722.104H1075.6C1076.43 722.104 1078.22 722.304 1079.12 722.404C1080.5 723.004 1078.43 722.304 1078.71 722.604L1081.75 723.104C1082.92 723.804 1080.37 723.404 1078.29 722.804C1080.99 724.904 1080.85 723.204 1086.86 725.404L1083.96 724.904C1085.75 726.104 1088.03 726.304 1091.21 727.604C1090.45 727.204 1084.86 724.904 1088.17 725.304C1089.07 725.604 1090.31 726.004 1092.11 726.104C1092.04 726.604 1093.84 726.904 1095.98 727.404L1095.77 728.004C1098.12 728.404 1097.98 728.004 1099.43 728.004C1102.06 728.704 1102.54 729.304 1103.09 729.804C1107.31 730.704 1100.26 728.504 1105.23 729.304C1108.69 730.204 1111.24 730.404 1115.46 730.904C1117.87 731.604 1114.97 731.204 1115.87 731.604L1118.08 731.504C1118.63 731.604 1118.43 731.704 1118.36 731.804C1120.22 732.004 1118.57 731.204 1121.47 731.604C1121.88 731.304 1123.33 731.904 1125.13 732.404C1126.92 732.904 1129.13 733.504 1130.93 733.404C1131.83 733.704 1130.45 733.704 1130.72 734.004C1135.7 734.204 1134.94 734.304 1139.01 734.204L1142.4 735.104C1139.91 734.204 1143.16 734.204 1145.99 734.104C1145.09 733.804 1144.33 733.504 1143.85 733.304C1143.85 733.304 1144.95 733.404 1146.13 733.404C1147.23 733.404 1148.41 733.504 1148.41 733.504C1148.96 733.704 1148.48 733.804 1147.72 734.004C1147.99 734.004 1148.34 734.004 1148.54 733.904C1150.13 734.304 1149.3 734.604 1148.13 734.804C1147.58 734.604 1147.02 734.404 1146.54 734.204C1145.44 734.504 1144.33 734.804 1144.54 735.204C1144.81 735.204 1145.44 735.204 1146.06 735.204C1145.78 735.304 1145.57 735.304 1145.71 735.404C1145.85 735.504 1146.33 735.404 1147.09 735.304L1148.06 736.104L1148.34 735.804L1154.21 736.904C1156.35 736.804 1158.35 736.604 1160.63 736.404C1162.91 736.304 1165.54 736.304 1168.92 736.404C1167.26 736.804 1168.51 737.204 1168.44 737.804C1166.64 737.004 1163.26 737.604 1159.73 737.004C1161.53 737.304 1161.12 737.504 1160.63 737.604C1160.63 737.604 1162.22 737.604 1163.74 737.704C1164.5 737.704 1165.33 737.704 1165.88 737.704C1166.44 737.704 1166.85 737.704 1166.85 737.704C1166.71 738.204 1168.16 738.204 1169.75 738.504C1168.58 737.404 1174.38 738.204 1176.94 738.104C1177.07 738.404 1176.45 738.704 1173.41 738.404C1176.8 739.404 1177.83 737.604 1181.15 738.504C1180.39 738.404 1179.97 738.404 1179.7 738.504C1181.49 738.304 1185.78 738.904 1184.74 739.104L1183.98 739.004C1186.47 739.304 1190.27 739.504 1193.58 739.504C1196.83 739.504 1199.59 739.404 1200.01 739.004C1200.08 739.104 1199.32 740.004 1199.04 740.204L1208.02 737.804C1207.19 738.504 1210.23 740.404 1206.09 740.604C1207.26 740.804 1208.78 741.004 1211.27 740.704C1210.44 740.604 1209.26 739.604 1210.37 739.604C1213.41 740.504 1212.51 740.104 1216.24 740.804C1215 740.604 1216.38 739.504 1218.31 739.604C1218.04 739.804 1218.45 740.704 1217.76 740.804L1222.59 739.804C1221.42 740.004 1222.39 740.704 1223.42 741.104C1222.94 740.904 1227.57 741.204 1228.88 741.104L1226.88 740.804C1228.26 740.904 1229.23 740.804 1230.06 740.704C1230.88 740.604 1231.57 740.304 1232.2 740.104C1233.51 739.704 1234.82 739.204 1237.52 739.204C1236.89 739.404 1235.93 740.604 1238.62 740.804C1239.86 740.204 1244.15 738.004 1248.91 737.504L1249.81 737.804C1249.81 737.804 1250.71 737.704 1251.61 737.604C1252.51 737.504 1253.4 737.304 1253.4 737.304C1251.12 738.304 1244.84 740.104 1241.31 740.904C1243.32 741.104 1241.87 741.304 1244.91 741.204C1246.01 741.504 1243.25 741.704 1242.35 741.704L1249.4 741.804C1249.26 741.504 1250.57 741.304 1251.95 741.104C1253.33 740.904 1254.65 740.704 1254.51 740.404C1254.51 740.404 1254.02 740.504 1253.33 740.604C1252.64 740.704 1251.68 740.804 1250.71 740.904C1248.77 741.104 1246.84 741.304 1246.84 741.304C1246.5 740.604 1251.26 739.404 1256.24 739.304C1257.48 739.504 1255.27 740.504 1255.41 740.804C1256.03 740.504 1260.17 740.204 1260.59 740.304L1258.45 740.704C1261.21 740.804 1263 739.604 1266.32 740.204C1267.49 740.204 1269.77 740.904 1269.98 740.504C1268.05 739.804 1267.63 737.404 1268.88 736.804C1269.08 736.804 1270.6 737.004 1272.26 737.104C1273.92 737.304 1275.65 737.404 1276.34 737.504C1278.27 738.004 1273.5 739.104 1275.16 739.504C1275.23 739.304 1276.27 739.004 1276.68 738.904C1277.93 739.004 1276.2 739.504 1278.82 739.304C1279.24 738.604 1284.21 739.004 1280.07 738.604C1282.62 738.204 1282.83 738.604 1285.8 738.304C1284.83 737.904 1288.49 736.604 1291.05 736.304C1290.91 736.504 1291.46 736.704 1291.74 736.804C1296.99 736.504 1299.89 736.504 1304.8 736.104C1305.28 736.204 1307.63 736.204 1306.66 736.604C1307.35 736.404 1307.97 736.104 1309.49 736.004C1312.46 736.304 1306.11 736.404 1308.39 736.904C1308.6 736.504 1312.26 736.004 1314.47 735.604C1313.78 735.004 1309.49 735.904 1307.28 736.304C1307.21 735.504 1310.94 734.304 1316.06 733.404C1320.13 732.804 1317.85 733.804 1318.54 733.604C1326.21 732.904 1324.97 731.404 1331.39 731.404C1333.95 731.704 1331.53 732.504 1332.15 732.804C1328.83 733.404 1327.04 733.004 1324.76 733.304H1327.52C1326.49 733.604 1324.28 734.004 1323.03 733.904C1324.07 734.004 1327.32 733.704 1331.05 733.304C1332.91 733.104 1334.84 732.904 1336.78 732.704C1338.64 732.504 1340.44 732.304 1341.96 732.304C1343 732.004 1344.79 731.604 1343.96 731.504L1342.1 731.804C1340.37 731.604 1345.55 730.804 1343.2 730.904C1345.69 730.304 1348.45 729.404 1352.04 729.204L1352.74 729.704C1352.67 729.504 1350.39 729.604 1349.42 729.904C1350.87 729.404 1354.88 730.004 1356.47 729.004L1353.98 728.904C1356.47 728.304 1359.57 727.204 1362.68 727.004C1361.23 726.604 1361.99 727.204 1359.71 726.804C1361.72 727.404 1351.7 727.804 1354.88 728.304C1352.53 727.804 1350.94 728.504 1347.9 728.104C1348.04 728.304 1349.01 728.404 1346.38 728.604C1346.24 728.704 1345.97 728.804 1345.83 728.904C1345.76 728.904 1345.69 728.904 1345.62 728.904C1345.69 728.904 1345.69 728.904 1345.76 728.904C1345.62 728.904 1345.62 729.004 1345.83 728.904C1346.45 728.904 1347 729.004 1347.21 729.004C1345.97 729.604 1341.75 730.104 1340.37 730.604C1338.78 730.704 1340.99 730.304 1340.16 730.204L1338.09 730.804C1337.88 730.404 1333.88 730.504 1337.54 729.904L1334.22 730.204C1332.29 730.204 1329.59 730.304 1327.94 730.704C1326.35 730.804 1324 731.604 1325.38 731.104L1320.2 731.904L1320.13 731.804C1318.82 731.904 1317.58 732.104 1316.26 732.304C1314.95 732.504 1313.64 732.604 1312.26 732.804C1309.56 733.104 1306.73 733.404 1303.76 733.204C1302.03 733.504 1300.24 733.804 1297.4 733.904L1296.85 733.604C1294.64 734.004 1290.22 733.704 1289.25 734.104C1286.84 733.204 1278.48 734.504 1274.61 734.604L1274.47 735.104C1271.78 735.204 1269.22 735.404 1265.91 735.804L1266.11 736.204C1263.28 736.704 1258.72 736.204 1254.16 736.404C1254.44 736.204 1255.61 736.204 1256.44 736.304C1250.99 735.604 1244.98 737.304 1240.07 736.604C1238.83 736.804 1237.93 736.704 1237.1 736.604C1237.24 736.604 1237.31 736.604 1237.38 736.604C1237.24 736.604 1237.03 736.604 1236.89 736.604C1236.34 736.504 1235.79 736.504 1235.17 736.404C1235.65 736.504 1236.2 736.604 1236.62 736.604C1235.65 736.604 1234.27 736.704 1232.82 736.804L1232.2 736.304C1232.06 736.304 1231.99 736.304 1231.85 736.304C1230.47 736.104 1230.75 736.504 1231.51 736.904C1230.81 737.004 1230.12 737.104 1229.64 737.204C1228.54 736.404 1225.98 737.404 1224.46 736.504C1223.49 736.904 1217.41 736.704 1216.65 737.504C1216.59 737.404 1216.17 737.304 1216.93 737.304C1215.34 737.204 1213.82 737.104 1212.37 737.304L1211.68 736.704L1208.23 737.504C1206.15 737.004 1205.33 736.804 1207.4 736.404C1202.42 736.904 1203.32 736.504 1199.11 737.004L1199.32 736.604C1197.8 736.504 1195.38 737.004 1194.48 736.604C1193.65 736.404 1192.2 736.204 1190.34 736.104C1189.37 736.004 1188.4 736.004 1187.3 735.904C1186.19 735.804 1185.02 735.704 1183.84 735.604C1179.01 735.204 1173.48 734.704 1169.13 734.004C1170.79 735.304 1165.12 733.204 1164.71 734.004C1164.22 733.704 1163.05 733.404 1164.43 733.304C1160.01 733.104 1157.8 732.104 1154.69 732.504C1154.21 732.204 1155.66 732.204 1155.24 732.004C1154.9 732.004 1153.79 732.104 1153.38 731.904C1152.97 731.704 1154.07 731.704 1154.76 731.704C1150.27 731.204 1149.72 732.004 1149.37 732.804C1147.09 732.104 1145.99 732.104 1144.26 732.404C1143.5 732.004 1142.19 731.504 1144.95 731.904C1143.36 731.604 1135.35 730.104 1135.14 730.704C1134.66 730.504 1132.93 730.304 1132.52 730.304C1129 729.704 1128.65 729.604 1125.2 729.104L1126.16 729.404C1125.47 729.704 1124.71 729.604 1123.82 729.404C1122.92 729.204 1121.88 728.904 1120.43 728.604L1120.5 728.504C1114.14 726.704 1117.74 728.204 1111.45 726.404L1111.73 726.904C1111.04 727.804 1106.2 725.204 1102.47 724.904C1102.47 724.904 1102.82 725.104 1103.09 725.204C1103.44 725.304 1103.71 725.504 1103.71 725.504C1101.64 725.504 1098.26 722.804 1096.32 722.304C1095.91 722.104 1097.01 722.304 1097.63 722.404C1092.45 720.604 1096.88 722.904 1092.94 722.104C1092.25 721.604 1093.97 721.504 1091.35 720.804C1090.73 720.504 1088.79 720.304 1086.58 720.104C1084.37 719.804 1081.89 719.404 1080.16 718.604C1080.92 719.104 1081.68 719.504 1079.81 719.204C1077.05 718.504 1072.49 716.204 1069.87 716.304C1069.52 716.104 1069.38 716.004 1069.38 716.004C1067.24 715.604 1062.47 714.404 1061.16 714.504C1059.44 712.204 1047.97 711.004 1048.25 709.604L1041.75 707.604L1041.96 707.504C1037.88 706.004 1036.36 705.704 1034.84 705.504C1033.95 705.004 1034.64 705.204 1034.71 705.104C1028.77 702.604 1028.14 702.404 1023.03 701.304L1022.62 700.604C1022.27 700.504 1021.58 700.304 1020.61 699.804C1019.65 699.304 1018.47 698.704 1017.16 698.104C1014.47 696.804 1011.29 695.304 1008.32 694.304C1008.39 694.304 1008.53 694.204 1009.01 694.404C1007.35 693.804 1005.56 693.104 1003.76 692.204C1002.86 691.804 1001.96 691.304 1001.07 690.904C1000.17 690.404 999.339 690.004 998.51 689.504C995.194 687.704 992.362 686.304 990.98 686.604L986.629 685.004C992.155 687.804 985.662 685.304 987.872 686.704C985.662 685.704 982.346 683.504 985.04 684.704L985.454 685.004C986.076 684.804 984.349 683.904 982.553 683.004C980.757 682.104 978.823 681.004 978.961 680.804C973.573 677.904 968.323 674.904 963.142 672.004C962.521 671.604 961.83 671.304 961.208 670.904C960.587 670.504 959.965 670.104 959.343 669.704C958.1 668.904 956.787 668.104 955.544 667.304C953.057 665.704 950.571 664.204 948.084 662.704L949.051 664.104L945.597 662.004C944.768 661.304 944.561 660.704 946.979 662.304C945.804 661.104 942.765 660.104 942.627 660.204C940.278 658.604 940.831 658.604 941.729 659.104C942.696 659.504 944.008 660.104 943.248 659.704C943.248 659.704 942.765 659.404 942.212 659.104C941.936 659.004 941.729 658.804 941.521 658.704C941.314 658.604 941.245 658.504 941.245 658.504L941.66 658.904C940.002 658.104 939.725 658.304 936.824 656.304C935.028 654.904 935.995 655.304 935.305 654.704C935.305 654.704 935.097 654.504 934.199 653.904L929.917 651.004L931.436 652.704C929.433 651.704 927.43 650.004 929.226 651.904C928.604 651.204 927.292 650.104 925.634 648.904C924.805 648.304 923.907 647.704 923.009 647.004C922.042 646.404 921.144 645.604 920.177 644.904C916.378 642.104 912.716 639.404 911.957 638.704C909.194 637.104 906.638 635.204 903.46 632.804C903.806 633.104 904.082 633.604 903.875 633.604C903.667 633.704 903.046 633.404 901.733 632.204C903.184 631.804 897.036 627.604 895.171 625.004C896.898 627.204 887.503 618.804 890.197 622.104C887.987 620.104 890.267 621.504 888.678 619.904C887.296 618.904 885.846 617.804 884.464 616.604C883.083 615.304 881.563 614.004 880.112 612.604C877.142 609.804 873.964 606.904 870.718 604.104C870.58 604.104 871.547 605.304 870.096 604.304L866.919 600.704C865.606 599.604 865.468 600.304 863.327 597.704C863.603 598.104 864.017 598.704 863.188 597.904C860.149 594.804 857.041 591.704 853.932 588.704C852.343 587.204 850.755 585.704 849.166 584.204C848.337 583.504 847.577 582.704 846.817 581.804L844.469 579.404C841.36 576.104 838.321 572.904 835.212 569.604C833.693 568.004 832.173 566.304 830.653 564.704C829.134 563.004 827.683 561.304 826.232 559.504C827.821 561.404 826.716 560.204 825.473 558.804C826.232 559.704 825.403 558.904 825.542 559.104L820.637 553.304C819.67 552.304 815.318 547.204 814.766 546.704L816.354 548.504C814.282 546.104 819.187 552.004 818.841 551.704C820.015 553.004 821.535 554.904 823.193 557.004C824.851 559.104 826.716 561.404 828.65 563.604C829.479 564.704 827.89 562.804 828.305 563.404C828.788 563.904 829.341 564.604 830.032 565.304C830.722 566.104 831.551 567.004 832.656 568.304L832.38 568.104C835.489 571.504 837.699 574.004 839.979 576.604C841.084 577.904 842.258 579.304 843.571 580.804C844.192 581.604 844.883 582.404 845.643 583.204C846.403 584.104 847.163 585.004 848.061 585.904L847.646 585.104C849.166 586.704 849.442 587.104 850.133 587.904C852.067 589.304 845.85 583.504 847.646 584.704C849.442 587.304 858.56 595.704 859.596 597.804C861.945 600.204 859.044 596.704 861.461 599.204L862.014 600.004L862.705 600.404C864.225 602.004 864.915 603.104 864.915 603.304C864.57 602.904 863.81 602.204 863.396 601.804C863.879 602.404 864.432 603.004 865.123 603.704C865.744 604.304 866.435 605.004 867.126 605.504C868.438 606.704 869.613 607.704 869.889 608.004L867.609 605.704C870.994 608.704 874.655 612.204 878.316 615.604C880.181 617.304 881.977 619.004 883.773 620.604C885.638 622.104 887.434 623.404 889.161 624.704L888.747 624.104C893.997 627.904 892.753 627.604 898.418 632.104L898.21 632.004C899.385 632.704 900.904 633.904 902.424 635.104C901.664 634.604 902.286 635.304 902.908 635.904C903.46 636.504 904.013 637.004 903.046 636.404C908.848 640.204 905.947 638.204 909.953 640.204L910.713 641.204C912.095 641.804 912.233 641.804 915.134 643.804C912.716 642.304 916.792 645.704 914.029 644.104C916.861 646.704 919.21 648.204 921.006 649.404C922.871 650.604 924.39 651.404 925.565 652.904C928.673 653.904 920.453 648.804 922.111 649.704C920.868 648.504 924.667 650.604 926.532 652.004C928.466 653.304 929.433 655.404 934.337 658.704C933.854 658.404 933.785 658.404 933.301 658.104C935.028 659.604 936.962 660.204 939.104 662.104C940.554 662.404 942.074 664.004 942.627 663.504C942.627 663.504 942.35 663.304 941.936 663.104C941.521 662.804 940.9 662.604 940.347 662.204C939.242 661.504 938.068 660.804 938.068 660.804C940.623 662.404 943.387 663.004 947.462 666.004C947.117 665.904 945.735 665.404 944.837 664.904C946.011 665.904 947.255 666.204 948.498 667.204C947.946 667.704 942.903 664.004 939.933 662.804C941.176 664.004 945.321 665.504 943.732 665.404C946.011 665.604 948.636 668.504 952.228 669.804L951.883 670.104C952.436 670.404 953.61 670.804 954.577 671.404L952.643 670.904C955.544 672.104 957.755 674.604 960.518 675.804C954.991 672.504 959.412 674.504 957.202 672.804C960.656 674.604 961.554 675.404 962.59 676.304C963.557 677.204 964.662 678.304 968.53 680.304C967.494 679.804 964.662 677.904 966.389 678.604C967.84 679.504 969.705 680.704 970.534 681.404C975.645 684.104 969.843 680.504 972.122 681.404C973.711 682.904 974.678 682.504 976.958 683.604L976.889 684.104C979.79 685.804 980.204 685.804 980.55 685.704C980.895 685.604 981.241 685.504 983.796 687.004L981.379 686.504L984.211 687.704L983.52 687.904C986.629 689.004 987.527 689.504 990.428 691.104C989.806 690.404 990.98 690.504 993.605 691.704C995.332 692.804 992.5 691.704 996.23 693.404C995.332 693.304 994.365 693.204 992.846 692.004C992.638 692.104 991.947 691.904 991.74 692.004C993.605 693.204 996.507 694.404 997.888 695.004C997.405 694.704 996.783 694.404 996.438 694.204C996.438 694.204 997.819 694.704 999.201 695.204C999.891 695.504 1000.58 695.604 1001.13 695.804C1001.69 696.004 1002.03 696.104 1002.03 696.104C1002.86 696.604 1002.17 696.504 1001.41 696.304C1002.52 696.704 1003.35 696.804 1004.93 697.504C1004.45 697.704 1004.45 698.104 1002.1 697.304L1007.35 699.104C1007.63 699.404 1009.91 700.704 1009.22 700.504C1012.05 701.904 1016.4 702.804 1020.13 704.704C1020.34 704.704 1020.75 704.804 1021.58 705.004C1025.17 706.404 1028.28 708.104 1032.63 709.204L1034.91 710.804C1038.3 711.904 1031.8 708.704 1037.4 710.504C1041.41 711.804 1038.78 711.604 1040.09 712.304C1042.1 712.604 1045.69 713.004 1049.21 714.804C1048.52 714.204 1047.55 713.804 1046.45 713.504ZM1088.17 725.204C1087.34 725.104 1085.68 725.004 1085.13 724.604C1086.17 724.304 1086.86 724.704 1088.17 725.204ZM1152.41 735.504C1151.79 735.604 1150.82 735.404 1149.79 735.104C1150.55 735.204 1151.45 735.304 1152.41 735.504ZM1331.94 731.004H1331.87C1330.01 731.004 1330.7 731.004 1331.94 731.004ZM1335.74 730.804C1336.09 730.704 1336.09 730.604 1335.95 730.604C1335.67 730.804 1334.84 730.804 1333.88 730.904C1334.15 731.004 1334.64 731.004 1335.74 730.804ZM935.235 654.304L935.857 654.904C934.268 654.004 934.752 654.204 935.235 654.304Z" fill="#99D4FF"/>
<path d="M1145.09 735.303C1144.88 735.203 1144.81 735.103 1144.75 735.003C1144.4 735.103 1144.4 735.203 1145.09 735.303Z" fill="#99D4FF"/>
<path d="M1020.68 704.404L1020.55 704.304C1020.48 704.304 1020.41 704.304 1020.41 704.304L1020.68 704.404Z" fill="#99D4FF"/>
<path d="M1277.03 739.904C1276.27 739.904 1275.78 739.804 1275.51 739.704C1275.44 739.904 1275.78 739.904 1277.03 739.904Z" fill="#99D4FF"/>
<path d="M1272.33 738.503L1273.09 738.403L1272.95 737.403L1272.33 738.503Z" fill="#99D4FF"/>
<path d="M1232.75 741.904C1236.27 742.104 1233.58 741.304 1236.76 741.504C1237.58 741.304 1234.13 741.304 1234.96 741.104C1232.89 741.404 1231.78 741.204 1232.75 741.904Z" fill="#99D4FF"/>
<path d="M1235.03 741.103C1235.37 741.103 1235.72 741.003 1236.13 740.903C1235.51 741.003 1235.24 741.003 1235.03 741.103Z" fill="#99D4FF"/>
<path d="M817.736 549.204L815.94 547.104L817.115 548.504L817.736 549.204Z" fill="#99D4FF"/>
<path d="M814.282 545.304L813.868 544.804L812.763 543.604C813.177 544.104 814.006 544.904 814.282 545.304Z" fill="#99D4FF"/>
<path d="M1094.32 727.904L1094.53 727.804C1094.18 727.604 1093.7 727.404 1092.59 727.104L1094.32 727.904Z" fill="#99D4FF"/>
<path d="M1063.93 719.504L1064.48 719.704L1063.58 718.804L1063.93 719.504Z" fill="#99D4FF"/>
<path d="M1038.51 712.104C1039.54 712.504 1040.79 712.804 1041.82 713.204C1040.72 712.904 1039.82 712.404 1039.27 712.104C1038.64 711.804 1038.44 711.704 1038.51 712.104Z" fill="#99D4FF"/>
<path d="M1177.41 567.104C1183.26 567.104 1188.01 562.358 1188.01 556.504C1188.01 550.65 1183.26 545.904 1177.41 545.904C1171.55 545.904 1166.81 550.65 1166.81 556.504C1166.81 562.358 1171.55 567.104 1177.41 567.104Z" fill="#15EEB5" fill-opacity="0.3"/>
<path d="M1224.01 567.104C1229.86 567.104 1234.61 562.358 1234.61 556.504C1234.61 550.65 1229.86 545.904 1224.01 545.904C1218.15 545.904 1213.41 550.65 1213.41 556.504C1213.41 562.358 1218.15 567.104 1224.01 567.104Z" fill="#15EEB5" fill-opacity="0.3"/>
<path d="M1130.81 567.104C1136.66 567.104 1141.41 562.358 1141.41 556.504C1141.41 550.65 1136.66 545.904 1130.81 545.904C1124.95 545.904 1120.21 550.65 1120.21 556.504C1120.21 562.358 1124.95 567.104 1130.81 567.104Z" fill="#15EEB5" fill-opacity="0.3"/>
<path d="M1177.41 614.304C1183.26 614.304 1188.01 609.558 1188.01 603.704C1188.01 597.85 1183.26 593.104 1177.41 593.104C1171.55 593.104 1166.81 597.85 1166.81 603.704C1166.81 609.558 1171.55 614.304 1177.41 614.304Z" fill="#15EEB5" fill-opacity="0.3"/>
<path d="M1224.01 614.304C1229.86 614.304 1234.61 609.558 1234.61 603.704C1234.61 597.85 1229.86 593.104 1224.01 593.104C1218.15 593.104 1213.41 597.85 1213.41 603.704C1213.41 609.558 1218.15 614.304 1224.01 614.304Z" fill="#15EEB5" fill-opacity="0.3"/>
<path d="M1130.81 614.304C1136.66 614.304 1141.41 609.558 1141.41 603.704C1141.41 597.85 1136.66 593.104 1130.81 593.104C1124.95 593.104 1120.21 597.85 1120.21 603.704C1120.21 609.558 1124.95 614.304 1130.81 614.304Z" fill="#15EEB5" fill-opacity="0.3"/>
<path d="M1037.61 567.704C1043.46 567.704 1048.21 562.958 1048.21 557.104C1048.21 551.25 1043.46 546.504 1037.61 546.504C1031.75 546.504 1027.01 551.25 1027.01 557.104C1027.01 562.958 1031.75 567.704 1037.61 567.704Z" fill="#15EEB5" fill-opacity="0.3"/>
<path d="M1084.21 567.704C1090.06 567.704 1094.81 562.958 1094.81 557.104C1094.81 551.25 1090.06 546.504 1084.21 546.504C1078.35 546.504 1073.61 551.25 1073.61 557.104C1073.61 562.958 1078.35 567.704 1084.21 567.704Z" fill="#15EEB5" fill-opacity="0.3"/>
<path d="M991.007 567.704C996.862 567.704 1001.61 562.958 1001.61 557.104C1001.61 551.25 996.862 546.504 991.007 546.504C985.153 546.504 980.407 551.25 980.407 557.104C980.407 562.958 985.153 567.704 991.007 567.704Z" fill="#15EEB5" fill-opacity="0.3"/>
<path d="M1037.61 614.904C1043.46 614.904 1048.21 610.158 1048.21 604.304C1048.21 598.449 1043.46 593.704 1037.61 593.704C1031.75 593.704 1027.01 598.449 1027.01 604.304C1027.01 610.158 1031.75 614.904 1037.61 614.904Z" fill="#15EEB5" fill-opacity="0.3"/>
<path d="M1084.21 614.904C1090.06 614.904 1094.81 610.158 1094.81 604.304C1094.81 598.449 1090.06 593.704 1084.21 593.704C1078.35 593.704 1073.61 598.449 1073.61 604.304C1073.61 610.158 1078.35 614.904 1084.21 614.904Z" fill="#15EEB5" fill-opacity="0.3"/>
<path d="M991.007 614.904C996.862 614.904 1001.61 610.158 1001.61 604.304C1001.61 598.449 996.862 593.704 991.007 593.704C985.153 593.704 980.407 598.449 980.407 604.304C980.407 610.158 985.153 614.904 991.007 614.904Z" fill="#15EEB5" fill-opacity="0.3"/>
<path d="M1177.41 661.504C1183.26 661.504 1188.01 656.758 1188.01 650.904C1188.01 645.049 1183.26 640.304 1177.41 640.304C1171.55 640.304 1166.81 645.049 1166.81 650.904C1166.81 656.758 1171.55 661.504 1177.41 661.504Z" fill="#15EEB5" fill-opacity="0.3"/>
<path d="M1224.01 661.504C1229.86 661.504 1234.61 656.758 1234.61 650.904C1234.61 645.049 1229.86 640.304 1224.01 640.304C1218.15 640.304 1213.41 645.049 1213.41 650.904C1213.41 656.758 1218.15 661.504 1224.01 661.504Z" fill="#15EEB5" fill-opacity="0.3"/>
<path d="M1130.81 661.504C1136.66 661.504 1141.41 656.758 1141.41 650.904C1141.41 645.049 1136.66 640.304 1130.81 640.304C1124.95 640.304 1120.21 645.049 1120.21 650.904C1120.21 656.758 1124.95 661.504 1130.81 661.504Z" fill="#15EEB5" fill-opacity="0.3"/>
<path d="M1177.41 708.804C1183.26 708.804 1188.01 704.058 1188.01 698.204C1188.01 692.349 1183.26 687.604 1177.41 687.604C1171.55 687.604 1166.81 692.349 1166.81 698.204C1166.81 704.058 1171.55 708.804 1177.41 708.804Z" fill="#15EEB5" fill-opacity="0.3"/>
<path d="M1224.01 708.804C1229.86 708.804 1234.61 704.058 1234.61 698.204C1234.61 692.349 1229.86 687.604 1224.01 687.604C1218.15 687.604 1213.41 692.349 1213.41 698.204C1213.41 704.058 1218.15 708.804 1224.01 708.804Z" fill="#15EEB5" fill-opacity="0.3"/>
<path d="M1130.81 708.804C1136.66 708.804 1141.41 704.058 1141.41 698.204C1141.41 692.349 1136.66 687.604 1130.81 687.604C1124.95 687.604 1120.21 692.349 1120.21 698.204C1120.21 704.058 1124.95 708.804 1130.81 708.804Z" fill="#15EEB5" fill-opacity="0.3"/>
<path d="M1037.61 663.804C1043.46 663.804 1048.21 659.058 1048.21 653.204C1048.21 647.35 1043.46 642.604 1037.61 642.604C1031.75 642.604 1027.01 647.35 1027.01 653.204C1027.01 659.058 1031.75 663.804 1037.61 663.804Z" fill="#15EEB5" fill-opacity="0.3"/>
<path d="M1084.21 663.804C1090.06 663.804 1094.81 659.058 1094.81 653.204C1094.81 647.35 1090.06 642.604 1084.21 642.604C1078.35 642.604 1073.61 647.35 1073.61 653.204C1073.61 659.058 1078.35 663.804 1084.21 663.804Z" fill="#15EEB5" fill-opacity="0.3"/>
<path d="M991.007 663.804C996.862 663.804 1001.61 659.058 1001.61 653.204C1001.61 647.35 996.862 642.604 991.007 642.604C985.153 642.604 980.407 647.35 980.407 653.204C980.407 659.058 985.153 663.804 991.007 663.804Z" fill="#15EEB5" fill-opacity="0.3"/>
<path d="M1037.61 711.004C1043.46 711.004 1048.21 706.258 1048.21 700.404C1048.21 694.55 1043.46 689.804 1037.61 689.804C1031.75 689.804 1027.01 694.55 1027.01 700.404C1027.01 706.258 1031.75 711.004 1037.61 711.004Z" fill="#15EEB5" fill-opacity="0.3"/>
<path d="M1084.21 711.004C1090.06 711.004 1094.81 706.258 1094.81 700.404C1094.81 694.55 1090.06 689.804 1084.21 689.804C1078.35 689.804 1073.61 694.55 1073.61 700.404C1073.61 706.258 1078.35 711.004 1084.21 711.004Z" fill="#15EEB5" fill-opacity="0.3"/>
<path d="M991.007 711.004C996.862 711.004 1001.61 706.258 1001.61 700.404C1001.61 694.55 996.862 689.804 991.007 689.804C985.153 689.804 980.407 694.55 980.407 700.404C980.407 706.258 985.153 711.004 991.007 711.004Z" fill="#15EEB5" fill-opacity="0.3"/>
<path d="M1044.09 819.754L1042.8 819.831C1043.38 819.768 1043.84 819.658 1044.09 819.754Z" fill="#99D4FF"/>
<path d="M1052.77 820.834L1053.15 820.398C1052.68 820.509 1052.46 820.714 1052.77 820.834Z" fill="#99D4FF"/>
<path d="M1249.36 736.582C1247.29 737.228 1245.13 737.549 1245.07 738.406L1245.41 739.129C1247.15 737.76 1248.33 737.056 1249.36 736.582Z" fill="#99D4FF"/>
<path d="M1133.6 802.895C1133.78 802.967 1133.9 803.015 1134.09 803.087C1134.75 802.469 1135.25 802.081 1135.86 801.44C1135.23 801.78 1134.45 802.349 1133.6 802.895Z" fill="#99D4FF"/>
<path d="M1130.65 807.887L1128.19 808.088C1128.71 808.002 1129.48 808.011 1130.65 807.887Z" fill="#99D4FF"/>
<path d="M999.878 805.235L998.305 805.493C1000.1 806.79 999.557 805.694 999.878 805.235Z" fill="#99D4FF"/>
<path d="M1051.9 808.472C1051.14 808.462 1050.63 808.85 1050.59 809.128C1051.46 808.883 1051.98 808.797 1051.9 808.472Z" fill="#99D4FF"/>
<path d="M905.76 599.189C905.739 598.888 905.718 598.586 905.757 598.308C905.596 598.538 905.678 598.864 905.76 599.189Z" fill="#99D4FF"/>
<path d="M899.727 495.94C899.85 496.868 899.855 498.63 900.021 500.161C899.919 499.534 899.874 498.051 899.727 495.94Z" fill="#99D4FF"/>
<path d="M944.631 734.751C944.571 734.727 944.61 734.45 944.55 734.426C943.72 733.512 944.044 733.933 944.631 734.751Z" fill="#99D4FF"/>
<path d="M1207.11 772.098C1207.18 772.122 1207.18 772.122 1207.34 771.892C1207.18 772.122 1207.11 772.098 1207.11 772.098Z" fill="#99D4FF"/>
<path d="M1201.5 776.037C1204.09 773.543 1205.34 772.863 1206.95 772.327L1206.16 770.254L1201.5 776.037Z" fill="#99D4FF"/>
<path d="M1068.4 834.169L1071.32 835.903C1067.16 835.61 1064.46 834.353 1067.1 836.168C1067.78 835.085 1070.83 836.094 1073.95 837.131C1076.99 838.14 1080.24 838.843 1080.85 837.927L1082.76 839.064C1082.17 838.835 1082.04 838.973 1081.45 838.744C1083.28 839.852 1084.28 839.667 1085.28 839.481C1086.35 839.324 1087.69 838.89 1090.3 839.727C1092.12 840.444 1093.29 841.099 1091.92 840.945L1096.24 841.491C1097.47 841.783 1096.98 842.17 1095.75 841.878C1095.75 841.878 1097.34 842.313 1099 842.581C1100.66 842.849 1102.32 843.118 1102.32 843.118L1102.24 843.089C1103.31 842.932 1105.53 842.842 1106.67 842.714C1108.2 843.316 1105.82 842.761 1106.05 843.239L1109.85 843.389C1111.1 844.268 1107.94 844.18 1105.49 843.597C1108.02 846.529 1108.64 843.684 1115.46 846.184L1111.95 845.953C1113.72 847.62 1116.52 847.564 1120.15 848.998C1119.34 848.487 1113.01 845.796 1117.24 845.727C1118.26 846.128 1119.77 846.339 1121.99 846.25C1121.73 847.113 1123.88 847.191 1126.55 847.469L1125.94 848.581C1128.88 848.583 1128.86 847.996 1130.71 847.763C1133.88 848.242 1134.2 849.139 1134.73 849.927C1139.83 850.397 1131.59 848.302 1137.76 848.616C1141.94 849.301 1145.02 849.164 1150.46 848.799C1153.41 849.192 1149.69 849.462 1150.71 849.864L1153.69 849.111C1154.34 849.174 1154.06 849.45 1153.85 849.56C1156.21 849.332 1154.38 848.419 1158.04 848.316C1159.29 847.267 1164.9 850.062 1169.8 848.714C1170.75 849.087 1169.04 849.377 1169.27 849.854C1175.69 848.913 1174.76 849.127 1180.16 847.784L1184.34 848.273C1181.44 847.517 1185.71 846.498 1189.54 845.502C1188.53 845.101 1187.66 844.952 1187.08 844.723L1193 843.776C1193.64 843.839 1192.94 844.335 1191.89 844.883C1192.31 844.664 1192.74 844.64 1193.02 844.559C1194.96 844.746 1193.7 845.6 1192.01 846.282C1191.43 846.052 1190.71 845.961 1190.12 845.732C1188.5 846.442 1186.96 847.377 1187.05 847.993C1187.47 847.773 1188.18 847.669 1188.97 847.593C1188.55 847.812 1188.26 847.893 1188.34 848.117C1188.49 848.175 1189.19 847.874 1190.26 847.522L1191.23 848.677L1191.71 848.095L1199.03 848.281C1201.93 847.304 1204.63 846.436 1207.81 845.378C1209.37 844.835 1211.08 844.349 1212.85 843.892C1214.63 843.434 1216.69 842.896 1218.83 842.582C1216.43 843.76 1217.95 844.166 1217.55 845.169C1216.54 844.767 1214.83 845.057 1212.77 845.596C1210.77 845.967 1208.5 846.615 1206.28 846.704C1208.57 846.644 1207.95 847.168 1207.31 847.302C1207.31 847.302 1209.37 846.763 1211.43 846.421C1212.43 846.235 1213.49 845.882 1214.28 845.807C1215.06 845.535 1215.56 845.54 1215.56 845.54C1215.16 846.346 1217.08 845.946 1219.09 845.967C1218.03 844.391 1225.4 844.018 1228.87 842.879C1228.89 843.466 1227.91 844.238 1223.98 844.618C1228.02 845.246 1230.26 841.691 1234.29 842.122C1233.29 842.308 1232.79 842.303 1232.3 842.689C1234.78 841.736 1240.28 841.204 1238.8 841.972L1237.8 842.158C1241.01 841.687 1246.06 840.592 1250.4 839.601C1254.74 838.611 1258.56 837.224 1259.18 836.503C1259.19 836.699 1257.81 838.474 1257.4 838.889C1257.4 838.889 1260.63 837.077 1263.93 835.097C1267.17 833.285 1270.47 831.306 1270.47 831.306C1269.16 832.718 1272.38 834.763 1266.71 836.774C1268.21 836.594 1270.21 836.222 1273.61 835.055C1272.54 835.212 1271.35 833.97 1272.91 833.427C1276.64 833.744 1275.56 833.509 1280.22 833.416C1278.64 833.568 1280.93 831.188 1283.48 830.459C1282.99 830.845 1283.26 832.301 1282.27 832.682L1289.17 829.034C1287.54 829.745 1288.51 830.705 1289.8 830.829C1289.22 830.6 1295.34 829.348 1297.18 828.528L1294.54 828.837C1301.78 826.869 1302.4 824.025 1309.57 822.028C1308.66 822.634 1306.81 825.187 1310.5 824.134C1312.45 822.588 1319.07 817.093 1325.64 814.28L1326.79 814.348L1331.87 812.107C1330.2 813.376 1326.97 815.579 1323.61 817.725C1320.24 819.872 1316.66 821.932 1314.2 823.277C1316.83 822.772 1314.78 823.702 1318.96 822.262C1320.26 822.387 1316.51 823.803 1315.37 824.127C1315.37 824.127 1317.72 823.508 1320.12 822.721C1322.47 822.102 1324.88 821.316 1324.88 821.316C1324.7 820.28 1332.42 817.73 1332.32 816.919L1321.66 821.591C1321.48 820.555 1328.43 816.348 1335.17 814.18C1336.81 814.057 1333.46 816.595 1333.47 816.986C1334.38 816.38 1340.11 814.006 1340.68 814.04L1337.66 815.742C1341.42 814.718 1344.19 811.951 1348.54 811.352C1350.1 810.809 1352.97 810.977 1353.45 810.199C1351.14 809.869 1351.45 806.127 1353.4 804.581C1353.97 804.419 1361.5 802.566 1363.22 802.472C1365.65 802.468 1358.84 806.341 1360.84 806.361C1360.97 806.027 1362.52 805.092 1363.15 804.763C1364.72 804.415 1362.26 805.956 1365.87 804.483C1366.75 803.094 1373.22 801.594 1367.75 802.908C1371.41 801.073 1371.43 801.66 1375.67 799.858C1374.51 799.595 1379.91 795.932 1383.57 794.096C1383.37 794.401 1384.01 794.464 1384.44 794.44C1391.72 791.522 1395.55 790.331 1402.47 787.27C1403.04 787.304 1406.3 786.079 1404.83 787.238C1405.82 786.661 1406.79 785.888 1408.98 784.82C1412.89 784.049 1404.25 787.009 1407.18 786.815C1407.59 786.008 1412.87 783.462 1415.96 781.592C1415.22 780.914 1408.97 784.625 1405.95 786.327C1406.07 785.602 1407.46 784.414 1409.84 782.845C1412.15 781.247 1415.38 779.239 1418.97 777.374C1424.75 774.442 1421.26 777.118 1422.31 776.57C1433.04 771.73 1431.9 769.93 1440.68 766.636C1444.02 765.832 1440.52 768.312 1441.17 768.57C1436.46 771.15 1434.1 771.378 1430.93 773.023L1434.76 771.636C1433.21 772.57 1430.12 774.244 1428.42 774.926C1429.84 774.521 1434.43 772.471 1439.58 770.063C1444.79 767.488 1450.65 764.78 1454.81 762.949C1456.35 761.819 1458.95 760.336 1457.81 760.66L1455.14 762.114C1452.86 762.566 1460.26 758.728 1457 759.953C1460.65 757.726 1464.71 754.888 1469.66 752.785L1470.46 753.296C1470.38 753.072 1467.27 754.354 1465.87 755.347C1468.05 753.887 1473.31 752.878 1475.81 750.388L1472.41 751.555C1476.05 749.132 1480.6 745.908 1484.98 743.968C1483.11 744.005 1483.93 744.712 1481 745.101C1483.51 745.127 1469.66 750.857 1473.79 750.172C1470.8 750.533 1468.28 752.436 1464.3 753.374C1464.38 753.599 1465.66 753.332 1461.99 754.972C1461.85 755.111 1461.36 755.497 1461.15 755.607C1461.08 755.578 1460.94 755.716 1460.94 755.716C1461.01 755.745 1461.01 755.745 1461.15 755.607C1461.01 755.745 1460.94 755.716 1461.23 755.635C1462.08 755.392 1462.78 755.092 1463 755.178C1460.98 756.891 1455.13 759.794 1453.1 761.115C1450.91 761.988 1454.08 760.343 1452.93 760.471L1449.85 762.536C1449.69 761.892 1444.25 764.185 1449.45 761.219L1444.8 763.436C1442.17 764.332 1438.43 765.943 1436.04 767.317C1433.85 768.189 1430.42 770.698 1432.38 769.348L1425.06 773.215L1425.06 773.02C1417.93 776.19 1410.07 781.002 1402.26 783.132C1399.86 784.31 1397.26 785.793 1393.36 787.151L1392.71 786.893C1389.61 788.371 1383.65 790.072 1382.12 791.398C1379.16 791.005 1367.33 797.147 1362.09 798.743L1361.69 799.745C1358.08 801.023 1354.42 802.859 1349.82 804.713L1349.91 805.329C1345.83 807.384 1339.92 808.526 1333.69 810.7C1334.18 810.313 1335.73 809.77 1336.8 809.613C1333.3 809.969 1329.35 811.69 1325.4 813.411C1321.51 814.965 1317.76 816.577 1314.56 817.048C1312.79 817.896 1311.66 818.22 1310.51 818.349C1310.73 818.239 1310.8 818.268 1310.94 818.129C1310.73 818.239 1310.51 818.349 1310.3 818.263C1309.58 818.367 1308.87 818.472 1308.09 818.548C1308.73 818.61 1309.37 818.477 1309.94 818.315C1308.67 818.777 1306.75 819.373 1304.77 820.136L1304.18 819.515C1303.97 819.624 1303.89 819.596 1303.68 819.705C1301.9 819.967 1302.06 820.611 1303 820.789C1302.01 821.17 1301.09 821.58 1300.39 822.076C1299.22 821.226 1295.37 823.954 1293.62 823.07C1292.22 824.062 1284.05 826.244 1282.68 827.823C1282.67 827.628 1282.1 827.79 1283.16 827.437C1281.1 827.779 1279.1 828.151 1277.06 829.081L1276.46 828.264L1271.6 830.786C1268.95 830.9 1267.94 830.694 1270.83 829.325C1263.91 832.191 1265.37 831.031 1259.44 833.515L1259.91 832.737C1257.92 833.109 1254.46 834.835 1253.45 834.433C1251.43 834.217 1245.88 835.308 1239.54 836.474C1236.41 836.973 1232.99 837.554 1229.78 838.025C1226.5 838.467 1223.35 838.771 1220.63 838.855C1222.27 840.465 1215.68 838.638 1214.8 840.222C1214.29 839.826 1212.78 839.81 1214.7 839.215C1208.93 840.219 1206.39 839.411 1202.15 841.017C1201.63 840.621 1203.55 840.221 1203.04 840.02C1202.55 840.211 1201.13 840.616 1200.62 840.415C1200.11 840.214 1201.54 840.005 1202.53 839.624C1196.74 840.236 1195.79 841.596 1194.98 843.014C1192.31 842.54 1190.81 842.72 1188.41 843.898C1187.54 843.554 1186.02 843.147 1189.59 842.82C1187.59 842.995 1177.62 842.728 1177.09 843.868C1176.51 843.639 1174.3 843.924 1173.79 843.919C1169.42 843.931 1169.06 843.787 1164.62 843.967L1165.71 844.201C1163.6 845.493 1161.99 844.471 1158.55 844.465L1158.69 844.326C1151.12 843.076 1155.05 844.821 1147.69 843.266L1147.86 844.106C1146.62 845.742 1141.36 842.699 1136.64 842.959C1136.64 842.959 1137 843.102 1137.37 843.246C1137.73 843.389 1138.09 843.533 1138.09 843.533C1135.45 843.841 1132.11 840.398 1129.8 839.872C1129.29 839.671 1130.72 839.658 1131.44 839.749C1125.5 837.984 1130.32 840.66 1125.45 840.471C1124.78 839.821 1127.05 839.174 1123.95 838.527C1123.22 838.241 1120.85 838.273 1118.06 838.329C1116.7 838.371 1115.26 838.189 1113.9 838.035C1112.53 837.882 1111.3 837.59 1110.35 837.022C1111.09 837.7 1111.89 838.211 1109.67 838.105C1106.35 837.568 1101.45 834.668 1098.03 835.249C1097.67 835.106 1097.59 834.881 1097.58 834.686C1095 834.436 1089.37 833.373 1087.66 833.664C1087.1 831.897 1083.2 831.131 1079.59 830.48C1075.99 829.829 1072.73 828.93 1073.27 827.79C1073.27 827.79 1071.39 827.24 1069.64 826.551C1068.77 826.207 1067.76 826.002 1067.11 825.743C1066.45 825.485 1066.02 825.313 1066.02 825.313L1066.37 825.065C1061.85 823.092 1059.99 822.933 1058.12 822.97C1057.1 822.373 1057.97 822.521 1058.1 822.383C1054.89 820.73 1053.07 819.817 1051.4 819.158C1049.66 818.469 1048 818.201 1045.03 817.417L1044.78 816.352C1043.92 816.204 1041.78 814.589 1038.93 812.884C1037.54 811.947 1036 810.954 1034.32 810.098C1032.64 809.243 1031.03 808.221 1029.43 807.59C1029.5 807.619 1029.72 807.509 1030.29 807.543C1026.65 805.913 1022.68 802.994 1019.43 800.167C1016.11 797.507 1013.11 795.548 1011.26 795.977L1006.59 793.554C1012.05 798.025 1005.18 794.155 1007.26 796.328C1004.99 794.852 1001.99 791.16 1004.78 793.033L1005.08 793.539C1005.93 793.1 1004.23 791.658 1002.46 790.187C1000.69 788.716 998.841 787.02 999.111 786.548C988.212 777.998 978.605 767.449 969.447 757.463L969.957 759.788L966.752 756.206C966.065 754.969 966.104 754.02 968.344 756.641C967.418 754.731 964.208 753.078 963.997 753.188C961.896 750.428 962.543 750.49 963.501 751.254C964.452 751.823 965.78 752.926 965.113 752.277C965.113 752.277 964.663 751.713 964.148 751.317C963.699 750.753 963.183 750.357 963.183 750.357L963.494 751.059C961.803 749.812 961.453 750.06 958.764 746.875C957.185 744.707 958.274 745.137 957.6 744.292C957.6 744.292 957.442 743.843 956.556 743.108C956.556 743.108 955.585 741.952 954.614 740.796C953.708 739.474 952.737 738.318 952.737 738.318L953.769 741.235C951.846 739.511 950.24 736.56 951.431 739.926C950.961 738.775 949.963 736.837 948.463 734.893C947.102 732.811 945.304 730.557 943.718 728.194C940.407 723.605 937.176 719.241 936.554 717.837C934.024 715.1 931.902 711.753 929.252 707.618C929.794 708.797 929.637 710.473 927.429 706.706C929.344 706.11 923.872 699.124 922.86 694.67C923.422 696.436 921.829 693.877 920.243 691.513C918.73 689.178 917.361 686.901 918.175 689.732C916.483 686.361 918.498 688.701 917.466 685.784C916.33 683.984 915.12 682.155 914.043 679.992C912.827 677.967 911.676 675.776 910.585 673.222C908.344 668.476 905.885 663.644 903.281 658.755C903.069 658.864 903.711 660.855 902.429 658.998L900.491 652.634C899.493 650.695 898.892 652.003 897.596 647.63C897.761 648.274 897.94 649.31 897.253 648.074C894.998 642.937 892.875 637.465 890.482 632.466C889.319 629.883 888.221 627.133 887.057 624.55C885.96 621.8 884.796 619.217 883.698 616.468L882.052 612.343L880.405 608.218C879.307 605.468 878.348 602.579 877.251 599.829C875.055 594.329 873.203 588.386 871.285 582.609C872.323 585.722 871.609 583.702 870.743 581.43C871.226 582.972 870.604 581.568 870.69 581.988C870.69 581.988 869.89 579.548 869.089 577.109C868.62 575.958 868.289 574.669 867.972 573.772C867.654 572.874 867.489 572.23 867.489 572.23C866.788 570.602 864.049 561.798 863.725 560.705L864.691 563.789C863.401 559.612 866.332 569.843 866.1 569.365C867.549 573.991 869.621 582.145 872.24 589.55C872.729 591.287 871.691 588.175 871.942 589.239C872.65 591.063 873.444 593.307 874.74 597.68L874.582 597.231C876.645 603.065 878.014 607.467 879.529 611.926C880.905 616.523 882.631 620.873 884.939 627.576L884.82 626.177C885.779 629.065 885.944 629.71 886.42 631.056C888.013 633.615 883.57 623.174 885.011 625.48C885.448 627.776 887.194 632.713 889.138 637.148C891.016 641.751 892.748 646.296 892.881 648.086C894.528 652.211 892.748 646.296 894.468 650.449L894.732 651.905L895.4 652.555C896.497 655.305 896.842 656.985 896.71 657.319C896.472 656.646 895.864 655.634 895.553 654.932C896.83 658.718 899.824 664.533 900.228 665.851L898.654 661.755C903.744 672.259 909.582 685.761 915.53 694.093L915.351 693.057C917.545 696.433 918.378 697.727 919.224 699.412C919.998 701.069 920.916 702.783 923.197 706.579L923.045 706.326C924.161 707.539 925.516 709.425 926.805 711.478C925.391 709.955 928.669 715.689 926.813 713.798C931.914 720.445 929.429 716.955 933.274 720.403L933.691 722.112C935.019 723.216 935.369 722.967 937.854 726.458C935.548 724.003 938.965 729.599 936.296 727.001C938.523 731.356 940.684 733.753 942.402 735.783C944.186 737.645 945.527 739.14 946.261 741.747C949.544 743.428 942.012 734.856 943.637 736.27C942.777 734.193 946.338 737.723 947.924 740.086C948.823 741.213 949.233 742.727 950.014 744.579C950.794 746.431 952.017 748.652 954.257 751.273C953.807 750.71 953.669 750.848 953.292 750.313C954.805 752.648 956.919 753.676 958.605 756.851C960.269 757.315 961.294 760.036 962.337 759.096C962.337 759.096 962.039 758.786 961.669 758.447C961.227 758.079 960.705 757.487 960.183 756.895C959.139 755.71 958.095 754.526 958.095 754.526C960.546 757.038 963.591 758.047 967.205 763.142C966.769 762.97 965.448 762.062 964.563 761.327C965.548 762.874 966.862 763.586 967.992 765.19C967.088 765.991 962.647 759.798 959.642 757.84C960.567 759.749 965.026 762.282 963.019 762.261C965.752 762.568 967.498 767.505 971.296 769.583L970.742 770.137C971.33 770.562 972.572 771.245 973.464 772.176L971.218 771.483C974.29 773.274 975.929 777.204 978.724 779.272C973.386 774.076 977.937 777.224 976.047 774.354C977.81 775.63 978.854 776.814 979.528 777.659C980.275 778.533 980.658 779.264 981.042 779.994C981.881 781.484 982.662 783.336 986.566 786.422C985.462 785.6 982.991 782.501 984.748 783.581C986.089 785.075 987.807 787.105 988.561 788.175C993.72 792.335 988.151 786.661 990.561 787.999C991.864 790.444 993.27 789.647 995.687 791.181L995.358 792.016C998.172 794.671 998.74 794.509 999.169 794.486C999.664 794.295 1000.02 794.243 1002.68 796.449L999.863 795.918L1002.86 797.681L1001.87 798.062C1005.29 799.606 1006.11 800.508 1008.99 802.997C1008.6 801.875 1010.03 801.861 1012.74 803.705C1014.45 805.343 1011.38 803.747 1015.27 806.246C1014.19 806.207 1012.97 806.111 1011.61 804.225C1011.33 804.306 1010.54 804.186 1010.25 804.267C1012.04 806.13 1015.25 807.783 1016.64 808.719C1016.13 808.323 1015.47 807.869 1015.17 807.559C1015.17 807.559 1016.69 808.161 1018.15 808.93C1018.95 809.246 1019.68 809.532 1020.26 809.762C1020.84 809.991 1021.21 810.135 1021.21 810.135C1021.95 811.008 1021.15 810.693 1020.36 810.573C1021.53 811.228 1022.53 811.238 1024.22 812.289C1023.51 812.589 1023.25 813.453 1020.78 812.282L1026.6 814.772C1026.83 815.25 1029.05 817.284 1028.25 816.969C1029.65 818.101 1031.75 818.737 1033.86 819.568C1035.96 820.4 1038.28 821.122 1040.26 822.483C1040.55 822.403 1040.98 822.575 1041.93 822.947C1045.86 824.887 1048.96 827.462 1054.02 828.686L1056.25 830.917C1060.09 832.241 1053.13 827.951 1059.51 830.083C1064.08 831.498 1060.79 831.745 1062.18 832.681C1064.56 833.04 1069 833.057 1072.74 835.498C1070.72 835.087 1069.7 834.489 1068.4 834.169ZM1117.17 845.894C1116.17 845.884 1114.03 846.198 1113.44 845.577C1114.84 844.78 1115.51 845.43 1117.17 845.894ZM1197.09 846.165C1196.24 846.408 1195.02 846.508 1193.8 846.216C1194.73 846.197 1195.87 846.069 1197.09 846.165ZM1440.7 765.099L1440.56 765.238C1438.08 766.191 1439 765.781 1440.7 765.099ZM1446.06 762.778C1446.62 762.42 1446.55 762.391 1446.41 762.334C1445.99 762.749 1444.79 763.24 1443.45 763.869C1443.74 763.984 1444.45 763.684 1446.06 762.778ZM956.656 743.919L957.119 744.874C955.705 743.351 956.213 743.551 956.656 743.919Z" fill="#99D4FF"/>
<path d="M1131.07 807.174C1130.83 807.078 1130.87 806.8 1130.81 806.777C1130.37 807.188 1130.27 807.442 1131.07 807.174Z" fill="#99D4FF"/>
<path d="M1000.22 805.077L1000.1 805.03C1000.04 805.006 999.878 805.235 999.878 805.235L1000.22 805.077Z" fill="#99D4FF"/>
<path d="M1241.82 751.782C1246.41 749.197 1243.43 749.485 1247.52 747.287C1248.78 746.028 1244.21 748.915 1245.54 747.68C1242.42 750.26 1241.05 750.892 1241.82 751.782Z" fill="#99D4FF"/>
<path d="M1245.44 747.936C1245.94 747.548 1246.45 747.16 1247.05 746.518C1246.2 747.064 1245.76 747.476 1245.44 747.936Z" fill="#99D4FF"/>
<path d="M898.87 478.595L898.554 474.072L898.704 477.064L898.87 478.595Z" fill="#99D4FF"/>
<path d="M898.36 469.597L898.336 468.414L898.146 465.701C898.17 466.883 898.257 468.97 898.36 469.597Z" fill="#99D4FF"/>
<path d="M1071.78 823.941L1072.1 823.481C1071.9 823.108 1071.32 823.17 1070.25 823.041C1070.25 823.041 1070.67 823.209 1071.03 823.352C1071.46 823.52 1071.78 823.941 1071.78 823.941Z" fill="#99D4FF"/>
<path d="M1040.58 821.007L1041.16 820.945L1040.76 819.317L1040.58 821.007Z" fill="#99D4FF"/>
<path d="M1015.46 815.785C1016.43 816.167 1017.69 816.368 1018.59 816.727C1016.43 816.167 1015.92 813.913 1015.46 815.785Z" fill="#99D4FF"/>
</svg>
