<svg width="2294" height="1959" viewBox="0 0 2294 1959" fill="none" xmlns="http://www.w3.org/2000/svg">
<path d="M617.353 704.524C491.705 752.155 454.353 943.524 439.352 994.524C424.352 1045.52 397.352 1330.52 637.371 1287.95C892.261 1253.57 1009.73 1096.57 1209.73 1206.58C1551.74 1394.8 2046 1316 2046 1316L2046 1076C2046 1076 1944.26 1096.88 1820.86 1039.17C1676.29 971.493 1590.62 710.893 1367.35 658.524C1209.73 636.524 1164.45 758.929 1064.35 750.524C933.352 739.524 923.353 588.524 617.353 704.524Z" fill="#D8EEFE"/>
<path d="M1062.17 976.908C1023.06 1099.62 841.353 1079.52 840.353 1177.52C839.756 1236.06 613.138 1178.8 495.001 1177.52C459.851 1177.14 377.353 1239 377.353 1239C377.353 1239 369.706 1270.82 377.353 976.908C385.001 683 377.354 715 377.354 715C377.354 715 451.505 747.04 470.353 724.523C488.88 702.39 552.603 708.899 573.978 751.648C595.353 794.398 748.295 986.11 861.388 957.639C965.735 931.33 979.396 741.429 1023.43 757.019C1060.61 770.187 1088.35 894.634 1062.17 976.908Z" fill="#99D4FF"/>
<path d="M690.674 1392.28C799.686 1478.05 1024.35 1187.52 898.353 1209.52C772.353 1231.52 863.353 1082.52 493.354 1183.52C458.397 1216.35 496.791 1351.01 534.302 1377.52C586.424 1414.39 620.164 1336.83 690.674 1392.28Z" fill="white"/>
<path d="M1958.47 1103.4C1959.3 1103.3 1959.16 1103.3 1959.3 1103.3C1957.64 1103.6 1958.54 1103.4 1958.47 1103.4Z" fill="#99D4FF"/>
<path d="M1941.89 1106.4L1942.24 1106.3L1939.75 1106.9L1941.89 1106.4Z" fill="#99D4FF"/>
<path d="M1926.42 1109.1C1927.94 1109.1 1932.01 1108.1 1934.78 1107.7H1935.26L1936.5 1107.3C1933.12 1107.9 1928.77 1108.8 1926.42 1109.1Z" fill="#99D4FF"/>
<path d="M1918.06 1109.7C1918.61 1109.8 1916.26 1110.1 1919.99 1109.4C1919.79 1109.4 1919.72 1109.4 1919.65 1109.4C1919.3 1109.6 1918.89 1109.6 1918.06 1109.7Z" fill="#99D4FF"/>
<path d="M1919.65 1109.5C1921.31 1109.2 1918.54 1109.6 1919.65 1109.5V1109.5Z" fill="#99D4FF"/>
<path d="M1912.12 1110.7L1914.26 1110.3C1913.78 1110.3 1911.91 1110.5 1912.6 1110.3C1910.39 1110.7 1910.81 1110.7 1912.12 1110.7Z" fill="#99D4FF"/>
<path d="M1910.12 1111.3L1911.22 1111.1C1911.01 1111.1 1910.67 1111.1 1910.12 1111.3Z" fill="#99D4FF"/>
<path d="M1913.57 1110.6L1911.22 1111.1C1911.57 1111.1 1911.57 1111.3 1912.33 1110.9C1912.12 1111 1912.53 1110.8 1913.57 1110.6Z" fill="#99D4FF"/>
<path d="M1914.88 1110.5C1916.12 1110.4 1917.64 1110.2 1915.5 1110.7C1919.65 1109.9 1919.03 1109.8 1914.88 1110.5Z" fill="#99D4FF"/>
<path d="M1925.66 1109.6L1927.25 1109.4L1928.63 1109.1C1927.94 1109.2 1925.52 1109.5 1925.66 1109.6Z" fill="#99D4FF"/>
<path d="M1898.65 1112.4C1898.51 1112.5 1899.41 1112.6 1899.55 1112.7L1901.13 1112.3C1900.31 1112.4 1898.79 1112.5 1898.65 1112.4Z" fill="#99D4FF"/>
<path d="M1899.55 1112.7L1897.2 1113.2C1899.34 1112.9 1899.68 1112.8 1899.55 1112.7Z" fill="#99D4FF"/>
<path d="M1909.77 1111.9L1913.64 1110.9L1909.01 1112L1909.77 1111.9Z" fill="#99D4FF"/>
<path d="M1889.53 1113.6L1890.84 1113.1L1888.49 1113.8L1889.53 1113.6Z" fill="#99D4FF"/>
<path d="M1883.52 1114.4C1884.49 1114 1882.14 1114.1 1883.18 1113.8C1881.52 1114 1880.14 1114.4 1878.89 1114.8C1880.21 1114.5 1881.66 1114.4 1883.52 1114.4Z" fill="#99D4FF"/>
<path d="M1876.82 1115.4C1877.51 1115.2 1878.2 1115 1878.89 1114.8C1878.2 1115 1877.51 1115.2 1876.82 1115.4Z" fill="#99D4FF"/>
<path d="M1893.12 1113.7C1892.91 1113.7 1892.57 1113.5 1891.19 1113.6L1892.15 1113.8C1892.5 1113.8 1892.85 1113.8 1893.12 1113.7Z" fill="#99D4FF"/>
<path d="M1892.22 1113.9C1891.19 1114 1890.5 1114.1 1890.15 1114.1C1890.43 1114.1 1891.05 1114 1892.22 1113.9Z" fill="#99D4FF"/>
<path d="M1893.4 1113.7C1893.33 1113.7 1893.26 1113.7 1893.19 1113.7C1893.26 1113.8 1893.26 1113.8 1893.4 1113.7Z" fill="#99D4FF"/>
<path d="M1903.48 1112.6C1902.1 1113 1899.2 1113.6 1902.03 1113.4C1903 1113.1 1901.41 1113.2 1903.48 1112.6Z" fill="#99D4FF"/>
<path d="M1894.57 1114L1897.13 1113.7C1897.06 1113.6 1896.58 1113.6 1897.27 1113.4L1894.57 1114Z" fill="#99D4FF"/>
<path d="M1893.33 1114.3L1894.57 1114L1893.61 1114.1L1893.33 1114.3Z" fill="#99D4FF"/>
<path d="M1881.17 1115.2C1880.07 1115.5 1878.89 1115.7 1877.58 1115.9C1879.03 1115.8 1880.55 1115.6 1881.93 1115.4C1882.07 1115.3 1882.69 1115 1881.17 1115.2Z" fill="#99D4FF"/>
<path d="M1886.56 1114.6C1886.49 1114.6 1886.42 1114.6 1886.35 1114.7C1886.42 1114.7 1886.56 1114.7 1886.56 1114.6Z" fill="#99D4FF"/>
<path d="M1864.25 1117.8C1864.32 1117.8 1864.39 1117.8 1864.46 1117.8C1864.46 1117.8 1864.46 1117.7 1864.52 1117.7L1864.25 1117.8Z" fill="#99D4FF"/>
<path d="M1882.14 1115.5C1883.24 1115.4 1883.87 1115.2 1884.49 1115C1883.66 1115.1 1882.83 1115.3 1881.86 1115.4C1881.79 1115.5 1881.79 1115.6 1882.14 1115.5Z" fill="#99D4FF"/>
<path d="M1873.09 1116.1C1873.64 1116.1 1874.33 1116.1 1875.02 1116.1C1874.4 1116 1873.3 1116 1873.09 1116.1Z" fill="#99D4FF"/>
<path d="M1885.94 1114.6C1886.01 1114.6 1886.01 1114.6 1886.08 1114.6C1885.73 1114.5 1885.8 1114.6 1885.94 1114.6Z" fill="#99D4FF"/>
<path d="M1885.94 1114.6C1885.39 1114.7 1884.97 1114.9 1884.49 1115C1885.18 1114.9 1885.73 1114.8 1886.28 1114.6C1886.15 1114.6 1886.01 1114.6 1885.94 1114.6Z" fill="#99D4FF"/>
<path d="M1860.38 1121.1C1860.52 1120.7 1863.35 1119.9 1865.91 1120C1868.32 1119.3 1866.67 1118.2 1864.45 1117.8C1864.39 1118 1864.39 1118.1 1861.9 1118.8C1862.8 1118.9 1867.49 1118.5 1865.42 1119.2C1862.11 1119.9 1862.73 1119.5 1861.07 1119.5C1862.45 1119.8 1856.93 1120.8 1857.69 1121.4L1860.59 1120.7C1860.59 1120.8 1859.55 1121.2 1860.38 1121.1Z" fill="#99D4FF"/>
<path d="M1869.22 1117.2L1870.26 1117C1869.08 1117.1 1868.26 1117.1 1866.67 1117C1864.94 1117.5 1864.59 1117.7 1864.53 1117.8L1869.57 1117.1L1869.22 1117.2Z" fill="#99D4FF"/>
<path d="M1874.89 1116.4C1874.13 1116.9 1871.64 1117.5 1873.23 1117.7C1876.27 1117.2 1875.3 1117 1877.1 1116.6C1872.19 1117.4 1878.41 1116.1 1874.89 1116.4C1875.85 1116.2 1876.75 1116.1 1877.58 1116C1876.68 1116.1 1875.85 1116.1 1875.02 1116.2C1875.09 1116.2 1875.09 1116.2 1875.16 1116.2C1875.37 1116.2 1875.44 1116.2 1875.23 1116.2H1875.16C1875.02 1116.2 1874.95 1116.3 1874.89 1116.4C1873.43 1116.5 1874.68 1116.3 1875.09 1116.2C1875.09 1116.2 1875.16 1116.2 1875.16 1116.1L1870.33 1117C1871.29 1116.9 1872.54 1116.7 1874.89 1116.4Z" fill="#99D4FF"/>
<path d="M1899.48 1114.5C1899.34 1114.5 1899.34 1114.5 1899.34 1114.5C1898.99 1114.6 1898.92 1114.6 1899.48 1114.5Z" fill="#99D4FF"/>
<path d="M1897.47 1114.7C1897.82 1114.6 1898.1 1114.4 1899.27 1114.3C1900.31 1114.2 1899.27 1114.5 1899.34 1114.5C1900.03 1114.3 1901.76 1113.9 1899.55 1114.1L1899.2 1114.2C1897.2 1114.4 1894.64 1114.4 1894.99 1114.3C1895.61 1114.5 1896.16 1114.6 1897.47 1114.7Z" fill="#99D4FF"/>
<path d="M1886.01 1115.8L1881.93 1116.6H1884L1883.87 1116.4C1886.28 1116.1 1885.73 1116 1886.01 1115.8Z" fill="#99D4FF"/>
<path d="M1863.76 1117.7L1864.25 1117.1L1861.97 1118.1L1863.76 1117.7Z" fill="#99D4FF"/>
<path d="M1858.45 1118.5L1858.65 1118.1L1857.27 1118.5H1858.45Z" fill="#99D4FF"/>
<path d="M1559.83 1111.7L1558.65 1111.5C1559.2 1111.6 1559.55 1111.7 1559.83 1111.7Z" fill="#99D4FF"/>
<path d="M1568.39 1114.1L1568.6 1114C1568.25 1114 1568.05 1114 1568.39 1114.1Z" fill="#99D4FF"/>
<path d="M1728.44 1128.7C1726.72 1128.3 1724.71 1127.8 1724.99 1128.2L1725.54 1128.6C1726.72 1128.5 1727.68 1128.6 1728.44 1128.7Z" fill="#99D4FF"/>
<path d="M1639.27 1125.9C1639.4 1126 1639.61 1126 1639.75 1126.1C1640.16 1126 1640.58 1125.9 1640.92 1125.8C1640.44 1125.8 1639.82 1125.9 1639.27 1125.9Z" fill="#99D4FF"/>
<path d="M1637.88 1127.5L1635.6 1126.9C1636.16 1127.1 1636.85 1127.3 1637.88 1127.5Z" fill="#99D4FF"/>
<path d="M1513.41 1096.3C1513.41 1096.3 1513.06 1096.3 1512.72 1096.2C1512.37 1096.2 1512.03 1096.1 1512.03 1096.1C1514.1 1097.1 1513.27 1096.5 1513.41 1096.3Z" fill="#99D4FF"/>
<path d="M1804.36 1125C1802.84 1125 1801.67 1125 1800.56 1125.1C1802.43 1125.2 1803.88 1125.4 1804.36 1125Z" fill="#99D4FF"/>
<path d="M1563.83 1108.1C1563.07 1108 1562.8 1108 1562.8 1108.1C1563.56 1108.2 1563.97 1108.3 1563.83 1108.1Z" fill="#99D4FF"/>
<path d="M1796.21 1125.5C1796.48 1125.5 1796.76 1125.5 1797.04 1125.5C1798.14 1125.3 1799.25 1125.2 1800.56 1125.1C1799.25 1125 1797.66 1125 1796.21 1125.5Z" fill="#99D4FF"/>
<path d="M1356.81 993.504C1356.74 993.404 1356.6 993.204 1356.53 993.104C1356.46 993.204 1356.6 993.304 1356.81 993.504Z" fill="#99D4FF"/>
<path d="M1317.23 948.704C1317.64 949.104 1318.27 949.904 1318.82 950.504C1318.61 950.204 1318.13 949.604 1317.23 948.704Z" fill="#99D4FF"/>
<path d="M1837.24 1121.1C1838.34 1121 1837.38 1121.1 1837.24 1121.1V1121.1Z" fill="#99D4FF"/>
<path d="M1842.77 1122.1C1842.56 1122.2 1842.35 1122.3 1842.35 1122.4C1842.42 1122.3 1842.56 1122.2 1842.77 1122.1Z" fill="#99D4FF"/>
<path d="M1838.9 1121.1C1838.48 1121.1 1838 1121.1 1837.45 1121.2C1837.72 1121.2 1838.14 1121.2 1838.9 1121.1Z" fill="#99D4FF"/>
<path d="M1838.69 1120.9C1839.1 1120.9 1839.38 1120.8 1839.66 1120.8C1839.79 1120.8 1839.66 1120.7 1838.69 1120.9Z" fill="#99D4FF"/>
<path d="M1835.65 1121.3C1836.27 1121.2 1836.89 1121.2 1837.45 1121.1C1837.24 1121.1 1837.1 1121.1 1837.17 1121.1C1836.89 1121.2 1836.41 1121.2 1835.65 1121.3Z" fill="#99D4FF"/>
<path d="M1438.25 1056.4C1438.18 1056.3 1438.11 1056.3 1438.04 1056.2C1436.94 1055.8 1437.42 1056 1438.25 1056.4Z" fill="#99D4FF"/>
<path d="M1695.08 1132.9C1696.81 1132.4 1697.77 1132.6 1699.09 1132.7L1697.77 1131.4L1695.08 1132.9Z" fill="#99D4FF"/>
<path d="M1539.45 1105.5L1542.14 1106.8C1538.69 1106.3 1536.27 1105.3 1538.83 1106.7C1539.45 1105.5 1549.67 1110.1 1550.23 1108.9L1552.02 1109.8C1551.47 1109.6 1551.4 1109.7 1550.92 1109.5C1552.64 1110.4 1553.33 1110.4 1554.16 1110.3C1554.99 1110.2 1555.96 1110.1 1558.24 1110.9C1559.83 1111.4 1560.93 1112 1559.83 1111.8L1563.49 1112.5C1564.52 1112.8 1564.25 1113 1563.21 1112.7L1568.67 1114.1H1568.6C1569.43 1114.1 1571.22 1114.3 1572.12 1114.4C1573.5 1115 1571.43 1114.3 1571.71 1114.6L1574.75 1115.1C1575.92 1115.8 1573.37 1115.4 1571.29 1114.8C1573.99 1116.9 1573.85 1115.2 1579.86 1117.4L1576.96 1116.9C1578.75 1118.1 1581.03 1118.3 1584.21 1119.6C1583.45 1119.2 1577.86 1116.9 1581.17 1117.3C1582.07 1117.6 1583.31 1118 1585.11 1118.1C1585.04 1118.6 1586.84 1118.9 1588.98 1119.4L1588.77 1120C1591.12 1120.4 1590.98 1120 1592.43 1120C1595.06 1120.7 1595.54 1121.3 1596.09 1121.8C1600.31 1122.7 1593.26 1120.5 1598.23 1121.3C1601.69 1122.2 1604.24 1122.4 1608.46 1122.9C1610.87 1123.6 1607.97 1123.2 1608.87 1123.6L1611.08 1123.5C1611.63 1123.6 1611.43 1123.7 1611.36 1123.8C1613.22 1124 1611.57 1123.2 1614.47 1123.6C1614.88 1123.3 1616.33 1123.9 1618.13 1124.4C1619.92 1124.9 1622.13 1125.5 1623.93 1125.4C1624.83 1125.7 1623.45 1125.7 1623.72 1126C1628.7 1126.2 1627.94 1126.3 1632.01 1126.2L1635.4 1127.1C1632.91 1126.2 1636.16 1126.2 1638.99 1126.1C1638.09 1125.8 1637.33 1125.5 1636.85 1125.3C1636.85 1125.3 1637.95 1125.4 1639.13 1125.4C1640.23 1125.4 1641.41 1125.5 1641.41 1125.5C1641.96 1125.7 1641.48 1125.8 1640.72 1126C1640.99 1126 1641.34 1126 1641.54 1125.9C1643.13 1126.3 1642.3 1126.6 1641.13 1126.8C1640.58 1126.6 1640.02 1126.4 1639.54 1126.2C1638.44 1126.5 1637.33 1126.8 1637.54 1127.2C1637.81 1127.2 1638.44 1127.2 1639.06 1127.2C1638.78 1127.3 1638.57 1127.3 1638.71 1127.4C1638.85 1127.5 1639.33 1127.4 1640.09 1127.3L1641.06 1128.1L1641.34 1127.8L1647.21 1128.9C1649.35 1128.8 1651.35 1128.6 1653.63 1128.4C1655.91 1128.3 1658.54 1128.3 1661.92 1128.4C1660.26 1128.8 1661.51 1129.2 1661.44 1129.8C1659.64 1129 1656.26 1129.6 1652.73 1129C1654.53 1129.3 1654.12 1129.5 1653.63 1129.6C1653.63 1129.6 1655.22 1129.6 1656.74 1129.7C1657.5 1129.7 1658.33 1129.7 1658.88 1129.7C1659.44 1129.7 1659.85 1129.7 1659.85 1129.7C1659.71 1130.2 1661.16 1130.2 1662.75 1130.5C1661.58 1129.4 1667.38 1130.2 1669.94 1130.1C1670.07 1130.4 1669.45 1130.7 1666.41 1130.4C1669.8 1131.4 1670.83 1129.6 1674.15 1130.5C1673.39 1130.4 1672.97 1130.4 1672.7 1130.5C1674.49 1130.3 1678.78 1130.9 1677.74 1131.1L1676.98 1131C1679.47 1131.3 1683.27 1131.5 1686.58 1131.5C1689.83 1131.5 1692.59 1131.4 1693.01 1131C1693.08 1131.1 1692.32 1132 1692.04 1132.2L1701.02 1129.8C1700.19 1130.5 1703.23 1132.4 1699.09 1132.6C1700.26 1132.8 1701.78 1133 1704.27 1132.7C1703.44 1132.6 1702.26 1131.6 1703.37 1131.6C1706.41 1132.5 1705.51 1132.1 1709.24 1132.8C1708 1132.6 1709.38 1131.5 1711.31 1131.6C1711.04 1131.8 1711.45 1132.7 1710.76 1132.8L1715.59 1131.8C1714.42 1132 1715.39 1132.7 1716.42 1133.1C1715.94 1132.9 1720.57 1133.2 1721.88 1133.1L1719.88 1132.8C1721.26 1132.9 1722.23 1132.8 1723.06 1132.7C1723.88 1132.6 1724.57 1132.3 1725.2 1132.1C1726.51 1131.7 1727.82 1131.2 1730.52 1131.2C1729.89 1131.4 1728.93 1132.6 1731.62 1132.8C1732.86 1132.2 1737.15 1130 1741.91 1129.5L1742.81 1129.8C1742.81 1129.8 1743.71 1129.7 1744.61 1129.6C1745.51 1129.5 1746.4 1129.3 1746.4 1129.3C1744.12 1130.3 1737.84 1132.1 1734.31 1132.9C1736.32 1133.1 1734.87 1133.3 1737.91 1133.2C1739.01 1133.5 1736.25 1133.7 1735.35 1133.7L1742.4 1133.8C1742.26 1133.5 1743.57 1133.3 1744.95 1133.1C1746.33 1132.9 1747.65 1132.7 1747.51 1132.4C1747.51 1132.4 1747.02 1132.5 1746.33 1132.6C1745.64 1132.7 1744.68 1132.8 1743.71 1132.9C1741.77 1133.1 1739.84 1133.3 1739.84 1133.3C1739.5 1132.6 1744.26 1131.4 1749.24 1131.3C1750.48 1131.5 1748.27 1132.5 1748.41 1132.8C1749.03 1132.5 1753.17 1132.2 1753.59 1132.3L1751.45 1132.7C1754.21 1132.8 1756 1131.6 1759.32 1132.2C1760.49 1132.2 1762.77 1132.9 1762.98 1132.5C1761.05 1131.8 1760.63 1129.4 1761.88 1128.8C1762.08 1128.8 1763.6 1129 1765.26 1129.1C1766.92 1129.3 1768.65 1129.4 1769.34 1129.5C1771.27 1130 1766.5 1131.1 1768.16 1131.5C1768.23 1131.3 1769.27 1131 1769.68 1130.9C1770.93 1131 1769.2 1131.5 1771.82 1131.3C1772.24 1130.6 1777.21 1131 1773.07 1130.6C1775.62 1130.2 1775.83 1130.6 1778.8 1130.3C1777.83 1129.9 1781.49 1128.6 1784.05 1128.3C1783.91 1128.5 1784.46 1128.7 1784.74 1128.8C1789.99 1128.5 1792.89 1128.5 1797.8 1128.1C1798.28 1128.2 1800.63 1128.2 1799.66 1128.6C1800.35 1128.4 1800.97 1128.1 1802.49 1128C1805.46 1128.3 1799.11 1128.4 1801.39 1128.9C1801.6 1128.5 1805.26 1128 1807.47 1127.6C1806.78 1127 1802.49 1127.9 1800.28 1128.3C1800.21 1127.5 1803.94 1126.3 1809.06 1125.4C1813.13 1124.8 1810.85 1125.8 1811.54 1125.6C1819.21 1124.9 1817.97 1123.4 1824.39 1123.4C1826.95 1123.7 1824.53 1124.5 1825.15 1124.8C1821.83 1125.4 1820.04 1125 1817.76 1125.3H1820.52C1819.49 1125.6 1817.28 1126 1816.03 1125.9C1817.07 1126 1820.32 1125.7 1824.05 1125.3C1825.91 1125.1 1827.84 1124.9 1829.78 1124.7C1831.64 1124.5 1833.44 1124.3 1834.96 1124.3C1836 1124 1837.79 1123.6 1836.96 1123.5L1835.1 1123.8C1833.37 1123.6 1838.55 1122.8 1836.2 1122.9C1838.69 1122.3 1841.45 1121.4 1845.04 1121.2L1845.74 1121.7C1845.67 1121.5 1843.39 1121.6 1842.42 1121.9C1843.87 1121.4 1847.88 1122 1849.47 1121L1846.98 1120.9C1849.47 1120.3 1852.57 1119.2 1855.68 1119C1854.23 1118.6 1854.99 1119.2 1852.71 1118.8C1854.72 1119.4 1844.7 1119.8 1847.88 1120.3C1845.53 1119.8 1843.94 1120.5 1840.9 1120.1C1841.04 1120.3 1842.01 1120.4 1839.38 1120.6C1839.24 1120.7 1838.97 1120.8 1838.83 1120.9C1838.76 1120.9 1838.69 1120.9 1838.62 1120.9C1838.69 1120.9 1838.69 1120.9 1838.76 1120.9C1838.62 1120.9 1838.62 1121 1838.83 1120.9C1839.45 1120.9 1840 1121 1840.21 1121C1838.97 1121.6 1834.75 1122.1 1833.37 1122.6C1831.78 1122.7 1833.99 1122.3 1833.16 1122.2L1831.09 1122.8C1830.88 1122.4 1826.88 1122.5 1830.54 1121.9L1827.22 1122.2C1825.29 1122.2 1822.59 1122.3 1820.94 1122.7C1819.35 1122.8 1817 1123.6 1818.38 1123.1L1813.2 1123.9L1813.13 1123.8C1811.82 1123.9 1810.58 1124.1 1809.26 1124.3C1807.95 1124.5 1806.64 1124.6 1805.26 1124.8C1802.56 1125.1 1799.73 1125.4 1796.76 1125.2C1795.03 1125.5 1793.24 1125.8 1790.4 1125.9L1789.85 1125.6C1787.64 1126 1783.22 1125.7 1782.25 1126.1C1779.84 1125.2 1771.48 1126.5 1767.61 1126.6L1767.47 1127.1C1764.78 1127.2 1762.22 1127.4 1758.91 1127.8L1759.11 1128.2C1756.28 1128.7 1751.72 1128.2 1747.16 1128.4C1747.44 1128.2 1748.61 1128.2 1749.44 1128.3C1743.99 1127.6 1737.98 1129.3 1733.07 1128.6C1731.83 1128.8 1730.93 1128.7 1730.1 1128.6C1730.24 1128.6 1730.31 1128.6 1730.38 1128.6C1730.24 1128.6 1730.03 1128.6 1729.89 1128.6C1729.34 1128.5 1728.79 1128.5 1728.17 1128.4C1728.65 1128.5 1729.2 1128.6 1729.62 1128.6C1728.65 1128.6 1727.27 1128.7 1725.82 1128.8L1725.2 1128.3C1725.06 1128.3 1724.99 1128.3 1724.85 1128.3C1723.47 1128.1 1723.75 1128.5 1724.51 1128.9C1723.81 1129 1723.12 1129.1 1722.64 1129.2C1721.54 1128.4 1718.98 1129.4 1717.46 1128.5C1716.49 1128.9 1710.41 1128.7 1709.65 1129.5C1709.59 1129.4 1709.17 1129.3 1709.93 1129.3C1708.34 1129.2 1706.82 1129.1 1705.37 1129.3L1704.68 1128.7L1701.23 1129.5C1699.15 1129 1698.33 1128.8 1700.4 1128.4C1695.42 1128.9 1696.32 1128.5 1692.11 1129L1692.32 1128.6C1690.8 1128.5 1688.38 1129 1687.48 1128.6C1686.65 1128.4 1685.2 1128.2 1683.34 1128.1C1682.37 1128 1681.4 1128 1680.3 1127.9C1679.19 1127.8 1678.02 1127.7 1676.84 1127.6C1672.01 1127.2 1666.48 1126.7 1662.13 1126C1663.79 1127.3 1658.12 1125.2 1657.71 1126C1657.22 1125.7 1656.05 1125.4 1657.43 1125.3C1653.01 1125.1 1650.8 1124.1 1647.69 1124.5C1647.21 1124.2 1648.66 1124.2 1648.24 1124C1647.9 1124 1646.79 1124.1 1646.38 1123.9C1645.97 1123.7 1647.07 1123.7 1647.76 1123.7C1643.27 1123.2 1642.72 1124 1642.37 1124.8C1640.09 1124.1 1638.99 1124.1 1637.26 1124.4C1636.5 1124 1635.19 1123.5 1637.95 1123.9C1636.36 1123.6 1628.35 1122.1 1628.14 1122.7C1627.66 1122.5 1625.93 1122.3 1625.52 1122.3C1622 1121.7 1621.65 1121.6 1618.2 1121.1L1619.16 1121.4C1618.47 1121.7 1617.71 1121.6 1616.82 1121.4C1615.92 1121.2 1614.88 1120.9 1613.43 1120.6L1613.5 1120.5C1607.14 1118.7 1610.74 1120.2 1604.45 1118.4L1604.73 1118.9C1604.04 1119.8 1599.2 1117.2 1595.47 1116.9C1595.47 1116.9 1595.82 1117.1 1596.09 1117.2C1596.44 1117.3 1596.71 1117.5 1596.71 1117.5C1594.64 1117.5 1591.26 1114.8 1589.32 1114.3C1588.91 1114.1 1590.01 1114.3 1590.63 1114.4C1585.45 1112.6 1589.88 1114.9 1585.94 1114.1C1585.25 1113.6 1586.97 1113.5 1584.35 1112.8C1583.73 1112.5 1581.79 1112.3 1579.58 1112.1C1577.37 1111.8 1574.89 1111.4 1573.16 1110.6C1573.92 1111.1 1574.68 1111.5 1572.81 1111.2C1570.05 1110.5 1565.49 1108.2 1562.87 1108.3C1562.52 1108.1 1562.38 1108 1562.38 1108C1560.24 1107.6 1555.47 1106.4 1554.16 1106.5C1552.44 1104.2 1540.97 1103 1541.25 1101.6L1534.75 1099.6L1534.96 1099.5C1530.88 1098 1529.36 1097.7 1527.84 1097.5C1526.95 1097 1527.64 1097.2 1527.71 1097.1C1521.77 1094.6 1521.14 1094.4 1516.03 1093.3L1515.62 1092.6C1515.27 1092.5 1514.58 1092.3 1513.61 1091.8C1512.65 1091.3 1511.47 1090.7 1510.16 1090.1C1507.47 1088.8 1504.29 1087.3 1501.32 1086.3C1501.39 1086.3 1501.53 1086.2 1502.01 1086.4C1500.35 1085.8 1498.56 1085.1 1496.76 1084.2C1495.86 1083.8 1494.96 1083.3 1494.07 1082.9C1493.17 1082.4 1492.34 1082 1491.51 1081.5C1488.19 1079.7 1485.36 1078.3 1483.98 1078.6L1479.63 1077C1485.15 1079.8 1478.66 1077.3 1480.87 1078.7C1478.66 1077.7 1475.35 1075.5 1478.04 1076.7L1478.45 1077C1479.08 1076.8 1477.35 1075.9 1475.55 1075C1473.76 1074.1 1471.82 1073 1471.96 1072.8C1466.57 1069.9 1461.32 1066.9 1456.14 1064C1455.52 1063.6 1454.83 1063.3 1454.21 1062.9C1453.59 1062.5 1452.96 1062.1 1452.34 1061.7C1451.1 1060.9 1449.79 1060.1 1448.54 1059.3C1446.06 1057.7 1443.57 1056.2 1441.08 1054.7L1442.05 1056.1L1438.6 1054C1437.77 1053.3 1437.56 1052.7 1439.98 1054.3C1438.8 1053.1 1435.76 1052.1 1435.63 1052.2C1433.28 1050.6 1433.83 1050.6 1434.73 1051.1C1435.7 1051.5 1437.01 1052.1 1436.25 1051.7C1436.25 1051.7 1435.76 1051.4 1435.21 1051.1C1434.94 1051 1434.73 1050.8 1434.52 1050.7C1434.31 1050.6 1434.25 1050.5 1434.25 1050.5L1434.66 1050.9C1433 1050.1 1432.73 1050.3 1429.82 1048.3C1428.03 1046.9 1429 1047.3 1428.3 1046.7C1428.3 1046.7 1428.1 1046.5 1427.2 1045.9L1422.92 1043L1424.44 1044.7C1422.43 1043.7 1420.43 1042 1422.23 1043.9C1421.6 1043.2 1420.29 1042.1 1418.63 1040.9C1417.8 1040.3 1416.91 1039.7 1416.01 1039C1415.04 1038.4 1414.14 1037.6 1413.18 1036.9C1409.38 1034.1 1405.72 1031.4 1404.96 1030.7C1402.19 1029.1 1399.64 1027.2 1396.46 1024.8C1396.81 1025.1 1397.08 1025.6 1396.87 1025.6C1396.67 1025.7 1396.05 1025.4 1394.73 1024.2C1396.18 1023.8 1390.04 1019.6 1388.17 1017C1389.9 1019.2 1380.5 1010.8 1383.2 1014.1C1380.99 1012.1 1383.27 1013.5 1381.68 1011.9C1380.3 1010.9 1378.85 1009.8 1377.46 1008.6C1376.08 1007.3 1374.56 1006 1373.11 1004.6C1370.14 1001.8 1366.96 998.904 1363.72 996.104C1363.58 996.104 1364.55 997.304 1363.1 996.304L1359.92 992.704C1358.61 991.604 1358.47 992.304 1356.33 989.704C1356.6 990.104 1357.02 990.704 1356.19 989.904C1353.15 986.804 1350.04 983.704 1346.93 980.704C1345.34 979.204 1343.75 977.704 1342.17 976.204C1341.34 975.504 1340.58 974.704 1339.82 973.804L1337.47 971.404C1334.36 968.104 1331.32 964.904 1328.21 961.604C1326.69 960.004 1325.17 958.304 1323.65 956.704C1322.13 955.004 1320.68 953.304 1319.23 951.504C1320.82 953.404 1319.72 952.204 1318.47 950.804C1319.23 951.704 1318.4 950.904 1318.54 951.104L1313.64 945.304C1312.67 944.304 1308.32 939.204 1307.77 938.704L1309.35 940.504C1307.28 938.104 1312.19 944.004 1311.84 943.704C1313.02 945.004 1314.54 946.904 1316.19 949.004C1317.85 951.104 1319.72 953.404 1321.65 955.604C1322.48 956.704 1320.89 954.804 1321.3 955.404C1321.79 955.904 1322.34 956.604 1323.03 957.304C1323.72 958.104 1324.55 959.004 1325.66 960.304L1325.38 960.104C1328.49 963.504 1330.7 966.004 1332.98 968.604C1334.08 969.904 1335.26 971.304 1336.57 972.804C1337.19 973.604 1337.88 974.404 1338.64 975.204C1339.4 976.104 1340.16 977.004 1341.06 977.904L1340.65 977.104C1342.17 978.704 1342.44 979.104 1343.13 979.904C1345.07 981.304 1338.85 975.504 1340.65 976.704C1342.44 979.304 1351.56 987.704 1352.6 989.804C1354.95 992.204 1352.04 988.704 1354.46 991.204L1355.01 992.004L1355.7 992.404C1357.22 994.004 1357.92 995.104 1357.92 995.304C1357.57 994.904 1356.81 994.204 1356.4 993.804C1356.88 994.404 1357.43 995.004 1358.12 995.704C1358.74 996.304 1359.44 997.004 1360.13 997.504C1361.44 998.704 1362.61 999.704 1362.89 1000L1360.61 997.704C1363.99 1000.7 1367.66 1004.2 1371.32 1007.6C1373.18 1009.3 1374.98 1011 1376.77 1012.6C1378.64 1014.1 1380.43 1015.4 1382.16 1016.7L1381.75 1016.1C1387 1019.9 1385.75 1019.6 1391.42 1024.1L1391.21 1024C1392.38 1024.7 1393.9 1025.9 1395.42 1027.1C1394.66 1026.6 1395.29 1027.3 1395.91 1027.9C1396.46 1028.5 1397.01 1029 1396.05 1028.4C1401.85 1032.2 1398.95 1030.2 1402.95 1032.2L1403.71 1033.2C1405.09 1033.8 1405.23 1033.8 1408.13 1035.8C1405.72 1034.3 1409.79 1037.7 1407.03 1036.1C1409.86 1038.7 1412.21 1040.2 1414.01 1041.4C1415.87 1042.6 1417.39 1043.4 1418.56 1044.9C1421.67 1045.9 1413.45 1040.8 1415.11 1041.7C1413.87 1040.5 1417.67 1042.6 1419.53 1044C1421.47 1045.3 1422.43 1047.4 1427.34 1050.7C1426.85 1050.4 1426.78 1050.4 1426.3 1050.1C1428.03 1051.6 1429.96 1052.2 1432.1 1054.1C1433.55 1054.4 1435.07 1056 1435.63 1055.5C1435.63 1055.5 1435.35 1055.3 1434.94 1055.1C1434.52 1054.8 1433.9 1054.6 1433.35 1054.2C1432.24 1053.5 1431.07 1052.8 1431.07 1052.8C1433.62 1054.4 1436.39 1055 1440.46 1058C1440.12 1057.9 1438.74 1057.4 1437.84 1056.9C1439.01 1057.9 1440.25 1058.2 1441.5 1059.2C1440.95 1059.7 1435.9 1056 1432.93 1054.8C1434.18 1056 1438.32 1057.5 1436.73 1057.4C1439.01 1057.6 1441.64 1060.5 1445.23 1061.8L1444.88 1062.1C1445.44 1062.4 1446.61 1062.8 1447.58 1063.4L1445.64 1062.9C1448.54 1064.1 1450.75 1066.6 1453.52 1067.8C1447.99 1064.5 1452.41 1066.5 1450.2 1064.8C1453.66 1066.6 1454.55 1067.4 1455.59 1068.3C1456.56 1069.2 1457.66 1070.3 1461.53 1072.3C1460.49 1071.8 1457.66 1069.9 1459.39 1070.6C1460.84 1071.5 1462.7 1072.7 1463.53 1073.4C1468.65 1076.1 1462.84 1072.5 1465.12 1073.4C1466.71 1074.9 1467.68 1074.5 1469.96 1075.6L1469.89 1076.1C1472.79 1077.8 1473.2 1077.8 1473.55 1077.7C1473.9 1077.6 1474.24 1077.5 1476.8 1079L1474.38 1078.5L1477.21 1079.7L1476.52 1079.9C1479.63 1081 1480.53 1081.5 1483.43 1083.1C1482.81 1082.4 1483.98 1082.5 1486.61 1083.7C1488.33 1084.8 1485.5 1083.7 1489.23 1085.4C1488.33 1085.3 1487.37 1085.2 1485.85 1084C1485.64 1084.1 1484.95 1083.9 1484.74 1084C1486.61 1085.2 1489.51 1086.4 1490.89 1087C1490.4 1086.7 1489.78 1086.4 1489.44 1086.2C1489.44 1086.2 1490.82 1086.7 1492.2 1087.2C1492.89 1087.5 1493.58 1087.6 1494.13 1087.8C1494.69 1088 1495.03 1088.1 1495.03 1088.1C1495.86 1088.6 1495.17 1088.5 1494.41 1088.3C1495.52 1088.7 1496.35 1088.8 1497.93 1089.5C1497.45 1089.7 1497.45 1090.1 1495.1 1089.3L1500.35 1091.1C1500.63 1091.4 1502.91 1092.7 1502.22 1092.5C1505.05 1093.9 1509.4 1094.8 1513.13 1096.7C1513.34 1096.7 1513.75 1096.8 1514.58 1097C1518.17 1098.4 1521.28 1100.1 1525.63 1101.2L1527.91 1102.8C1531.3 1103.9 1524.8 1100.7 1530.4 1102.5C1534.41 1103.8 1531.78 1103.6 1533.09 1104.3C1535.1 1104.6 1538.69 1105 1542.21 1106.8C1541.52 1106.2 1540.55 1105.8 1539.45 1105.5ZM1581.17 1117.2C1580.34 1117.1 1578.68 1117 1578.13 1116.6C1579.17 1116.3 1579.86 1116.7 1581.17 1117.2ZM1645.41 1127.5C1644.79 1127.6 1643.82 1127.4 1642.79 1127.1C1643.55 1127.2 1644.45 1127.3 1645.41 1127.5ZM1824.94 1123H1824.87C1823.01 1123 1823.7 1123 1824.94 1123ZM1828.74 1122.8C1829.09 1122.7 1829.09 1122.6 1828.95 1122.6C1828.67 1122.8 1827.84 1122.8 1826.88 1122.9C1827.15 1123 1827.64 1123 1828.74 1122.8ZM1428.24 1046.3L1428.86 1046.9C1427.27 1046 1427.75 1046.2 1428.24 1046.3Z" fill="#99D4FF"/>
<path d="M1638.09 1127.3C1637.88 1127.2 1637.81 1127.1 1637.75 1127C1637.4 1127.1 1637.4 1127.2 1638.09 1127.3Z" fill="#99D4FF"/>
<path d="M1513.68 1096.4L1513.55 1096.3C1513.48 1096.3 1513.41 1096.3 1513.41 1096.3L1513.68 1096.4Z" fill="#99D4FF"/>
<path d="M1770.03 1131.9C1769.27 1131.9 1768.78 1131.8 1768.51 1131.7C1768.44 1131.9 1768.78 1131.9 1770.03 1131.9Z" fill="#99D4FF"/>
<path d="M1848.78 1119.4L1846.36 1119.8C1847.53 1119.6 1847.95 1119.7 1848.57 1119.7C1848.5 1119.6 1848.02 1119.5 1848.78 1119.4Z" fill="#99D4FF"/>
<path d="M1870.05 1119.4C1870.4 1119.3 1870.81 1119.3 1871.16 1119.2L1871.02 1119C1869.57 1119.2 1868.53 1119.5 1870.05 1119.4Z" fill="#99D4FF"/>
<path d="M1851.12 1120.7C1851.33 1121.1 1852.85 1120.7 1854.58 1120.4C1854.51 1120.4 1854.37 1120.4 1854.3 1120.4C1854.72 1119.9 1852.92 1120.3 1851.12 1120.7Z" fill="#99D4FF"/>
<path d="M1854.99 1120.4C1855.54 1120.3 1856.03 1120.2 1856.58 1120.2C1856.72 1119.9 1855.89 1120.2 1854.99 1120.4Z" fill="#99D4FF"/>
<path d="M1833.58 1121.9C1834.41 1121.9 1834.06 1121.3 1834.54 1121.4C1835.37 1120.8 1829.16 1122.8 1833.58 1121.9Z" fill="#99D4FF"/>
<path d="M1852.64 1121.9L1851.95 1121.5L1851.05 1122L1852.64 1121.9Z" fill="#99D4FF"/>
<path d="M1839.17 1123.2L1841.94 1123C1841.87 1122.9 1842.21 1122.8 1842.63 1122.7C1840.9 1123 1839.1 1123.1 1839.17 1123.2Z" fill="#99D4FF"/>
<path d="M1842.56 1122.8C1843.46 1122.7 1844.29 1122.6 1844.77 1122.4C1844.29 1122.5 1843.32 1122.6 1842.56 1122.8Z" fill="#99D4FF"/>
<path d="M1848.91 1122.5H1848.08L1846.15 1122.7L1848.91 1122.5Z" fill="#99D4FF"/>
<path d="M1809.88 1126.4C1809.88 1126.4 1809.12 1126.5 1808.43 1126.6C1807.67 1126.7 1806.98 1126.8 1806.98 1126.8C1806.71 1127 1807.54 1127 1808.64 1126.9C1809.26 1126.8 1810.3 1126.6 1809.88 1126.4Z" fill="#99D4FF"/>
<path d="M1818.93 1126.9C1818.11 1126.9 1818.04 1126.8 1817.62 1126.7L1817.55 1127.3L1818.93 1126.9Z" fill="#99D4FF"/>
<path d="M1810.23 1127.9C1809.95 1128.1 1805.95 1128.8 1809.68 1128.4C1810.02 1128.2 1812.99 1127.8 1810.23 1127.9Z" fill="#99D4FF"/>
<path d="M1765.33 1130.5L1766.09 1130.4L1765.95 1129.4L1765.33 1130.5Z" fill="#99D4FF"/>
<path d="M1725.75 1133.9C1729.27 1134.1 1726.58 1133.3 1729.76 1133.5C1730.58 1133.3 1727.13 1133.3 1727.96 1133.1C1725.89 1133.4 1724.78 1133.2 1725.75 1133.9Z" fill="#99D4FF"/>
<path d="M1728.03 1133.1C1728.37 1133.1 1728.72 1133 1729.13 1132.9C1728.51 1133 1728.24 1133 1728.03 1133.1Z" fill="#99D4FF"/>
<path d="M1310.74 941.204L1308.94 939.104L1310.11 940.504L1310.74 941.204Z" fill="#99D4FF"/>
<path d="M1307.28 937.304L1306.87 936.804L1305.76 935.604C1306.18 936.104 1307.01 936.904 1307.28 937.304Z" fill="#99D4FF"/>
<path d="M1587.32 1119.9L1587.53 1119.8C1587.18 1119.6 1586.7 1119.4 1585.59 1119.1L1587.32 1119.9Z" fill="#99D4FF"/>
<path d="M1556.93 1111.5L1557.48 1111.7L1556.58 1110.8L1556.93 1111.5Z" fill="#99D4FF"/>
<path d="M1531.51 1104.1C1532.54 1104.5 1533.79 1104.8 1534.82 1105.2C1533.72 1104.9 1532.82 1104.4 1532.27 1104.1C1531.64 1103.8 1531.44 1103.7 1531.51 1104.1Z" fill="#99D4FF"/>
<path d="M1670.41 959.104C1676.26 959.104 1681.01 954.358 1681.01 948.504C1681.01 942.65 1676.26 937.904 1670.41 937.904C1664.55 937.904 1659.81 942.65 1659.81 948.504C1659.81 954.358 1664.55 959.104 1670.41 959.104Z" fill="#15EEB5" fill-opacity="0.3"/>
<path d="M1717.01 959.104C1722.86 959.104 1727.61 954.358 1727.61 948.504C1727.61 942.65 1722.86 937.904 1717.01 937.904C1711.15 937.904 1706.41 942.65 1706.41 948.504C1706.41 954.358 1711.15 959.104 1717.01 959.104Z" fill="#15EEB5" fill-opacity="0.3"/>
<path d="M1623.81 959.104C1629.66 959.104 1634.41 954.358 1634.41 948.504C1634.41 942.65 1629.66 937.904 1623.81 937.904C1617.95 937.904 1613.21 942.65 1613.21 948.504C1613.21 954.358 1617.95 959.104 1623.81 959.104Z" fill="#15EEB5" fill-opacity="0.3"/>
<path d="M1670.41 1006.3C1676.26 1006.3 1681.01 1001.56 1681.01 995.704C1681.01 989.85 1676.26 985.104 1670.41 985.104C1664.55 985.104 1659.81 989.85 1659.81 995.704C1659.81 1001.56 1664.55 1006.3 1670.41 1006.3Z" fill="#15EEB5" fill-opacity="0.3"/>
<path d="M1717.01 1006.3C1722.86 1006.3 1727.61 1001.56 1727.61 995.704C1727.61 989.85 1722.86 985.104 1717.01 985.104C1711.15 985.104 1706.41 989.85 1706.41 995.704C1706.41 1001.56 1711.15 1006.3 1717.01 1006.3Z" fill="#15EEB5" fill-opacity="0.3"/>
<path d="M1623.81 1006.3C1629.66 1006.3 1634.41 1001.56 1634.41 995.704C1634.41 989.85 1629.66 985.104 1623.81 985.104C1617.95 985.104 1613.21 989.85 1613.21 995.704C1613.21 1001.56 1617.95 1006.3 1623.81 1006.3Z" fill="#15EEB5" fill-opacity="0.3"/>
<path d="M1530.61 959.704C1536.46 959.704 1541.21 954.958 1541.21 949.104C1541.21 943.25 1536.46 938.504 1530.61 938.504C1524.75 938.504 1520.01 943.25 1520.01 949.104C1520.01 954.958 1524.75 959.704 1530.61 959.704Z" fill="#15EEB5" fill-opacity="0.3"/>
<path d="M1577.21 959.704C1583.06 959.704 1587.81 954.958 1587.81 949.104C1587.81 943.25 1583.06 938.504 1577.21 938.504C1571.35 938.504 1566.61 943.25 1566.61 949.104C1566.61 954.958 1571.35 959.704 1577.21 959.704Z" fill="#15EEB5" fill-opacity="0.3"/>
<path d="M1484.01 959.704C1489.86 959.704 1494.61 954.958 1494.61 949.104C1494.61 943.25 1489.86 938.504 1484.01 938.504C1478.15 938.504 1473.41 943.25 1473.41 949.104C1473.41 954.958 1478.15 959.704 1484.01 959.704Z" fill="#15EEB5" fill-opacity="0.3"/>
<path d="M1530.61 1006.9C1536.46 1006.9 1541.21 1002.16 1541.21 996.304C1541.21 990.449 1536.46 985.704 1530.61 985.704C1524.75 985.704 1520.01 990.449 1520.01 996.304C1520.01 1002.16 1524.75 1006.9 1530.61 1006.9Z" fill="#15EEB5" fill-opacity="0.3"/>
<path d="M1577.21 1006.9C1583.06 1006.9 1587.81 1002.16 1587.81 996.304C1587.81 990.449 1583.06 985.704 1577.21 985.704C1571.35 985.704 1566.61 990.449 1566.61 996.304C1566.61 1002.16 1571.35 1006.9 1577.21 1006.9Z" fill="#15EEB5" fill-opacity="0.3"/>
<path d="M1484.01 1006.9C1489.86 1006.9 1494.61 1002.16 1494.61 996.304C1494.61 990.449 1489.86 985.704 1484.01 985.704C1478.15 985.704 1473.41 990.449 1473.41 996.304C1473.41 1002.16 1478.15 1006.9 1484.01 1006.9Z" fill="#15EEB5" fill-opacity="0.3"/>
<path d="M1670.41 1053.5C1676.26 1053.5 1681.01 1048.76 1681.01 1042.9C1681.01 1037.05 1676.26 1032.3 1670.41 1032.3C1664.55 1032.3 1659.81 1037.05 1659.81 1042.9C1659.81 1048.76 1664.55 1053.5 1670.41 1053.5Z" fill="#15EEB5" fill-opacity="0.3"/>
<path d="M1717.01 1053.5C1722.86 1053.5 1727.61 1048.76 1727.61 1042.9C1727.61 1037.05 1722.86 1032.3 1717.01 1032.3C1711.15 1032.3 1706.41 1037.05 1706.41 1042.9C1706.41 1048.76 1711.15 1053.5 1717.01 1053.5Z" fill="#15EEB5" fill-opacity="0.3"/>
<path d="M1623.81 1053.5C1629.66 1053.5 1634.41 1048.76 1634.41 1042.9C1634.41 1037.05 1629.66 1032.3 1623.81 1032.3C1617.95 1032.3 1613.21 1037.05 1613.21 1042.9C1613.21 1048.76 1617.95 1053.5 1623.81 1053.5Z" fill="#15EEB5" fill-opacity="0.3"/>
<path d="M1670.41 1100.8C1676.26 1100.8 1681.01 1096.06 1681.01 1090.2C1681.01 1084.35 1676.26 1079.6 1670.41 1079.6C1664.55 1079.6 1659.81 1084.35 1659.81 1090.2C1659.81 1096.06 1664.55 1100.8 1670.41 1100.8Z" fill="#15EEB5" fill-opacity="0.3"/>
<path d="M1717.01 1100.8C1722.86 1100.8 1727.61 1096.06 1727.61 1090.2C1727.61 1084.35 1722.86 1079.6 1717.01 1079.6C1711.15 1079.6 1706.41 1084.35 1706.41 1090.2C1706.41 1096.06 1711.15 1100.8 1717.01 1100.8Z" fill="#15EEB5" fill-opacity="0.3"/>
<path d="M1623.81 1100.8C1629.66 1100.8 1634.41 1096.06 1634.41 1090.2C1634.41 1084.35 1629.66 1079.6 1623.81 1079.6C1617.95 1079.6 1613.21 1084.35 1613.21 1090.2C1613.21 1096.06 1617.95 1100.8 1623.81 1100.8Z" fill="#15EEB5" fill-opacity="0.3"/>
<path d="M1530.61 1055.8C1536.46 1055.8 1541.21 1051.06 1541.21 1045.2C1541.21 1039.35 1536.46 1034.6 1530.61 1034.6C1524.75 1034.6 1520.01 1039.35 1520.01 1045.2C1520.01 1051.06 1524.75 1055.8 1530.61 1055.8Z" fill="#15EEB5" fill-opacity="0.3"/>
<path d="M1577.21 1055.8C1583.06 1055.8 1587.81 1051.06 1587.81 1045.2C1587.81 1039.35 1583.06 1034.6 1577.21 1034.6C1571.35 1034.6 1566.61 1039.35 1566.61 1045.2C1566.61 1051.06 1571.35 1055.8 1577.21 1055.8Z" fill="#15EEB5" fill-opacity="0.3"/>
<path d="M1484.01 1055.8C1489.86 1055.8 1494.61 1051.06 1494.61 1045.2C1494.61 1039.35 1489.86 1034.6 1484.01 1034.6C1478.15 1034.6 1473.41 1039.35 1473.41 1045.2C1473.41 1051.06 1478.15 1055.8 1484.01 1055.8Z" fill="#15EEB5" fill-opacity="0.3"/>
<path d="M1530.61 1103C1536.46 1103 1541.21 1098.26 1541.21 1092.4C1541.21 1086.55 1536.46 1081.8 1530.61 1081.8C1524.75 1081.8 1520.01 1086.55 1520.01 1092.4C1520.01 1098.26 1524.75 1103 1530.61 1103Z" fill="#15EEB5" fill-opacity="0.3"/>
<path d="M1577.21 1103C1583.06 1103 1587.81 1098.26 1587.81 1092.4C1587.81 1086.55 1583.06 1081.8 1577.21 1081.8C1571.35 1081.8 1566.61 1086.55 1566.61 1092.4C1566.61 1098.26 1571.35 1103 1577.21 1103Z" fill="#15EEB5" fill-opacity="0.3"/>
<path d="M1484.01 1103C1489.86 1103 1494.61 1098.26 1494.61 1092.4C1494.61 1086.55 1489.86 1081.8 1484.01 1081.8C1478.15 1081.8 1473.41 1086.55 1473.41 1092.4C1473.41 1098.26 1478.15 1103 1484.01 1103Z" fill="#15EEB5" fill-opacity="0.3"/>
<path d="M2080.48 830.524C2081.74 829.265 2081.52 829.471 2081.74 829.265C2079.15 831.759 2080.48 830.524 2080.48 830.524Z" fill="#99D4FF"/>
<path d="M2055.05 856.26L2055.43 855.824L2051.75 859.649L2055.05 856.26Z" fill="#99D4FF"/>
<path d="M2031.31 880.023C2033.38 878.496 2039.9 871.392 2044.05 867.457L2044.71 866.84L2046.78 864.432C2041.71 869.468 2034.85 876.73 2031.31 880.023Z" fill="#99D4FF"/>
<path d="M2019.25 890.511C2019.94 890.195 2016.46 893.512 2022.13 887.835C2021.85 888.017 2021.85 888.017 2021.63 888.223C2021.02 888.864 2020.36 889.482 2019.25 890.511Z" fill="#99D4FF"/>
<path d="M2021.63 888.223C2024.06 885.959 2020.02 889.64 2021.63 888.223V888.223Z" fill="#99D4FF"/>
<path d="M2010.16 899.529L2013.46 896.14C2012.9 896.504 2010.02 899.18 2011.07 898.127C2007.81 901.238 2008.37 900.875 2010.16 899.529Z" fill="#99D4FF"/>
<path d="M2006.88 903.22L2008.59 901.55C2008.31 901.732 2007.97 901.89 2006.88 903.22Z" fill="#99D4FF"/>
<path d="M2012.21 897.702L2008.53 901.526C2008.98 901.115 2009 901.416 2010.18 899.832C2009.92 900.315 2010.63 899.42 2012.21 897.702Z" fill="#99D4FF"/>
<path d="M2014.27 895.872C2016.1 894.249 2018.37 892.214 2015.01 895.58C2021.19 889.514 2020.44 889.806 2014.27 895.872Z" fill="#99D4FF"/>
<path d="M2029.96 881.836L2032.4 879.571L2034.59 877.211C2033.44 878.518 2029.84 881.788 2029.96 881.836Z" fill="#99D4FF"/>
<path d="M1990.18 918.033C1989.92 918.516 1991.05 917.789 1991.23 917.861L1993.7 915.319C1992.47 916.3 1990.2 918.335 1990.18 918.033Z" fill="#99D4FF"/>
<path d="M1991.23 917.86L1987.55 921.685C1990.71 918.827 1991.35 917.908 1991.23 917.86Z" fill="#99D4FF"/>
<path d="M2006 904.924L2012.2 898.279L2004.89 905.953L2006 904.924Z" fill="#99D4FF"/>
<path d="M1976.58 930.843L1978.81 928.205L1974.89 932.815L1976.58 930.843Z" fill="#99D4FF"/>
<path d="M1967.56 939.305C1969.19 937.309 1965.79 940.071 1967.44 938.377C1965 940.641 1962.71 943.255 1960.74 945.409C1962.83 943.303 1964.95 941.498 1967.56 939.305Z" fill="#99D4FF"/>
<path d="M1957.47 949.099C1958.51 948.046 1959.6 946.715 1960.8 945.433C1959.7 946.462 1958.55 947.769 1957.47 949.099Z" fill="#99D4FF"/>
<path d="M1981.47 927.497C1981.19 927.679 1980.89 927.559 1978.83 929.388L1979.98 928.962C1980.52 928.296 1980.97 927.885 1981.47 927.497Z" fill="#99D4FF"/>
<path d="M1980.14 928.73C1978.59 930.171 1977.49 931.2 1977.05 931.612C1977.43 931.177 1978.37 930.377 1980.14 928.73Z" fill="#99D4FF"/>
<path d="M1981.85 927.06C1981.69 927.289 1981.63 927.265 1981.47 927.495C1981.53 927.519 1981.69 927.289 1981.85 927.06Z" fill="#99D4FF"/>
<path d="M1996.7 913.571C1994.51 915.931 1990.01 920.603 1994.07 917.223C1995.7 915.227 1993.37 917.238 1996.7 913.571Z" fill="#99D4FF"/>
<path d="M1983.29 926.451L1987.05 922.952C1986.99 922.928 1986.36 923.268 1987.51 921.961L1983.29 926.451Z" fill="#99D4FF"/>
<path d="M1981.41 928.352L1983.28 926.451L1981.96 927.686L1981.41 928.352Z" fill="#99D4FF"/>
<path d="M1963.71 943.94C1961.96 945.888 1960.19 947.535 1958.09 949.641C1960.21 947.837 1962.42 945.778 1964.57 943.696C1964.89 943.236 1965.92 941.881 1963.71 943.94Z" fill="#99D4FF"/>
<path d="M1971.57 936.782C1971.41 937.012 1971.35 936.988 1971.19 937.218C1971.41 937.012 1971.63 936.806 1971.57 936.782Z" fill="#99D4FF"/>
<path d="M1938.29 968.215C1938.35 968.239 1938.41 968.263 1938.57 968.033L1938.67 967.779L1938.29 968.215Z" fill="#99D4FF"/>
<path d="M1964.91 943.537C1966.52 942.12 1967.51 941.043 1968.49 939.966C1967.23 941.225 1965.96 942.484 1964.57 943.695C1964.41 943.925 1964.31 944.179 1964.91 943.537Z" fill="#99D4FF"/>
<path d="M1951.89 954.525C1952.68 953.955 1953.62 953.156 1954.47 952.61C1953.78 952.926 1952.21 954.065 1951.89 954.525Z" fill="#99D4FF"/>
<path d="M1970.79 937.352C1970.85 937.376 1970.95 937.123 1971.01 937.147C1970.51 937.533 1970.51 937.533 1970.79 937.352Z" fill="#99D4FF"/>
<path d="M1970.79 937.352C1969.96 938.2 1969.2 939.071 1968.5 939.966C1969.54 938.913 1970.43 938.089 1971.25 937.242C1971.07 937.17 1970.85 937.376 1970.79 937.352Z" fill="#99D4FF"/>
<path d="M1930.54 980.401C1931.1 979.156 1935.65 974.207 1939.07 971.746C1942.85 967.668 1941.32 966.768 1938.58 968.032C1938.38 968.539 1938.24 969.071 1934.33 973.101C1935.52 972.398 1942.3 966.572 1938.97 970.238C1933.96 975.298 1935.02 973.666 1932.73 975.399C1934.5 974.633 1926.01 983.01 1926.6 983.829L1931.1 979.156C1931.06 979.434 1929.37 981.406 1930.54 980.401Z" fill="#99D4FF"/>
<path d="M1945.66 961.447L1947.31 959.752C1945.64 961.145 1944.41 962.127 1942.27 963.63C1939.54 966.655 1939 967.32 1938.74 967.804L1946.36 960.552L1945.66 961.447Z" fill="#99D4FF"/>
<path d="M1954.11 953.346C1952.66 955.414 1948.82 959.469 1950.85 958.219C1955.38 953.848 1954.19 954.552 1956.99 951.551C1949.71 958.645 1959.18 949.191 1954.11 953.346C1955.6 951.881 1956.93 950.646 1958.19 949.387C1956.86 950.622 1955.64 951.604 1954.57 952.355C1954.63 952.379 1954.63 952.379 1954.79 952.149C1955.07 951.968 1955.13 951.991 1954.85 952.173L1954.69 952.403C1954.43 952.887 1954.27 953.116 1954.11 953.346C1952.06 955.175 1953.87 953.25 1954.53 952.633L1954.69 952.403C1954.69 952.403 1952.82 954.304 1951.05 955.95C1949.18 957.851 1947.31 959.751 1947.31 959.751C1948.7 958.54 1950.69 956.688 1954.11 953.346Z" fill="#99D4FF"/>
<path d="M1989.79 922.57C1989.57 922.776 1989.57 922.776 1989.67 922.522C1989.07 923.164 1988.9 923.393 1989.79 922.57Z" fill="#99D4FF"/>
<path d="M1986.79 925.197C1987.34 924.532 1987.88 923.866 1989.59 922.195C1991.04 921.008 1989.55 922.473 1989.51 922.751C1990.66 921.444 1993.29 918.672 1990.13 921.53L1989.59 922.195C1986.71 924.871 1983.13 927.562 1983.67 926.897C1984.42 926.604 1985.1 926.288 1986.79 925.197Z" fill="#99D4FF"/>
<path d="M1970.15 940.033L1963.93 946.376L1966.79 944.279L1966.77 943.977C1970.19 940.636 1969.51 940.952 1970.15 940.033Z" fill="#99D4FF"/>
<path d="M1937.67 968.555L1938.77 966.645L1934.81 971.532L1937.67 968.555Z" fill="#99D4FF"/>
<path d="M1929.76 975.989L1930.32 974.744L1928.03 977.358L1929.76 975.989Z" fill="#99D4FF"/>
<path d="M1539.09 1211.75L1537.8 1211.83C1538.38 1211.77 1538.84 1211.66 1539.09 1211.75Z" fill="#99D4FF"/>
<path d="M1547.77 1212.83L1548.15 1212.4C1547.68 1212.51 1547.46 1212.71 1547.77 1212.83Z" fill="#99D4FF"/>
<path d="M1744.36 1128.58C1742.29 1129.23 1740.13 1129.55 1740.07 1130.41L1740.41 1131.13C1742.15 1129.76 1743.33 1129.06 1744.36 1128.58Z" fill="#99D4FF"/>
<path d="M1628.6 1194.9C1628.78 1194.97 1628.9 1195.01 1629.09 1195.09C1629.75 1194.47 1630.25 1194.08 1630.86 1193.44C1630.23 1193.78 1629.45 1194.35 1628.6 1194.9Z" fill="#99D4FF"/>
<path d="M1625.65 1199.89L1623.19 1200.09C1623.71 1200 1624.48 1200.01 1625.65 1199.89Z" fill="#99D4FF"/>
<path d="M1494.88 1197.23L1493.31 1197.49C1495.1 1198.79 1494.56 1197.69 1494.88 1197.23Z" fill="#99D4FF"/>
<path d="M1850.19 1047.5C1848.12 1049.03 1846.49 1050.14 1845.04 1051.33C1847.41 1049.92 1849.29 1048.9 1850.19 1047.5Z" fill="#99D4FF"/>
<path d="M1546.9 1200.47C1546.14 1200.46 1545.63 1200.85 1545.59 1201.13C1546.46 1200.88 1546.98 1200.8 1546.9 1200.47Z" fill="#99D4FF"/>
<path d="M1838.7 1056.74C1839.04 1056.59 1839.42 1056.15 1839.76 1055.99C1841.37 1054.58 1842.98 1053.16 1844.88 1051.56C1843.18 1052.65 1841.05 1054.15 1838.7 1056.74Z" fill="#99D4FF"/>
<path d="M1400.76 991.189C1400.74 990.888 1400.72 990.586 1400.76 990.308C1400.6 990.538 1400.68 990.864 1400.76 991.189Z" fill="#99D4FF"/>
<path d="M1394.73 887.94C1394.85 888.868 1394.86 890.63 1395.02 892.161C1394.92 891.534 1394.87 890.051 1394.73 887.94Z" fill="#99D4FF"/>
<path d="M1898.35 1004.64C1900.06 1002.97 1898.67 1004.18 1898.35 1004.64V1004.64Z" fill="#99D4FF"/>
<path d="M1905.36 1001.25C1904.98 1001.69 1904.66 1002.15 1904.56 1002.4C1904.72 1002.17 1905.04 1001.71 1905.36 1001.25Z" fill="#99D4FF"/>
<path d="M1820.92 1076.41C1820.92 1076.41 1820.86 1076.38 1820.76 1076.64C1821.26 1076.25 1821.2 1076.23 1820.92 1076.41Z" fill="#99D4FF"/>
<path d="M1900.7 1002.93C1900.14 1003.29 1899.42 1003.89 1898.69 1004.48C1898.97 1004.3 1899.64 1003.68 1900.7 1002.93Z" fill="#99D4FF"/>
<path d="M1900.56 1002.58C1901.07 1002.19 1901.51 1001.78 1901.95 1001.37C1902.17 1001.16 1902.05 1001.12 1900.56 1002.58Z" fill="#99D4FF"/>
<path d="M1896.07 1006.67C1897.02 1005.87 1897.91 1005.05 1898.69 1004.48C1898.41 1004.66 1898.25 1004.89 1898.35 1004.64C1897.91 1005.05 1897.24 1005.67 1896.07 1006.67Z" fill="#99D4FF"/>
<path d="M1439.63 1126.75C1439.57 1126.73 1439.61 1126.45 1439.55 1126.43C1438.72 1125.51 1439.04 1125.93 1439.63 1126.75Z" fill="#99D4FF"/>
<path d="M1702.11 1164.1C1702.18 1164.12 1702.18 1164.12 1702.34 1163.89C1702.18 1164.12 1702.11 1164.1 1702.11 1164.1Z" fill="#99D4FF"/>
<path d="M1696.5 1168.04C1699.09 1165.54 1700.34 1164.86 1701.95 1164.33L1701.16 1162.25L1696.5 1168.04Z" fill="#99D4FF"/>
<path d="M1563.4 1226.17L1566.32 1227.9C1562.16 1227.61 1559.46 1226.35 1562.1 1228.17C1562.78 1227.09 1565.83 1228.09 1568.95 1229.13C1571.99 1230.14 1575.24 1230.84 1575.85 1229.93L1577.76 1231.06C1577.17 1230.83 1577.04 1230.97 1576.45 1230.74C1578.28 1231.85 1579.28 1231.67 1580.28 1231.48C1581.35 1231.32 1582.69 1230.89 1585.3 1231.73C1587.12 1232.44 1588.29 1233.1 1586.92 1232.95L1591.24 1233.49C1592.47 1233.78 1591.98 1234.17 1590.75 1233.88C1590.75 1233.88 1592.34 1234.31 1594 1234.58C1595.66 1234.85 1597.32 1235.12 1597.32 1235.12L1597.24 1235.09C1598.31 1234.93 1600.53 1234.84 1601.67 1234.71C1603.2 1235.32 1600.82 1234.76 1601.05 1235.24L1604.85 1235.39C1606.1 1236.27 1602.94 1236.18 1600.49 1235.6C1603.02 1238.53 1603.64 1235.68 1610.46 1238.18L1606.95 1237.95C1608.72 1239.62 1611.52 1239.56 1615.15 1241C1614.34 1240.49 1608.01 1237.8 1612.24 1237.73C1613.26 1238.13 1614.77 1238.34 1616.99 1238.25C1616.73 1239.11 1618.88 1239.19 1621.55 1239.47L1620.94 1240.58C1623.88 1240.58 1623.86 1240 1625.71 1239.76C1628.88 1240.24 1629.2 1241.14 1629.73 1241.93C1634.83 1242.4 1626.59 1240.3 1632.76 1240.62C1636.94 1241.3 1640.02 1241.16 1645.46 1240.8C1648.41 1241.19 1644.69 1241.46 1645.71 1241.86L1648.69 1241.11C1649.34 1241.17 1649.06 1241.45 1648.85 1241.56C1651.21 1241.33 1649.38 1240.42 1653.04 1240.32C1654.29 1239.27 1659.9 1242.06 1664.8 1240.71C1665.75 1241.09 1664.04 1241.38 1664.27 1241.85C1670.69 1240.91 1669.76 1241.13 1675.16 1239.78L1679.34 1240.27C1676.44 1239.52 1680.71 1238.5 1684.54 1237.5C1683.53 1237.1 1682.66 1236.95 1682.08 1236.72L1688 1235.78C1688.64 1235.84 1687.94 1236.33 1686.89 1236.88C1687.31 1236.66 1687.74 1236.64 1688.02 1236.56C1689.96 1236.75 1688.7 1237.6 1687.01 1238.28C1686.43 1238.05 1685.71 1237.96 1685.12 1237.73C1683.5 1238.44 1681.96 1239.38 1682.05 1239.99C1682.47 1239.77 1683.18 1239.67 1683.97 1239.59C1683.55 1239.81 1683.26 1239.89 1683.34 1240.12C1683.49 1240.17 1684.19 1239.87 1685.26 1239.52L1686.23 1240.68L1686.71 1240.1L1694.03 1240.28C1696.93 1239.3 1699.63 1238.44 1702.81 1237.38C1704.37 1236.83 1706.08 1236.35 1707.85 1235.89C1709.63 1235.43 1711.69 1234.9 1713.83 1234.58C1711.43 1235.76 1712.95 1236.17 1712.55 1237.17C1711.54 1236.77 1709.83 1237.06 1707.77 1237.6C1705.77 1237.97 1703.5 1238.61 1701.28 1238.7C1703.57 1238.64 1702.95 1239.17 1702.31 1239.3C1702.31 1239.3 1704.37 1238.76 1706.43 1238.42C1707.43 1238.24 1708.49 1237.88 1709.28 1237.81C1710.06 1237.53 1710.56 1237.54 1710.56 1237.54C1710.16 1238.35 1712.08 1237.95 1714.09 1237.97C1713.03 1236.39 1720.4 1236.02 1723.87 1234.88C1723.89 1235.47 1722.91 1236.24 1718.98 1236.62C1723.02 1237.25 1725.26 1233.69 1729.29 1234.12C1728.29 1234.31 1727.79 1234.3 1727.3 1234.69C1729.78 1233.74 1735.28 1233.2 1733.8 1233.97L1732.8 1234.16C1736.01 1233.69 1741.06 1232.59 1745.4 1231.6C1749.74 1230.61 1753.56 1229.22 1754.18 1228.5C1754.19 1228.7 1752.81 1230.47 1752.4 1230.89C1752.4 1230.89 1755.63 1229.08 1758.93 1227.1C1762.17 1225.29 1765.47 1223.31 1765.47 1223.31C1764.16 1224.72 1767.38 1226.76 1761.71 1228.77C1763.21 1228.59 1765.21 1228.22 1768.61 1227.05C1767.54 1227.21 1766.35 1225.97 1767.91 1225.43C1771.64 1225.74 1770.56 1225.51 1775.22 1225.42C1773.64 1225.57 1775.93 1223.19 1778.48 1222.46C1777.99 1222.84 1778.26 1224.3 1777.27 1224.68L1784.17 1221.03C1782.54 1221.74 1783.51 1222.7 1784.8 1222.83C1784.22 1222.6 1790.34 1221.35 1792.18 1220.53L1789.54 1220.84C1796.78 1218.87 1797.4 1216.02 1804.57 1214.03C1803.66 1214.63 1801.81 1217.19 1805.5 1216.13C1807.45 1214.59 1814.07 1209.09 1820.64 1206.28L1821.79 1206.35L1826.87 1204.11C1825.2 1205.38 1821.97 1207.58 1818.61 1209.73C1815.24 1211.87 1811.66 1213.93 1809.2 1215.28C1811.83 1214.77 1809.78 1215.7 1813.96 1214.26C1815.26 1214.39 1811.51 1215.8 1810.37 1216.13C1810.37 1216.13 1812.72 1215.51 1815.12 1214.72C1817.47 1214.1 1819.88 1213.32 1819.88 1213.32C1819.7 1212.28 1827.42 1209.73 1827.32 1208.92L1816.66 1213.59C1816.48 1212.55 1823.43 1208.35 1830.17 1206.18C1831.81 1206.06 1828.46 1208.59 1828.47 1208.99C1829.38 1208.38 1835.11 1206.01 1835.68 1206.04L1832.66 1207.74C1836.42 1206.72 1839.19 1203.95 1843.54 1203.35C1845.1 1202.81 1847.97 1202.98 1848.45 1202.2C1846.14 1201.87 1846.45 1198.13 1848.4 1196.58C1848.97 1196.42 1856.5 1194.57 1858.22 1194.47C1860.65 1194.47 1853.84 1198.34 1855.84 1198.36C1855.97 1198.03 1857.52 1197.09 1858.15 1196.76C1859.72 1196.42 1857.26 1197.96 1860.87 1196.48C1861.75 1195.09 1868.22 1193.59 1862.75 1194.91C1866.41 1193.07 1866.43 1193.66 1870.67 1191.86C1869.51 1191.59 1874.91 1187.93 1878.57 1186.1C1878.37 1186.4 1879.01 1186.46 1879.44 1186.44C1886.72 1183.52 1890.55 1182.33 1897.47 1179.27C1898.04 1179.3 1901.3 1178.08 1899.83 1179.24C1900.82 1178.66 1901.79 1177.89 1903.98 1176.82C1907.89 1176.05 1899.25 1179.01 1902.18 1178.81C1902.59 1178.01 1907.87 1175.46 1910.96 1173.59C1910.22 1172.91 1903.97 1176.62 1900.95 1178.33C1901.07 1177.6 1902.46 1176.41 1904.84 1174.84C1907.15 1173.25 1910.38 1171.24 1913.97 1169.37C1919.75 1166.44 1916.26 1169.12 1917.31 1168.57C1928.04 1163.73 1926.9 1161.93 1935.68 1158.64C1939.02 1157.83 1935.52 1160.31 1936.17 1160.57C1931.46 1163.15 1929.1 1163.38 1925.93 1165.02L1929.76 1163.64C1928.21 1164.57 1925.12 1166.24 1923.42 1166.93C1924.84 1166.52 1929.43 1164.47 1934.58 1162.06C1939.79 1159.49 1945.65 1156.78 1949.81 1154.95C1951.35 1153.82 1953.95 1152.34 1952.81 1152.66L1950.14 1154.11C1947.86 1154.57 1955.26 1150.73 1952 1151.95C1955.65 1149.73 1959.71 1146.89 1964.66 1144.79L1965.46 1145.3C1965.38 1145.07 1962.27 1146.35 1960.87 1147.35C1963.05 1145.89 1968.31 1144.88 1970.81 1142.39L1967.41 1143.56C1971.05 1141.13 1975.6 1137.91 1979.98 1135.97C1978.11 1136 1978.93 1136.71 1976 1137.1C1978.51 1137.13 1964.66 1142.86 1968.79 1142.17C1965.8 1142.53 1963.28 1144.44 1959.3 1145.37C1959.38 1145.6 1960.66 1145.33 1956.99 1146.97C1956.85 1147.11 1956.36 1147.5 1956.15 1147.61C1956.08 1147.58 1955.94 1147.72 1955.94 1147.72C1956.01 1147.74 1956.01 1147.74 1956.15 1147.61C1956.01 1147.74 1955.94 1147.72 1956.23 1147.64C1957.08 1147.39 1957.78 1147.09 1958 1147.18C1955.98 1148.89 1950.13 1151.79 1948.1 1153.12C1945.91 1153.99 1949.08 1152.34 1947.93 1152.47L1944.85 1154.54C1944.69 1153.89 1939.25 1156.18 1944.45 1153.22L1939.8 1155.44C1937.17 1156.33 1933.43 1157.94 1931.04 1159.32C1928.85 1160.19 1925.42 1162.7 1927.38 1161.35L1920.06 1165.22L1920.06 1165.02C1912.93 1168.19 1905.07 1173 1897.26 1175.13C1894.86 1176.31 1892.26 1177.79 1888.36 1179.15L1887.71 1178.89C1884.61 1180.37 1878.65 1182.07 1877.12 1183.4C1874.16 1183.01 1862.33 1189.15 1857.09 1190.74L1856.69 1191.75C1853.08 1193.02 1849.42 1194.86 1844.82 1196.71L1844.91 1197.33C1840.83 1199.38 1834.92 1200.53 1828.69 1202.7C1829.18 1202.31 1830.73 1201.77 1831.8 1201.61C1828.3 1201.97 1824.35 1203.69 1820.4 1205.41C1816.51 1206.97 1812.76 1208.58 1809.56 1209.05C1807.79 1209.9 1806.66 1210.22 1805.51 1210.35C1805.73 1210.24 1805.8 1210.27 1805.94 1210.13C1805.73 1210.24 1805.51 1210.35 1805.3 1210.26C1804.58 1210.37 1803.87 1210.47 1803.09 1210.55C1803.73 1210.61 1804.37 1210.48 1804.94 1210.31C1803.67 1210.78 1801.75 1211.37 1799.77 1212.14L1799.18 1211.51C1798.97 1211.62 1798.89 1211.6 1798.68 1211.71C1796.9 1211.97 1797.06 1212.61 1798 1212.79C1797.01 1213.17 1796.09 1213.58 1795.39 1214.08C1794.22 1213.23 1790.37 1215.95 1788.62 1215.07C1787.22 1216.06 1779.05 1218.24 1777.68 1219.82C1777.67 1219.63 1777.1 1219.79 1778.16 1219.44C1776.1 1219.78 1774.1 1220.15 1772.06 1221.08L1771.46 1220.26L1766.6 1222.79C1763.95 1222.9 1762.94 1222.69 1765.83 1221.33C1758.91 1224.19 1760.37 1223.03 1754.44 1225.52L1754.91 1224.74C1752.92 1225.11 1749.46 1226.83 1748.45 1226.43C1746.43 1226.22 1740.88 1227.31 1734.54 1228.47C1731.41 1228.97 1727.99 1229.55 1724.78 1230.02C1721.5 1230.47 1718.35 1230.77 1715.63 1230.86C1717.27 1232.46 1710.68 1230.64 1709.8 1232.22C1709.29 1231.83 1707.78 1231.81 1709.7 1231.21C1703.93 1232.22 1701.39 1231.41 1697.15 1233.02C1696.63 1232.62 1698.55 1232.22 1698.04 1232.02C1697.55 1232.21 1696.13 1232.62 1695.62 1232.42C1695.11 1232.21 1696.54 1232.01 1697.53 1231.62C1691.74 1232.24 1690.79 1233.6 1689.98 1235.01C1687.31 1234.54 1685.81 1234.72 1683.41 1235.9C1682.54 1235.55 1681.02 1235.15 1684.59 1234.82C1682.59 1235 1672.62 1234.73 1672.09 1235.87C1671.51 1235.64 1669.3 1235.92 1668.79 1235.92C1664.42 1235.93 1664.06 1235.79 1659.62 1235.97L1660.71 1236.2C1658.6 1237.49 1656.99 1236.47 1653.55 1236.46L1653.69 1236.33C1646.12 1235.08 1650.05 1236.82 1642.69 1235.27L1642.86 1236.11C1641.62 1237.74 1636.36 1234.7 1631.64 1234.96C1631.64 1234.96 1632 1235.1 1632.37 1235.25C1632.73 1235.39 1633.09 1235.53 1633.09 1235.53C1630.45 1235.84 1627.11 1232.4 1624.8 1231.87C1624.29 1231.67 1625.72 1231.66 1626.44 1231.75C1620.5 1229.98 1625.32 1232.66 1620.45 1232.47C1619.78 1231.82 1622.05 1231.17 1618.95 1230.53C1618.22 1230.24 1615.85 1230.27 1613.06 1230.33C1611.7 1230.37 1610.26 1230.19 1608.9 1230.04C1607.53 1229.88 1606.3 1229.59 1605.35 1229.02C1606.09 1229.7 1606.89 1230.21 1604.67 1230.1C1601.35 1229.57 1596.45 1226.67 1593.03 1227.25C1592.67 1227.11 1592.59 1226.88 1592.58 1226.69C1590 1226.44 1584.37 1225.37 1582.66 1225.66C1582.1 1223.9 1578.2 1223.13 1574.59 1222.48C1570.99 1221.83 1567.73 1220.93 1568.27 1219.79C1568.27 1219.79 1566.39 1219.24 1564.64 1218.55C1563.77 1218.21 1562.76 1218 1562.11 1217.74C1561.45 1217.49 1561.02 1217.31 1561.02 1217.31L1561.37 1217.07C1556.85 1215.09 1554.99 1214.93 1553.12 1214.97C1552.1 1214.37 1552.97 1214.52 1553.1 1214.38C1549.89 1212.73 1548.07 1211.82 1546.4 1211.16C1544.66 1210.47 1543 1210.2 1540.03 1209.42L1539.78 1208.35C1538.92 1208.2 1536.78 1206.59 1533.93 1204.88C1532.54 1203.95 1531 1202.95 1529.32 1202.1C1527.64 1201.24 1526.03 1200.22 1524.43 1199.59C1524.5 1199.62 1524.72 1199.51 1525.29 1199.54C1521.65 1197.91 1517.68 1194.99 1514.43 1192.17C1511.11 1189.51 1508.11 1187.55 1506.26 1187.98L1501.59 1185.55C1507.05 1190.02 1500.18 1186.15 1502.26 1188.33C1499.99 1186.85 1496.99 1183.16 1499.78 1185.03L1500.08 1185.54C1500.93 1185.1 1499.23 1183.66 1497.46 1182.19C1495.69 1180.72 1493.84 1179.02 1494.11 1178.55C1483.21 1170 1473.6 1159.45 1464.45 1149.46L1464.96 1151.79L1461.75 1148.21C1461.06 1146.97 1461.1 1146.02 1463.34 1148.64C1462.42 1146.73 1459.21 1145.08 1459 1145.19C1456.9 1142.43 1457.54 1142.49 1458.5 1143.25C1459.45 1143.82 1460.78 1144.93 1460.11 1144.28C1460.11 1144.28 1459.66 1143.71 1459.15 1143.32C1458.7 1142.75 1458.18 1142.36 1458.18 1142.36L1458.49 1143.06C1456.8 1141.81 1456.45 1142.06 1453.76 1138.87C1452.18 1136.71 1453.27 1137.14 1452.6 1136.29C1452.6 1136.29 1452.44 1135.84 1451.56 1135.11C1451.56 1135.11 1450.59 1133.95 1449.61 1132.8C1448.71 1131.47 1447.74 1130.32 1447.74 1130.32L1448.77 1133.23C1446.85 1131.51 1445.24 1128.56 1446.43 1131.93C1445.96 1130.78 1444.96 1128.84 1443.46 1126.89C1442.1 1124.81 1440.3 1122.56 1438.72 1120.19C1435.41 1115.61 1432.18 1111.24 1431.55 1109.84C1429.02 1107.1 1426.9 1103.75 1424.25 1099.62C1424.79 1100.8 1424.64 1102.47 1422.43 1098.71C1424.34 1098.11 1418.87 1091.12 1417.86 1086.67C1418.42 1088.44 1416.83 1085.88 1415.24 1083.51C1413.73 1081.18 1412.36 1078.9 1413.18 1081.73C1411.48 1078.36 1413.5 1080.7 1412.47 1077.78C1411.33 1075.98 1410.12 1074.15 1409.04 1071.99C1407.83 1069.97 1406.68 1067.78 1405.59 1065.22C1403.34 1060.48 1400.89 1055.64 1398.28 1050.75C1398.07 1050.86 1398.71 1052.86 1397.43 1051L1395.49 1044.63C1394.49 1042.7 1393.89 1044 1392.6 1039.63C1392.76 1040.27 1392.94 1041.31 1392.25 1040.07C1390 1034.94 1387.88 1029.47 1385.48 1024.47C1384.32 1021.88 1383.22 1019.13 1382.06 1016.55C1380.96 1013.8 1379.8 1011.22 1378.7 1008.47L1377.05 1004.34L1375.41 1000.22C1374.31 997.468 1373.35 994.579 1372.25 991.829C1370.06 986.329 1368.2 980.386 1366.28 974.609C1367.32 977.722 1366.61 975.702 1365.74 973.43C1366.23 974.972 1365.6 973.568 1365.69 973.988C1365.69 973.988 1364.89 971.548 1364.09 969.109C1363.62 967.958 1363.29 966.669 1362.97 965.772C1362.65 964.874 1362.49 964.23 1362.49 964.23C1361.79 962.602 1359.05 953.798 1358.72 952.705L1359.69 955.789C1358.4 951.612 1361.33 961.843 1361.1 961.365C1362.55 965.991 1364.62 974.145 1367.24 981.55C1367.73 983.287 1366.69 980.175 1366.94 981.239C1367.65 983.063 1368.44 985.307 1369.74 989.68L1369.58 989.231C1371.65 995.065 1373.01 999.467 1374.53 1003.93C1375.91 1008.52 1377.63 1012.87 1379.94 1019.58L1379.82 1018.18C1380.78 1021.07 1380.94 1021.71 1381.42 1023.06C1383.01 1025.62 1378.57 1015.17 1380.01 1017.48C1380.45 1019.78 1382.19 1024.71 1384.14 1029.15C1386.02 1033.75 1387.75 1038.3 1387.88 1040.09C1389.53 1044.21 1387.75 1038.3 1389.47 1042.45L1389.73 1043.91L1390.4 1044.55C1391.5 1047.3 1391.84 1048.99 1391.71 1049.32C1391.47 1048.65 1390.86 1047.63 1390.55 1046.93C1391.83 1050.72 1394.82 1056.53 1395.23 1057.85L1393.65 1053.75C1398.74 1064.26 1404.58 1077.76 1410.53 1086.09L1410.35 1085.06C1412.55 1088.43 1413.38 1089.73 1414.22 1091.41C1415 1093.07 1415.92 1094.78 1418.2 1098.58L1418.04 1098.33C1419.16 1099.54 1420.52 1101.43 1421.8 1103.48C1420.39 1101.96 1423.67 1107.69 1421.81 1105.8C1426.91 1112.45 1424.43 1108.95 1428.27 1112.4L1428.69 1114.11C1430.02 1115.22 1430.37 1114.97 1432.85 1118.46C1430.55 1116 1433.96 1121.6 1431.3 1119C1433.52 1123.36 1435.68 1125.75 1437.4 1127.78C1439.19 1129.65 1440.53 1131.14 1441.26 1133.75C1444.54 1135.43 1437.01 1126.86 1438.64 1128.27C1437.78 1126.19 1441.34 1129.72 1442.92 1132.09C1443.82 1133.21 1444.23 1134.73 1445.01 1136.58C1445.79 1138.43 1447.02 1140.65 1449.26 1143.27C1448.81 1142.71 1448.67 1142.85 1448.29 1142.31C1449.81 1144.65 1451.92 1145.68 1453.6 1148.85C1455.27 1149.31 1456.29 1152.04 1457.34 1151.1C1457.34 1151.1 1457.04 1150.79 1456.67 1150.45C1456.23 1150.08 1455.7 1149.49 1455.18 1148.89C1454.14 1147.71 1453.09 1146.53 1453.09 1146.53C1455.55 1149.04 1458.59 1150.05 1462.21 1155.14C1461.77 1154.97 1460.45 1154.06 1459.56 1153.33C1460.55 1154.87 1461.86 1155.59 1462.99 1157.19C1462.09 1157.99 1457.65 1151.8 1454.64 1149.84C1455.57 1151.75 1460.03 1154.28 1458.02 1154.26C1460.75 1154.57 1462.5 1159.5 1466.3 1161.58L1465.74 1162.14C1466.33 1162.56 1467.57 1163.24 1468.46 1164.18L1466.22 1163.48C1469.29 1165.27 1470.93 1169.2 1473.72 1171.27C1468.39 1166.08 1472.94 1169.22 1471.05 1166.35C1472.81 1167.63 1473.85 1168.81 1474.53 1169.66C1475.28 1170.53 1475.66 1171.26 1476.04 1171.99C1476.88 1173.48 1477.66 1175.34 1481.57 1178.42C1480.46 1177.6 1477.99 1174.5 1479.75 1175.58C1481.09 1177.08 1482.81 1179.1 1483.56 1180.17C1488.72 1184.33 1483.15 1178.66 1485.56 1180C1486.86 1182.44 1488.27 1181.65 1490.69 1183.18L1490.36 1184.02C1493.17 1186.67 1493.74 1186.51 1494.17 1186.49C1494.66 1186.3 1495.02 1186.24 1497.68 1188.45L1494.86 1187.92L1497.86 1189.68L1496.87 1190.06C1500.29 1191.61 1501.11 1192.51 1503.99 1195C1503.6 1193.87 1505.03 1193.86 1507.74 1195.71C1509.45 1197.34 1506.38 1195.75 1510.27 1198.25C1509.19 1198.21 1507.97 1198.11 1506.61 1196.22C1506.33 1196.31 1505.54 1196.19 1505.25 1196.27C1507.04 1198.13 1510.25 1199.78 1511.64 1200.72C1511.13 1200.32 1510.47 1199.87 1510.17 1199.56C1510.17 1199.56 1511.69 1200.16 1513.15 1200.93C1513.95 1201.25 1514.68 1201.53 1515.26 1201.76C1515.84 1201.99 1516.21 1202.13 1516.21 1202.13C1516.95 1203.01 1516.15 1202.69 1515.36 1202.57C1516.53 1203.23 1517.53 1203.24 1519.22 1204.29C1518.51 1204.59 1518.25 1205.45 1515.78 1204.28L1521.6 1206.77C1521.83 1207.25 1524.05 1209.28 1523.25 1208.97C1524.65 1210.1 1526.75 1210.74 1528.86 1211.57C1530.96 1212.4 1533.28 1213.12 1535.26 1214.48C1535.55 1214.4 1535.98 1214.57 1536.93 1214.95C1540.86 1216.89 1543.96 1219.46 1549.02 1220.69L1551.25 1222.92C1555.09 1224.24 1548.13 1219.95 1554.51 1222.08C1559.08 1223.5 1555.79 1223.74 1557.18 1224.68C1559.56 1225.04 1564 1225.06 1567.74 1227.5C1565.72 1227.09 1564.7 1226.49 1563.4 1226.17ZM1612.17 1237.89C1611.17 1237.88 1609.03 1238.2 1608.44 1237.58C1609.84 1236.78 1610.51 1237.43 1612.17 1237.89ZM1692.09 1238.16C1691.24 1238.41 1690.02 1238.51 1688.8 1238.22C1689.73 1238.2 1690.87 1238.07 1692.09 1238.16ZM1935.7 1157.1L1935.56 1157.24C1933.08 1158.19 1934 1157.78 1935.7 1157.1ZM1941.06 1154.78C1941.62 1154.42 1941.55 1154.39 1941.41 1154.33C1940.99 1154.75 1939.79 1155.24 1938.45 1155.87C1938.74 1155.98 1939.45 1155.68 1941.06 1154.78ZM1451.66 1135.92L1452.12 1136.87C1450.7 1135.35 1451.21 1135.55 1451.66 1135.92Z" fill="#99D4FF"/>
<path d="M1626.07 1199.17C1625.83 1199.08 1625.87 1198.8 1625.81 1198.78C1625.37 1199.19 1625.27 1199.44 1626.07 1199.17Z" fill="#99D4FF"/>
<path d="M1495.22 1197.08L1495.1 1197.03C1495.04 1197.01 1494.88 1197.23 1494.88 1197.23L1495.22 1197.08Z" fill="#99D4FF"/>
<path d="M1798.2 1097.94C1797.14 1098.69 1796.61 1098.77 1796.27 1098.93C1796.07 1099.44 1796.47 1099.31 1798.2 1097.94Z" fill="#99D4FF"/>
<path d="M1915.71 988.33L1912.07 991.878C1913.84 990.231 1914.41 989.867 1915.19 989.297C1915.07 989.249 1914.55 989.336 1915.71 988.33Z" fill="#99D4FF"/>
<path d="M1945.27 965.984C1945.81 965.318 1946.37 964.955 1946.92 964.289L1946.9 963.988C1944.68 966.046 1942.93 967.994 1945.27 965.984Z" fill="#99D4FF"/>
<path d="M1917.95 989.215C1918 989.818 1920.31 987.506 1922.91 985.012C1922.75 985.242 1922.62 985.194 1922.46 985.424C1923.61 983.236 1920.75 986.214 1917.95 989.215Z" fill="#99D4FF"/>
<path d="M1923.51 984.371C1924.33 983.524 1925.06 982.93 1925.88 982.083C1926.3 981.369 1924.94 982.882 1923.51 984.371Z" fill="#99D4FF"/>
<path d="M1892.74 1010.34C1893.8 1009.59 1893.84 1008.43 1894.37 1008.35C1896.01 1005.77 1886.06 1016.79 1892.74 1010.34Z" fill="#99D4FF"/>
<path d="M1919.27 990.321L1918.6 990.058L1916.94 992.332L1919.27 990.321Z" fill="#99D4FF"/>
<path d="M1899.57 1007.76L1903.51 1004.33C1903.45 1004.31 1904.06 1003.67 1904.66 1003.03C1902.16 1005.27 1899.55 1007.46 1899.57 1007.76Z" fill="#99D4FF"/>
<path d="M1904.66 1003.03C1905.99 1001.79 1907.16 1000.79 1907.92 999.914C1907.26 1000.53 1905.71 1001.97 1904.66 1003.03Z" fill="#99D4FF"/>
<path d="M1913.54 995.974L1912.47 996.726L1909.59 999.402L1913.54 995.974Z" fill="#99D4FF"/>
<path d="M1856.82 1045.43L1852.4 1049.54C1851.91 1050.23 1852.98 1049.48 1854.59 1048.06C1855.74 1046.76 1857.35 1045.34 1856.82 1045.43Z" fill="#99D4FF"/>
<path d="M1868.99 1037.33C1867.92 1038.08 1867.9 1037.78 1867.34 1038.14L1866.8 1039.69L1868.99 1037.33Z" fill="#99D4FF"/>
<path d="M1856.23 1048.71C1855.75 1049.4 1849.67 1055.21 1855.06 1050.59C1855.71 1049.68 1860.13 1045.56 1856.23 1048.71Z" fill="#99D4FF"/>
<path d="M1792.96 1098.8L1793.97 1098.02L1794.56 1095.62L1792.96 1098.8Z" fill="#99D4FF"/>
<path d="M1736.82 1143.78C1741.41 1141.2 1738.43 1141.48 1742.52 1139.29C1743.78 1138.03 1739.21 1140.92 1740.54 1139.68C1737.42 1142.26 1736.05 1142.89 1736.82 1143.78Z" fill="#99D4FF"/>
<path d="M1740.44 1139.94C1740.94 1139.55 1741.45 1139.16 1742.05 1138.52C1741.2 1139.06 1740.76 1139.48 1740.44 1139.94Z" fill="#99D4FF"/>
<path d="M1393.87 870.595L1393.55 866.072L1393.7 869.064L1393.87 870.595Z" fill="#99D4FF"/>
<path d="M1393.36 861.597L1393.34 860.414L1393.15 857.701C1393.17 858.883 1393.26 860.97 1393.36 861.597Z" fill="#99D4FF"/>
<path d="M1566.78 1215.94L1567.1 1215.48C1566.9 1215.11 1566.32 1215.17 1565.25 1215.04C1565.25 1215.04 1565.67 1215.21 1566.03 1215.35C1566.46 1215.52 1566.78 1215.94 1566.78 1215.94Z" fill="#99D4FF"/>
<path d="M1535.58 1213.01L1536.16 1212.94L1535.76 1211.32L1535.58 1213.01Z" fill="#99D4FF"/>
<path d="M1510.46 1207.78C1511.43 1208.17 1512.69 1208.37 1513.59 1208.73C1511.43 1208.17 1510.92 1205.91 1510.46 1207.78Z" fill="#99D4FF"/>
</svg>
