<svg width="25" height="19" fill="none" xmlns="http://www.w3.org/2000/svg"><path d="M20.963 7.871a.958.958 0 00-1.31-.002l-3.047 2.917-1.196-1.144a.956.956 0 00-1.308 0 .86.86 0 000 1.252l1.85 1.772c.18.171.417.258.654.258a.952.952 0 00.655-.258l3.703-3.543a.86.86 0 000-1.252z" fill="#318CCA" fill-opacity=".75"/><mask id="a" maskUnits="userSpaceOnUse" x="9.675" y="0" width="15" height="19" fill="#000"><path fill="#fff" d="M9.675 0h15v19h-15z"/><path fill-rule="evenodd" clip-rule="evenodd" d="M20.669 3.125h2.22c.612 0 1.11.477 1.11 1.063v12.75c0 .585-.498 1.062-1.11 1.062H11.787c-.612 0-1.11-.477-1.11-1.063v-1.77h1.11v1.77H22.89V4.188h-2.221v.532a.544.544 0 01-.555.531h-5.552a.544.544 0 01-.556-.531v-.532h-2.22v2.48h-1.11v-2.48c0-.585.498-1.062 1.11-1.062h2.22v-.531c0-.293.25-.531.556-.531h1.204c.23-.619.848-1.063 1.572-1.063.724 0 1.34.444 1.57 1.063h1.206c.306 0 .555.237.555.53v.532zm-4.442 0h-1.11v1.063h4.441V3.125h-1.11a.544.544 0 01-.555-.531.544.544 0 00-.555-.531.544.544 0 00-.556.53.544.544 0 01-.555.532z"/></mask><path fill-rule="evenodd" clip-rule="evenodd" d="M20.669 3.125h2.22c.612 0 1.11.477 1.11 1.063v12.75c0 .585-.498 1.062-1.11 1.062H11.787c-.612 0-1.11-.477-1.11-1.063v-1.77h1.11v1.77H22.89V4.188h-2.221v.532a.544.544 0 01-.555.531h-5.552a.544.544 0 01-.556-.531v-.532h-2.22v2.48h-1.11v-2.48c0-.585.498-1.062 1.11-1.062h2.22v-.531c0-.293.25-.531.556-.531h1.204c.23-.619.848-1.063 1.572-1.063.724 0 1.34.444 1.57 1.063h1.206c.306 0 .555.237.555.53v.532zm-4.442 0h-1.11v1.063h4.441V3.125h-1.11a.544.544 0 01-.555-.531.544.544 0 00-.555-.531.544.544 0 00-.556.53.544.544 0 01-.555.532z" fill="#318CCA" fill-opacity=".75"/><path d="M20.669 3.125h-.1v.1h.1v-.1zm-9.994 12.042v-.1h-.1v.1h.1zm1.11 0h.1v-.1h-.1v.1zm0 1.77h-.1v.1h.1v-.1zm11.105 0v.1h.1v-.1h-.1zm0-12.75h.1v-.1h-.1v.1zm-2.221 0v-.1h-.1v.1h.1zm-6.663 0h.1v-.1h-.1v.1zm-2.22 0v-.1h-.1v.1h.1zm0 2.48v.1h.1v-.1h-.1zm-1.11 0h-.1v.1h.1v-.1zm3.33-3.542v.1h.1v-.1h-.1zm1.76-1.063v.1h.07l.024-.065-.094-.034zm3.143 0l-.094.035.024.066h.07v-.1zm-3.792 1.063v-.1h-.1v.1h.1zm0 1.063h-.1v.1h.1v-.1zm4.441 0v.1h.1v-.1h-.1zm0-1.063h.1v-.1h-.1v.1zm3.332-.1h-2.221v.2h2.22v-.2zm1.21 1.163c0-.645-.548-1.163-1.21-1.163v.2c.56 0 1.01.436 1.01.962h.2zm0 12.75V4.188h-.2v12.75h.2zM22.89 18.1c.662 0 1.21-.518 1.21-1.163h-.2c0 .527-.45.963-1.01.963v.2zm-11.104 0H22.89v-.2H11.786v.2zm-1.21-1.163c0 .645.547 1.163 1.21 1.163v-.2c-.561 0-1.01-.436-1.01-.962h-.2zm0-1.77v1.77h.2v-1.77h-.2zm1.21-.1h-1.11v.2h1.11v-.2zm.1 1.87v-1.77h-.2v1.77h.2zm11.004-.1H11.786v.2H22.89v-.2zm-.1-12.65v12.75h.2V4.188h-.2zm-2.121.1h2.22v-.2h-2.22v.2zm.1.432v-.532h-.2v.532h.2zm-.655.631a.644.644 0 00.655-.631h-.2c0 .234-.2.431-.455.431v.2zm-5.552 0h5.552v-.2h-5.552v.2zm-.656-.631c0 .352.298.631.656.631v-.2a.444.444 0 01-.456-.431h-.2zm0-.532v.532h.2v-.532h-.2zm-2.12.1h2.22v-.2h-2.22v.2zm.1 2.38v-2.48h-.2v2.48h.2zm-1.21.1h1.11v-.2h-1.11v.2zm-.1-2.58v2.48h.2v-2.48h-.2zm1.21-1.162c-.663 0-1.21.518-1.21 1.163h.2c0-.527.449-.963 1.01-.963v-.2zm2.22 0h-2.22v.2h2.22v-.2zm-.1-.431v.531h.2v-.531h-.2zm.656-.631a.644.644 0 00-.656.63h.2c0-.233.2-.43.456-.43v-.2zm1.204 0h-1.204v.2h1.204v-.2zM17.338.9c-.765 0-1.42.47-1.665 1.128l.187.07a1.567 1.567 0 011.478-.998V.9zm1.665 1.128C18.758 1.369 18.103.9 17.338.9v.2c.682 0 1.262.419 1.477.997l.188-.07zm1.11-.066H18.91v.2h1.205v-.2zm.656.632a.644.644 0 00-.655-.631v.2c.255 0 .455.197.455.43h.2zm0 .531v-.531h-.2v.531h.2zm-5.652.1h1.11v-.2h-1.11v.2zm.1.962V3.125h-.2v1.063h.2zm4.341-.1h-4.441v.2h4.441v-.2zm-.1-.962v1.063h.2V3.125h-.2zm-1.01.1h1.11v-.2h-1.11v.2zm-.655-.631c0 .352.297.631.655.631v-.2a.444.444 0 01-.455-.431h-.2zm-.455-.431c.255 0 .455.197.455.43h.2a.644.644 0 00-.655-.63v.2zm-.456.43c0-.233.2-.43.456-.43v-.2a.644.644 0 00-.656.63h.2zm-.655.632a.644.644 0 00.655-.631h-.2c0 .234-.2.431-.455.431v.2z" fill="#318CCA" fill-opacity=".75" mask="url(#a)"/><path d="M1.606 11.319l-.017-.003h7.218L6.538 12.9c-.111.078-.172.183-.172.292 0 .11.06.214.172.292l.353.246c.111.077.26.12.417.12a.734.734 0 00.417-.12l3.89-2.708c.11-.077.172-.18.171-.29 0-.111-.06-.215-.172-.292L7.724 7.73a.734.734 0 00-.416-.12.735.735 0 00-.417.12l-.353.246c-.111.077-.172.18-.172.29 0 .11.06.207.172.285l2.295 1.592H1.598c-.325 0-.598.195-.598.421v.348c0 .226.281.406.606.406z" fill="#318CCA" fill-opacity=".75"/><path d="M1.606 11.366v.003a.833.833 0 01-.452-.127c-.12-.079-.204-.194-.204-.33v-.347c0-.134.08-.253.198-.336a.786.786 0 01.45-.135h7.075L6.51 8.593h0c-.12-.084-.194-.195-.194-.326 0-.13.072-.247.194-.331l.353-.246h0a.785.785 0 01.445-.129c.166 0 .325.045.445.129h0l3.89 2.708c.121.084.194.202.193.332m-10.23.636l4.903 1.492a.41.41 0 00-.193.333c0 .13.072.248.193.333h0l.354.246h0c.12.084.279.129.445.129a.785.785 0 00.445-.129l3.89-2.708h0c.121-.084.194-.201.193-.332m-10.23.636h7.042l-2.139 1.492-4.903-1.492zm10.23-.636s0 0 0 0h-.05.05s0 0 0 0z" stroke="#318CCA" stroke-opacity=".75" stroke-width=".1"/></svg>