<svg width="20" height="20" fill="none" xmlns="http://www.w3.org/2000/svg"><path fill="#fff" d="M10.335.113l9.271 9.6-10.07 9.726-9.272-9.6z"/><rect x=".5" y=".5" width="19" height="19" rx="2.5" fill="#fff" stroke="#1E2023"/><path fill-rule="evenodd" clip-rule="evenodd" d="M8.67 1.402C8.963 1.133 9.335 1 9.705 1s.734.136 1.012.413l7.277 7.277c.554.555.546 1.477-.033 2.056l-7.244 7.245-.011.01c-.584.539-1.49.544-2.045-.01l-7.245-7.245-.01-.01c-.539-.584-.544-1.49.01-2.046L8.66 1.413l.01-.01zm1.556.5a.751.751 0 00-.533-.206.817.817 0 00-.555.218L1.905 9.18a.729.729 0 00-.207.522.828.828 0 00.218.566L9.149 17.5c.278.277.755.287 1.088-.01l7.222-7.234c.327-.327.326-.796.044-1.077l-7.277-7.277zm-.935 3.971c-.105 0-.142.072-.142.141v5.048c0 .104.072.141.142.141h.794c.104 0 .141-.072.141-.141V6.014c0-.104-.072-.14-.141-.14H9.29zm-.142 6.613c0-.069.037-.14.142-.14h.826v.032c.07 0 .142.037.142.141v.903c0 .07-.037.141-.142.141h-.826c-.07 0-.142-.036-.142-.141v-.936z" fill="#000"/></svg>