<svg width="18" height="17" fill="none" xmlns="http://www.w3.org/2000/svg"><path d="M15.768 10.71a.4.4 0 00-.399.4v3.556a1.2 1.2 0 01-1.195 1.202H2.992a1.2 1.2 0 01-1.195-1.202V4.23a1.2 1.2 0 011.195-1.202h3.539a.4.4 0 00.398-.4.4.4 0 00-.398-.4H2.992A2 2 0 001 4.229v10.436a2 2 0 001.992 2.003h11.182a2 2 0 001.992-2.003V11.11a.4.4 0 00-.398-.4z" fill="#318CCA" fill-opacity=".75"/><path d="M2.992 2.077h0A2.15 2.15 0 00.85 4.229v10.437h0a2.15 2.15 0 002.142 2.153h11.182a2.15 2.15 0 002.142-2.152v0-3.557a.55.55 0 10-1.097 0v3.556a1.05 1.05 0 01-1.045 1.052H2.993a1.05 1.05 0 01-1.046-1.052V4.23c0-.581.47-1.051 1.046-1.052H6.53a.55.55 0 000-1.101H2.992z" stroke="#318CCA" stroke-opacity=".75" stroke-width=".3"/><path d="M16.008 1.197a1.787 1.787 0 00-2.536 0l-7.11 7.145a.4.4 0 00-.102.176l-.935 3.393c-.038.139 0 .288.102.39.102.102.25.141.388.102l3.376-.94a.399.399 0 00.175-.102l7.11-7.145c.699-.705.699-1.845 0-2.55l-.468-.47zM7.23 8.602l5.818-5.848 1.877 1.886-5.82 5.848-1.875-1.886zm-.375.756l1.499 1.507-2.074.578.575-2.085zm9.056-5.709l-.423.425-1.876-1.886.422-.425a.993.993 0 011.41 0l.467.47a1.006 1.006 0 010 1.416z" fill="#318CCA" fill-opacity=".75"/><path d="M14.142 1.869h0l-.318.319L15.49 3.86l.316-.317a.856.856 0 000-1.205l-1.663-.47zm0 0a.843.843 0 011.196 0h0l.467.47-1.663-.47zm-4.67 9.598l-.106-.106.106.106 7.11-7.146h0a1.96 1.96 0 000-2.76h0l-.468-.47a1.937 1.937 0 00-2.749 0l-7.11 7.145a.55.55 0 00-.14.242l.14.04-.14-.04-.934 3.393s0 0 0 0 0 0 0 0c-.053.19 0 .395.14.535h0c.14.14.344.195.535.142h0l3.375-.94a.55.55 0 00.241-.141zm5.242-6.827l-5.607 5.636-1.665-1.674 5.607-5.635 1.665 1.673zm-8.218 6.587l.436-1.58 1.136 1.142-1.572.438z" stroke="#318CCA" stroke-opacity=".75" stroke-width=".3"/></svg>