<svg width="44" height="43" fill="none" xmlns="http://www.w3.org/2000/svg"><path d="M16.158 36.73c.576.577 1.075 1.441.834 1.801l11.164-.36.72-1.44 2.881-1.44.36-10.444 6.122-7.202.36-5.402-8.642-6.482h-3.602l-3.96 3.601-5.042-2.88-2.521.36-1.8-1.08-7.203 7.561v4.322l8.643 8.642c-.24 1.921-.576 6.122 0 7.563.72 1.8.965 2.16 1.686 2.88z" fill="#99D4FF"/><rect x="13.483" y="4.249" width="12.987" height="3.075" rx="1.25" transform="rotate(132.951 13.483 4.249)" fill="#99D4FF" stroke="#5181B8" stroke-width="1.5"/><path d="M13.204 5.09c.465.433 1.395 2.061 2.992 1.464 1.857-.875 4.387 1.239 6.062 2.797M5.153 13.178c.453.422 1.377.788.635 2.675-1.063 2.233 2.887 5.292 6.95 9.075.514.478.998.942 1.455 1.384" stroke="#5181B8" stroke-width="1.5"/><rect x="39.835" y="12.608" width="12.987" height="3.075" rx="1.25" transform="rotate(-141.347 39.835 12.608)" fill="#99D4FF" stroke="#5181B8" stroke-width="1.5"/><path d="M38.975 12.392c-.397.497-1.19 1.49-.476 3.037 1.013 1.786-1.666 4.525-3.095 6.312-.822 1.027-2.01 2.731-3.38 3.585M30.306 4.97c-.387.484-.682 1.433-2.62.834-1.477-.571-3.137 1.694-5.05 3.988" stroke="#5181B8" stroke-width="1.5"/><path d="M16.698 20.454c-.72-.72-1.146 2.218-1.866.417-.444-1.108-.56 3.835-.48 5.296l.12.12c-.056.443-.097.318-.12-.12l-8.523-8.522v-4.322l7.202-7.562 1.8 1.08 2.522-.36 5.041 2.881-1.522 1.073-.417.418-3.102 1.252-.655 8.349z" fill="#BAE2FF"/><rect x="13.483" y="4.249" width="12.987" height="3.075" rx="1.25" transform="rotate(132.951 13.483 4.249)" fill="#BAE2FF" stroke="#99D4FF" stroke-width="1.5"/><path d="M13.204 5.09c.465.433 1.395 2.061 2.992 1.464 1.857-.875 4.387 1.239 6.062 2.797M5.153 13.178c.453.422 1.377.788.635 2.675-1.063 2.233 2.887 5.292 6.95 9.075.514.478.998.942 1.455 1.384" stroke="#99D4FF" stroke-width="1.5"/><path d="M28.803 15.445c.636-.796 2.778.417 2.922 1.252.2 1.16.276 6.604.105 8.35l-.244.283c.11.455.19.275.244-.282l6.554-7.595.357-5.964-7.995-6.719-1.67 1.273-2.545-.079-4.692 3.421 1.632.899.46.368h3.62l1.252 4.793z" fill="#74B3E0"/><path d="M38.975 12.392c-.397.497-1.19 1.489-.476 3.037 1.012 1.786-1.667 4.525-3.095 6.312-.822 1.027-2.01 2.731-3.381 3.585" stroke="#7BC3F6" stroke-width="1.5"/><rect x="39.834" y="12.608" width="12.987" height="3.075" rx="1.25" transform="rotate(-141.347 39.834 12.608)" fill="#74B3E0" stroke="#7BC3F6" stroke-width="1.5"/><path d="M30.305 4.97c-.386.484-.682 1.433-2.62.834-1.476-.572-3.136 1.694-5.05 3.988" stroke="#7BC3F6" stroke-width="1.5"/><path d="M17.95 38.821h10.436l.418-1.67c3.506-1.335 3.687-5.287 3.339-7.096-.14-4.035-.417-12.356-.417-13.358 0-1.002-1.948-1.252-2.922-1.252l-.418.835c.571-3.81-.421-5.112-1.67-5.844-2.922 1.67-4.174-1.553-4.174-.835V37.986h-5.427l.835.835z" fill="#54B1F2" fill-opacity=".2"/><path fill-rule="evenodd" clip-rule="evenodd" d="M25.529 12.57c0-.227.07-.577.252-.847.155-.23.406-.43.904-.43s.748.2.904.43c.182.27.252.62.252.847V23.086h1.5V15.973c.537.024.875.158 1.1.33.311.237.553.657.703 1.409.15.753.188 1.727.182 2.943-.002.494-.013 1.05-.023 1.644a138.5 138.5 0 00-.03 2.527c0 .84.009 1.658.018 2.446.022 1.934.042 3.684-.084 5.137-.089 1.017-.245 1.813-.488 2.38-.236.553-.518.81-.834.912l-.025.008-.025.01c-1.055.427-1.653.979-1.896 1.67-.115.325-.13.628-.125.866.003.108.01.212.016.294l.001.017c.007.092.01.151.01.2h1.5c0-.11-.008-.22-.014-.305v-.009a4.927 4.927 0 01-.013-.232.922.922 0 01.04-.333c.047-.134.209-.435 1.022-.769.847-.285 1.385-.949 1.723-1.739.336-.786.509-1.769.602-2.84.133-1.531.112-3.398.09-5.368-.01-.77-.019-1.557-.019-2.345 0-.892.015-1.693.03-2.452.01-.588.021-1.15.024-1.711.006-1.222-.028-2.33-.211-3.245-.184-.918-.538-1.754-1.264-2.308-.546-.417-1.222-.612-2.01-.638V12.57c0-.449-.12-1.113-.51-1.688-.416-.615-1.119-1.09-2.146-1.09s-1.73.475-2.146 1.09a3.116 3.116 0 00-.51 1.688v10.516h1.5V12.57z" fill="#7BC3F7"/><rect x="16.379" y="38.754" width="12.987" height="3.075" rx="1.25" fill="#99D4FF" stroke="#7BC3F6" stroke-width="1.5"/><path fill-rule="evenodd" clip-rule="evenodd" d="M21.597 11.829c0-.226.07-.573.251-.841.155-.228.405-.429.905-.429s.75.201.904.429c.183.268.252.616.252.84V23.136h1.5V11.828a3.1 3.1 0 00-.51-1.683c-.418-.614-1.12-1.086-2.146-1.086-1.026 0-1.728.472-2.145 1.086a2.918 2.918 0 00-.374.79 2.687 2.687 0 00-1.293-.308c-1.024 0-1.726.468-2.144 1.079a3.072 3.072 0 00-.512 1.677v6.067c-.785.202-1.377.718-1.8 1.374-.527.817-.818 1.88-.987 2.934-.281 1.754-.255 3.722-.239 4.982.004.254.007.48.007.669 0 .29-.007.619-.014.971-.02.992-.044 2.173.066 3.223.075.721.217 1.449.497 2.068.279.618.719 1.178 1.407 1.473.575.303.826.674.951 1.006.138.365.143.73.143 1.059h1.5v-.02c0-.329 0-.933-.239-1.567-.254-.676-.76-1.345-1.693-1.824l-.029-.015-.029-.012c-.246-.1-.463-.316-.644-.717-.185-.41-.305-.957-.373-1.607-.098-.95-.078-1.977-.058-2.942.007-.378.015-.746.015-1.096 0-.216-.003-.463-.007-.734-.016-1.27-.038-3.07.22-4.68.157-.978.406-1.799.767-2.358.162-.251.338-.44.539-.57v5.99h1.5V13.383c0-.222.069-.566.25-.83.154-.225.404-.426.906-.426.501 0 .752.2.906.426.174.254.244.582.25.804V23.92h1.5V13.383v-1.554z" fill="#7BC3F7"/></svg>