<svg width="32" height="28" viewBox="0 0 32 28" fill="none" xmlns="http://www.w3.org/2000/svg">
<path class="p-8C493B" d="M21.4556 5.61289H19.2623V3.76686C19.2623 2.89922 18.5564 2.19325 17.6887 2.19325H13.7473C12.8796 2.19325 12.1737 2.89922 12.1737 3.76686V5.61296H9.98047V3.76686C9.98047 1.68977 11.6702 0 13.7473 0H17.6887C19.7658 0 21.4556 1.68977 21.4556 3.76686V5.61289Z" fill="#AFD9F6"/>
<path class="p-774135" d="M17.6895 0H15.7188V2.19325H17.6895C18.5572 2.19325 19.2631 2.89922 19.2631 3.76686V5.61296H21.4563V3.76686C21.4563 1.68971 19.7664 0 17.6895 0Z" fill="#65B3E7"/>
<path class="p-F6C958" d="M28.4692 27.9766H2.96731C1.32856 27.9766 0 26.648 0 25.0092V8.36233C0 6.72352 1.32856 5.39502 2.96731 5.39502H28.4692C30.108 5.39502 31.4365 6.72358 31.4365 8.36233V25.0092C31.4365 26.648 30.108 27.9766 28.4692 27.9766Z" fill="#58ADE5"/>
<path class="p-E5BC53" d="M28.2627 5.39502H15.7188V27.9765H28.2627C30.0158 27.9765 31.437 26.5553 31.437 24.8022V8.56937C31.437 6.81623 30.0158 5.39502 28.2627 5.39502Z" fill="#4D98CB"/>
<path class="p-F5F6F6" d="M8.6169 5.39502H6.42383V27.9999H8.6169V5.39502Z" fill="#B9DFFC"/>
<path class="p-E5E5E5" d="M25.0124 5.39502H22.8193V27.9767H25.0124V5.39502Z" fill="#A1D1FD"/>
<path class="p-95E9D2" d="M4.26517 16.5446L14.5439 13.7024L12.9693 8.00775L2.69055 10.8499L4.26517 16.5446Z" fill="#A1D1FD"/>
<path class="p-D85397" d="M19.0427 23.6383L26.5918 24.8203L27.4195 19.534L19.8705 18.352L19.0427 23.6383Z" fill="#5FBEFF"/>
</svg>
