<svg width="35" height="42" fill="none" xmlns="http://www.w3.org/2000/svg"><path class="p-C5C9F7" d="M34.182 9.148v23.487h-5.743V42H5.742v-9.365H0V9.148C0 4.103 4.103 0 9.148 0h15.885c5.045 0 9.149 4.103 9.149 9.148z" fill="#B9DFFC"/><path class="p-98A0F0" d="M34.182 9.148v23.487H28.44V42H17.09V0h7.943c5.045 0 9.149 4.103 9.149 9.148z" fill="#A1D1FD"/><path class="p-97A1F0" d="M22.29 0l-5.2 13.205L11.346 0H22.29z" fill="#5FBEFF"/><path class="p-6D76E7" d="M22.291 0l-5.2 13.205V0h5.2z" fill="#4D98CB"/><path class="p-E1E4FC" d="M27.215 25.719h-4.416l2.346 5.293-2.33.758-2.593-6.051h-.297l-1.669 6.05-2.33-.757 1.165-4.505.257-.788H6.968v-2.45h5.87l3.147-8.423L9.986 0h2.642l4.462 11.045.163.402L21.529 0h2.617L17.09 18.886l-1.637 4.382h11.76v2.45z" fill="#76B7E2"/><path class="p-C5C9F7" d="M24.145 0l-7.054 18.886v-7.841l.162.402L21.53 0h2.616zM27.214 25.719H22.8l2.346 5.293-2.33.758-2.593-6.051h-.298l-1.668 6.05-1.165-.379v-8.122h10.123v2.45z" fill="#58ADE5"/><path class="p-6D76E7" d="M26.915 12.574a.763.763 0 011.527 0V42h-1.527V12.574z" fill="#58ADE5"/><path class="p-97A1F0" d="M5.74 12.574a.763.763 0 111.526 0V42H5.739V12.574z" fill="#5FBEFF"/></svg>