<svg width="35" height="42" fill="none" xmlns="http://www.w3.org/2000/svg"><path class="p-87A0AF" d="M8.619 13.771H4.514L6.156 42h2.463V13.77zM23.397 13.771h-4.105L20.934 42h2.463V13.77z" fill="#4D98CB"/><path class="p-B4D2D7" d="M20.934 13.771H18.47V42h2.463V13.77z" fill="#5FBEFF"/><path class="p-E1EBF0" d="M17.238 8.497l-2.46-.299V0h2.46v8.497zM22.164 0h-2.46v8.497h2.46V0z" fill="#B9DFFC"/><path class="p-B4D2D7" d="M27.09 8.198l-2.461.299V0h2.46v8.198z" fill="#A1D1FD"/><path class="p-B4D2D7" d="M6.157 13.771H3.694V42h2.463V13.77z" fill="#5FBEFF"/><path class="p-B4D2D7" d="M20.934 7.266l-1.642 2.086 1.642 6.31a6.163 6.163 0 006.156-6.156v-2.24h-6.156z" fill="#A1D1FD"/><path class="p-E1EBF0" d="M14.777 7.266v2.24a6.163 6.163 0 006.157 6.157V7.266h-6.157z" fill="#B9DFFC"/><path class="p-B4D2D7" d="M6.156 0L4.514 7.831l1.642 7.832a6.163 6.163 0 006.156-6.157v-3.35A6.163 6.163 0 006.156 0z" fill="#A1D1FD"/><path class="p-E1EBF0" d="M6.156 0A6.163 6.163 0 000 6.156v3.35a6.163 6.163 0 006.156 6.157V0z" fill="#B9DFFC"/><path class="p-87A0AF" d="M34.479 18.128l-4.105-1.642L32.016 42h2.463V18.128z" fill="#4D98CB"/><path class="p-B4D2D7" d="M29.554 18.128V42h2.463V16.486l-2.463 1.642z" fill="#5FBEFF"/><path class="p-B4D2D7" d="M34.479 19.06V4.925A4.923 4.923 0 0032.016.66l-1.642 9.872 1.642 8.526h2.463z" fill="#A1D1FD"/><path class="p-E1EBF0" d="M32.017.66A4.901 4.901 0 0029.554 0v19.06h2.463V.66z" fill="#B9DFFC"/></svg>