<svg width="37" height="42" fill="none" xmlns="http://www.w3.org/2000/svg"><path class="p-966641" d="M9.844 5.004v9.278l8.613 5.734 8.613-5.734V5.004H9.844z" fill="#AFD9F6"/><path class="p-7E5436" d="M27.07 5.004v9.278l-8.613 5.733V5.005h8.613z" fill="#65B3E7"/><path class="p-68544F" d="M35.684 14.848a3.687 3.687 0 01-3.692-3.692V0H24.61v12.953l-6.152 4.11-6.152-4.11V0H4.922v11.156a3.61 3.61 0 01-1.108 2.609 3.589 3.589 0 01-2.584 1.083H0v21.754L13.658 42l4.774-4.512.025.025L23.084 42l13.83-5.398V14.848h-1.23z" fill="#58ADE5"/><path class="p-53433F" d="M36.914 14.848v21.754L23.084 42l-4.627-4.487v-20.45l6.152-4.11V0h7.383v11.156a3.687 3.687 0 003.692 3.692h1.23z" fill="#4D98CB"/><path class="p-966641" d="M5.691 30.934l8.193 3.319.923-2.28-8.193-3.32-.923 2.281z" fill="#5FBEFF"/><path class="p-7E5436" d="M30.305 28.639l-8.214 3.287.913 2.286 8.214-3.288-.913-2.285z" fill="#76B7E2"/><path class="p-FFDA2D" d="M24.61 19.77h-2.462v2.46h2.461v-2.46zM24.61 24.691h-2.462v2.461h2.461v-2.46z" fill="#B9DFFC"/></svg>