<svg width="33" height="30" fill="none" xmlns="http://www.w3.org/2000/svg"><path class="p-FFB64C" d="M32.95 19.381a.956.956 0 00-.965-.965H.965a.956.956 0 00-.965.965C0 25.231 4.769 30 10.619 30H22.33c5.85 0 10.619-4.769 10.619-10.619z" fill="#65B3E7"/><path class="p-FF9100" d="M32.95 19.381C32.95 25.231 28.18 30 22.33 30h-5.855V18.416h15.51c.54 0 .965.425.965.965z" fill="#4D98CB"/><path class="p-FDE4E4" d="M22.331 11.584H10.618c-3.726 0-7.647 3.031-7.647 6.757v1.93c0 3.727 3.921 6.758 7.647 6.758h11.713a6.765 6.765 0 006.758-6.757v-1.93a6.765 6.765 0 00-6.758-6.758z" fill="#B9DFFC"/><path class="p-FDD0D0" d="M25.227 16.41a2.892 2.892 0 01-2.896 2.897H10.62a2.892 2.892 0 01-2.896-2.896c0-.541.424-.966.965-.966.54 0 .965.425.965.966 0 .54.425.965.966.965H22.33c.541 0 .966-.425.966-.965 0-.541.424-.966.965-.966.54 0 .965.425.965.966z" fill="#5FBEFF"/><path class="p-E0F4FF" d="M8.688 9.653a2.9 2.9 0 01-2.896-2.896 2.9 2.9 0 012.896-2.896 2.9 2.9 0 012.896 2.896 2.9 2.9 0 01-2.896 2.896z" fill="#B9DFFC"/><path class="p-BBDCFF" d="M24.262 5.792a2.9 2.9 0 01-2.896-2.896A2.9 2.9 0 0124.262 0a2.9 2.9 0 012.896 2.896 2.9 2.9 0 01-2.896 2.896z" fill="#65B3E7"/><path class="p-E0F4FF" d="M14.544 3.861a.965.965 0 100-1.93.965.965 0 000 1.93z" fill="#B9DFFC"/><path class="p-BBDCFF" d="M20.4 9.653a.965.965 0 100-1.93.965.965 0 000 1.93z" fill="#65B3E7"/><path class="p-FCCED3" d="M29.979 18.341v1.93c0 3.727-3.922 6.758-7.648 6.758h-5.856V11.584h5.856c3.726 0 7.648 3.031 7.648 6.757z" fill="#A1D1FD"/><path class="p-FAAAAA" d="M25.227 16.41a2.892 2.892 0 01-2.896 2.897h-5.856v-1.931h5.856c.54 0 .965-.425.965-.965 0-.541.425-.966.966-.966.54 0 .965.425.965.966z" fill="#58ADE5"/></svg>