<svg width="32" height="42" fill="none" xmlns="http://www.w3.org/2000/svg"><path class="p-E0F4FF" d="M23.133 35.684c-.148 1.968-.443 4.003-1.083 5.553l-.295.763H10.238l-.296-.763c-.64-1.55-.935-3.585-1.083-5.553l7.137-2.461 7.137 2.46z" fill="#A1D1FD"/><path class="p-BBDCFF" d="M23.133 35.684c-.148 1.968-.443 4.003-1.083 5.553l-.295.763h-5.759v-8.777l7.137 2.46z" fill="#58ADE5"/><path class="p-B2D1F2" d="M23.133 35.684H8.859c-.344-4.553.345-9.598 1.01-12.576h12.255c.664 2.978 1.353 8.023 1.009 12.576z" fill="#AFD9F6"/><path class="p-9ABADB" d="M23.133 35.684h-7.137V23.108h6.128c.664 2.978 1.353 8.023 1.009 12.576z" fill="#76B7E2"/><path class="p-BBDCFF" d="M24.61 4.922v2.46h-2.462v-2.46a2.468 2.468 0 00-2.46-2.461 2.468 2.468 0 00-2.461 2.46v10.442h-2.461V4.922c0-1.23.443-2.363 1.23-3.224A4.861 4.861 0 0119.687 0a4.936 4.936 0 014.922 4.922z" fill="#AFD9F6"/><path class="p-9ABADB" d="M24.61 4.922v2.46h-2.462v-2.46a2.468 2.468 0 00-2.46-2.461 2.468 2.468 0 00-2.461 2.46v9.528h-1.23V1.7A4.861 4.861 0 0119.686 0a4.936 4.936 0 014.922 4.922z" fill="#AFD9F6"/><path class="p-BBDCFF" d="M15.996 7.383H7.383v2.46h8.613v-2.46z" fill="#AFD9F6"/><path class="p-9ABADB" d="M27.07 7.383h-7.383v2.46h7.383v-2.46z" fill="#A1D1FD"/><path class="p-BBDCFF" d="M12.305 8.613H9.844v6.75h2.46v-6.75z" fill="#AFD9F6"/><path class="p-BBDCFF" d="M0 14.133v1.23c0 6.103 4.971 9.246 11.074 9.246h9.844c6.103 0 11.074-3.143 11.074-9.246v-1.23H0z" fill="#B9DFFC"/><path class="p-A2C7EE" d="M31.992 14.133v1.23c0 6.103-4.971 9.246-11.074 9.246h-4.922V14.133h15.996z" fill="#A1D1FD"/></svg>