<svg width="37" height="37" fill="none" xmlns="http://www.w3.org/2000/svg"><path class="p-FF9100" d="M1.473 35.528A5.011 5.011 0 005.027 37a5.011 5.011 0 003.555-1.472l-3.555-5.6-3.554 5.6z" fill="#B9DFFC"/><path class="p-FFDE55" d="M1.472 28.418A5.01 5.01 0 000 31.973c0 1.388.563 2.645 1.472 3.554L6.05 30.95l-4.578-2.532z" fill="#A1D1FD"/><path class="p-B4D2D7" d="M9.933 30.87l9.995-9.996-1.901-3.947L8.03 28.968l1.902 1.902z" fill="#B9DFFC"/><path class="p-E1EBF0" d="M6.13 27.067L8.03 28.97 19.05 17.95l-2.925-.878-9.995 9.995z" fill="#A1D1FD"/><path class="p-FF9100" d="M17.798 19.202a11.213 11.213 0 007.954 3.295c.907 0 1.79-.108 2.635-.311L21.6 13.354l-3.802 5.848z" fill="#65B3E7"/><path class="p-FFDE55" d="M14.814 8.614a11.275 11.275 0 00-.311 2.635c0 3.106 1.259 5.918 3.294 7.953l4.826-4.825-7.809-5.763z" fill="#AFD9F6"/><path class="p-FF3C7D" d="M34.23 18.64c.425-2.722-4.024-11.24-5.35-12.566L21.6 15.4l6.787 6.787a11.244 11.244 0 005.842-3.546z" fill="#4D98CB"/><path class="p-FFA2C1" d="M29.903 7.097c-1.326-1.326-8.394-4.802-11.543-4.326a11.243 11.243 0 00-3.545 5.843L21.6 15.4l8.302-8.303z" fill="#65B3E7"/><path class="p-00CC76" d="M30.511 17.094c1.32 1.32 2.401.25 3.718 1.547a11.216 11.216 0 002.46-4.757l-6.786-8.832-4.694 6.74c1.325 1.324 2.41.24 3.736 1.565s.24 2.411 1.566 3.737z" fill="#65B3E7"/><path class="p-CCFC5C" d="M23.116.311a11.215 11.215 0 00-4.757 2.46c1.297 1.317.228 2.398 1.547 3.717 1.326 1.326 2.411.24 3.737 1.566 1.325 1.326.24 2.411 1.565 3.737l5.718-5.717-7.81-5.763z" fill="#AFD9F6"/><path class="p-3440DB" d="M36.688 13.883A11.27 11.27 0 0037 11.248c0-3.106-1.26-5.918-3.295-7.954L30.355 4.6l-.453 2.497 6.786 6.786z" fill="#4D98CB"/><path class="p-2682FF" d="M33.706 3.295A11.213 11.213 0 0025.752 0c-.907 0-1.79.108-2.635.311l6.786 6.786 3.803-3.802z" fill="#65B3E7"/><path class="p-FF3C7D" d="M8.582 35.528a5.012 5.012 0 001.472-3.555 5.011 5.011 0 00-1.472-3.555l-2.8.755-.755 2.8 3.555 3.555z" fill="#4D98CB"/><path class="p-FFA2C1" d="M1.473 28.418l3.554 3.555 3.555-3.555a5.012 5.012 0 00-3.555-1.472 5.011 5.011 0 00-3.554 1.472z" fill="#58ADE5"/></svg>