<svg width="33" height="33" viewBox="0 0 33 33" fill="none" xmlns="http://www.w3.org/2000/svg">
<path class="p-ECECF1" d="M27.5275 0.900741L16.4967 6.39895L13.5969 7.52029L11.6636 8.27424L9.73042 9.00886L7.7972 9.76276L5.11002 10.7874L4.41406 8.9702L7.7972 7.67501L8.86047 8.37097L9.73042 6.92105L11.6636 6.18643L12.8043 6.70846C12.8043 6.70846 13.5582 5.45181 13.5969 5.43247L16.4967 4.31127L27.7481 0L27.5275 0.900741Z" fill="#A1D1FD"/>
<path class="p-D3D3D8" d="M27.5269 0.900741L16.4961 6.39896V4.31114L27.7475 0L27.5269 0.900741Z" fill="#B9DFFC"/>
<path class="p-D3D3D8" d="M28.5791 8.97014L27.8832 10.7874L25.1959 9.76276L23.2627 9.00886L21.3295 8.27424L19.3963 7.52022L16.4965 6.41829L15.5298 6.03164L5.46571 0.900741L5.24512 0L15.5298 3.94383L16.4965 5.91565L17.4631 4.69772L19.3963 5.43235L20.2663 6.92099L21.3295 6.1863L23.2627 6.92099L24.326 8.3709L25.1959 7.67494L28.5791 8.97014Z" fill="#A1D1FD"/>
<path class="p-BABAC0" d="M28.5787 8.97017L27.8828 10.7875L25.1956 9.76279L23.2624 9.0089L21.3291 8.27427L19.3959 7.52025L16.4961 6.41832V5.91568L17.4627 4.69775L19.3959 5.43238L20.2659 6.92102L21.3291 6.18633L23.2624 6.92102L24.3256 8.37093L25.1956 7.67498L28.5787 8.97017Z" fill="#76B7E2"/>
<path class="p-E63950" d="M30.0932 13.4745C28.4942 13.4745 27.1934 12.1737 27.1934 10.5746C27.1934 8.9756 28.4942 7.6748 30.0932 7.6748C31.6922 7.6748 32.993 8.9756 32.993 10.5746C32.993 12.1737 31.6923 13.4745 30.0932 13.4745Z" fill="#4D98CB"/>
<path class="p-E63950" d="M13.5973 5.43237V10.7294H11.6641V6.18633L13.5973 5.43237Z" fill="#5FBEFF"/>
<path class="p-E63950" d="M17.4635 4.69774V9.24087H15.5303V3.94385L16.4969 4.33043L17.4635 4.69774Z" fill="#5FBEFF"/>
<path class="p-AE2538" d="M21.3297 6.18633V10.7294H19.3965V5.43237L21.3297 6.18633Z" fill="#4D98CB"/>
<path class="p-E63950" d="M7.79688 7.67492V11.5546C7.85726 11.6017 9.7301 12.2179 9.7301 12.2179V6.9209L7.79688 7.67492Z" fill="#5FBEFF"/>
<path class="p-AE2538" d="M25.1963 11.5545V7.67485L23.2631 6.9209V12.2179C23.2027 12.0185 25.1963 11.5545 25.1963 11.5545Z" fill="#4D98CB"/>
<path class="p-AE2538" d="M17.4627 4.69788V9.24101H16.4961V4.33057L17.4627 4.69788Z" fill="#4D98CB"/>
<path class="p-FF637B" d="M2.89983 13.4745C1.3008 13.4745 0 12.1737 0 10.5746C0 8.9756 1.3008 7.6748 2.89983 7.6748C4.49886 7.6748 5.79966 8.9756 5.79966 10.5746C5.79966 12.1737 4.49892 13.4745 2.89983 13.4745Z" fill="#5FBEFF"/>
<path class="p-FF637B" d="M25.1958 11.5604V20.1374L23.05 21.2201L20.3628 19.8861L16.4964 21.8193L12.6299 19.8861L9.6721 21.3746L7.79688 20.1374V11.5604L16.4964 8.19653L25.1958 11.5604Z" fill="#B9DFFC"/>
<path class="p-E63950" d="M16.4961 8.19653L25.1956 11.5604V20.1374L23.0498 21.2201L20.3625 19.8861L16.4961 21.8193V8.19653Z" fill="#76B7E2"/>
<path class="p-FF637B" d="M25.1958 26.1694V33.0001H7.79688V26.1694L10.1747 23.2695H23.2046L25.1958 26.1694Z" fill="#B9DFFC"/>
<path class="p-E63950" d="M20.3628 17.7212L16.4964 19.6544L12.6299 17.7212L7.79688 20.1377V26.1693L12.6299 23.7528L16.4964 25.686L20.3628 23.7528L25.1958 26.1693V20.1377L20.3628 17.7212Z" fill="#5FBEFF"/>
<path class="p-E63950" d="M23.2044 23.2695L25.1956 26.1694V33.0001H16.4961V23.2695H23.2044Z" fill="#76B7E2"/>
<path class="p-AE2538" d="M20.3625 17.7212L25.1956 20.1377V26.1693L20.3625 23.7528L16.4961 25.686V19.6544L20.3625 17.7212Z" fill="#4D98CB"/>
</svg>
