<svg width="33" height="33" fill="none" xmlns="http://www.w3.org/2000/svg"><path class="p-575F64" d="M16.575 5.865V13.6H3.04V5.865h3.867L7.758 7.8l1.083-1.934h1.933L11.8 7.8l.909-1.934h3.867z" fill="#B9DFFC"/><path class="p-32393F" d="M9.808 13.6V5.865h.966L11.8 7.8l.909-1.934h3.867V13.6H9.808z" fill="#65B3E7"/><path class="p-73BCFF" d="M19.622 16.611v1.004l-1.779 2.007H1.778L0 18.507V16.61c0-2.769 2.051-5.017 4.505-5.017h10.67c2.455 0 4.447 2.248 4.447 5.017z" fill="#58ADE5"/><path class="p-0095FF" d="M19.621 16.611v1.896l-1.783 1.114H9.81v-8.026h5.35c2.462 0 4.46 2.247 4.46 5.016z" fill="#4D98CB"/><path class="p-73BCFF" d="M19.622 26.963v.995c0 2.747-1.992 5.042-4.446 5.042H4.506C2.05 33 0 30.704 0 27.958V25.18l3.616-.206h12.449l3.557 1.99z" fill="#58ADE5"/><path class="p-0095FF" d="M16.054 24.973l3.567 1.098v1.887c0 2.747-1.998 5.042-4.46 5.042h-5.35v-8.027h6.243z" fill="#4D98CB"/><path class="p-ECECF1" d="M0 17.838h19.622v8.919H0v-8.92z" fill="#B9DFFC"/><path class="p-D3D3D8" d="M9.81 17.838h9.811v8.919h-9.81v-8.92z" fill="#A1D1FD"/><path class="p-ECECF1" d="M27.673 3.932l-4.331 1.933-4.331-1.933 1.914-2.714C21.466.406 22.414 0 23.342 0c.928 0 1.875.406 2.417 1.218l1.914 2.714z" fill="#B9DFFC"/><path class="p-D3D3D8" d="M27.674 3.932l-4.331 1.933V0c.928 0 1.875.406 2.417 1.218l1.914 2.714z" fill="#A1D1FD"/><path class="p-73BCFF" d="M32.108 3.932v1.933h-4.202l-1.933 5.801h-5.26l-2.3-6.903.599-.831h13.096z" fill="#58ADE5"/><path class="p-0095FF" d="M32.108 3.932v1.933h-4.202l-1.933 5.801h-2.63V3.932h8.765z" fill="#4D98CB"/><path class="p-575F64" d="M3.04 21.334h13.535v1.934H3.04v-1.934z" fill="#5FBEFF"/><path class="p-32393F" d="M9.808 21.334h6.767v1.934H9.808v-1.934z" fill="#58ADE5"/><path class="p-0095FF" d="M12.708 19.4h1.934v5.801h-1.934v-5.8z" fill="#4D98CB"/></svg>