<svg width="32" height="24" fill="none" xmlns="http://www.w3.org/2000/svg"><path class="p-32393F" d="M24.985 11.077a6.462 6.462 0 000 12.923c3.569 0 6.523-2.893 6.523-6.462 0-3.568-2.954-6.461-6.523-6.461zm0 11.077a4.62 4.62 0 01-4.615-4.616 4.62 4.62 0 014.615-4.615c2.545 0 4.677 2.07 4.677 4.615 0 2.545-2.132 4.616-4.677 4.616z" fill="#4D98CB"/><path class="p-575F64" d="M6.523 11.077C2.955 11.077 0 13.97 0 17.538 0 21.107 2.955 24 6.523 24a6.462 6.462 0 000-12.923zm0 11.077c-2.545 0-4.677-2.07-4.677-4.616 0-2.544 2.132-4.615 4.677-4.615a4.62 4.62 0 014.616 4.615 4.62 4.62 0 01-4.616 4.616z" fill="#58ADE5"/><path class="p-73BCFF" d="M9.194 4.202l1.846 3.692-1.65.826-1.847-3.692 1.651-.826z" fill="#A1D1FD"/><path class="p-0095FF" d="M25.65 16.615L20.727 1.846 19.524.923l-.743.923 5.539 16.616h1.588a.923.923 0 000-1.847h-.258z" fill="#5FBEFF"/><path class="p-73BCFF" d="M21.901 7.385V9.23H10.787l-3.12 5.538-1.144 1.846L5.6 14.77l4.043-7.384H21.9z" fill="#A1D1FD"/><path class="p-0095FF" d="M15.754 7.385h6.148V9.23h-6.148V7.385z" fill="#5FBEFF"/><path class="p-575F64" d="M18.375 22.56l-1.55 1.034-1.071-1.606-2.555-4.105 1.532-1.034 1.023 1.779 2.621 3.932z" fill="#58ADE5"/><path class="p-32393F" d="M18.375 22.56l-1.55 1.034-1.071-1.607v-3.36l2.621 3.933z" fill="#4D98CB"/><path class="p-575F64" d="M5.6 4.615c0-.51.413-.923.923-.923h6.461V5.54H6.523a.923.923 0 01-.923-.924z" fill="#58ADE5"/><path class="p-575F64" d="M20.72 1.846h-4.966a.923.923 0 010-1.846h4.357l.61 1.846z" fill="#575F64"/><path class="p-32393F" d="M15.825 1.846a.923.923 0 110-1.846h4.286l.609 1.846h-4.895z" fill="#4D98CB"/><path class="p-D3D3D8" d="M14.973 17.538c0 .813-.35 1.551-.923 2.05a2.71 2.71 0 01-1.846.72H5.6v-5.539h6.604c.72 0 1.366.277 1.846.72a2.71 2.71 0 01.923 2.05z" fill="#B9DFFC"/><path class="p-BABAC0" d="M14.974 17.538c0 .813-.35 1.551-.923 2.05v-4.099a2.71 2.71 0 01.923 2.05z" fill="#4D98CB"/></svg>