<svg width="16" height="32" fill="none" xmlns="http://www.w3.org/2000/svg"><path class="p-ACABB1" d="M14 6.4V0h-2.4v2a1.2 1.2 0 01-2.4 0V0H6.8v2a1.2 1.2 0 01-2.4 0V0H2v6.4h12z" fill="#B9DFFC"/><path class="p-565659" d="M6.8 0H4.4v2a1.2 1.2 0 002.4 0V0zM11.6 0H9.2v2a1.2 1.2 0 102.4 0V0z" fill="#4D98CB"/><path class="p-FFDA44" d="M4 24a4 4 0 014-4V6.4H0V24a8 8 0 008 8v-4a4 4 0 01-4-4z" fill="#65B3E7"/><path class="p-FF9811" d="M14 6.4H8V20c2.21 0 3.135 1.79 3.135 4 0 2.209-.926 4-3.135 4v4a8 8 0 008-8V6.4h-2z" fill="#4D98CB"/><path class="p-FFFFFF" d="M8 28c2.209 0 3.784-1.405 3.675-4.649 0-2.209-1.466-5.946-3.675-5.946-2.21 0-4.108 2.872-4.108 5.946S5.79 28 8 28z" fill="#fff"/></svg>