<svg width="33" height="33" fill="none" xmlns="http://www.w3.org/2000/svg"><path class="p-E0F4FF" d="M33 7.734v11.73l-2.965 1.934H2.9L0 19.465V7.735h12.923l.386.966h6.382l-.29-.967.85-.928 1.083.928h5.8l1.258-1.121.676 1.121H33z" fill="#B9DFFC"/><path class="p-BBDCFF" d="M33 7.734v11.73l-2.965 1.934H16.5V8.701h3.19l-.29-.967.851-.928 1.083.928h5.8l1.258-1.121.676 1.121H33z" fill="#A1D1FD"/><path class="p-966641" d="M21.334 3.364v4.37H19.4v-4.37c0-.792-.638-1.43-1.43-1.43a1.39 1.39 0 00-1.257.792l-.213.426-2.301 4.582-.6 1.2v11.498h-1.933V8.469l3.306-6.613c.348-.677.87-1.199 1.528-1.508A3.166 3.166 0 0117.97 0a3.367 3.367 0 013.364 3.364z" fill="#5FBEFF"/><path class="p-966641" d="M20.367 11.602h-7.734v1.933h7.734v-1.933zM20.367 7.734h-7.734v1.934h7.734V7.734z" fill="#5FBEFF"/><path class="p-7E5436" d="M20.367 7.734H16.5v1.934h3.867V7.734zM20.367 11.602H16.5v1.933h3.867v-1.933zM21.334 3.364v4.37H19.4v-4.37c0-.792-.638-1.43-1.43-1.43a1.39 1.39 0 00-1.257.792l-.213.426V.348A3.166 3.166 0 0117.97 0a3.367 3.367 0 013.364 3.364z" fill="#4D98CB"/><path class="p-966641" d="M20.367 15.598h-7.734v1.933h7.734v-1.933z" fill="#5FBEFF"/><path class="p-7E5436" d="M20.367 15.598H16.5v1.933h3.867v-1.933z" fill="#4D98CB"/><path class="p-7E5436" d="M29.068 3.364v4.37h-1.933v-4.37c0-.792-.638-1.43-1.431-1.43a1.39 1.39 0 00-1.257.792l-2.514 5.008-.599 1.2v11.498H19.4V8.469l3.307-6.613A3.35 3.35 0 0125.704 0a3.367 3.367 0 013.364 3.364z" fill="#4D98CB"/><path class="p-9BFCFF" d="M33 27.2l-1.508 1.198 1.508.735V33H0v-3.867l1.083-.967L0 27.199v-7.734h33v7.734z" fill="#AFD9F6"/><path class="p-76E2F8" d="M33 27.2l-1.508 1.198 1.508.735V33H16.5V19.465H33v7.734z" fill="#76B7E2"/><path class="p-76E2F8" d="M13.6 23.332H5.865v1.042H13.6v-1.042z" fill="#58ADE5"/><path class="p-28CBF7" d="M27.135 22.44H19.4v1.042h7.735V22.44zM33 27.2h-5.865v1.933H33v-1.934z" fill="#4D98CB"/><path class="p-76E2F8" d="M5.865 27.2H0v1.933h5.865v-1.934zM21.334 28.091h-9.668v1.042h9.668V28.09z" fill="#58ADE5"/><path class="p-28CBF7" d="M21.334 28.091H16.5v1.042h4.834V28.09z" fill="#4D98CB"/></svg>