<svg width="42" height="38" viewBox="0 0 42 38" fill="none" xmlns="http://www.w3.org/2000/svg">
<mask id="mask0" mask-type="alpha" maskUnits="userSpaceOnUse" x="0" y="0" width="42" height="38">
<rect width="42" height="38" fill="#C4C4C4"/>
</mask>
<g mask="url(#mask0)">
<path class="p-CFAD9A" d="M0 0H42V7.16981H0V0Z" fill="#65B3E7"/>
<path class="p-D1E3EE" d="M6.5173 16.4905V21.3344C6.51811 21.9192 6.36858 22.4946 6.08281 23.0064L3.56644 27.4854C3.12752 28.2672 2.89697 29.1469 2.89661 30.0414C2.89525 32.3819 3.83545 34.6265 5.5093 36.2792C6.16147 36.9226 7.04483 37.2836 7.96557 37.2829C8.88604 37.2835 9.76913 36.9225 10.4211 36.2792C12.095 34.6265 13.0354 32.3819 13.0345 30.0414C13.0345 29.1467 12.8043 28.2668 12.3654 27.4847L9.84833 23.0064C9.56257 22.4946 9.41303 21.9192 9.41385 21.3344V16.4905H6.5173Z" fill="#A1D1FD"/>
<path class="p-5A6570" d="M19.5518 16.4905H22.4483V27.2452H19.5518V16.4905Z" fill="#65B3E7"/>
<path class="p-5A6570" d="M26.069 37.283H15.931V31.5472C15.9309 30.216 16.4649 28.9394 17.4155 27.9981C19.3949 26.0381 22.6045 26.0379 24.5841 27.9977C24.5842 27.9978 24.5844 27.998 24.5845 27.9981C25.5351 28.9394 26.0691 30.216 26.069 31.5472V37.283Z" fill="#65B3E7"/>
<path d="M22.4483 35.132C22.0484 35.132 21.7241 34.8109 21.7241 34.415V31.5471C21.7241 31.1511 22.0484 30.8301 22.4483 30.8301C22.8482 30.8301 23.1724 31.1511 23.1724 31.5471V34.415C23.1724 34.8109 22.8482 35.132 22.4483 35.132Z" fill="#B9DFFC"/>
<path d="M19.5517 35.132C19.1517 35.132 18.8275 34.8109 18.8275 34.415V31.5471C18.8275 31.1511 19.1517 30.8301 19.5517 30.8301C19.9516 30.8301 20.2758 31.1511 20.2758 31.5471V34.415C20.2758 34.8109 19.9516 35.132 19.5517 35.132Z" fill="#B9DFFC"/>
<path class="p-A9BFD1" d="M37.6552 29.3964H30.4138C30.0139 29.3964 29.6897 29.0753 29.6897 28.6794C29.6897 28.2834 30.0139 27.9624 30.4138 27.9624H37.6552C38.0551 27.9624 38.3794 28.2834 38.3794 28.6794C38.3794 29.0753 38.0551 29.3964 37.6552 29.3964Z" fill="#5FBEFF"/>
<path class="p-A9BFD1" d="M38.3794 32.2642H29.6897C29.2898 32.2642 28.9656 31.9431 28.9656 31.5472C28.9656 31.1512 29.2898 30.8302 29.6897 30.8302H38.3794C38.7793 30.8302 39.1035 31.1512 39.1035 31.5472C39.1035 31.9431 38.7793 32.2642 38.3794 32.2642Z" fill="#5FBEFF"/>
<path class="p-A9BFD1" d="M38.3794 35.1321H29.6897C29.2898 35.1321 28.9656 34.8111 28.9656 34.4151C28.9656 34.0191 29.2898 33.6981 29.6897 33.6981H38.3794C38.7793 33.6981 39.1035 34.0191 39.1035 34.4151C39.1035 34.8111 38.7793 35.1321 38.3794 35.1321Z" fill="#5FBEFF"/>
<path class="p-A9BFD1" d="M37.6552 38H30.4138C30.0139 38 29.6897 37.679 29.6897 37.283C29.6897 36.8871 30.0139 36.566 30.4138 36.566H37.6552C38.0551 36.566 38.3794 36.8871 38.3794 37.283C38.3794 37.679 38.0551 38 37.6552 38Z" fill="#5FBEFF"/>
<path class="p-A9BFD1" d="M34.0344 23.6603C33.6345 23.6603 33.3103 23.3393 33.3103 22.9434V16.4905C33.3103 16.0946 33.6345 15.7736 34.0344 15.7736C34.4343 15.7736 34.7586 16.0946 34.7586 16.4905V22.9434C34.7586 23.3393 34.4343 23.6603 34.0344 23.6603Z" fill="#5FBEFF"/>
<path class="p-A9BFD1" d="M35.4829 26.5284H32.5863C32.1864 26.5284 31.8622 26.2074 31.8622 25.8115C31.8622 25.4155 32.1864 25.0945 32.5863 25.0945H35.4829C35.8828 25.0945 36.207 25.4155 36.207 25.8115C36.207 26.2074 35.8828 26.5284 35.4829 26.5284Z" fill="#5FBEFF"/>
<path class="p-FFD884" d="M10.1379 17.2076H5.79309V5.01888C5.79318 4.44843 6.02219 3.90147 6.42961 3.49816C7.27794 2.65849 8.65307 2.65849 9.5014 3.49816C9.90882 3.90147 10.1378 4.44843 10.1379 5.01888V17.2076Z" fill="#4D98CB"/>
<path class="p-FFD884" d="M23.1723 17.2076H18.8275V5.01888C18.8276 4.44843 19.0566 3.90147 19.464 3.49816C20.3124 2.65849 21.6875 2.65849 22.5358 3.49816C22.9432 3.90147 23.1723 4.44843 23.1723 5.01888V17.2076Z" fill="#4D98CB"/>
<path class="p-FFD884" d="M36.207 17.2076H31.8622V5.01888C31.8623 4.44843 32.0913 3.90147 32.4987 3.49816C33.347 2.65849 34.7222 2.65849 35.5705 3.49816C35.9779 3.90147 36.2069 4.44843 36.207 5.01888V17.2076Z" fill="#4D98CB"/>
<rect width="21" height="38" fill="white" fill-opacity="0.25"/>
</g>
</svg>
