<svg width="31" height="36" fill="none" xmlns="http://www.w3.org/2000/svg"><path class="p-FF9100" d="M28.183 5.065l-8.895-2.27H8.214l-5.491 2.27C1.656 7.085.703 8.991.703 13.552v7.987c0 4.788.908 6.218 2.02 8.487l6.036 2.269h12.593l6.83-2.27c1.113-2.268 2.02-3.698 2.02-8.486v-7.987c0-2.882-.43-5.945-2.02-8.487z" fill="#58ADE5"/><path class="p-FF641A" d="M30.203 13.552v7.987c0 4.788-.908 6.218-2.02 8.487l-6.83 2.269h-5.9v-29.5h3.835l8.895 2.27c1.588 2.542 2.02 5.605 2.02 8.487z" fill="#4D98CB"/><path class="p-FFB64C" d="M0 0l2.723 5.065h25.46L30.906 0H0zM28.183 30.026H2.723L0 36h30.906l-2.723-5.974zM21.126 15.276c0 1.112-.43 2.201-1.27 3.11l-3.609 2.132c-.25.068-.521.136-.794.182-.726.181-1.475.25-2.269.25-4.447 0-7.942-2.497-7.942-5.674 0-3.176 3.495-5.672 7.942-5.672.794 0 1.566.09 2.27.226 3.313.681 5.672 2.837 5.672 5.446z" fill="#A1D1FD"/><path class="p-FFD396" d="M19.991 16.41c-1.86 0-3.517.727-4.538 1.839-.726.749-1.135 1.702-1.135 2.7 0 1.021.431 1.952 1.135 2.723 1.044 1.09 2.678 1.816 4.538 1.816 3.132 0 5.673-2.043 5.673-4.539 0-2.496-2.541-4.538-5.673-4.538z" fill="#B9DFFC"/><path class="p-FF9100" d="M16.247 20.518c-.25.068-.522.136-.794.182V9.83c3.313.681 5.673 2.837 5.673 5.446 0 1.112-.431 2.201-1.27 3.11l-3.609 2.132zM28.183 30.026L30.906 36H15.453v-5.974h12.73zM28.183 5.065h-12.73V0h15.453l-2.723 5.065z" fill="#58ADE5"/><path class="p-FFB64C" d="M25.664 20.95c0 2.495-2.541 4.538-5.673 4.538-1.86 0-3.494-.727-4.538-1.816V18.25c1.021-1.112 2.678-1.838 4.538-1.838 3.132 0 5.673 2.042 5.673 4.538z" fill="#5FBEFF"/></svg>