<svg width="34" height="34" fill="none" xmlns="http://www.w3.org/2000/svg"><path class="p-FDBF00" d="M2.267 21.18C4.667 18.252 6.657 17 17 17c10.363 0 12.327 1.251 14.712 4.162A4.934 4.934 0 0034 17c0-3.945-11.143-4.98-17-4.98-5.857 0-17 1.035-17 4.98 0 1.73.894 3.273 2.267 4.18z" fill="#A1D1FD"/><path class="p-FF9100" d="M31.712 21.162A4.934 4.934 0 0034 17c0-3.945-11.143-4.98-17-4.98V17c10.363 0 12.327 1.251 14.712 4.162z" fill="#4D98CB"/><path class="p-FF8597" d="M28.655 22.977l-.12 1.115c-.299 2.43-1.116 4.848-1.972 7.338-.22.618-.438 1.255-.658 1.893l-.219.677h-7.69v-9.031h-1.992V34h-7.69l-.219-.677c-.219-.658-.458-1.295-.657-1.933-.877-2.49-1.694-4.907-1.973-7.298l-.139-1.115h23.329z" fill="#65B3E7"/><path class="p-FFCEBF" d="M28.614 20.805L17 22.877l-.837.14-10.758-2.232.18-.956c.318-1.654.936-3.227 1.912-4.861 1.833-3.048 1.554-4.94 1.216-6.933l2.769-1.992h13.327l.459 1.992c-.3 1.992-.638 3.805 1.235 6.933.956 1.594 1.594 3.187 1.912 4.86l.2.977z" fill="#B9DFFC"/><path class="p-FF637B" d="M28.654 22.977l-.12 1.115c-.298 2.43-1.115 4.848-1.971 7.338-.22.618-.439 1.255-.658 1.893l-.22.677h-7.689v-9.031H17v-1.992h11.654z" fill="#4D98CB"/><path class="p-FFB99C" d="M28.615 20.805L17 22.877V6.043h7.81l.458 1.992c-.3 1.992-.638 3.805 1.235 6.933.956 1.594 1.594 3.187 1.912 4.86l.2.977z" fill="#A1D1FD"/><path class="p-FFDA2D" d="M34 17v5.977c0 3.944-11.143 4.98-17 4.98-5.857 0-17-1.036-17-4.98V17c0 3.945 11.143 4.98 17 4.98 5.857 0 17-1.035 17-4.98z" fill="#5FBEFF"/><path class="p-FF9468" d="M17.996 16.004H17v1.992h.996v-1.992z" fill="#4D98CB"/><path class="p-FDBF00" d="M34 17v5.977c0 3.944-11.143 4.98-17 4.98V21.98c5.857 0 17-1.035 17-4.98z" fill="#58ADE5"/><path class="p-FF637B" d="M25.268 8.035H17V0h11.196c-1.972 5.22-2.132 5.346-2.928 8.035z" fill="#4D98CB"/><path class="p-FF8597" d="M5.783 0c1.913 5 2.152 5.286 2.929 8.035h16.555c.797-2.69.956-2.815 2.928-8.035H5.783z" fill="#65B3E7"/><path class="p-FFB99C" d="M17.996 16.004h-1.992v1.992h1.992v-1.992z" fill="#65B3E7"/></svg>