<svg width="30" height="30" viewBox="0 0 30 30" fill="none" xmlns="http://www.w3.org/2000/svg">
<path class="p-FF3C7D" d="M23.4597 22.5L11.0244 21.3271L12.1972 29.9999H24.3941L23.4597 22.5Z" fill="#A1D1FD"/>
<path class="p-FFA2C1" d="M0.93433 22.5L0 29.9999H12.1969V21.3271L0.93433 22.5Z" fill="#B9DFFC"/>
<path class="p-EFE2DD" d="M28.3838 2.49146H26.626V19.2565H28.3838V2.49146Z" fill="#AFD9F6"/>
<path class="p-09607D" d="M6.41657 25.3711H4.54785V27.1289H6.41657V25.3711Z" fill="#58ADE5"/>
<path class="p-04303E" d="M19.8453 25.3711H17.9766V27.1289H19.8453V25.3711Z" fill="#4D98CB"/>
<path class="p-04303E" d="M27.5048 0L26.332 2.49162L27.5048 4.98325C28.8809 4.98325 29.9965 3.86769 29.9965 2.49162C29.9965 1.1155 28.8809 0 27.5048 0Z" fill="#4D98CB"/>
<path class="p-09607D" d="M25.0137 2.49162C25.0137 3.86769 26.1292 4.98325 27.5053 4.98325V0C26.1292 0 25.0137 1.1155 25.0137 2.49162Z" fill="#58ADE5"/>
<path class="p-00CC76" d="M12.1972 22.4997H23.4597L22.5254 14.9997L11.0244 13.8269L12.1972 22.4997Z" fill="#76B7E2"/>
<path class="p-CCFC5C" d="M12.1961 13.8269L1.86798 14.9997L0.933594 22.4997H12.1961V13.8269Z" fill="#5FBEFF"/>
<path class="p-09607D" d="M7.35114 17.8711H5.48242V19.6289H7.35114V17.8711Z" fill="#58ADE5"/>
<path class="p-04303E" d="M18.9117 17.8711H17.043V19.6289H18.9117V17.8711Z" fill="#4D98CB"/>
<path class="p-2682FF" d="M12.1972 14.9999H22.5254L21.591 7.49995L11.0244 6.32715L12.1972 14.9999Z" fill="#4D98CB"/>
<path class="p-8CBCFF" d="M12.1973 6.32715L2.80347 7.49995L1.86914 14.9999H12.1973V6.32715Z" fill="#58ADE5"/>
<path class="p-09607D" d="M8.28571 10.3711H6.41699V12.1289H8.28571V10.3711Z" fill="#5FBEFF"/>
<path class="p-04303E" d="M17.9771 10.3711H16.1084V12.1289H17.9771V10.3711Z" fill="#58ADE5"/>
<path class="p-EFE2DD" d="M21.591 7.49995L20.6567 0H12.1972L11.0244 3.74998L12.1972 7.49995H21.591Z" fill="#65B3E7"/>
<path class="p-FFF5F5" d="M12.1965 0H3.73712L2.80273 7.49995H12.1965V0Z" fill="#AFD9F6"/>
<path class="p-09607D" d="M9.2193 2.87109H7.35059V4.6289H9.2193V2.87109Z" fill="#58ADE5"/>
<path class="p-04303E" d="M17.0416 2.87109H15.1729V4.6289H17.0416V2.87109Z" fill="#4D98CB"/>
</svg>
