<svg width="32" height="24" fill="none" xmlns="http://www.w3.org/2000/svg"><path class="p-E47700" d="M3.176 2a2 2 0 012-2H26.58a2 2 0 012 2v7.199a2 2 0 01-2 2H5.176a2 2 0 01-2-2V2z" fill="#B9DFFC"/><path class="p-984D00" d="M15.878 0H26.58a2 2 0 012 2v9.199H15.878V0z" fill="#58ADE5"/><path class="p-E47700" d="M3.975 20.458h1.868V24H3.975v-3.542z" fill="#5FBEFF"/><path class="p-984D00" d="M26.287 20.458h1.868V24h-1.868v-3.542z" fill="#4D98CB"/><path class="p-984D00" d="M1.762 15.813h28.605v5.455H1.762v-5.456z" fill="#B9DFFC"/><path class="p-723802" d="M15.878 15.813h14.49v5.455h-14.49v-5.456z" fill="#58ADE5"/><path class="p-FFA900" d="M7.067 9.822h7.597V4.529H7.067v5.293z" fill="#76B7E2"/><path class="p-FF8800" d="M17.217 4.53v5.292h7.596V4.529h-7.596z" fill="#A1D1FD"/><path class="p-FBBF00" d="M31.881 11.503v5.488H0v-5.498c0-1.258 1.119-2.281 2.495-2.281h26.88c1.382 0 2.506 1.028 2.506 2.29z" fill="#5FBEFF"/><path class="p-FFA900" d="M31.88 11.503v5.488H15.879v-7.78h13.497c1.382 0 2.506 1.029 2.506 2.292z" fill="#4D98CB"/></svg>