<svg width="29" height="36" fill="none" xmlns="http://www.w3.org/2000/svg"><path class="p-005ECE" d="M28.232 26.504h-4.957v7.73h4.957v-7.73z" fill="#4D98CB"/><path class="p-006DF0" d="M23.335 19.043h-.06v7.46h4.957v-2.978c0-2.471-2.197-4.482-4.897-4.482z" fill="#58ADE5"/><path class="p-005ECE" d="M4.957 26.504H0v7.73h4.957v-7.73z" fill="#4D98CB"/><path class="p-006DF0" d="M4.957 19.043h-.06c-2.7 0-4.897 2.01-4.897 4.482v2.979h4.957v-7.462zM12.143 4.095c0-.616.5-1.974 1.974-1.974 1.312 0 1.974 1.358 1.974 1.974v1.162c1.043.107 1.186.362 2.121.744V4.095A4.1 4.1 0 0014.117 0a4.1 4.1 0 00-4.096 4.095v1.906c.936-.381 1.079-.637 2.122-.744V4.095z" fill="#58ADE5"/><path class="p-FFDE55" d="M12.178 16.705v8.084H9.2v-8.084H3.243V36h10.874V16.705h-1.939z" fill="#5FBEFF"/><path class="p-FFD422" d="M24.99 16.705h-5.957v8.084h-2.978v-8.084h-1.939V36H24.99V16.705z" fill="#76B7E2"/><path class="p-00E7F0" d="M9.2 12.238h2.978v4.468h1.939V4.343a10.783 10.783 0 00-4.095.801C6.05 6.764 3.242 10.67 3.242 15.216v1.49H9.2v-4.468z" fill="#B9DFFC"/><path class="p-00D7DF" d="M14.116 4.343v12.362h1.939v-4.467h2.978v4.467h5.957v-1.489c0-4.547-2.807-8.451-6.778-10.072a10.791 10.791 0 00-4.096-.801z" fill="#A1D1FD"/><path class="p-006DF0" d="M12.179 12.238H9.2v12.551h2.979V12.238zM19.034 12.238h-2.978v12.551h2.978V12.238z" fill="#58ADE5"/></svg>