<svg width="34" height="34" fill="none" xmlns="http://www.w3.org/2000/svg"><path class="p-5BC980" d="M3.984 13.945l10.824-3.585-.831-5.963L1.26 9.459A2 2 0 000 11.318v4.62l1.868 1.992 2.116-1.992v-1.993z" fill="#65B3E7"/><path class="p-00A38B" d="M34 11.318a2 2 0 00-1.26-1.859L21.053 4.81l-.069 6.148 9.032 2.988v1.993l1.93 1.992L34 15.938v-4.62z" fill="#4D98CB"/><path class="p-5BC980" d="M28.116 34H5.883l.857-6.11 3.287-3.984-2.152-3.984 1.813-12.63h14.623l1.813 12.63-2.152 3.984 3.287 3.985.857 6.109z" fill="#65B3E7"/><path class="p-00A38B" d="M28.117 34H17V7.29h7.311l1.813 12.63-2.151 3.985 3.287 3.985.857 6.109z" fill="#4D98CB"/><path class="p-5BC980" d="M30.016 15.938H34v3.984h-3.984v-3.985z" fill="#65B3E7"/><path class="p-81EAAC" d="M0 15.019h3.984v3.984H0V15.02zM14.012 19.922h-6.13L6.745 27.89h7.268v-7.97z" fill="#B9DFFC"/><path class="p-5BC980" d="M19.988 27.89h7.268l-1.139-7.968h-6.129v7.969z" fill="#65B3E7"/><path class="p-FFD396" d="M8.908 3.695a2 2 0 00-.25 2.523L17 18.73l-.643-11.224L12.603 0 8.908 3.695z" fill="#A1D1FD"/><path class="p-FFB64C" d="M21.397 0l-3.834 9.837L17 18.73l8.341-12.51a2 2 0 00-.25-2.524L21.398 0z" fill="#5FBEFF"/><path class="p-5BC980" d="M21.403 0l-4.402 18.727L12.598 0h8.805z" fill="#65B3E7"/><path class="p-00A38B" d="M21.403 0L17 18.727V0h4.403z" fill="#4D98CB"/></svg>