<svg width="32" height="32" fill="none" xmlns="http://www.w3.org/2000/svg"><path class="p-7C8388" d="M0 7.008l2.975 2.975 3.214.41 3.635-1.357.57-2.847-.41-3.214L7.007 0 0 7.008z" fill="#5FBEFF"/><path class="p-575F64" d="M25.811 21.606l-3.46.745-.745 3.46.411 3.214L24.992 32 32 24.992l-2.975-2.975-3.214-.41z" fill="#4D98CB"/><path class="p-7C8388" d="M24.992 0l-2.975 2.975-.41 3.214 1.357 3.635 2.847.57 3.214-.41L32 7.007 24.992 0z" fill="#4D98CB"/><path class="p-575F64" d="M10.394 25.811l-.745-3.46-3.46-.745-3.214.41L0 24.993 7.008 32l2.975-2.975.41-3.214z" fill="#5FBEFF"/><path class="p-BBDCFF" d="M20.205 16l5.607-5.606-4.205-4.205L16 11.795 10.394 6.19 6.19 10.394 11.796 16l-5.607 5.606 4.205 4.205L16 20.205l5.607 5.606 4.205-4.205L20.205 16z" fill="#A1D1FD"/><path class="p-94B4D7" d="M25.811 21.606l-4.205 4.205L16 20.205v-8.41l5.606-5.606 4.205 4.205L20.205 16l5.606 5.606z" fill="#65B3E7"/></svg>