<svg width="32" height="37" fill="none" xmlns="http://www.w3.org/2000/svg"><path class="p-FF7452" d="M3.794 0A3.798 3.798 0 000 3.794v29.412h5.42V0H3.794zM31.219 0h-9.106L10.19 4.336v27.327l21.029-2.25V0z" fill="#58ADE5"/><path class="p-FB9D46" d="M5.42 0v33.206h12.357V3.252L13.441 0H5.42z" fill="#5FBEFF"/><path class="p-F7EDBC" d="M29.05 30.496H15.61v5.42h13.44v-5.42z" fill="#A1D1FD"/><path class="p-FFFFFF" d="M3.794 30.496a2.71 2.71 0 100 5.42h13.983v-5.42H3.794z" fill="#B9DFFC"/><path class="p-E24642" d="M31.219 37v-2.168H17.777l-1.445 1.084L17.777 37H31.22zM31.219 31.58v-2.168H17.777l-1.445 1.084 1.445 1.084H31.22z" fill="#4D98CB"/><path class="p-F15D4A" d="M2.168 33.206c0-.897.73-1.626 1.626-1.626h13.983v-2.168H3.794A3.798 3.798 0 000 33.206 3.798 3.798 0 003.794 37h13.983v-2.168H3.794c-.897 0-1.626-.73-1.626-1.626z" fill="#65B3E7"/><path class="p-C42725" d="M17.777 0l-2.529 9.438 2.53 9.439 5.335 6.336V0h-5.336z" fill="#4D98CB"/><path class="p-D33734" d="M12.441 0v25.213l5.336-6.336V0h-5.336z" fill="#A1D1FD"/></svg>