<svg width="35" height="30" viewBox="0 0 35 30" fill="none" xmlns="http://www.w3.org/2000/svg">
<path class="p-D3D3D8" d="M7.71404 1.36353L3.75203 7.29778L0 18.2352L8.46968 20.7854L12.819 17.0282L7.71404 1.36353Z" fill="#A1D1FD"/>
<path class="p-BABAC0" d="M31.2477 7.68484L27.1381 1.36353L22.0332 17.0282L26.3825 20.7854L34.8522 18.2352L31.2477 7.68484Z" fill="#65B3E7"/>
<path class="p-ECECF1" d="M27.7092 30H6.29199L8.46904 21.6355L9.00344 17.9497L10.9754 17.0282L9.04039 16.1068L7.7134 1.36353H12.8183L17.4256 8.73515L22.0329 1.36353H27.1378L25.8108 16.1068L23.8758 17.0282L25.8478 17.9497L26.3822 21.6355L27.7092 30Z" fill="#B9DFFC"/>
<path class="p-D3D3D8" d="M28.5594 30H17.4258V8.73515L22.033 1.36353H27.138L25.811 16.1068L23.876 17.0282L25.848 17.9497L26.3823 21.6355L28.5594 30Z" fill="#A1D1FD"/>
<path class="p-D3D3D8" d="M22.0339 1.36353L17.4266 10.5781L12.8193 1.36353H22.0339Z" fill="#B9DFFC"/>
<path class="p-BABAC0" d="M22.033 1.36353L17.4258 10.5781V1.36353H22.033Z" fill="#A1D1FD"/>
<path class="p-32393F" d="M22.13 0.0297852L23.7785 0.854053L18.5409 11.3291L16.8926 10.5048L22.13 0.0297852Z" fill="#4D98CB"/>
<path class="p-575F64" d="M21.9414 23.9947L20.2828 24.8055L17.4263 19.0925L14.5697 24.8055L12.9111 23.9947L16.5969 16.623H18.2556L21.9414 23.9947Z" fill="#5FBEFF"/>
<path class="p-32393F" d="M18.2551 16.623L21.9409 23.9947L20.2823 24.8055L17.4258 19.0925V16.623H18.2551Z" fill="#4D98CB"/>
<path class="p-575F64" d="M21.9231 16.5861L20.3014 17.4706L17.4265 12.2923L11.0869 0.884499L12.7086 0L17.4265 8.49584L21.9231 16.5861Z" fill="#5FBEFF"/>
<path class="p-32393F" d="M21.9224 16.5864L20.3008 17.4709L17.4258 12.2925V8.49609L21.9224 16.5864Z" fill="#4D98CB"/>
<path class="p-575F64" d="M25.8492 17.9496H9.00488L9.13398 17.0281L9.04184 16.1067H25.8123L25.7201 17.0281L25.8492 17.9496Z" fill="#5FBEFF"/>
<path class="p-32393F" d="M25.848 17.9496H17.4258V16.1067H25.811L25.7189 17.0281L25.848 17.9496Z" fill="#4D98CB"/>
</svg>
