<svg width="36" height="36" fill="none" xmlns="http://www.w3.org/2000/svg"><path class="p-80D0E1" d="M17.384 26.088L10.03 21.12a1.17 1.17 0 01-.315-1.625l2.913-4.312a1.17 1.17 0 011.625-.315l7.354 4.968a1.17 1.17 0 01.315 1.624l-2.913 4.313a1.17 1.17 0 01-1.625.315z" fill="#B9DFFC"/><path class="p-51B3DA" d="M21.607 19.836l-3.677-2.484-4.223 6.252 3.677 2.484a1.17 1.17 0 001.625-.315l2.913-4.313a1.17 1.17 0 00-.315-1.624z" fill="#A1D1FD"/><path class="p-80D0E1" d="M12.138 33.857L4.783 28.89a1.17 1.17 0 01-.314-1.625l2.912-4.312a1.17 1.17 0 011.625-.315l7.355 4.967a1.17 1.17 0 01.314 1.625l-2.912 4.312a1.17 1.17 0 01-1.625.315z" fill="#B9DFFC"/><path class="p-51B3DA" d="M16.359 27.605l-3.678-2.483-4.222 6.251 3.677 2.484a1.17 1.17 0 001.625-.315l2.913-4.312a1.17 1.17 0 00-.315-1.625z" fill="#A1D1FD"/><path class="p-FF5E5B" d="M16.018 30.2l-9.294-6.278 3.645-5.396 9.295 6.277-3.646 5.397z" fill="#5FBEFF"/><path class="p-51B3DA" d="M20.298 21.775l-7.355-4.967a1.17 1.17 0 01-.15-1.82l3.5-3.317a5.062 5.062 0 014.533-4.36l3.408-5.046c.994-1.472 3-1.86 4.472-.866 1.472.994 1.86 3 .866 4.472l-3.408 5.045a5.062 5.062 0 01-2.352 5.834l-1.77 4.485a1.17 1.17 0 01-1.744.54z" fill="#A1D1FD"/><path class="p-FF423D" d="M11.373 27.061L16.02 30.2l3.644-5.396-4.647-3.14-3.644 5.397z" fill="#4D98CB"/><path class="p-39A3DB" d="M22.04 21.235l1.771-4.484a5.061 5.061 0 002.352-5.835l3.408-5.045a3.225 3.225 0 00-.866-4.472L16.62 19.292l3.677 2.483a1.17 1.17 0 001.743-.54z" fill="#65B3E7"/></svg>