<svg width="31" height="28" fill="none" xmlns="http://www.w3.org/2000/svg"><path class="p-F7B239" d="M30.522 20.34a1.377 1.377 0 00-1.887-.053c-.432.38-.88.741-1.338 1.08l-1.084-2.395-.917-2.025c-.315.194-1.086-.816-1.426-.662-.447.203-.47 1.554-.953 1.682l1.05 2.318 1.13 2.496a19.848 19.848 0 01-9.634 2.47c-3.423 0-6.716-.857-9.633-2.47l1.13-2.496 1.05-2.318c-.409-.108-.005-1.358-.388-1.52-.414-.175-1.612.734-1.992.501l-.916 2.025-1.084 2.395c-.46-.34-.906-.7-1.34-1.081a1.387 1.387 0 00-.918-.348 1.372 1.372 0 00-.912 2.398A22.548 22.548 0 0015.463 28c5.578 0 10.852-2 15.003-5.663a1.373 1.373 0 00.056-1.997z" fill="#A1D1FD"/><path class="p-E09B2D" d="M25.296 16.947c-1.426-.662-2.88-.743-2.379 1.02l1.05 2.318a8.953 8.953 0 002.246-1.313l-.917-2.025zM4.714 18.973a9.084 9.084 0 002.246 1.312l1.05-2.319c.34-2.004-1.277-2.408-2.38-1.018l-.916 2.025z" fill="#76B7E2"/><path class="p-F7B239" d="M3.54 1.977H2.327v4.291H3.54v-4.29zM28.6 1.977h-1.213v4.291h1.212v-4.29zM23.587 1.977h-1.213v4.291h1.213v-4.29zM8.551 1.977H7.34v4.291H8.55v-4.29zM13.564 1.977h-1.212v4.291h1.212v-4.29zM18.575 1.977h-1.213v4.291h1.213v-4.29z" fill="#B9DFFC"/><path class="p-E09B2D" d="M3.54 1.977H2.327V3.8H3.54V1.977zM8.551 1.977H7.34V3.8H8.55V1.977zM13.564 1.977h-1.212V3.8h1.212V1.977zM18.575 1.977h-1.213V3.8h1.213V1.977zM23.587 1.977h-1.213V3.8h1.213V1.977zM28.6 1.977h-1.213V3.8h1.212V1.977z" fill="#A1D1FD"/><path class="p-2BA5F7" d="M5.63 16.948a9.007 9.007 0 01-4.313-7.692V6.87c0-.759.616-1.374 1.375-1.374H28.236c.759 0 1.374.615 1.374 1.374v2.385a9.005 9.005 0 01-4.313 7.691 9.006 9.006 0 01-4.7 1.322H10.33a9.003 9.003 0 01-4.7-1.321z" fill="#5FBEFF"/><path class="p-2197D8" d="M12.973 16.948A9.007 9.007 0 018.66 9.256v-3.76H2.692c-.76 0-1.375.616-1.375 1.375v2.385a9.007 9.007 0 009.013 9.013h6.506c-.802 0-.743-.105-1.484-.302a8.922 8.922 0 01-2.379-1.019z" fill="#4D98CB"/><path class="p-F95428" d="M18.283 9.956c.713.713.713 1.87 0 2.583l-2.82 2.82-2.82-2.82a1.82 1.82 0 01-.535-1.291 1.827 1.827 0 013.117-1.292l.238.237.237-.237a1.82 1.82 0 011.29-.535c.469 0 .936.178 1.293.535z" fill="#4D98CB"/><path class="p-F7B239" d="M29.128 0a1.375 1.375 0 010 2.748H1.799a1.374 1.374 0 110-2.748h27.329z" fill="#B9DFFC"/><path class="p-E09B2D" d="M7.126 1.374c0-.38.154-.722.403-.971C7.778.153 8.12 0 8.5 0H1.799c-.38 0-.723.154-.972.403A1.374 1.374 0 001.8 2.749h6.702c-.76 0-1.375-.616-1.375-1.375z" fill="#A1D1FD"/></svg>