<svg width="32" height="38" fill="none" xmlns="http://www.w3.org/2000/svg"><path class="p-FF4F1A" d="M11.511 3.398V13.61H2.395v-6.84c0-2.271 0-2.271 2.04-3.487L7.04 1.82l.904-.51a2.37 2.37 0 012.382.021 2.372 2.372 0 011.185 2.067z" fill="#5FBEFF"/><path class="p-CA1C00" d="M11.512 13.611H7.04V1.82l.905-.508C8.695.889 10.258.066 11 .5c.742.434.512 3.038.512 3.898v9.213z" fill="#4D98CB"/><path class="p-F1E7DF" d="M12.921 12.985H1.158l-1 5.468h12.763v-5.468z" fill="#B9DFFC"/><path class="p-DFCDBD" d="M12.921 12.985H7.04v5.468h5.881v-5.468z" fill="#A1D1FD"/><path class="p-8A6746" d="M14.079 17.953H0V38h14.079V17.953z" fill="#65B3E7"/><path class="p-644B31" d="M14.08 17.953H7.04V38h7.04V17.953z" fill="#4D98CB"/><path class="p-60DD4E" d="M31.031 22.248c0 6.944-5.648 12.592-12.592 12.592-6.944 0-12.593-5.648-12.593-12.592 0-6.944 5.65-12.593 12.593-12.593 6.944 0 12.592 5.649 12.592 12.593z" fill="#B9DFFC"/><path class="p-00BB64" d="M31.031 22.248c0 6.944-5.649 12.592-12.592 12.592V9.655c6.943 0 12.592 5.649 12.592 12.593z" fill="#4D98CB"/><path class="p-B6EFAB" d="M27.453 22.248c0 4.97-4.044 9.015-9.015 9.015-4.971 0-9.015-4.044-9.015-9.015 0-4.972 4.044-9.016 9.015-9.016 4.971 0 9.015 4.044 9.015 9.016z" fill="#A1D1FD"/><path class="p-95E0BA" d="M18.439 31.263v-18.03c4.97 0 9.014 4.043 9.014 9.015 0 4.97-4.044 9.015-9.014 9.015z" fill="#58ADE5"/><path class="p-FFDC2D" d="M30.333 32.032v3.088a2.883 2.883 0 01-2.88 2.88H9.423a2.883 2.883 0 01-2.88-2.88v-3.088h23.79z" fill="#B9DFFC"/><path class="p-FFC002" d="M30.333 32.032v3.088a2.883 2.883 0 01-2.88 2.88H18.44v-5.968h11.894z" fill="#5FBEFF"/></svg>