<svg width="34" height="34" fill="none" xmlns="http://www.w3.org/2000/svg"><path class="p-CCF8F3" d="M13.5 0A3.5 3.5 0 0117 3.5 3.5 3.5 0 1120.5 7H18l-1 1-1-1h-2.5a3.5 3.5 0 110-7z" fill="#A1D1FD"/><path class="p-00D7DF" d="M17 3.5V7h3.5A3.5 3.5 0 1017 3.5z" fill="#5FBEFF"/><path class="p-FFFFFF" d="M20.5 5c.827 0 1.5-.673 1.5-1.5S21.327 2 20.5 2 19 2.673 19 3.5V5h1.5zM13.5 5c-.827 0-1.5-.673-1.5-1.5S12.673 2 13.5 2s1.5.673 1.5 1.5V5h-1.5z" fill="#fff"/><path class="p-00D7DF" d="M15.5 7h3a1.5 1.5 0 010 3h-3a1.5 1.5 0 010-3z" fill="#5FBEFF"/><path class="p-00A0A6" d="M17 7h1.5a1.5 1.5 0 010 3H17V7z" fill="#4D98CB"/><path class="p-EA348B" d="M4.153 20C5.115 13.77 10.501 9 17 9c6.5 0 11.885 4.77 12.847 11A4.153 4.153 0 0134 24.153v2.514A3.333 3.333 0 0130.667 30H3.333A3.333 3.333 0 010 26.667v-2.514A4.153 4.153 0 014.153 20z" fill="#A1D1FD"/><path class="p-00A0A6" d="M9 34a6 6 0 110-12 6 6 0 010 12z" fill="#5FBEFF"/><path class="p-006C70" d="M9 34a6 6 0 100-12" fill="#4D98CB"/><path class="p-00D7DF" d="M9 30.75a2.75 2.75 0 110-5.5 2.75 2.75 0 010 5.5z" fill="#B9DFFC"/><path class="p-00A0A6" d="M9 30.75a2.75 2.75 0 100-5.5" fill="#5FBEFF"/><path class="p-AF2768" d="M29.847 20A4.153 4.153 0 0134 24.153v2.514A3.333 3.333 0 0130.667 30H17V9c6.5 0 11.885 4.77 12.847 11zM19 20h7.8a10.012 10.012 0 00-7.8-7.8V20z" fill="#65B3E7"/><path class="p-00D7DF" d="M26.8 20H19v-7.8a10.012 10.012 0 017.8 7.8z" fill="#A1D1FD"/><path class="p-CCF8F3" d="M7.2 20H15v-7.8A10.012 10.012 0 007.2 20z" fill="#B9DFFC"/><path class="p-00A0A6" d="M25 34a6 6 0 110-12 6 6 0 010 12z" fill="#5FBEFF"/><path class="p-006C70" d="M25 34a6 6 0 100-12" fill="#4D98CB"/><path class="p-00D7DF" d="M25 30.75a2.75 2.75 0 110-5.5 2.75 2.75 0 010 5.5z" fill="#A1D1FD"/><path class="p-00A0A6" d="M25 30.75a2.75 2.75 0 000-5.5" fill="#5FBEFF"/></svg>