<svg width="27" height="34" fill="none" xmlns="http://www.w3.org/2000/svg"><path class="p-FDBF00" d="M20.04 17.837l-4.463.817-2.112-.598-3.048-.877-2.092-2.67 5.14-12.059 6.574 15.387z" fill="#5FBEFF"/><path class="p-FF9100" d="M15.58 18.654l-2.112-.598V2.45l6.574 15.387-4.463.817z" fill="#58ADE5"/><path class="p-FF6498" d="M22.969 24.65l-1.714 1.593-7.79-2.23-6.095-1.734-1.335-2.45 2.291-5.32 5.14 1.455 6.574 1.872 2.929 6.814z" fill="#58ADE5"/><path class="p-FF3980" d="M21.257 26.244l-7.79-2.232v-8.048l6.575 1.873 2.928 6.813-1.713 1.594z" fill="#4D98CB"/><path class="p-FDBF00" d="M25.878 31.463l-3.048 1.262-9.363-2.736-8.348-2.39-1.354-2.451 2.27-5.32 7.431 2.112 9.503 2.71 2.909 6.813z" fill="#5FBEFF"/><path class="p-FF9100" d="M25.879 31.463l-3.048 1.262-9.363-2.736V21.94l9.503 2.71 2.908 6.813z" fill="#58ADE5"/><path class="p-FF6498" d="M25.878 31.443l-12.41-3.526-9.703-2.77L0 34h26.934l-1.056-2.557z" fill="#58ADE5"/><path class="p-FF3980" d="M26.935 34H13.468v-6.083l12.411 3.526L26.935 34z" fill="#4D98CB"/><path class="p-8CD95B" d="M15.459 4.98l2.829 1.634-.997 1.713-3.825-2.191-3.824 2.191-.996-1.713 2.828-1.634-2.828-1.633.996-1.713 2.828 1.613V0h1.993v3.247l2.828-1.613.997 1.713-2.83 1.633z" fill="#58ADE5"/><path class="p-61C27C" d="M15.46 4.98l2.829 1.634-.996 1.713-3.825-2.191V0h.996v3.247l2.829-1.613.996 1.713-2.83 1.633z" fill="#4D98CB"/></svg>