<svg width="23" height="34" fill="none" xmlns="http://www.w3.org/2000/svg"><path class="p-666666" d="M15.105 0H6.99a2 2 0 00-2 2v3.424h12.115V2a2 2 0 00-2-2z" fill="#5FBEFF"/><path class="p-4D4D4D" d="M15.105 0H9.028v5.424h8.077V2a2 2 0 00-2-2z" fill="#58ADE5"/><path class="p-333333" d="M15.105 0h-2.039v5.424h4.039V2a2 2 0 00-2-2z" fill="#4D98CB"/><path class="p-79D60D" d="M20.096 5.04H2a2 2 0 00-2 2V32a2 2 0 002 2h18.096a2 2 0 002-2V7.04a2 2 0 00-2-2z" fill="#65B3E7"/><path class="p-3CC602" d="M20.097 5.04h-9.048V34h9.048a2 2 0 002-2V7.04a2 2 0 00-2-2z" fill="#4D98CB"/><path class="p-F1F1F2" d="M22.096 12.22H0v14.6h22.096v-14.6z" fill="#B9DFFC"/><path class="p-E6E6E6" d="M22.097 12.22H11.049v14.6h11.048v-14.6z" fill="#A1D1FD"/><path class="p-3CC602" d="M9.108 17.432c-1.902 1.902-1.504 5.384-1.504 5.384s3.482.399 5.384-1.503c1.902-1.902 1.504-5.385 1.504-5.385s-3.482-.398-5.384 1.504z" fill="#5FBEFF"/><path class="p-00AC00" d="M14.492 15.928s-1.748-.2-3.443.36v6.168c.697-.23 1.386-.59 1.94-1.143 1.902-1.902 1.503-5.385 1.503-5.385z" fill="#58ADE5"/></svg>