<svg width="21" height="36" fill="none" xmlns="http://www.w3.org/2000/svg"><path class="p-03232E" d="M18.06 8.97L8.745 7.562v7.3l9.317-1.407V8.97z" fill="#4D98CB"/><path class="p-07485E" d="M2.242 8.97v4.485l7.91 1.407v-7.3L2.241 8.97z" fill="#5FBEFF"/><path class="p-AB7B26" d="M20.303 36V13.455H10.15L8.745 35.296l2.462.704h2.966l1.055-.704 1.055.704h4.02z" fill="#58ADE5"/><path class="p-E1BB78" d="M0 36h4.021l1.055-.704L6.13 36h2.967l1.054-.704V13.455H0V36z" fill="#65B3E7"/><path class="p-B4D2D7" d="M20.303 4.475A4.475 4.475 0 0015.827 0h-5.675L8.744 4.485l1.408 4.485h10.15V4.475z" fill="#A1D1FD"/><path class="p-E1EBF0" d="M4.475 0A4.475 4.475 0 000 4.475V8.97h10.151V0H4.475z" fill="#B9DFFC"/><path class="p-AB7B26" d="M6.13 30.394H4.022V36h2.11v-5.606z" fill="#B9DFFC"/><path class="p-71390F" d="M11.206 30.394h-2.11V36h2.11v-5.606z" fill="#B9DFFC"/><path class="p-71390F" d="M16.282 30.394h-2.11V36h2.11v-5.606z" fill="#A1D1FD"/><path class="p-607882" d="M15.757 3.43h-2.242v2.11h2.242V3.43z" fill="#4D98CB"/><path class="p-87A0AF" d="M11.273 3.43H9.03v2.11h2.243V3.43zM6.787 3.43H4.545v2.11h2.242V3.43z" fill="#58ADE5"/></svg>