<svg width="37" height="37" fill="none" xmlns="http://www.w3.org/2000/svg"><path class="p-61D7A8" d="M34.832 20.26c0 .954-.26 1.886-.716 2.71H15.964a5.62 5.62 0 01-.716-2.71 5.394 5.394 0 013.252-4.943c.368-.195.759-.304 1.17-.39.478-2.515 2.69-4.423 5.334-4.423 2.645 0 4.856 1.908 5.333 4.423 2.515.477 4.495 2.688 4.495 5.333z" fill="#B9DFFC"/><path class="p-00AB94" d="M34.116 22.97H18.5v-7.653c.368-.195.759-.304 1.17-.39.478-2.515 2.69-4.423 5.334-4.423 2.645 0 4.856 1.908 5.333 4.423 2.515.477 4.495 2.688 4.495 5.333 0 .954-.26 1.886-.716 2.71z" fill="#58ADE5"/><path class="p-61D7A8" d="M6.738 18.569l-1.15-2.916-1.7 2.701-2.3-2.3A5.382 5.382 0 010 12.224c0-1.448.564-2.81 1.588-3.832 2.045-2.047 5.617-2.047 7.664 0l2.3 2.3-2.702 1.7 2.916 1.15-5.028 5.028z" fill="#65B3E7"/><path class="p-FF9100" d="M23.595 5.583c-1.366-1.366-3.317-1.843-5.095-1.43a5.216 5.216 0 00-2.558 1.43 5.417 5.417 0 000 7.674l.759.759 7.675-7.653-.781-.78z" fill="#58ADE5"/><path class="p-FFD396" d="M9.507 3.585l1.82 1.177-1.177 1.82-1.82-1.177 1.177-1.82zM11.763 16.577l1.748 1.281-1.281 1.749-1.749-1.282 1.282-1.748z" fill="#5FBEFF"/><path class="p-009184" d="M28.69 18.309l-2.602 1.951v-4.336H23.92v4.336l-2.602-1.951-1.3 1.734 4.337 3.252h1.3l4.335-3.252-1.3-1.734z" fill="#4D98CB"/><path class="p-FFB64C" d="M32.748 6.672c-1.793 0-3.324-1.459-3.324-3.252 0-1.793 1.531-3.252 3.324-3.252A3.256 3.256 0 0136 3.42a3.256 3.256 0 01-3.252 3.252z" fill="#4D98CB"/><path class="p-FF641A" d="M24.375 6.363L18.5 12.217V4.152c1.778-.412 3.729.065 5.095 1.43l.78.781z" fill="#4D98CB"/><path class="p-C5D3DD" d="M37 21.344v1.084c0 1.105-.152 2.19-.39 3.252l-3.946 2.168H4.408L.39 25.68C.152 24.617 0 23.534 0 22.428v-1.084h37z" fill="#A1D1FD"/><path class="p-9FACBA" d="M37 21.344v1.084c0 1.105-.152 2.19-.39 3.252l-3.946 2.168H18.5v-6.504H37z" fill="#5FBEFF"/><path class="p-DEECF1" d="M36.61 25.68c-1.778 8.216-7.986 10.63-8.355 10.912H8.744C8.397 36.31 2.168 33.852.39 25.68h36.22z" fill="#B9DFFC"/><path class="p-C5D3DD" d="M36.61 25.68c-1.778 8.216-7.986 10.63-8.354 10.912H18.5V25.68h18.11z" fill="#58ADE5"/></svg>