<svg width="33" height="33" fill="none" xmlns="http://www.w3.org/2000/svg"><path class="p-47568C" d="M27.2 0v29.133h-5.866V7.799H19.4L16.5 6.58l-.967-.406L13.6 7.799h-1.934v21.334H5.801V0h5.865v1.934H13.6c.038.058 1.701.502 2.9 1.024.27.116.541.252.735.368L19.4 1.934h1.934V0h5.865z" fill="#58ADE5"/><path class="p-2C3B73" d="M27.2 0v29.133h-5.866V7.799H19.4L16.5 6.58V2.958c.27.116.541.252.735.368L19.4 1.934h1.934V0h5.865z" fill="#4D98CB"/><path class="p-D8D8FC" d="M17.467 6.832h-1.934v3.867h1.934V6.832zM17.467 12.633h-1.934v5.8h1.934v-5.8z" fill="#A1D1FD"/><path class="p-47568C" d="M14.491 21.334v7.799h4.017v-7.799h-4.017z" fill="#58ADE5"/><path class="p-61729B" d="M13.6 1.934v5.865h5.8V1.934h-5.8z" fill="#B9DFFC"/><path class="p-61729B" d="M31.066 32.033v.039H1.934v-.039A4.836 4.836 0 016.768 27.2h19.464a4.836 4.836 0 014.834 4.834z" fill="#B9DFFB"/><path class="p-A3A3D1" d="M17.467 6.832H16.5v3.867h.967V6.832zM17.467 12.633H16.5v5.8h.967v-5.8z" fill="#58ADE5"/><path class="p-2C3B73" d="M18.509 21.334H16.5v7.799h2.009v-7.799z" fill="#4D98CB"/><path class="p-47568C" d="M19.4 1.934h-2.9v5.865h2.9V1.934z" fill="#76B7E2"/><path class="p-47568C" d="M31.066 32.033v.039H16.5v-4.873h9.732a4.836 4.836 0 014.834 4.834z" fill="#5FBEFF"/><path class="p-F2F2FC" d="M32.903 16.152c-.174.483-.502.89-.966 1.102a1.93 1.93 0 01-.87.213 1.961 1.961 0 01-1.74-1.064L27.933 13.6H5.066l-1.411 2.803c-.213.464-.62.793-1.102.967a2.294 2.294 0 01-.62.097c-.309 0-.599-.058-.87-.213-.463-.213-.792-.619-.966-1.102a1.985 1.985 0 01.116-1.489l1.933-3.867a1.91 1.91 0 011.721-1.064h25.266c.735 0 1.392.406 1.74 1.064l1.914 3.867c.232.464.271.986.116 1.489z" fill="#B9DFFC"/><path class="p-D8D8FC" d="M32.903 16.152c-.174.483-.502.89-.966 1.102a1.93 1.93 0 01-.87.213 1.961 1.961 0 01-1.74-1.064L27.933 13.6H16.5V9.732h12.633c.735 0 1.392.406 1.74 1.064l1.914 3.867c.232.464.271.986.116 1.489z" fill="#A1D1FD"/><path class="p-FF8597" d="M20.367 17.467h-7.734c-1.605 0-2.9 2.187-2.9 3.792v2.009h13.535v-2.009c0-1.605-1.296-3.792-2.9-3.792z" fill="#B9DFFB"/><path class="p-FF637B" d="M23.268 21.26v2.008H16.5v-5.801h3.867c1.605 0 2.9 2.187 2.9 3.792z" fill="#5FBEFF"/><path class="p-47568C" d="M33 31.066H0V33h33v-1.934z" fill="#58ADE5"/><path class="p-2C3B73" d="M33 31.066H16.5V33H33v-1.934z" fill="#4D98CB"/></svg>