<svg width="34" height="34" fill="none" xmlns="http://www.w3.org/2000/svg"><path class="p-FDBF00" d="M17.996.996h-1.992v8.035h1.992V.996zM29.95 24.969a6.98 6.98 0 01-6.973 6.972A6.962 6.962 0 0117 28.555a6.962 6.962 0 01-5.977 3.386 6.98 6.98 0 01-6.972-6.972h1.992c0 2.749 2.231 4.98 4.98 4.98 2.75 0 4.98-2.231 4.98-4.98h1.993c0 2.749 2.231 4.98 4.98 4.98 2.75 0 4.981-2.231 4.981-4.98h1.992z" fill="#76B7E2"/><path class="p-FDBF00" d="M17.996 20.984h-1.992V34h1.992V20.984z" fill="#76B7E2"/><path class="p-FF9100" d="M17.996.996H17v8.035h.996V.996zM29.95 24.969a6.98 6.98 0 01-6.973 6.972A6.962 6.962 0 0117 28.555v-3.586h.996c0 2.749 2.231 4.98 4.98 4.98 2.75 0 4.981-2.231 4.981-4.98h1.992z" fill="#4D98CB"/><path class="p-FF9100" d="M17.996 20.984H17V34h.996V20.984z" fill="#4D98CB"/><path class="p-FDBF00" d="M14.012 17.077v2.988A2.984 2.984 0 0017 23.054a2.984 2.984 0 002.988-2.989v-2.988h-5.976zM5.047 25.965c-1.648 0-2.988-2.26-2.988-3.907v-2.989h5.976v2.989c0 1.647-1.34 3.907-2.988 3.907z" fill="#76B7E2"/><path class="p-FF9100" d="M28.953 25.965c-1.648 0-2.988-2.26-2.988-3.907v-2.989h5.976v2.989c0 1.647-1.34 3.907-2.988 3.907z" fill="#4D98CB"/><path class="p-FDBF00" d="M4.294 16.004h1.668l1.49-1.992 2.66-3.066H0l2.642 3.066 1.652 1.992zM22.067 8.954l-2.656 3.066-.598 1.992h-2.43c-.817-.957-1.654-1.913-1.793-1.992-.28-.18-2.656-3.066-2.656-3.066h10.133z" fill="#76B7E2"/><path class="p-FF9100" d="M27.82 16.004h2.31c.6-.956 1.228-1.992 1.228-1.992l2.643-3.066H23.889l2.66 3.066s.635 1.037 1.271 1.992zM17 17.077h2.988v2.988A2.984 2.984 0 0117 23.054v-5.977zM17 8.954h5.067L19.41 12.02l-.598 1.992H17V8.954z" fill="#4D98CB"/><path class="p-FDBF00" d="M23.973 0H10.027v1.992h13.946V0z" fill="#76B7E2"/><path class="p-FF9100" d="M23.973 0H17v1.992h6.973V0z" fill="#4D98CB"/><path class="p-FFDA2D" d="M6.214 21.98H3.88a3.817 3.817 0 01-3.814-3.813c0-1.91 1.196-2.775 2.576-4.155h4.81c1.38 1.38 2.575 2.245 2.575 4.155a3.817 3.817 0 01-3.813 3.813zM19.41 12.02h-4.82c-1.387 1.386-2.57 2.236-2.57 4.163a3.818 3.818 0 003.805 3.805h2.35a3.818 3.818 0 003.805-3.805c0-1.927-1.183-2.777-2.57-4.163z" fill="#A1D1FD"/><path class="p-FDBF00" d="M30.12 21.98h-2.334a3.817 3.817 0 01-3.813-3.813c0-1.91 1.195-2.775 2.576-4.155h4.809c1.38 1.38 2.576 2.245 2.576 4.155a3.817 3.817 0 01-3.814 3.813zM18.175 19.988H17V12.02h2.41c1.387 1.386 2.57 2.236 2.57 4.163a3.818 3.818 0 01-3.805 3.805z" fill="#5FBEFF"/></svg>