<svg width="34" height="30" viewBox="0 0 34 30" fill="none" xmlns="http://www.w3.org/2000/svg">
<path class="p-FD2D12" d="M21.6322 6.79162H11.8213V0H21.6322L21.6322 6.79162Z" fill="#A1D1FD"/>
<path class="p-DE0E0E" d="M21.6317 5.88657H16.7432V0H21.6317V5.88657Z" fill="#4D98CB"/>
<path class="p-FF672A" d="M26.0308 7.52651C25.5419 6.47952 24.4908 5.8103 23.3353 5.8103H23.3326H10.1206C8.96357 5.8103 7.91161 6.48102 7.4235 7.52997L0 21.9851L4.63611 24.2512L8.22378 18.3029L7.31873 29.9999H26.1344L25.2294 18.3029L28.8431 24.2713L33.4869 21.982L26.0308 7.52651Z" fill="#5FBEFF"/>
<path class="p-FD2D12" d="M26.0308 7.52651C25.5419 6.47952 24.4908 5.8103 23.3353 5.8103H23.3326H16.7266V29.9999H26.1344L25.2294 18.3029L28.8431 24.2713L33.4869 21.982L26.0308 7.52651Z" fill="#58ADE5"/>
<path class="p-FFFFFF" d="M25.2302 16.1725L22.8366 17.8294L19.7815 15.7146L16.727 17.8294L13.6723 15.7146L10.6178 17.8294L8.22461 16.1725V18.559L10.6178 20.2159L13.6723 18.1012L16.727 20.2159L19.7816 18.1011L22.8366 20.2158L25.2302 18.5589V16.1725Z" fill="white"/>
<path class="p-F2F2F4" d="M22.8355 17.8294L19.7804 15.7146L16.7432 17.8174V20.2039L19.7805 18.1011L22.8355 20.2158L25.2291 18.5589V16.1725L22.8355 17.8294Z" fill="#F2F2F4"/>
</svg>
