<svg width="31" height="28" fill="none" xmlns="http://www.w3.org/2000/svg"><path class="p-53433F" d="M21.684 0v6.307h-1.802V1.802h-9.01v4.505H9.07V0h12.614z" fill="#B9DFFC"/><path class="p-3E322E" d="M27.09 2.773h-1.803v3.604h1.802V2.773zM21.683 0v6.307H19.88V1.802h-4.505V0h6.307z" fill="#A1D1FD"/><path class="p-53433F" d="M30.753 11.566V28H0V11.566l13.322 1.982h4.109l13.322-1.982z" fill="#58ADE5"/><path class="p-3E322E" d="M30.753 11.566V28H15.376V13.548h2.054l13.323-1.982z" fill="#4D98CB"/><path class="p-68544F" d="M30.753 4.575v6.991l-13.322 5.447h-4.109L0 11.566V4.575h30.753z" fill="#5FBEFF"/><path class="p-53433F" d="M30.753 4.575v6.991L17.43 17.013h-2.054V4.575h15.377z" fill="#76B7E2"/><path class="p-FDBF00" d="M12.674 15.247v5.545h5.406v-5.545h-5.406z" fill="#AFD9F6"/><path class="p-FF9F00" d="M18.079 15.247h-2.703v5.545h2.703v-5.545z" fill="#65B3E7"/></svg>