<svg width="30" height="30" fill="none" xmlns="http://www.w3.org/2000/svg"><path class="p-714C2F" d="M7.414 26.349l-4.652 2.857L.79 27.234l2.87-4.615 2.095-.399 2.033 2.033-.374 2.096z" fill="#58ADE5"/><path class="p-523522" d="M7.787 24.253l-.374 2.096-4.652 2.857-.986-.986 4.99-4.99 1.022 1.023z" fill="#4D98CB"/><path class="p-ECECF1" d="M25.623 4.398l-.012-.013c-6.025-6-15.53-5.7-21.255.025C.99 7.778-.633 12.617.228 17.57l.2 1.072 1.01-.412c2.769-1.122 6.249-.61 8.594 1.734a7.93 7.93 0 011.746 8.607l-.412 1.01 1.073.2c4.89.848 9.791-.811 13.147-4.167 5.887-5.887 5.85-15.404.037-21.216z" fill="#B9DFFC"/><path class="p-D3D3D8" d="M25.586 25.614a15.018 15.018 0 01-13.146 4.167l-1.073-.2.411-1.01a7.93 7.93 0 00-1.746-8.607l15.58-15.579.012.013c5.812 5.812 5.85 15.33-.038 21.216z" fill="#A1D1FD"/><path class="p-895D3C" d="M15.17 18.567l-3.729-3.73-7.958 7.959 3.742 3.741 7.946-7.97z" fill="#A1D1FD"/><path class="p-714C2F" d="M7.225 26.537l-1.883-1.883 7.958-7.958 1.87 1.871-7.945 7.97z" fill="#5FBEFF"/><path class="p-714C2F" d="M21.273 13.476A2.647 2.647 0 1125.02 9.74a2.647 2.647 0 01-3.746 3.736z" fill="#4D98CB"/><path class="p-E63950" d="M25.034 20.226a2.652 2.652 0 01-3.746.003 2.652 2.652 0 010-3.744 2.65 2.65 0 013.744 0 2.649 2.649 0 01.002 3.741z" fill="#58ADE5"/><path class="p-FBC56D" d="M4.977 13.513A2.648 2.648 0 018.721 9.77a2.652 2.652 0 010 3.744 2.648 2.648 0 01-3.744 0z" fill="#65B3E7"/><path class="p-714C2F" d="M16.524 25.01a2.648 2.648 0 01.004-3.742 2.648 2.648 0 013.742.003 2.646 2.646 0 11-3.746 3.74z" fill="#4D98CB"/><path class="p-94E368" d="M9.74 8.727a2.646 2.646 0 113.742.004 2.646 2.646 0 01-3.742-.004z" fill="#A1D1FD"/><path class="p-FF637B" d="M16.491 8.716a2.646 2.646 0 013.74-3.745 2.653 2.653 0 01.004 3.745 2.65 2.65 0 01-3.744 0z" fill="#76B7E2"/><path class="p-FF637B" d="M19.012 10.984c-.873.05-2.195 1.01-3.467 1.235-1.248.224-3.342.586-3.966 1.21a3.538 3.538 0 000 4.989 3.527 3.527 0 004.99 0c1.246-1.248 2.356-5.675 2.443-7.434z" fill="#58ADE5"/><path class="p-E63950" d="M16.568 18.418a3.527 3.527 0 01-4.989 0l7.433-7.434c-.087 1.76-1.196 6.186-2.444 7.434z" fill="#4D98CB"/></svg>