<svg width="29" height="26" fill="none" xmlns="http://www.w3.org/2000/svg"><path class="p-FD4B2D" d="M2.625 10.315c.549-.347 1.18-.67 1.888-.964 2.673-1.11 6.21-1.72 9.957-1.72 3.747 0 7.283.61 9.957 1.72.708.294 1.338.617 1.887.964 1.707-1.08 2.625-.085 2.625-3.815 0-1.875-1.602-3.572-4.512-4.78C21.753.61 18.216 0 14.47 0c-3.748 0-7.284.61-9.957 1.72C1.603 2.928 0 4.625 0 6.5c0 4.24.918 2.735 2.625 3.815z" fill="#5FBEFF"/><path class="p-E8130F" d="M24.427 1.72C22.683.997 20.573.485 18.277.217c-2.093-.244-3.807 1.491-3.807 3.598 0 2.107 1.714 3.788 3.807 4.033 2.296.268 4.406.78 6.15 1.503a12.47 12.47 0 011.887.964c1.707-1.08 2.625-.085 2.625-3.815 0-1.875-1.602-3.572-4.512-4.78z" fill="#4D98CB"/><path class="p-FF6849" d="M24.427 11.28C21.753 12.39 18.216 13 14.47 13c-3.748 0-7.284-.61-9.957-1.72C1.603 10.072 0 8.375 0 6.5v6.783c0 1.874 1.603 3.572 4.513 4.78 2.673 1.109 6.21 1.72 9.957 1.72 3.747 0 7.283-.611 9.957-1.72 2.91-1.208 4.512-2.906 4.512-4.78V6.5c0 1.875-1.602 3.572-4.512 4.78z" fill="#A1D1FD"/><path class="p-FD4B2D" d="M24.427 11.28C21.753 12.39 18.217 13 14.47 13c-1.873 0-5.3.93-5.249 3.391.065 3.109 3.376 3.392 5.249 3.392 3.747 0 7.283-.611 9.957-1.72 2.91-1.208 4.512-2.906 4.512-4.78V6.5c0 1.875-1.602 3.572-4.512 4.78z" fill="#58ADE5"/><path class="p-FFEA84" d="M14.469 26a4.527 4.527 0 01-4.522-4.522 4.527 4.527 0 014.522-4.522 4.527 4.527 0 014.522 4.522A4.527 4.527 0 0114.469 26z" fill="#B9DFFC"/><path class="p-FFDC40" d="M14.47 16.956V26a4.527 4.527 0 004.521-4.522 4.527 4.527 0 00-4.521-4.522z" fill="#5FBEFF"/><path class="p-FFAB15" d="M15.318 22.407h-1.696v2.745h1.696v-2.745z" fill="#4D98CB"/></svg>