<svg width="21" height="34" fill="none" xmlns="http://www.w3.org/2000/svg"><path class="p-00D7DF" d="M17.72 6.178l-3.088-.297-.841 8.721h3.118l.812-8.424z" fill="#65B3E7"/><path class="p-CCF7F9" d="M17.72 6.179l-.812 8.424h3.125l.776-8.127-3.089-.297z" fill="#A1D1FD"/><path class="p-FFE98F" d="M20.81 6.476L18.315 0l1.248 3.241-3.093-.298L18.316 0 14.63 5.88l3.09.299 3.088.297z" fill="#B9DFFC"/><path class="p-565659" d="M19.564 3.241L18.316 0l-1.844 2.943 3.092.298z" fill="#4D98CB"/><path class="p-FFDA44" d="M4.073.675L2.015 2.011l.39 1.502 2.253-.585L4.073.675z" fill="#4D98CB"/><path class="p-FF9811" d="M4.896 8.478L.39 9.648l1.28 4.955h4.815l-1.59-6.125z" fill="#65B3E7"/><path class="p-FFDA44" d="M6.485 14.603h4.81L9.402 7.308l-4.506 1.17 1.59 6.125z" fill="#A1D1FD"/><path class="p-565659" d="M9.402 7.308l-.39-1.502-1.738-.917-1.49-2.253-1.126.292-2.253.585-1.127.293-.32 2.253L0 8.145l.39 1.502 4.506-1.17 4.506-1.169z" fill="#B9DFFC"/><path class="p-CDCDD0" d="M10.852 29.345a1.552 1.552 0 110-3.104v-3.88a1.552 1.552 0 110-3.103V16.93H.766v14.742h10.086v-2.327zm-6.207 0a1.552 1.552 0 110-3.104 1.552 1.552 0 010 3.104zm0-6.983a1.552 1.552 0 110-3.104 1.552 1.552 0 010 3.104z" fill="#A1D1FD"/><path class="p-ACABB1" d="M10.852 19.258a1.552 1.552 0 110 3.104v3.88a1.552 1.552 0 110 3.103v2.327h10.086V16.93H10.852v2.328zm6.207 0a1.552 1.552 0 110 3.104 1.552 1.552 0 010-3.104zm0 6.983a1.552 1.552 0 110 3.104 1.552 1.552 0 010-3.104z" fill="#65B3E7"/><path class="p-565659" d="M20.939 16.93v-1.328a1 1 0 00-1-1H1.929c-.643 0-1.164.522-1.164 1.164v1.157c0 .004.004.007.008.007h20.166zM.766 31.672V33a1 1 0 001 1H19.939a1 1 0 001-1v-1.328H.766z" fill="#4D98CB"/><path class="p-FFFFFF" d="M4.645 22.362a1.552 1.552 0 100-3.104 1.552 1.552 0 000 3.104zM10.853 22.362a1.552 1.552 0 100-3.104 1.552 1.552 0 000 3.104zM17.06 22.362a1.552 1.552 0 100-3.104 1.552 1.552 0 000 3.104zM4.645 29.345a1.552 1.552 0 100-3.104 1.552 1.552 0 000 3.104zM10.853 29.345a1.552 1.552 0 100-3.104 1.552 1.552 0 000 3.104zM17.06 29.345a1.552 1.552 0 100-3.104 1.552 1.552 0 000 3.104z" fill="#fff"/></svg>