<svg width="37" height="27" fill="none" xmlns="http://www.w3.org/2000/svg"><path class="p-E63950" d="M6.618 8.073L4.75 4.336H3.252a1.084 1.084 0 010-2.168H6.09l2.468 4.935-1.94.97z" fill="#65B3E7"/><path class="p-AE2538" d="M30.382 8.073l-1.94-.97 2.468-4.935h2.838a1.084 1.084 0 010 2.168H32.25l-1.868 3.737z" fill="#4D98CB"/><path class="p-68544F" d="M30.3 10.254l-11.8.239-11.975.26 3.23-9.669h17.489l3.057 9.17z" fill="#A1D1FD"/><path class="p-E63950" d="M28.024 0H8.975L5.008 11.88l13.492-.303 13.297-.282L28.024 0zM8.043 9.647l2.493-7.479h15.928l2.34 7.024L18.5 9.41l-10.457.238z" fill="#65B3E7"/><path class="p-53433F" d="M30.3 10.254l-11.8.239V1.084h8.744l3.057 9.17z" fill="#58ADE5"/><path class="p-AE2538" d="M31.797 11.295l-13.297.282V9.409l10.305-.217-2.341-7.024H18.5V0h9.525l3.772 11.295z" fill="#4D98CB"/><path class="p-53433F" d="M2.168 20.596v2.168a3.256 3.256 0 003.252 3.252h2.168a3.255 3.255 0 003.252-3.252v-2.168H2.168z" fill="#5FBEFF"/><path class="p-3E322E" d="M26.16 20.596v2.168a3.255 3.255 0 003.252 3.252h2.168a3.255 3.255 0 003.252-3.252v-2.168H26.16z" fill="#4D98CB"/><path class="p-53433F" d="M26.16 9.756h-2.168c0-1.8-1.524-3.252-3.324-3.252-.845 0-1.604.325-2.168.845a3.18 3.18 0 00-1.084 2.407h-2.168A5.401 5.401 0 0118.5 4.79a5.256 5.256 0 012.168-.455c2.992 0 5.492 2.428 5.492 5.42z" fill="#5FBEFF"/><path class="p-FF637B" d="M37 10.84l-3.382 3.729L37 17.344v4.336h-8l-4.596-4.336H12.596L8 21.68H0v-4.336l2.081-3.447L0 10.84V9.756c0-1.8 1.452-3.252 3.252-3.252h4.596l4.336 2.168h12.632l4.336-2.168h4.596c1.8 0 3.252 1.452 3.252 3.252v1.084z" fill="#65B3E7"/><path class="p-3E322E" d="M20.668 6.504c-.845 0-1.604.325-2.168.845V4.791a5.256 5.256 0 012.168-.455c2.992 0 5.492 2.428 5.492 5.42h-2.168c0-1.8-1.524-3.252-3.324-3.252z" fill="#4D98CB"/><path class="p-E63950" d="M37 10.84l-3.382 3.729L37 17.344v4.336h-8l-4.596-4.336H18.5V8.672h6.316l4.336-2.168h4.596c1.8 0 3.252 1.452 3.252 3.252v1.084z" fill="#4D98CB"/><path class="p-BBDCFF" d="M37 10.84v6.504h-7.672V16.26c0-2.992 1.428-5.42 4.42-5.42H37z" fill="#65B3E7"/><path class="p-E0F4FF" d="M7.672 17.344H0V10.84h3.252c2.988 0 4.42 2.431 4.42 5.42v1.084z" fill="#A1D1FD"/><path class="p-FFDA2D" d="M25.748 16.176H11.252L8 21.68h21l-3.252-5.504z" fill="#A1D1FD"/><path class="p-FDBF00" d="M29 21.68H18.5v-5.504h7.248L29 21.68z" fill="#5FBEFF"/></svg>