<svg width="36" height="36" fill="none" xmlns="http://www.w3.org/2000/svg"><path class="p-55FBFF" d="M16.06 21.283l-4.664 4.666-.673-.673-.674-.674 4.666-4.665 1.346 1.346z" fill="#B9DFFC"/><path class="p-00D9E0" d="M12.273 25.071l-.672-.673 3.787-3.787.672.672-3.787 3.788z" fill="#58ADE5"/><path class="p-00A6FF" d="M32.351 21.283a12.43 12.43 0 01-8.818 3.647 12.432 12.432 0 01-8.819-3.647c-4.862-4.861-4.862-12.774 0-17.636A12.434 12.434 0 0123.534 0c3.192 0 6.386 1.216 8.817 3.647 4.863 4.862 4.863 12.775 0 17.636z" fill="#65B3E7"/><path class="p-FFB74F" d="M14.274 26.479l-2.378 2.377-4.403 4.403a3.339 3.339 0 01-2.377.985c-.898 0-3.498 1.406-4.133.772a3.366 3.366 0 010-4.755l8.536-8.536 2.378 2.377 2.377 2.377z" fill="#A1D1FD"/><path class="p-006EF5" d="M32.351 21.283a12.43 12.43 0 01-8.818 3.647V0c3.193 0 6.387 1.216 8.818 3.647 4.863 4.862 4.863 12.775 0 17.636z" fill="#4D98CB"/><path class="p-FF9A00" d="M14.273 26.479l-2.377 2.377-6.16 6.16A3.339 3.339 0 013.36 36a3.34 3.34 0 01-2.377-.984l10.914-10.914 2.377 2.377z" fill="#65B3E7"/><path class="p-FFFFFF" d="M29.93 18.862a9.017 9.017 0 01-6.397 2.646 9.019 9.019 0 01-6.397-2.646c-3.528-3.527-3.528-9.267 0-12.794a9.019 9.019 0 016.397-2.645c2.316 0 4.633.881 6.397 2.645 3.527 3.527 3.527 9.267 0 12.794z" fill="#B9DFFC"/><path class="p-B8E0F9" d="M29.93 18.862a9.017 9.017 0 01-6.397 2.646V3.422c2.316 0 4.633.881 6.397 2.645 3.527 3.527 3.527 9.267 0 12.794z" fill="#A1D1FD"/></svg>