<svg width="30" height="30" fill="none" xmlns="http://www.w3.org/2000/svg"><path class="p-FF3C7D" d="M23.46 22.5l-12.436-1.173L12.197 30h12.197l-.934-7.5z" fill="#A1D1FD"/><path class="p-FFA2C1" d="M.934 22.5L0 30h12.197v-8.673L.934 22.5z" fill="#B9DFFC"/><path class="p-EFE2DD" d="M28.384 2.491h-1.758v16.765h1.758V2.491z" fill="#AFD9F6"/><path class="p-09607D" d="M6.417 25.371h-1.87v1.758h1.87V25.37z" fill="#58ADE5"/><path class="p-04303E" d="M19.845 25.371h-1.868v1.758h1.868V25.37zM27.505 0l-1.173 2.492 1.173 2.491a2.492 2.492 0 100-4.983z" fill="#4D98CB"/><path class="p-09607D" d="M25.014 2.492a2.492 2.492 0 002.491 2.491V0a2.492 2.492 0 00-2.491 2.492z" fill="#58ADE5"/><path class="p-00CC76" d="M12.197 22.5H23.46l-.935-7.5-11.5-1.173 1.172 8.673z" fill="#76B7E2"/><path class="p-CCFC5C" d="M12.196 13.827L1.868 15l-.934 7.5h11.262v-8.673z" fill="#5FBEFF"/><path class="p-09607D" d="M7.351 17.871H5.482v1.758h1.87V17.87z" fill="#58ADE5"/><path class="p-04303E" d="M18.912 17.871h-1.869v1.758h1.869V17.87z" fill="#4D98CB"/><path class="p-2682FF" d="M12.197 15h10.328l-.934-7.5-10.567-1.173L12.197 15z" fill="#4D98CB"/><path class="p-8CBCFF" d="M12.197 6.327L2.803 7.5 1.87 15h10.328V6.327z" fill="#58ADE5"/><path class="p-09607D" d="M8.286 10.371H6.417v1.758h1.869V10.37z" fill="#5FBEFF"/><path class="p-04303E" d="M17.977 10.371h-1.869v1.758h1.87V10.37z" fill="#58ADE5"/><path class="p-EFE2DD" d="M21.591 7.5L20.657 0h-8.46l-1.173 3.75 1.173 3.75h9.394z" fill="#65B3E7"/><path class="p-FFF5F5" d="M12.197 0h-8.46l-.934 7.5h9.393V0z" fill="#AFD9F6"/><path class="p-09607D" d="M9.22 2.871H7.35V4.63h1.87V2.87z" fill="#58ADE5"/><path class="p-04303E" d="M17.042 2.871h-1.87V4.63h1.87V2.87z" fill="#4D98CB"/></svg>