<svg width="36" height="36" fill="none" xmlns="http://www.w3.org/2000/svg"><path class="p-FFA2C1" d="M20.462 0h-4.573L14.48 12.02l1.695.306L20.462 0z" fill="#65B3E7"/><path class="p-B4D2D7" d="M24.596 32.357l.995-1.86-7.467-3.996 7.467-3.996-.995-1.86-8.707 4.66L14.48 26.5l1.408 1.196 8.707 4.66z" fill="#76B7E2"/><path class="p-E1EBF0" d="M6.187 22.505l7.466 3.996-7.466 3.996.995 1.86 8.707-4.66v-2.392l-8.707-4.66-.995 1.86z" fill="#5FBEFF"/><path class="p-09607D" d="M31.777 13.184l-2.109 1.758V7.877h6.331v2.11h-4.222v3.197z" fill="#76B7E2"/><path class="p-3440DB" d="M31.778 18L14.48 16.593l1.408 6.74h15.889V18z" fill="#4D98CB"/><path class="p-2682FF" d="M0 18v5.334h15.889v-6.741L0 18z" fill="#58ADE5"/><path class="p-FFC9D0" d="M8.358 0C3.749 0 0 3.75 0 8.358v3.968l15.889-.306V0H8.358z" fill="#5FBEFF"/><path class="p-3440DB" d="M27.492 33.185v-2.11H15.89l-.704 1.055.704 1.055h11.604z" fill="#65B3E7"/><path class="p-2682FF" d="M15.888 31.076H4.285v2.11h11.603v-2.11z" fill="#AFD9F6"/><path class="p-EFE2DD" d="M31.778 11.47h-15.89l-1.407 2.836L15.89 18h15.889v-6.53z" fill="#A1D1FD"/><path class="p-FFF5F5" d="M15.889 11.47H0V18h15.889v-6.53z" fill="#B9DFFC"/><path class="p-09607D" d="M3.87 28.261A3.874 3.874 0 000 32.131 3.874 3.874 0 003.87 36a3.874 3.874 0 003.869-3.87 3.874 3.874 0 00-3.87-3.869z" fill="#76B7E2"/><path class="p-04303E" d="M27.907 28.261a3.874 3.874 0 00-3.869 3.87A3.874 3.874 0 0027.908 36a3.874 3.874 0 003.869-3.87 3.874 3.874 0 00-3.87-3.869z" fill="#4D98CB"/></svg>