<svg width="37" height="30" fill="none" xmlns="http://www.w3.org/2000/svg"><path class="p-8F562F" d="M7.064 8.78l-.58-.421a4.089 4.089 0 00-5.705.903 4.09 4.09 0 00.903 5.706l.58.421a4.062 4.062 0 002.396.779A4.082 4.082 0 007.064 8.78z" fill="#58ADE5"/><path class="p-4C250B" d="M36.221 9.36a4.089 4.089 0 00-5.705-.904l-.58.421a4.082 4.082 0 002.406 7.387c.833 0 1.672-.252 2.396-.778l.58-.421a4.09 4.09 0 00.904-5.705z" fill="#4D98CB"/><path class="p-8F562F" d="M9.33 7.164a4.092 4.092 0 005.147 2.622 4.058 4.058 0 002.377-2.03 4.057 4.057 0 00.245-3.117l-.59-1.815A4.057 4.057 0 0014.48.447a4.057 4.057 0 00-3.116-.245 4.058 4.058 0 00-2.378 2.03A4.057 4.057 0 008.74 5.35l.59 1.815z" fill="#58ADE5"/><path class="p-4C250B" d="M22.523 9.823a4.092 4.092 0 005.147-2.622l.59-1.815A4.09 4.09 0 0025.638.239 4.09 4.09 0 0020.49 2.86l-.59 1.815a4.058 4.058 0 00.245 3.117 4.056 4.056 0 002.377 2.03zM18.5 11.467l-1.446 9.187 1.446 7.992c.63 0 1.259.155 1.832.464.903.487 1.884.73 2.863.73a6.012 6.012 0 003.087-.86 5.977 5.977 0 002.938-5.174v-1.62c0-2.87-1.12-5.567-3.153-7.593a10.655 10.655 0 00-7.567-3.126z" fill="#4D98CB"/><path class="p-8F562F" d="M18.463 11.467c-5.89.02-10.682 4.876-10.682 10.824v1.515a5.976 5.976 0 002.938 5.175 5.976 5.976 0 005.95.13 3.856 3.856 0 011.831-.465V11.468h-.037z" fill="#58ADE5"/></svg>