<svg width="34" height="23" fill="none" xmlns="http://www.w3.org/2000/svg"><path class="p-03232E" d="M31.24 19.887h-1.953V23h1.952v-3.113z" fill="#4D98CB"/><path class="p-8EA8D4" d="M23.712 2.848l1.302 18.016h8.301V4.15l-9.603-1.302z" fill="#65B3E7"/><path class="p-07485E" d="M29.226 7.325h-.123a.976.976 0 100 1.952h.123a.976.976 0 000-1.952zM29.226 11.475h-.123a.976.976 0 100 1.952h.123a.976.976 0 000-1.952zM29.226 15.626h-.123a.976.976 0 100 1.952h.123a.976.976 0 000-1.952z" fill="#4D98CB"/><path class="p-2682FF" d="M33.315 0h-8.3l-1.303 4.15h9.603V0z" fill="#4D98CB"/><path class="p-07485E" d="M4.028 19.887H2.076V23h1.952v-3.113z" fill="#58ADE5"/><path class="p-EFE2DD" d="M25.014 0h-8.357l-1.303 10.432 1.303 10.432h8.357V0z" fill="#A1D1FD"/><path class="p-FFF5F5" d="M16.657 0H0v20.864h16.657V0z" fill="#B9DFFC"/><path class="p-03232E" d="M21.844 5.17a2 2 0 00-2-2h-3.187l-1.303 6.285 1.303 8.239h3.187a2 2 0 002-2V5.17z" fill="#4D98CB"/><path class="p-07485E" d="M16.657 3.17H5.17a2 2 0 00-2 2v10.524a2 2 0 002 2h11.487V3.17z" fill="#58ADE5"/></svg>