<svg width="32" height="33" fill="none" xmlns="http://www.w3.org/2000/svg"><path class="p-895D3C" d="M4.059 28.549V33H27.1v-4.451H4.059z" fill="#B9DFFC"/><path class="p-714C2F" d="M27.1 28.549H15.58V33H27.1v-4.451z" fill="#A1D1FD"/><path class="p-FDBF00" d="M27.079 29.994h-23a15.894 15.894 0 01-.02-21.24h23.04a15.894 15.894 0 01-.02 21.24z" fill="#A1D1FD"/><path class="p-FF9100" d="M27.08 29.994h-11.5V8.754H27.1a15.894 15.894 0 01-.02 21.24z" fill="#4D98CB"/><path class="p-FF9100" d="M22.952 17.028H19.81l-2.094-3.142h-4.274l-2.094 3.142H8.206l-2.786 4.19 2.786 4.188h4.273l2.095-3.142h2.01l2.095 3.142h4.273l2.786-4.189-2.786-4.19z" fill="#76B7E2"/><path class="p-FF641A" d="M25.74 21.217l-2.787 4.19H18.68l-2.095-3.143H15.58v-8.378h2.137l2.094 3.142h3.142l2.786 4.19z" fill="#65B3E7"/><path class="p-FF9100" d="M23.225 21.217l-1.404 2.095h-2.01l-1.404-2.095 1.404-2.094h2.01l1.404 2.094z" fill="#A1D1FD"/><path class="p-FDBF00" d="M17.988 18.075l-1.404 2.095h-2.01l-1.404-2.095 1.403-2.094h2.011l1.404 2.094z" fill="#B9DFFC"/><path class="p-FF9100" d="M17.989 18.075l-1.404 2.095H15.58v-4.19h1.005l1.404 2.095z" fill="#A1D1FD"/><path class="p-FDBF00" d="M12.752 21.217l-1.404 2.095h-2.01l-1.404-2.095 1.403-2.094h2.01l1.405 2.094z" fill="#B9DFFC"/><path class="p-FAECD8" d="M29.488 9.005l-.754.524a6.713 6.713 0 01-3.728 1.131 6.666 6.666 0 01-3.142-.796 6.677 6.677 0 01-6.284 0 6.677 6.677 0 01-6.284 0 6.696 6.696 0 01-6.871-.335l-.754-.524L4.059 4.46l1.299-1.047-1.3-1.048V0H27.1v2.365l-1.487 1.048L27.1 4.46l2.388 4.545z" fill="#B9DFFC"/><path class="p-F4D7AF" d="M29.489 9.005l-.754.524a6.713 6.713 0 01-3.729 1.131 6.666 6.666 0 01-3.142-.796 6.677 6.677 0 01-6.284 0V0H27.1v2.365l-1.487 1.048 1.488 1.047 2.388 4.545z" fill="#A1D1FD"/><path class="p-895D3C" d="M27.1 2.365H4.059V4.46H27.1V2.365z" fill="#76B7E2"/><path class="p-714C2F" d="M27.1 2.365H15.58V4.46H27.1V2.365z" fill="#4D98CB"/></svg>