<svg width="30" height="30" fill="none" xmlns="http://www.w3.org/2000/svg"><path class="p-83878C" d="M24.639 23.73h1.758a.879.879 0 010 1.758h-1.758V23.73z" fill="#5FBEFF"/><path class="p-000000" d="M9.668 24.61H8.203L8.79 30h.879v-5.39z" fill="#4D98CB"/><path class="p-202833" d="M7.91 24.61h.88V30h-.88v-5.39z" fill="#65B3E7"/><path class="p-000000" d="M24.053 25.488L24.639 30h.879v-2.754l-1.465-1.758z" fill="#4D98CB"/><path class="p-202833" d="M23.76 27.246V30h.879v-4.512l-.88 1.758z" fill="#65B3E7"/><path class="p-414851" d="M25.518 27.246v-6.152h-1.465l.586 6.152h.879z" fill="#A1D1FD"/><path class="p-62676F" d="M23.76 21.094h.879v6.152h-.88v-6.152z" fill="#B9DFFC"/><path class="p-414851" d="M24.639 0c.485 0 .879.394.879.879v5.273h-1.465L24.639 0z" fill="#4D98CB"/><path class="p-62676F" d="M23.76.879c0-.485.393-.879.879-.879v6.152h-.88V.88z" fill="#65B3E7"/><path class="p-202833" d="M24.639 1.758L22.88 11.865l1.758 10.108h2.636v-3.33A5.355 5.355 0 0030 13.976V7.119a5.367 5.367 0 00-5.361-5.361z" fill="#4D98CB"/><path class="p-414851" d="M19.277 7.12v6.855a5.355 5.355 0 002.725 4.669v3.329h2.637V1.758a5.367 5.367 0 00-5.362 5.361z" fill="#65B3E7"/><path class="p-000000" d="M14.97 21.973v-4.395H8.79L7.03 23.73l7.94-1.757z" fill="#4D98CB"/><path class="p-202833" d="M8.79 17.578H2.606v4.395l6.182 1.172v-5.567z" fill="#65B3E7"/><path class="p-83878C" d="M8.79 21.973L7.03 23.73l1.758 1.757h6.182v-3.515H8.789z" fill="#A1D1FD"/><path class="p-A4A6AA" d="M2.607 21.973H8.79v3.515H2.607v-3.515z" fill="#B9DFFC"/><path class="p-83878C" d="M8.79 0L4.394 8.79l4.394 8.788A8.789 8.789 0 108.79 0z" fill="#58ADE5"/><path class="p-A4A6AA" d="M0 8.79a8.789 8.789 0 008.79 8.788V0A8.789 8.789 0 000 8.79z" fill="#A1D1FD"/><path class="p-DBFFFC" d="M8.79 1.758L5.272 8.789 8.79 15.82a7.031 7.031 0 000-14.062z" fill="#A1D1FD"/><path class="p-FFFFFF" d="M1.758 8.79a7.031 7.031 0 007.031 7.03V1.758a7.031 7.031 0 00-7.031 7.031z" fill="#B9DFFC"/><path class="p-202833" d="M9.668 7.94h-.879L8.203 11l.586 3.062a.879.879 0 00.879-.88V7.94z" fill="#4D98CB"/><path class="p-414851" d="M7.91 7.94h.88v6.122a.879.879 0 01-.88-.878V7.939z" fill="#65B3E7"/></svg>