<svg width="32" height="26" fill="none" xmlns="http://www.w3.org/2000/svg"><path class="p-545AC3" d="M30.82 15.814c.711-4.016.716-7.794.012-11.807l.314-.314a2.15 2.15 0 00.634-1.53c0-.578-1.084-.262-1.492-.67-.41-.41-.093-1.493-.671-1.493a2.15 2.15 0 00-1.53.634l-.542.541a52.608 52.608 0 00-18.46-.001l-.54-.54A2.15 2.15 0 007.017 0c-.578 0-.262 1.084-.67 1.492-.386.385-1.454.022-1.488.526a2.16 2.16 0 00.628 1.675l.304.304c-.706 4.02-.702 7.804.013 11.828l-.317.316a2.166 2.166 0 000 3.06 2.15 2.15 0 001.53.634 2.15 2.15 0 001.53-.634l.615-.615a52.619 52.619 0 0018.31-.002l.616.617a2.15 2.15 0 001.53.634c.578 0 .262-1.084.67-1.493.409-.409 1.493-.093 1.493-.67a2.15 2.15 0 00-.634-1.53l-.327-.328z" fill="#65B3E7"/><path class="p-404AA2" d="M30.819 15.814c.712-4.016.716-7.794.013-11.807l.314-.314a2.15 2.15 0 00.634-1.53c0-.578-1.084-.262-1.493-.67-.408-.41-.093-1.493-.67-1.493a2.15 2.15 0 00-1.53.634l-.542.541a52.759 52.759 0 00-8.793-.814v19.024a52.785 52.785 0 008.718-.8l.617.616c.408.409.951.634 1.53.634.577 0 .262-1.084.67-1.493.409-.409 1.493-.093 1.493-.67a2.15 2.15 0 00-.634-1.53l-.327-.328z" fill="#4D98CB"/><path class="p-85D3FD" d="M25.966 21.98c.712-4.017.716-7.795.013-11.808l.314-.314a2.15 2.15 0 00.634-1.53c0-.577-1.084-.261-1.493-.67-.409-.409-.093-1.493-.67-1.493a2.15 2.15 0 00-1.53.634l-.542.542a52.603 52.603 0 00-18.46-.002l-.54-.54a2.15 2.15 0 00-1.53-.634c-.577 0-.262 1.084-.67 1.493-.38.379-1.447.005-1.485.502a2.16 2.16 0 00.626 1.698l.303.304C.231 14.182.235 17.966.95 21.99l-.316.317a2.151 2.151 0 00-.59 1.097c-.139.687.916.571 1.449 1.103.408.409.093 1.493.67 1.493a2.15 2.15 0 001.53-.634l.615-.615a52.617 52.617 0 0018.31-.002l.616.617a2.15 2.15 0 001.53.634c.578 0 .262-1.084.671-1.493.409-.408 1.492-.093 1.492-.67 0-.578-.224-1.122-.633-1.53l-.327-.327z" fill="#B9DFFC"/><path class="p-22B8F9" d="M25.966 21.98c.712-4.017.717-7.795.014-11.808l.314-.313a2.15 2.15 0 00.633-1.53c0-.578-1.084-.262-1.492-.671-.409-.409-.093-1.493-.671-1.493a2.15 2.15 0 00-1.53.634l-.542.542a52.753 52.753 0 00-9.06-.816v19.027a52.748 52.748 0 008.985-.802l.617.616a2.15 2.15 0 001.53.634c.578 0 .262-1.084.67-1.493.41-.408 1.493-.093 1.493-.67 0-.578-.225-1.122-.633-1.53l-.328-.327z" fill="#A1D1FD"/></svg>