<svg width="37" height="28" fill="none" xmlns="http://www.w3.org/2000/svg"><path class="p-8CBCFF" d="M25.788 10.906a2.3 2.3 0 100-4.602 2.3 2.3 0 000 4.602z" fill="#A1D1FD"/><path class="p-FF3C7D" d="M18.467 14.244l-1.444 5.142 19.91-1.444v-3.698H18.468z" fill="#4D98CB"/><path class="p-FFA2C1" d="M18.467 14.244H0v3.698l18.467 1.444v-5.142z" fill="#58ADE5"/><path class="p-DAC4BB" d="M18.467 28h9.726a8.741 8.741 0 008.741-8.741v-1.317H18.467l-1.444 5.029L18.466 28z" fill="#76B7E2"/><path class="p-EFE2DD" d="M0 17.942v1.317A8.741 8.741 0 008.741 28h9.726V17.942H0z" fill="#5FBEFF"/><path class="p-8CBCFF" d="M21.918 3.45A3.45 3.45 0 0018.467 0l-1.444 3.451 1.444 3.451a3.451 3.451 0 003.45-3.451z" fill="#A1D1FD"/><path class="p-BEEBFA" d="M15.017 3.45a3.451 3.451 0 003.45 3.452V0a3.45 3.45 0 00-3.45 3.45z" fill="#B9DFFC"/></svg>