<svg width="32" height="32" fill="none" xmlns="http://www.w3.org/2000/svg"><path class="p-4A696F" d="M12.72 11.325l1.327-1.326L22 17.954l-1.325 1.325-7.955-7.954z" fill="#5FBEFF"/><path class="p-384949" d="M20.675 19.28l-3.978-3.978 1.326-1.325L22 17.954l-1.325 1.326z" fill="#4D98CB"/><path class="p-C6E2E7" d="M28.685 12.595l-9.6 9.602-13.312 5.25-1.22-1.22 5.515-13.576 9.336-9.336L20.73 4.64l-9.203 9.204-4.415 11.044 11.044-4.415 9.204-9.203 1.325 1.325z" fill="#A1D1FD"/><path class="p-A8D3D8" d="M28.686 12.595l-9.602 9.601-13.311 5.25-.61-.61 1.95-1.948 11.043-4.415 9.204-9.204 1.326 1.326z" fill="#65B3E7"/><path class="p-979FEF" d="M18.742 3.977a1.875 1.875 0 012.651-2.651l9.281 9.28a1.875 1.875 0 01-2.652 2.652l-9.28-9.28z" fill="#5FBEFF"/><path class="p-7984EB" d="M23.383 8.618l2.651-2.652 4.64 4.64a1.875 1.875 0 11-2.65 2.652l-4.641-4.64z" fill="#4D98CB"/><path class="p-4A696F" d="M6.091 25.909a2.809 2.809 0 00-3.977 0L0 28.023 3.977 32l2.114-2.114c1.1-1.1 1.1-2.877 0-3.977z" fill="#65B3E7"/><path class="p-384949" d="M6.09 29.886L3.978 32l-1.989-1.989 4.103-4.102c1.1 1.1 1.1 2.877 0 3.977z" fill="#4D98CB"/></svg>