<svg width="48" height="53" fill="none" xmlns="http://www.w3.org/2000/svg"><path class="p-FDE4E4" d="M3.966 13.278h2.746v10.667H3.966V13.278z" fill="#A1D1FD"/><path class="p-FDE4E4" d="M0 17.24h10.678v2.743H0V17.24z" fill="#A1D1FD"/><path class="p-FCCED3" d="M41.39 28.517h2.542v10.667H41.39V28.517z" fill="#B9DFFC"/><path class="p-FCCED3" d="M37.322 32.58H48v2.54H37.322v-2.54z" fill="#B9DFFC"/><path class="p-FDE4E4" d="M5.187 34.612h2.745v2.743H5.187v-2.743z" fill="#A1D1FD"/><path class="p-FCCED3" d="M39.763 16.326h2.745v2.743h-2.745v-2.743z" fill="#B9DFFC"/><path class="p-E63950" d="M34.372.985h-2.136v7.196h2.136V.985z" fill="#65B3E7"/><path class="p-AE2538" d="M37.423 51.476V53H20.694V22.42h9.509c4.973 4.969 7.22 22.016 7.22 29.056z" fill="#4D98CB"/><path class="p-E63950" d="M34.372 7.183v6.37c0 3.992-2.308 5.82-4.17 8.868H17.695l6-9.244c1.861-3.11 8.41-.67 8.543-5.994h2.135z" fill="#65B3E7"/><path class="p-E63950" d="M31.291 53h-1.8c.153-6.583-.59-13.298-2.237-19.607l1.688-.701A74.58 74.58 0 0131.292 53z" fill="#76B7E2"/><path class="p-FF637B" d="M13.017.985h2.135v7.196h-2.135V.985z" fill="#AFD9F6"/><path class="p-FF637B" d="M13.017 7.183v6.37c0 3.992 2.308 5.82 4.169 8.868h6.509v-9.244c-1.861-3.11-8.41-.67-8.543-5.994h-2.135z" fill="#AFD9F6"/><path class="p-E63950" d="M9.966 51.476V53h13.729V22.42h-6.509c-4.973 4.969-7.22 22.016-7.22 29.056z" fill="#58ADE5"/><path class="p-FF637B" d="M16.099 53h1.8c-.153-6.583.59-13.298 2.237-19.607l-1.688-.701A74.58 74.58 0 0016.098 53z" fill="#5FBEFF"/></svg>