<svg width="35" height="30" fill="none" xmlns="http://www.w3.org/2000/svg">
<path class="p-FF637B" d="M34.105 19.52c-.08 1.48-.46 2.9-1.12 4.2l-1.52-.06.44 1.78c-.98 1.3-2.326 2.4-3.806 3.16l-1.84-.06-.18.92c-1.1.36-2.26.54-3.46.54h-2.72l-1.92-.62-.92.32-.84.3h-4.72c-.64 0-1.26-.06-1.88-.16l-.02-1.04-2.28.42c-1.58-.62-3.067-1.56-4.227-2.76l.14-1.62-1.4.06a10.437 10.437 0 01-1.82-5.38c-.06-1.24.1-2.48.44-3.66l1.74.02-.94-1.98c.26-.52.58-1.02.94-1.5L7.86 9.6h18.4l5.667 2.8c.64.86 1.14 1.78 1.5 2.78l-.76 2.32 1.34-.14c.1.7.14 1.44.1 2.16z" fill="#B9DFFC"/>
<path class="p-E63950" d="M34.105 19.52c-.08 1.48-.46 2.9-1.12 4.2l-1.52-.06.44 1.78c-.98 1.3-2.326 2.4-3.806 3.16l-1.84-.06-.18.92c-1.1.36-2.26.54-3.46.54h-2.72l-1.92-.62-.92.32V9.6h9.2l5.666 2.8c.64.86 1.14 1.78 1.5 2.78l-.76 2.32 1.34-.14c.1.7.14 1.44.1 2.16z" fill="#A1D1FD"/>
<path class="p-E63950" d="M34.005 17.36c-.12-.76-.3-1.48-.58-2.18L28.4 19.66l-3.74-3.36 3.56-3.2-1.34-1.48-3.7 3.34-5.12-4.6-1 .9-4.12 3.7-4.46-4.02-1.34 1.48 4.32 3.88-3.74 3.36-6.467-5.76c-.34.62-.6 1.28-.8 1.96L6.24 21l-4.407 3.9c.36.56.78 1.08 1.26 1.56l4.627-4.12 3.62 3.26-4.02 3.62c.74.28 1.5.5 2.3.62l3.22-2.9 3.38 3.06h3.68l3.38-3.06 2.8 2.52c.7-.22 1.38-.5 2.02-.86l-3.32-3 3.62-3.26 3.506 3.1c.42-.54.78-1.12 1.08-1.72L29.946 21l4.06-3.64zM17.06 13.94l1-.9 3.62 3.26-3.62 3.26-1-.9-2.62-2.36 2.62-2.36zM9.219 21l3.72-3.36 3.62 3.26-3.72 3.36L9.219 21zm8.84 7.96l-1-.9-2.72-2.46 2.72-2.46 1-.9 3.72 3.36-3.72 3.36zm5.22-4.7l-3.72-3.36 3.62-3.26 3.72 3.36-3.62 3.26z" fill="#58ADE5"/>
<path class="p-AE2538" d="M34.005 17.36c-.12-.76-.3-1.48-.58-2.18L28.4 19.66l-3.74-3.36 3.56-3.2-1.34-1.48-3.7 3.34-5.12-4.6-1 .9v2.68l1-.9 3.62 3.26-3.62 3.26-1-.9v4.48l1-.9 3.72 3.36-3.72 3.36-1-.9V30h2.84l3.38-3.06 2.8 2.52c.7-.22 1.38-.5 2.02-.86l-3.32-3 3.62-3.26 3.506 3.1c.42-.54.78-1.12 1.08-1.72L29.945 21l4.06-3.64zm-10.727 6.9l-3.72-3.36 3.62-3.26 3.72 3.36-3.62 3.26z" fill="#4D98CB"/>
<path class="p-FFDA2D" d="M31.826 9.34C29.466 7.18 26.299 6 23.059 6h-12C7.82 6 4.653 7.18 2.293 9.34c-.64.58-.98 1.42-.94 2.28.04.92.48 1.76 1.2 2.3 1.14.86 2.787.78 3.906-.2 1.26-1.1 1.085-3.536 2.785-3.536l7.815.908 7.816-.908c1.7 0 1.524 2.436 2.784 3.536.6.54 1.407.8 2.127.8.62 0 1.24-.2 1.78-.6.72-.54 1.16-1.38 1.2-2.3.04-.86-.3-1.7-.94-2.28z" fill="#58ADE5"/>
<path class="p-FDBF00" d="M32.765 11.62c-.04.92-.48 1.76-1.2 2.3-.54.4-1.16.6-1.78.6-.72 0-1.526-.26-2.126-.8-1.26-1.1-1.085-3.536-2.785-3.536l-7.815.908V6h6c3.24 0 6.406 1.18 8.766 3.34.64.58.98 1.42.94 2.28z" fill="#4D98CB"/>
<path class="p-FDBF00" d="M9.06 8c-1.655 0-3-1.346-3-3s1.345-3 3-3c1.654 0 3 1.346 3 3s-1.346 3-3 3zm0-4a1 1 0 10.001 2.001A1 1 0 009.06 4z" fill="#AFD9F6"/>
<path class="p-FF9100" d="M25.059 8c-1.655 0-3-1.346-3-3s1.345-3 3-3c1.654 0 3 1.346 3 3s-1.346 3-3 3zm0-4a1 1 0 10.001 2.001A1 1 0 0025.059 4z" fill="#A1D1FD"/>
<path class="p-FDBF00" d="M20.059 0c-1.2 0-2.26.54-3 1.38-.74-.84-1.8-1.38-3-1.38-2.2 0-4 1.8-4 4s1.8 4 4 4c1.2 0 2.26-.54 3-1.38.74.84 1.8 1.38 3 1.38 2.2 0 4-1.8 4-4s-1.8-4-4-4zm-6 6c-1.1 0-2-.9-2-2s.9-2 2-2 2 .9 2 2-.9 2-2 2zm6 0c-1.1 0-2-.9-2-2s.9-2 2-2 2 .9 2 2-.9 2-2 2z" fill="#B9DFFC"/>
<path class="p-FF9100" d="M20.059 0c-1.2 0-2.26.54-3 1.38v5.24c.74.84 1.8 1.38 3 1.38 2.2 0 4-1.8 4-4s-1.8-4-4-4zm0 6c-1.1 0-2-.9-2-2s.9-2 2-2 2 .9 2 2-.9 2-2 2z" fill="#A1D1FD"/>
</svg>