<svg width="29" height="30" fill="none" xmlns="http://www.w3.org/2000/svg"><path class="p-B04617" d="M14.194 21.293a.886.886 0 01-.885-.886v-9.3a.886.886 0 111.771 0v9.3c0 .49-.396.886-.886.886z" fill="#58ADE5"/><path class="p-BDF052" d="M25.238.843a.886.886 0 00-.832-.833c-.214-.012-5.26-.27-8.309 2.778-.901.902-1.513 1.977-1.928 3.051-.415-1.074-1.028-2.15-1.929-3.05C9.191-.262 4.145-.003 3.932.01a.886.886 0 00-.833.833c-.012.213-.271 5.26 2.778 8.308 2.56 2.56 6.527 2.788 7.86 2.788h.863c1.333 0 5.3-.228 7.86-2.788 3.05-3.049 2.79-8.095 2.778-8.308z" fill="#65B3E7"/><path class="p-83360B" d="M27.505 30H.885a.886.886 0 01-.81-1.24 15.414 15.414 0 0114.12-9.239 15.415 15.415 0 0114.121 9.238.886.886 0 01-.811 1.24z" fill="#B9DFFC"/><path class="p-4C1A03" d="M14.195 19.521h-.027V30h13.337a.886.886 0 00.811-1.24 15.415 15.415 0 00-14.121-9.239z" fill="#A1D1FD"/><path class="p-63C92F" d="M24.405.01c-.214-.012-5.26-.27-8.309 2.778-.9.902-1.513 1.977-1.928 3.051v6.1h.431c1.334 0 5.301-.228 7.86-2.788 3.05-3.049 2.791-8.095 2.778-8.308a.886.886 0 00-.832-.833z" fill="#4D98CB"/><path class="p-4C1A03" d="M6.223 27.962c.464 0 .908-.407.886-.885-.021-.48-.39-.886-.886-.886-.463 0-.907.407-.885.886.021.48.389.885.885.885zM9.058 27.962c.464 0 .908-.407.886-.885-.021-.48-.389-.886-.886-.886-.463 0-.907.407-.885.886.021.48.389.885.885.885zM7.64 25.807c.464 0 .908-.407.886-.886-.021-.48-.389-.886-.886-.886-.463 0-.907.408-.885.886.021.48.389.886.885.886z" fill="#4D98CB"/></svg>