<svg width="33" height="26" fill="none" xmlns="http://www.w3.org/2000/svg"><path class="p-53433F" d="M26.128 0v7.65H2.869C1.281 7.65 0 4.457 0 2.87A2.877 2.877 0 012.869 0h23.259z" fill="#58ADE5"/><path class="p-3E322E" d="M26.127 0h-9.742v7.65h9.742V0z" fill="#4D98CB"/><path class="p-68544F" d="M30.73 14.405v5.738l1.912 1.912V26H4.782A4.783 4.783 0 010 21.218V1.972a2.865 2.865 0 002.869 2.87h29.773v7.65l-1.912 1.913z" fill="#5FBEFF"/><path class="p-53433F" d="M30.73 14.405v5.737l1.912 1.913V26H16.385V4.841h16.257v7.65l-1.912 1.914z" fill="#65B3E7"/><path class="p-3E322E" d="M32.643 22.055h-6.694a4.782 4.782 0 010-9.563h6.694v9.563z" fill="#4D98CB"/><path class="p-FF9F00" d="M27.801 16.317H25.89v1.913H27.8v-1.913z" fill="#AFD9F6"/></svg>