<svg width="37" height="37" fill="none" xmlns="http://www.w3.org/2000/svg"><path class="p-F4D7AF" d="M32.664 13.008v18.5H4.336v-18.5L18.5 2.168l14.164 10.84z" fill="#A1D1FD"/><path class="p-D0A973" d="M32.664 13.008v18.5H18.5V2.168l14.164 10.84z" fill="#58ADE5"/><path class="p-3E5959" d="M8.714 8.89l.03-.022V3.252c0-.599-.485-1.084-1.084-1.084H5.42c-.599 0-1.084.485-1.084 1.084v8.992c1.378-1.072 2.945-2.236 4.378-3.353z" fill="#A1D1FD"/><path class="p-78B9EB" d="M18.5 10.84a3.247 3.247 0 00-3.252 3.252c0 1.8 1.452 3.252 3.252 3.252 1.8 0 3.252-1.453 3.252-3.252 0-1.8-1.452-3.252-3.252-3.252z" fill="#5FBEFF"/><path class="p-5AAAE7" d="M18.5 17.344V10.84c1.8 0 3.252 1.452 3.252 3.252 0 1.8-1.452 3.252-3.252 3.252z" fill="#4D98CB"/><path class="p-FFD400" d="M26.214 31.508H10.786l-1.934 3.93c-.152.326-.152.738.044 1.042.216.325.563.52.932.52H27.17c.37 0 .716-.195.933-.52.195-.304.195-.716.043-1.041l-1.933-3.931z" fill="#A1D1FD"/><path class="p-FF9F00" d="M26.214 31.508H18.5V37h8.672c.368 0 .715-.195.932-.52.195-.304.195-.716.044-1.041l-1.934-3.931z" fill="#58ADE5"/><path class="p-90E36A" d="M37 31.508c0 .607-.477 1.084-1.084 1.084H1.084A1.073 1.073 0 010 31.508c0-.607.477-1.084 1.084-1.084h34.832c.607 0 1.084.477 1.084 1.084z" fill="#B9DFFC"/><path class="p-56C225" d="M37 31.508c0 .607-.477 1.084-1.084 1.084H18.5v-2.168h17.416c.607 0 1.084.477 1.084 1.084z" fill="#65B3E7"/><path class="p-3E5959" d="M26.088 20.596v11.996H10.912V20.596c0-.608.477-1.084 1.084-1.084h13.008c.607 0 1.084.476 1.084 1.084z" fill="#5FBEFF"/><path class="p-384949" d="M26.088 20.596v11.996H18.5v-13.08h6.504c.607 0 1.084.476 1.084 1.084z" fill="#4D98CB"/><path class="p-96C8EF" d="M13.08 21.68h4.336v8.744H13.08V21.68z" fill="#B9DFFC"/><path class="p-78B9EB" d="M19.584 21.68h4.336v8.744h-4.336V21.68z" fill="#A1D1FD"/><path class="p-CB671B" d="M36.978 14.373a1.07 1.07 0 01-.195.803l-1.3 1.734a1.05 1.05 0 01-1.496.217L18.5 5.16 3.035 17.127a1.068 1.068 0 01-.65.217c-.325 0-.65-.152-.867-.434L.217 15.176a1.07 1.07 0 01-.195-.803c.022-.303.195-.541.433-.715L17.85.217c.195-.13.433-.217.65-.217.217 0 .455.087.65.217l17.395 13.441a.933.933 0 01.433.716z" fill="#5FBEFF"/><path class="p-BC5F19" d="M36.978 14.373a1.07 1.07 0 01-.195.803l-1.3 1.734a1.05 1.05 0 01-1.496.217L18.5 5.16V0c.217 0 .455.087.65.217l17.395 13.441a.933.933 0 01.433.716z" fill="#4D98CB"/></svg>