<svg width="33" height="28" fill="none" xmlns="http://www.w3.org/2000/svg"><path class="p-FF914A" d="M6.785 18.667l1.875-.792L8.118 20l-2 2a.943.943 0 11-1.333-1.333l2-2zM8.786 24.667a.943.943 0 11-1.333-1.334l3.885-3.885 1.334 1.333-3.886 3.886zM12.119 24l2-.667-.667 2-2 2A.943.943 0 1110.12 26l2-2z" fill="#A1D1FD"/><path class="p-FF6A52" d="M19.786 5.657l-.019 2.885-3.658 2.677-.019-.018-3.997-3.225.34-2.32 3.657-1.715.359-.17 3.337 1.886z" fill="#65B3E7"/><path class="p-F0384A" d="M19.787 5.657l-.02 2.885-3.657 2.677-.02-.018V3.94l.359-.17 3.338 1.886z" fill="#4D98CB"/><path class="p-FF6A52" d="M25.443 0l-1.452 3.357-4.205 2.3h-7.354L7.963 3.055 6.775 0h18.668z" fill="#65B3E7"/><path class="p-F0384A" d="M25.444 0L23.99 3.357l-4.204 2.3H16.09V0h9.352z" fill="#4D98CB"/><path class="p-FF914A" d="M14.785 10.667l6.667 6.666 6.666-6.667-1.536-5.307L21.452 4l-6.667 6.667zM13.452 25.334l-6.667-6.667 4-4 6.667 6.666-4 4z" fill="#A1D1FD"/><path class="p-FFB64C" d="M20.117 24l2 2a.943.943 0 11-1.333 1.333l-2-2-.625-2.041 1.959.708zM22.785 21.333l2 2a.943.943 0 01-1.333 1.334l-2-2-.625-2.042 1.958.708zM25.45 18.667l2.001 2A.943.943 0 0126.118 22l-2-2-.709-1.959 2.042.626z" fill="#B9DFFC"/><path class="p-FF6A52" d="M25.452 0l-4 4 6.667 6.666 4.063-4.13L25.451 0z" fill="#65B3E7"/><path class="p-FFB64C" d="M25.444 18.668l-6.657 6.675-14.67-14.67L5.57 5.449l5.223-1.451 5.299 5.298 9.352 9.372z" fill="#B9DFFC"/><path class="p-FFB64C" d="M25.444 18.668l-6.657 6.675-2.696-2.697V9.296l9.352 9.372z" fill="#B9DFFC"/><path class="p-FF914A" d="M6.785 0L0 6.537l4.118 4.13L10.785 4l-4-4z" fill="#A1D1FD"/></svg>