<svg width="32" height="28" fill="none" xmlns="http://www.w3.org/2000/svg"><path class="p-73BCFF" d="M0 17.679V28h25.814v-2.963L0 17.679z" fill="#A1D1FD"/><path class="p-575F64" d="M23.974 12.018h-1.84v-3.74a6.446 6.446 0 00-6.437-6.439 6.446 6.446 0 00-6.439 6.439v3.74H7.42v-3.74C7.419 3.713 11.132 0 15.697 0c4.564 0 8.277 3.713 8.277 8.278v3.74z" fill="#4D98CB"/><path class="p-0095FF" d="M24.894 9.401h-5.518v16.556h5.518c3.735 0 6.5-3.477 6.5-8.278s-2.765-8.278-6.5-8.278z" fill="#5FBEFF"/><path class="p-006EFF" d="M31.394 17.679c0 4.801-2.765 8.278-6.5 8.278h-5.518v-8.278h12.018z" fill="#4D98CB"/><path class="p-73BCFF" d="M19.375 9.401h-7.357v16.556h7.357c3.735 0 6.439-3.477 6.439-8.278s-2.704-8.278-6.439-8.278z" fill="#65B3E7"/><path class="p-0095FF" d="M25.814 17.679c0 4.801-2.704 8.278-6.439 8.278h-7.357v-8.278h13.796z" fill="#58ADE5"/><path class="p-0095FF" d="M12.018 9.401H6.5v16.556h5.518c3.735 0 6.439-3.477 6.439-8.278s-2.704-8.278-6.439-8.278z" fill="#5FBEFF"/><path class="p-006EFF" d="M18.457 17.679c0 4.801-2.704 8.278-6.439 8.278H6.5v-8.278h11.957z" fill="#4D98CB"/><path class="p-73BCFF" d="M6.5 9.401c-3.735 0-6.5 3.477-6.5 8.278s2.765 8.278 6.5 8.278c3.734 0 6.438-3.477 6.438-8.278S10.234 9.401 6.5 9.401z" fill="#65B3E7"/><path class="p-0095FF" d="M12.938 17.679c0 4.801-2.704 8.278-6.438 8.278-3.735 0-6.5-3.477-6.5-8.278h12.938z" fill="#58ADE5"/><path class="p-0095FF" d="M6.5 13.08c-1.564 0-2.76 1.969-2.76 4.599s1.196 4.599 2.76 4.599c1.563 0 2.759-1.969 2.759-4.599s-1.196-4.599-2.76-4.599z" fill="#5FBEFF"/><path class="p-006EFF" d="M9.259 17.679c0 2.63-1.196 4.599-2.76 4.599-1.563 0-2.759-1.969-2.759-4.599H9.26z" fill="#4D98CB"/></svg>