<svg width="28" height="28" fill="none" xmlns="http://www.w3.org/2000/svg"><path class="p-DCF4FF" d="M14 28c-3.74 0-7.255-1.456-9.9-4.1A13.909 13.909 0 010 14c0-3.74 1.456-7.255 4.1-9.9A13.909 13.909 0 0114 0c3.74 0 7.255 1.456 9.9 4.1A13.909 13.909 0 0128 14c0 3.74-1.456 7.255-4.1 9.9A13.909 13.909 0 0114 28z" fill="#B9DFFC"/><path class="p-CCEFFF" d="M23.9 4.1A13.909 13.909 0 0014 0v28c3.74 0 7.255-1.456 9.9-4.1A13.909 13.909 0 0028 14c0-3.74-1.456-7.255-4.1-9.9z" fill="#A1D1FD"/><path class="p-87E694" d="M4.373 24.165a15.387 15.387 0 003.798-10.164c0-3.776-1.342-7.346-3.798-10.165A13.909 13.909 0 000 14a13.909 13.909 0 004.373 10.165z" fill="#58ADE5"/><path class="p-66CC70" d="M23.9 4.1l-.024-.022a15.384 15.384 0 00-3.587 9.917c0 3.668 1.267 7.142 3.592 9.923l.018-.018A13.909 13.909 0 0028 14c0-3.74-1.456-7.255-4.1-9.9z" fill="#4D98CB"/><path class="p-87E694" d="M18.648 13.995c0-4.071 1.411-7.926 4-11.006A13.894 13.894 0 0014 0c-3.06 0-5.968.975-8.373 2.777a17.014 17.014 0 014.185 11.224c0 4.167-1.478 8.107-4.184 11.222A13.895 13.895 0 0014 28c3.179 0 6.196-1.053 8.654-2.993a17.012 17.012 0 01-4.006-11.012z" fill="#58ADE5"/><path class="p-66CC70" d="M18.648 13.995c0-4.071 1.411-7.926 4-11.006A13.893 13.893 0 0014 0v28c3.179 0 6.196-1.053 8.654-2.993a17.012 17.012 0 01-4.006-11.012z" fill="#4D98CB"/></svg>