<svg width="37" height="35" fill="none" xmlns="http://www.w3.org/2000/svg"><path class="p-68544F" d="M16.017 24.03c-.196.262-6.95 9.116-6.968 9.119a2.907 2.907 0 01-1.901 1.13 2.907 2.907 0 01-2.143-.547 2.873 2.873 0 01-.583-4.044l1.159-1.55c.174.131 1.331.996 1.53 1.162-.13.175-.995 1.331-1.14 1.547a.931.931 0 00.193 1.335.931.931 0 001.335-.193c.215-.264 6.988-9.12 6.988-9.12l.766.59.066.05.698.522z" fill="#5FBEFF"/><path class="p-564541" d="M16.017 24.03c-.195.262-6.949 9.116-6.968 9.119a2.907 2.907 0 01-1.9 1.13l8.17-10.77.698.522z" fill="#76B7E2"/><path class="p-FF4040" d="M9.808 22.687c-.068.068-.114.153-.18.24l1.596 1.074a.45.45 0 00.114-.152c.303-.336 2.414-2.545 2.85-2.219.437.327-1.022 3.007-1.352 3.424l1.55 1.16c.31-.416 2.487-2.576 2.902-2.266.418.33-1.048 2.971-1.322 3.361-.03.063-.082.11-.115.153l1.482 1.227c.068-.068.133-.155.18-.24C23.745 20.365 28.727 9.814 32.554.305 24.515 6.663 15.8 14.424 9.808 22.687z" fill="#58ADE5"/><path class="p-E10000" d="M32.555.305c-3.828 9.509-8.81 20.06-15.043 28.144a1.107 1.107 0 01-.18.24l-1.48-1.227c.032-.044.084-.09.113-.153.275-.39 1.74-3.032 1.323-3.36-.415-.31-2.592 1.85-2.902 2.264l-.698-.522L32.555.305z" fill="#4D98CB"/></svg>