<svg width="29" height="30" fill="none" xmlns="http://www.w3.org/2000/svg"><path class="p-FF637B" d="M13.417 30H9.792l-.704-1.091-1.056 1.09h-1.76l-.915-1.354L4.512 30H0l2.752-15.898s1.373-.973 2.64-1.818H9.37l2.182 1.818L13.417 30zM27.496 30h-3.625l-.704-1.091-1.056 1.09h-1.76l-.915-1.354L18.59 30h-3.625l1.865-15.898s1.373-.973 2.64-1.818h3.977l2.183 1.818L27.496 30z" fill="#A1D1FD"/><path class="p-E63950" d="M13.418 30H9.792l-.704-1.091-1.056 1.09h-.88V12.285H9.37l2.182 1.818L13.418 30zM28.384 30H23.87l-.704-1.091-1.056 1.09h-.88V12.285h2.218l2.182 1.818L28.384 30z" fill="#65B3E7"/><path class="p-F2F2F2" d="M10.268 7.48a4.379 4.379 0 01-3.115 1.284v-1.76c.704 0 1.372-.281 1.865-.774a2.624 2.624 0 000-3.73 2.65 2.65 0 00-1.865-.758 2.65 2.65 0 00-1.866.757 2.644 2.644 0 00-.628 1.002c-.16.459-.54.864-1.026.864s-.89-.398-.794-.875a4.365 4.365 0 011.199-2.24C4.865.422 6.008 0 7.153 0c1.144 0 2.287.422 3.115 1.25 1.707 1.724 1.724 4.505 0 6.23z" fill="#B9DFFC"/><path class="p-D3D3D8" d="M10.267 7.48a4.379 4.379 0 01-3.115 1.284v-1.76c.704 0 1.373-.281 1.866-.774a2.624 2.624 0 000-3.73 2.65 2.65 0 00-1.866-.758V0c1.144 0 2.288.422 3.115 1.25 1.707 1.724 1.725 4.505 0 6.23z" fill="#76B7E2"/><path class="p-F2F2F2" d="M24.347 7.48a4.379 4.379 0 01-3.115 1.284v-1.76c.704 0 1.372-.281 1.865-.774a2.624 2.624 0 000-3.73 2.65 2.65 0 00-1.865-.758 2.65 2.65 0 00-1.866.757 2.645 2.645 0 00-.628 1.002c-.16.459-.54.864-1.026.864s-.89-.398-.794-.875a4.364 4.364 0 011.199-2.24C18.944.422 20.087 0 21.232 0c1.144 0 2.288.422 3.115 1.25 1.707 1.724 1.724 4.505 0 6.23z" fill="#B9DFFC"/><path class="p-D3D3D8" d="M24.346 7.48a4.379 4.379 0 01-3.115 1.284v-1.76c.704 0 1.373-.281 1.866-.774a2.624 2.624 0 000-3.73 2.65 2.65 0 00-1.866-.758V0c1.144 0 2.288.422 3.115 1.25 1.707 1.724 1.725 4.505 0 6.23z" fill="#76B7E2"/><path class="p-FBC56D" d="M10.268 8.307a4.295 4.295 0 00-3.115-1.303 4.401 4.401 0 00-4.4 4.4v2.698h8.8v-2.698a4.279 4.279 0 00-1.285-3.097z" fill="#B9DFFC"/><path class="p-EBAE56" d="M11.552 11.404v2.698h-4.4V7.004c1.197 0 2.288.458 3.115 1.303a4.28 4.28 0 011.285 3.097z" fill="#A1D1FD"/><path class="p-FBC56D" d="M24.347 8.307a4.295 4.295 0 00-3.115-1.303 4.401 4.401 0 00-4.4 4.4v2.698h8.8v-2.698a4.279 4.279 0 00-1.285-3.097z" fill="#B9DFFC"/><path class="p-EBAE56" d="M25.631 11.404v2.698h-4.4V7.004c1.197 0 2.288.458 3.115 1.303a4.28 4.28 0 011.285 3.097z" fill="#A1D1FD"/><path class="p-E63950" d="M6.272 30v-7.978a.88.88 0 10-1.76 0V30h1.76z" fill="#58ADE5"/><path class="p-AE2538" d="M9.792 30v-7.978a.88.88 0 10-1.76 0V30h1.76z" fill="#4D98CB"/><path class="p-E63950" d="M20.35 30v-7.978a.88.88 0 10-1.76 0V30h1.76z" fill="#58ADE5"/><path class="p-AE2538" d="M23.871 30v-7.978a.88.88 0 10-1.76 0V30h1.76z" fill="#4D98CB"/></svg>