<svg width="23" height="30" fill="none" xmlns="http://www.w3.org/2000/svg"><path class="p-54469D" d="M22.851 11.485l-1.758 1.757L22.851 15v9.727l-8.789 1.02-7.154.825c0-.316-5.15-.633-5.15-.967V3.428L6.943 0h7.12l2.636 2.127L19.335 0h3.516v11.485z" fill="#58ADE5"/><path class="p-463B85" d="M22.851 11.485l-1.757 1.757L22.85 15v9.726l-8.788 1.02V0h8.788v11.485z" fill="#4D98CB"/><path class="p-CB75F6" d="M7.031 13.242a4.402 4.402 0 00-3.515-4.306V5.244C5.519 4.836 7.03 3.002 7.03.879c0-.302-.038-.594-.096-.879H0v27.363l4.98-.575 1.933-.223c.07-.31.118-.629.118-.96A4.402 4.402 0 003.516 21.3v-3.75a4.402 4.402 0 003.515-4.307z" fill="#A1D1FD"/><path class="p-C6E2E7" d="M17.578 11.485h5.273V15h-5.273v-3.515z" fill="#A1D1FD"/><path class="p-463B85" d="M22.851 26.484l-1.758.88 1.758.878V30H2.637A2.633 2.633 0 010 27.363a2.633 2.633 0 012.637-2.636H22.85v1.757z" fill="#5FBEFF"/><path class="p-392E6E" d="M22.851 26.484l-1.757.88 1.757.878V30h-8.788v-5.273h8.788v1.757z" fill="#65B3E7"/><path class="p-DEECF1" d="M22.851 26.484v1.758H2.637a.87.87 0 01-.88-.879.87.87 0 01.88-.879H22.85z" fill="#B9DFFC"/><path class="p-C6E2E7" d="M14.063 26.484h8.788v1.758h-8.788v-1.758z" fill="#A1D1FD"/><path class="p-FFE470" d="M14.062 8.848a4.396 4.396 0 00-4.394 4.394 4.396 4.396 0 004.394 4.395 4.396 4.396 0 004.395-4.395 4.396 4.396 0 00-4.395-4.394z" fill="#B9DFFC"/><path class="p-FFD400" d="M18.457 13.242a4.396 4.396 0 01-4.395 4.395v-8.79a4.396 4.396 0 014.395 4.395z" fill="#A1D1FD"/><path class="p-FDBF00" d="M14.062 10.606a2.633 2.633 0 00-2.636 2.637 2.633 2.633 0 002.636 2.636 2.633 2.633 0 002.637-2.636 2.633 2.633 0 00-2.637-2.637z" fill="#5FBEFF"/><path class="p-FF9F00" d="M16.7 13.243a2.633 2.633 0 01-2.637 2.636v-5.273a2.633 2.633 0 012.636 2.637z" fill="#58ADE5"/><path class="p-FFE470" d="M13.184 12.364h1.757v1.757h-1.757v-1.758z" fill="#B9DFFC"/><path class="p-FFD400" d="M14.063 12.364h.878v1.757h-.879v-1.758z" fill="#A1D1FD"/></svg>