<svg width="30" height="30" fill="none" xmlns="http://www.w3.org/2000/svg"><path class="p-3F6199" d="M15 30c8.284 0 15-6.716 15-15 0-8.284-6.716-15-15-15C6.716 0 0 6.716 0 15c0 8.284 6.716 15 15 15z" fill="#58ADE5"/><path class="p-2B4160" d="M30 15c0-.47-.023-.934-.065-1.392L24.07 7.74 6.661 23.087l6.839 6.838c.493.05.994.075 1.5.075 8.284 0 15-6.716 15-15z" fill="#4D98CB"/><path class="p-FF583E" d="M15 26.616c6.416 0 11.616-5.2 11.616-11.616 0-6.415-5.2-11.616-11.616-11.616-6.415 0-11.616 5.2-11.616 11.616 0 6.416 5.2 11.616 11.616 11.616z" fill="#A1D1FD"/><path class="p-E82E21" d="M15 3.384h-.006v23.232H15c6.415 0 11.616-5.2 11.616-11.616 0-6.415-5.2-11.616-11.616-11.616z" fill="#58ADE5"/><path class="p-FFFFFF" d="M10.153 12.41v8.604H7.776v-5.638a7.237 7.237 0 01-1.117.71c-.36.18-.81.354-1.353.519v-1.928c.8-.257 1.421-.567 1.864-.929a3.792 3.792 0 001.039-1.338h1.944zM12.806 16.466c-.369-.196-.638-.415-.807-.657a1.947 1.947 0 01-.347-1.143c0-.708.333-1.287.999-1.737.52-.347 1.206-.52 2.06-.52 1.131 0 1.967.216 2.507.647.541.43.811.973.811 1.627 0 .381-.107.737-.323 1.068-.161.246-.415.485-.762.716.458.219.8.51 1.025.87.225.363.337.763.337 1.201a2.5 2.5 0 01-.291 1.186c-.194.368-.433.651-.716.852-.282.2-.635.347-1.056.441-.421.094-.87.141-1.347.141-.897 0-1.582-.106-2.055-.317a2.32 2.32 0 01-1.08-.935 2.635 2.635 0 01-.368-1.38c0-.496.115-.916.346-1.26.23-.344.586-.611 1.067-.8zm.93 1.98c0 .373.113.678.34.915.227.236.487.354.78.354.28 0 .532-.12.755-.36.223-.24.335-.546.335-.915 0-.373-.113-.679-.338-.918-.225-.238-.485-.357-.782-.357-.292 0-.547.115-.764.346-.218.23-.326.543-.326.935zm.127-3.642c0 .293.09.528.274.707.182.18.426.269.73.269.269 0 .49-.089.663-.266.174-.177.26-.406.26-.686 0-.293-.09-.53-.271-.713a.933.933 0 00-.693-.274c-.284 0-.516.09-.695.268-.179.179-.268.41-.268.695z" fill="#5FBEFF"/><path class="p-E9EDF5" d="M17.969 17.338c-.225-.362-.567-.652-1.025-.872.347-.23.6-.469.762-.715a1.92 1.92 0 00.323-1.068c0-.654-.27-1.196-.81-1.627-.495-.394-1.236-.607-2.224-.641v1.439c.206.03.38.116.524.26.18.183.271.421.271.713 0 .281-.086.51-.26.687a.863.863 0 01-.535.258v1.408c.227.037.432.15.613.343.225.238.338.544.338.917 0 .37-.112.674-.335.915-.185.2-.39.315-.616.349v1.453a6.1 6.1 0 001.248-.14c.421-.094.773-.241 1.056-.442.283-.2.521-.483.716-.85a2.5 2.5 0 00.291-1.187c0-.438-.112-.838-.337-1.2zM17.855 10.496h2.21V8.274h1.864v2.222h2.222v1.864h-2.222v2.21h-1.864v-2.21h-2.21v-1.864z" fill="#4D98CB"/></svg>