<svg width="30" height="30" fill="none" xmlns="http://www.w3.org/2000/svg"><path class="p-76E2F8" d="M30 5.666v3.181h-1.758V6.756l-1.758-.88v5.608h-1.757V3.03L30 5.666zM8.848 2.637v3.24H7.09v-2.15l-1.758-.88V7.97H3.574V0l5.274 2.637z" fill="#A1D1FD"/><path class="p-D3D3D8" d="M4.87 13.242L7.365 15l2.18-1.758L15 7.09c-4.406 0-8.224 2.498-10.13 6.152z" fill="#A1D1FD"/><path class="p-0095FF" d="M15 7.09l5.455 6.152L22.419 15l2.77-1.758A11.509 11.509 0 0015 7.09z" fill="#4D98CB"/><path class="p-73BCFF" d="M15 7.09c-2.373 0-4.428 2.498-5.455 6.152L12.272 15 15 13.242l1.757-3.076L15 7.09z" fill="#58ADE5"/><path class="p-76E2F8" d="M20.455 13.242C19.428 9.588 17.373 7.09 15 7.09v6.152L18.076 15l2.379-1.758z" fill="#A1D1FD"/><path class="p-575F64" d="M14.121 0h1.758v7.833H14.12V0z" fill="#B9DFFC"/><path class="p-32393F" d="M15 0h.879v7.833H15V0z" fill="#4D98CB"/><path class="p-76E2F8" d="M4.453 6.018a2.58 2.58 0 00-1.758-.686C1.236 5.332 0 6.51 0 7.969s1.236 2.636 2.695 2.636c.686 0 1.301-.263 1.758-.685a2.58 2.58 0 00.879-1.951 2.58 2.58 0 00-.879-1.951zM28.242 12.363H30v1.758h-1.758v-1.758zM5.332 26.484H3.574v-1.757H1.816v1.757H0v1.758h1.816V30h1.758v-1.758h1.758v-1.758z" fill="#A1D1FD"/><path class="p-575F64" d="M12.363 6.954v1.015A2.633 2.633 0 0015 10.605a2.633 2.633 0 002.637-2.636V6.954h-5.274z" fill="#B9DFFC"/><path class="p-32393F" d="M17.637 6.954v1.015A2.633 2.633 0 0115 10.605V6.954h2.637z" fill="#4D98CB"/><path class="p-BABAC0" d="M25.189 13.242h-4.734l-1.41 2.637 2.107 2.637 3.575 1.757 1.758-1.757c0-1.904-.473-3.695-1.296-5.274z" fill="#B9DFFC"/><path class="p-73BCFF" d="M4.87 13.242a11.366 11.366 0 00-1.296 5.274l2.197 1.757 3.077-1.757 2.106-2.637-1.409-2.637H4.87z" fill="#58ADE5"/><path class="p-9BFCFF" d="M15 13.242H9.545c-.443 1.579-.697 3.37-.697 5.274l3.076 1.757L15 18.516l1.758-2.637L15 13.242z" fill="#B9DFFC"/><path class="p-0095FF" d="M15 18.516l3.076 1.757 3.076-1.757c0-1.904-.254-3.695-.697-5.274H15v5.274zM21.152 18.516l-2.106 2.695 1.409 2.637h4.734a11.603 11.603 0 001.296-5.332h-5.332z" fill="#4D98CB"/><path class="p-9BFCFF" d="M8.848 18.516H3.574c0 1.903.472 3.753 1.296 5.332l2.394 1.758 2.281-1.758 1.41-2.637-2.107-2.695z" fill="#B9DFFC"/><path class="p-73BCFF" d="M15 18.516H8.848c0 1.903.254 3.753.697 5.332l2.379 1.758L15 23.848l1.758-2.637L15 18.516z" fill="#58ADE5"/><path class="p-D3D3D8" d="M15 23.848l2.727 1.758 2.728-1.758c.443-1.579.697-3.429.697-5.332H15v5.332z" fill="#B9DFFC"/><path class="p-76E2F8" d="M20.455 23.848L15 30a11.51 11.51 0 0010.189-6.152h-4.734z" fill="#A1D1FD"/><path class="p-73BCFF" d="M9.545 23.848H4.87C6.776 27.502 10.594 30 15 30l-5.455-6.152z" fill="#58ADE5"/><path class="p-A1D1FD" d="M9.545 23.848C10.572 27.502 12.627 30 15 30l1.757-3.076L15 23.848H9.545z" fill="#A1D1FD"/><path class="p-0095FF" d="M20.455 23.848H15V30c2.373 0 4.428-2.498 5.455-6.152z" fill="#4D98CB"/><path class="p-76E2F8" d="M25.605 9.533a2.58 2.58 0 00-1.757-.685c-1.46 0-2.696 1.177-2.696 2.636 0 1.46 1.236 2.637 2.696 2.637.685 0 1.3-.264 1.758-.685a2.58 2.58 0 00.878-1.952 2.58 2.58 0 00-.879-1.95z" fill="#A1D1FD"/></svg>