<svg width="32" height="32" fill="none" xmlns="http://www.w3.org/2000/svg"><path class="p-E63950" d="M27.25 30.125L28.188 32H32v-1.875h-4.75z" fill="#4D98CB"/><path class="p-FF637B" d="M28.188 3.75l-.938 1.875H32V3.75h-3.813zM32 7.5h-4.75v1.875H32V7.5zM32 11.313h-4.75v1.874H32v-1.874zM32 15.063h-4.75v1.874H32v-1.875z" fill="#76B7E2"/><path class="p-E63950" d="M32 18.813h-4.75v1.875H32v-1.875zM32 22.625h-4.75V24.5H32v-1.875zM32 26.375h-4.75v1.875H32v-1.875z" fill="#4D98CB"/><path class="p-FBC56D" d="M28.188 3.75V32H23.63l-4.05-2.4-5.325 2.4H4.687L6.17 17.875 7.63 3.75h4.619l5.456 2.4 3.919-2.4h6.563z" fill="#B9DFFC"/><path class="p-EBAE56" d="M28.188 17.875V32H23.63l-4.05-2.4-5.325 2.4H4.687L6.17 17.875h22.019z" fill="#A1D1FD"/><path class="p-FF637B" d="M23.612 31.044c-.037-1.05-.543-1.988-1.425-2.55a1.353 1.353 0 01-.581-1.125c0-.431.206-.825.581-1.07.9-.599 1.425-1.612 1.425-2.68a3.31 3.31 0 00-1.425-2.706 1.297 1.297 0 01-.581-1.107c0-.431.206-.825.581-1.069.357-.225.638-.524.863-.862a3.117 3.117 0 00.562-1.819 3.117 3.117 0 00-1.425-2.625 1.354 1.354 0 01-.581-1.125c0-.431.206-.825.581-1.069.9-.6 1.425-1.675 1.425-2.743a3.145 3.145 0 00-1.406-2.625 1.323 1.323 0 01-.6-1.163l.019-.956H12.25l-.019.919a3.236 3.236 0 001.425 2.756c.356.244.581.638.581 1.069 0 .45-.206.862-.6 1.106-.881.581-1.406 1.637-1.406 2.706-.019 1.069.525 2.063 1.425 2.681.356.244.581.638.581 1.07 0 .45-.206.862-.6 1.106-.3.187-.543.43-.75.712a3.084 3.084 0 00-.656 1.931 3.307 3.307 0 001.425 2.744c.356.244.581.637.581 1.069 0 .45-.206.862-.6 1.106a3.157 3.157 0 00-1.406 2.644c-.019 1.068.525 2.062 1.425 2.68.356.245.563.6.581 1.032l.019.919h9.375l-.019-.956z" fill="#76B7E2"/><path class="p-E63950" d="M23.63 32h-9.374l-.019-.919a1.282 1.282 0 00-.581-1.031c-.9-.619-1.444-1.613-1.425-2.681 0-1.07.525-2.063 1.406-2.644.394-.244.6-.656.6-1.106 0-.431-.225-.825-.581-1.07a3.307 3.307 0 01-1.425-2.743c0-.712.225-1.387.656-1.931H23.05a2.909 2.909 0 01-.863.862 1.256 1.256 0 00-.581 1.07c0 .45.206.862.581 1.106a3.31 3.31 0 011.425 2.706 3.219 3.219 0 01-1.425 2.68 1.256 1.256 0 00-.581 1.07c0 .45.206.862.581 1.125.881.562 1.388 1.5 1.425 2.55l.019.956z" fill="#4D98CB"/><path class="p-FF637B" d="M9.375 4.688v22.625H0V4.688A4.69 4.69 0 014.688 0a4.69 4.69 0 014.687 4.688z" fill="#B9DFFC"/><path class="p-E63950" d="M9.375 4.688v22.625H4.687V0a4.69 4.69 0 014.688 4.688z" fill="#76B7E2"/><path class="p-E63950" d="M4.688 22.625A4.69 4.69 0 000 27.313 4.69 4.69 0 004.688 32a4.69 4.69 0 004.687-4.688 4.69 4.69 0 00-4.688-4.687z" fill="#58ADE5"/><path class="p-AE2538" d="M9.375 27.313A4.69 4.69 0 014.687 32v-9.375a4.69 4.69 0 014.688 4.688z" fill="#4D98CB"/></svg>