<svg width="40" height="40" fill="none" xmlns="http://www.w3.org/2000/svg"><path class="p-DEECF1" d="M25.86 7.188h11.718v11.718H25.86V7.188z" fill="#A1D1FD"/><path class="p-C6E2E7" d="M31.719 7.188h5.86v11.718h-5.86V7.188z" fill="#B9DFFC"/><path class="p-5A5A5A" d="M30.547 14.219h2.344v3.867h-2.344v-3.867z" fill="#AFD9F6"/><path class="p-C83C50" d="M40 9.531H23.516l2.343-4.687h11.72L40 9.53z" fill="#AFD9F6"/><path class="p-444444" d="M31.719 14.219h1.172v3.867h-1.172v-3.867z" fill="#4D98CB"/><path class="p-B03244" d="M40 9.531h-8.281V4.844h5.86L40 9.53z" fill="#4D98CB"/><path class="p-A9DA40" d="M40 16.445v7.102l-8.281 2.296-11.555 3.235-4.055-5.766a37.556 37.556 0 0115.61-6.398 36.28 36.28 0 017.133-.492l1.148.023z" fill="#58ADE5"/><path class="p-90C225" d="M40 16.445v7.102l-8.281 2.296v-8.93a36.28 36.28 0 017.133-.491l1.148.023z" fill="#4D98CB"/><path class="p-C9E36A" d="M40 23.547v7.03l-8.281 2.18-7.547 1.993-4.008-5.672a30.66 30.66 0 0111.555-4.946c2.671-.585 5.515-.773 8.28-.585z" fill="#5FBEFF"/><path class="p-A9DA40" d="M40 23.547v7.03l-8.281 2.18v-8.625c2.672-.585 5.515-.773 8.281-.585z" fill="#58ADE5"/><path class="p-A9DA40" d="M40 30.578V40H27.875l-2.367-3.351-1.336-1.899a23.965 23.965 0 017.546-3.422 22.194 22.194 0 016.07-.844l2.212.094z" fill="#58ADE5"/><path class="p-90C225" d="M37.789 30.484l2.211.094V40h-8.281v-8.672a22.192 22.192 0 016.07-.844z" fill="#4D98CB"/><path class="p-FED2A4" d="M9.453 0h2.344v3.672H9.453V0zM9.453 13.047h2.344v3.515H9.453v-3.515zM5.652 1.73L8.14 4.215 6.482 5.873 3.995 3.387l1.657-1.658z" fill="#AFD9F6"/><path class="p-FFBD86" d="M14.768 10.845l2.486 2.487-1.657 1.657-2.487-2.487 1.658-1.657z" fill="#58ADE5"/><path class="p-FED2A4" d="M2.422 7.188h3.515V9.53H2.422V7.187z" fill="#AFD9F6"/><path class="p-FFBD86" d="M15.313 7.188h3.515V9.53h-3.515V7.187z" fill="#58ADE5"/><path class="p-FED2A4" d="M6.483 10.845l1.657 1.657-2.487 2.487-1.657-1.657 2.487-2.487z" fill="#AFD9F6"/><path class="p-FFBD86" d="M15.597 1.73l1.657 1.657-2.487 2.486-1.657-1.657 2.487-2.487zM10.625 0h1.172v3.672h-1.172V0zM10.625 13.047h1.172v3.515h-1.172v-3.515z" fill="#58ADE5"/><path class="p-FFBD86" d="M10.625 2.5a5.862 5.862 0 00-5.86 5.86 5.862 5.862 0 005.86 5.859 5.862 5.862 0 005.86-5.86 5.862 5.862 0 00-5.86-5.859z" fill="#58ADE5"/><path class="p-F6A96C" d="M16.484 8.36a5.862 5.862 0 01-5.859 5.859V2.5a5.862 5.862 0 015.86 5.86z" fill="#4D98CB"/><path class="p-90C225" d="M27.875 40h-7.43L0 25.984v-7.031c3.563-.14 7.18.352 10.625 1.617a27.872 27.872 0 015.484 2.742c5.11 3.328 8.953 8.274 10.922 14.18L27.875 40z" fill="#4D98CB"/><path class="p-A9DA40" d="M10.22 28.037A20.313 20.313 0 000 25.974v7.07L12.84 40h7.595c-1.644-5.184-5.242-9.493-10.214-11.963z" fill="#58ADE5"/><path class="p-90C225" d="M5.751 33.774A13.195 13.195 0 000 33.044V40h12.84a13.11 13.11 0 00-7.089-6.226z" fill="#4D98CB"/></svg>