<svg width="34" height="38" fill="none" xmlns="http://www.w3.org/2000/svg"><path class="p-888890" d="M19.436 36.887V1.113a1.113 1.113 0 10-2.227 0v35.774a1.113 1.113 0 102.227 0z" fill="#A1D1FD"/><path class="p-56535A" d="M19.436 37.443V1.113C19.436.498 18.937 0 18.322 0v37.443a.557.557 0 001.114 0z" fill="#4D98CB"/><path class="p-888890" d="M8.674 24.418V1.113a1.113 1.113 0 00-2.227 0v23.305h2.227z" fill="#A1D1FD"/><path class="p-56535A" d="M8.674 24.418V1.113C8.674.498 8.175 0 7.56 0v24.418h1.113z" fill="#4D98CB"/><path class="p-FFDC40" d="M15.121 38H0l1.4-11.894a3.34 3.34 0 013.316-2.95h5.689a3.34 3.34 0 013.317 2.95L15.12 38z" fill="#65B3E7"/><path class="p-DBB924" d="M7.56 38h7.561l-1.4-11.894a3.34 3.34 0 00-3.316-2.95H7.56V38z" fill="#4D98CB"/><path class="p-00C3FF" d="M1.399 26.106l-.177 1.503h12.676l-.177-1.503a3.35 3.35 0 00-.168-.723H1.567c-.081.23-.139.472-.168.723z" fill="#A1D1FD"/><path class="p-00AAF0" d="M7.56 27.61H13.9l-.177-1.504a3.338 3.338 0 00-.168-.723H7.56v2.226z" fill="#58ADE5"/><path class="p-FF6849" d="M33.166 38H17.209v-8.582l15.957 5.175V38z" fill="#65B3E7"/><path class="p-E8130F" d="M25.188 32.005V38h7.978v-3.407l-7.978-2.588z" fill="#4D98CB"/></svg>