<svg width="30" height="24" fill="none" xmlns="http://www.w3.org/2000/svg"><path class="p-515BE0" d="M13.723 4.1H12v3.66h1.722V4.1z" fill="#65B3E7"/><path class="p-00347B" d="M17.383 4.1H15.66v3.66h1.722V4.1z" fill="#65B3E7"/><path class="p-515BE0" d="M29.384 18.23c0-4.557-2.205-8.738-5.767-11.331h-8.925l-1.149 8.56L14.692 24h14.692v-5.77z" fill="#A1D1FD"/><path class="p-65B3E7" d="M5.767 6.899A14.015 14.015 0 000 18.23V24h14.692V6.899H5.767z" fill="#B9DFFC"/><path class="p-FFF5F5" d="M11.086 10.928h-.109a.86.86 0 100 1.722h.109a.86.86 0 000-1.722zM14.747 10.928h-.109a.86.86 0 100 1.722h.109a.86.86 0 100-1.722z" fill="#65B3E7"/><path class="p-E1D3CE" d="M18.407 10.928h-.109a.86.86 0 100 1.722h.109a.86.86 0 000-1.722z" fill="#65B3E7"/><path class="p-FFF5F5" d="M11.086 14.59h-.109a.86.86 0 100 1.72h.109a.86.86 0 100-1.72zM14.747 14.59h-.109a.86.86 0 000 1.72h.109a.86.86 0 100-1.72z" fill="#65B3E7"/><path class="p-E1D3CE" d="M18.407 14.59h-.109a.86.86 0 100 1.72h.109a.86.86 0 100-1.72z" fill="#65B3E7"/><path class="p-FFF5F5" d="M11.086 18.25h-.109a.86.86 0 100 1.721h.109a.86.86 0 100-1.721zM14.747 18.25h-.109a.86.86 0 000 1.721h.109a.86.86 0 100-1.721z" fill="#65B3E7"/><path class="p-E1D3CE" d="M18.407 18.25h-.109a.86.86 0 100 1.721h.109a.86.86 0 100-1.721z" fill="#65B3E7"/><path class="p-00347B" d="M24.07 0h-9.378l-1.149 2.243 1.149 2.718h5.49v1.661a2 2 0 002 2h3.371a2 2 0 002-2V3.483A3.483 3.483 0 0024.07 0z" fill="#65B3E7"/><path class="p-515BE0" d="M5.314 0a3.483 3.483 0 00-3.483 3.483v3.14a2 2 0 002 2h3.37a2 2 0 002-2V4.961h5.492V0H5.314z" fill="#A1D1FD"/></svg>