<svg width="34" height="34" fill="none" xmlns="http://www.w3.org/2000/svg"><path class="p-E5B728" d="M13.016 9.363L17 15.008h5.379l3.32-1.328 3.32 1.328h3.985V9.363H13.016z" fill="#4D98CB"/><path class="p-FFD75A" d="M17 9.363H.996v5.645H17V9.363z" fill="#65B3E7"/><path class="p-146D47" d="M32.008 10.027l.996.996h-2.988l-.996 1.329-.997-1.329h-4.648l-.996 1.329-.996-1.329H17l-1.992-1.992L17 7.04h12.02a2.997 2.997 0 012.988 2.988z" fill="#58ADE5"/><path class="p-A3EBFE" d="M10.73 4.05H4.98a2.997 2.997 0 00-2.988 2.99l5.863 2.655 5.863-2.656a2.997 2.997 0 00-2.989-2.988z" fill="#A1D1FD"/><path class="p-299B6A" d="M17 7.04H.996v3.983H17V7.04z" fill="#B9DFFC"/><path class="p-E5B728" d="M13.016 25.3L17 30.946h5.379l3.32-.996 3.32.996h3.985v-5.644H13.016z" fill="#4D98CB"/><path class="p-FFD75A" d="M17 25.3H.996v5.645H17v-5.644z" fill="#65B3E7"/><path class="p-146D47" d="M32.008 25.965l.996.996H29.02l-3.32-.996-3.321.996H17l-1.992-1.992L17 22.977h5.379l3.32-.997 3.32.997a2.997 2.997 0 012.989 2.988z" fill="#58ADE5"/><path class="p-A3EBFE" d="M10.73 19.988H4.98a2.997 2.997 0 00-2.988 2.989l5.863 2.656 5.863-2.656a2.997 2.997 0 00-2.989-2.989z" fill="#A1D1FD"/><path class="p-299B6A" d="M17 22.977H.996v3.984H17v-3.984z" fill="#B9DFFC"/><path class="p-1B7CD5" d="M34 34V3.055a.996.996 0 00-1.992 0V34H34z" fill="#65B3E7"/><path class="p-57AEFF" d="M1.992 34V.996A.996.996 0 000 .996V34h1.992z" fill="#5FBEFF"/><path class="p-57AEFF" d="M29.02 17h-6.641v1.992h6.64V17zM29.02 20.984h-6.641v1.993h6.64v-1.993zM29.02 28.953h-6.641v1.992h6.64v-1.992zM29.02 24.969h-6.641v1.992h6.64v-1.992zM29.02 13.016h-6.641v1.992h6.64v-1.992z" fill="#B9DFFC"/><path class="p-1B7CD5" d="M30.016 11.023h-1.993V34h1.993V11.023zM23.375 11.023h-1.992V34h1.992V11.023z" fill="#A1D1FD"/></svg>