<svg width="32" height="28" fill="none" xmlns="http://www.w3.org/2000/svg"><path class="p-8C493B" d="M21.456 5.613h-2.194V3.767c0-.868-.706-1.574-1.573-1.574h-3.942c-.867 0-1.573.706-1.573 1.574v1.846H9.98V3.767A3.771 3.771 0 0113.747 0h3.942a3.771 3.771 0 013.767 3.767v1.846z" fill="#AFD9F6"/><path class="p-774135" d="M17.69 0h-1.971v2.193h1.97c.868 0 1.574.706 1.574 1.574v1.846h2.193V3.767A3.771 3.771 0 0017.69 0z" fill="#65B3E7"/><path class="p-F6C958" d="M28.47 27.977H2.966A2.967 2.967 0 010 25.009V8.362a2.967 2.967 0 012.967-2.967H28.47a2.967 2.967 0 012.967 2.967V25.01a2.967 2.967 0 01-2.967 2.968z" fill="#58ADE5"/><path class="p-E5BC53" d="M28.263 5.395H15.719v22.582h12.544a3.174 3.174 0 003.174-3.175V8.57a3.174 3.174 0 00-3.174-3.174z" fill="#4D98CB"/><path class="p-F5F6F6" d="M8.617 5.395H6.424V28h2.193V5.395z" fill="#B9DFFC"/><path class="p-E5E5E5" d="M25.012 5.395H22.82v22.582h2.193V5.395z" fill="#A1D1FD"/><path class="p-95E9D2" d="M4.265 16.545l10.279-2.843-1.575-5.694L2.691 10.85l1.574 5.695z" fill="#A1D1FD"/><path class="p-D85397" d="M19.043 23.638l7.549 1.182.828-5.286-7.55-1.182-.827 5.286z" fill="#5FBEFF"/></svg>