<svg width="23" height="38" fill="none" xmlns="http://www.w3.org/2000/svg"><path class="p-BABAC0" d="M16.271 38a4.475 4.475 0 01-4.47-4.47v-4.31l6.088 3.044-1 1.148-3.69-1.903v2.555c0 1.232 1.278 2.552 3.072 2.552 2.384 0 3.087-1.854 3.087-3.087v-5.588h1.384v5.588A4.475 4.475 0 0116.272 38zM19.358 3.323h1.384v17.912h-1.384V3.323z" fill="#A1D1FD"/><path class="p-32393F" d="M15.015 12.718l-2.17-2.197 1.58-1.58 2.17 2.197-1.58 1.58z" fill="#4D98CB"/><path class="p-7C8388" d="M22.202.79l-.79-.79L0 21.412l.786.786.004.005.79.79L22.993 1.58l-.79-.79z" fill="#5FBEFF"/><path class="p-575F64" d="M1.58 22.992L22.994 1.58l-.79-.79L.786 22.198l.004.005.79.79z" fill="#58ADE5"/><path class="p-FF9100" d="M20.012 28.102c-1.644 0-2.98-1.29-2.98-2.874v-1.916c0-1.585 1.336-2.874 2.98-2.874 1.643 0 2.98 1.29 2.98 2.874v1.916c0 1.585-1.337 2.874-2.98 2.874z" fill="#65B3E7"/></svg>