<svg width="34" height="22" fill="none" xmlns="http://www.w3.org/2000/svg"><path class="p-E08344" d="M26.32.921c-.837 0-2.526 1.15-3.186 1.567-.526.333-1.214 1.13-1.61.649C20.406 1.777 18.71 0 16.811 0s-3.594 1.776-4.713 3.137c-.395.48-1.993-1.225-2.519-1.557A4.247 4.247 0 007.302.92c-2.359 0-3.362 1.912-3.362 4.27v6.161h25.742v-6.16c0-2.359-1.003-4.27-3.361-4.27z" fill="#B9DFFC"/><path class="p-D6702B" d="M26.32.921c-.837 0-2.527 1.15-3.186 1.567a1.23 1.23 0 01-1.61-.26A6.087 6.087 0 0016.81 0v11.352h12.87v-6.16c0-2.359-1.003-4.27-3.36-4.27z" fill="#A1D1FD"/><path class="p-00C3FF" d="M29.682 5.19c0 1.332-1.274 2.7-3.495 3.753-2.488 1.179-5.818 1.828-9.376 1.828s-6.888-.65-9.376-1.828C5.214 7.89 3.94 6.522 3.94 5.189a2.176 2.176 0 00-2.356 1.712L0 14.345v.103c0 2.179 1.862 4.15 5.243 5.554C8.349 21.29 12.457 22 16.81 22c4.354 0 8.462-.71 11.568-1.998 3.38-1.403 5.243-3.375 5.243-5.554v-.103L32.038 6.9a2.176 2.176 0 00-2.356-1.712z" fill="#58ADE5"/><path class="p-00AAF0" d="M32.038 6.9a2.176 2.176 0 00-2.357-1.71c0 1.332-1.274 2.7-3.495 3.753-2.488 1.179-5.817 1.828-9.375 1.828v11.23c4.353 0 8.462-.71 11.568-2 3.38-1.402 5.242-3.374 5.242-5.553v-.103L32.038 6.9z" fill="#4D98CB"/><path class="p-D6702B" d="M10.31 6.568a1.313 1.313 0 100-2.627 1.313 1.313 0 000 2.627zM14.513 8.8a1.313 1.313 0 100-2.626 1.313 1.313 0 000 2.627z" fill="#4D98CB"/><path class="p-E08344" d="M19.897 5.967a1.313 1.313 0 100-2.627 1.313 1.313 0 000 2.627zM23.969 8.462a1.313 1.313 0 100-2.627 1.313 1.313 0 000 2.627z" fill="#65B3E7"/></svg>