<svg width="33" height="32" fill="none" xmlns="http://www.w3.org/2000/svg"><path class="p-F4D7AF" d="M25.189 28.977h-1.964v-2.015h1.964a5.044 5.044 0 005.038-5.038 5.044 5.044 0 00-5.038-5.037h-2.267v-2.015h2.267c3.889 0 7.053 3.164 7.053 7.052 0 3.89-3.164 7.053-7.053 7.053z" fill="#76B7E2"/><path class="p-F4D7AF" d="M22.489 30.75L21.723 32H7.053l-4.09-8.282a22.945 22.945 0 01-.121-8.846l11.264-2.016 11.245 2.016c.967 5.42 0 11.103-2.862 15.879z" fill="#76B7E2"/><path class="p-DABBA6" d="M22.488 30.75L21.723 32h-7.617V12.856l11.244 2.016c.967 5.42 0 11.103-2.862 15.879z" fill="#4D98CB"/><path class="p-FAECD8" d="M13.075 6.045a3.41 3.41 0 01-1.15 2.54l-1.33-1.532c.283-.242.464-.605.464-1.008 0-.383-.181-.745-.463-.987a3.4 3.4 0 01-1.149-2.519A3.41 3.41 0 0110.596 0l1.33 1.531a1.327 1.327 0 00-.464 1.008c0 .383.182.746.464.987a3.4 3.4 0 011.149 2.52zM16.962 8.577L15.636 7.06a1.334 1.334 0 000-2.009 3.349 3.349 0 010-5.044l1.326 1.518a1.334 1.334 0 000 2.009 3.349 3.349 0 010 5.043zM25.35 14.871H2.84a23.364 23.364 0 011.27-4.413H24.1c.585 1.431.968 2.922 1.25 4.413z" fill="#B9DFFC"/><path class="p-F4D7AF" d="M25.35 14.871H14.105v-4.413H24.1c.585 1.431.968 2.922 1.25 4.413z" fill="#76B7E2"/><path class="p-714C2F" d="M14.025 27.587C13.602 30.106 10.72 32 7.053 32 3.103 32 0 29.783 0 26.962c0-.262.06-.524.1-.766 1.895 1.935 4.797.182 6.953-1.25 1.834-1.228 4.212.787 6.045 2.016l.927.625z" fill="#76B7E2"/><path class="p-523522" d="M14.025 27.587C13.602 30.106 10.72 32 7.053 32v-7.053c1.833-1.23 4.211.786 6.045 2.015l.927.625z" fill="#4D98CB"/><path class="p-895D3C" d="M14.106 26.962c0 .202-.06.403-.08.625l-.928-.625a5.416 5.416 0 00-6.045 0c-2.156 1.43-5.058 1.169-6.952-.766.503-2.438 3.365-4.272 6.952-4.272 3.95 0 7.053 2.217 7.053 5.038z" fill="#B9DFFC"/><path class="p-714C2F" d="M14.106 26.962c0 .202-.06.403-.08.625l-.928-.625a5.416 5.416 0 00-6.045 0v-5.038c3.95 0 7.053 2.217 7.053 5.038z" fill="#A1D1FD"/></svg>