<svg width="37" height="37" fill="none" xmlns="http://www.w3.org/2000/svg"><path class="p-D3D3D8" d="M31.371 4.089l1.532 1.532-3.496 3.496-1.532-1.532 3.496-3.496z" fill="#A1D1FD"/><path class="p-E2E2E7" d="M5.629 4.089l3.413 3.413L7.51 9.035 4.097 5.62l1.532-1.532z" fill="#B9DFFC"/><path class="p-E2E2E7" d="M8.562 26.898l1.532 1.533-8.562 8.561L0 35.46l8.562-8.562z" fill="#A1D1FD"/><path class="p-FF637B" d="M20.797 33.684c-.824.412-1.496.874-2.297 1.242-3.013-1.365-6.263-3.322-8.95-5.598-.347-.281 1.495-.585 1.17-.889-.456-.411-3.056-.844-3.468-1.278-.65-.693-1.279-1.409-1.82-2.167-.26-.347 1.669-.715 1.43-1.062-.216-.368-2.6-.737-2.795-1.105-1.127-2.08-1.82-4.313-1.82-6.675 0-.238.02-.563.086-.932l13.674 7.607.975.541.586 1.626.802 2.167.13.347.671 1.82 1.626 4.356z" fill="#5FBEFF"/><path class="p-E63950" d="M20.797 33.684c-.823.412-1.495.874-2.297 1.243v-7.42l.672 1.821 1.625 4.356z" fill="#4D98CB"/><path class="p-E63950" d="M9.552 29.328h9.63l-.802-2.167H7.253a28.48 28.48 0 002.299 2.167zM16.975 23.36l-.958-.533H4.06c.405.743.857 1.468 1.372 2.167h12.147l-.604-1.635z" fill="#4D98CB"/><path class="p-E63950" d="M34.561 14.158c-.06-.334-2.303-.656-2.391-.964-.121-.425 1.9-.826 1.73-1.203-1.792-4-6-5.418-8.313-5.418-3.491 0-5.73 1.961-7.092 3.355l1.487 2.063 1.562 2.167 1.562 2.167.983 1.364 1.088.803 7.187 5.305c1.055-1.656 1.802-3.433 2.154-5.305.063-.333-2.053-.668-2.015-1.007.042-.383 2.235-.769 2.24-1.16 0-.046.01-.09.01-.135 0-.73-.077-1.398-.192-2.032z" fill="#65B3E7"/><path class="p-BE1E33" d="M33.9 11.991H19.982l1.562 2.167h13.017a9.384 9.384 0 00-.66-2.167zM23.105 16.325l.983 1.364 1.089.803h9.34c.134-.709.216-1.43.225-2.167H23.106z" fill="#4D98CB"/><path class="p-FF637B" d="M3.33 6.573c-1.792 0-3.322-1.53-3.322-3.322C.008 1.458 1.538 0 3.33 0a3.254 3.254 0 013.25 3.25c0 1.793-1.458 3.323-3.25 3.323z" fill="#65B3E7"/><path class="p-E63950" d="M33.67 6.573c-1.793 0-3.251-1.53-3.251-3.322A3.254 3.254 0 0133.669 0c1.793 0 3.323 1.458 3.323 3.25 0 1.793-1.53 3.323-3.322 3.323z" fill="#4D98CB"/><path class="p-D3D3D8" d="M35.396 36.993l-8.525-8.597 1.532-1.532L37 35.46l-1.604 1.532z" fill="#B9DFFC"/><path class="p-F89FAD" d="M32.37 23.802c-.391.607-.824 1.192-1.28 1.755 0 0 0 .022-.021.022-.26.325-2.709-1.517-2.99-1.214-.195.217 1.776 2.6 1.56 2.818-.499.52-1.019.996-1.56 1.495-.304.26-2.774-1.647-3.078-1.387-.26.195 1.669 2.579 1.409 2.774a33.79 33.79 0 01-1.777 1.3c-.26.173-2.71-1.799-2.97-1.625-.346.216 1.474 2.622 1.106 2.817-.173.13-.932.563-1.972 1.127L2.333 15.22c.043-.433.217-1.343.629-2.47.13-.369 2.449 1.408 2.643 1.04.152-.325-1.842-2.796-1.647-3.12a8.98 8.98 0 011.366-1.691c.26-.26 2.73 1.647 3.055 1.409.26-.195-1.603-2.558-1.3-2.71a7.553 7.553 0 012.232-.823c.65-.152 3.49 1.929 4.248 1.929.282 0-1.626-2.102-1.365-2.102.021.021.021.021.043.021 3.467.282 4.53 1.496 6.263 3.23l13.87 13.869z" fill="#B9DFFC"/><path class="p-FF637B" d="M32.37 23.802c-.39.607-.824 1.192-1.28 1.755 0 0 0 .022-.02.022-.26.325-2.71-1.517-2.991-1.213-.195.216 1.777 2.6 1.56 2.817-.498.52-1.019.997-1.56 1.495-.304.26-2.774-1.647-3.078-1.387-.26.195 1.67 2.579 1.409 2.774-.585.455-1.17.889-1.777 1.3-.26.174-2.709-1.799-2.969-1.625-.347.216 1.474 2.622 1.105 2.817-.173.13-.931.564-1.972 1.127L18.5 31.387V9.933l13.87 13.869z" fill="#A1D1FD"/><path class="p-FF637B" d="M24.633 31.365c-.607.412-1.235.824-1.864 1.192L2.962 12.75c.238-.694.563-1.387.997-2.08L18.5 25.231l6.133 6.133zM28.079 28.678c-.542.477-1.105.932-1.669 1.387l-7.91-7.91L5.324 8.979a7.694 7.694 0 011.756-1.3l20.999 20.999zM31.091 25.557s0 .022-.022.022a24.56 24.56 0 01-1.43 1.604L9.312 6.855a8.977 8.977 0 012.08-.238c.282 0 .542.065.802.065.021.021.021.021.043.021l18.854 18.854z" fill="#A1D1FD"/><path class="p-F83E5B" d="M18.5 25.232l6.133 6.133c-.607.412-1.235.824-1.864 1.192l-4.269-4.27v-3.055zM18.5 19.1l9.579 9.578c-.542.477-1.105.932-1.669 1.387l-7.91-7.91V19.1zM31.09 25.558s0 .021-.02.021a24.533 24.533 0 01-1.43 1.604L18.5 16.044v-3.077l12.59 12.59z" fill="#58ADE5"/></svg>