<svg width="31" height="30" fill="none" xmlns="http://www.w3.org/2000/svg"><path class="p-94E368" d="M14.744 25.201c-2.175-2.175-5.296-2.785-8.056-1.89.895-2.734.299-5.867-1.89-8.055L2.935 13.39l-.622.622c-3.083 3.083-3.083 7.222 0 10.306L4.8 26.805C6.34 28.346 8.379 30 10.393 30c2.039 0 4.053-.77 5.594-2.312l.622-.622-1.865-1.865z" fill="#A1D1FD"/><path class="p-55BF60" d="M16.608 27.066l-.621.622A7.865 7.865 0 0110.392 30c-2.014 0-4.052-1.654-5.594-3.195l-.36-1.243 2.25-2.25c2.76-.895 5.88-.286 8.055 1.89l1.865 1.864z" fill="#4D98CB"/><path class="p-94E368" d="M10.761 17.994L.136 28.62l1.243 1.243 10.625-10.625-1.243-1.244z" fill="#A1D1FD"/><path class="p-55BF60" d="M.758 29.242l.622.621 10.625-10.625-.621-.622L.758 29.242z" fill="#4D98CB"/><path class="p-FBC56D" d="M26.924 19.238a3.515 3.515 0 001.019-2.835 3.447 3.447 0 001.94-2.287 3.433 3.433 0 00-.535-2.947c.609-.857.82-1.939.534-2.97a3.507 3.507 0 00-1.94-2.288 3.515 3.515 0 00-3.84-3.842 3.55 3.55 0 00-2.3-1.951 3.532 3.532 0 00-2.96.547A3.434 3.434 0 0015.898.13a3.446 3.446 0 00-2.288 1.94 3.531 3.531 0 00-2.847 1.007 3.496 3.496 0 00-.994 2.834 3.484 3.484 0 00-1.952 2.3 3.535 3.535 0 00.534 2.946 3.604 3.604 0 00-.546 2.959 3.547 3.547 0 001.964 2.287 3.496 3.496 0 00.994 2.835 3.532 3.532 0 002.847 1.007 3.504 3.504 0 002.275 1.952 3.574 3.574 0 002.971-.535 3.538 3.538 0 002.052.659c.298 0 .596-.05.895-.125a3.484 3.484 0 002.3-1.951 3.48 3.48 0 002.822-1.007z" fill="#B9DFFC"/><path class="p-EBAE56" d="M24.102 20.245a3.484 3.484 0 01-2.3 1.951 3.692 3.692 0 01-.895.125 3.538 3.538 0 01-2.051-.659 3.574 3.574 0 01-2.971.535 3.504 3.504 0 01-2.275-1.952 3.532 3.532 0 01-2.847-1.007L26.924 3.077a3.515 3.515 0 011.02 2.834A3.507 3.507 0 0129.882 8.2a3.503 3.503 0 01-.535 2.97c.61.834.82 1.915.535 2.947a3.446 3.446 0 01-1.94 2.288 3.515 3.515 0 01-1.019 2.834 3.48 3.48 0 01-2.822 1.007z" fill="#76B7E2"/><path class="p-EBAE56" d="M24.536 13.519c.324-.77-.646-1.653-1.069-2.35.423-.696 1.405-1.566 1.07-2.35-.324-.795-.995.423-1.79.224l-.896-.895c-.199-.795.15-2.337-.634-2.672-.795-.324-1.653.646-2.362 1.081-.696-.447-1.566-1.405-2.35-1.094-.783.336-.46 1.877-.646 2.685-.808.187-2.362-.149-2.685.647-.336.783.634 1.666 1.069 2.35-.435.708-1.405 1.566-1.082 2.362.324.795 1.878.46 2.686.646.186.808-.15 2.362.646 2.685.783.336 1.641-.634 2.35-1.069.708.435 1.579 1.393 2.362 1.082.77-.323.447-1.89.646-2.685.783-.187 2.35.136 2.685-.647z" fill="#A1D1FD"/><path class="p-CC9249" d="M15.847 14.153L21.85 8.15l.013.012c.795.199 2.35-.137 2.672.659.336.783-.646 1.653-1.069 2.35.423.696 1.393 1.579 1.07 2.35-.336.782-1.902.46-2.686.646-.199.795.125 2.362-.646 2.685-.783.31-1.654-.646-2.362-1.082-.709.435-1.567 1.405-2.35 1.07-.795-.324-.46-1.878-.646-2.686z" fill="#4D98CB"/><path class="p-FBC56D" d="M18.843 9.914L17.6 11.157l1.243 1.243 1.243-1.243-1.243-1.243z" fill="#B9DFFC"/><path class="p-EBAE56" d="M19.465 10.536l-1.243 1.243.621.622 1.243-1.243-.621-.622z" fill="#A1D1FD"/></svg>