<svg width="23" height="38" fill="none" xmlns="http://www.w3.org/2000/svg"><path class="p-04303E" d="M21.273 0h-2.279v15.72h2.279V0z" fill="#4D98CB"/><path class="p-FF3939" d="M11.016 38h5.317a5.7 5.7 0 005.7-5.7L9.495 30.78l1.52 7.22z" fill="#4D98CB"/><path class="p-FF9100" d="M0 32.3A5.7 5.7 0 005.7 38h5.316v-7.22L0 32.3z" fill="#58ADE5"/><path class="p-DDC2B7" d="M11.016 6.471l-1.52 13.81 1.52 12.903h11.016V17.488c0-6.075-4.941-11.017-11.016-11.017z" fill="#A1D1FD"/><path class="p-FFE9E0" d="M11.016 6.471C4.942 6.471 0 11.413 0 17.488v15.696h11.016V6.471z" fill="#B9DFFC"/><path class="p-04303E" d="M16.717 14.581h-2.28v2.278h2.28v-2.278z" fill="#4D98CB"/><path class="p-09607D" d="M12.156 14.581h-2.28v2.278h2.28v-2.278zM7.597 14.581h-2.28v2.278h2.28v-2.278z" fill="#58ADE5"/><path class="p-04303E" d="M16.717 19.141h-2.28v2.279h2.28V19.14zM16.717 23.702h-2.28v2.278h2.28v-2.278z" fill="#4D98CB"/><path class="p-09607D" d="M12.156 19.141h-2.28v2.279h2.28V19.14zM7.597 19.141h-2.28v2.279h2.28V19.14zM12.156 23.702h-2.28v2.278h2.28v-2.278zM7.597 23.702h-2.28v2.278h2.28v-2.278z" fill="#58ADE5"/></svg>