<svg width="35" height="30" fill="none" xmlns="http://www.w3.org/2000/svg"><path class="p-D3D3D8" d="M7.714 1.364L3.752 7.298 0 18.235l8.47 2.55 4.349-3.757L7.714 1.364z" fill="#A1D1FD"/><path class="p-BABAC0" d="M31.248 7.685l-4.11-6.321-5.105 15.664 4.35 3.757 8.47-2.55-3.605-10.55z" fill="#65B3E7"/><path class="p-ECECF1" d="M27.71 30H6.291l2.177-8.364.534-3.686 1.972-.922-1.935-.921L7.713 1.364h5.105l4.608 7.371 4.607-7.371h5.105L25.81 16.107l-1.935.921 1.972.922.534 3.686L27.71 30z" fill="#B9DFFC"/><path class="p-D3D3D8" d="M28.56 30H17.425V8.735l4.607-7.371h5.105l-1.327 14.743-1.935.921 1.972.922.534 3.686L28.56 30z" fill="#A1D1FD"/><path class="p-D3D3D8" d="M22.034 1.364l-4.607 9.214-4.608-9.214h9.215z" fill="#B9DFFC"/><path class="p-BABAC0" d="M22.033 1.364l-4.607 9.214V1.364h4.607z" fill="#A1D1FD"/><path class="p-32393F" d="M22.13.03l1.649.824L18.54 11.33l-1.648-.824L22.13.03z" fill="#4D98CB"/><path class="p-575F64" d="M21.941 23.995l-1.658.81-2.857-5.712-2.856 5.712-1.659-.81 3.686-7.372h1.659l3.685 7.372z" fill="#5FBEFF"/><path class="p-32393F" d="M18.255 16.623l3.686 7.372-1.659.81-2.856-5.712v-2.47h.83z" fill="#4D98CB"/><path class="p-575F64" d="M21.923 16.586l-1.622.885-2.874-5.179L11.087.884 12.709 0l4.718 8.496 4.496 8.09z" fill="#5FBEFF"/><path class="p-32393F" d="M21.922 16.586l-1.621.885-2.875-5.178V8.495l4.496 8.09z" fill="#4D98CB"/><path class="p-575F64" d="M25.85 17.95H9.004l.129-.922-.092-.921h16.77l-.092.921.13.922z" fill="#5FBEFF"/><path class="p-32393F" d="M25.848 17.95h-8.422v-1.843h8.385l-.092.921.129.922z" fill="#4D98CB"/></svg>