<svg width="38" height="48" fill="none" xmlns="http://www.w3.org/2000/svg"><path class="p-FF9100" d="M14.97 15.408V0H8.99v13.53l5.98 1.878z" fill="#AFD9F6"/><path class="p-FF3939" d="M28.047 13.53V0h-5.98v15.408l5.98-1.877z" fill="#65B3E7"/><path class="p-F5CF2D" d="M31.047 13.53H18.52l-1.877 11.956 1.877 10.97h2.99V48h15.528l-3-27.514-2.99-6.955z" fill="#4D98CB"/><path class="p-FFDE55" d="M5.99 13.53L3 20.487 0 48h15.529V36.456h2.99V13.53H5.99z" fill="#58ADE5"/><path class="p-FF9100" d="M18.519 32.48h2.558a6.995 6.995 0 006.995-6.995l-11.43-1.877 1.877 8.872z" fill="#B9DFFC"/><path class="p-FF3939" d="M18.519 19.506l-1.877 2.99 1.877 2.99h9.553v-5.98h-9.553z" fill="#76B7E2"/><path class="p-E4BF24" d="M8.965 25.485a6.995 6.995 0 006.995 6.995h2.558v-8.872l-9.553 1.877z" fill="#A1D1FD"/><path class="p-FF9100" d="M18.518 19.506H8.965v5.98h9.553v-5.98z" fill="#5FBEFF"/></svg>