<svg width="33" height="17" fill="none" xmlns="http://www.w3.org/2000/svg"><path class="p-3E322E" d="M30.348 17h-9.507v-5.667h9.507V17z" fill="#4D98CB"/><path class="p-68544F" d="M31.802 9.444l-1.454 3.778h-5.1a10.49 10.49 0 00-5.767 1.738c-.17.113-.34.226-.53.32A12.1 12.1 0 0112.719 17H0v-2.21c0-.53.057-1.058.17-1.568.019-.019 1.511-1.133 2.512-1.889h10.036a6.482 6.482 0 003.608-1.095 14.716 14.716 0 012.626-1.417 16.226 16.226 0 016.296-1.266h4.892l1.643 1.851c0 .02 0 .02-.018.038h.037z" fill="#76B7E2"/><path class="p-53433F" d="M31.803 9.444l-1.455 3.778h-5.1a10.49 10.49 0 00-5.767 1.738c-.17.113-.34.226-.529.32V8.82a16.226 16.226 0 016.296-1.265h4.893l1.643 1.851c0 .02 0 .02-.019.038h.038z" fill="#58ADE5"/><path class="p-966641" d="M32.237 6.611c0 .718-.076 1.417-.246 2.116l-.189.717h-6.554c-2.191 0-4.37.491-6.296 1.455-.548.264-1.058.567-1.568.907a8.414 8.414 0 01-4.666 1.416H.17c.094-.415.208-.793.378-1.171 0-.057.037-.113.056-.17.095-.189.19-.359.284-.548.32-.585-.017-.442.854-.878C4.058 9.298 5.29 9.298 7.234 9.298c1.681 0 3.35-2.536 4.351-3.877l.057-.076 1.246-.15-.113-1.36.321-.435c.34-.434.699-.85 1.096-1.171l1.756-.076-.226-1.039a7.77 7.77 0 013.23-1.057c.32-.038.623-.057.944-.057h.944v.945c0 1.567 1.329 2.833 2.897 2.833h2.781c.19-.907.495-1.621.927-2.471C28.314.419 28.119 0 29.403 0h.586l1.303 2.626c.624 1.19.945 2.568.945 3.985z" fill="#B9DFFC"/><path class="p-7E5436" d="M32.237 6.611c0 .718-.075 1.417-.245 2.116l-.19.717h-6.554c-2.19 0-4.37.491-6.296 1.455V.057c.321-.038.623-.057.945-.057h.944v.944c0 1.568 1.328 2.834 2.896 2.834h2.782c.055-1.164.055-1.164.432-2.4C27.289.27 28.119 0 29.404 0h.585l1.304 2.626c.623 1.19.944 2.568.944 3.985z" fill="#A1D1FD"/><path class="p-53433F" d="M18.669 4.061l-1.322 1.322-3.155-3.154a6.602 6.602 0 011.53-1.115l2.947 2.947zM15.836 6.894l-1.322 1.322-2.871-2.87 1.133-1.512 3.06 3.06z" fill="#76B7E2"/></svg>