<svg width="34" height="32" fill="none" xmlns="http://www.w3.org/2000/svg"><path class="p-AF2768" d="M24.435 13.749L28.668 32l-6.244-6.034-3.543 5.344-2.22-18.882 2.22-4.443 5.554 5.764z" fill="#58ADE5"/><path class="p-EA348B" d="M8.886 13.749l-4.233 17.35 6.244-5.133 3.542 5.344 2.222-18.882-2.222-4.443-5.553 5.764z" fill="#A1D1FD"/><path class="p-AF2768" d="M2.432 0S0 3.332 0 8.886c0 5.553 2.432 8.885 2.432 8.885 7.774 0 14.228-8.885 14.228-8.885S10.206 0 2.432 0z" fill="#58ADE5"/><path class="p-EA348B" d="M30.889 0C23.114 0 16.66 8.886 16.66 8.886s6.454 8.885 14.229 8.885c0 0 2.432-3.332 2.432-8.885C33.32 3.332 30.889 0 30.889 0z" fill="#A1D1FD"/><path class="p-751A46" d="M16.66 13.329a4.443 4.443 0 100-8.886 4.443 4.443 0 000 8.886z" fill="#4D98CB"/></svg>