<svg width="32" height="26" fill="none" xmlns="http://www.w3.org/2000/svg"><path class="p-293939" d="M12.24 18.572H6.5v-1.858h3.546l-.748-4.49 1.832-.305 1.11 6.652z" fill="#4D98CB"/><path class="p-3E5959" d="M8.357 22.286H7.43V11.143H1.857L.93 16.714l.928.929-1.238.928-.31 1.857 1.548.93L0 22.285V26h11.143v-.929a2.786 2.786 0 00-2.786-2.785zM31.695 5.572H26.99v1.857h4.705V5.572z" fill="#58ADE5"/><path class="p-293939" d="M31.695 6.5H26.99v.929h4.705V6.5z" fill="#4D98CB"/><path class="p-537983" d="M27.919 3.714h-4.705v5.572h4.705V3.714z" fill="#58ADE5"/><path class="p-3E5959" d="M27.919 6.5h-4.705v2.786h4.705V6.5z" fill="#4D98CB"/><path class="p-FF9100" d="M22.286 3.714v5.572l-1.857 1.857C17.939 12.406 16.844 13 15.024 13H0V0h5.571L7.43 1.857H13L14.857 0h.167c1.839 0 3.027.65 5.405 1.857l1.857 1.857z" fill="#B9DFFC"/><path class="p-FF641A" d="M0 6.5h22.286v2.786l-1.857 1.857C17.939 12.406 16.844 13 15.024 13H0V6.5z" fill="#5FBEFF"/><path class="p-F03800" d="M5.571 9.286a.929.929 0 101.857 0 .929.929 0 00-1.857 0zM9.286 9.286a.929.929 0 101.857 0 .929.929 0 00-1.857 0zM13 9.286a.929.929 0 101.857 0 .929.929 0 00-1.857 0z" fill="#4D98CB"/><path class="p-293939" d="M3.714 17.643a.929.929 0 00-.928-.929H.929l-.31 1.858h2.167a.929.929 0 00.928-.93zM3.714 21.357a.929.929 0 00-.928-.928H.31L0 22.285h2.786a.929.929 0 00.928-.929z" fill="#4D98CB"/><path class="p-537983" d="M14.857 0H5.571a3.714 3.714 0 003.715 3.714h1.857A3.714 3.714 0 0014.857 0z" fill="#4D98CB"/><path class="p-ECECF1" d="M24.205 3.714v5.572l-3.776 1.857V1.857l3.776 1.857z" fill="#B9DFFC"/><path class="p-D3D3D8" d="M20.429 6.5h3.776v2.786l-3.776 1.857V6.5z" fill="#A1D1FD"/></svg>