<svg width="37" height="44" fill="none" xmlns="http://www.w3.org/2000/svg"><path class="p-EDEAE4" d="M24.477.856v21.291c0 .908-.361 1.78-1.003 2.422l-6.284 6.284a5.548 5.548 0 007.835 7.858l9.42-9.369a6.85 6.85 0 002.02-4.858V.856A.856.856 0 0035.609 0H25.333a.856.856 0 00-.856.856z" fill="#B9DFFC"/><path class="p-DDDAD0" d="M23.549 27.224V24.49l-.075.079-5.35 5.349c-1.894 1.894-3.067 5.752-1.65 7.905l4.549-4.526a8.619 8.619 0 002.526-6.073z" fill="#76B7E2"/><path class="p-DDDAD0" d="M34.396 0v24.484a6.85 6.85 0 01-2.021 4.858l-9.42 9.37a5.523 5.523 0 01-2.876 1.516 5.542 5.542 0 004.945-1.517l9.42-9.369a6.85 6.85 0 002.02-4.858V.856A.856.856 0 0035.608 0h-1.212z" fill="#A1D1FD"/><path class="p-6EC030" d="M36.465 20.813c-.062-.002-.123-.005-.185-.005-3.074 0-5.566 1.557-5.566 4.631 0 1.824.877 4.377 2.232 5.392l1.498-1.489a6.85 6.85 0 002.02-4.858v-3.671z" fill="#76B7E2"/><path class="p-378900" d="M34.397 21.037v3.447a6.85 6.85 0 01-2.021 4.858l-.473.47c.302.383.653.727 1.044 1.02l1.497-1.49a6.85 6.85 0 002.021-4.858v-3.671c-.061-.002-.123-.005-.185-.005-.661 0-1.295.018-1.883.23z" fill="#4D98CB"/><path class="p-6EC030" d="M36.465 3.682H24.477v3.425h11.988V3.682z" fill="#76B7E2"/><path class="p-378900" d="M36.465 3.682h-2.069v3.425h2.07V3.682z" fill="#4D98CB"/><path class="p-6EC030" d="M36.465 10.704H24.477v3.425h11.988v-3.425z" fill="#76B7E2"/><path class="p-378900" d="M36.465 10.704h-2.069v3.425h2.07v-3.425z" fill="#4D98CB"/><path class="p-EDEAE4" d="M9.847 3.597v21.29c0 .909-.36 1.78-1.003 2.422l-7.219 7.22a5.549 5.549 0 007.835 7.858l10.355-10.304a6.85 6.85 0 002.02-4.859V3.597a.856.856 0 00-.856-.857H10.704a.856.856 0 00-.857.857z" fill="#B9DFFC"/><path class="p-DDDAD0" d="M19.767 2.74v24.484a6.85 6.85 0 01-2.02 4.859L7.391 42.387a5.522 5.522 0 01-2.876 1.516 5.542 5.542 0 004.945-1.516l10.354-10.304a6.85 6.85 0 002.021-4.859V3.597a.856.856 0 00-.856-.857h-1.213z" fill="#A1D1FD"/><path class="p-6EC030" d="M21.836 23.553c-.062-.002-.123-.005-.185-.005-3.074 0-5.566 1.557-5.566 4.631 0 1.824.877 4.377 2.232 5.393l1.498-1.49a6.85 6.85 0 002.02-4.858v-3.671z" fill="#76B7E2"/><path class="p-378900" d="M19.767 23.77v3.454a6.85 6.85 0 01-2.021 4.859l-.473.47c.302.383.653.726 1.044 1.019l1.498-1.49a6.85 6.85 0 002.02-4.858v-3.671c-.061-.002-.122-.005-.184-.005-.662 0-1.296.01-1.884.221z" fill="#4D98CB"/><path class="p-6EC030" d="M21.836 6.422H9.848v3.426h11.988V6.422z" fill="#76B7E2"/><path class="p-378900" d="M21.837 6.422h-2.07v3.426h2.07V6.422z" fill="#4D98CB"/><path class="p-6EC030" d="M21.836 13.444H9.848v3.425h11.988v-3.425z" fill="#76B7E2"/><path class="p-378900" d="M21.837 13.444h-2.07v3.425h2.07v-3.425z" fill="#4D98CB"/></svg>