<svg width="34" height="34" viewBox="0 0 34 34" fill="none" xmlns="http://www.w3.org/2000/svg">
<path class="p-5BC980" d="M3.9844 13.9455L14.8084 10.3601L13.9768 4.39697L1.26026 9.45941C0.499338 9.76233 0 10.4986 0 11.3176V15.9377L1.86769 17.9299L3.9844 15.9377V13.9455Z" fill="#65B3E7"/>
<path class="p-00A38B" d="M34.0001 11.3177C34.0001 10.4986 33.5006 9.76228 32.7395 9.45943L21.0534 4.80933L20.9844 10.9571L30.0157 13.9454V15.9376L31.9456 17.9298L34.0001 15.9376V11.3177Z" fill="#4D98CB"/>
<path class="p-5BC980" d="M28.1161 33.9999H5.88281L6.73961 27.8905L10.0267 23.9061L7.87501 19.9217L9.68822 7.29126H24.3106L26.1239 19.9217L23.9721 23.9061L27.2593 27.8905L28.1161 33.9999Z" fill="#65B3E7"/>
<path class="p-00A38B" d="M28.1166 33.9999H17V7.29126H24.3112L26.1244 19.9217L23.9727 23.9061L27.2598 27.8905L28.1166 33.9999Z" fill="#4D98CB"/>
<path class="p-5BC980" d="M30.0156 15.9375H34V19.9219H30.0156V15.9375Z" fill="#65B3E7"/>
<path class="p-81EAAC" d="M0 15.0188H3.9844V19.0032H0V15.0188Z" fill="#B9DFFC"/>
<path class="p-81EAAC" d="M14.0118 19.9219H7.88265L6.74414 27.8907H14.0118V19.9219Z" fill="#B9DFFC"/>
<path class="p-5BC980" d="M19.9883 27.8907H27.2559L26.1174 19.9219H19.9883V27.8907Z" fill="#65B3E7"/>
<path class="p-FFD396" d="M8.90846 3.69473C8.2343 4.36889 8.12974 5.42518 8.65862 6.21843L17 18.7293L16.3572 7.50472L12.6032 0L8.90846 3.69473Z" fill="#A1D1FD"/>
<path class="p-FFB64C" d="M21.3968 0L17.5629 9.83726L17 18.7293L25.3414 6.21843C25.8703 5.42518 25.7657 4.36889 25.0916 3.69473L21.3968 0Z" fill="#5FBEFF"/>
<path class="p-5BC980" d="M21.4033 0L17.0005 18.7267L12.5977 0H21.4033Z" fill="#65B3E7"/>
<path class="p-00A38B" d="M21.4028 0L17 18.7267V0H21.4028Z" fill="#4D98CB"/>
</svg>
