<svg width="33" height="33" fill="none" xmlns="http://www.w3.org/2000/svg"><path class="p-ECECF1" d="M27.527.9L16.498 6.4l-2.9 1.121-1.933.754-1.934.735-1.933.754-2.687 1.024-.696-1.817 3.383-1.295 1.063.696.87-1.45 1.934-.735 1.14.522s.754-1.256.793-1.276l2.9-1.12L27.748 0l-.22.9z" fill="#A1D1FD"/><path class="p-D3D3D8" d="M27.527.9L16.497 6.4V4.311L27.746 0l-.22.9z" fill="#B9DFFC"/><path class="p-D3D3D8" d="M28.58 8.97l-.697 1.817-2.687-1.024-1.933-.754-1.934-.735-1.933-.754-2.9-1.102-.966-.386L5.466.9 5.246 0 15.53 3.944l.967 1.972.966-1.218 1.933.734.87 1.489 1.064-.735 1.933.735 1.063 1.45.87-.696 3.383 1.295z" fill="#A1D1FD"/><path class="p-BABAC0" d="M28.579 8.97l-.696 1.817-2.687-1.024-1.934-.754-1.933-.735-1.933-.754-2.9-1.102v-.502l.967-1.218 1.933.734.87 1.489 1.063-.735 1.933.735 1.064 1.45.87-.696 3.383 1.295z" fill="#76B7E2"/><path class="p-E63950" d="M30.093 13.475c-1.599 0-2.9-1.301-2.9-2.9 0-1.6 1.301-2.9 2.9-2.9 1.6 0 2.9 1.3 2.9 2.9 0 1.599-1.3 2.9-2.9 2.9z" fill="#4D98CB"/><path class="p-E63950" d="M13.597 5.432v5.297h-1.933V6.186l1.933-.754zM17.463 4.698V9.24H15.53V3.944l.967.386.966.368z" fill="#5FBEFF"/><path class="p-AE2538" d="M21.33 6.186v4.543h-1.933V5.432l1.933.754z" fill="#4D98CB"/><path class="p-E63950" d="M7.797 7.675v3.88c.06.047 1.933.663 1.933.663V6.92l-1.933.754z" fill="#5FBEFF"/><path class="p-AE2538" d="M25.196 11.555v-3.88l-1.933-.754v5.297c-.06-.2 1.933-.663 1.933-.663zM17.463 4.698V9.24h-.967v-4.91l.967.367z" fill="#4D98CB"/><path class="p-FF637B" d="M2.9 13.475c-1.6 0-2.9-1.301-2.9-2.9 0-1.6 1.3-2.9 2.9-2.9 1.599 0 2.9 1.3 2.9 2.9 0 1.599-1.301 2.9-2.9 2.9z" fill="#5FBEFF"/><path class="p-FF637B" d="M25.196 11.56v8.577L23.05 21.22l-2.687-1.334-3.867 1.933-3.866-1.933-2.958 1.489-1.875-1.238V11.56l8.7-3.363 8.699 3.363z" fill="#B9DFFC"/><path class="p-E63950" d="M16.496 8.197l8.7 3.363v8.577L23.05 21.22l-2.688-1.334-3.866 1.933V8.197z" fill="#76B7E2"/><path class="p-FF637B" d="M25.196 26.17V33h-17.4v-6.83l2.379-2.9h13.03l1.99 2.9z" fill="#B9DFFC"/><path class="p-E63950" d="M20.363 17.721l-3.867 1.933-3.866-1.933-4.833 2.417v6.031l4.833-2.416 3.866 1.933 3.867-1.933 4.833 2.416v-6.031l-4.833-2.417z" fill="#5FBEFF"/><path class="p-E63950" d="M23.204 23.27l1.992 2.9V33h-8.7v-9.73h6.708z" fill="#76B7E2"/><path class="p-AE2538" d="M20.363 17.721l4.833 2.417v6.031l-4.834-2.416-3.866 1.933v-6.032l3.867-1.933z" fill="#4D98CB"/></svg>