<svg width="37" height="37" fill="none" xmlns="http://www.w3.org/2000/svg"><path class="p-FDBF00" d="M31.492 0h-1.084v2.168h1.084a1.085 1.085 0 010 2.168H30.3A5.43 5.43 0 0024.99 0a5.43 5.43 0 00-5.312 4.336h-2.386A5.43 5.43 0 0011.981 0 5.429 5.429 0 006.67 4.336H5.477a1.085 1.085 0 010-2.168h1.038V0H5.477a3.256 3.256 0 00-3.252 3.252 3.256 3.256 0 003.252 3.252H6.67a5.429 5.429 0 005.31 4.336h13.008A5.43 5.43 0 0030.3 6.504h1.193a3.256 3.256 0 003.252-3.252A3.256 3.256 0 0031.492 0zm-16.26 8.672H11.98A3.256 3.256 0 018.73 5.42a3.256 3.256 0 013.252-3.252 3.256 3.256 0 013.251 3.252v3.252zm9.756 0h-3.252V5.42a3.256 3.256 0 013.252-3.252A3.256 3.256 0 0128.24 5.42a3.256 3.256 0 01-3.252 3.252z" fill="#58ADE5"/><path class="p-FF9100" d="M31.492 0h-1.084v2.168h1.084a1.085 1.085 0 010 2.168H30.3A5.43 5.43 0 0024.99 0a5.43 5.43 0 00-5.311 4.336H18.5v6.504h6.489a5.43 5.43 0 005.31-4.336h1.193a3.256 3.256 0 003.252-3.252A3.256 3.256 0 0031.492 0zm-6.504 8.672h-3.251V5.42a3.256 3.256 0 013.252-3.252A3.256 3.256 0 0128.24 5.42a3.256 3.256 0 01-3.253 3.252z" fill="#4D98CB"/><path class="p-FF3980" d="M34.76 15.248V37H23.92l-4.336-5.232-1.084.867L13.08 37H2.24V15.248h32.52z" fill="#76B7E2"/><path class="p-F30051" d="M34.76 15.248V37H23.92l-4.336-5.232-1.084.867V15.248h16.26z" fill="#76B7E2"/><path class="p-FDBF00" d="M13.08 15.248V37h10.84V15.248H13.08z" fill="#58ADE5"/><path class="p-FF9100" d="M18.5 15.248h5.42V37H18.5V15.248z" fill="#4D98CB"/><path class="p-FF6498" d="M37 8.672v8.744H26.088L18.5 14.359l-.347-.13-7.24 3.187H0V8.672h10.912l7.588 3.924 1.821 1.026 5.767-4.95H37z" fill="#A1D1FD"/><path class="p-FF3980" d="M37 8.672v8.744H26.088L18.5 14.359v-1.763l1.821 1.026 5.767-4.95H37z" fill="#B9DFFC"/><path class="p-FED966" d="M10.912 8.672v8.744h15.176V8.672H10.912z" fill="#5FBEFF"/><path class="p-FDBF00" d="M18.5 8.672h7.588v8.744H18.5V8.672z" fill="#76B7E2"/></svg>