<svg width="32" height="27" fill="none" xmlns="http://www.w3.org/2000/svg"><path class="p-CAE8F9" d="M27.66 19.153v3.306H0V0h14.353v8.478h2.63l.167.001a10.588 10.588 0 013.931.817 10.719 10.719 0 016.266 7.292c.204.822.312 1.681.312 2.565z" fill="#B9DFFC"/><path class="p-7FC8F1" d="M27.347 16.587a10.719 10.719 0 00-6.265-7.291 10.591 10.591 0 00-4.099-.818h-2.63v13.981H27.66v-3.306c0-.884-.108-1.743-.313-2.566z" fill="#A1D1FD"/><path class="p-CAE8F9" d="M31.055 21.966c.399 0 .721.322.721.72A4.318 4.318 0 0127.463 27H0v-1.862h6.966v-3.61h1.862v3.61h9.756v-3.61h1.862v3.61h7.017c1.352 0 2.452-1.1 2.452-2.451 0-.399.322-.721.72-.721h.42z" fill="#B9DFFC"/><path class="p-3A4DE3" d="M17.149 8.48v4.566a.93.93 0 01-1.862 0V8.479h1.695l.167.001zM21.082 9.296v3.75a.93.93 0 11-1.862 0V8.713a10.59 10.59 0 011.862.583z" fill="#4D98CB"/><path class="p-0088FF" d="M0 4.592h3.744a.93.93 0 110 1.862H0V4.592z" fill="#5FBEFF"/><path class="p-7FC8F1" d="M7.18 2.575h7.173v5.037H7.18V2.575zM31.056 21.966c.398 0 .72.322.72.72A4.318 4.318 0 0127.464 27h-13.11v-1.862h4.232v-3.61h1.862v3.61h7.016c1.352 0 2.452-1.1 2.452-2.451 0-.399.323-.721.721-.721h.42z" fill="#65B3E7"/><path class="p-CAE8F9" d="M14.352 2.575h.001V8.47 2.575z" fill="#CAE8F9"/><path class="p-0088FF" d="M27.66 19.154v3.306H0v-9.912h.057c2.975 0 4.83 1.21 5.87 2.243a7.35 7.35 0 011.334 1.797h20.086c.204.822.312 1.681.312 2.566z" fill="#5FBEFF"/><path class="p-3A4DE3" d="M27.66 19.154v3.306H14.352v-5.872h12.995c.205.822.313 1.681.313 2.566z" fill="#4D98CB"/></svg>