<svg width="31" height="25" fill="none" xmlns="http://www.w3.org/2000/svg"><path class="p-AE2538" d="M21.588 1.786h-6.29a.893.893 0 000 1.785h6.29V1.786z" fill="#A1D1FD"/><path class="p-FF637B" d="M24.226 0h-2.143l-9.518 17.518c-.535.982-1.839 1.5-2.785.893-.91-.572-.732-1.232-.732-2.34h-.893c-.304 0-.607.018-.893.054a7.703 7.703 0 00-6.625 5.821A2.536 2.536 0 003.119 25h8.072a6.243 6.243 0 005.517-3.321l5.161-9.715L22.476 25h4.429V11.22c0-2.125 1.018-3.149 3.571-4.416V6.25A6.257 6.257 0 0024.226 0z" fill="#58ADE5"/><path class="p-E63950" d="M30.476 6.25v.554c-2.554 1.267-3.571 2.291-3.571 4.416V25h-4.429l-.607-13.036-5.16 9.715A6.243 6.243 0 0111.19 25H7.262v-8.875c.285-.036.59-.054.893-.054h.892c0 1.108-.178 1.768.733 2.34.946.607 2.25.089 2.785-.893L22.083 0h2.143a6.257 6.257 0 016.25 6.25z" fill="#4D98CB"/><path class="p-FFDA2D" d="M7.262 12.5c-2 0-3.572 1.178-3.572 2.679 0 1.5 1.572 2.678 3.572 2.678s3.571-1.178 3.571-2.678S9.262 12.5 7.262 12.5z" fill="#B9DFFC"/><path class="p-FDBF00" d="M10.833 15.179c0 1.5-1.571 2.678-3.571 2.678V12.5c2 0 3.571 1.178 3.571 2.679z" fill="#A1D1FD"/></svg>