<svg width="35" height="32" fill="none" xmlns="http://www.w3.org/2000/svg"><path class="p-EFE2DD" d="M28.125 9.173H6.236C7.68 4.653 11.907 0 17.181 0c5.273 0 9.5 4.653 10.944 9.173z" fill="#B9DFFC"/><path class="p-CDBFBA" d="M28.125 9.173H17.181V0c5.273 0 9.5 4.653 10.944 9.173z" fill="#A1D1FD"/><path class="p-FF9100" d="M34.362 32H0l2.05-2.03a5.243 5.243 0 001.529-3.704v-2.79c0-3.495.44-6.99 1.276-10.4l.858-3.37H28.65l.858 3.37a43.68 43.68 0 011.276 10.4v2.79c0 1.402.544 2.7 1.528 3.704L34.36 32z" fill="#A1D1FD"/><path class="p-FF641A" d="M34.361 32h-17.18V9.706h11.467l.858 3.37a43.68 43.68 0 011.277 10.4v2.79c0 1.402.544 2.7 1.528 3.704L34.36 32z" fill="#4D98CB"/><path class="p-FFD396" d="M3.58 6.583v4.42h27.204v-4.42H3.579z" fill="#76B7E2"/><path class="p-FFB64C" d="M30.783 6.583H17.181v4.42h13.602v-4.42z" fill="#65B3E7"/><path class="p-FFF5F5" d="M7.765 15.189v10.533h18.834V15.19H7.765z" fill="#B9DFFC"/><path class="p-EFE2DD" d="M26.598 15.189H17.18v10.533h9.417V15.19z" fill="#A1D1FD"/><path class="p-FF9100" d="M22.413 20.303H11.95v1.164h10.463v-1.164z" fill="#58ADE5"/><path class="p-FF641A" d="M22.412 20.303h-5.231v1.164h5.231v-1.164z" fill="#4D98CB"/></svg>