<svg width="30" height="42" fill="none" xmlns="http://www.w3.org/2000/svg"><path class="p-FFE98F" d="M11.896 0H4.26l.857 6.968h5.922L11.896 0z" fill="#5FBEFF"/><path class="p-FFC170" d="M11.897 0H8.08v6.968h2.961L11.897 0z" fill="#76B7E2"/><path class="p-99EFF2" d="M16.116 39.9l-.084-4.162-.969-24.23-1.777-2.08H3l-1.905 2.08-.97 24.23L.042 39.9h16.074z" fill="#58ADE5"/><path class="p-00D7DF" d="M16.115 39.9l-.083-4.162-.97-24.23-1.777-2.08H8.078V39.9h8.037z" fill="#4D98CB"/><path class="p-CCF7F9" d="M0 42h16.158l-.058-2.864H.058L0 42zM11.834 6.584h-7.51l-3.199 4.87h13.908l-3.2-4.87z" fill="#AFD9F6"/><path class="p-EBFCFC" d="M9.67 19.568H6.807v7.929H9.67v-7.929z" fill="#B9DFFC"/><path class="p-EBFCFC" d="M20.867 5.536v5.155h3.438V5.536" fill="#EBFCFC"/><path class="p-00D7DF" d="M20.867 1.91v4.772h4.202v2.864h-4.202v4.772h4.87V1.91h-4.87z" fill="#AFD9F6"/><path class="p-FFE98F" d="M24.306 0a4.773 4.773 0 014.772 4.773v34.84a2.386 2.386 0 01-4.772 0V0z" fill="#58ADE5"/><path class="p-FFC170" d="M26.692.64V42a2.386 2.386 0 002.387-2.386V4.773A4.77 4.77 0 0026.692.64z" fill="#4D98CB"/></svg>