<svg width="24" height="28" fill="none" xmlns="http://www.w3.org/2000/svg"><path class="p-E0F4FE" d="M23.406 26.065H0V2.2C0 .985.985 0 2.201 0h21.205v26.065z" fill="#B9DFFC"/><path class="p-BCDBFD" d="M11.813 0h11.593v26.065H11.813V0z" fill="#A1D1FD"/><path class="p-FED843" d="M3.1 6.025H20.29v1.64H3.1v-1.64z" fill="#5FBEFF"/><path class="p-FD7EB8" d="M9.302 11.176a2.307 2.307 0 01-2.308 2.307H5.48a2.307 2.307 0 010-4.614h1.515a2.307 2.307 0 012.308 2.307z" fill="#58ADE5"/><path class="p-2D3C72" d="M3.117 20.06h6.271v1.64h-6.27v-1.64zM3.117 17.325h6.271v1.64h-6.27v-1.64z" fill="#5FBEFF"/><path class="p-1A2958" d="M14.088 20.06h6.216v1.64h-6.216v-1.64zM14.088 17.325h6.216v1.64h-6.216v-1.64z" fill="#2D3C72"/><path class="p-54469D" d="M10.938 9.033h9.351v1.64h-9.352v-1.64zM10.938 11.768h9.351v1.64h-9.352v-1.64z" fill="#65B3E7"/><path class="p-FED843" d="M10.883 17.345h1.64v4.43h-1.64v-4.43zM3.117 14.502H20.29v1.64H3.117v-1.64z" fill="#5FBEFF"/><path class="p-1AAA94" d="M4.974 4.373l-.006-.954-.455.765h-.31l-.456-.732v.92h-.643V2.28h.58l.683 1.116.664-1.116h.58l.006 2.094h-.643zM7.384 4.008H6.59l-.14.365H5.73l.915-2.094h.694l.916 2.094h-.73l-.14-.365zm-.194-.509l-.204-.526-.203.526h.407zM9.723 3.269h.613v.885a1.691 1.691 0 01-.912.266c-.676 0-1.17-.451-1.17-1.094S8.749 2.23 9.44 2.23c.413 0 .745.144.957.404l-.451.398a.597.597 0 00-.47-.23c-.31 0-.508.2-.508.523 0 .314.197.523.5.523.086 0 .17-.015.256-.05v-.53zM12.065 4.008h-.795l-.141.365h-.718l.915-2.094h.694l.915 2.094h-.73l-.14-.365zm-.194-.509l-.204-.526-.203.526h.407z" fill="#4D98CB"/><path class="p-149084" d="M14.898 3.825v.548h-1.923v-.434l.957-1.113h-.928V2.28h1.846v.434l-.957 1.112h1.005zM15.104 2.279h.706v2.094h-.706V2.279zM18.214 2.279v2.094h-.58l-.796-.952v.952h-.688V2.279h.58l.796.951V2.28h.688zM20.295 3.84v.533h-1.74V2.279h1.701v.532h-1.008v.246h.886v.508h-.886v.275h1.047z" fill="#4D98CB"/><path class="p-EDBE2B" d="M11.813 6.025h8.476v1.64h-8.477v-1.64z" fill="#58ADE5"/><path class="p-1A2958" d="M14.088 20.06h6.216v1.64h-6.216v-1.64zM14.088 17.325h6.216v1.64h-6.216v-1.64zM11.813 9.033h8.476v1.64h-8.477v-1.64zM11.813 11.768h8.476v1.64h-8.477v-1.64z" fill="#4D98CB"/><path class="p-EDBE2B" d="M11.813 17.345h.71v4.43h-.71v-4.43zM11.813 14.502h8.476v1.64h-8.477v-1.64z" fill="#58ADE5"/><path class="p-149084" d="M12.021 2.279h-.209v1.067l.06.153h-.06v.509h.254l.14.365h.73l-.915-2.094zM14.899 3.825v.548h-1.923v-.434l.957-1.113h-.928V2.28h1.846v.434l-.957 1.112h1.005zM15.104 2.279h.706v2.094h-.706V2.279zM18.215 2.279v2.094h-.58l-.796-.952v.952h-.688V2.279h.58l.796.951V2.28h.688zM20.296 3.84v.533h-1.74V2.279h1.701v.532H19.25v.246h.886v.508h-.886v.275h1.047z" fill="#4D98CB"/><path class="p-9BBAD9" d="M23.406 28H1.984a1.984 1.984 0 110-3.968h21.422V28z" fill="#65B3E7"/><path class="p-62739A" d="M11.813 24.032h11.593V28H11.813v-3.968z" fill="#4D98CB"/></svg>