<svg width="33" height="25" fill="none" xmlns="http://www.w3.org/2000/svg"><path class="p-FF641A" d="M32.653 1.913H0V25h32.653V1.913z" fill="#5FBEFF"/><path class="p-E63950" d="M32.653 1.913H16.326V25h16.327V1.913z" fill="#4D98CB"/><path class="p-FFF5F5" d="M20.153 0a4.765 4.765 0 00-3.827 1.913A4.765 4.765 0 0012.5 0H2.125v21.11h11.257c1.244 0 1.414 1.686 1.815 2.796h2.258c.402-1.11.572-2.796 1.815-2.796h9.492V0h-8.61z" fill="#B9DFFC"/><path class="p-EFE2DD" d="M30.527 0v21.11H20.153c-2.127 0-2.296 1.686-2.698 2.796h-1.129V1.913A4.765 4.765 0 0120.153 0h10.374z" fill="#A1D1FD"/><path class="p-9CDD05" d="M10.587 9.566a.957.957 0 11.956-.956h1.914a2.865 2.865 0 00-1.914-2.694v-2.09H9.63v2.09A2.865 2.865 0 007.717 8.61a2.873 2.873 0 002.87 2.87.957.957 0 11-.957.956H7.717c0 1.246.802 2.298 1.913 2.694v2.09h1.913v-2.09a2.865 2.865 0 001.914-2.694 2.873 2.873 0 00-2.87-2.87z" fill="#5FBEFF"/><path class="p-CDBFBA" d="M28.466 3.826h-9.27V5.74h9.27V3.826zM28.466 7.653h-9.27v1.913h9.27V7.653zM28.466 11.48h-9.27v1.913h9.27v-1.914zM28.466 15.306h-9.27v1.913h9.27v-1.913z" fill="#58ADE5"/></svg>