<svg width="35" height="34" viewBox="0 0 35 34" fill="none" xmlns="http://www.w3.org/2000/svg">
<path class="p-0B799D" d="M0 0V9.93917H7.17061L5.80452 0H0Z" fill="#5FBEFF"/>
<path class="p-07485E" d="M29.1393 0L27.7734 9.93917H34.944V0H29.1393Z" fill="#4D98CB"/>
<path class="p-FFA7B3" d="M16.1064 1.36608L17.4725 34H21.2689C21.5517 29.6805 25.2849 28.4406 29.1402 26.9298V0H22.6135L16.1064 1.36608Z" fill="#76B7E2"/>
<path class="p-FFDECF" d="M5.80469 0V26.9298C9.66006 28.4406 13.3932 29.6805 13.6761 34H17.4721V1.36608L12.3314 0H5.80469Z" fill="#A1D1FD"/>
<path class="p-07485E" d="M17.4728 6.53022C20.3121 6.53022 22.6137 4.22835 22.6137 1.38901V0H17.4725L16.1064 2.74656L17.4728 6.53022Z" fill="#4D98CB"/>
<path class="p-0B799D" d="M12.3311 0V1.38901C12.3311 4.22835 14.6327 6.52996 17.472 6.53022V0H12.3311Z" fill="#58ADE5"/>
<path class="p-FF415B" d="M17.4725 16.178L16.1064 19.287L17.4725 24.79C21.1133 24.79 24.0646 21.8387 24.0646 18.1979V16.1777L17.4725 16.178Z" fill="#A1D1FD"/>
<path class="p-FF8E8E" d="M10.8809 16.1782V18.1982C10.8809 21.8389 13.8322 24.7902 17.4727 24.7902V16.1782H10.8809Z" fill="#B9DFFC"/>
</svg>
