<svg width="35" height="32" fill="none" xmlns="http://www.w3.org/2000/svg"><path class="p-E63950" d="M30.066 11v14h-26V11c0-1.94.78-3.74 2.18-5.08a6.815 6.815 0 014.5-1.88c1.12-2.38 3.52-4.04 6.32-4.04 2.8 0 5.2 1.66 6.32 4.04 1.68.06 3.26.7 4.5 1.88a6.973 6.973 0 012.18 5.08z" fill="#58ADE5"/><path class="p-AE2538" d="M30.066 11v14h-13V0c2.8 0 5.2 1.66 6.32 4.04 1.68.06 3.26.7 4.5 1.88a6.973 6.973 0 012.18 5.08z" fill="#4D98CB"/><path class="p-7C8388" d="M6.066 29h-2v3h2v-3z" fill="#58ADE5"/><path class="p-465A61" d="M30.066 29h-2v3h2v-3z" fill="#4D98CB"/><path class="p-FFCEBF" d="M26.066 23h-18c0-3.86 3.14-7 7-7h4c3.86 0 7 3.14 7 7z" fill="#B9DFFC"/><path class="p-FFB99C" d="M26.066 23h-9v-7h2c3.86 0 7 3.14 7 7z" fill="#A1D1FD"/><path class="p-FF637B" d="M15.48 9l-1.414-1.414L12.652 9l1.414 1.414L15.48 9z" fill="#B9DFFC"/><path class="p-E63950" d="M21.48 9l-1.414-1.414L18.652 9l1.414 1.414L21.481 9z" fill="#A1D1FD"/><path class="p-FF637B" d="M17.067 3.58L15.647 5l1.42 1.42L18.486 5l-1.42-1.42z" fill="#B9DFFC"/><path class="p-FF637B" d="M29.133 14c-2.76 0-5 2.24-5 5v3.922H10V19c0-2.76-2.24-5-5-5s-5 2.24-5 5c0 1.62.8 3.06 2 3.98V30h30.133v-7.02c1.2-.92 2-2.36 2-3.98 0-2.76-2.24-5-5-5z" fill="#5FBEFF"/><path class="p-E63950" d="M34.133 19c0 1.62-.8 3.06-2 3.98V30H17.066v-7.078h7.067V19c0-2.76 2.24-5 5-5s5 2.24 5 5z" fill="#65B3E7"/><path class="p-E63950" d="M6.066 18h-2v2h2v-2z" fill="#58ADE5"/><path class="p-AE2538" d="M30.066 18h-2v2h2v-2z" fill="#4D98CB"/><path class="p-E63950" d="M18.486 5l-1.42 1.42V3.58L18.486 5z" fill="#A1D1FD"/></svg>