<svg width="31" height="28" fill="none" xmlns="http://www.w3.org/2000/svg"><path class="p-FC756B" d="M24.725 1.033v3.412c-1.801.437-3.927.754-6.25.912a1.767 1.767 0 00-1.65 1.761v7.578a8.155 8.155 0 01-3.531.001V7.118c0-.93-.722-1.698-1.65-1.76-2.325-.16-4.454-.477-6.255-.915v-3.41c5.633 1.366 13.68 1.377 19.336 0z" fill="#65B3E7"/><path class="p-FE4F34" d="M15.06 2.061V14.89c.602 0 1.195-.067 1.767-.194l-.002-7.578c0-.93.723-1.698 1.65-1.76 2.324-.16 4.45-.477 6.25-.914V1.033c-2.824.687-6.245 1.029-9.665 1.028z" fill="#4D98CB"/><path class="p-FEC356" d="M25.432 24.581c-22.19 0-20.823.026-20.994-.052a6.166 6.166 0 01-.56-.292v2.88c0 .488.395.883.883.883h20.66a.883.883 0 00.884-.882v-2.922c-.195.118-.645.385-.873.385z" fill="#B9DFFC"/><path class="p-FEB020" d="M25.433 24.581l-10.373.002V28h10.362a.883.883 0 00.883-.882v-2.922c-.195.118-.645.385-.872.385z" fill="#A1D1FD"/><path class="p-FE4E33" d="M27.91 10.788c-1.749-3.518-1.712-4.305-1.712-6.021h-.308c-.54 6.322-5.155 11.3-10.832 11.3-5.664 0-10.292-8.727-10.832-15.065-.69 0-1.231.56-1.17 1.246.192 2.152.569 5.692-.852 8.543C1.17 12.863 0 15.211 0 18.322c0 3.307 1.694 6.218 4.315 7.415.26.119-1.077.08 21.118.08.921 0 4.683-2.432 4.683-7.495 0-3.102-1.172-5.457-2.205-7.534z" fill="#58ADE5"/><path class="p-FE1600" d="M27.91 10.788c-1.42-2.855-1.043-6.391-.85-8.54.06-.687-.48-1.246-1.17-1.246-.54 6.322-5.153 15.063-10.83 15.065v9.753c2.707-.002 6.104-.003 10.373-.003.921 0 4.682-2.432 4.682-7.495 0-3.102-1.171-5.457-2.204-7.534z" fill="#4D98CB"/><path class="p-FEC356" d="M15.059 16.36c-5.867 0-10.644-5.16-11.137-11.716-.004-.051-.003.182-.003-3.762a.883.883 0 011.766 0v3.662c.44 5.64 4.551 10.052 9.374 10.052 4.822 0 8.934-4.413 9.374-10.052V.882a.883.883 0 011.766 0c0 3.944.001 3.71-.003 3.762-.494 6.553-5.268 11.717-11.137 11.717z" fill="#B9DFFC"/><path class="p-FEB020" d="M26.198.882a.883.883 0 00-1.767 0v3.662c-.439 5.638-4.55 10.05-9.37 10.052v1.765c5.867-.002 10.64-5.165 11.134-11.717.004-.051.003.182.003-3.762z" fill="#A1D1FD"/></svg>