<svg width="30" height="38" fill="none" xmlns="http://www.w3.org/2000/svg"><path class="p-FF637B" d="M29.633 26.29a6.68 6.68 0 01-1.937 4.696l-2.622 3.283-10.257 1.458-5.175.73-5.083-2.188-2.622-3.283A6.68 6.68 0 010 26.29a6.68 6.68 0 011.937-4.695l7.181-6.035 3.602-2.143 2.097.182 3.145.251 2.553 1.71 7.18 6.034a6.68 6.68 0 011.938 4.696z" fill="#58ADE5"/><path class="p-E63950" d="M29.633 26.29a6.68 6.68 0 01-1.937 4.696l-2.622 3.283-10.258 1.458V13.6l3.146.251 2.553 1.71 7.18 6.034a6.68 6.68 0 011.938 4.696z" fill="#4D98CB"/><path d="M15.956 5.699h-2.28v5.774h2.28V5.7z" fill="#000"/><path d="M15.956 5.699h-1.14v5.774h1.14V5.7z" fill="#000"/><path class="p-FDBF00" d="M4.559 34.269V38h20.515V34.27H4.559zM19.612 5.174h-9.59V15.56h9.59V5.174z" fill="#5FBEFF"/><path class="p-FF9100" d="M25.074 34.269H14.816V38h10.258V34.27zM19.612 5.174h-4.796V15.56h4.796V5.174z" fill="#65B3E7"/><path class="p-815638" d="M18.236 1.14h-6.838v4.559h6.838v-4.56z" fill="#5FBEFF"/><path class="p-64422A" d="M18.236 1.14h-3.42v4.559h3.42v-4.56z" fill="#65B3E7"/><path class="p-E0F4FF" d="M22.795 4.56H6.84v2.279h15.956v-2.28z" fill="#A1D1FD"/><path class="p-B9DFFC" d="M22.795 4.56h-7.979v2.279h7.979v-2.28z" fill="#B9DFFC"/><path class="p-966641" d="M20.516 0H9.118v2.28h11.398V0z" fill="#58ADE5"/><path class="p-7E5436" d="M20.515 0h-5.699v2.28h5.7V0z" fill="#4D98CB"/></svg>