<svg width="33" height="26" fill="none" xmlns="http://www.w3.org/2000/svg"><path class="p-FDBF00" d="M18.664 20.46l-.72 1.88c-.56-.22-1.18-.34-1.8-.34-.62 0-1.24.12-1.8.34l-.72-1.88c.8-.3 1.66-.46 2.52-.46.86 0 1.72.16 2.52.46zM20.844 16h-9.4v2h9.4v-2zM3.067 16H1a1 1 0 100 2h2.067v-2z" fill="#A1D1FD"/><path class="p-FF9100" d="M31.288 16h-2.066v2h2.066a1 1 0 100-2z" fill="#65B3E7"/><path class="p-FDBF00" d="M3.35 16.3l-1.94-.485L5.363 0h6.782a1 1 0 110 2h-5.22L3.35 16.3z" fill="#A1D1FD"/><path class="p-FF9100" d="M28.94 16.3L25.362 2h-5.218a1 1 0 110-2h6.78l3.954 15.815-1.94.485zM16.145 20c.86 0 1.72.16 2.52.46l-.72 1.88c-.56-.22-1.18-.34-1.8-.34v-2zM20.844 16h-4.7v2h4.7v-2z" fill="#65B3E7"/><path class="p-FF9100" d="M24.145 26h-4c-1.655 0-3-1.346-3-3 0-4.963 4.037-9 9-9h2c1.654 0 3 1.346 3 3v2c0 3.86-3.141 7-7 7z" fill="#65B3E7"/><path class="p-3E322E" d="M20.145 24a1 1 0 01-1-1c0-3.86 3.14-7 7-7h2a1 1 0 011 1v2c0 2.757-2.244 5-5 5h-4z" fill="#4D98CB"/><path class="p-FDBF00" d="M12.145 26h-4c-3.86 0-7-3.14-7-7v-2c0-1.654 1.345-3 3-3h2c4.962 0 9 4.037 9 9 0 1.654-1.346 3-3 3z" fill="#A1D1FD"/><path class="p-53433F" d="M8.145 24c-2.757 0-5-2.243-5-5v-2a1 1 0 011-1h2c3.859 0 7 3.14 7 7a1 1 0 01-1 1h-4z" fill="#58ADE5"/></svg>