<svg width="27" height="27" fill="none" xmlns="http://www.w3.org/2000/svg"><path class="p-F03800" d="M11.161 23.468a11.49 11.49 0 01-9.005 2.002l-.515-.112-.112-.515a11.492 11.492 0 012.003-9.005l3.255 1.018 3.356 3.356 1.018 3.256z" fill="#5FBEFF"/><path class="p-CD0000" d="M10.144 20.212l1.018 3.255a11.49 11.49 0 01-9.005 2.003l-.514-.112 6.823-6.824 1.678 1.678z" fill="#4D98CB"/><path class="p-F03800" d="M23.467 11.162l-3.255-1.018-3.356-3.356-1.018-3.255a11.49 11.49 0 019.005-2.003l.515.112.111.515a11.49 11.49 0 01-2.002 9.005z" fill="#5FBEFF"/><path class="p-CD0000" d="M20.212 10.144l-1.678-1.678 6.824-6.824.112.515a11.49 11.49 0 01-2.003 9.005l-3.255-1.018z" fill="#4D98CB"/><path class="p-FF641A" d="M22.326 12.504l-9.822 9.822a12.71 12.71 0 01-1.342 1.141l-7.63-7.629c.347-.459.716-.917 1.141-1.342l9.822-9.822a12.7 12.7 0 011.343-1.141l7.629 7.629a12.72 12.72 0 01-1.141 1.342z" fill="#A1D1FD"/><path class="p-F03800" d="M22.326 12.504l-9.822 9.822c-.425.425-.884.794-1.343 1.141l-3.814-3.814L19.652 7.347l3.814 3.815c-.346.458-.715.917-1.14 1.342z" fill="#58ADE5"/><path class="p-575F64" d="M17.415 9.585c-.928-.929-3.222-.135-4.15.794l-2.887 2.886c-.928.929-1.722 3.222-.794 4.15.929.929 3.222.135 4.15-.794l2.887-2.886c.928-.929 1.722-3.222.794-4.15z" fill="#58ADE5"/><path class="p-76E2F8" d="M24.452 15.502a2.376 2.376 0 000-3.356l-1.119 1.119a.791.791 0 010 1.119l-1.119 1.118a.791.791 0 01-1.118 0l-1.119 1.12a.791.791 0 010 1.118l-2.237 2.237a.792.792 0 01-1.119 0l-1.118 1.119a.792.792 0 010 1.118l-1.12 1.119a.792.792 0 01-1.118 0l-1.119 1.119c.926.925 2.431.925 3.356 0l1.12-1.119c.43-.431.652-.99.681-1.555a2.355 2.355 0 001.556-.682l2.237-2.238c.431-.431.653-.989.682-1.555a2.355 2.355 0 001.555-.682l1.119-1.118z" fill="#65B3E7"/><path class="p-9BFCFF" d="M13.735 3.667l1.119-1.119a2.376 2.376 0 00-3.356 0l-1.119 1.119c-.431.431-.653.99-.682 1.555-.566.03-1.124.25-1.555.682L5.904 8.142c-.43.43-.653.989-.682 1.555-.566.029-1.124.25-1.555.682l-1.119 1.119a2.375 2.375 0 000 3.356l1.119-1.12a.792.792 0 010-1.118l1.119-1.118a.792.792 0 011.118 0l1.12-1.12a.791.791 0 010-1.118L9.26 7.023a.792.792 0 011.12 0l1.118-1.119a.791.791 0 010-1.118l1.118-1.119a.791.791 0 011.12 0z" fill="#5FBEFF"/><path class="p-32393F" d="M9.585 17.416l7.83-7.831c.929.929.135 3.221-.793 4.15l-2.887 2.887c-.928.928-3.222 1.722-4.15.794z" fill="#4D98CB"/><path class="p-D3D3D8" d="M3.991 5.11L5.11 3.991 23.008 21.89l-1.118 1.119L3.99 5.11z" fill="#B9DFFC"/><path class="p-BABAC0" d="M12.94 14.06l1.119-1.12 8.95 8.95-1.12 1.119-8.949-8.95z" fill="#A1D1FD"/><path class="p-32393F" d="M22.95 26.306l-2.738-2.738 3.356-3.356 2.738 2.738c.925.925.925 2.43 0 3.356a2.375 2.375 0 01-3.356 0z" fill="#4D98CB"/><path class="p-575F64" d="M3.432 6.788L.694 4.05a2.376 2.376 0 010-3.356 2.376 2.376 0 013.356 0l2.738 2.738-3.356 3.356z" fill="#58ADE5"/></svg>