<svg width="34" height="26" fill="none" xmlns="http://www.w3.org/2000/svg"><path class="p-BCE4F9" d="M23.175 6.545L19.26 2.097 19.557 0h6.327l1.208 2.097-3.917 4.448z" fill="#76B7E2"/><path class="p-7BCEFC" d="M23.175 6.545V0h3.618l.298 2.097-3.916 4.448z" fill="#4D98CB"/><path class="p-FBDA35" d="M10.453 5.095C4.68 5.095 0 9.775 0 15.547 0 21.32 4.68 26 10.453 26c5.772 0 10.452-4.68 10.452-10.453 0-5.772-4.68-10.452-10.453-10.452zm0 18.376c-4.37 0-7.924-3.554-7.924-7.924 0-4.369 3.554-7.923 7.924-7.923 4.369 0 7.923 3.554 7.923 7.923 0 4.37-3.554 7.924-7.924 7.924z" fill="#B9DFFC"/><path class="p-F7BA35" d="M23.175 5.095c-5.773 0-10.452 4.68-10.452 10.453C12.723 21.32 17.403 26 23.175 26c5.773 0 10.453-4.68 10.453-10.453 0-5.772-4.68-10.452-10.453-10.452zm0 18.376c-4.369 0-7.924-3.554-7.924-7.924 0-4.369 3.555-7.923 7.924-7.923 4.37 0 7.924 3.554 7.924 7.923 0 4.37-3.555 7.924-7.924 7.924z" fill="#76B7E2"/><path class="p-FBDA35" d="M23.143 6.36c0-.699-.568-1.273-1.262-1.19a10.4 10.4 0 00-5.083 2.071 10.517 10.517 0 011.833 1.797 7.881 7.881 0 013.253-1.314c.69-.11 1.259-.666 1.259-1.365z" fill="#B9DFFC"/><path class="p-F7BA35" d="M14.966 22.057a7.881 7.881 0 01-3.254 1.314c-.69.11-1.259.666-1.259 1.364 0 .699.568 1.273 1.262 1.19a10.4 10.4 0 005.083-2.072 10.52 10.52 0 01-1.832-1.796z" fill="#76B7E2"/><path class="p-FBDA35" d="M18.63 22.057a7.992 7.992 0 01-1.832-1.769 7.883 7.883 0 01-1.579-4.74c0-1.777.588-3.419 1.579-4.742a7.993 7.993 0 00-1.833-1.768 10.407 10.407 0 00-2.275 6.51c0 2.46.852 4.723 2.275 6.509.535.671 1.15 1.275 1.833 1.796a10.4 10.4 0 005.083 2.071c.694.084 1.262-.49 1.262-1.189 0-.698-.57-1.253-1.26-1.364a7.881 7.881 0 01-3.252-1.314z" fill="#B9DFFC"/><path class="p-F7BA35" d="M18.63 9.038a10.512 10.512 0 00-1.832-1.797 10.4 10.4 0 00-5.083-2.07c-.694-.084-1.262.49-1.262 1.188 0 .699.57 1.254 1.26 1.365 1.193.191 2.299.65 3.253 1.314a7.99 7.99 0 011.832 1.768 7.882 7.882 0 011.579 4.741 7.882 7.882 0 01-1.579 4.741 7.994 7.994 0 001.833 1.769 10.408 10.408 0 002.275-6.51c0-2.46-.852-4.723-2.275-6.509z" fill="#76B7E2"/></svg>