<svg width="31" height="22" fill="none" xmlns="http://www.w3.org/2000/svg"><path class="p-F8BD6F" d="M6.818 2.746v1.415c1.233 0 2.384.353 3.357.963a6.352 6.352 0 012.343 2.613 6.3 6.3 0 01.628 2.752h3.83c0-.986.224-1.92.628-2.751l-.016-.008.016.008a6.357 6.357 0 012.342-2.614 6.3 6.3 0 013.357-.963V2.746H6.818z" fill="#B9DFFC"/><path class="p-CB9237" d="M6.818 2.746v1.415c1.505 3.577 2.833 6.328 6.328 6.328a6.3 6.3 0 00-.628-2.752 6.353 6.353 0 00-2.343-2.612H19.946a6.352 6.352 0 00-2.342 2.613 6.284 6.284 0 00-.629 2.751c3.495 0 5.22-2.752 6.328-6.328V2.746H6.818z" fill="#4D98CB"/><path class="p-808080" d="M25.967 20.045a1.954 1.954 0 11-3.843-.504H25.9c.043.162.066.33.066.504zM8.065 20.045a1.954 1.954 0 11-3.843-.504h3.777c.043.162.066.33.066.504z" fill="#65B3E7"/><path class="p-F95428" d="M28.693 16.684h-1.816l1.386-11.746.245-2.08h.185a1.43 1.43 0 100-2.858H1.428a1.428 1.428 0 000 2.858h.185l.246 2.08 1.385 11.746H1.428a1.428 1.428 0 100 2.858h27.265a1.43 1.43 0 000-2.858zm-3.888 0H5.316L3.931 4.938l-.246-2.08H26.436l-.245 2.08-1.386 11.746z" fill="#76B7E2"/><path class="p-666666" d="M25.9 19.541h-3.777a1.944 1.944 0 00-.059.67h3.894a1.944 1.944 0 00-.059-.669zm-21.68 0a1.943 1.943 0 00-.057.67h3.893a1.943 1.943 0 00-.058-.669H4.221z" fill="#4D98CB"/><path class="p-D33924" d="M28.508 2.858l-.246 2.08H26.19l.246-2.08h2.072zM5.017 2.44A1.428 1.428 0 016.027 0H1.428a1.428 1.428 0 000 2.858h.185l.246 2.08H3.93l-.246-2.08h2.342c-.395 0-.752-.16-1.01-.419zM4.185 18.113c0-.79.64-1.429 1.429-1.429H1.428a1.428 1.428 0 100 2.858h4.186c-.395 0-.752-.16-1.01-.419a1.425 1.425 0 01-.419-1.01z" fill="#4D98CB"/></svg>