<svg width="34" height="34" fill="none" xmlns="http://www.w3.org/2000/svg"><path class="p-FFF5F5" d="M31.151 19.873c-3.486-3.486-8.864-3.805-11.971-.697-3.108 3.107-2.79 8.485.697 11.971 3.346 3.347 8.724 3.964 11.971.697 1.454-1.454 2.151-3.366 2.151-5.318 0-2.35-1.016-4.8-2.848-6.653z" fill="#B9DFFC"/><path class="p-EFE2DD" d="M34 26.526c0 1.952-.698 3.864-2.152 5.318L19.18 19.176c3.107-3.108 8.485-2.79 11.971.697C32.983 21.725 34 24.175 34 26.526z" fill="#A1D1FD"/><path class="p-FFB64C" d="M22.58 15.312c-.405 0-.811-.021-1.219-.064a4.992 4.992 0 01-1.188-.273 5.004 5.004 0 01-2.872-2.715c-.55-1.281-.537-2.716.036-4.04.82-1.886 2.85-3.01 5.138-2.872.605.035.957 1.084 2.077 0 .512-.753.461-.989.512-1.343C25.399 1.685 26.392 0 28.692 0h.098c1.559 0 3.026.689 4.023 1.89A5.007 5.007 0 0133.9 6.015c-.416 2.222-1.463 4.195-3.114 5.864a11.5 11.5 0 01-8.206 3.433z" fill="#A1D1FD"/><path class="p-FF9100" d="M22.182 9.96h1.992v1.991h-1.992V9.96z" fill="#4D98CB"/><path class="p-FF9100" d="M24.174 7.968h1.992V9.96h-1.992V7.968z" fill="#58ADE5"/><path class="p-61D7A8" d="M14.924 19.076l-1.195 5.916-5.338.617.617-5.338 5.916-1.195z" fill="#5FBEFF"/><path class="p-00AB94" d="M14.924 19.076l-1.195 5.916-5.338.617 6.533-6.533z" fill="#4D98CB"/><path class="p-FFB64C" d="M13.602 13.14l-.16.3-.298.158a9.7 9.7 0 01-4.322 1.016c-1.972 0-3.905-.578-5.538-1.733l.12-7.17L5.714 3.4l7.191-.12c1.992 2.868 2.27 6.673.697 9.86z" fill="#A1D1FD"/><path class="p-FF9100" d="M13.603 13.14l-.16.3L4.56 4.554 5.715 3.4l7.19-.12c1.993 2.868 2.272 6.673.698 9.86zM.038 1.427L1.432.033l2.112 2.112L2.15 3.539.038 1.427z" fill="#65B3E7"/><path class="p-FFF5F5" d="M8.468 25.532l2.591-7.632-1.314.04c-2.39.08-6.215 2.69-8.067 4.522-3.606 3.605-.3 9.402-.16 9.66l.14.22.219.14c.16.08 2.67 1.513 5.398 1.513 1.474 0 3.008-.418 4.263-1.673 1.832-1.853 4.442-5.677 4.521-8.067l.04-1.315-7.631 2.592z" fill="#B9DFFC"/><path class="p-EFE2DD" d="M16.099 22.94l-.04 1.315c-.08 2.39-2.69 6.215-4.522 8.067-1.255 1.255-2.788 1.673-4.263 1.673-2.728 0-5.238-1.434-5.398-1.513l-.219-.14 6.81-6.81L16.1 22.94z" fill="#A1D1FD"/><path class="p-FF641A" d="M2.847 2.842L.735.73l.697-.697 2.112 2.111-.697.698z" fill="#4D98CB"/><path class="p-FF9100" d="M11.511 1.686C8.762-.584 4.7-.425 2.15 2.144-.4 4.674-.56 8.738 1.691 11.486a6.081 6.081 0 001.594 1.395L5.396 7.7l3.23.92-.92-3.23 5.2-2.111c-.558-.877-1.016-1.275-1.395-1.594z" fill="#65B3E7"/><path class="p-FF641A" d="M12.906 3.28l-5.2 2.111.92 3.23-6.477-6.477c2.55-2.57 6.613-2.729 9.362-.458.379.319.837.717 1.395 1.594z" fill="#4D98CB"/><path class="p-FF9100" d="M27.625 23.398c-1.852-1.852-4.86-1.713-4.98-1.693l-.896.04-.04.897c-.02.119-.16 4.046 1.693 5.898 1.574 1.574 3.984.794 4.741.794.14 0 .22 0 .24-.02l.895-.04.04-.896c0-.02.02-.12.02-.279 0-.816-.179-3.167-1.713-4.7z" fill="#65B3E7"/><path class="p-FF641A" d="M29.34 28.1c0 .159-.02.258-.02.278l-.04.896-7.53-7.529.896-.04c.12-.02 4.046-.16 5.899 1.693 1.534 1.534.794 3.885.794 4.701z" fill="#4D98CB"/></svg>