<svg width="29" height="40" fill="none" xmlns="http://www.w3.org/2000/svg"><path class="p-AB7B26" d="M16.758 6.645V4.299c0-2.365-1.92-3.41-4.284-3.418L10.91 6.645h5.848z" fill="#4D98CB"/><path class="p-E1BB78" d="M12.475 0c-.005 0-.01.88-.015.88-2.371 0-4.3 1.048-4.3 3.419v2.346h4.315V0z" fill="#65B3E7"/><path class="p-CDBFBA" d="M23.337 25.099l-1.913-1.355 1.792-2.529 1.791-2.528a4.401 4.401 0 00.324-4.64 4.401 4.401 0 00-3.974-2.42h-6.552V9.283h6.552c2.56 0 4.88 1.413 6.056 3.687a6.794 6.794 0 01-.494 7.072L23.337 25.1z" fill="#4D98CB"/><path class="p-DD7D00" d="M10.91 23.52L12.474 40h5.642l.26-.141a12.455 12.455 0 006.509-10.076C23 27.112 16.187 23.928 10.91 23.52z" fill="#58ADE5"/><path class="p-EEBF00" d="M12.459 23.518c-5.283-.403-9.767.83-12.427 4.485a12.455 12.455 0 006.51 11.856l.26.14h5.673V23.52h-.016z" fill="#76B7E2"/><path class="p-D6C4BE" d="M22.364 21.336a12.572 12.572 0 00-5.606-4.138V6.645H10.91l1.564 22.242c1.174-1.149 2.173-3.54 4.34-3.54 4.132 0 4.346 4.268 8.07 4.437a12.344 12.344 0 00-2.521-8.448z" fill="#A1D1FD"/><path class="p-EFE2DD" d="M8.16 6.645v10.553a12.572 12.572 0 00-5.607 4.138 12.325 12.325 0 00-2.522 6.667c3.725.168 3.94 3.556 8.07 3.556 2.19 0 3.346-1.62 4.373-2.672V6.645H8.16z" fill="#B9DFFC"/><path class="p-BDADA8" d="M19.105 5.473h-6.63l-.782 1.172.782.291h6.63V5.473z" fill="#76B7E2"/><path class="p-DCCBC5" d="M12.474 5.473H5.812v1.463h6.662V5.473z" fill="#A1D1FD"/></svg>