<svg width="32" height="32" fill="none" xmlns="http://www.w3.org/2000/svg"><path class="p-FF9100" d="M25.886 23.314l-1.594-1.593-1.887 1.886 1.594 1.594 1.887-1.887z" fill="#65B3E7"/><path class="p-FFDA2D" d="M24.994 0L20.79 4.204l7.006 7.006L32 7.006 24.994 0z" fill="#B9DFFC"/><path class="p-FDBF00" d="M28.725 13.112l-2.677.127-6.544-6.544-.616-3.42c.532-.532.56-.532.56-.532L21.704.487l9.81 9.809-2.257 2.256s-.028.056-.532.56z" fill="#5FBEFF"/><path class="p-FDBF00" d="M28.497 3.503l-4.204 4.204 3.503 3.503L32 7.006l-3.503-3.503z" fill="#A1D1FD"/><path class="p-FF9100" d="M26.048 13.238l-3.644-3.643 4.204-4.204 4.904 4.905-2.256 2.256s-.028.056-.532.56l-2.676.126z" fill="#65B3E7"/><path class="p-FFDA2D" d="M4.402 20.592L0 24.994 7.006 32l4.402-4.402-7.006-7.006z" fill="#B9DFFC"/><path class="p-FDBF00" d="M13.31 28.526c-.505.505-.56.533-.56.533l-2.257 2.256-9.808-9.809L2.94 19.25s.028-.056.532-.56l3.461.658 6.6 6.6-.224 2.578z" fill="#5FBEFF"/><path class="p-FDBF00" d="M3.503 28.497L7.006 32l4.402-4.402-3.503-3.503-4.402 4.402z" fill="#A1D1FD"/><path class="p-FF9100" d="M13.534 25.948l-.224 2.578c-.505.505-.56.533-.56.533l-2.257 2.256L5.59 26.41l4.204-4.204 3.741 3.742z" fill="#65B3E7"/><path class="p-FFDA2D" d="M26.819 17.68c.252-1.513.742-2.816 1.457-3.895l.448-.672-9.837-9.837-.672.448c-1.079.715-2.382 1.205-3.868 1.457a10.658 10.658 0 00-5.955 3.013 10.67 10.67 0 00-3.013 5.927c-.252 1.514-.742 2.817-1.457 3.896l-.448.672 9.836 9.837.673-.448c1.079-.715 2.382-1.205 3.867-1.457a10.658 10.658 0 005.956-3.013 10.67 10.67 0 003.013-5.927z" fill="#B9DFFC"/><path class="p-FDBF00" d="M23.805 23.608a10.658 10.658 0 01-5.955 3.012c-1.485.253-2.788.743-3.867 1.458l-.673.448-4.918-4.918L23.805 8.194l4.919 4.918-.448.673c-.715 1.079-1.206 2.382-1.458 3.895a10.67 10.67 0 01-3.013 5.928z" fill="#A1D1FD"/><path class="p-68544F" d="M21.003 10.996a6.944 6.944 0 00-9.809 0 6.944 6.944 0 000 9.81 6.944 6.944 0 009.81 0 6.944 6.944 0 000-9.81z" fill="#58ADE5"/><path class="p-53433F" d="M11.194 20.805l9.81-9.808a6.944 6.944 0 010 9.808 6.944 6.944 0 01-9.81 0z" fill="#4D98CB"/><path class="p-FDBF00" d="M17.988 18.216l-.487.487-2.803-2.802 2.803-2.803 1.401 1.402-2.316 2.315 1.402 1.401z" fill="#5FBEFF"/><path class="p-FDBF00" d="M18.415 19.618l-3.017-3.016 2.803-2.803.7.7-2.315 2.316 2.316 2.316-.487.487z" fill="#AFD9F6"/></svg>