<svg width="33" height="32" fill="none" xmlns="http://www.w3.org/2000/svg"><path class="p-7C8388" d="M24.023 28.026l4.003-4.004 4.004 2.106L26.158 32l-2.136-3.974z" fill="#5FBEFF"/><path class="p-575F64" d="M26.158 32l-2.136-3.974 1.934-2.07 3.123 3.123L26.158 32z" fill="#65B3E7"/><path class="p-FDBF00" d="M19.067 23.124c-2.18-2.18-4.932-4.107-7.361-5.808-2.062-1.444-4.01-2.808-5.33-4.13L1.408 8.22a4.823 4.823 0 010-6.81 4.823 4.823 0 016.81 0l4.967 4.968c1.313 1.313 2.724 3.302 4.218 5.407 1.724 2.429 3.677 5.181 5.75 7.254l1.573 1.573-4.087 4.086-1.572-1.573z" fill="#A1D1FD"/><path class="p-FF9100" d="M20.64 24.697l-1.573-1.573c-2.18-2.18-4.932-4.108-7.361-5.809-2.062-1.444-4.01-2.808-5.33-4.129L1.408 8.22a4.823 4.823 0 010-6.81l21.26 21.26-2.029 2.027z" fill="#76B7E2"/><path class="p-575F64" d="M19.277 23.335l4.087-4.086 5.048 5.049-4.086 4.085-5.049-5.048z" fill="#76B7E2"/><path class="p-32393F" d="M24.326 28.383l-5.049-5.049 2.029-2.028 5.048 5.05-2.028 2.027z" fill="#4D98CB"/><path class="p-7C8388" d="M6.762 32L.89 26.128l4.003-2.106 4.004 4.004L6.762 32z" fill="#5FBEFF"/><path class="p-575F64" d="M6.76 32l2.136-3.974-1.933-2.07L3.84 29.08 6.76 32z" fill="#65B3E7"/><path class="p-FFDA2D" d="M12.28 24.696L8.193 20.61l1.573-1.572c2.073-2.073 4.026-4.826 5.75-7.255 1.494-2.105 2.905-4.094 4.218-5.406L24.7 1.409a4.822 4.822 0 016.81 0 4.823 4.823 0 010 6.81l-4.968 4.967c-1.32 1.322-3.268 2.685-5.33 4.13-2.429 1.7-5.181 3.628-7.36 5.808l-1.573 1.572z" fill="#B9DFFC"/><path class="p-FDBF00" d="M12.28 24.697l1.573-1.573c2.18-2.18 4.932-4.108 7.36-5.809 2.062-1.444 4.01-2.808 5.33-4.129l4.969-4.967a4.823 4.823 0 000-6.81l-21.26 21.26 2.028 2.027z" fill="#A1D1FD"/><path class="p-575F64" d="M8.593 28.383l-4.086-4.085 5.048-5.05 4.087 4.087-5.05 5.048z" fill="#76B7E2"/><path class="p-32393F" d="M8.594 28.383l5.048-5.049-2.028-2.028-5.049 5.05 2.029 2.027z" fill="#4D98CB"/><path class="p-ECECF1" d="M16.421 5.775c-.74 0-1.48-.281-2.043-.844a2.893 2.893 0 010-4.086 2.893 2.893 0 014.086 0 2.893 2.893 0 010 4.086 2.88 2.88 0 01-2.043.844z" fill="#B9DFFC"/><path class="p-D3D3D8" d="M16.42 0v5.775c.74 0 1.48-.281 2.044-.844a2.893 2.893 0 000-4.086A2.88 2.88 0 0016.42 0z" fill="#A1D1FD"/></svg>