<svg width="27" height="28" fill="none" xmlns="http://www.w3.org/2000/svg"><path d="M22.243 7.11h-4.564L17.58 0h4.765l-.101 7.11z" fill="#00C3FF"/><path class="p-00AAF0" d="M19.96 7.11h2.283l.1-7.11h-2.382v7.11z" fill="#4D98CB"/><path class="p-CCEFFF" d="M26.797 28H13.125V5.469h13.672v22.53z" fill="#B9DFFC"/><path class="p-ACE3FC" d="M26.797 28H19.96V5.469h6.836v22.53z" fill="#A1D1FD"/><path class="p-D6702B" d="M7.663 25.131c-.546-1.393-.553-1.252-.553-2.748v-4.336H4.376v4.336c0 1.497-.007 1.355-.554 2.748-.52 1.33.831 2.869 1.92 2.869 1.099 0 2.442-1.54 1.921-2.869z" fill="#5FBEFF"/><path class="p-BF6015" d="M7.663 25.131c-.546-1.393-.553-1.252-.553-2.748v-4.336H5.743V28c1.098 0 2.441-1.54 1.92-2.869z" fill="#4D98CB"/><path class="p-E08344" d="M5.742 19.14C2.522 19.14 0 14.938 0 9.57 0 4.204 2.522 0 5.742 0s5.742 4.204 5.742 9.57c0 5.367-2.522 9.57-5.742 9.57z" fill="#58ADE5"/><path class="p-D6702B" d="M5.742 0v19.14c3.22 0 5.742-4.203 5.742-9.57C11.484 4.204 8.962 0 5.742 0z" fill="#58ADE5"/><path class="p-FEDBAB" d="M5.742 1.64c-1.005 0-1.987.762-2.765 2.145C2.115 5.317 1.64 7.372 1.64 9.57c0 2.199.474 4.253 1.336 5.785.778 1.383 1.76 2.145 2.765 2.145 1.005 0 1.988-.762 2.765-2.145.862-1.532 1.337-3.586 1.337-5.785 0-2.198-.475-4.253-1.337-5.785-.777-1.383-1.76-2.144-2.765-2.144z" fill="#B9DFFC"/><path class="p-FEC478" d="M8.508 3.785c-.778-1.383-1.76-2.144-2.765-2.144V17.5c1.005 0 1.987-.762 2.765-2.145.862-1.532 1.336-3.586 1.336-5.785 0-2.198-.474-4.253-1.336-5.785z" fill="#A1D1FD"/><path d="M26.797 12.624H13.125v8.22h13.672v-8.22z" fill="#00C3FF"/><path class="p-FEC478" d="M3.828 10.664a1.094 1.094 0 100-2.187 1.094 1.094 0 000 2.187z" fill="#58ADE5"/><path class="p-FEA832" d="M7.656 10.664a1.094 1.094 0 100-2.187 1.094 1.094 0 000 2.187z" fill="#4D98CB"/><path class="p-FEC478" d="M4.102 6.836a1.094 1.094 0 100-2.188 1.094 1.094 0 000 2.188z" fill="#58ADE5"/><path class="p-FEA832" d="M7.383 6.836a1.094 1.094 0 100-2.188 1.094 1.094 0 000 2.188z" fill="#4D98CB"/><path class="p-FEC478" d="M4.102 14.492a1.094 1.094 0 100-2.187 1.094 1.094 0 000 2.187z" fill="#58ADE5"/><path class="p-FEA832" d="M7.383 14.492a1.094 1.094 0 100-2.187 1.094 1.094 0 000 2.187z" fill="#4D98CB"/><path class="p-00AAF0" d="M26.797 12.624H19.96v8.22h6.836v-8.22z" fill="#4D98CB"/></svg>