<svg width="30" height="32" fill="none" xmlns="http://www.w3.org/2000/svg"><path class="p-CFCFCF" d="M25.49 31.457a1.942 1.942 0 01-1.93-2.156l.383-3.926a45.99 45.99 0 00-.066-9.524l-.556-5.004h4.34l-.557 5.004a45.974 45.974 0 00-.065 9.524l.382 3.926a1.942 1.942 0 01-1.93 2.156z" fill="#58ADE5"/><path class="p-E4E4E4" d="M29.83 6.509c0-3.296-1.942-5.967-4.339-5.967-2.396 0-4.339 2.671-4.339 5.967 0 3.295 1.943 5.965 4.34 5.965 2.395 0 4.338-2.67 4.338-5.965z" fill="#B9DFFC"/><path class="p-9AF43B" d="M24.552 3.084c-.513.432-.914 1.207-1.107 2.156l1.107-2.156z" fill="#9AF43B"/><path class="p-white" d="M24.203 2.669c-.648.552-1.076 1.428-1.29 2.463a.542.542 0 101.064.216c.17-.863.545-1.538.924-1.85a.542.542 0 00-.698-.828v-.001z" fill="#fff"/><path class="p-FFE6CE" d="M14.252 30.915H4.73a4.188 4.188 0 01-4.188-4.188V13.95A4.188 4.188 0 014.73 9.762h9.522a4.188 4.188 0 014.188 4.189v12.776a4.188 4.188 0 01-4.188 4.188z" fill="#B9DFFC"/><path class="p-white" d="M.542 13.56H18.44v13.558H.542V13.56z" fill="#fff"/><path class="p-54596E" d="M6.556 22.073c.64.783 1.71 1.245 2.906 1.248 1.185-.003 2.245-.456 2.888-1.224a.543.543 0 00-.836-.692c-.38.467-1.15.835-2.052.832-.911.003-1.687-.373-2.063-.846a.542.542 0 10-.843.683zM5.966 18.983a1.085 1.085 0 11-2.17 0 1.085 1.085 0 012.17 0z" fill="#4D98CB"/><path class="p-FF927D" d="M4.338 21.695a1.085 1.085 0 11-2.17 0 1.085 1.085 0 012.17 0zM16.813 21.695a1.085 1.085 0 11-2.17 0 1.085 1.085 0 012.17 0z" fill="#58ADE5"/><path class="p-54596E" d="M15.186 18.983a1.085 1.085 0 11-2.17 0 1.085 1.085 0 012.17 0z" fill="#4D98CB"/><path class="p-FFE6CE" d="M3.255 6.509h12.474v3.796H3.255V6.509z" fill="#B9DFFC"/><path class="p-FF927D" d="M2.169 4.339h14.644v2.17H2.169v-2.17z" fill="#58ADE5"/><path class="p-FFE6CE" d="M15.73 4.339H3.254a2.17 2.17 0 012.17-2.17h8.135a2.17 2.17 0 012.17 2.17z" fill="#B9DFFC"/><path class="p-54596E" fill-rule="evenodd" clip-rule="evenodd" d="M9.332 30.915V9.762h4.92a4.188 4.188 0 014.188 4.189v12.776a4.188 4.188 0 01-4.188 4.188h-4.92z" fill="#54596E" fill-opacity=".15"/><path class="p-54596E" fill-rule="evenodd" clip-rule="evenodd" d="M9.332 9.763V6.509h6.395v3.518s-.398-.143-.676-.195c-.278-.052-.715-.07-.715-.07H9.332zM9.332 6.508v-2.17h7.48v2.17h-7.48z" fill="#54596E" fill-opacity=".15"/><path class="p-54596E" fill-rule="evenodd" clip-rule="evenodd" d="M9.332 4.339v-2.17h4.226a2.17 2.17 0 012.17 2.17H9.331z" fill="#54596E" fill-opacity=".15"/></svg>