<svg width="34" height="30" fill="none" xmlns="http://www.w3.org/2000/svg"><path class="p-FD2D12" d="M21.632 6.792h-9.81V0h9.81v6.792z" fill="#A1D1FD"/><path class="p-DE0E0E" d="M21.632 5.887h-4.889V0h4.889v5.887z" fill="#4D98CB"/><path class="p-FF672A" d="M26.03 7.527a2.975 2.975 0 00-2.695-1.717H10.121c-1.157 0-2.21.671-2.698 1.72L0 21.985l4.636 2.266 3.588-5.948L7.319 30h18.815l-.905-11.697 3.614 5.968 4.644-2.289L26.03 7.527z" fill="#5FBEFF"/><path class="p-FD2D12" d="M26.03 7.527a2.975 2.975 0 00-2.695-1.717h-6.608V30h9.407l-.905-11.697 3.614 5.968 4.644-2.289L26.03 7.527z" fill="#58ADE5"/><path class="p-FFFFFF" d="M25.23 16.172l-2.393 1.657-3.055-2.114-3.055 2.114-3.055-2.114-3.054 2.114-2.393-1.657v2.387l2.393 1.657 3.054-2.115 3.055 2.115 3.055-2.115 3.055 2.115 2.393-1.657v-2.387z" fill="#fff"/><path class="p-F2F2F4" d="M22.835 17.83l-3.055-2.115-3.037 2.102v2.387l3.038-2.103 3.055 2.115 2.393-1.657v-2.387l-2.393 1.657z" fill="#F2F2F4"/></svg>