<svg width="33" height="33" fill="none" xmlns="http://www.w3.org/2000/svg"><path class="p-FF637B" d="M21.334 0l-.928 1.14L19.4 0h-5.8l-.986.986L11.665 0H1.998v15.598a1.94 1.94 0 001.934 1.933h.966c5.221 0 9.707-3.19 11.602-7.734 1.895 4.544 6.38 7.734 11.602 7.734h.966a1.94 1.94 0 001.934-1.933V0h-9.668z" fill="#FF637B"/><path class="p-E63950" d="M31.002 0v15.598a1.94 1.94 0 01-1.934 1.933h-.966c-5.221 0-9.707-3.19-11.602-7.734V0h2.9l1.006 1.14.928-1.14h9.668z" fill="#E63950"/><path class="p-FF637B" d="M1.998 21.393c0-.5.381-.918.88-.963l1.053-.095 6.458-.58a8.764 8.764 0 011.277 4.544v3.867H1.998v-6.773z" fill="#FF637B"/><path class="p-E63950" d="M30.112 20.322c.503.04.89.46.89.963v6.881h-9.668V24.3c0-1.605.445-3.171 1.276-4.544l6.458.483 1.044.084zM7.8 28.166H5.865v-3.867c0-1.36-1.032-2.851-2.945-2.94l.089-1.931c2.73.126 4.79 2.22 4.79 4.87v3.868z" fill="#E63950"/><path class="p-AE2538" d="M27.135 28.166H25.2V24.3c0-2.651 2.06-4.745 4.79-4.87l.089 1.93c-1.913.089-2.945 1.58-2.945 2.94v3.867z" fill="#AE2538"/><path class="p-E63950" d="M13.6 0v4.963c0 3.964-2.688 7.425-6.536 8.43L6.6 11.518a6.768 6.768 0 005.066-6.555V0h1.933z" fill="#E63950"/><path class="p-AE2538" d="M26.4 11.518l-.464 1.875c-3.848-1.005-6.536-4.466-6.536-8.43V0h1.934v4.963a6.768 6.768 0 005.066 6.555z" fill="#AE2538"/><path class="p-FFDA2D" d="M11.666 18.498c0 1.605-1.295 2.9-2.9 2.9H1.998v-5.8h6.768c1.605 0 2.9 1.295 2.9 2.9z" fill="#FFDA2D"/><path class="p-FDBF00" d="M31.002 15.598v5.8h-6.768a2.896 2.896 0 01-2.9-2.9c0-1.605 1.295-2.9 2.9-2.9h6.768z" fill="#FDBF00"/><path class="p-596C76" d="M30.1 27.2H2.9A2.896 2.896 0 000 30.1V33h33v-2.9c0-1.605-1.295-2.9-2.9-2.9z" fill="#596C76"/><path class="p-465A61" d="M33 30.1V33H16.5v-5.8h13.6c1.605 0 2.9 1.295 2.9 2.9z" fill="#465A61"/><path class="p-FF637B" d="M21.334 0l-.928 1.14L19.4 0h-5.8l-.986.986L11.665 0H1.998v15.598a1.94 1.94 0 001.934 1.933h.966c5.221 0 9.707-3.19 11.602-7.734 1.895 4.544 6.38 7.734 11.602 7.734h.966a1.94 1.94 0 001.934-1.933V0h-9.668z" fill="#58ADE5"/><path class="p-E63950" d="M31.002 0v15.598a1.94 1.94 0 01-1.934 1.933h-.966c-5.221 0-9.707-3.19-11.602-7.734V0h2.9l1.006 1.14.928-1.14h9.668z" fill="#65B3E7"/><path class="p-FF637B" d="M1.998 21.393c0-.5.381-.918.88-.963l1.053-.095 6.458-.58a8.764 8.764 0 011.277 4.544v3.867H1.998v-6.773z" fill="#58ADE5"/><path class="p-E63950" d="M30.112 20.322c.503.04.89.46.89.963v6.881h-9.668V24.3c0-1.605.445-3.171 1.276-4.544l6.458.483 1.044.084z" fill="#65B3E7"/><path class="p-E63950" d="M7.8 28.166H5.865v-3.867c0-1.36-1.032-2.851-2.945-2.94l.089-1.931c2.73.126 4.79 2.22 4.79 4.87v3.868z" fill="#5FBEFF"/><path class="p-AE2538" d="M27.135 28.166H25.2V24.3c0-2.651 2.06-4.745 4.79-4.87l.089 1.93c-1.913.089-2.945 1.58-2.945 2.94v3.867z" fill="#4D98CB"/><path class="p-E63950" d="M13.6 0v4.963c0 3.964-2.688 7.425-6.536 8.43L6.6 11.518a6.768 6.768 0 005.066-6.555V0h1.933z" fill="#5FBEFF"/><path class="p-AE2538" d="M26.4 11.518l-.464 1.875c-3.848-1.005-6.536-4.466-6.536-8.43V0h1.934v4.963a6.768 6.768 0 005.066 6.555z" fill="#4D98CB"/><path class="p-FFDA2D" d="M11.666 18.498c0 1.605-1.295 2.9-2.9 2.9H1.998v-5.8h6.768c1.605 0 2.9 1.295 2.9 2.9z" fill="#B9DFFC"/><path class="p-FDBF00" d="M31.002 15.598v5.8h-6.768a2.896 2.896 0 01-2.9-2.9c0-1.605 1.295-2.9 2.9-2.9h6.768z" fill="#A1D1FD"/><path class="p-596C76" d="M30.1 27.2H2.9A2.896 2.896 0 000 30.1V33h33v-2.9c0-1.605-1.295-2.9-2.9-2.9z" fill="#58ADE5"/><path class="p-465A61" d="M33 30.1V33H16.5v-5.8h13.6c1.605 0 2.9 1.295 2.9 2.9z" fill="#4D98CB"/></svg>