<svg width="32" height="20" fill="none" xmlns="http://www.w3.org/2000/svg"><path class="p-FFDC40" d="M7.516 0a2 2 0 00-2 2v7.09h20V2a2 2 0 00-2-2h-16zm14.363 3.636a.91.91 0 01-.909.91H10.061a.91.91 0 110-1.819h10.91a.91.91 0 01.908.91z" fill="#76B7E2"/><path class="p-FFAB15" d="M15.516 0v2.727h5.454a.91.91 0 010 1.818h-5.454v4.546h10V2a2 2 0 00-2-2h-8z" fill="#58ADE5"/><path class="p-76CC5B" d="M30.589 20H.442l1.516-9.09h27.116L30.588 20z" fill="#5FBEFF"/><path class="p-599944" d="M15.516 20h15.073l-1.515-9.09H15.516V20z" fill="#4D98CB"/><path class="p-FFEA84" d="M31.03 12.727H0V9.273a2 2 0 012-2h27.03a2 2 0 012 2v3.454z" fill="#B9DFFC"/><path class="p-8FE673" d="M9.85 15.515a.91.91 0 10-1.814-.126L7.715 20h1.822l.313-4.483zM14.233 15.476a.909.909 0 10-1.817-.043L12.31 20h1.818l.105-4.524zM4.949 20l.516-4.447a.909.909 0 10-1.806-.21L3.12 20h1.83z" fill="#B9DFFC"/><path class="p-76CC5B" d="M18.614 15.433a.909.909 0 10-1.817.043L16.902 20h1.818l-.106-4.567zM22.994 15.39a.91.91 0 10-1.814.125L21.493 20h1.823l-.322-4.61zM27.37 15.344a.909.909 0 10-1.805.21L26.082 20h1.83l-.541-4.656z" fill="#A1D1FD"/><path class="p-FFDC40" d="M31.03 12.727H15.517V7.273H29.03a2 2 0 012 2v3.454z" fill="#A1D1FD"/></svg>