<svg width="31" height="30" fill="none" xmlns="http://www.w3.org/2000/svg"><path class="p-04303E" d="M18.171 3.54V0h-2.754l-1.205 4.746 3.96-1.206z" fill="#4D98CB"/><path class="p-58ADE5" d="M15.417 4.746V0h-2.754v3.54l2.754 1.206z" fill="#58ADE5"/><path class="p-3440DB" d="M21.381 6.004a2.467 2.467 0 00-2.464-2.464h-3.5l-1.205 5.833 5.884-1.206a2.466 2.466 0 001.285-2.163z" fill="#65B3E7"/><path class="p-2682FF" d="M11.916 3.54a2.467 2.467 0 00-2.464 2.464c0 .932.52 1.745 1.285 2.163l4.68 1.206V3.54h-3.5z" fill="#5FBEFF"/><path class="p-00CC76" d="M23.302 10.632a2.467 2.467 0 00-2.464-2.465h-5.42L14.211 14l7.805-1.205a2.466 2.466 0 001.285-2.163z" fill="#A1D1FD"/><path class="p-CCFC5C" d="M9.996 8.167a2.467 2.467 0 00-2.464 2.465c0 .931.52 1.744 1.285 2.163l6.6 1.205V8.167h-5.42z" fill="#B9DFFC"/><path class="p-FF3C7D" d="M25.223 15.259a2.467 2.467 0 00-2.464-2.465h-7.342l-1.205 5.833 9.726-1.205a2.466 2.466 0 001.285-2.163z" fill="#65B3E7"/><path class="p-FFA2C1" d="M8.076 12.794A2.467 2.467 0 005.61 15.26c0 .931.52 1.744 1.285 2.163l8.52 1.205v-5.833h-7.34z" fill="#5FBEFF"/><path class="p-FF9100" d="M24.68 17.422h-9.263l-1.205 5.832 11.646-1.205a2.466 2.466 0 001.285-2.163 2.467 2.467 0 00-2.464-2.464z" fill="#A1D1FD"/><path class="p-FFDE55" d="M6.155 17.422a2.467 2.467 0 00-2.465 2.464c0 .932.52 1.744 1.285 2.163l10.441 1.205v-5.832H6.155z" fill="#B9DFFC"/><path class="p-EFE2DD" d="M26.6 22.049H15.417l-1.205 6.134L26.6 26.977a2.467 2.467 0 002.464-2.464 2.467 2.467 0 00-2.464-2.464z" fill="#65B3E7"/><path class="p-FFF5F5" d="M4.234 22.049a2.467 2.467 0 00-2.464 2.464 2.467 2.467 0 002.464 2.464l11.182 1.206v-6.134H4.234z" fill="#5FBEFF"/><path class="p-04303E" d="M30.834 30v-3.023H15.417l-1.205 1.928L15.417 30h15.417z" fill="#4D98CB"/><path class="p-09607D" d="M15.417 26.977H0V30h15.417v-3.023z" fill="#58ADE5"/></svg>