<svg width="40" height="41" fill="none" xmlns="http://www.w3.org/2000/svg"><path class="p-FF620B" d="M0 0v18.923h28.306V0H0z" fill="#5FBEFF"/><path class="p-DD3400" d="M14.153 0h14.154v18.923H14.153V0z" fill="#4D98CB"/><path class="p-DEECF1" d="M2.346 2.346v14.23H25.96V2.347H2.346z" fill="#B9DFFC"/><path class="p-C6E2E7" d="M14.153 2.346h11.808v14.23H14.153V2.347z" fill="#A1D1FD"/><path class="p-B4EAF5" d="M12.808 22.441h2.691v16.421h-2.691v-16.42z" fill="#5FBEFF"/><path class="p-00ADEA" d="M14.153 22.441H15.5v16.421h-1.346v-16.42z" fill="#4D98CB"/><path class="p-FF620B" d="M32.804 40.005a8.11 8.11 0 003.917-1.572c.305-.234-1.736-2.791-1.454-3.096.304-.282 2.861 1.759 3.096 1.454a7.937 7.937 0 001.572-3.894c.047-.422-2.276-.844-2.276-1.267 0-.399 2.3-.797 2.229-1.196a7.99 7.99 0 00-2.276-4.34 8.055 8.055 0 00-4.363-2.275c-.352-.07-.727 2.252-1.102 2.228-.423 0-.868-2.322-1.29-2.275a8.101 8.101 0 00-3.941 1.572c-.306.234 1.735 2.791 1.454 3.096-.282.281-2.862-1.76-3.097-1.431-.844 1.15-1.337 2.51-1.5 3.918-.048.422 2.274.844 2.274 1.266.024.376-2.298.775-2.228 1.15.282 1.618 1.009 3.143 2.205 4.34a8.055 8.055 0 004.363 2.275c.446.093.915-2.229 1.384-2.229.352 0 .68 2.276 1.033 2.276z" fill="#65B3E7"/><path class="p-DD3400" d="M38.363 36.791a7.943 7.943 0 001.571-3.894c.047-.422-2.275-.844-2.275-1.267 0-.399 2.299-.798 2.228-1.196a7.99 7.99 0 00-2.275-4.34 8.053 8.053 0 00-4.363-2.275c-.352-.07-.728 2.252-1.103 2.228-.422 0-.868-2.322-1.29-2.275a8.1 8.1 0 00-3.941 1.571c-.305.235 1.736 2.792 1.454 3.097l6.897 6.896c.305-.281 2.862 1.76 3.097 1.455z" fill="#4D98CB"/><path class="p-68544F" d="M6.288 37.69h13.73v2.345H6.287V37.69z" fill="#5FBEFF"/><path class="p-FF9F00" d="M32.804 40.005a5.8 5.8 0 01.774-4.715l3.143 3.143c.305-.234.61-.445.892-.75.305-.282.516-.587.75-.892l-3.143-3.143a5.866 5.866 0 014.715-.75 8.654 8.654 0 00-.047-2.464 8.355 8.355 0 00-6.357 1.525l-1.806-1.806c1.079-1.455 1.665-3.167 1.665-4.903 0-.47-.047-.962-.14-1.431a8.188 8.188 0 00-2.393-.047 5.81 5.81 0 01-.798 4.715l-3.143-3.143c-.305.234-.61.445-.892.75a7.08 7.08 0 00-.75.915l3.143 3.143a5.915 5.915 0 01-4.645.775 8.346 8.346 0 00.047 2.416 8.278 8.278 0 006.264-1.525l1.806 1.806c-1.36 1.854-1.9 4.153-1.501 6.334.797.14 1.595.14 2.416.047z" fill="#A1D1FD"/><path class="p-FF620B" d="M37.612 37.682c.305-.28.516-.586.75-.89l-3.143-3.144a5.866 5.866 0 014.715-.75 8.654 8.654 0 00-.047-2.464 8.355 8.355 0 00-6.357 1.525l-1.806-1.806c1.079-1.455 1.665-3.167 1.665-4.903 0-.47-.047-.962-.14-1.431a8.188 8.188 0 00-2.393-.047 5.81 5.81 0 01-.798 4.715l-3.143-3.143c-.305.234-.61.445-.892.75l11.589 11.588z" fill="#58ADE5"/><path class="p-53433F" d="M14.153 37.69h7.865v2.345h-7.865V37.69z" fill="#4D98CB"/><path class="p-A8D3D8" d="M19.868 8.18l-.633 3.706h-3.91v-3.52H12.98v3.52H9.07l-.633-3.707-1.3.375 2.51 15.06h9.009l2.51-15.06-1.3-.375zM12.98 21.268h-2.36l-.376-2.346h2.736v2.346zm0-4.692H9.845l-.399-2.346h3.534v2.346zm4.706 4.692h-2.36v-2.346h2.735l-.375 2.346zm.774-4.692h-3.134v-2.346h3.533l-.399 2.346z" fill="#58ADE5"/><path class="p-8EBAC5" d="M19.868 8.18l-.633 3.706h-3.909v-3.52h-1.173v15.249h4.504l2.51-15.06-1.299-.376zm-2.181 13.089h-2.36v-2.346h2.735l-.375 2.346zm.774-4.692h-3.135v-2.346h3.534l-.4 2.346z" fill="#4D98CB"/><path class="p-FF620B" d="M4.77 8.194h18.844V9.54H4.77V8.194z" fill="#5FBEFF"/><path class="p-DD3400" d="M14.153 8.194h9.462V9.54h-9.462V8.194z" fill="#65B3E7"/></svg>