<svg width="24" height="32" fill="none" xmlns="http://www.w3.org/2000/svg"><path class="p-E57E25" d="M2.112 13.516a.528.528 0 00.528-.528v-1.584a6.345 6.345 0 016.337-6.337h5.28a6.345 6.345 0 016.338 6.337v1.584a.528.528 0 001.056 0v-1.584a7.402 7.402 0 00-7.393-7.393h-5.28a7.402 7.402 0 00-7.394 7.393v1.584c0 .292.236.528.528.528z" fill="#76B7E2"/><path class="p-F18D46" d="M11.618 5.067l4.54-.842a2.112 2.112 0 000-4.225c-2.412 0-4.941 4.161-5.012 4.303a.528.528 0 00.472.764zm4.54-4.01a1.056 1.056 0 010 2.112l-3.614.842c.619-.926 2.51-2.955 3.613-2.955z" fill="#76B7E2"/><path class="p-F1995B" d="M7.079 4.225l4.538.842a.528.528 0 00.473-.764C12.02 4.16 9.49 0 7.079 0a2.112 2.112 0 000 4.225zm3.615-.214l-3.615-.842a1.056 1.056 0 110-2.113c1.107 0 2.997 2.03 3.615 2.955z" fill="#76B7E2"/><path class="p-F18D46" d="M16.157 9.292a.528.528 0 000-1.057c-2.168 0-4.017-3.786-4.027-3.824a.528.528 0 10-1.025.256c.048.189 2.034 4.625 5.052 4.625z" fill="#76B7E2"/><path class="p-F18D46" d="M7.079 9.291c3.018 0 5.004-4.436 5.05-4.624a.528.528 0 00-1.024-.257c-.01.038-1.831 3.825-4.026 3.825a.528.528 0 100 1.056z" fill="#76B7E2"/><path class="p-F0C419" d="M22.181 12.989H1.057c-.583 0-1.056.472-1.056 1.056v6.337a11.619 11.619 0 0023.236 0v-6.337c0-.584-.472-1.056-1.056-1.056z" fill="#5FBEFF"/><path class="p-C03A2B" d="M11.619 19.526l-.09-.093a2.076 2.076 0 00-2.99 0 2.22 2.22 0 000 3.074l.096.098 2.894 2.976c.027.03.057.058.09.082a.602.602 0 00.09-.082l2.894-2.976.095-.098a2.22 2.22 0 000-3.074 2.075 2.075 0 00-2.99 0l-.09.093z" fill="#4D98CB"/><path class="p-F3D55B" d="M0 14.045v6.337A11.619 11.619 0 0011.618 32v-6.337a.6.6 0 01-.09-.08l-2.894-2.978-.095-.1a2.22 2.22 0 010-3.074 2.08 2.08 0 012.99 0l.09.095V12.99H1.055A1.06 1.06 0 000 14.044z" fill="#B9DFFC"/><path class="p-E64C3C" d="M8.54 22.505l.094.1 2.894 2.979c.028.029.058.056.09.079v-6.137l-.09-.095a2.079 2.079 0 00-2.989 0 2.22 2.22 0 000 3.074z" fill="#5FBEFF"/><path class="p-E57E25" d="M21.123 16.157a.528.528 0 00.528-.528V15.1a.528.528 0 00-.528-.528h-.528a.528.528 0 100 1.056c0 .292.237.528.528.528zM4.753 15.629h1.056a.528.528 0 000-1.056H4.753a.528.528 0 100 1.056zm3.169 0h1.056a.528.528 0 000-1.056H7.922a.528.528 0 100 1.056zm3.168 0h1.056a.528.528 0 000-1.056H11.09a.528.528 0 100 1.056zm3.169 0h1.056a.528.528 0 000-1.056h-1.056a.528.528 0 100 1.056zm3.168 0h1.056a.528.528 0 000-1.056h-1.056a.528.528 0 100 1.056zM2.113 16.157a.528.528 0 00.528-.528.528.528 0 000-1.056h-.528a.528.528 0 00-.528.528v.528c0 .292.236.528.528.528zM12.642 30.36c.019 0 .038 0 .057-.002a9.942 9.942 0 001.078-.176.529.529 0 10-.227-1.031c-.318.07-.64.122-.964.157a.528.528 0 00.056 1.053zm-2.065-.001a.528.528 0 00.056-1.053 8.93 8.93 0 01-.964-.16.528.528 0 10-.229 1.031c.356.08.716.139 1.078.179l.059.003zm5.044-.828a.524.524 0 00.223-.05c.33-.154.653-.326.964-.515a.528.528 0 10-.548-.902c-.279.169-.567.323-.862.46a.528.528 0 00.223 1.007zM7.6 29.523a.528.528 0 00.224-1.006 8.963 8.963 0 01-.861-.462.528.528 0 00-.55.902c.311.19.633.361.963.516.07.033.146.05.224.05zm10.576-1.737a.525.525 0 00.364-.146c.264-.251.513-.516.748-.794a.528.528 0 00-.806-.682c-.211.25-.435.487-.671.712a.529.529 0 00.365.91zm-13.126-.012a.528.528 0 00.365-.91 9.124 9.124 0 01-.668-.713.528.528 0 00-.808.68c.234.279.483.545.746.797.098.094.23.146.365.146zm14.989-2.455a.528.528 0 00.468-.282c.17-.323.321-.654.455-.993a.528.528 0 10-.983-.387c-.12.303-.255.6-.407.888a.528.528 0 00.467.774zm-16.847-.016a.528.528 0 00.467-.773 8.986 8.986 0 01-.405-.89.528.528 0 00-.984.385c.133.34.284.671.453.994a.528.528 0 00.469.284zm17.82-2.919c.26 0 .48-.19.521-.446.057-.36.093-.723.11-1.088a.528.528 0 00-.504-.551.541.541 0 00-.552.504c-.014.325-.047.65-.097.971a.53.53 0 00.522.61zm-18.788-.02a.528.528 0 00.523-.608 9.076 9.076 0 01-.096-.973.543.543 0 00-.551-.504.528.528 0 00-.504.551c.016.364.052.727.107 1.086.04.258.26.448.521.448zm18.901-3.08a.528.528 0 00.528-.529V17.72a.528.528 0 10-1.056 0v1.035c0 .292.237.528.528.528zm-19.011-.02a.528.528 0 00.528-.529V17.7a.528.528 0 10-1.056 0v1.036c0 .291.236.527.528.527z" fill="#4D98CB"/></svg>