<svg width="26" height="34" fill="none" xmlns="http://www.w3.org/2000/svg"><path class="p-663325" d="M19.922 9.031H17.93c0-3.147-2.112-5.883-4.98-6.74a6.61 6.61 0 00-1.993-.299c-3.845 0-6.973 3.194-6.973 7.04H1.992C1.992 4.09 6.016 0 10.957 0c.677 0 1.355.08 1.992.24 3.985.896 6.973 4.528 6.973 8.791z" fill="#58ADE5"/><path class="p-8C4A37" d="M23.906 9.031h-1.992c0-3.845-3.128-7.039-6.973-7.039-.697 0-1.354.1-1.992.299-2.868.857-4.98 3.593-4.98 6.74H5.977c0-4.263 2.988-7.895 6.972-8.792A8.26 8.26 0 0114.941 0c4.941 0 8.965 4.09 8.965 9.031z" fill="#B9DFFC"/><path class="p-3C1B13" d="M19.922 9.031H17.93c0-3.148-2.112-5.884-4.98-6.74V.239c3.984.896 6.972 4.529 6.972 8.792z" fill="#4D98CB"/><path class="p-663325" d="M23.906 9.031h-1.992c0-3.845-3.128-7.039-6.973-7.039-.697 0-1.354.1-1.992.299V.239A8.26 8.26 0 0114.941 0c4.941 0 8.965 4.09 8.965 9.031z" fill="#65B3E7"/><path class="p-FF6498" d="M0 8.035V34h25.898V8.035H0z" fill="#58ADE5"/><path class="p-FF3980" d="M25.898 8.035H12.95V34H25.9V8.035z" fill="#4D98CB"/><path class="p-FDBF00" d="M21.914 11.64V22.36l-5.977-2.37-2.57-2.91-.418.36-2.988 2.55-5.977 2.37V11.64l5.977 2.37 2.988 1.535.917.458 2.072-1.992 5.976-2.371z" fill="#B9DFFC"/><path class="p-FF9100" d="M15.938 14.012l5.976-2.371v10.718l-5.977-2.37-2.57-2.91-.418.36v-1.893l.917.458 2.072-1.992z" fill="#76B7E2"/><path class="p-FED966" d="M9.96 14.012v5.976h5.977v-5.976H9.962z" fill="#A1D1FD"/><path class="p-FDBF00" d="M15.938 14.012h-2.989v5.976h2.989v-5.976z" fill="#65B3E7"/></svg>