<svg width="35" height="34" fill="none" xmlns="http://www.w3.org/2000/svg"><path class="p-0B799D" d="M0 0v9.94h7.17L5.806 0H0z" fill="#5FBEFF"/><path class="p-07485E" d="M29.14 0l-1.367 9.94h7.171V0h-5.805z" fill="#4D98CB"/><path class="p-FFA7B3" d="M16.106 1.366L17.472 34h3.797c.283-4.32 4.016-5.56 7.871-7.07V0h-6.527l-6.507 1.366z" fill="#76B7E2"/><path class="p-FFDECF" d="M5.805 0v26.93c3.855 1.51 7.588 2.75 7.871 7.07h3.796V1.366L12.332 0H5.804z" fill="#A1D1FD"/><path class="p-07485E" d="M17.473 6.53c2.84 0 5.14-2.302 5.14-5.141V0h-5.14l-1.367 2.747 1.367 3.783z" fill="#4D98CB"/><path class="p-0B799D" d="M12.331 0v1.389a5.141 5.141 0 005.141 5.141V0h-5.14z" fill="#58ADE5"/><path class="p-FF415B" d="M17.473 16.178l-1.367 3.109 1.366 5.503a6.592 6.592 0 006.593-6.592v-2.02h-6.593z" fill="#A1D1FD"/><path class="p-FF8E8E" d="M10.88 16.178v2.02a6.592 6.592 0 006.593 6.592v-8.612H10.88z" fill="#B9DFFC"/></svg>