<svg width="26" height="33" fill="none" xmlns="http://www.w3.org/2000/svg"><path class="p-FFB64C" d="M25.137 29.133V33H13.535v-3.867l1.934-1.934h7.734l1.934 1.934z" fill="#AFD9F6"/><path class="p-FF9100" d="M25.138 29.133V33h-5.801v-5.8h3.867l1.934 1.933z" fill="#76B7E2"/><path class="p-FFD396" d="M25.137 15.469H13.535v13.664h11.602V15.469z" fill="#58ADE5"/><path class="p-FFB64C" d="M25.138 15.469h-5.801v13.664h5.8V15.469z" fill="#4D98CB"/><path class="p-F23055" d="M9.667 4.834H1.933v7.735h7.734V4.834z" fill="#5FBEFF"/><path class="p-AE2538" d="M9.668 4.834H5.801v7.735h3.867V4.834z" fill="#4D98CB"/><path class="p-FFB64C" d="M.967 11.602l-.838 5.8h11.344l-.838-5.8H.967z" fill="#AFD9F6"/><path class="p-FFB64C" d="M19.336 22.86l-1.373 1.373 1.373 1.373 1.373-1.373-1.373-1.373z" fill="#5FBEFF"/><path class="p-FF9100" d="M10.635 11.602H5.8v5.8h5.672l-.838-5.8z" fill="#76B7E2"/><path class="p-FF5093" d="M5.8 0C3.673 0 1.933 2.166 1.933 4.834c0 2.668 1.74 4.834 3.867 4.834s3.867-2.166 3.867-4.834C9.667 2.166 7.927 0 5.8 0z" fill="#A1D1FD"/><path class="p-F23055" d="M5.8 9.668V0c2.128 0 3.868 2.166 3.868 4.834 0 2.668-1.74 4.834-3.867 4.834z" fill="#B9DFFC"/><path class="p-FFB64C" d="M11.602 29.133V33H0v-3.867l1.934-1.934h7.734l1.934 1.934z" fill="#AFD9F6"/><path class="p-FF9100" d="M11.602 29.133V33H5.8v-5.8h3.867l1.934 1.933z" fill="#76B7E2"/><path class="p-FFD396" d="M11.602 15.469H0v13.664h11.602V15.469z" fill="#58ADE5"/><path class="p-FFB64C" d="M11.602 15.469H5.8v13.664h5.8V15.469z" fill="#4D98CB"/><path class="p-FF9100" d="M20.71 24.234l-1.373 1.373v-2.746l1.373 1.373z" fill="#76B7E2"/></svg>