<svg width="31" height="23" fill="none" xmlns="http://www.w3.org/2000/svg"><path class="p-FF637B" d="M29.87 14.556c-1.012-1.954-3.35-2.844-5.46-2.06-.332.123-.774.245-1.088.332l-.872 1.414-.873-.855c-.593.157-1.169.296-1.744.418l-.873 1.483-.872-1.186c-.593.07-1.169.122-1.745.14l-.872 1.343-.873-1.344a20.055 20.055 0 01-1.744-.14l-.872 1.187-.873-1.483a35.933 35.933 0 01-1.745-.418l-.872.854-.872-1.413c-.314-.087-.739-.209-1.07-.331-2.111-.785-4.45.104-5.461 2.059a4.423 4.423 0 00-.192 3.611c.454 1.134 1.343 2.024 2.46 2.443C7.597 22.197 11.72 23 15.47 23c3.75 0 7.892-.803 12.131-2.39 1.117-.419 2.006-1.309 2.46-2.443a4.422 4.422 0 00-.192-3.611z" fill="#5FBEFF"/><path class="p-E63950" d="M29.87 14.556a4.423 4.423 0 01.192 3.611c-.454 1.134-1.343 2.024-2.46 2.443-4.24 1.587-8.38 2.39-12.131 2.39v-7.415l.872-1.344c.576-.017 1.151-.07 1.745-.14l.872 1.187.872-1.483a35.92 35.92 0 001.745-.418l.872.854.873-1.413c.314-.087.756-.209 1.087-.331 2.111-.785 4.45.104 5.461 2.059z" fill="#65B3E7"/><path class="p-FF637B" d="M29.87 2.343C28.858.39 26.52-.5 24.41.284c-.332.123-.774.245-1.088.332l-.872 1.797-.873-1.239a36.09 36.09 0 01-1.745.419l-.872 1.483-.872-1.187c-.594.07-1.17.123-1.745.14l-.872 1.448-.873-1.448a20.071 20.071 0 01-1.744-.14l-.873 1.187-.872-1.483a36.006 36.006 0 01-1.745-.419l-.872 1.239L7.62.616C7.306.529 6.87.406 6.538.284 4.427-.5 2.089.39 1.078 2.344a4.423 4.423 0 00-.193 3.61C1.34 7.09 2.23 7.98 3.345 8.398c4.24 1.588 8.375 2.39 12.126 2.39 3.75 0 7.892-.802 12.131-2.39 1.117-.418 2.006-1.308 2.46-2.442a4.422 4.422 0 00-.192-3.612z" fill="#5FBEFF"/><path class="p-E63950" d="M27.602 8.397c-4.24 1.588-8.38 2.39-12.131 2.39v-7.31l.872-1.448c.576-.017 1.151-.07 1.745-.14l.872 1.187.872-1.483a36.019 36.019 0 001.745-.419l.872 1.239.873-1.797c.314-.087.756-.21 1.087-.332C26.52-.5 28.86.39 29.87 2.344a4.423 4.423 0 01.192 3.61c-.454 1.135-1.343 2.025-2.46 2.443z" fill="#65B3E7"/><path class="p-E63950" d="M16.343 2.03v3.524a.872.872 0 11-1.744 0V2.029c.296.035.575.035.872.035.296 0 .576 0 .872-.035z" fill="#A1D1FD"/><path class="p-AE2538" d="M16.343 2.03v3.524c0 .481-.39.872-.872.872V2.064c.296 0 .576 0 .872-.035z" fill="#4D98CB"/><path class="p-E63950" d="M16.343 14.242v3.524a.872.872 0 11-1.744 0v-3.524c.296.035.575.035.872.035.296 0 .576 0 .872-.035z" fill="#A1D1FD"/><path class="p-AE2538" d="M19.833 1.593v3.733a.872.872 0 01-1.745 0V1.89c.558-.07 1.151-.174 1.745-.296z" fill="#4D98CB"/><path class="p-E63950" d="M12.853 1.89v3.436a.872.872 0 01-1.745 0V1.593a22.79 22.79 0 001.745.296zM9.365 1.174v3.507a.872.872 0 01-1.745 0V.616c.593.21 1.169.401 1.745.558z" fill="#A1D1FD"/><path class="p-AE2538" d="M19.833 13.805v3.734a.872.872 0 01-1.745 0v-3.437c.558-.07 1.151-.175 1.745-.297z" fill="#4D98CB"/><path class="p-E63950" d="M12.853 14.102v3.437a.872.872 0 01-1.745 0v-3.734a22.84 22.84 0 001.745.297zM9.365 13.387v3.507a.872.872 0 01-1.745 0v-4.065c.593.21 1.169.401 1.745.558z" fill="#A1D1FD"/><path class="p-AE2538" d="M23.322 12.829v4.065a.872.872 0 11-1.745 0v-3.507a25.189 25.189 0 001.745-.558zM23.322.616v4.065a.872.872 0 11-1.745 0V1.174a25.173 25.173 0 001.745-.558zM15.47 14.277c.297 0 .577 0 .873-.035v3.524c0 .482-.39.873-.872.873v-4.362z" fill="#4D98CB"/></svg>