<svg width="38" height="38" fill="none" xmlns="http://www.w3.org/2000/svg"><path class="p-FF637B" d="M38 31.231c0 3.696-2.984 6.724-6.68 6.769l-1.202-1.18H8.906L6.702 38C3.006 37.955 0 34.927 0 31.231c0-2.315.423-4.564 1.291-6.68l2.873-7.214h29.672l2.873 7.215c.868 2.115 1.291 4.364 1.291 6.68z" fill="#5FBEFF"/><path class="p-E63950" d="M38 31.231c0 3.696-2.984 6.724-6.68 6.769l-1.202-1.18H19V17.337h14.836l2.873 7.215c.868 2.115 1.291 4.364 1.291 6.68z" fill="#76B7E2"/><path class="p-7E5436" d="M31.32 32.968V38H6.68v-5.032c0-3.518 2.011-6.658 5.15-8.216 2.316-1.158 5.315-3.585 5.315-6.212v-1.203h3.71v1.203c0 2.627 2.999 5.054 5.314 6.212 3.14 1.559 5.151 4.698 5.151 8.216z" fill="#58ADE5"/><path class="p-64422A" d="M31.32 32.968V38H19V17.337l1.855.03v1.173c0 2.627 2.999 5.054 5.314 6.212 3.14 1.559 5.151 4.698 5.151 8.216z" fill="#4D98CB"/><path class="p-7E5436" d="M28.945 10.02v6.828h-4.32l.016-6.828c0-2.405-1.782-5.715-5.715-5.715-4.156 0-5.7 3.31-5.7 5.715l-.015 6.828H8.906V10.02C8.906 4.498 13.404 0 18.926 0c5.522 0 10.02 4.498 10.02 10.02z" fill="#58ADE5"/><path class="p-FFDA2D" d="M13.434 29.094h11.132v2.226H13.434v-2.226z" fill="#AFD9F6"/><path class="p-FDBF00" d="M19 29.094h5.566v2.226H19v-2.226z" fill="#65B3E7"/><path class="p-64422A" d="M28.945 10.02v6.828l-4.304-.223V9.797c0-2.405-1.856-5.478-5.715-5.478V0c5.522 0 10.02 4.498 10.02 10.02z" fill="#4D98CB"/><path class="p-FFDA2D" d="M2.227 15.957h33.546v2.004H2.227v-2.004z" fill="#AFD9F6"/><path class="p-FDBF00" d="M19 15.957h16.773v2.004H19v-2.004z" fill="#65B3E7"/></svg>