<svg width="35" height="32" viewBox="0 0 35 32" fill="none" xmlns="http://www.w3.org/2000/svg">
<path class="p-EFE2DD" d="M28.1255 9.17279H6.23633C7.68027 4.6527 11.9073 0 17.1809 0C22.4545 0 26.6816 4.6527 28.1255 9.17279Z" fill="#B9DFFC"/>
<path class="p-CDBFBA" d="M28.1252 9.17279H17.1807V0C22.4543 0 26.6813 4.6527 28.1252 9.17279Z" fill="#A1D1FD"/>
<path class="p-FF9100" d="M34.3617 31.9999H0L2.05088 29.97C3.03444 28.9656 3.57853 27.6681 3.57853 26.266V23.4757C3.57853 19.981 4.01806 16.4863 4.85506 13.0752L5.71312 9.70605H28.6487L29.5068 13.0752C30.3438 16.4863 30.7833 19.9811 30.7833 23.4757V26.266C30.7833 27.668 31.3274 28.9655 32.3109 29.97L34.3617 31.9999Z" fill="#A1D1FD"/>
<path class="p-FF641A" d="M34.3615 31.9999H17.1807V9.70605H28.6484L29.5065 13.0752C30.3435 16.4863 30.783 19.9811 30.783 23.4757V26.266C30.783 27.668 31.3271 28.9655 32.3106 29.97L34.3615 31.9999Z" fill="#4D98CB"/>
<path class="p-FFD396" d="M3.5791 6.58301V11.0036H30.7838V6.58301H3.5791Z" fill="#76B7E2"/>
<path class="p-FFB64C" d="M30.783 6.58301H17.1807V11.0036H30.783V6.58301Z" fill="#65B3E7"/>
<path class="p-FFF5F5" d="M7.76465 15.189V25.7221H26.5987V15.189H7.76465Z" fill="#B9DFFC"/>
<path class="p-EFE2DD" d="M26.5977 15.189H17.1807V25.7221H26.5977V15.189Z" fill="#A1D1FD"/>
<path class="p-FF9100" d="M22.4135 20.303H11.9502V21.4669H22.4135V20.303Z" fill="#58ADE5"/>
<path class="p-FF641A" d="M22.4123 20.303H17.1807V21.4669H22.4123V20.303Z" fill="#4D98CB"/>
</svg>
