<svg width="35" height="22" fill="none" xmlns="http://www.w3.org/2000/svg"><path class="p-FF648D" d="M30.598 12.914c-4.724-1.05-9.16-3.149-12.219-5.848a23.948 23.948 0 01-1.939-1.959l-2.587-3.161c-.258-.34-.5-.666-.723-.968A2.392 2.392 0 009.788.463l-6.92 5.074a5.094 5.094 0 00-2.08 4.115l.01 7.126 7.343 3.177h14.903L33 16.778s1.336-3.033-2.402-3.864z" fill="#65B3E7"/><path class="p-FD387E" d="M30.598 12.914c-4.724-1.05-9.159-3.15-12.218-5.848a21.091 21.091 0 01-1.357-1.326v14.215h6.022L33 16.778s1.336-3.033-2.402-3.864z" fill="#58ADE5"/><path class="p-EBECEC" d="M22.447 9.881a25.092 25.092 0 01-1.898-1.152l-1.63 2.602a1.11 1.11 0 101.881 1.178l1.647-2.628zM16.425 11.133a1.11 1.11 0 001.527-.364l1.663-2.7a19.777 19.777 0 01-1.235-1.003c-.16-.14-.32-.288-.482-.443L16.06 9.605a1.11 1.11 0 00.364 1.528zM25.582 11.361a29.775 29.775 0 01-2.047-.913l-1.62 2.601a1.11 1.11 0 001.884 1.174l1.783-2.862z" fill="#4D98CB"/><path class="p-EBECEC" d="M11.773 18.38l-7.494-4.11a3.596 3.596 0 01-1.637-3.022c0-1.468 1.772-2.778 3.13-3.336l4.087-1.71.857 2.048L6.62 9.964c-.523.215-1.757.719-1.757 1.284 0 .467.232.9.622 1.157l7.463 4.092-1.174 1.884z" fill="#B9DFFC"/><path class="p-C7EAF0" d="M34.044 18.531c0 .83-.517 1.57-1.296 1.856A26.35 26.35 0 0123.671 22H3.133a3.133 3.133 0 010-6.266H9.18c2.053 0 4.1.23 6.103.685l1.635.372c3.006.683 6.105.85 9.167.495l4.474-.52c.392-.045.78-.115 1.17-.183a1.977 1.977 0 012.314 1.948z" fill="#FD387E"/><path class="p-C7EAF0" d="M34.044 18.531c0 .83-.517 1.57-1.296 1.856A26.35 26.35 0 0123.671 22H3.133a3.133 3.133 0 010-6.266H9.18c2.053 0 4.1.23 6.103.685l1.635.372c3.006.683 6.105.85 9.167.495l4.474-.52c.392-.045.78-.115 1.17-.183a1.977 1.977 0 012.314 1.948z" fill="#B9DFFC"/><path class="p-BB2A5C" d="M9.892 9.587l5.557-3.801a2.035 2.035 0 10-2.298-3.36l-5.557 3.8 2.298 3.36z" fill="#4D98CB"/><path class="p-88DEE0" d="M32.626 16.582c-.389.069-1.674.138-2.066.184l-4.474.52c-3.026.35-6.09.19-9.063-.473V22h6.648c3.097 0 6.17-.546 9.078-1.613a1.977 1.977 0 001.295-1.856c0-1.251-.238-2.157-1.418-1.949z" fill="#A1D1FD"/></svg>