<svg width="24" height="34" fill="none" xmlns="http://www.w3.org/2000/svg"><path class="p-7FEFEF" d="M21.006 4.49l-2.374 2.373-.829-.83 2.43-2.43a11.743 11.743 0 00-16.928 0l2.43 2.43-.828.83L2.533 4.49A11.709 11.709 0 000 11.77v4.663a19.879 19.879 0 002.697 9.984l2.21-2.21.83.828-2.404 2.404a19.877 19.877 0 006.02 5.868 4.56 4.56 0 004.833 0 19.875 19.875 0 006.025-5.867l-2.404-2.404.83-.829 2.21 2.21a19.88 19.88 0 002.696-9.983v-4.665c0-2.643-.894-5.209-2.537-7.28zm-7.154 16.672l.524 1.05a5.863 5.863 0 01-5.214 0l.524-1.05a4.678 4.678 0 004.166 0zm-10.876-5.92c0-1.62 1.575-2.932 3.517-2.932 1.943 0 3.518 1.313 3.518 2.931 0 1.619-1.575 2.931-3.518 2.931-1.942 0-3.517-1.312-3.517-2.93zm9.966 14.068h-2.345a1.759 1.759 0 010-3.517h2.345a1.759 1.759 0 010 3.517zm4.103-11.138c-1.943 0-3.517-1.312-3.517-2.93 0-1.62 1.574-2.932 3.517-2.932 1.943 0 3.517 1.313 3.517 2.931 0 1.619-1.574 2.931-3.517 2.931z" fill="#65B3E7"/><path class="p-6ACCCA" d="M21.006 4.49l-2.374 2.373-.829-.83 2.43-2.43A11.723 11.723 0 0011.77 0l2.165 2.332a20.408 20.408 0 015.172 10.538 2.81 2.81 0 011.456 2.371 2.75 2.75 0 01-1.217 2.214 20.41 20.41 0 01-3.254 9.895L11.77 34a4.56 4.56 0 002.416-.693 19.875 19.875 0 006.025-5.867l-2.404-2.404.83-.829 2.21 2.21a19.878 19.878 0 002.697-9.983v-4.665c0-2.643-.895-5.209-2.538-7.28z" fill="#65B3E7"/></svg>