<svg width="34" height="34" fill="none" xmlns="http://www.w3.org/2000/svg"><path class="p-F30051" d="M16.68 29.816H9.793c-1.281 0-2.386-.78-2.816-1.986a2.957 2.957 0 01.928-3.319l2.832-2.307 1.258 1.545-2.831 2.307c-.506.412-.365.95-.31 1.106.056.155.287.662.939.662h6.885v1.992z" fill="#4D98CB"/><path class="p-D20041" d="M11.366 27.824h5.313v1.992h-5.313v-1.992z" fill="#4D98CB"/><path class="p-FF0059" d="M10.37 22.977h1.992V34H10.37V22.977z" fill="#5FBEFF"/><path class="p-F30051" d="M11.366 22.977h.996V34h-.996V22.977z" fill="#4D98CB"/><path class="p-FF0059" d="M33.081 7.902H31.09v-.93a.997.997 0 00-.996-.995H28.3V3.984h1.793a2.992 2.992 0 012.988 2.989v.93z" fill="#4D98CB"/><path class="p-FF3980" d="M5.722 22.047H0v-.996c0-2.746 2.234-3.143 4.98-3.143h1.66l-.918 4.139z" fill="#4D98CB"/><path class="p-FF0059" d="M18.814 21.98h-1.803v-5.057h3.641c.916 0 1.66-1.664 1.66-2.58V7.638h4.14v6.707c0 4.21-3.427 7.636-7.638 7.636z" fill="#4D98CB"/><path class="p-FF5CA8" d="M16.015 23.973H6.718a2.992 2.992 0 01-2.989-2.989v-2.656c0-4.21 3.426-7.637 7.637-7.637 4.211 0 7.637 3.426 7.637 7.637v2.656a2.992 2.992 0 01-2.988 2.989z" fill="#5FBEFF"/><path class="p-FF3980" d="M11.366 10.691v13.282h4.649a2.992 2.992 0 002.988-2.989v-2.656c0-4.21-3.426-7.637-7.637-7.637z" fill="#58ADE5"/><path class="p-FF7CB9" d="M11.366 23.973l-5.49.919.919-3.653c0-2.014 2.557-4.571 4.571-4.571a3.656 3.656 0 013.652 3.652 3.656 3.656 0 01-3.652 3.653z" fill="#A1D1FD"/><path class="p-FF3980" d="M24.315 9.96a4.986 4.986 0 01-4.98-4.98A4.986 4.986 0 0124.315 0a4.986 4.986 0 014.98 4.98 4.986 4.986 0 01-4.98 4.98z" fill="#58ADE5"/><path class="p-FF5CA8" d="M15.019 20.32a3.656 3.656 0 00-3.653-3.652v7.305a3.656 3.656 0 003.653-3.653z" fill="#5FBEFF"/></svg>