<svg width="35" height="35" fill="none" xmlns="http://www.w3.org/2000/svg"><path class="p-2FC0F0" d="M18.85 1.11v13.419a5.318 5.318 0 01-1.299 3.48l-2.705 3.121c-1.817 2.097-2.94 3.4-3.666 4.236-1.243 1.428-1.33 1.49-1.755 1.805a5.907 5.907 0 01-7.981-8.614l4.772-5.506c.529-.61.82-1.39.82-2.198V1.11C7.036.497 7.532 0 8.145 0h9.596c.612 0 1.11.497 1.11 1.11z" fill="#58ADE5"/><path class="p-0FA9DD" d="M18.85 1.11v13.419a5.318 5.318 0 01-1.299 3.48l-2.705 3.121c-1.817 2.097-2.94 3.4-3.666 4.236V0h6.56c.612 0 1.11.497 1.11 1.11z" fill="#4D98CB"/><path class="p-FF8E8E" d="M18.85 1.11v3.926H7.035V1.11C7.035.497 7.532 0 8.145 0h9.595c.613 0 1.11.497 1.11 1.11z" fill="#5FBEFF"/><path class="p-FF6C6C" d="M11.18 0h3.525v5.037H11.18V0z" fill="#A1D1FD"/><path class="p-BEEBFA" d="M18.85 9.917v4.612a5.316 5.316 0 01-1.298 3.48l-2.705 3.12C11.096 17.186 13.42 10.59 18.85 9.918z" fill="#B9DFFC"/><path class="p-2FC0F0" d="M34.78 7.777v13.419a5.311 5.311 0 01-1.298 3.48l-2.705 3.12-3.667 4.188c-.884 1.02-1.117 1.38-1.754 1.855a5.908 5.908 0 01-7.982-8.615l4.773-5.505c.528-.61.819-1.391.819-2.199V7.777c0-.613.497-1.11 1.11-1.11h9.595c.613 0 1.11.497 1.11 1.11z" fill="#58ADE5"/><path class="p-0FA9DD" d="M34.78 7.777v13.419a5.311 5.311 0 01-1.299 3.48l-2.705 3.12-3.666 4.188V6.668h6.561c.613 0 1.11.496 1.11 1.109z" fill="#4D98CB"/><path class="p-FF8E8E" d="M34.78 7.777v3.926H22.966V7.777c0-.613.496-1.11 1.11-1.11h9.595c.613 0 1.11.497 1.11 1.11z" fill="#5FBEFF"/><path class="p-FF6C6C" d="M27.11 6.668h3.526v5.036H27.11V6.668z" fill="#A1D1FD"/><path class="p-BEEBFA" d="M34.78 16.584v4.612a5.316 5.316 0 01-1.298 3.48l-2.705 3.121c-3.75-3.945-1.426-10.54 4.004-11.213z" fill="#B9DFFC"/></svg>