<svg width="32" height="34" fill="none" xmlns="http://www.w3.org/2000/svg"><path class="p-088690" d="M27.186 33.685c.542-.173.84-.754.667-1.297L23.71 19.452l-1.964.63 2.595 8.1H7.5l2.594-8.1-1.964-.63-3.457 10.793H25l.889 2.773c.173.542.754.841 1.297.667zM18.875 11.214V2.955a2.955 2.955 0 10-5.91 0v8.26a2.955 2.955 0 005.91 0z" fill="#4D98CB"/><path class="p-0BAEBC" d="M15.92 14.17V0a2.955 2.955 0 00-2.955 2.955V14.17h2.955z" fill="#58ADE5"/><path class="p-B5CDDF" d="M19.125 3.25h-6.412a9.216 9.216 0 00-9.216 9.216V15.872a9.216 9.216 0 009.216 9.217h6.412a9.216 9.216 0 009.216-9.217v-3.406a9.216 9.216 0 00-9.216-9.216z" fill="#A1D1FD"/><path class="p-C9E5F9" d="M12.713 3.25a9.216 9.216 0 00-9.216 9.216V15.872a9.216 9.216 0 009.216 9.217h3.206V3.25h-3.206z" fill="#B9DFFC"/><path class="p-088690" d="M30.807 13.138H1.03a1.031 1.031 0 100 2.063h29.776a1.031 1.031 0 000-2.063z" fill="#4D98CB"/><path class="p-0BAEBC" d="M15.92 13.138H1.03a1.031 1.031 0 100 2.063H15.92v-2.063z" fill="#58ADE5"/><path class="p-EE2712" d="M5.845 33.685a3.626 3.626 0 100-7.253 3.626 3.626 0 000 7.253z" fill="#65B3E7"/><path class="p-FF5D3D" d="M5.845 26.432a3.626 3.626 0 100 7.253v-7.253z" fill="#5FBEFF"/><path class="p-B5CDDF" d="M5.845 31.345c-.71 0-1.286-.577-1.286-1.287 0-.709.577-1.286 1.286-1.286.71 0 1.287.577 1.287 1.287 0 .709-.577 1.286-1.287 1.286z" fill="#A1D1FD"/><path class="p-C9E5F9" d="M5.845 28.772c-.71 0-1.286.577-1.286 1.287 0 .709.577 1.286 1.286 1.286v-2.573z" fill="#B9DFFC"/></svg>