<svg width="37" height="30" fill="none" xmlns="http://www.w3.org/2000/svg"><path class="p-EBEBEC" d="M18.5 0h-6.091c-.918 0-1.797.372-2.436 1.03L0 10.894 4.557 15.4l6.416-6.345V30h4.359c1.75 0 3.168-1.403 3.168-3.133 0 1.73 1.419 3.133 3.168 3.133h4.359V7.527A7.527 7.527 0 0018.5 0z" fill="#A1D1FD"/><path class="p-CACACD" d="M27.027 1.03A3.395 3.395 0 0024.591 0H18.5v26.867c0 1.73 1.419 3.133 3.168 3.133h4.359V9.055l6.416 6.345L37 10.893l-9.973-9.862z" fill="#65B3E7"/><path class="p-64DDE0" d="M1.495 9.415l4.557 4.506 1.533-1.516L3.028 7.9 1.495 9.415z" fill="#B9DFFC"/><path class="p-A9A8AE" d="M18.5 0h-3.531l3.53 10.83L22.032 0H18.5z" fill="#58ADE5"/><path class="p-808081" d="M18.5 0v9.84L22.031 0H18.5z" fill="#4D98CB"/><path class="p-A9A8AE" d="M20.99 0h3.124a1 1 0 01.821 1.57L18.5 10.83 20.99 0z" fill="#A1D1FD"/><path class="p-00C2C7" d="M33.972 7.898l-4.557 4.507 1.533 1.516 4.557-4.507-1.533-1.516z" fill="#A1D1FD"/><path class="p-00A5AD" d="M24.269 13.528H22.1v7.358h2.168v-7.358z" fill="#4D98CB"/><path class="p-64DDE0" d="M26.026 12.849H10.973v2.144h15.053v-2.144z" fill="#B9DFFC"/><path class="p-00C2C7" d="M26.027 12.849H18.5v2.144h7.527v-2.144z" fill="#A1D1FD"/><path class="p-CACACD" d="M16.01 0h-3.124a1 1 0 00-.822 1.57l6.436 9.26L16.01 0z" fill="#B9DFFC"/><path class="p-64DDE0" d="M23.185 12.849h-2.168v7.358h2.168v-7.358z" fill="#A1D1FD"/></svg>