<svg width="33" height="38" fill="none" xmlns="http://www.w3.org/2000/svg"><path class="p-596C76" d="M7.629 3.064H4.367v2.174H7.63V3.064z" fill="#58ADE5"/><path class="p-465A61" d="M23.703 11.84l-.25-.45a11.965 11.965 0 00-10.454-6.152h-1.022V3.064H13c5.13 0 9.864 2.786 12.354 7.27l.251.449-1.9 1.057z" fill="#58ADE5"/><path class="p-FFD396" d="M13.064 0H6.541v8.5h6.523V0z" fill="#5FBEFF"/><path class="p-FFB64C" d="M13.064 0H9.803v8.5h3.261V0z" fill="#76B7E2"/><path class="p-FFB64C" d="M15.24 8.302H4.367v4.547H15.24V8.302z" fill="#58ADE5"/><path class="p-FF9100" d="M15.239 8.302H9.803v4.547h5.436V8.302z" fill="#4D98CB"/><path class="p-F2F2FC" d="M19.61 21.09l-3.892 4.175-5.915-.305-5.458-.26L.04 21.35c.196-2.783 1.022-5.696 2.957-9.045l.305-.543h5.414l1.087 2.174 1.088-2.175h5.414l.304.544c1.87 3.24 2.74 6.089 3.001 8.785z" fill="#A1D1FD"/><path class="p-D8D8FC" d="M19.61 21.09l-3.893 4.175-5.914-.304V13.936l1.087-2.174h5.414l.305.543c1.87 3.24 2.74 6.089 3 8.785z" fill="#B9DFFC"/><path class="p-FFD2FE" d="M19.653 23.83c-.152 3.218-1.022 6.538-2.066 10.212-.282 1-.565 2.044-.87 3.153L16.5 38H3.323l-.218-.805c-.347-1.26-.674-2.457-1-3.588C1.127 30.215.28 27.113.061 24.134a19.772 19.772 0 01-.022-2.783c.675-.413 1.37-.761 2.131-1a9.297 9.297 0 016.545.391l1.088 4.066 1.087-2.783a7.088 7.088 0 004.827 1.065c1.479-.239 2.805-.935 3.892-2 .087.935.087 1.826.044 2.74z" fill="#5FBEFF"/><path class="p-FFB6FA" d="M19.653 23.83c-.152 3.218-1.022 6.538-2.066 10.212-.282 1-.565 2.044-.87 3.153L16.5 38H9.803V24.808l1.087-2.783a7.089 7.089 0 004.827 1.065c1.479-.239 2.805-.935 3.893-2 .086.935.086 1.826.043 2.74z" fill="#65B3E7"/><path class="p-D8D8FC" d="M10.89 11.762v10.263L9.823 23.57l-.022-.065-1.087-2.762v-8.98h2.174z" fill="#5FBEFF"/><path class="p-A3A3D1" d="M10.89 11.762v10.263L9.824 23.57l-.021-.065V11.762h1.087z" fill="#76B7E2"/><path class="p-FFB6FA" d="M10.89 22.025v11.626H8.714V20.742c.37.174.74.37 1.087.587.217.13.435.283.652.435.13.109.283.174.435.261z" fill="#58ADE5"/><path class="p-FF9AC9" d="M10.89 22.025V33.65H9.803V21.33c.217.13.435.283.652.435.13.109.283.174.435.26zM22.272 18.408c-1.52-3.26-.547-6.943 2.169-8.21 2.924-1.36 6.265.573 7.684 3.615 1.52 3.26.547 6.943-2.17 8.21-2.92 1.358-6.262-.569-7.683-3.615z" fill="#4D98CB"/></svg>