<svg width="32" height="26" fill="none" xmlns="http://www.w3.org/2000/svg"><path class="p-B35F49" d="M31.833 22.624v1.51H19.647A4.7 4.7 0 0115.917 26a4.7 4.7 0 01-3.731-1.865H0v-1.437l1.94-2.63 13.976-3.506 14.63 3.712 1.287 2.35z" fill="#58ADE5"/><path class="p-99503D" d="M31.832 22.624v1.51H19.646A4.7 4.7 0 0115.916 26v-9.438l14.63 3.712 1.286 2.35z" fill="#4D98CB"/><path class="p-FED2A4" d="M31.833 2.107v20.517l-.523-.261c-4.793-2.387-10.544-2.462-15.394-.205-5.11-2.369-11.048-2.09-15.916.54V2.108l.522-.261C5.316-.542 11.067-.616 15.916 1.64c4.85-2.257 10.6-2.183 15.394.205l.523.26z" fill="#5FBEFF"/><path class="p-FFBD86" d="M31.832 2.107v20.517l-.522-.261c-4.793-2.387-10.544-2.462-15.394-.205V1.64c4.85-2.257 10.6-2.183 15.394.205l.522.26z" fill="#65B3E7"/><path class="p-F6A96C" d="M11.978 5.986a16.129 16.129 0 00-7.106 0l-.417-1.818c2.578-.59 5.363-.59 7.94 0l-.417 1.818z" fill="#B9DFFC"/><path class="p-EA9B58" d="M26.96 5.986a16.129 16.129 0 00-7.105 0l-.418-1.818c2.578-.59 5.363-.59 7.94 0l-.417 1.818z" fill="#A1D1FD"/><path class="p-F6A96C" d="M11.978 9.716a16.129 16.129 0 00-7.106 0l-.417-1.818c2.578-.59 5.363-.59 7.94 0l-.417 1.818z" fill="#B9DFFC"/><path class="p-EA9B58" d="M26.96 9.716a16.129 16.129 0 00-7.105 0l-.418-1.818c2.578-.59 5.363-.59 7.94 0l-.417 1.818z" fill="#A1D1FD"/><path class="p-F6A96C" d="M11.978 13.447a16.13 16.13 0 00-7.106 0l-.417-1.818c2.578-.59 5.363-.59 7.94 0l-.417 1.818z" fill="#B9DFFC"/><path class="p-EA9B58" d="M26.96 13.447a16.13 16.13 0 00-7.105 0l-.418-1.818c2.578-.59 5.363-.59 7.94 0l-.417 1.818z" fill="#A1D1FD"/><path class="p-F6A96C" d="M11.978 17.177a16.13 16.13 0 00-7.106 0l-.417-1.818c2.578-.59 5.363-.59 7.94 0l-.417 1.818z" fill="#B9DFFC"/><path class="p-EA9B58" d="M26.96 17.177a16.13 16.13 0 00-7.105 0l-.418-1.818c2.578-.59 5.363-.59 7.94 0l-.417 1.818z" fill="#A1D1FD"/></svg>