<svg width="34" height="35" fill="none" xmlns="http://www.w3.org/2000/svg"><path class="p-68544F" d="M33.205 24.333v1.09l-1.79 1.945H1.712L0 25.423v-.973L1.985 8.308 6.4 3.89h2.43L9.728 0h2.983c1.1 0 2.106.36 2.919.972.367.277.694 1.577.973 1.946.278-.369.605-1.669.972-1.946A4.822 4.822 0 0120.494 0h2.983v3.891h3.327l4.417 4.417 1.984 16.025z" fill="#76B7E2"/><path class="p-53433F" d="M33.205 24.333v1.09l-1.79 1.945H16.602V2.934c0-.763.35-1.488.957-1.95A4.823 4.823 0 0120.494 0h2.983l.898 3.891h2.43l4.416 4.417 1.984 16.025z" fill="#58ADE5"/><path class="p-53433F" d="M33.205 25.423H0v3.891h33.205v-3.891z" fill="#58ADE5"/><path class="p-3E322E" d="M33.205 25.423H16.603v3.891h16.602v-3.891z" fill="#4D98CB"/><path class="p-68544F" d="M27.367 13.62v15.694l-1.945 1.945H7.782l-1.946-1.945V13.619h21.531z" fill="#76B7E2"/><path class="p-53433F" d="M27.37 13.62v15.694l-1.946 1.946h-8.82V13.62h10.765z" fill="#58ADE5"/><path class="p-53433F" d="M27.37 29.314H5.837v5.687h21.531v-5.686z" fill="#58ADE5"/><path class="p-3E322E" d="M27.367 29.314H16.602v5.687h10.765v-5.686zM29.313 13.62h-1.946v13.749h1.946v-13.75z" fill="#4D98CB"/><path class="p-53433F" d="M5.836 13.62H3.891v13.748h1.945V13.62z" fill="#58ADE5"/><path class="p-DFD7D5" d="M17.575.972V35h-1.946V.972c.367.277.694.604.973.973.278-.369.605-.696.973-.973z" fill="#B9DFFC"/><path class="p-D2C5C2" d="M17.575.972a4.962 4.962 0 00-.973.973V35h.973V.972z" fill="#A1D1FD"/></svg>