<svg width="25" height="35" fill="none" xmlns="http://www.w3.org/2000/svg"><path class="p-FFF5F5" d="M20.774 30.83L20.426 35H4.184l-.349-4.17 2.645-2.05h12.428l1.866 2.05z" fill="#B9DFFC"/><path class="p-FF9100" d="M1.948 9.297L3.835 30.83h16.94L22.66 9.297H1.948z" fill="#65B3E7"/><path class="p-EFE2DD" d="M18.908 28.78l1.866 2.05-.348 4.17h-8.121v-6.22h6.603z" fill="#A1D1FD"/><path class="p-FF641A" d="M22.661 9.297L20.774 30.83h-8.47V9.297h10.357z" fill="#58ADE5"/><path class="p-596C76" d="M2.05 0v7.075h20.508V2.93L12.305 1.465 2.05 0z" fill="#65B3E7"/><path class="p-465A61" d="M22.558 2.93v4.145H12.305V1.758L22.558 2.93z" fill="#4D98CB"/><path class="p-FFF5F5" d="M0 5.195v5.274h24.61V5.195H0z" fill="#B9DFFC"/><path class="p-EFE2DD" d="M24.61 5.195H12.304v5.274h12.304V5.195z" fill="#A1D1FD"/><path class="p-465A61" d="M17.432 20.576c0 3.076-1.908 5.64-4.369 6.07l-.758-1.168-.082-.124-1.272 1.149c-2.174-.697-3.773-3.097-3.773-5.927 0-3.076 1.907-5.64 4.368-6.07l.759 1.312.082.144 1.271-1.313c2.174.698 3.774 3.097 3.774 5.927z" fill="#A1D1FD"/><path class="p-3B4A51" d="M13.063 26.646l-.758-1.169v-9.659l.082.144 1.271-1.313c2.174.698 3.774 3.097 3.774 5.927 0 3.076-1.908 5.64-4.368 6.07z" fill="#5FBEFF"/><path class="p-596C76" d="M13.575 25.129l-.512 1.517a3.07 3.07 0 01-.759.082 4.26 4.26 0 01-1.353-.225l.676-2.03a4.39 4.39 0 00-.246-3.446 6.524 6.524 0 01-.348-5.004l.512-1.517c.246-.062.492-.082.76-.082.47 0 .922.082 1.353.225l-.677 2.03a4.39 4.39 0 00.246 3.446 6.523 6.523 0 01.348 5.004z" fill="#65B3E7"/><path class="p-465A61" d="M13.227 20.125a6.524 6.524 0 01.35 5.004l-.514 1.517a3.07 3.07 0 01-.758.082V14.425c.471 0 .922.082 1.353.225l-.677 2.03a4.39 4.39 0 00.246 3.446z" fill="#4D98CB"/></svg>