<svg width="35" height="21" fill="none" xmlns="http://www.w3.org/2000/svg"><path class="p-E0F4FF" d="M17.008 9.041c-.857 0-1.734.02-2.59.06C7.281 9.46 0 11.433 0 15.02 0 18.946 8.597 21 17.008 21s17.008-2.053 17.008-5.98c0-3.906-8.517-5.959-17.008-5.979z" fill="#B9DFFC"/><path class="p-BBDCFF" d="M34.016 15.02c0 3.927-8.597 5.98-17.008 5.98V9.04c8.49.02 17.008 2.073 17.008 5.98z" fill="#A1D1FD"/><path class="p-68544F" d="M28.15 13.709c-3.608 1.455-6.877 2.312-11.142 2.312-4.465 0-7.733-.937-11.142-2.312l.977-3.014 3.368-.837a22.02 22.02 0 006.797 1.077c2.372 0 4.724-.38 6.996-1.156 1.754.478 3.169.877 3.169.916l.977 3.014z" fill="#58ADE5"/><path class="p-53433F" d="M28.15 13.709c-3.608 1.455-6.877 2.312-11.142 2.312v-5.086c2.372 0 4.724-.38 6.996-1.156 1.754.478 3.169.877 3.169.916l.977 3.014z" fill="#4D98CB"/><path class="p-E0F4FF" d="M25.28 3.082a4.053 4.053 0 00-3.946-3.07 3.96 3.96 0 00-2.87 1.196c-.379.379-.917 1.491-1.455 1.491s-1.076-1.112-1.455-1.49C14.497.151 13.023-.248 11.607.151c-1.435.398-2.491 1.495-2.87 2.93l-1.893 7.613.797.34a23.726 23.726 0 009.368 1.913c3.229 0 6.378-.638 9.367-1.914l.798-.339-1.894-7.613z" fill="#B9DFFC"/><path class="p-BBDCFF" d="M27.173 10.695l-.797.34a23.726 23.726 0 01-9.368 1.913V2.699c.538 0 1.076-1.112 1.455-1.49a3.96 3.96 0 012.87-1.197 4.053 4.053 0 013.946 3.07l1.894 7.613z" fill="#A1D1FD"/></svg>