<svg width="30" height="38" fill="none" xmlns="http://www.w3.org/2000/svg"><path class="p-FDE4E4" d="M20.188 12.246V38H0V12.246c0-5.544 4.55-10.02 10.094-10.02a9.923 9.923 0 017.08 2.94c1.826 1.803 3.014 4.32 3.014 7.08z" fill="#AFD9F6"/><path class="p-FCCED3" d="M20.188 12.246V38H10.094V2.227a9.923 9.923 0 017.08 2.939c1.826 1.803 3.014 4.32 3.014 7.08z" fill="#65B3E7"/><path class="p-FCCED3" d="M15.66 25.375H4.527v1.418H15.66v-1.418zM15.66 29.828H4.527v1.418H15.66v-1.418z" fill="#58ADE5"/><path class="p-FFB64C" d="M25.754 8.906h-2.227a3.343 3.343 0 00-3.34-3.34V3.34A3.343 3.343 0 0023.527 0h2.227a3.344 3.344 0 003.34 3.34v2.226a3.344 3.344 0 00-3.34 3.34zm-3.038-4.453c.422.318 1.607 1.502 1.925 1.925.317-.423 1.502-1.607 1.925-1.925-.423-.317-1.608-1.502-1.925-1.925-.318.423-1.502 1.608-1.925 1.925z" fill="#5FBEFF"/><path class="p-FF5093" d="M15.66 5.566v11.898c-.356.133-2.538 1.536-5.566 1.58h-.112c-2.048 0-3.607-.6-5.455-1.514V5.566A5.568 5.568 0 0110.094 0a5.568 5.568 0 015.566 5.566z" fill="#58ADE5"/><path class="p-F23055" d="M15.66 5.566v11.898c-.356.133-2.538 1.536-5.566 1.58V0a5.568 5.568 0 015.566 5.566z" fill="#4D98CB"/><path class="p-FAAAAA" d="M15.66 25.375h-5.566v1.418h5.566v-1.418zM15.66 29.828h-5.566v1.418h5.566v-1.418z" fill="#4D98CB"/></svg>