<svg width="34" height="34" fill="none" xmlns="http://www.w3.org/2000/svg"><path class="p-61D7A8" d="M28.238 9.965L18.503 19.7l-2.844-.028-1.407-1.408.028-2.786 9.721-9.722c-.098 1.112-.637 3.17.208 4.015.858.858 2.917.292 4.029.194z" fill="#B9DFFC"/><path class="p-00AB94" d="M28.237 9.964L18.502 19.7l-2.843-.029-.676-.675L24.21 9.77c.858.858 2.917.292 4.028.193z" fill="#A1D1FD"/><path class="p-C5D3DD" d="M9.734 24.246a5.736 5.736 0 011.605-3.012l3.208-3.21-7.374-3.687-.479.31C1.15 18.334-1.426 24.428.797 33.183c8.994 2.294 14.89-.423 18.536-5.897l.31-.479-3.688-7.375-3.209 3.21a5.742 5.742 0 01-3.012 1.604z" fill="#B9DFFC"/><path class="p-537983" d="M9.93 19.826c-1.997 2-3.198 4.916-3.198 7.421l1.904-.918a7.69 7.69 0 005.517-2.28l4.35-4.35-4.237-4.235-4.335 4.362z" fill="#58ADE5"/><path class="p-9FACBA" d="M15.955 19.432l3.687 7.375-.31.479C15.688 32.76 9.79 35.477.797 33.183l8.937-8.937a5.742 5.742 0 003.012-1.605l3.209-3.209z" fill="#65B3E7"/><path class="p-3E5959" d="M6.732 27.247l9.659-9.658 2.111 2.11-4.349 4.35c-1.463 1.463-4.338 3.212-6.435 3.198h-.986z" fill="#4D98CB"/><path class="p-537983" d="M24.424 2.52c-1.942 1.941-2.86 6.013-.918 7.955 1.97 1.97 6.027 1.01 7.955-.919l2.52-2.519L26.942 0l-2.519 2.52zm6.742 4.517l-1.112 1.112c-1.182 1.182-3.987 2.073-5.14.918-1.17-1.168-.25-3.972.918-5.14l1.111-1.112 4.223 4.222z" fill="#58ADE5"/><path class="p-3E5959" d="M30.462 3.519l3.518 3.518-2.518 2.52c-1.929 1.927-5.986 2.888-7.956.918l1.407-1.408c1.154 1.155 3.959.264 5.141-.918l1.112-1.112-2.111-2.111 1.407-1.407z" fill="#4D98CB"/></svg>