<svg width="27" height="25" fill="none" xmlns="http://www.w3.org/2000/svg"><path class="p-006EFF" d="M25.052 14.844c0-3.126-2.063-5.802-4.889-6.715l-3.078 3.537-.111 3.959 4.563 1.562 3.515-1.562v-.781z" fill="#4D98CB"/><path class="p-575F64" d="M14.114 0v4.583l-1.562 1.615h-7.61L3.1 4.583c.046-.312.078-.64.078-.969V1.458L3.099 0h11.015z" fill="#B9DFFC"/><path class="p-32393F" d="M14.114 0v4.583l-.781.782V0h.781z" fill="#A1D1FD"/><path class="p-73BCFF" d="M20.161 8.135l-3.187 7.49-1.704 1.562-1.937-1.109-.781-.453-4.688-3.537L6.302 7.76l1.562-3.177h6.25v.781c0 1.298.214 3.23 1.51 3.23l2.396-.834c.172 0 1.313.094 2.141.375z" fill="#65B3E7"/><path class="p-006EFF" d="M3.096 4.583C2.874 6.078 2.44 6.487 2.027 7.76l5.837 4.333v-7.51H3.096z" fill="#65B3E7"/><path class="p-0095FF" d="M20.161 8.135l-3.187 7.49-1.704 1.562-1.937-1.109V4.583h.781v.781c0 1.298.214 3.23 1.51 3.23l2.396-.834c.172 0 1.313.094 2.141.375z" fill="#58ADE5"/><path class="p-0095FF" d="M5.52 7.76H2.028a8.215 8.215 0 00-.413 2.529v5.336l1.563 1.563h7.031l2.344-1.563v-.781c0-3.883-3.148-7.083-7.031-7.083z" fill="#A1D1FD"/><path class="p-575F64" d="M1.614 15.625h23.438v3.125H1.614v-3.125z" fill="#65B3E7"/><path class="p-32393F" d="M13.333 15.625h11.719v3.125H13.333v-3.125z" fill="#4D98CB"/><path class="p-32393F" d="M16.458 20.313h3.125v1.562h-3.125v-1.563z" fill="#65B3E7"/><path class="p-575F64" d="M7.083 20.313h3.125v1.562H7.083v-1.563z" fill="#A1D1FD"/><path class="p-A1D1FD" d="M3.958 25C1.805 25 0 23.247 0 21.094c0-2.154 1.805-3.907 3.958-3.907a3.91 3.91 0 013.907 3.907A3.91 3.91 0 013.958 25z" fill="#A1D1FD"/><path class="p-65B3E7" d="M22.708 25a3.91 3.91 0 01-3.906-3.906 3.91 3.91 0 013.906-3.907c2.154 0 3.958 1.753 3.958 3.907 0 2.153-1.804 3.906-3.958 3.906z" fill="#65B3E7"/><path class="p-ECECF1" d="M3.958 18.75a2.346 2.346 0 00-2.344 2.344 2.346 2.346 0 002.344 2.343 2.346 2.346 0 002.344-2.343 2.346 2.346 0 00-2.344-2.344z" fill="#B9DFFC"/><path class="p-D3D3D8" d="M22.708 18.75a2.346 2.346 0 00-2.344 2.344 2.346 2.346 0 002.344 2.343 2.346 2.346 0 002.344-2.343 2.346 2.346 0 00-2.344-2.344z" fill="#A1D1FD"/><path class="p-575F64" d="M3.177 20.313h1.562v1.562H3.177v-1.563z" fill="#58ADE5"/><path class="p-32393F" d="M21.927 20.313h1.562v1.562h-1.562v-1.563z" fill="#4D98CB"/><path class="p-A1D1FD" d="M13.333 17.188a3.908 3.908 0 00-3.906 3.906A3.908 3.908 0 0013.333 25a3.908 3.908 0 003.906-3.906 3.908 3.908 0 00-3.906-3.907z" fill="#A1D1FD"/><path class="p-65B3E7" d="M17.24 21.094A3.908 3.908 0 0113.332 25v-7.813a3.908 3.908 0 013.906 3.907z" fill="#65B3E7"/><path class="p-ECECF1" d="M13.333 18.75a2.34 2.34 0 00-2.344 2.344 2.34 2.34 0 002.344 2.343 2.34 2.34 0 002.344-2.343 2.34 2.34 0 00-2.344-2.344z" fill="#B9DFFC"/><path class="p-D3D3D8" d="M15.677 21.094a2.34 2.34 0 01-2.344 2.343V18.75a2.34 2.34 0 012.344 2.344z" fill="#A1D1FD"/><path class="p-575F64" d="M12.552 20.313h1.562v1.562h-1.562v-1.563z" fill="#58ADE5"/><path class="p-32393F" d="M13.333 20.313h.781v1.562h-.781v-1.563z" fill="#4D98CB"/></svg>