<svg width="29" height="36" viewBox="0 0 29 36" fill="none" xmlns="http://www.w3.org/2000/svg">
<path d="M28.2324 26.5039H23.2754V34.2336H28.2324V26.5039Z" fill="#4D98CB"/>
<path d="M23.3351 19.0425H23.2754V26.5038H28.2324V23.5254C28.2324 21.0535 26.0355 19.0425 23.3351 19.0425Z" fill="#58ADE5"/>
<path d="M4.95696 26.5039H0V34.2336H4.95696V26.5039Z" fill="#4D98CB"/>
<path d="M4.95696 19.0425H4.89724C2.19684 19.0425 0 21.0535 0 23.5254V26.5038H4.95696V19.0425Z" fill="#58ADE5"/>
<path d="M12.1427 4.09525C12.1427 3.4794 12.6437 2.12122 14.1167 2.12122C15.4292 2.12122 16.0908 3.4794 16.0908 4.09525V5.25681C17.134 5.36373 17.2766 5.61942 18.212 6.00117V4.09525C18.212 1.83713 16.3748 0 14.1167 0C11.8586 0 10.0215 1.83713 10.0215 4.09525V6.00117C10.9569 5.6195 11.0995 5.36381 12.1427 5.25681V4.09525Z" fill="#58ADE5"/>
<path d="M12.1782 16.7053V24.7894H9.19989V16.7053H3.24316V36H14.1166V16.7053H12.1782Z" fill="#5FBEFF"/>
<path d="M24.9897 16.7053H19.033V24.7894H16.0546V16.7053H14.1162V36H24.9897V16.7053Z" fill="#76B7E2"/>
<path d="M9.19989 12.238H12.1782V16.7055H14.1166V4.34277C13.7396 4.34277 13.367 4.36213 12.9998 4.39981C11.9565 4.50673 10.9567 4.76242 10.0214 5.14418C6.04967 6.76493 3.24316 10.6687 3.24316 15.2163V16.7055H9.19989V12.238Z" fill="#B9DFFC"/>
<path d="M14.1162 4.34277V16.7054H16.0546V12.2379H19.033V16.7054H24.9897V15.2162C24.9897 10.6687 22.1832 6.76485 18.2115 5.1441C17.276 4.76242 16.2763 4.50673 15.2331 4.39973C14.8659 4.36221 14.4933 4.34277 14.1162 4.34277Z" fill="#A1D1FD"/>
<path d="M12.1786 12.2378H9.2002V24.7894H12.1786V12.2378Z" fill="#58ADE5"/>
<path d="M19.034 12.2378H16.0557V24.7894H19.034V12.2378Z" fill="#58ADE5"/>
</svg>
