<svg width="25" height="40" fill="none" xmlns="http://www.w3.org/2000/svg"><path class="p-FFDAEE" d="M11.259 40H0v-3.753c0-1.037.84-1.877 1.876-1.877h7.506c1.037 0 1.877.84 1.877 1.877V40z" fill="#B9DFFC"/><path class="p-FF7CB9" d="M9.16 17.135H1.963v-4.58H9.16v4.58z" fill="#58ADE5"/><path class="p-FF5E95" d="M9.382 12.555H5.629v4.802h3.753v-4.802z" fill="#76B7E2"/><path class="p-FFDAEE" d="M9.382 21.11H1.876A1.876 1.876 0 010 19.234V15.48h11.259v3.753c0 1.036-.84 1.876-1.877 1.876z" fill="#B9DFFC"/><path class="p-FCB9D1" d="M5.629 21.11h3.753c1.036 0 1.876-.84 1.876-1.876V15.48h-5.63v5.63z" fill="#A1D1FD"/><path class="p-FF5E95" d="M11.259 36.247H0V19.234h11.259v17.013z" fill="#58ADE5"/><path class="p-FFDAEE" d="M24.393 40H13.136v-3.753c0-1.037.84-1.877 1.876-1.877h7.506c1.036 0 1.877.84 1.877 1.877V40z" fill="#B9DFFC"/><path class="p-FF5E95" d="M24.393 17.357H13.136V9.938h11.258v7.42z" fill="#58ADE5"/><path class="p-CE0963" d="M24.394 9.938h-5.63v7.42h5.63v-7.42z" fill="#4D98CB"/><path class="p-FFDAEE" d="M22.517 21.11h-7.506a1.876 1.876 0 01-1.876-1.876V15.48h11.258v3.753c0 1.036-.84 1.876-1.876 1.876z" fill="#B9DFFC"/><path class="p-FF5E95" d="M24.393 36.247H13.136V19.234h11.258v17.013z" fill="#58ADE5"/><path class="p-FCB9D1" d="M18.765 40h5.629v-3.753c0-1.037-.84-1.877-1.877-1.877h-3.752V40zM18.765 21.11h3.752c1.037 0 1.877-.84 1.877-1.876V15.48h-5.63v5.63z" fill="#A1D1FD"/><path class="p-CE0963" d="M24.394 19.234h-5.63v17.013h5.63V19.234z" fill="#4D98CB"/><path class="p-FCB9D1" d="M5.629 40h5.63v-3.753c0-1.037-.84-1.877-1.877-1.877H5.629V40z" fill="#A1D1FD"/><path class="p-CE0963" d="M11.258 19.234h-5.63v17.013h5.63V19.234z" fill="#4D98CB"/><path class="p-E0F4FF" d="M6.913 7.986A2.399 2.399 0 014.517 5.59a2.399 2.399 0 012.396-2.396A2.399 2.399 0 019.309 5.59a2.399 2.399 0 01-2.396 2.396z" fill="#E0F4FF"/><path class="p-BBDCFF" d="M19.797 4.792a2.399 2.399 0 01-2.396-2.396A2.399 2.399 0 0119.797 0a2.399 2.399 0 012.396 2.396 2.399 2.399 0 01-2.396 2.396z" fill="#BBDCFF"/><path class="p-E0F4FF" d="M11.758 3.194a.799.799 0 100-1.597.799.799 0 000 1.597z" fill="#E0F4FF"/><path class="p-BBDCFF" d="M16.602 7.986a.799.799 0 100-1.597.799.799 0 000 1.597z" fill="#BBDCFF"/></svg>