<svg width="30" height="30" fill="none" xmlns="http://www.w3.org/2000/svg"><path class="p-663325" d="M17.783 5.332h-1.758c0-.492-.533-.879-1.025-.879-.492 0-1.025.387-1.025.879h-1.758c0-1.46 1.324-2.637 2.783-2.637 1.46 0 2.783 1.178 2.783 2.637z" fill="#4D98CB"/><path class="p-582B1F" d="M27.063 3.574h2.058a.879.879 0 010 1.758h-2.058V3.574z" fill="#4D98CB"/><path class="p-663325" d="M0 4.453c0-.485.394-.879.879-.879h2.058v1.758H.88A.879.879 0 010 4.453z" fill="#4D98CB"/><path class="p-FAECD8" d="M29.121 25.605a3.526 3.526 0 01-3.515 3.516H4.395l-1.758-.879c.21 0 .879-.932.879-2.637s-.668-2.636-.88-2.636l1.759-.88h21.21a3.526 3.526 0 013.516 3.517z" fill="#B9DFFC"/><path class="p-F9D8B4" d="M29.121 25.605a3.526 3.526 0 01-3.515 3.516H4.395l-1.758-.879c.21 0 .879-.932.879-2.637H29.12z" fill="#A1D1FD"/><path class="p-804231" d="M30 25.605A4.396 4.396 0 0125.605 30H.88a.879.879 0 110-1.758h24.726a2.633 2.633 0 002.637-2.637 2.633 2.633 0 00-2.637-2.636H.88a.879.879 0 010-1.758h24.726A4.396 4.396 0 0130 25.606z" fill="#5FBEFF"/><path class="p-663325" d="M30 25.605A4.396 4.396 0 0125.605 30H.88a.879.879 0 110-1.758h24.726a2.633 2.633 0 002.637-2.637H30z" fill="#4D98CB"/><path class="p-FAECD8" d="M.879 16.816a3.526 3.526 0 003.516 3.516h21.21l1.758-.879c-.21 0-.879-.932-.879-2.637s.668-2.636.88-2.636l-1.759-.88H4.395a3.526 3.526 0 00-3.516 3.516z" fill="#B9DFFC"/><path class="p-F9D8B4" d="M.879 16.816a3.526 3.526 0 003.516 3.516h21.21l1.758-.879c-.21 0-.879-.932-.879-2.637H.88z" fill="#A1D1FD"/><path class="p-FF4B00" d="M0 16.816a4.396 4.396 0 004.395 4.395H29.12a.879.879 0 000-1.758H4.395a2.633 2.633 0 01-2.637-2.637 2.633 2.633 0 012.637-2.636H29.12a.879.879 0 000-1.758H4.395A4.396 4.396 0 000 16.816z" fill="#65B3E7"/><path class="p-DD3400" d="M0 16.816a4.396 4.396 0 004.395 4.395H29.12a.879.879 0 000-1.758H4.395a2.633 2.633 0 01-2.637-2.637H0z" fill="#58ADE5"/><path class="p-582B1F" d="M17.783 5.332h-1.758c0-.492-.533-.879-1.025-.879V2.695c1.46 0 2.783 1.178 2.783 2.637z" fill="#4D98CB"/><path class="p-663325" d="M7.91 12.422c-3.392 0-6.152-2.819-6.152-6.211C1.758 2.819 4.518 0 7.91 0c3.392 0 6.152 2.819 6.152 6.21 0 3.393-2.76 6.212-6.152 6.212z" fill="#4D98CB"/><path class="p-582B1F" d="M22.09 12.422c-3.392 0-6.152-2.819-6.152-6.211C15.938 2.819 18.697 0 22.09 0c3.392 0 6.152 2.819 6.152 6.21 0 3.393-2.76 6.212-6.152 6.212z" fill="#4D98CB"/><path class="p-FAECD8" d="M7.91 1.816a4.4 4.4 0 00-4.394 4.395c0 2.423 1.971 4.453 4.394 4.453s4.395-2.03 4.395-4.453A4.4 4.4 0 007.91 1.816z" fill="#B9DFFC"/><path class="p-F9D8B4" d="M22.09 1.816a4.4 4.4 0 00-4.395 4.395c0 2.423 1.972 4.453 4.395 4.453 2.423 0 4.394-2.03 4.394-4.453a4.4 4.4 0 00-4.394-4.395z" fill="#A1D1FD"/></svg>