<svg width="21" height="33" fill="none" xmlns="http://www.w3.org/2000/svg"><path class="p-FF4F1A" d="M3.79 0a2 2 0 00-2 2v2.8H9.89V2a2 2 0 00-2-2H3.79z" fill="#B9DFFC"/><path class="p-60DD4E" d="M18.512 12.83l-7.027-7.992a2.95 2.95 0 00-2.22-1.004h-6.31A2.959 2.959 0 000 6.789V33h20.115V17.08c0-1.565-.569-3.074-1.603-4.25zm-2.762 5.147a2.121 2.121 0 01-1.385.512c-.6 0-1.196-.252-1.617-.743l-2.69-3.136-2.306-2.69a2.13 2.13 0 113.233-2.771l4.995 5.825a2.13 2.13 0 01-.23 3.003z" fill="#65B3E7"/><path class="p-00BB64" d="M20.116 17.08V33H10.059V14.61l2.69 3.136a2.126 2.126 0 001.617.743 2.13 2.13 0 001.615-3.515l-4.996-5.825c-.257-.3-.578-.51-.926-.629V3.943a2.95 2.95 0 011.427.895l7.027 7.992a6.433 6.433 0 011.603 4.25z" fill="#4D98CB"/><path class="p-FF4F1A" d="M20.115 27.134H0v1.933h20.115v-1.933z" fill="#B9DFFC"/><path class="p-CA1C00" d="M20.116 27.134H10.059v1.933h10.057v-1.933z" fill="#A1D1FD"/></svg>