<svg width="31" height="28" fill="none" xmlns="http://www.w3.org/2000/svg"><path class="p-FBC56D" d="M30.834 9.033v10.84c0 3.722-3.71 5.959-9.094 7.332l-6.323-1.803-1.192-.506-5.131 2.31C3.71 25.831 0 23.595 0 19.873V9.034h30.834z" fill="#76B7E2"/><path class="p-EBAE56" d="M30.834 9.033v10.84c0 3.722-3.71 5.959-9.094 7.332l-6.323-1.803V9.033h15.417z" fill="#58ADE5"/><path class="p-ECECF1" d="M21.74 15.588l-.939.723.94.325v2.855l-.56 2.096.56.47v5.148c-1.807.488-3.813.76-5.926.777l-.398-.451-.217-.235-1.879.614a18.95 18.95 0 01-2.529-.325l.072-1.084-1.77.217v-2.855l.795-1.77-.795-.796v-6.54H21.74v.832z" fill="#A1D1FD"/><path class="p-D3D3D8" d="M21.74 15.588l-.94.723.94.325v2.855l-.56 2.096.56.47v5.148c-1.806.488-3.812.76-5.926.777l-.397-.451V14.757h6.323v.831z" fill="#4D98CB"/><path class="p-FF637B" d="M16.05 16.889l-6.956 6.974v-2.566l5.69-5.673 1.265 1.265zM21.74 15.588v1.048L10.793 27.584a21.41 21.41 0 01-1.698-.38v-.487l6.323-6.305 4.788-4.788 1.536-.036zM21.74 19.49v2.566l-5.926 5.926c-.126.018-.27.018-.397.018-.705 0-1.41-.018-2.096-.09l2.096-2.096 6.323-6.323z" fill="#5FBEFF"/><path class="p-E63950" d="M21.74 15.588v1.048l-6.323 6.323v-2.547l4.788-4.788 1.535-.036zM15.417 25.814l6.323-6.323v2.565l-5.926 5.926c-.126.018-.27.018-.397.018v-2.186z" fill="#76B7E2"/><path class="p-EBAE56" d="M15.417 0C6.799 0 0 3.975 0 9.033c0 5.06 6.8 9.034 15.417 9.034 8.618 0 15.417-3.975 15.417-9.034C30.834 3.975 24.035 0 15.417 0z" fill="#B9DFFC"/><path class="p-CC9249" d="M30.834 9.033c0 5.06-6.8 9.034-15.417 9.034V0c8.618 0 15.417 3.975 15.417 9.033z" fill="#A1D1FD"/><path class="p-895D3C" d="M15.417 5.474c-4.065 0-8.13 1.175-8.13 3.56 0 2.366 4.083 3.613 8.13 3.613 4.047 0 8.13-1.247 8.13-3.614 0-2.384-4.065-3.559-8.13-3.559z" fill="#76B7E2"/><path class="p-714C2F" d="M23.547 9.033c0 2.367-4.083 3.614-8.13 3.614V5.474c4.065 0 8.13 1.175 8.13 3.56z" fill="#65B3E7"/><path class="p-714C2F" d="M21.74 9.033c0 .524-2.222 1.807-6.323 1.807-4.101 0-6.323-1.283-6.323-1.807 0-.506 2.222-1.752 6.323-1.752 4.101 0 6.324 1.246 6.324 1.752z" fill="#58ADE5"/><path class="p-523522" d="M21.74 9.033c0 .524-2.222 1.807-6.323 1.807V7.28c4.101 0 6.323 1.247 6.323 1.753z" fill="#4D98CB"/></svg>