<svg width="35" height="30" fill="none" xmlns="http://www.w3.org/2000/svg"><path class="p-9ABADB" d="M32.066 17h-2V4c0-1.103-.897-2-2-2-1.102 0-2 .897-2 2v1h-2V4c0-2.206 1.794-4 4-4 2.207 0 4 1.794 4 4v13z" fill="#4D98CB"/><path class="p-E0F4FF" d="M28.99 9.077h-7.845L22.067 7c0-1.654 1.346-3 3-3s3 1.346 3 3l.923 2.077zM32.066 17h-2v-2a1 1 0 00-1-1h-3v-2h3c1.655 0 3 1.346 3 3v2z" fill="#AFD9F6"/><path class="p-BBDCFF" d="M8.067 27h-2l-.922 3H8.99l-.923-3z" fill="#5FBEFF"/><path class="p-9ABADB" d="M30.067 27h-2l-.922 3h3.845l-.923-3z" fill="#4D98CB"/><path class="p-E0F4FF" d="M33.133 16c-1.54 0-2.986.02-4.266.02h-.8c-.56 0-1 .44-1 1V23h-6v-6.2c0-.5-.38-.94-.88-.98-.04.902-.08.902-.12-.02-.7-.08-1.36-.2-2-.34-1.78-.4-3.4-1.08-5.24-2.16C7.307 9.98 3 9.96 1.2 10H0v1c0 6.42 0 10.3 4.16 16.56l.3.44h27.353l.24-.62c1.74-4.34 2.08-7.1 2.08-10.38v-1h-1z" fill="#B9DFFC"/><path class="p-BBDCFF" d="M34.133 16v1c0 3.28-.34 6.04-2.08 10.38l-.24.62H18.066V15.46c.64.14 1.3.26 2 .34.04 0 .08 0 .12.02.5.04.88.48.88.98V23h6v-5.98c0-.56.44-1 1-1h.8c1.28 0 2.727-.02 4.267-.02h1z" fill="#A1D1FD"/><path class="p-00C0F1" d="M28.066 16.02V24h-8v-8.2c2.14.24 4.64.24 8 .22z" fill="#5FBEFF"/></svg>