<svg width="33" height="33" fill="none" xmlns="http://www.w3.org/2000/svg"><path class="p-DABBA6" d="M14.019 33a5.307 5.307 0 01-5.286-4.732l1.923-.212a3.376 3.376 0 003.363 3.01 3.388 3.388 0 003.383-3.383v-1.45a4.84 4.84 0 014.834-4.835 4.839 4.839 0 014.834 4.834c0 1.6 1.302 2.9 2.9 2.9H33v1.934h-3.03a4.839 4.839 0 01-4.833-4.834c0-1.599-1.301-2.9-2.9-2.9-1.6 0-2.9 1.301-2.9 2.9v1.45A5.323 5.323 0 0114.018 33zM12.137 15.57l.865 5.662 3.053-2.502v-3.568l-3.918.409z" fill="#5FBEFF"/><path class="p-F4D7AF" d="M5.8 16.435v8.83a3.872 3.872 0 003.868 3.868 3.872 3.872 0 003.867-3.867v-9.04l-7.734.21z" fill="#76B7E2"/><path class="p-FF7A53" d="M25.949 7.251l-.406 1.45-1.373 4.834c-3.345 1.315-7.618 3.867-14.715 3.867h-.754C3.906 17.402 0 13.496 0 8.702 0 3.905 3.906 0 8.701 0h.754C16.34 0 20.361 2.359 24.17 3.867l1.779 3.384z" fill="#58ADE5"/><path class="p-FF3B62" d="M25.543 8.701l-1.373 4.834c-3.345 1.315-7.618 3.867-14.715 3.867h-.754C3.906 17.402 0 13.496 0 8.702h25.543z" fill="#4D98CB"/><path class="p-FFB6FA" d="M33 2.083l-8.83 1.784v9.668L33 15.32V2.083z" fill="#AFD9F6"/><path class="p-F4D7AF" d="M11.602 11.602H5.8v1.933h5.8v-1.933z" fill="#58ADE5"/><path class="p-FAECD8" d="M11.602 7.734H5.8v1.934h5.8V7.734zM11.602 3.867H5.8v1.934h5.8V3.867z" fill="#5FBEFF"/><path class="p-F4D7AF" d="M11.602 8.701H5.8v.967h5.8v-.967z" fill="#58ADE5"/><path class="p-FF7CB9" d="M33 8.701h-8.83v4.834L33 15.32V8.7z" fill="#65B3E7"/></svg>