<svg width="22" height="42" fill="none" xmlns="http://www.w3.org/2000/svg"><path class="p-2682FF" d="M19.901 13.877c0-4.148-2.758-7.651-6.54-8.777V2.616A2.616 2.616 0 0010.744 0L9.104 15.519 19.9 13.877z" fill="#65B3E7"/><path class="p-8CBCFF" d="M10.745 0a2.616 2.616 0 00-2.617 2.616V5.1a9.16 9.16 0 00-6.54 8.777l9.157 1.642V0z" fill="#AFD9F6"/><path class="p-F4E2E2" d="M1.588 13.877V42h9.157l1.642-15.447-1.642-12.676H1.588z" fill="#B9DFFC"/><path class="p-E3D0C9" d="M10.744 13.877v4.982H5.512v2.461h5.232v2.772H5.512v2.46h5.232v2.772H5.512v2.461h5.232v2.772H5.512v2.46h5.232V42h9.157V13.877h-9.157z" fill="#A1D1FD"/><path class="p-3440DB" d="M21.49 12.646H9.87l-.821 1.231.82 1.23h11.62v-2.46z" fill="#4D98CB"/><path class="p-2682FF" d="M10.745 12.646H0v2.461h10.745v-2.46z" fill="#58ADE5"/></svg>