<svg width="38" height="32" fill="none" xmlns="http://www.w3.org/2000/svg"><path class="p-E8F4FC" d="M32.994 6.915a6.298 6.298 0 00-7.8 4.3l-.64 3.156c-.67-.847-1.873-2.053-2.85-1.515a2.25 2.25 0 00-.884 3.056l1.978 3.588-2.604 9 12.1 3.5 5-17.285a6.298 6.298 0 00-4.3-7.8z" fill="#B9DFFC"/><path class="p-E59278" d="M22.797 19.5l-1.978-3.588a2.25 2.25 0 01.884-3.056c.977-.538 2.18.668 2.85 1.515l.64-3.156a6.298 6.298 0 1112.1 3.5L34.317 25l-12.1-3.5.58-2z" fill="#58ADE5"/><path class="p-DF6246" d="M32.993 6.915a6.298 6.298 0 014.3 7.8L34.318 25l-6.35-1.837L32.617 6.82c.125.028.25.059.376.095z" fill="#4D98CB"/><path d="M32.994 6.915z" fill="#D1E5F5"/><path class="p-D1E5F5" d="M34.319 25l2.975-10.285-5 17.285-6.32-1.828 1.995-7.01L34.319 25zM4.55.25a6.298 6.298 0 017.8 4.3l.64 3.156c.67-.848 1.873-2.054 2.85-1.515a2.25 2.25 0 01.883 3.055l-1.977 3.588 2.603 9-12.1 3.5-5-17.284a6.298 6.298 0 014.3-7.8z" fill="#A1D1FD"/><path class="p-DF6246" d="M14.746 12.834l1.977-3.588a2.25 2.25 0 00-.884-3.055c-.977-.539-2.18.667-2.849 1.515l-.64-3.157a6.298 6.298 0 10-12.1 3.5l2.975 10.285 12.1-3.5-.58-2z" fill="#4D98CB"/><path class="p-E59278" d="M4.55.25a6.298 6.298 0 00-4.3 7.8l2.975 10.284 6.35-1.837L4.926.154a6.376 6.376 0 00-.377.096z" fill="#58ADE5"/><path d="M4.55.25z" fill="#B9DFFC"/><path class="p-E8F4FC" d="M3.225 18.334L.25 8.05l5 17.285 6.32-1.828-1.995-7.01-6.35 1.837z" fill="#B9DFFC"/></svg>