<svg width="31" height="37" fill="none" xmlns="http://www.w3.org/2000/svg"><path class="p-03232E" d="M21.254 4.61A4.61 4.61 0 0016.644 0h-3.909l-1.449 6.058 9.968-1.448z" fill="#4D98CB"/><path class="p-07485E" d="M12.736 0h-3.91a4.61 4.61 0 00-4.61 4.61l8.52 1.448V0z" fill="#58ADE5"/><path class="p-07485E" d="M25.01 23.759h-3.005v-2.172h3.005a3.313 3.313 0 003.31-3.31V8h-4.344V5.83h6.515v12.449a5.487 5.487 0 01-5.481 5.48z" fill="#4D98CB"/><path class="p-7ED8F6" d="M18.95 4.61l-2.305 23.17h4.216c4.61-4.137 4.61-23.17 4.61-23.17h-6.522z" fill="#A1D1FD"/><path class="p-BDFDFF" d="M11.286 29.23l5.358-1.45C18.95 25.713 18.95 4.61 18.95 4.61h-6.214l-1.449 24.62zM6.521 4.61H0s0 19.033 4.61 23.17h4.216L6.521 4.61z" fill="#B9DFFC"/><path class="p-7ED8F6" d="M12.736 4.61H6.52s0 21.102 2.305 23.17l3.91 1.45V4.61z" fill="#A1D1FD"/><path class="p-E30000" d="M20.86 27.781h-8.125l-1.449 4.61L12.735 37h11.199l-3.073-9.22z" fill="#65B3E7"/><path class="p-FF6426" d="M8.826 27.781H4.609l-3.073 9.22h11.199v-9.22h-3.91z" fill="#A1D1FD"/><path class="p-E1EBF0" d="M10.497 31.305h-.133a1.086 1.086 0 100 2.171h.133a1.086 1.086 0 100-2.171z" fill="#58ADE5"/><path class="p-B4D2D7" d="M15.107 31.305h-.133a1.086 1.086 0 100 2.171h.133a1.086 1.086 0 100-2.171z" fill="#4D98CB"/></svg>