<svg width="23" height="30" fill="none" xmlns="http://www.w3.org/2000/svg"><path class="p-B35F49" d="M21.094 0v9.621l-9.668-1.283-8.121-1.09L0 3.574 11.426 1.57 21.094 0z" fill="#AFD9F6"/><path class="p-99503D" d="M21.094 0v9.621l-9.668-1.283V1.57L21.094 0z" fill="#65B3E7"/><path class="p-FED966" d="M0 3.574V30h22.852V3.574H0z" fill="#58ADE5"/><path class="p-FDBF00" d="M22.852 3.574H11.426V30h11.426V3.574z" fill="#4D98CB"/><path class="p-FF6498" d="M12.305 12.363h-1.758v4.395h1.758v-4.395z" fill="#5FBEFF"/><path class="p-FFF5F5" d="M12.305 8.848h-1.758v1.757h1.758V8.848z" fill="#AFD9F6"/><path class="p-FF3980" d="M15.82 12.363h-1.758v4.395h1.758v-4.395z" fill="#76B7E2"/><path class="p-FFF5F5" d="M15.82 8.848h-1.758v1.757h1.758V8.848z" fill="#65B3E7"/><path class="p-FF6498" d="M8.79 12.363H7.03v4.395H8.79v-4.395z" fill="#5FBEFF"/><path class="p-FFF5F5" d="M8.79 8.848H7.03v1.757H8.79V8.848zM15.82 24.668H7.031v1.816h8.79v-1.816z" fill="#AFD9F6"/><path class="p-EFE2DD" d="M12.305 8.848h-.88v1.757h.88V8.848zM15.82 24.668h-4.394v1.816h4.394v-1.816z" fill="#65B3E7"/><path class="p-99503D" d="M17.578 15.879h-6.152v7.031h6.152V15.88z" fill="#000"/><path class="p-FF3980" d="M12.305 12.363h-.88v4.395h.88v-4.395z" fill="#76B7E2"/><path class="p-B35F49" d="M5.273 15.879v7.031h12.305V15.88H5.273z" fill="#5FBEFF"/><path class="p-99503D" d="M17.578 15.879h-6.152v7.031h6.152V15.88z" fill="#76B7E2"/></svg>