<svg width="23" height="26" fill="none" xmlns="http://www.w3.org/2000/svg"><path class="p-C9001C" d="M17.004 7.01L10.32 5.995v17.784l9.924-1.017s-3.239-5.11-3.239-15.75z" fill="#65B3E7"/><path class="p-FF4C04" d="M5.668 7.01c0 10.64-3.24 15.751-3.24 15.751l8.908 1.017V5.994L5.668 7.011z" fill="#A1D1FD"/><path class="p-FF4C04" d="M22.671 24.761a2 2 0 00-2-2h-9.335l-1.017 1.62L11.336 26H22.67v-1.24z" fill="#4D98CB"/><path class="p-FF9100" d="M11.335 22.761H2a2 2 0 00-2 2v1.24h11.335v-3.24z" fill="#58ADE5"/><path class="p-FF4C04" d="M19.432 1.62a1.62 1.62 0 00-3.239 0h-3.239A1.62 1.62 0 0011.336 0l-1.017 3.809 1.017 3.202h8.096V1.62z" fill="#4D98CB"/><path class="p-FF9100" d="M11.335 0a1.62 1.62 0 00-1.621 1.62H6.477a1.62 1.62 0 00-3.239 0v5.39h8.097V0z" fill="#58ADE5"/></svg>