<svg width="32" height="32" fill="none" xmlns="http://www.w3.org/2000/svg"><path class="p-ECECF1" d="M26.533 18.247c0 7.065-5.714 12.84-12.78 12.84-7.065 0-12.84-5.775-12.84-12.84 0-7.066 5.775-12.78 12.84-12.78 7.066 0 12.78 5.714 12.78 12.78z" fill="#B9DFFC"/><path class="p-D3D3D8" d="M26.532 18.247c0 7.065-5.714 12.84-12.78 12.84V5.467c7.066 0 12.78 5.714 12.78 12.78z" fill="#A1D1FD"/><path class="p-714C2F" d="M11.015 1.755H9.19v4.242h1.826V1.755z" fill="#58ADE5"/><path class="p-523522" d="M18.318 1.755h-1.826v4.242h1.826V1.755z" fill="#4D98CB"/><path class="p-895D3C" d="M20.143 0H7.363v2.668h12.78V0z" fill="#B9DFFC"/><path class="p-EBAE56" d="M21.97 15.508h-1.826v5.477h1.825v-5.477z" fill="#76B7E2"/><path class="p-EBAE56" d="M23.794 17.334h-5.477v1.826h5.477v-1.826z" fill="#76B7E2"/><path class="p-714C2F" d="M20.143 0h-6.39v2.668h6.39V0z" fill="#5FBEFF"/><path class="p-FF637B" d="M13.753 4.554C6.195 4.554 0 10.688 0 18.247 0 25.805 6.195 32 13.753 32s13.693-6.195 13.693-13.753c0-7.559-6.135-13.693-13.693-13.693zm0 25.62c-6.536 0-11.927-5.392-11.927-11.927 0-6.536 5.391-11.867 11.927-11.867S25.62 11.71 25.62 18.247c0 6.535-5.33 11.927-11.867 11.927z" fill="#5FBEFF"/><path class="p-E63950" d="M27.445 18.247C27.445 25.805 21.311 32 13.753 32v-1.826c6.536 0 11.867-5.392 11.867-11.927 0-6.536-5.331-11.867-11.867-11.867V4.554c7.558 0 13.692 6.134 13.692 13.693zM25.592 4.567a4.567 4.567 0 00-.824-.074h-2.739V2.668h2.739c.392 0 .776.035 1.149.102l-.325 1.797zM31.157 24.576h-1.825V9.058a4.575 4.575 0 00-1.037-2.897L29.705 5a6.4 6.4 0 011.452 4.057v15.518z" fill="#4D98CB"/><path class="p-BABAC0" d="M26.035 5.966a2.737 2.737 0 010-3.873l.449-.449a2.74 2.74 0 013.872 0 2.74 2.74 0 010 3.873l-.448.448a2.737 2.737 0 01-3.873.001z" fill="#B9DFFC"/><path class="p-BABAC0" d="M27.325 5.965l-1.29-1.29-11.588 11.587 1.29 1.29L27.325 5.966z" fill="#B9DFFC"/><path class="p-FF637B" d="M16.491 18.064c-.018-1.168-.803-2.172-1.935-2.52a2.623 2.623 0 00-.803-2.61c-.146-.128-.292-.256-.475-.347-1.04-.602-2.3-.402-3.176.402-.858-.804-2.1-1.004-3.213-.384-1.023.603-1.516 1.771-1.242 2.958-1.132.347-1.935 1.333-1.935 2.629.018 1.205.84 2.19 1.935 2.52-.274 1.15.2 2.318 1.278 2.957 1.04.602 2.3.42 3.177-.384.858.785 2.1 1.005 3.213.366.164-.092.31-.201.438-.33.73-.638 1.04-1.66.803-2.628 1.132-.347 1.935-1.333 1.935-2.629z" fill="#5FBEFF"/><path class="p-E63950" d="M13.753 23.322V12.934a2.623 2.623 0 01.803 2.61c1.132.347 1.917 1.352 1.935 2.52 0 1.296-.803 2.282-1.935 2.629.238.967-.073 1.99-.803 2.629z" fill="#4D98CB"/><path class="p-FBC56D" d="M8.736 20.506a2.742 2.742 0 01-1.007-3.74 2.744 2.744 0 013.74-1.007 2.743 2.743 0 011.008 3.74 2.743 2.743 0 01-3.74 1.008z" fill="#B9DFFC"/></svg>