<svg width="16" height="32" viewBox="0 0 16 32" fill="none" xmlns="http://www.w3.org/2000/svg">
<path class="p-ACABB1" d="M14 6.4V0H11.6V2C11.6 2.66274 11.0627 3.2 10.4 3.2C9.73726 3.2 9.2 2.66274 9.2 2V0H6.8V2C6.8 2.66274 6.26274 3.2 5.6 3.2C4.93726 3.2 4.4 2.66274 4.4 2V0H2V6.4H8H14Z" fill="#B9DFFC"/>
<path class="p-565659" d="M6.80039 0H4.40039V2C4.40039 2.66274 4.93765 3.2 5.60039 3.2C6.26313 3.2 6.80039 2.66274 6.80039 2V0Z" fill="#4D98CB"/>
<path class="p-565659" d="M11.6002 0H9.2002V1.99999C9.2002 2.66274 9.73746 3.2 10.4002 3.2C11.0629 3.2 11.6002 2.66274 11.6002 1.99999V0Z" fill="#4D98CB"/>
<path class="p-FFDA44" d="M4 23.9999C4 21.7908 5.79088 19.9999 8 19.9999C8 13.274 8 6.3999 8 6.3999H2H0V23.9999C0 28.4181 3.58168 31.9999 8 31.9999C8 31.1883 8 29.7685 8 27.9999C5.79088 27.9999 4 26.209 4 23.9999Z" fill="#65B3E7"/>
<path class="p-FF9811" d="M14 6.3999H8C8 6.3999 8 13.274 8 19.9999C10.2091 19.9999 11.1351 21.7908 11.1351 23.9999C11.1351 26.209 10.2091 27.9999 8 27.9999C8 29.7685 8 31.1883 8 31.9999C12.4182 31.9999 16 28.4181 16 23.9999V6.3999H14Z" fill="#4D98CB"/>
<path class="p-FFFFFF" d="M7.99971 27.9999C10.2088 27.9999 11.7835 26.5945 11.6754 23.3512C11.6754 21.1421 10.2088 17.4053 7.99971 17.4053C5.79057 17.4053 3.8916 20.2772 3.8916 23.3512C3.8916 26.4252 5.79057 27.9999 7.99971 27.9999Z" fill="white"/>
</svg>
