<svg width="37" height="37" fill="none" xmlns="http://www.w3.org/2000/svg"><path class="p-F8E99B" d="M8.605 6.023C8.605 2.697 12.843 0 18.071 0c5.227 0 9.465 2.697 9.465 6.023v5.163H8.606V6.023z" fill="#B9DFFC"/><path class="p-F5DC60" d="M27.535 6.023v5.163H18.07V0c5.228 0 9.465 2.697 9.465 6.023z" fill="#A1D1FD"/><path class="p-99A1EA" d="M27.536 6.023H8.606v5.163h18.93V6.023z" fill="#58ADE5"/><path class="p-717AE1" d="M27.535 6.023H18.07v5.163h9.465V6.023z" fill="#4D98CB"/><path class="p-F8E99B" d="M0 15.489l8.605-9.466 9.465 4.865 9.465-4.865 8.605 9.466-.86 4.302-6.885-5.726 1.721 18.93L18.07 37 6.023 32.996l1.721-18.93L.86 19.79 0 15.489z" fill="#B9DFFC"/><path class="p-F5DC60" d="M27.535 6.023l8.605 9.466-.86 4.302-6.884-5.726 1.72 18.93L18.07 37V10.888l9.465-4.865z" fill="#A1D1FD"/><path class="p-58575D" d="M22.803 17.64a1.723 1.723 0 01-1.721-1.721c0-.95.772-1.721 1.721-1.721.949 0 1.72.772 1.72 1.72 0 .95-.771 1.722-1.72 1.722zM22.803 23.662c-.949 0-1.721-.771-1.721-1.72 0-.95.772-1.721 1.721-1.721.949 0 1.72.772 1.72 1.72 0 .95-.771 1.721-1.72 1.721zM22.803 29.686c-.949 0-1.721-.772-1.721-1.72 0-.95.772-1.722 1.721-1.722.949 0 1.72.772 1.72 1.721 0 .949-.771 1.72-1.72 1.72z" fill="#4D98CB"/></svg>