<svg width="31" height="34" fill="none" xmlns="http://www.w3.org/2000/svg"><path class="p-895D3C" d="M30.746 4.09H0v1.141l30.746.905V4.09z" fill="#58ADE5"/><path class="p-714C2F" d="M30.746 4.09H13.362v1.336l17.384.71V4.09z" fill="#4D98CB"/><path class="p-F4D7AF" d="M4.792 18.277l-1.309-1.575c2.332-1.963 2.945-5.413 1.452-8.01-1.41-2.454-1.41-5.297-.245-7.67h2.372c-1.39 1.923-1.595 4.5-.347 6.647 1.984 3.477 1.166 8.01-1.923 10.608z" fill="#A1D1FD"/><path class="p-F4D7AF" d="M11.583 14.084c-.593 2.168-2.045 3.988-4.09 5.154l-1.003-1.8c1.555-.879 2.68-2.27 3.13-3.885.429-1.596.224-3.45-.594-4.861a8.227 8.227 0 01-.715-6.504 5.79 5.79 0 01.47-1.166h2.331a6.689 6.689 0 00-.859 1.76c-.49 1.635-.306 3.415.553 4.887 1.063 1.902 1.37 4.33.777 6.415z" fill="#A1D1FD"/><path class="p-F4D7AF" d="M15.55 14.514a7.992 7.992 0 01-2.188 3.395c-.777.757-1.697 1.35-2.76 1.8l-.798-1.882c1.636-.695 2.883-1.882 3.558-3.375.103-.184.184-.388.246-.593.49-1.472.409-3.245-.246-4.656a2.908 2.908 0 00-.245-.511 8.203 8.203 0 01-.655-6.708c.103-.328.246-.655.389-.962h2.372c-.368.491-.634 1.044-.838 1.616a6.203 6.203 0 00.511 5.031c1.166 2.045 1.39 4.616.655 6.845z" fill="#A1D1FD"/><path class="p-00C8C8" d="M20.52 30.712V34H6.136v-3.288l7.226-2.046 7.158 2.046z" fill="#65B3E7"/><path class="p-1CADB5" d="M20.52 30.712V34h-7.158v-5.334l7.158 2.046z" fill="#4D98CB"/><path class="p-00C8C8" d="M0 15.357v4.209c0 .572.45 1.022 1.023 1.022h24.61c.573 0 1.023-.45 1.023-1.022v-4.209H0z" fill="#65B3E7"/><path class="p-1CADB5" d="M26.656 15.357v4.209c0 .572-.45 1.022-1.023 1.022h-12.27v-5.23h13.293z" fill="#4D98CB"/><path class="p-64E1DC" d="M26.656 19.566v4.09c0 3.6-2.68 6.545-6.136 7.056H6.136C2.679 30.2 0 27.256 0 23.656v-4.09h26.656z" fill="#B9DFFC"/><path class="p-00C8C8" d="M26.656 19.566v4.09c0 3.6-2.68 6.545-6.136 7.056h-7.158V19.566h13.294z" fill="#A1D1FD"/><path class="p-895D3C" d="M30.746 0L0 .904v1.141h30.746V0z" fill="#58ADE5"/><path class="p-714C2F" d="M30.746 0L13.362.593v1.452h17.384V0z" fill="#4D98CB"/></svg>