<svg width="52" height="35" fill="none" xmlns="http://www.w3.org/2000/svg"><path d="M27.936 0l-6.534 12.55-3.016.545L11.349 0h16.587z" fill="#99D4FF"/><circle cx="41.438" cy="23.796" r="9.813" fill="#99D4FF" stroke="#5181B8" stroke-width="1.5"/><path d="M34.472 5.72l.493-.394v5.783a.63.63 0 101.261 0V5.326l.493.394a.628.628 0 00.887-.098.63.63 0 00-.099-.887L35.99 3.521l-.005-.004a.624.624 0 00-.085-.056H35.9a.629.629 0 00-.09-.04l-.012-.005a.63.63 0 00-.296-.025l-.016.002a.627.627 0 00-.09.023l-.013.005a.631.631 0 00-.175.097c-.002 0-.004.002-.005.003l-1.518 1.214a.63.63 0 00.788.985zM42.403 2.337l.492-.394v5.783a.63.63 0 001.262 0V1.943l.493.394a.628.628 0 00.887-.098.63.63 0 00-.099-.887L43.92.138l-.005-.003a.623.623 0 00-.084-.057h-.002a.634.634 0 00-.09-.04l-.012-.005a.63.63 0 00-.09-.023l-.016-.002a.628.628 0 00-.19 0l-.015.002a.627.627 0 00-.09.023l-.013.005a.62.62 0 00-.09.04h-.001a.632.632 0 00-.084.057l-.005.003-1.518 1.214a.63.63 0 00.788.985zM47.974 20.328a.63.63 0 10-1.107.605c.487.89.744 1.902.744 2.925A6.12 6.12 0 0141.5 29.97a6.12 6.12 0 01-6.112-6.112 6.12 6.12 0 016.112-6.113c1.428 0 2.817.503 3.912 1.416a.63.63 0 00.808-.969 7.382 7.382 0 00-4.72-1.708c-4.066 0-7.374 3.308-7.374 7.374s3.308 7.374 7.374 7.374 7.374-3.308 7.374-7.374c0-1.234-.31-2.454-.899-3.53z" fill="#5181B8"/><path d="M41.499 28.728a.63.63 0 00.63-.63v-.66h.207a2.108 2.108 0 002.106-2.105 2.108 2.108 0 00-2.106-2.106H40.66a.845.845 0 010-1.688h2.456a.63.63 0 100-1.262h-.987v-.658a.63.63 0 10-1.262 0v.658h-.207a2.108 2.108 0 00-2.105 2.106c0 1.161.944 2.106 2.105 2.106h1.675a.845.845 0 010 1.688H39.88a.63.63 0 100 1.262h.987v.658c0 .349.282.631.63.631z" fill="#5181B8"/><path d="M16.25 7.313h7.313l7.64 12.37c4.115 6.662-.678 15.255-8.508 15.255h-7.066c-7.091 0-11.634-7.546-8.316-13.813L16.25 7.312z" fill="#99D4FF"/><circle cx="41.438" cy="23.796" r="10.563" fill="#99D4FF"/><path d="M52 23.796c0 5.834-4.729 10.563-10.562 10.563-.407.124 0-3.804 0-10.563 0-5.833-.843-10.562 0-10.562C47.27 13.234 52 17.963 52 23.796z" fill="#8BCDFC"/><path d="M34.472 5.72l.493-.394v5.783a.63.63 0 101.261 0V5.326l.493.394a.628.628 0 00.887-.098.63.63 0 00-.099-.887L35.99 3.521l-.005-.004a.624.624 0 00-.085-.056H35.9a.629.629 0 00-.09-.04l-.012-.005a.63.63 0 00-.296-.025l-.016.002a.627.627 0 00-.09.023l-.013.005a.631.631 0 00-.175.097c-.002 0-.004.002-.005.003l-1.518 1.214a.63.63 0 00.788.985z" fill="#318CCA"/><path d="M42.403 2.337l.492-.394v5.783a.63.63 0 001.262 0V1.943l.493.394a.628.628 0 00.887-.098.63.63 0 00-.099-.887L43.92.138l-.005-.003a.623.623 0 00-.084-.057h-.002a.634.634 0 00-.09-.04l-.012-.005a.63.63 0 00-.09-.023l-.016-.002a.628.628 0 00-.19 0l-.015.002a.627.627 0 00-.09.023l-.013.005a.62.62 0 00-.09.04h-.001a.632.632 0 00-.084.057l-.005.003-1.518 1.214a.63.63 0 00.788.985zM47.974 20.328a.63.63 0 10-1.107.605c.487.89.744 1.902.744 2.925A6.12 6.12 0 0141.5 29.97a6.12 6.12 0 01-6.112-6.112 6.12 6.12 0 016.112-6.113c1.428 0 2.817.503 3.912 1.416a.63.63 0 00.808-.969 7.382 7.382 0 00-4.72-1.708c-4.066 0-7.374 3.308-7.374 7.374s3.308 7.374 7.374 7.374 7.374-3.308 7.374-7.374c0-1.234-.31-2.454-.899-3.53z" fill="#5181B8"/><path d="M41.499 28.728a.63.63 0 00.63-.63v-.66h.207a2.108 2.108 0 002.106-2.105 2.108 2.108 0 00-2.106-2.106H40.66a.845.845 0 010-1.688h2.456a.63.63 0 100-1.262h-.987v-.658a.63.63 0 10-1.262 0v.658h-.207a2.108 2.108 0 00-2.105 2.106c0 1.161.944 2.106 2.105 2.106h1.675a.845.845 0 010 1.688H39.88a.63.63 0 100 1.262h.987v.658c0 .349.282.631.63.631z" fill="#318CCA"/><path fill-rule="evenodd" clip-rule="evenodd" d="M20.08 12.789l1.322-.24L27.935 0h-7.857v12.789z" fill="#8BCDFC"/><path fill-rule="evenodd" clip-rule="evenodd" d="M20.08 34.937h2.616c7.83 0 12.623-8.593 8.508-15.255l-7.64-12.37H20.08v27.625z" fill="#8BCDFC"/><path d="M20.079 6.984h4.365a.873.873 0 110 1.746h-4.365V6.984z" fill="#5181B8"/><path d="M8.73 7.857c0-.482.39-.873.873-.873h10.476V8.73H9.603a.873.873 0 01-.873-.873z" fill="#318CCA"/><path d="M10.175 4.013a.609.609 0 01.833-.223l7.8 4.525h-2.4l-6.01-3.47a.609.609 0 01-.223-.832z" fill="#318CCA"/></svg>