<svg xmlns="http://www.w3.org/2000/svg"><defs><font id="OpenSans-Bold" horiz-adv-x="1169"><font-face font-family="Open Sans" font-weight="700" units-per-em="2048" panose-1="2 11 8 6 3 5 4 2 2 4" ascent="1638" descent="-410" x-height="1118" cap-height="1462" bbox="-1268 -600 2701 2189" underline-thickness="102" underline-position="-307" unicode-range="U+0020-FFFD"/><glyph glyph-name="ff" unicode="ff" horiz-adv-x="1585" d="M778 889H514V0H209v889H41v147l168 82v82q0 191 94 279t301 88q158 0 281-47l-78-224q-92 29-170 29-65 0-94-38.5t-29-98.5v-70h264V889zm793 0h-264V0h-305v889H834v147l168 82v82q0 191 94 279t301 88q158 0 281-47l-78-224q-92 29-170 29-65 0-94-38.5t-29-98.5v-70h264V889z"/><glyph glyph-name="uniFB01" unicode="fi" horiz-adv-x="1417" d="M778 889H514V0H209v889H41v147l168 82v82q0 191 94 279t301 88q158 0 281-47l-78-224q-92 29-170 29-65 0-94-38.5t-29-98.5v-70h264V889zm162 518q0 149 166 149t166-149q0-71-41.5-110.5T1106 1257q-166 0-166 150zM1258 0H953v1118h305V0z"/><glyph glyph-name="uniFB02" unicode="fl" horiz-adv-x="1417" d="M778 889H514V0H209v889H41v147l168 82v82q0 191 94 279t301 88q158 0 281-47l-78-224q-92 29-170 29-65 0-94-38.5t-29-98.5v-70h264V889zM1258 0H953v1556h305V0z"/><glyph glyph-name="uniFB03" unicode="ffi" horiz-adv-x="2208" d="M778 889H514V0H209v889H41v147l168 82v82q0 191 94 279t301 88q158 0 281-47l-78-224q-92 29-170 29-65 0-94-38.5t-29-98.5v-70h264V889zm793 0h-264V0h-305v889H834v147l168 82v82q0 191 94 279t301 88q158 0 281-47l-78-224q-92 29-170 29-65 0-94-38.5t-29-98.5v-70h264V889zm159 518q0 149 166 149t166-149q0-71-41.5-110.5T1896 1257q-166 0-166 150zM2048 0h-305v1118h305V0z"/><glyph glyph-name="uniFB04" unicode="ffl" horiz-adv-x="2208" d="M778 889H514V0H209v889H41v147l168 82v82q0 191 94 279t301 88q158 0 281-47l-78-224q-92 29-170 29-65 0-94-38.5t-29-98.5v-70h264V889zm793 0h-264V0h-305v889H834v147l168 82v82q0 191 94 279t301 88q158 0 281-47l-78-224q-92 29-170 29-65 0-94-38.5t-29-98.5v-70h264V889zM2048 0h-305v1556h305V0z"/><glyph glyph-name=".notdef" horiz-adv-x="1229" d="M193 1462h841V0H193v1462zM297 104h633v1254H297V104z"/><glyph glyph-name=".null" horiz-adv-x="0"/><glyph glyph-name="nonmarkingreturn" horiz-adv-x="1044"/><glyph glyph-name="space" horiz-adv-x="532"/><glyph glyph-name="exclam" unicode="!" horiz-adv-x="586" d="M416 485H172l-51 977h346zM117 143q0 84 45 127t131 43q83 0 128.5-44T467 143q0-79-46-124.5T293-27q-84 0-130 44.5T117 143z"/><glyph glyph-name="quotedbl" unicode="&quot;" horiz-adv-x="967" d="M412 1462l-41-528H174l-41 528h279zm422 0l-41-528H596l-41 528h279z"/><glyph glyph-name="numbersign" unicode="#" horiz-adv-x="1323" d="M999 844l-47-232h258V406H913L836 0H616l78 406H500L424 0H209l74 406H45v206h277l47 232H117v209h289l77 407h219l-77-407h198l78 407h215l-78-407h240V844H999zM539 612h196l47 232H586z"/><glyph glyph-name="dollar" unicode="$" d="M1092 457q0-159-115-255.5T655 86v-205H518V82q-244 5-428 86v264q87-43 209.5-76T518 317v310l-67 26q-198 78-280.5 169.5T88 1049q0 145 113.5 238.5T518 1401v153h137v-149q229-10 414-92l-94-234q-156 64-320 78V862q195-75 277.5-130t121-121 38.5-154zm-301-15q0 42-34 71t-102 60V324q136 23 136 118zm-402 607q0-44 30.5-72.5T518 918v235q-129-19-129-104z"/><glyph glyph-name="percent" unicode="%" horiz-adv-x="1845" d="M315 1024q0-127 22.5-189.5T410 772q96 0 96 252 0 250-96 250-50 0-72.5-61.5T315 1024zm443 2q0-230-89-345.5T408 565q-165 0-255 118.5T63 1026q0 457 345 457 169 0 259.5-118.5T758 1026zm688 436L635 0H395l811 1462h240zM1339 440q0-127 22.5-189.5T1434 188q96 0 96 252 0 250-96 250-50 0-72.5-61.5T1339 440zm443 2q0-229-89-344.5T1432-18q-165 0-255 118.5T1087 442q0 457 345 457 169 0 259.5-118.5T1782 442z"/><glyph glyph-name="ampersand" unicode="&amp;" horiz-adv-x="1536" d="M1536 0h-377l-115 113Q853-20 612-20 368-20 225 92T82 395q0 137 60.5 233.5T350 809q-75 86-109 164.5T207 1145q0 152 116.5 245t311.5 93q186 0 297.5-86.5T1044 1165q0-119-69-217.5T752 760l284-277q71 117 123 301h318q-36-135-99-263.5T1235 293zM403 424q0-86 64.5-137T633 236q126 0 227 61L528 627q-58-44-91.5-92T403 424zm359 709q0 53-36 83.5t-93 30.5q-67 0-105.5-32t-38.5-91q0-88 95-194 86 48 132 94.5t46 108.5z"/><glyph glyph-name="quotesingle" unicode="'" horiz-adv-x="545" d="M412 1462l-41-528H174l-41 528h279z"/><glyph glyph-name="parenleft" unicode="(" horiz-adv-x="694" d="M82 561q0 265 77.5 496T383 1462h250q-141-193-213-424t-72-475q0-245 73.5-473.5T631-324H383Q236-154 159 73T82 561z"/><glyph glyph-name="parenright" unicode=")" horiz-adv-x="694" d="M612 561q0-263-77.5-490T311-324H63Q198-140 272 88.5T346 563q0 244-72 475T61 1462h250q147-175 224-406.5T612 561z"/><glyph glyph-name="asterisk" unicode="*" horiz-adv-x="1116" d="M688 1556l-41-368 373 104 33-252-340-24 223-297-227-121-156 313-137-311-236 119 221 297-338 26 39 250 365-104-41 368h262z"/><glyph glyph-name="plus" unicode="+" d="M475 612H88v219h387v390h219V831h387V612H694V227H475v385z"/><glyph glyph-name="comma" unicode="," horiz-adv-x="594" d="M459 215Q407 13 283-264H63Q128 2 164 238h280z"/><glyph glyph-name="hyphen" unicode="-" horiz-adv-x="659" d="M61 424v250h537V424H61z"/><glyph glyph-name="period" unicode="." horiz-adv-x="584" d="M117 143q0 84 45 127t131 43q83 0 128.5-44T467 143q0-79-46-124.5T293-27q-84 0-130 44.5T117 143z"/><glyph glyph-name="slash" unicode="/" horiz-adv-x="846" d="M836 1462L291 0H14l545 1462h277z"/><glyph glyph-name="zero" unicode="0" d="M1096 731q0-383-125.5-567T584-20q-253 0-381.5 190T74 731q0 387 125 570.5T584 1485q253 0 382.5-192T1096 731zm-715 0q0-269 46.5-385.5T584 229q108 0 156 118t48 384q0 269-48.5 386.5T584 1235q-109 0-156-117.5T381 731z"/><glyph glyph-name="one" unicode="1" d="M846 0H537v846l3 139 5 152q-77-77-107-101L270 901l-149 186 471 375h254V0z"/><glyph glyph-name="two" unicode="2" d="M1104 0H82v215l367 371q163 167 213 231.5T734 937t22 114q0 88-48.5 131T578 1225q-85 0-165-39t-167-111L78 1274q108 92 179 130t155 58.5 188 20.5q137 0 242-50t163-140 58-206q0-101-35.5-189.5T917.5 716 655 451L467 274v-14h637V0z"/><glyph glyph-name="three" unicode="3" d="M1047 1135q0-137-83-233T731 770v-6q177-22 268-107.5t91-230.5q0-211-153-328.5T500-20Q262-20 78 59v263q85-43 187-70t202-27q153 0 226 52t73 167q0 103-84 146t-268 43H303v237h113q170 0 248.5 44.5T743 1067q0 166-208 166-72 0-146.5-24T223 1126L80 1339q200 144 477 144 227 0 358.5-92t131.5-256z"/><glyph glyph-name="four" unicode="4" d="M1137 303H961V0H659v303H35v215l641 944h285V543h176V303zM659 543v248q0 62 5 180t8 137h-8q-37-82-89-160L307 543h352z"/><glyph glyph-name="five" unicode="5" d="M614 934q212 0 337.5-119T1077 489q0-245-151-377T494-20q-244 0-394 79v267q79-42 184-68.5T483 231q283 0 283 232 0 221-293 221-53 0-117-10.5T252 651l-123 66 55 745h793v-262H455l-27-287 35 7q61 14 151 14z"/><glyph glyph-name="six" unicode="6" d="M72 621q0 434 183.5 646T805 1479q125 0 196-15v-247q-89 20-176 20-159 0-259.5-48T415 1047t-59-267h13q99 170 317 170 196 0 307-123t111-340q0-234-132-370.5T606-20q-162 0-282.5 75t-186 219T72 621zm528-394q99 0 152 66.5T805 483q0 107-49.5 168.5T606 713q-94 0-160.5-61T379 510q0-119 62.5-201T600 227z"/><glyph glyph-name="seven" unicode="7" d="M227 0l549 1200H55v260h1049v-194L551 0H227z"/><glyph glyph-name="eight" unicode="8" d="M586 1481q210 0 338.5-95.5T1053 1128q0-112-62-199.5T791 772q164-88 235.5-183.5T1098 379q0-180-141-289.5T586-20Q346-20 209 82T72 371q0 125 66.5 222T352 764q-125 79-180 169t-55 197q0 157 130 254t339 97zM358 389q0-86 60-134t164-48q115 0 172 49.5T811 387q0 67-56.5 125.5T571 637q-213-98-213-248zm226 866q-79 0-127.5-40.5T408 1106q0-60 38.5-107.5T586 901q98 46 137 94t39 111q0 69-50 109t-128 40z"/><glyph glyph-name="nine" unicode="9" d="M1098 838q0-432-182-645T365-20Q235-20 168-6v248q84-21 176-21 155 0 255 45.5t153 143T813 678h-12q-58-94-134-132t-190-38q-191 0-301 122.5T66 971q0 235 133.5 371.5T563 1479q162 0 283.5-76t186.5-220.5 65-344.5zm-529 393q-96 0-150-66t-54-190q0-106 49-168t149-62q94 0 161 61.5T791 948q0 119-62.5 201T569 1231z"/><glyph glyph-name="colon" unicode=":" horiz-adv-x="584" d="M117 143q0 84 45 127t131 43q83 0 128.5-44T467 143q0-79-46-124.5T293-27q-84 0-130 44.5T117 143zm0 826q0 84 45 127t131 43q83 0 128.5-44T467 969q0-81-46.5-125.5T293 799q-84 0-130 44t-46 126z"/><glyph glyph-name="semicolon" unicode=";" horiz-adv-x="594" d="M444 238l15-23Q407 13 283-264H63Q128 2 164 238h280zM117 969q0 84 45 127t131 43q83 0 128.5-44T467 969q0-81-46.5-125.5T293 799q-84 0-130 44t-46 126z"/><glyph glyph-name="less" unicode="&lt;" d="M1081 203L88 641v143l993 496v-240L397 723l684-281V203z"/><glyph glyph-name="equal" unicode="=" d="M88 805v219h993V805H88zm0-387v219h993V418H88z"/><glyph glyph-name="greater" unicode="&gt;" d="M88 442l684 281-684 317v240l993-496V641L88 203v239z"/><glyph glyph-name="question" unicode="?" horiz-adv-x="977" d="M276 485v74q0 96 41 167t150 151q105 75 138.5 122t33.5 105q0 65-48 99t-134 34q-150 0-342-98L6 1358q223 125 473 125 206 0 327.5-99T928 1120q0-110-50-190T688 750q-96-71-121.5-108T541 545v-60H276zm-32-342q0 84 45 127t131 43q83 0 128.5-44T594 143q0-79-46-124.5T420-27q-84 0-130 44.5T244 143z"/><glyph glyph-name="at" unicode="@" horiz-adv-x="1837" d="M1735 752q0-144-46-263.5T1559 301t-195-68q-74 0-131 35.5t-82 93.5h-16q-108-129-275-129-177 0-279 106.5T479 631q0 211 134 340t350 129q86 0 189.5-16.5T1323 1044l-23-489q0-139 76-139 64 0 102 93.5t38 244.5q0 161-67 284.5T1260.5 1227 983 1292q-202 0-351-83T403.5 969.5 324 608q0-276 147.5-423.5T899 37q106 0 233 23.5t250 68.5V-63q-214-91-475-91-380 0-592.5 200T102 602q0 247 108.5 448.5t309 316T981 1481q220 0 393-90t267-256 94-383zM711 627q0-211 172-211 90 0 137 63.5t57 206.5l13 221q-51 11-115 11-125 0-194.5-78T711 627z"/><glyph glyph-name="A" unicode="A" horiz-adv-x="1413" d="M1079 0L973 348H440L334 0H0l516 1468h379L1413 0h-334zM899 608q-147 473-165.5 535t-26.5 98q-33-128-189-633h381z"/><glyph glyph-name="B" unicode="B" horiz-adv-x="1376" d="M184 1462h455q311 0 451.5-88.5T1231 1092q0-131-61.5-215T1006 776v-10q139-31 200.5-116t61.5-226q0-200-144.5-312T731 0H184v1462zm310-579h180q126 0 182.5 39t56.5 129q0 84-61.5 120.5T657 1208H494V883zm0-246V256h202q128 0 189 49t61 150q0 182-260 182H494z"/><glyph glyph-name="C" unicode="C" horiz-adv-x="1305" d="M805 1225q-175 0-271-131.5T438 727q0-489 367-489 154 0 373 77V55Q998-20 776-20q-319 0-488 193.5T119 729q0 228 83 399.5t238.5 263T805 1483q213 0 428-103l-100-252q-82 39-165 68t-163 29z"/><glyph glyph-name="D" unicode="D" horiz-adv-x="1516" d="M1397 745q0-361-205.5-553T598 0H184v1462h459q358 0 556-189t198-528zm-322-8q0 471-416 471H494V256h133q448 0 448 481z"/><glyph glyph-name="E" unicode="E" horiz-adv-x="1147" d="M1026 0H184v1462h842v-254H494V887h495V633H494V256h532V0z"/><glyph glyph-name="F" unicode="F" horiz-adv-x="1124" d="M489 0H184v1462h838v-254H489V831h496V578H489V0z"/><glyph glyph-name="G" unicode="G" horiz-adv-x="1483" d="M739 821h580V63q-141-46-265.5-64.5T799-20q-331 0-505.5 194.5T119 733q0 354 202.5 552T883 1483q225 0 434-90l-103-248q-160 80-333 80-201 0-322-135T438 727q0-238 97.5-363.5T819 238q97 0 197 20v305H739v258z"/><glyph glyph-name="H" unicode="H" horiz-adv-x="1567" d="M1382 0h-309v631H494V0H184v1462h310V889h579v573h309V0z"/><glyph glyph-name="I" unicode="I" horiz-adv-x="678" d="M184 0v1462h310V0H184z"/><glyph glyph-name="J" unicode="J" horiz-adv-x="678" d="M31-430q-105 0-183 22v258q80-20 146-20 102 0 146 63.5T184 92v1370h310V94q0-256-117-390T31-430z"/><glyph glyph-name="K" unicode="K" horiz-adv-x="1360" d="M1360 0h-352L625 616l-131-94V0H184v1462h310V793l122 172 396 497h344L846 815z"/><glyph glyph-name="L" unicode="L" horiz-adv-x="1157" d="M184 0v1462h310V256h593V0H184z"/><glyph glyph-name="M" unicode="M" horiz-adv-x="1931" d="M803 0L451 1147h-9q19-350 19-467V0H184v1462h422L952 344h6l367 1118h422V0h-289v692q0 49 1.5 113t13.5 340h-9L1087 0H803z"/><glyph glyph-name="N" unicode="N" horiz-adv-x="1665" d="M1481 0h-394L451 1106h-9q19-293 19-418V0H184v1462h391l635-1095h7q-15 285-15 403v692h279V0z"/><glyph glyph-name="O" unicode="O" horiz-adv-x="1630" d="M1511 733q0-363-180-558T815-20 299 175 119 735t180.5 557.5T817 1485t515.5-194T1511 733zm-1067 0q0-245 93-369t278-124q371 0 371 493 0 494-369 494-185 0-279-124.5T444 733z"/><glyph glyph-name="P" unicode="P" horiz-adv-x="1286" d="M494 774h102q143 0 214 56.5T881 995q0 109-59.5 161T635 1208H494V774zm700 232q0-236-147.5-361T627 520H494V0H184v1462h467q266 0 404.5-114.5T1194 1006z"/><glyph glyph-name="Q" unicode="Q" horiz-adv-x="1630" d="M1511 733q0-258-91.5-432.5T1151 45l352-393h-397L838-20h-23q-336 0-516 195T119 735t180.5 557.5T817 1485t515.5-194T1511 733zm-1067 0q0-245 93-369t278-124q371 0 371 493 0 494-369 494-185 0-279-124.5T444 733z"/><glyph glyph-name="R" unicode="R" horiz-adv-x="1352" d="M494 813h100q147 0 217 49t70 154q0 104-71.5 148T588 1208h-94V813zm0-252V0H184v1462h426q298 0 441-108.5t143-329.5q0-129-71-229.5T922 637q330-493 430-637h-344L659 561H494z"/><glyph glyph-name="S" unicode="S" horiz-adv-x="1128" d="M1047 406q0-198-142.5-312T508-20Q274-20 94 68v288q148-66 250.5-93T532 236q102 0 156.5 39T743 391q0 43-24 76.5T648.5 532 459 631q-134 63-201 121T151 887t-40 180q0 194 131.5 305T606 1483q114 0 217.5-27t216.5-76l-100-241q-117 48-193.5 67T596 1225q-88 0-135-41t-47-107q0-41 19-71.5t60.5-59T690 844q205-98 281-196.5t76-241.5z"/><glyph glyph-name="T" unicode="T" horiz-adv-x="1186" d="M748 0H438v1204H41v258h1104v-258H748V0z"/><glyph glyph-name="U" unicode="U" horiz-adv-x="1548" d="M1374 1462V516q0-162-72.5-284T1092 45 768-20q-282 0-438 144.5T174 520v942h309V567q0-169 68-248t225-79q152 0 220.5 79.5T1065 569v893h309z"/><glyph glyph-name="V" unicode="V" horiz-adv-x="1331" d="M1018 1462h313L834 0H496L0 1462h313l275-870q23-77 47.5-179.5T666 270q11 92 75 322z"/><glyph glyph-name="W" unicode="W" horiz-adv-x="1980" d="M1608 0h-353l-198 768q-11 41-37.5 169.5T989 1110q-6-54-30-173.5T922 766L725 0H373L0 1462h305l187-798q49-221 71-383 6 57 27.5 176.5T631 643l213 819h293l213-819q14-55 35-168t32-194q10 78 32 194.5t40 188.5l186 798h305z"/><glyph glyph-name="X" unicode="X" horiz-adv-x="1366" d="M1366 0h-354L672 553 332 0H0l485 754-454 708h342l315-526 309 526h334L872 737z"/><glyph glyph-name="Y" unicode="Y" horiz-adv-x="1278" d="M639 860l305 602h334L793 569V0H485v559L0 1462h336z"/><glyph glyph-name="Z" unicode="Z" horiz-adv-x="1186" d="M1137 0H49v201l701 1005H68v256h1050v-200L418 256h719V0z"/><glyph glyph-name="bracketleft" unicode="[" horiz-adv-x="678" d="M627-324H143v1786h484v-211H403V-113h224v-211z"/><glyph glyph-name="backslash" unicode="\" horiz-adv-x="846" d="M289 1462L834 0H557L12 1462h277z"/><glyph glyph-name="bracketright" unicode="]" horiz-adv-x="678" d="M51-113h223v1364H51v211h484V-324H51v211z"/><glyph glyph-name="asciicircum" unicode="^" horiz-adv-x="1090" d="M8 520l438 950h144l495-950H846l-322 643-280-643H8z"/><glyph glyph-name="underscore" unicode="_" horiz-adv-x="842" d="M846-324H-4v140h850v-140z"/><glyph glyph-name="grave" unicode="`" horiz-adv-x="1243" d="M707 1241q-63 44-185 142.5T332 1548v21h342q63-101 235-301v-27H707z"/><glyph glyph-name="a" unicode="a" horiz-adv-x="1237" d="M870 0l-59 152h-8Q726 55 644.5 17.5T432-20q-161 0-253.5 92T86 334q0 178 124.5 262.5T586 690l194 6v49q0 170-174 170-134 0-315-81l-101 206q193 101 428 101 225 0 345-98t120-298V0H870zm-90 518l-118-4q-133-4-198-48t-65-134q0-129 148-129 106 0 169.5 61T780 426v92z"/><glyph glyph-name="b" unicode="b" horiz-adv-x="1296" d="M782 1139q198 0 310-154.5T1204 561q0-277-115.5-429T774-20q-197 0-309 143h-21L393 0H160v1556h305v-362q0-69-12-221h12q107 166 317 166zm-98-244q-113 0-165-69.5T465 596v-33q0-180 53.5-258T688 227q94 0 149.5 86.5T893 565t-56 247.5T684 895z"/><glyph glyph-name="c" unicode="c" horiz-adv-x="1053" d="M614-20Q92-20 92 553q0 285 142 435.5T641 1139q194 0 348-76l-90-236q-72 29-134 47.5T641 893q-238 0-238-338 0-328 238-328 88 0 163 23.5T954 324V63Q880 16 804.5-2T614-20z"/><glyph glyph-name="d" unicode="d" horiz-adv-x="1296" d="M514-20q-197 0-309.5 153T92 557q0 275 114.5 428.5T522 1139q211 0 322-164h10q-23 125-23 223v358h306V0H903l-59 145h-13Q727-20 514-20zm107 243q117 0 171.5 68T852 522v33q0 180-55.5 258T616 891q-102 0-158.5-86.5T401 553t57-247.5T621 223z"/><glyph glyph-name="e" unicode="e" horiz-adv-x="1210" d="M623 922q-97 0-152-61.5T408 686h428q-2 113-59 174.5T623 922zm43-942q-270 0-422 149T92 551q0 281 140.5 434.5T621 1139q237 0 369-135t132-373V483H401q5-130 77-203t202-73q101 0 191 21t188 67V59Q979 19 888-.5T666-20z"/><glyph glyph-name="f" unicode="f" horiz-adv-x="793" d="M778 889H514V0H209v889H41v147l168 82v82q0 191 94 279t301 88q158 0 281-47l-78-224q-92 29-170 29-65 0-94-38.5t-29-98.5v-70h264V889z"/><glyph glyph-name="g" unicode="g" horiz-adv-x="1157" d="M1133 1118V963l-175-45q48-75 48-168 0-180-125.5-280.5T532 369l-55 3-45 5q-47-36-47-80 0-66 168-66h190q184 0 280.5-79T1120-80q0-196-163.5-304T487-492q-234 0-357.5 81.5T6-182Q6-81 69-13t185 97q-47 20-82 65.5T137 246q0 64 37 106.5T281 436q-88 38-139.5 122T90 756q0 183 119 283t340 100q47 0 111.5-8.5T743 1118h390zM270-158q0-63 60.5-99T500-293q164 0 257 45t93 123q0 63-55 87T625-14H467q-84 0-140.5-39.5T270-158zm111 910q0-91 41.5-144T549 555q86 0 126 53t40 144q0 202-166 202-168 0-168-202z"/><glyph glyph-name="h" unicode="h" horiz-adv-x="1346" d="M1192 0H887v653q0 242-180 242-128 0-185-87t-57-282V0H160v1556h305v-317q0-37-7-174l-7-90h16q102 164 324 164 197 0 299-106t102-304V0z"/><glyph glyph-name="i" unicode="i" horiz-adv-x="625" d="M147 1407q0 149 166 149t166-149q0-71-41.5-110.5T313 1257q-166 0-166 150zM465 0H160v1118h305V0z"/><glyph glyph-name="j" unicode="j" horiz-adv-x="625" d="M70-492q-117 0-201 25v240q70-19 143-19 77 0 112.5 43T160-76v1194h305V-121q0-178-103-274.5T70-492zm77 1899q0 149 166 149t166-149q0-71-41.5-110.5T313 1257q-166 0-166 150z"/><glyph glyph-name="k" unicode="k" horiz-adv-x="1270" d="M453 608l133 170 313 340h344L799 633 1270 0H918L596 453 465 348V0H160v1556h305V862l-16-254h4z"/><glyph glyph-name="l" unicode="l" horiz-adv-x="625" d="M465 0H160v1556h305V0z"/><glyph glyph-name="m" unicode="m" horiz-adv-x="2011" d="M1161 0H856v653q0 121-40.5 181.5T688 895q-117 0-170-86t-53-283V0H160v1118h233l41-143h17q45 77 130 120.5t195 43.5q251 0 340-164h27q45 78 132.5 121t197.5 43q190 0 287.5-97.5T1858 729V0h-306v653q0 121-40.5 181.5T1384 895q-112 0-167.5-80T1161 561V0z"/><glyph glyph-name="n" unicode="n" horiz-adv-x="1346" d="M1192 0H887v653q0 121-43 181.5T707 895q-128 0-185-85.5T465 526V0H160v1118h233l41-143h17q51 81 140.5 122.5T795 1139q195 0 296-105.5T1192 729V0z"/><glyph glyph-name="o" unicode="o" horiz-adv-x="1268" d="M403 561q0-166 54.5-251T635 225q122 0 175.5 84.5T864 561q0 166-54 249t-177 83q-122 0-176-82.5T403 561zm773 0q0-273-144-427T631-20q-161 0-284 70.5T158 253 92 561q0 274 143 426t402 152q161 0 284-70t189-201 66-307z"/><glyph glyph-name="p" unicode="p" horiz-adv-x="1296" d="M774-20q-197 0-309 143h-16q16-140 16-162v-453H160v1610h248l43-145h14q107 166 317 166 198 0 310-153t112-425q0-179-52.5-311T1002 49 774-20zm-90 915q-113 0-165-69.5T465 596v-33q0-180 53.5-258T688 227q205 0 205 338 0 165-50.5 247.5T684 895z"/><glyph glyph-name="q" unicode="q" horiz-adv-x="1296" d="M623 219q116 0 170 66.5T852 518v37q0 180-55.5 258T618 891q-215 0-215-338 0-168 53.5-251T623 219zM514-20q-198 0-310 152.5T92 557q0 274 114.5 428T520 1139q106 0 185-40t139-124h8l27 143h258V-492H831v469q0 61 13 168h-13Q782 64 701 22T514-20z"/><glyph glyph-name="r" unicode="r" horiz-adv-x="930" d="M784 1139q62 0 103-9l-23-286q-37 10-90 10-146 0-227.5-75T465 569V0H160v1118h231l45-188h15q52 94 140.5 151.5T784 1139z"/><glyph glyph-name="s" unicode="s" horiz-adv-x="1018" d="M940 332q0-172-119.5-262T463-20Q341-20 255-3.5T94 45v252q85-40 191.5-67T473 203q166 0 166 96 0 36-22 58.5t-76 51T397 475q-129 54-189.5 100t-88 105.5T92 827q0 149 115.5 230.5T535 1139q202 0 393-88l-92-220q-84 36-157 59t-149 23q-135 0-135-73 0-41 43.5-71T629 680q131-53 192-99t90-106 29-143z"/><glyph glyph-name="t" unicode="t" horiz-adv-x="889" d="M631 223q80 0 192 35V31Q709-20 543-20q-183 0-266.5 92.5T193 350v539H47v129l168 102 88 236h195v-238h313V889H498V350q0-65 36.5-96t96.5-31z"/><glyph glyph-name="u" unicode="u" horiz-adv-x="1346" d="M952 0l-41 143h-16Q846 65 756 22.5T551-20Q354-20 254 85.5T154 389v729h305V465q0-121 43-181.5T639 223q128 0 185 85.5T881 592v526h305V0H952z"/><glyph glyph-name="v" unicode="v" horiz-adv-x="1165" d="M426 0L0 1118h319l216-637q36-121 45-229h6q5 96 45 229l215 637h319L739 0H426z"/><glyph glyph-name="w" unicode="w" horiz-adv-x="1753" d="M1079 0l-86 391-116 494h-7L666 0H338L20 1118h304l129-495q31-133 63-367h6q4 76 35 241l16 85 138 536h336l131-536q4-22 12.5-65t16.5-91.5 14.5-95 7.5-74.5h6q9 72 32 197.5t33 169.5l134 495h299L1411 0h-332z"/><glyph glyph-name="x" unicode="x" horiz-adv-x="1184" d="M389 571L29 1118h346l217-356 219 356h346L793 571 1174 0H827L592 383 356 0H10z"/><glyph glyph-name="y" unicode="y" horiz-adv-x="1165" d="M0 1118h334l211-629q27-82 37-194h6q11 103 43 194l207 629h327L692-143q-65-175-185.5-262T225-492q-79 0-155 17v242q55-13 120-13 81 0 141.5 49.5T426-47l18 55z"/><glyph glyph-name="z" unicode="z" horiz-adv-x="999" d="M938 0H55v180l518 705H86v233h834V920L416 233h522V0z"/><glyph glyph-name="braceleft" unicode="{" horiz-adv-x="807" d="M287 270q0 87-65.5 133T31 449v239q126 0 191 44t65 126v326q0 153 97 215.5t341 62.5v-225q-99-3-136.5-38T551 1096V797q-6-188-234-222v-12q234-35 234-212V43q0-68 37-103t137-38v-226q-244 0-341 62.5T287-45v315z"/><glyph glyph-name="bar" unicode="|" horiz-adv-x="1128" d="M455 1550h219V-465H455v2015z"/><glyph glyph-name="braceright" unicode="}" horiz-adv-x="807" d="M520-45q0-112-41-169t-135.5-83.5T82-324v226q99 2 136.5 36T256 43v310q0 86 59 139.5T489 563v12q-227 34-233 222v299q0 70-37 104t-137 37v225q167 0 262-26.5t135.5-84T520 1184V856q0-84 61.5-126T776 688V449q-125 0-190.5-41T520 270V-45z"/><glyph glyph-name="asciitilde" unicode="~" d="M322 672q-55 0-117.5-33.5T88 551v231q103 109 256 109 73 0 137.5-16T621 827q129-55 227-55 53 0 116 32t117 89V662Q980 553 825 553q-66 0-126 13t-150 50q-131 56-227 56z"/><glyph glyph-name="nonbreakingspace" horiz-adv-x="532"/><glyph glyph-name="exclamdown" unicode="¡" horiz-adv-x="586" d="M168 606h244l51-975H117zm299 342q0-84-45-127t-131-43q-83 0-128.5 44T117 948q0 81 46.5 125.5T291 1118q84 0 130-44t46-126z"/><glyph glyph-name="cent" unicode="¢" d="M563 176q-420 59-420 565 0 261 104.5 403T563 1317v166h178v-158q166-9 299-74l-90-235q-72 29-134 47t-124 18q-121 0-179-83.5T455 743q0-327 237-327 82 0 148 15.5t166 60.5V238q-127-61-265-70V-20H563v196z"/><glyph glyph-name="sterling" unicode="£" d="M700 1483q195 0 390-82l-93-230q-157 64-272 64-78 0-120-44.5T563 1063V870h375V651H563V508q0-170-151-248h718V0H82v248q103 44 141.5 101T262 506v145H84v219h178v195q0 201 114.5 309.5T700 1483z"/><glyph glyph-name="currency" unicode="¤" d="M188 723q0 102 54 197l-129 127 147 147 127-127q91 53 197 53 105 0 196-55l127 129 150-143-129-129q53-89 53-199 0-107-53-199l125-125-146-145-127 125q-95-51-196-51-115 0-199 51L260 256 115 401l127 125q-54 93-54 197zm207 0q0-77 54.5-132.5T584 535q81 0 136.5 55T776 723q0 80-56.5 135T584 913q-78 0-133.5-56T395 723z"/><glyph glyph-name="yen" unicode="¥" d="M584 860l264 602h313L778 715h195V537H727V399h246V221H727V0H440v221H193v178h247v138H193v178h190L6 1462h316z"/><glyph glyph-name="brokenbar" unicode="¦" horiz-adv-x="1128" d="M455 1550h219V735H455v815zm0-1200h219v-815H455v815z"/><glyph glyph-name="section" unicode="§" horiz-adv-x="995" d="M121 805q0 79 36 144.5t97 105.5q-133 84-133 233 0 131 111.5 210t293.5 79q170 0 363-84l-82-190q-68 32-138.5 57.5T520 1386q-81 0-118-23t-37-71q0-49 49.5-86t163.5-82q163-64 240-148.5T895 782q0-177-125-260 62-40 93.5-92.5T895 303q0-148-119.5-235.5T455-20q-203 0-349 79v207q81-41 180-69.5T455 168q194 0 194 117 0 39-18.5 63T567 397.5 442 457q-183 74-252 152.5T121 805zm223 22q0-67 65-119t181-98q78 57 78 146 0 68-50.5 115T434 967q-37-14-63.5-53.5T344 827z"/><glyph glyph-name="dieresis" unicode="¨" horiz-adv-x="1243" d="M279 1405q0 65 37.5 100t101.5 35q66 0 103.5-37t37.5-98q0-60-38-96.5T418 1272q-64 0-101.5 35t-37.5 98zm403 0q0 70 40.5 102.5T823 1540q65 0 103.5-36t38.5-99q0-61-39-97t-103-36q-60 0-100.5 32.5T682 1405z"/><glyph glyph-name="copyright" unicode="©" horiz-adv-x="1704" d="M895 1010q-97 0-150-74t-53-205q0-280 203-280 57 0 123 15t123 44V319q-120-57-252-57-204 0-316 125T461 733q0 220 110.5 342.5T881 1198q149 0 305-78l-74-168q-113 58-217 58zM100 731q0 200 100 375t275 276 377 101q200 0 375-100t276-275 101-377q0-197-97-370T1235 84 852-20Q645-20 470 83.5T197.5 360 100 731zm142 0q0-164 82-305.5t224-223T852 121q164 0 305.5 82t223 224 81.5 304q0 164-82 305.5t-224 223-304 81.5q-164 0-305.5-82t-223-224T242 731z"/><glyph glyph-name="ordfeminine" unicode="ª" horiz-adv-x="784" d="M561 764l-31 110q-43-58-105-90t-136-32q-117 0-179.5 58.5T47 975q0 109 82.5 163.5T397 1202l99 4q0 117-127 117-81 0-217-61l-66 135q66 32 145.5 57t178.5 25q137 0 211.5-71t74.5-202V764H561zM252 977q0-38 23-56t55-18q77 0 121.5 41.5T496 1051v36l-99-6q-145-10-145-104z"/><glyph glyph-name="guillemotleft" unicode="«" horiz-adv-x="1260" d="M82 573l371 455 219-119-279-348 279-348L453 94 82 547v26zm506 0l370 455 220-119-279-348 279-348L958 94 588 547v26z"/><glyph glyph-name="logicalnot" unicode="¬" d="M1081 248H862v364H88v219h993V248z"/><glyph glyph-name="uni00AD" unicode="­" horiz-adv-x="659" d="M61 424v250h537V424H61z"/><glyph glyph-name="registered" unicode="®" horiz-adv-x="1704" d="M1157 905q0-170-143-233l237-400H997L819 610h-47V272H543v916h264q181 0 265.5-70t84.5-213zM772 778h31q66 0 94.5 28.5T926 901q0 65-28 92t-97 27h-29V778zm-672-47q0 200 100 375t275 276 377 101q200 0 375-100t276-275 101-377q0-197-97-370T1235 84 852-20Q645-20 470 83.5T197.5 360 100 731zm142 0q0-164 82-305.5t224-223T852 121q164 0 305.5 82t223 224 81.5 304q0 164-82 305.5t-224 223-304 81.5q-164 0-305.5-82t-223-224T242 731z"/><glyph glyph-name="overscore" unicode="¯" horiz-adv-x="1024" d="M1030 1556H-6v201h1036v-201z"/><glyph glyph-name="degree" unicode="°" horiz-adv-x="877" d="M92 1137q0 92 46 172t126 127 174 47q92 0 172.5-46t127-127 46.5-173q0-93-46.5-173.5T611 838t-173-45q-145 0-245.5 99.5T92 1137zm191 0q0-64 44.5-109T438 983t111 46 45 108q0 63-45.5 110T438 1294q-64 0-109.5-46T283 1137z"/><glyph glyph-name="plusminus" unicode="±" d="M475 674H88v219h387v389h219V893h387V674H694V289H475v385zM88 0v219h993V0H88z"/><glyph glyph-name="twosuperior" unicode="²" horiz-adv-x="776" d="M702 586H55v168l224 219q102 100 130.5 144.5T438 1212q0 38-24 58t-64 20q-81 0-180-88L47 1354q147 129 336 129 137 0 216-66.5t79-183.5q0-85-47-160T455 881l-105-95h352V586z"/><glyph glyph-name="threesuperior" unicode="³" horiz-adv-x="776" d="M666 1249q0-143-170-198v-13q94-20 146-75t52-134q0-121-88-190.5T332 569q-143 0-273 70v190q148-90 271-90 143 0 143 107 0 53-44 79.5T307 952H195v160h92q83 0 123.5 26t40.5 83q0 38-25 63t-76 25q-47 0-89-19t-99-59L61 1372q62 47 137.5 78t178.5 31q127 0 208-64t81-168z"/><glyph glyph-name="acute" unicode="´" horiz-adv-x="1243" d="M332 1241v27q172 200 235 301h342v-21q-52-52-177.5-154.5T535 1241H332z"/><glyph glyph-name="mu" unicode="µ" horiz-adv-x="1352" d="M465 465q0-121 44-181.5T647 223q126 0 183 86.5T887 592v526h305V0H961l-43 150h-15Q861 65 801 22.5T653-20q-62 0-114 23t-84 67l5-85 5-157v-320H160v1610h305V465z"/><glyph glyph-name="paragraph" unicode="¶" horiz-adv-x="1341" d="M1167-260h-161v1616H840V-260H678v819q-62-18-146-18-216 0-317.5 125T113 1042q0 260 109 387t341 127h604V-260z"/><glyph glyph-name="periodcentered" unicode="·" horiz-adv-x="584" d="M117 723q0 84 45 127t131 43q83 0 128.5-44T467 723q0-81-46.5-125.5T293 553q-84 0-130 44t-46 126z"/><glyph glyph-name="cedilla" unicode="¸" horiz-adv-x="420" d="M418-250q0-128-75.5-185T109-492q-78 0-146 21v168q27-7 72.5-14t70.5-7q72 0 72 62 0 83-166 108L90 0h193l-27-61q74-24 118-74.5T418-250z"/><glyph glyph-name="onesuperior" unicode="¹" horiz-adv-x="776" d="M584 586H346v446l3 112 5 95q-27-36-75-78l-78-61-109 127 301 235h191V586z"/><glyph glyph-name="ordmasculine" unicode="º" horiz-adv-x="795" d="M737 1116q0-171-91.5-267.5T395 752q-153 0-245.5 98.5T57 1116q0 169 89.5 266t252.5 97q152 0 245-98.5t93-264.5zm-477 0q0-100 32.5-150.5T397 915t103.5 50.5T532 1116t-31.5 149.5T397 1315t-104.5-49.5T260 1116z"/><glyph glyph-name="guillemotright" unicode="»" horiz-adv-x="1260" d="M1178 547L807 94 588 213l278 348-278 348 219 119 371-455v-26zm-506 0L301 94 82 213l278 348L82 909l219 119 371-455v-26z"/><glyph glyph-name="onequarter" unicode="¼" horiz-adv-x="1804" d="M538 586H300v446l3 112 5 95q-27-36-75-78l-78-61-109 127 301 235h191V586zm832 876L559 0H320l811 1462h239zm312-1310h-125V1h-238v151H936v154l385 577h236V320h125V152zm-363 168v164q0 86 6 184-9-26-35.5-80t-41.5-77l-127-191h198z"/><glyph glyph-name="onehalf" unicode="½" horiz-adv-x="1804" d="M538 586H300v446l3 112 5 95q-27-36-75-78l-78-61-109 127 301 235h191V586zm832 876L559 0H320l811 1462h239zM1716 1h-647v168l224 219q102 100 130.5 144.5T1452 627q0 38-24 58t-64 20q-81 0-180-88l-123 152q147 129 336 129 137 0 216-66.5t79-183.5q0-85-47-160t-176-192l-105-95h352V1z"/><glyph glyph-name="threequarters" unicode="¾" horiz-adv-x="1804" d="M697 1249q0-143-170-198v-13q94-20 146-75t52-134q0-121-88-190.5T363 569q-143 0-273 70v190q148-90 271-90 143 0 143 107 0 53-44 79.5T338 952H226v160h92q83 0 123.5 26t40.5 83q0 38-25 63t-76 25q-47 0-89-19t-99-59L92 1372q62 47 137.5 78t178.5 31q127 0 208-64t81-168zm744 213L630 0H391l811 1462h239zm271-1310h-125V1h-238v151H966v154l385 577h236V320h125V152zm-363 168v164q0 86 6 184-9-26-35.5-80t-41.5-77l-127-191h198z"/><glyph glyph-name="questiondown" unicode="¿" horiz-adv-x="977" d="M713 606v-74q0-98-44.5-169T516 215Q407 137 378.5 93T350-14q0-57 43.5-94T526-145q79 0 169 29t186 71l102-221q-98-56-221.5-90.5T532-391q-220 0-345.5 96.5T61-29q0 108 48.5 187T301 342q95 70 121.5 107t26.5 98v59h264zm32 342q0-84-45-127t-131-43q-83 0-128.5 44T395 948q0 81 46.5 125.5T569 1118q84 0 130-44t46-126z"/><glyph glyph-name="Agrave" unicode="À" horiz-adv-x="1413" d="M1079 0L973 348H440L334 0H0l516 1468h379L1413 0h-334zM899 608q-147 473-165.5 535t-26.5 98q-33-128-189-633h381zm-186 971q-63 44-185 142.5T338 1886v21h342q63-101 235-301v-27H713z"/><glyph glyph-name="Aacute" unicode="Á" horiz-adv-x="1413" d="M1079 0L973 348H440L334 0H0l516 1468h379L1413 0h-334zM899 608q-147 473-165.5 535t-26.5 98q-33-128-189-633h381zm-358 971v27q172 200 235 301h342v-21q-52-52-177.5-154.5T744 1579H541z"/><glyph glyph-name="Acircumflex" unicode="Â" horiz-adv-x="1413" d="M1079 0L973 348H440L334 0H0l516 1468h379L1413 0h-334zM899 608q-147 473-165.5 535t-26.5 98q-33-128-189-633h381zm39 971q-157 93-234 176-78-81-229-176H272v27q189 189 256 301h357q31-52 107.5-141.5T1141 1606v-27H938z"/><glyph glyph-name="Atilde" unicode="Ã" horiz-adv-x="1413" d="M1079 0L973 348H440L334 0H0l516 1468h379L1413 0h-334zM899 608q-147 473-165.5 535t-26.5 98q-33-128-189-633h381zM543 1684q-31 0-59.5-26.5T442 1577H293q11 145 82.5 227t189.5 82q41 0 80.5-16.5t78-36T799 1798t73-16q31 0 59.5 26t41.5 80h149q-11-145-83.5-227T850 1579q-41 0-80.5 16.5t-78 36-75.5 36-73 16.5z"/><glyph glyph-name="Adieresis" unicode="Ä" horiz-adv-x="1413" d="M1079 0L973 348H440L334 0H0l516 1468h379L1413 0h-334zM899 608q-147 473-165.5 535t-26.5 98q-33-128-189-633h381zM365 1743q0 65 37.5 100t101.5 35q66 0 103.5-37t37.5-98q0-60-38-96.5T504 1610q-64 0-101.5 35t-37.5 98zm403 0q0 70 40.5 102.5T909 1878q65 0 103.5-36t38.5-99q0-61-39-97t-103-36q-60 0-100.5 32.5T768 1743z"/><glyph glyph-name="Aring" unicode="Å" horiz-adv-x="1413" d="M1079 0L973 348H440L334 0H0l516 1468h379L1413 0h-334zM899 608q-147 473-165.5 535t-26.5 98q-33-128-189-633h381zm60 959q0-108-71-174t-183-66-180 64-68 174q0 108 67.5 172.5T705 1802q110 0 182-66t72-169zm-158-2q0 45-27 70.5t-69 25.5-69-25.5-27-70.5 24-71 72-26q42 0 69 26t27 71z"/><glyph glyph-name="AE" unicode="Æ" horiz-adv-x="1950" d="M1829 0H956v348H465L315 0H0l655 1462h1174v-254h-563V887h526V633h-526V256h563V0zM578 608h378v590H829z"/><glyph glyph-name="Ccedilla" unicode="Ç" horiz-adv-x="1305" d="M805 1225q-175 0-271-131.5T438 727q0-489 367-489 154 0 373 77V55Q998-20 776-20q-319 0-488 193.5T119 729q0 228 83 399.5t238.5 263T805 1483q213 0 428-103l-100-252q-82 39-165 68t-163 29zM959-250q0-128-75.5-185T650-492q-78 0-146 21v168q27-7 72.5-14t70.5-7q72 0 72 62 0 83-166 108L631 0h193l-27-61q74-24 118-74.5T959-250z"/><glyph glyph-name="Egrave" unicode="È" horiz-adv-x="1147" d="M1026 0H184v1462h842v-254H494V887h495V633H494V256h532V0zM634 1579q-63 44-185 142.5T259 1886v21h342q63-101 235-301v-27H634z"/><glyph glyph-name="Eacute" unicode="É" horiz-adv-x="1147" d="M1026 0H184v1462h842v-254H494V887h495V633H494V256h532V0zM424 1579v27q172 200 235 301h342v-21q-52-52-177.5-154.5T627 1579H424z"/><glyph glyph-name="Ecircumflex" unicode="Ê" horiz-adv-x="1147" d="M1026 0H184v1462h842v-254H494V887h495V633H494V256h532V0zM841 1579q-157 93-234 176-78-81-229-176H175v27q189 189 256 301h357q31-52 107.5-141.5T1044 1606v-27H841z"/><glyph glyph-name="Edieresis" unicode="Ë" horiz-adv-x="1147" d="M1026 0H184v1462h842v-254H494V887h495V633H494V256h532V0zM272 1743q0 65 37.5 100t101.5 35q66 0 103.5-37t37.5-98q0-60-38-96.5T411 1610q-64 0-101.5 35t-37.5 98zm403 0q0 70 40.5 102.5T816 1878q65 0 103.5-36t38.5-99q0-61-39-97t-103-36q-60 0-100.5 32.5T675 1743z"/><glyph glyph-name="Igrave" unicode="Ì" horiz-adv-x="678" d="M184 0v1462h310V0H184zm133 1579q-63 44-185 142.5T-58 1886v21h342q63-101 235-301v-27H317z"/><glyph glyph-name="Iacute" unicode="Í" horiz-adv-x="678" d="M184 0v1462h310V0H184zm-17 1579v27q172 200 235 301h342v-21q-52-52-177.5-154.5T370 1579H167z"/><glyph glyph-name="Icircumflex" unicode="Î" horiz-adv-x="678" d="M184 0v1462h310V0H184zm386 1579q-157 93-234 176-78-81-229-176H-96v27q189 189 256 301h357q31-52 107.5-141.5T773 1606v-27H570z"/><glyph glyph-name="Idieresis" unicode="Ï" horiz-adv-x="678" d="M184 0v1462h310V0H184zM-3 1743q0 65 37.5 100t101.5 35q66 0 103.5-37t37.5-98q0-60-38-96.5T136 1610q-64 0-101.5 35T-3 1743zm403 0q0 70 40.5 102.5T541 1878q65 0 103.5-36t38.5-99q0-61-39-97t-103-36q-60 0-100.5 32.5T400 1743z"/><glyph glyph-name="Eth" unicode="Ð" horiz-adv-x="1516" d="M47 850h137v612h459q358 0 556-189t198-528q0-361-205.5-553T598 0H184v596H47v254zm1028-113q0 232-104 351.5T657 1208H494V850h237V596H494V256h131q450 0 450 481z"/><glyph glyph-name="Ntilde" unicode="Ñ" horiz-adv-x="1665" d="M1481 0h-394L451 1106h-9q19-293 19-418V0H184v1462h391l635-1095h7q-15 285-15 403v692h279V0zM668 1684q-31 0-59.5-26.5T567 1577H418q11 145 82.5 227t189.5 82q41 0 80.5-16.5t78-36T924 1798t73-16q31 0 59.5 26t41.5 80h149q-11-145-83.5-227T975 1579q-41 0-80.5 16.5t-78 36-75.5 36-73 16.5z"/><glyph glyph-name="Ograve" unicode="Ò" horiz-adv-x="1630" d="M1511 733q0-363-180-558T815-20 299 175 119 735t180.5 557.5T817 1485t515.5-194T1511 733zm-1067 0q0-245 93-369t278-124q371 0 371 493 0 494-369 494-185 0-279-124.5T444 733zm380 846q-63 44-185 142.5T449 1886v21h342q63-101 235-301v-27H824z"/><glyph glyph-name="Oacute" unicode="Ó" horiz-adv-x="1630" d="M1511 733q0-363-180-558T815-20 299 175 119 735t180.5 557.5T817 1485t515.5-194T1511 733zm-1067 0q0-245 93-369t278-124q371 0 371 493 0 494-369 494-185 0-279-124.5T444 733zm214 846v27q172 200 235 301h342v-21q-52-52-177.5-154.5T861 1579H658z"/><glyph glyph-name="Ocircumflex" unicode="Ô" horiz-adv-x="1630" d="M1511 733q0-363-180-558T815-20 299 175 119 735t180.5 557.5T817 1485t515.5-194T1511 733zm-1067 0q0-245 93-369t278-124q371 0 371 493 0 494-369 494-185 0-279-124.5T444 733zm603 846q-157 93-234 176-78-81-229-176H381v27q189 189 256 301h357q31-52 107.5-141.5T1250 1606v-27h-203z"/><glyph glyph-name="Otilde" unicode="Õ" horiz-adv-x="1630" d="M1511 733q0-363-180-558T815-20 299 175 119 735t180.5 557.5T817 1485t515.5-194T1511 733zm-1067 0q0-245 93-369t278-124q371 0 371 493 0 494-369 494-185 0-279-124.5T444 733zm208 951q-31 0-59.5-26.5T551 1577H402q11 145 82.5 227t189.5 82q41 0 80.5-16.5t78-36T908 1798t73-16q31 0 59.5 26t41.5 80h149q-11-145-83.5-227T959 1579q-41 0-80.5 16.5t-78 36-75.5 36-73 16.5z"/><glyph glyph-name="Odieresis" unicode="Ö" horiz-adv-x="1630" d="M1511 733q0-363-180-558T815-20 299 175 119 735t180.5 557.5T817 1485t515.5-194T1511 733zm-1067 0q0-245 93-369t278-124q371 0 371 493 0 494-369 494-185 0-279-124.5T444 733zm30 1010q0 65 37.5 100t101.5 35q66 0 103.5-37t37.5-98q0-60-38-96.5T613 1610q-64 0-101.5 35t-37.5 98zm403 0q0 70 40.5 102.5T1018 1878q65 0 103.5-36t38.5-99q0-61-39-97t-103-36q-60 0-100.5 32.5T877 1743z"/><glyph glyph-name="multiply" unicode="×" d="M428 723l-299 301 152 154 301-299 305 299 153-150-305-305 301-303-149-152-305 301-301-299-150 152z"/><glyph glyph-name="Oslash" unicode="Ø" horiz-adv-x="1630" d="M1511 733q0-363-180-558T815-20q-197 0-336 65L389-90 227 18l90 136Q119 348 119 735q0 365 180.5 557.5T817 1485q198 0 344-70l84 125 160-104-88-131q194-194 194-572zm-1067 0q0-191 56-307l506 756q-84 45-189 45-185 0-279-124.5T444 733zm742 0q0 180-51 297L635 279q76-39 180-39 371 0 371 493z"/><glyph glyph-name="Ugrave" unicode="Ù" horiz-adv-x="1548" d="M1374 1462V516q0-162-72.5-284T1092 45 768-20q-282 0-438 144.5T174 520v942h309V567q0-169 68-248t225-79q152 0 220.5 79.5T1065 569v893h309zm-624 117q-63 44-185 142.5T375 1886v21h342q63-101 235-301v-27H750z"/><glyph glyph-name="Uacute" unicode="Ú" horiz-adv-x="1548" d="M1374 1462V516q0-162-72.5-284T1092 45 768-20q-282 0-438 144.5T174 520v942h309V567q0-169 68-248t225-79q152 0 220.5 79.5T1065 569v893h309zm-772 117v27q172 200 235 301h342v-21q-52-52-177.5-154.5T805 1579H602z"/><glyph glyph-name="Ucircumflex" unicode="Û" horiz-adv-x="1548" d="M1374 1462V516q0-162-72.5-284T1092 45 768-20q-282 0-438 144.5T174 520v942h309V567q0-169 68-248t225-79q152 0 220.5 79.5T1065 569v893h309zm-368 117q-157 93-234 176-78-81-229-176H340v27q189 189 256 301h357q31-52 107.5-141.5T1209 1606v-27h-203z"/><glyph glyph-name="Udieresis" unicode="Ü" horiz-adv-x="1548" d="M1374 1462V516q0-162-72.5-284T1092 45 768-20q-282 0-438 144.5T174 520v942h309V567q0-169 68-248t225-79q152 0 220.5 79.5T1065 569v893h309zm-941 281q0 65 37.5 100t101.5 35q66 0 103.5-37t37.5-98q0-60-38-96.5T572 1610q-64 0-101.5 35t-37.5 98zm403 0q0 70 40.5 102.5T977 1878q65 0 103.5-36t38.5-99q0-61-39-97t-103-36q-60 0-100.5 32.5T836 1743z"/><glyph glyph-name="Yacute" unicode="Ý" horiz-adv-x="1278" d="M639 860l305 602h334L793 569V0H485v559L0 1462h336zm-178 719v27q172 200 235 301h342v-21q-52-52-177.5-154.5T664 1579H461z"/><glyph glyph-name="Thorn" unicode="Þ" horiz-adv-x="1286" d="M1194 770q0-229-142.5-353T647 293H494V0H184v1462h310v-229h178q254 0 388-119t134-344zM494 543h100q145 0 216 52.5T881 770q0 107-63.5 159T618 981H494V543z"/><glyph glyph-name="germandbls" unicode="ß" horiz-adv-x="1456" d="M1249 1241q0-64-21-112.5t-53-86.5-69-67-69-53-53-45-21-43q0-27 26.5-53t92.5-66q146-91 198.5-140t78-110 25.5-139q0-172-116.5-259T924-20q-99 0-171 14.5T621 43v242q53-36 135.5-61T903 199q168 0 168 123 0 41-16 66.5T998 444t-115 72q-126 72-175 131.5T659 788q0 64 35 117t105 102q77 55 108 95t31 86q0 60-63.5 100.5T711 1329q-116 0-181-52.5T465 1128V0H160v1139q0 201 146.5 314.5T711 1567q244 0 391-88.5t147-237.5z"/><glyph glyph-name="agrave" unicode="à" horiz-adv-x="1237" d="M870 0l-59 152h-8Q726 55 644.5 17.5T432-20q-161 0-253.5 92T86 334q0 178 124.5 262.5T586 690l194 6v49q0 170-174 170-134 0-315-81l-101 206q193 101 428 101 225 0 345-98t120-298V0H870zm-90 518l-118-4q-133-4-198-48t-65-134q0-129 148-129 106 0 169.5 61T780 426v92zm-166 723q-63 44-185 142.5T239 1548v21h342q63-101 235-301v-27H614z"/><glyph glyph-name="aacute" unicode="á" horiz-adv-x="1237" d="M870 0l-59 152h-8Q726 55 644.5 17.5T432-20q-161 0-253.5 92T86 334q0 178 124.5 262.5T586 690l194 6v49q0 170-174 170-134 0-315-81l-101 206q193 101 428 101 225 0 345-98t120-298V0H870zm-90 518l-118-4q-133-4-198-48t-65-134q0-129 148-129 106 0 169.5 61T780 426v92zm-339 723v27q172 200 235 301h342v-21q-52-52-177.5-154.5T644 1241H441z"/><glyph glyph-name="acircumflex" unicode="â" horiz-adv-x="1237" d="M870 0l-59 152h-8Q726 55 644.5 17.5T432-20q-161 0-253.5 92T86 334q0 178 124.5 262.5T586 690l194 6v49q0 170-174 170-134 0-315-81l-101 206q193 101 428 101 225 0 345-98t120-298V0H870zm-90 518l-118-4q-133-4-198-48t-65-134q0-129 148-129 106 0 169.5 61T780 426v92zm63 722q-157 93-234 176-78-81-229-176H177v27q189 189 256 301h357q31-52 107.5-141.5T1046 1267v-27H843z"/><glyph glyph-name="atilde" unicode="ã" horiz-adv-x="1237" d="M870 0l-59 152h-8Q726 55 644.5 17.5T432-20q-161 0-253.5 92T86 334q0 178 124.5 262.5T586 690l194 6v49q0 170-174 170-134 0-315-81l-101 206q193 101 428 101 225 0 345-98t120-298V0H870zm-90 518l-118-4q-133-4-198-48t-65-134q0-129 148-129 106 0 169.5 61T780 426v92zm-313 828q-31 0-59.5-26.5T366 1239H217q11 145 82.5 227t189.5 82q41 0 80.5-16.5t78-36T723 1460t73-16q31 0 59.5 26t41.5 80h149q-11-145-83.5-227T774 1241q-41 0-80.5 16.5t-78 36-75.5 36-73 16.5z"/><glyph glyph-name="adieresis" unicode="ä" horiz-adv-x="1237" d="M870 0l-59 152h-8Q726 55 644.5 17.5T432-20q-161 0-253.5 92T86 334q0 178 124.5 262.5T586 690l194 6v49q0 170-174 170-134 0-315-81l-101 206q193 101 428 101 225 0 345-98t120-298V0H870zm-90 518l-118-4q-133-4-198-48t-65-134q0-129 148-129 106 0 169.5 61T780 426v92zm-495 887q0 65 37.5 100t101.5 35q66 0 103.5-37t37.5-98q0-60-38-96.5T424 1272q-64 0-101.5 35t-37.5 98zm403 0q0 70 40.5 102.5T829 1540q65 0 103.5-36t38.5-99q0-61-39-97t-103-36q-60 0-100.5 32.5T688 1405z"/><glyph glyph-name="aring" unicode="å" horiz-adv-x="1237" d="M870 0l-59 152h-8Q726 55 644.5 17.5T432-20q-161 0-253.5 92T86 334q0 178 124.5 262.5T586 690l194 6v49q0 170-174 170-134 0-315-81l-101 206q193 101 428 101 225 0 345-98t120-298V0H870zm-90 518l-118-4q-133-4-198-48t-65-134q0-129 148-129 106 0 169.5 61T780 426v92zm103 961q0-108-71-174t-183-66-180 64-68 174q0 108 67.5 172.5T629 1714q110 0 182-66t72-169zm-158-2q0 45-27 70.5t-69 25.5-69-25.5-27-70.5 24-71 72-26q42 0 69 26t27 71z"/><glyph glyph-name="ae" unicode="æ" horiz-adv-x="1878" d="M1329-20q-137 0-249.5 50.5T895 186Q797 69 698.5 24.5T442-20q-161 0-258.5 94.5T86 334q0 178 121 262.5T569 690l191 6v84q0 69-44.5 102T594 915q-140 0-305-77l-99 202q189 101 422 101 227 0 342-131 66 64 152.5 96.5T1313 1139q221 0 349-137.5T1790 631V483h-723q5-130 77-203t202-73q196 0 380 88V59q-79-39-171-59t-226-20zM760 518l-113-4q-124-4-186-47.5T399 332q0-129 140-129 101 0 161 61t60 162v92zm547 404q-217 0-234-236h430q-2 112-55 174t-141 62z"/><glyph glyph-name="ccedilla" unicode="ç" horiz-adv-x="1053" d="M614-20Q92-20 92 553q0 285 142 435.5T641 1139q194 0 348-76l-90-236q-72 29-134 47.5T641 893q-238 0-238-338 0-328 238-328 88 0 163 23.5T954 324V63Q880 16 804.5-2T614-20zm191-230q0-128-75.5-185T496-492q-78 0-146 21v168q27-7 72.5-14t70.5-7q72 0 72 62 0 83-166 108L477 0h193l-27-61q74-24 118-74.5T805-250z"/><glyph glyph-name="egrave" unicode="è" horiz-adv-x="1210" d="M623 922q-97 0-152-61.5T408 686h428q-2 113-59 174.5T623 922zm43-942q-270 0-422 149T92 551q0 281 140.5 434.5T621 1139q237 0 369-135t132-373V483H401q5-130 77-203t202-73q101 0 191 21t188 67V59Q979 19 888-.5T666-20zm-46 1261q-63 44-185 142.5T245 1548v21h342q63-101 235-301v-27H620z"/><glyph glyph-name="eacute" unicode="é" horiz-adv-x="1210" d="M623 922q-97 0-152-61.5T408 686h428q-2 113-59 174.5T623 922zm43-942q-270 0-422 149T92 551q0 281 140.5 434.5T621 1139q237 0 369-135t132-373V483H401q5-130 77-203t202-73q101 0 191 21t188 67V59Q979 19 888-.5T666-20zM447 1241v27q172 200 235 301h342v-21q-52-52-177.5-154.5T650 1241H447z"/><glyph glyph-name="ecircumflex" unicode="ê" horiz-adv-x="1210" d="M623 922q-97 0-152-61.5T408 686h428q-2 113-59 174.5T623 922zm43-942q-270 0-422 149T92 551q0 281 140.5 434.5T621 1139q237 0 369-135t132-373V483H401q5-130 77-203t202-73q101 0 191 21t188 67V59Q979 19 888-.5T666-20zm194 1261q-157 93-234 176-78-81-229-176H194v27q189 189 256 301h357q31-52 107.5-141.5T1063 1268v-27H860z"/><glyph glyph-name="edieresis" unicode="ë" horiz-adv-x="1210" d="M623 922q-97 0-152-61.5T408 686h428q-2 113-59 174.5T623 922zm43-942q-270 0-422 149T92 551q0 281 140.5 434.5T621 1139q237 0 369-135t132-373V483H401q5-130 77-203t202-73q101 0 191 21t188 67V59Q979 19 888-.5T666-20zM297 1405q0 65 37.5 100t101.5 35q66 0 103.5-37t37.5-98q0-60-38-96.5T436 1272q-64 0-101.5 35t-37.5 98zm403 0q0 70 40.5 102.5T841 1540q65 0 103.5-36t38.5-99q0-61-39-97t-103-36q-60 0-100.5 32.5T700 1405z"/><glyph glyph-name="igrave" unicode="ì" horiz-adv-x="625" d="M465 0H160v1118h305V0zM274 1241q-63 44-185 142.5T-101 1548v21h342q63-101 235-301v-27H274z"/><glyph glyph-name="iacute" unicode="í" horiz-adv-x="625" d="M465 0H160v1118h305V0zM145 1241v27q172 200 235 301h342v-21q-52-52-177.5-154.5T348 1241H145z"/><glyph glyph-name="icircumflex" unicode="î" horiz-adv-x="625" d="M465 0H160v1118h305V0zm79 1241q-157 93-234 176-78-81-229-176h-203v27q189 189 256 301h357q31-52 107.5-141.5T747 1268v-27H544z"/><glyph glyph-name="idieresis" unicode="ï" horiz-adv-x="625" d="M465 0H160v1118h305V0zM-29 1405q0 65 37.5 100t101.5 35q66 0 103.5-37t37.5-98q0-60-38-96.5T110 1272q-64 0-101.5 35t-37.5 98zm403 0q0 70 40.5 102.5T515 1540q65 0 103.5-36t38.5-99q0-61-39-97t-103-36q-60 0-100.5 32.5T374 1405z"/><glyph glyph-name="eth" unicode="ð" horiz-adv-x="1268" d="M510 1303q-80 53-152 92l101 176q144-65 258-141l225 139 100-154-170-104q156-143 230-324.5t74-413.5q0-280-145-436.5T631-20q-245 0-392 137T92 489q0 233 130 369.5T573 995q205 0 275-98l8 4q-67 162-192 281l-230-142-100 156zm354-771q0 108-61 173t-168 65q-121 0-176.5-68.5T403 487q0-140 60-211t172-71q123 0 176 82t53 245z"/><glyph glyph-name="ntilde" unicode="ñ" horiz-adv-x="1346" d="M1192 0H887v653q0 121-43 181.5T707 895q-128 0-185-85.5T465 526V0H160v1118h233l41-143h17q51 81 140.5 122.5T795 1139q195 0 296-105.5T1192 729V0zM508 1346q-31 0-59.5-26.5T407 1239H258q11 145 82.5 227t189.5 82q41 0 80.5-16.5t78-36T764 1460t73-16q31 0 59.5 26t41.5 80h149q-11-145-83.5-227T815 1241q-41 0-80.5 16.5t-78 36-75.5 36-73 16.5z"/><glyph glyph-name="ograve" unicode="ò" horiz-adv-x="1268" d="M403 561q0-166 54.5-251T635 225q122 0 175.5 84.5T864 561q0 166-54 249t-177 83q-122 0-176-82.5T403 561zm773 0q0-273-144-427T631-20q-161 0-284 70.5T158 253 92 561q0 274 143 426t402 152q161 0 284-70t189-201 66-307zm-564 680q-63 44-185 142.5T237 1548v21h342q63-101 235-301v-27H612z"/><glyph glyph-name="oacute" unicode="ó" horiz-adv-x="1268" d="M403 561q0-166 54.5-251T635 225q122 0 175.5 84.5T864 561q0 166-54 249t-177 83q-122 0-176-82.5T403 561zm773 0q0-273-144-427T631-20q-161 0-284 70.5T158 253 92 561q0 274 143 426t402 152q161 0 284-70t189-201 66-307zm-709 680v27q172 200 235 301h342v-21q-52-52-177.5-154.5T670 1241H467z"/><glyph glyph-name="ocircumflex" unicode="ô" horiz-adv-x="1268" d="M403 561q0-166 54.5-251T635 225q122 0 175.5 84.5T864 561q0 166-54 249t-177 83q-122 0-176-82.5T403 561zm773 0q0-273-144-427T631-20q-161 0-284 70.5T158 253 92 561q0 274 143 426t402 152q161 0 284-70t189-201 66-307zm-312 680q-157 93-234 176-78-81-229-176H198v27q189 189 256 301h357q31-52 107.5-141.5T1067 1268v-27H864z"/><glyph glyph-name="otilde" unicode="õ" horiz-adv-x="1268" d="M403 561q0-166 54.5-251T635 225q122 0 175.5 84.5T864 561q0 166-54 249t-177 83q-122 0-176-82.5T403 561zm773 0q0-273-144-427T631-20q-161 0-284 70.5T158 253 92 561q0 274 143 426t402 152q161 0 284-70t189-201 66-307zm-707 785q-31 0-59.5-26.5T368 1239H219q11 145 82.5 227t189.5 82q41 0 80.5-16.5t78-36T725 1460t73-16q31 0 59.5 26t41.5 80h149q-11-145-83.5-227T776 1241q-41 0-80.5 16.5t-78 36-75.5 36-73 16.5z"/><glyph glyph-name="odieresis" unicode="ö" horiz-adv-x="1268" d="M403 561q0-166 54.5-251T635 225q122 0 175.5 84.5T864 561q0 166-54 249t-177 83q-122 0-176-82.5T403 561zm773 0q0-273-144-427T631-20q-161 0-284 70.5T158 253 92 561q0 274 143 426t402 152q161 0 284-70t189-201 66-307zm-885 844q0 65 37.5 100t101.5 35q66 0 103.5-37t37.5-98q0-60-38-96.5T430 1272q-64 0-101.5 35t-37.5 98zm403 0q0 70 40.5 102.5T835 1540q65 0 103.5-36t38.5-99q0-61-39-97t-103-36q-60 0-100.5 32.5T694 1405z"/><glyph glyph-name="divide" unicode="÷" d="M88 612v219h993V612H88zm356-239q0 76 37 113.5T584 524t102.5-39T723 373q0-70-37-111t-102-41-102.5 39T444 373zm0 698q0 75 37 113.5t103 38.5q67 0 103-40.5t36-111.5q0-70-37-110.5T584 920t-102.5 39-37.5 112z"/><glyph glyph-name="oslash" unicode="ø" horiz-adv-x="1268" d="M1176 561q0-273-144-427T631-20q-126 0-234 45L330-76 176 29l68 100Q92 285 92 561q0 274 143 426t402 152q132 0 248-52l55 82 152-108-58-84q142-155 142-416zm-773 0q0-94 19-166l317 475q-43 23-106 23-122 0-176-82.5T403 561zm461 0q0 81-12 141L543 240q38-15 92-15 122 0 175.5 84.5T864 561z"/><glyph glyph-name="ugrave" unicode="ù" horiz-adv-x="1346" d="M952 0l-41 143h-16Q846 65 756 22.5T551-20Q354-20 254 85.5T154 389v729h305V465q0-121 43-181.5T639 223q128 0 185 85.5T881 592v526h305V0H952zM620 1241q-63 44-185 142.5T245 1548v21h342q63-101 235-301v-27H620z"/><glyph glyph-name="uacute" unicode="ú" horiz-adv-x="1346" d="M952 0l-41 143h-16Q846 65 756 22.5T551-20Q354-20 254 85.5T154 389v729h305V465q0-121 43-181.5T639 223q128 0 185 85.5T881 592v526h305V0H952zM498 1241v27q172 200 235 301h342v-21q-52-52-177.5-154.5T701 1241H498z"/><glyph glyph-name="ucircumflex" unicode="û" horiz-adv-x="1346" d="M952 0l-41 143h-16Q846 65 756 22.5T551-20Q354-20 254 85.5T154 389v729h305V465q0-121 43-181.5T639 223q128 0 185 85.5T881 592v526h305V0H952zm-51 1241q-157 93-234 176-78-81-229-176H235v27q189 189 256 301h357q31-52 107.5-141.5T1104 1268v-27H901z"/><glyph glyph-name="udieresis" unicode="ü" horiz-adv-x="1346" d="M952 0l-41 143h-16Q846 65 756 22.5T551-20Q354-20 254 85.5T154 389v729h305V465q0-121 43-181.5T639 223q128 0 185 85.5T881 592v526h305V0H952zM326 1405q0 65 37.5 100t101.5 35q66 0 103.5-37t37.5-98q0-60-38-96.5T465 1272q-64 0-101.5 35t-37.5 98zm403 0q0 70 40.5 102.5T870 1540q65 0 103.5-36t38.5-99q0-61-39-97t-103-36q-60 0-100.5 32.5T729 1405z"/><glyph glyph-name="yacute" unicode="ý" horiz-adv-x="1165" d="M0 1118h334l211-629q27-82 37-194h6q11 103 43 194l207 629h327L692-143q-65-175-185.5-262T225-492q-79 0-155 17v242q55-13 120-13 81 0 141.5 49.5T426-47l18 55zm393 123v27q172 200 235 301h342v-21q-52-52-177.5-154.5T596 1241H393z"/><glyph glyph-name="thorn" unicode="þ" horiz-adv-x="1296" d="M465 973q50 81 131 123.5t186 42.5q198 0 310-154.5T1204 561q0-273-111.5-427T782-20q-213 0-317 137h-14l7-62 7-94v-453H160v2048h305v-391l-7-120-7-72h14zm219-78q-113 0-165-69.5T465 596v-33q0-180 53.5-258T688 227q205 0 205 338 0 165-50.5 247.5T684 895z"/><glyph glyph-name="ydieresis" unicode="ÿ" horiz-adv-x="1165" d="M0 1118h334l211-629q27-82 37-194h6q11 103 43 194l207 629h327L692-143q-65-175-185.5-262T225-492q-79 0-155 17v242q55-13 120-13 81 0 141.5 49.5T426-47l18 55zm243 287q0 65 37.5 100t101.5 35q66 0 103.5-37t37.5-98q0-60-38-96.5T382 1272q-64 0-101.5 35t-37.5 98zm403 0q0 70 40.5 102.5T787 1540q65 0 103.5-36t38.5-99q0-61-39-97t-103-36q-60 0-100.5 32.5T646 1405z"/><glyph glyph-name="Amacron" unicode="Ā" horiz-adv-x="1413" d="M1079 0L973 348H440L334 0H0l516 1468h379L1413 0h-334zM899 608q-147 473-165.5 535t-26.5 98q-33-128-189-633h381zM371 1790h678v-211H371v211z"/><glyph glyph-name="amacron" unicode="ā" horiz-adv-x="1237" d="M870 0l-59 152h-8Q726 55 644.5 17.5T432-20q-161 0-253.5 92T86 334q0 178 124.5 262.5T586 690l194 6v49q0 170-174 170-134 0-315-81l-101 206q193 101 428 101 225 0 345-98t120-298V0H870zm-90 518l-118-4q-133-4-198-48t-65-134q0-129 148-129 106 0 169.5 61T780 426v92zm-487 934h678v-211H293v211z"/><glyph glyph-name="Abreve" unicode="Ă" horiz-adv-x="1413" d="M1079 0L973 348H440L334 0H0l516 1468h379L1413 0h-334zM899 608q-147 473-165.5 535t-26.5 98q-33-128-189-633h381zm201 1309q-12-154-122-246t-276-92q-174 0-277.5 91T313 1917h170q4-47 27.5-74t66-39 127.5-12q206 0 222 125h174z"/><glyph glyph-name="abreve" unicode="ă" horiz-adv-x="1237" d="M870 0l-59 152h-8Q726 55 644.5 17.5T432-20q-161 0-253.5 92T86 334q0 178 124.5 262.5T586 690l194 6v49q0 170-174 170-134 0-315-81l-101 206q193 101 428 101 225 0 345-98t120-298V0H870zm-90 518l-118-4q-133-4-198-48t-65-134q0-129 148-129 106 0 169.5 61T780 426v92zm246 1061q-12-154-122-246t-276-92q-174 0-277.5 91T239 1579h170q4-47 27.5-74t66-39 127.5-12q206 0 222 125h174z"/><glyph glyph-name="Aogonek" unicode="Ą" horiz-adv-x="1413" d="M1079 0L973 348H440L334 0H0l516 1468h379L1413 0h-334zM899 608q-147 473-165.5 535t-26.5 98q-33-128-189-633h381zm213-835q0-42 22.5-62t57.5-20q55 0 115 18v-178q-82-23-156-23-113 0-181.5 63.5T901-262q0 67 38 126T1081 0h179q-70-66-109-120.5T1112-227z"/><glyph glyph-name="aogonek" unicode="ą" horiz-adv-x="1237" d="M870 0l-59 152h-8Q726 55 644.5 17.5T432-20q-161 0-253.5 92T86 334q0 178 124.5 262.5T586 690l194 6v49q0 170-174 170-134 0-315-81l-101 206q193 101 428 101 225 0 345-98t120-298V0H870zm-90 518l-118-4q-133-4-198-48t-65-134q0-129 148-129 106 0 169.5 61T780 426v92zm125-745q0-42 22.5-62t57.5-20q55 0 115 18v-178q-82-23-156-23-113 0-181.5 63.5T694-262q0 67 38 126T874 0h179q-70-66-109-120.5T905-227z"/><glyph glyph-name="Cacute" unicode="Ć" horiz-adv-x="1305" d="M805 1225q-175 0-271-131.5T438 727q0-489 367-489 154 0 373 77V55Q998-20 776-20q-319 0-488 193.5T119 729q0 228 83 399.5t238.5 263T805 1483q213 0 428-103l-100-252q-82 39-165 68t-163 29zm-207 354v27q172 200 235 301h342v-21q-52-52-177.5-154.5T801 1579H598z"/><glyph glyph-name="cacute" unicode="ć" horiz-adv-x="1053" d="M614-20Q92-20 92 553q0 285 142 435.5T641 1139q194 0 348-76l-90-236q-72 29-134 47.5T641 893q-238 0-238-338 0-328 238-328 88 0 163 23.5T954 324V63Q880 16 804.5-2T614-20zM443 1241v27q172 200 235 301h342v-21q-52-52-177.5-154.5T646 1241H443z"/><glyph glyph-name="Ccircumflex" unicode="Ĉ" horiz-adv-x="1305" d="M805 1225q-175 0-271-131.5T438 727q0-489 367-489 154 0 373 77V55Q998-20 776-20q-319 0-488 193.5T119 729q0 228 83 399.5t238.5 263T805 1483q213 0 428-103l-100-252q-82 39-165 68t-163 29zm217 354q-157 93-234 176-78-81-229-176H356v27q189 189 256 301h357q31-52 107.5-141.5T1225 1606v-27h-203z"/><glyph glyph-name="ccircumflex" unicode="ĉ" horiz-adv-x="1053" d="M614-20Q92-20 92 553q0 285 142 435.5T641 1139q194 0 348-76l-90-236q-72 29-134 47.5T641 893q-238 0-238-338 0-328 238-328 88 0 163 23.5T954 324V63Q880 16 804.5-2T614-20zm221 1261q-157 93-234 176-78-81-229-176H169v27q189 189 256 301h357q31-52 107.5-141.5T1038 1268v-27H835z"/><glyph glyph-name="Cdot" unicode="Ċ" horiz-adv-x="1305" d="M805 1225q-175 0-271-131.5T438 727q0-489 367-489 154 0 373 77V55Q998-20 776-20q-319 0-488 193.5T119 729q0 228 83 399.5t238.5 263T805 1483q213 0 428-103l-100-252q-82 39-165 68t-163 29zm-185 520q0 149 166 149t166-149q0-71-41.5-110.5T786 1595q-166 0-166 150z"/><glyph glyph-name="cdot" unicode="ċ" horiz-adv-x="1053" d="M614-20Q92-20 92 553q0 285 142 435.5T641 1139q194 0 348-76l-90-236q-72 29-134 47.5T641 893q-238 0-238-338 0-328 238-328 88 0 163 23.5T954 324V63Q880 16 804.5-2T614-20zM462 1407q0 149 166 149t166-149q0-71-41.5-110.5T628 1257q-166 0-166 150z"/><glyph glyph-name="Ccaron" unicode="Č" horiz-adv-x="1305" d="M805 1225q-175 0-271-131.5T438 727q0-489 367-489 154 0 373 77V55Q998-20 776-20q-319 0-488 193.5T119 729q0 228 83 399.5t238.5 263T805 1483q213 0 428-103l-100-252q-82 39-165 68t-163 29zm422 682v-27q-84-84-154.5-167.5T971 1579H614q-29 47-83 112.5T358 1880v27h203q147-93 229-176 84 87 234 176h203z"/><glyph glyph-name="ccaron" unicode="č" horiz-adv-x="1053" d="M614-20Q92-20 92 553q0 285 142 435.5T641 1139q194 0 348-76l-90-236q-72 29-134 47.5T641 893q-238 0-238-338 0-328 238-328 88 0 163 23.5T954 324V63Q880 16 804.5-2T614-20zm441 1589v-27q-84-84-154.5-167.5T799 1241H442q-29 47-83 112.5T186 1542v27h203q147-93 229-176 84 87 234 176h203z"/><glyph glyph-name="Dcaron" unicode="Ď" horiz-adv-x="1516" d="M1397 745q0-361-205.5-553T598 0H184v1462h459q358 0 556-189t198-528zm-322-8q0 471-416 471H494V256h133q448 0 448 481zm84 1170v-27q-84-84-154.5-167.5T903 1579H546q-29 47-83 112.5T290 1880v27h203q147-93 229-176 84 87 234 176h203z"/><glyph glyph-name="dcaron" unicode="ď" horiz-adv-x="1296" d="M514-20q-197 0-309.5 153T92 557q0 275 114.5 428.5T522 1139q211 0 322-164h10q-23 125-23 223v358h306V0H903l-59 145h-13Q727-20 514-20zm107 243q117 0 171.5 68T852 522v33q0 180-55.5 258T616 891q-102 0-158.5-86.5T401 553t57-247.5T621 223zm608 1032q15 49 34.5 143t27.5 158h282v-20q-80-176-166-307h-178v26z"/><glyph glyph-name="Dcroat" unicode="Đ" horiz-adv-x="1516" d="M47 850h137v612h459q358 0 556-189t198-528q0-361-205.5-553T598 0H184v596H47v254zm1028-113q0 232-104 351.5T657 1208H494V850h237V596H494V256h131q450 0 450 481z"/><glyph glyph-name="dcroat" unicode="đ" horiz-adv-x="1329" d="M504-20q-192 0-302 144T92 526q0 282 99 416.5T514 1077q108 0 192.5-42T844 913h10q-23 131-23 232v51H516v199h315v161h306v-161h155v-199h-155V0H889l-64 145h-12Q709-20 504-20zm129 243q110 0 162.5 61.5T852 496v28q0 176-50.5 240.5T618 829q-111 0-152.5-69T424 522q0-149 50-224t159-75z"/><glyph glyph-name="Emacron" unicode="Ē" horiz-adv-x="1147" d="M1026 0H184v1462h842v-254H494V887h495V633H494V256h532V0zM274 1790h678v-211H274v211z"/><glyph glyph-name="emacron" unicode="ē" horiz-adv-x="1210" d="M623 922q-97 0-152-61.5T408 686h428q-2 113-59 174.5T623 922zm43-942q-270 0-422 149T92 551q0 281 140.5 434.5T621 1139q237 0 369-135t132-373V483H401q5-130 77-203t202-73q101 0 191 21t188 67V59Q979 19 888-.5T666-20zM278 1452h678v-211H278v211z"/><glyph glyph-name="Ebreve" unicode="Ĕ" horiz-adv-x="1147" d="M1026 0H184v1462h842v-254H494V887h495V633H494V256h532V0zm-34 1917q-12-154-122-246t-276-92q-174 0-277.5 91T205 1917h170q4-47 27.5-74t66-39 127.5-12q206 0 222 125h174z"/><glyph glyph-name="ebreve" unicode="ĕ" horiz-adv-x="1210" d="M623 922q-97 0-152-61.5T408 686h428q-2 113-59 174.5T623 922zm43-942q-270 0-422 149T92 551q0 281 140.5 434.5T621 1139q237 0 369-135t132-373V483H401q5-130 77-203t202-73q101 0 191 21t188 67V59Q979 19 888-.5T666-20zm348 1599q-12-154-122-246t-276-92q-174 0-277.5 91T227 1579h170q4-47 27.5-74t66-39 127.5-12q206 0 222 125h174z"/><glyph glyph-name="Edotaccent" unicode="Ė" horiz-adv-x="1147" d="M1026 0H184v1462h842v-254H494V887h495V633H494V256h532V0zM450 1716q0 149 166 149t166-149q0-71-41.5-110.5T616 1566q-166 0-166 150z"/><glyph glyph-name="edotaccent" unicode="ė" horiz-adv-x="1210" d="M623 922q-97 0-152-61.5T408 686h428q-2 113-59 174.5T623 922zm43-942q-270 0-422 149T92 551q0 281 140.5 434.5T621 1139q237 0 369-135t132-373V483H401q5-130 77-203t202-73q101 0 191 21t188 67V59Q979 19 888-.5T666-20zM466 1407q0 149 166 149t166-149q0-71-41.5-110.5T632 1257q-166 0-166 150z"/><glyph glyph-name="Eogonek" unicode="Ę" horiz-adv-x="1147" d="M1026 0H184v1462h842v-254H494V887h495V633H494V256h532V0zM786-227q0-42 22.5-62t57.5-20q55 0 115 18v-178q-82-23-156-23-113 0-181.5 63.5T575-262q0 67 38 126T755 0h179q-70-66-109-120.5T786-227z"/><glyph glyph-name="eogonek" unicode="ę" horiz-adv-x="1210" d="M623 922q-97 0-152-61.5T408 686h428q-2 113-59 174.5T623 922zm43-942q-270 0-422 149T92 551q0 281 140.5 434.5T621 1139q237 0 369-135t132-373V483H401q5-130 77-203t202-73q101 0 191 21t188 67V59Q979 19 888-.5T666-20zm130-187q0-42 22.5-62t57.5-20q55 0 115 18v-178q-82-23-156-23-113 0-181.5 63.5T585-242q0 67 38 126T765 20h179q-70-66-109-120.5T796-207z"/><glyph glyph-name="Ecaron" unicode="Ě" horiz-adv-x="1147" d="M1026 0H184v1462h842v-254H494V887h495V633H494V256h532V0zm18 1907v-27q-84-84-154.5-167.5T788 1579H431q-29 47-83 112.5T175 1880v27h203q147-93 229-176 84 87 234 176h203z"/><glyph glyph-name="ecaron" unicode="ě" horiz-adv-x="1210" d="M623 922q-97 0-152-61.5T408 686h428q-2 113-59 174.5T623 922zm43-942q-270 0-422 149T92 551q0 281 140.5 434.5T621 1139q237 0 369-135t132-373V483H401q5-130 77-203t202-73q101 0 191 21t188 67V59Q979 19 888-.5T666-20zm391 1589v-27q-84-84-154.5-167.5T801 1241H444q-29 47-83 112.5T188 1542v27h203q147-93 229-176 84 87 234 176h203z"/><glyph glyph-name="Gcircumflex" unicode="Ĝ" horiz-adv-x="1483" d="M739 821h580V63q-141-46-265.5-64.5T799-20q-331 0-505.5 194.5T119 733q0 354 202.5 552T883 1483q225 0 434-90l-103-248q-160 80-333 80-201 0-322-135T438 727q0-238 97.5-363.5T819 238q97 0 197 20v305H739v258zm297 758q-157 93-234 176-78-81-229-176H370v27q189 189 256 301h357q31-52 107.5-141.5T1239 1606v-27h-203z"/><glyph glyph-name="gcircumflex" unicode="ĝ" horiz-adv-x="1157" d="M1133 1118V963l-175-45q48-75 48-168 0-180-125.5-280.5T532 369l-55 3-45 5q-47-36-47-80 0-66 168-66h190q184 0 280.5-79T1120-80q0-196-163.5-304T487-492q-234 0-357.5 81.5T6-182Q6-81 69-13t185 97q-47 20-82 65.5T137 246q0 64 37 106.5T281 436q-88 38-139.5 122T90 756q0 183 119 283t340 100q47 0 111.5-8.5T743 1118h390zM270-158q0-63 60.5-99T500-293q164 0 257 45t93 123q0 63-55 87T625-14H467q-84 0-140.5-39.5T270-158zm111 910q0-91 41.5-144T549 555q86 0 126 53t40 144q0 202-166 202-168 0-168-202zm435 489q-157 93-234 176-78-81-229-176H150v27q189 189 256 301h357q31-52 107.5-141.5T1019 1268v-27H816z"/><glyph glyph-name="Gbreve" unicode="Ğ" horiz-adv-x="1483" d="M739 821h580V63q-141-46-265.5-64.5T799-20q-331 0-505.5 194.5T119 733q0 354 202.5 552T883 1483q225 0 434-90l-103-248q-160 80-333 80-201 0-322-135T438 727q0-238 97.5-363.5T819 238q97 0 197 20v305H739v258zm465 1096q-12-154-122-246t-276-92q-174 0-277.5 91T417 1917h170q4-47 27.5-74t66-39 127.5-12q206 0 222 125h174z"/><glyph glyph-name="gbreve" unicode="ğ" horiz-adv-x="1157" d="M1133 1118V963l-175-45q48-75 48-168 0-180-125.5-280.5T532 369l-55 3-45 5q-47-36-47-80 0-66 168-66h190q184 0 280.5-79T1120-80q0-196-163.5-304T487-492q-234 0-357.5 81.5T6-182Q6-81 69-13t185 97q-47 20-82 65.5T137 246q0 64 37 106.5T281 436q-88 38-139.5 122T90 756q0 183 119 283t340 100q47 0 111.5-8.5T743 1118h390zM270-158q0-63 60.5-99T500-293q164 0 257 45t93 123q0 63-55 87T625-14H467q-84 0-140.5-39.5T270-158zm111 910q0-91 41.5-144T549 555q86 0 126 53t40 144q0 202-166 202-168 0-168-202zm603 827q-12-154-122-246t-276-92q-174 0-277.5 91T197 1579h170q4-47 27.5-74t66-39 127.5-12q206 0 222 125h174z"/><glyph glyph-name="Gdot" unicode="Ġ" horiz-adv-x="1483" d="M739 821h580V63q-141-46-265.5-64.5T799-20q-331 0-505.5 194.5T119 733q0 354 202.5 552T883 1483q225 0 434-90l-103-248q-160 80-333 80-201 0-322-135T438 727q0-238 97.5-363.5T819 238q97 0 197 20v305H739v258zm-84 924q0 149 166 149t166-149q0-71-41.5-110.5T821 1595q-166 0-166 150z"/><glyph glyph-name="gdot" unicode="ġ" horiz-adv-x="1157" d="M1133 1118V963l-175-45q48-75 48-168 0-180-125.5-280.5T532 369l-55 3-45 5q-47-36-47-80 0-66 168-66h190q184 0 280.5-79T1120-80q0-196-163.5-304T487-492q-234 0-357.5 81.5T6-182Q6-81 69-13t185 97q-47 20-82 65.5T137 246q0 64 37 106.5T281 436q-88 38-139.5 122T90 756q0 183 119 283t340 100q47 0 111.5-8.5T743 1118h390zM270-158q0-63 60.5-99T500-293q164 0 257 45t93 123q0 63-55 87T625-14H467q-84 0-140.5-39.5T270-158zm111 910q0-91 41.5-144T549 555q86 0 126 53t40 144q0 202-166 202-168 0-168-202zm30 655q0 149 166 149t166-149q0-71-41.5-110.5T577 1257q-166 0-166 150z"/><glyph glyph-name="Gcommaaccent" unicode="Ģ" horiz-adv-x="1483" d="M739 821h580V63q-141-46-265.5-64.5T799-20q-331 0-505.5 194.5T119 733q0 354 202.5 552T883 1483q225 0 434-90l-103-248q-160 80-333 80-201 0-322-135T438 727q0-238 97.5-363.5T819 238q97 0 197 20v305H739v258zM629-426q15 49 34.5 143T691-125h282v-20q-75-168-166-308H629v27z"/><glyph glyph-name="gcommaaccent" unicode="ģ" horiz-adv-x="1157" d="M1133 1118V963l-175-45q48-75 48-168 0-180-125.5-280.5T532 369l-55 3-45 5q-47-36-47-80 0-66 168-66h190q184 0 280.5-79T1120-80q0-196-163.5-304T487-492q-234 0-357.5 81.5T6-182Q6-81 69-13t185 97q-47 20-82 65.5T137 246q0 64 37 106.5T281 436q-88 38-139.5 122T90 756q0 183 119 283t340 100q47 0 111.5-8.5T743 1118h390zM270-158q0-63 60.5-99T500-293q164 0 257 45t93 123q0 63-55 87T625-14H467q-84 0-140.5-39.5T270-158zm111 910q0-91 41.5-144T549 555q86 0 126 53t40 144q0 202-166 202-168 0-168-202zm387 790q-15-49-34.5-143T706 1241H424v21q78 170 166 307h178v-27z"/><glyph glyph-name="Hcircumflex" unicode="Ĥ" horiz-adv-x="1567" d="M1382 0h-309v631H494V0H184v1462h310V889h579v573h309V0zm-370 1579q-157 93-234 176-78-81-229-176H346v27q189 189 256 301h357q31-52 107.5-141.5T1215 1606v-27h-203z"/><glyph glyph-name="hcircumflex" unicode="ĥ" horiz-adv-x="1346" d="M1192 0H887v653q0 242-180 242-128 0-185-87t-57-282V0H160v1556h305v-317q0-37-7-174l-7-90h16q102 164 324 164 197 0 299-106t102-304V0zM905 1634q-157 93-234 176-78-81-229-176H239v27q189 189 256 301h357q31-52 107.5-141.5T1108 1661v-27H905z"/><glyph glyph-name="Hbar" unicode="Ħ" horiz-adv-x="1567" d="M1382 1268h185v-199h-185V0h-309v631H494V0H184v1069H0v199h184v194h310v-194h579v194h309v-194zm-309-379v180H494V889h579z"/><glyph glyph-name="hbar" unicode="ħ" horiz-adv-x="1346" d="M1192 0H887v592q0 242-180 242-127 0-184.5-87.5T465 465V0H160v1196H4v199h156v161h305v-161h315v-199H465v-18q0-83-14-265h18q102 164 324 164 197 0 298-105t101-304V0z"/><glyph glyph-name="Itilde" unicode="Ĩ" horiz-adv-x="678" d="M184 0v1462h310V0H184zm-9 1684q-31 0-59.5-26.5T74 1577H-75q11 145 82.5 227t189.5 82q41 0 80.5-16.5t78-36T431 1798t73-16q31 0 59.5 26t41.5 80h149q-11-145-83.5-227T482 1579q-41 0-80.5 16.5t-78 36-75.5 36-73 16.5z"/><glyph glyph-name="itilde" unicode="ĩ" horiz-adv-x="625" d="M465 0H160v1118h305V0zM149 1346q-31 0-59.5-26.5T48 1239h-149q11 145 82.5 227t189.5 82q41 0 80.5-16.5t78-36T405 1460t73-16q31 0 59.5 26t41.5 80h149q-11-145-83.5-227T456 1241q-41 0-80.5 16.5t-78 36-75.5 36-73 16.5z"/><glyph glyph-name="Imacron" unicode="Ī" horiz-adv-x="678" d="M184 0v1462h310V0H184zM3 1790h678v-211H3v211z"/><glyph glyph-name="imacron" unicode="ī" horiz-adv-x="625" d="M465 0H160v1118h305V0zM-23 1452h678v-211H-23v211z"/><glyph glyph-name="Ibreve" unicode="Ĭ" horiz-adv-x="678" d="M184 0v1462h310V0H184zm550 1917q-12-154-122-246t-276-92q-174 0-277.5 91T-53 1917h170q4-47 27.5-74t66-39 127.5-12q206 0 222 125h174z"/><glyph glyph-name="ibreve" unicode="ĭ" horiz-adv-x="625" d="M465 0H160v1118h305V0zm241 1579q-12-154-122-246t-276-92q-174 0-277.5 91T-81 1579H89q4-47 27.5-74t66-39 127.5-12q206 0 222 125h174z"/><glyph glyph-name="Iogonek" unicode="Į" horiz-adv-x="678" d="M184 0v1462h310V0H184zm137-227q0-42 22.5-62t57.5-20q55 0 115 18v-178q-82-23-156-23-113 0-181.5 63.5T110-262q0 67 38 126T290 0h179q-70-66-109-120.5T321-227z"/><glyph glyph-name="iogonek" unicode="į" horiz-adv-x="625" d="M147 1407q0 149 166 149t166-149q0-71-41.5-110.5T313 1257q-166 0-166 150zM465 0H160v1118h305V0zM254-227q0-42 22.5-62t57.5-20q55 0 115 18v-178q-82-23-156-23-113 0-181.5 63.5T43-262q0 67 38 126T223 0h179q-70-66-109-120.5T254-227z"/><glyph glyph-name="Idotaccent" unicode="İ" horiz-adv-x="678" d="M184 0v1462h310V0H184zm-12 1745q0 149 166 149t166-149q0-71-41.5-110.5T338 1595q-166 0-166 150z"/><glyph glyph-name="dotlessi" unicode="ı" horiz-adv-x="625" d="M465 0H160v1118h305V0z"/><glyph glyph-name="IJ" unicode="Ĳ" horiz-adv-x="1475" d="M184 0v1462h310V0H184zm644-430q-105 0-183 22v258q80-20 146-20 102 0 146 63.5T981 92v1370h310V94q0-256-117-390T828-430z"/><glyph glyph-name="ij" unicode="ĳ" horiz-adv-x="1210" d="M147 1407q0 149 166 149t166-149q0-71-41.5-110.5T313 1257q-166 0-166 150zM465 0H160v1118h305V0zm191-492q-117 0-201 25v240q70-19 143-19 77 0 112.5 43T746-76v1194h305V-121q0-178-103-274.5T656-492zm77 1899q0 149 166 149t166-149q0-71-41.5-110.5T899 1257q-166 0-166 150z"/><glyph glyph-name="Jcircumflex" unicode="Ĵ" horiz-adv-x="678" d="M31-430q-105 0-183 22v258q80-20 146-20 102 0 146 63.5T184 92v1370h310V94q0-256-117-390T31-430zm543 2009q-157 93-234 176-78-81-229-176H-92v27q189 189 256 301h357q31-52 107.5-141.5T777 1606v-27H574z"/><glyph glyph-name="jcircumflex" unicode="ĵ" horiz-adv-x="625" d="M70-492q-117 0-201 25v240q70-19 143-19 77 0 112.5 43T160-76v1194h305V-121q0-178-103-274.5T70-492zm470 1733q-157 93-234 176-78-81-229-176h-203v27q189 189 256 301h357q31-52 107.5-141.5T743 1268v-27H540z"/><glyph glyph-name="Kcommaaccent" unicode="Ķ" horiz-adv-x="1360" d="M1360 0h-352L625 616l-131-94V0H184v1462h310V793l122 172 396 497h344L846 815zM506-426q15 49 34.5 143T568-125h282v-20q-75-168-166-308H506v27z"/><glyph glyph-name="kcommaaccent" unicode="ķ" horiz-adv-x="1270" d="M453 608l133 170 313 340h344L799 633 1270 0H918L596 453 465 348V0H160v1556h305V862l-16-254h4zm14-1034q15 49 34.5 143T529-125h282v-20q-75-168-166-308H467v27z"/><glyph glyph-name="kgreenlandic" unicode="ĸ" horiz-adv-x="1270" d="M463 582l141 170 314 366h325L803 606 1270 0H922L608 426l-143-90V0H160v1118h305V825l-3-161-3-82h4z"/><glyph glyph-name="Lacute" unicode="Ĺ" horiz-adv-x="1157" d="M184 0v1462h310V256h593V0H184zm83 1579v27q172 200 235 301h342v-21q-52-52-177.5-154.5T470 1579H267z"/><glyph glyph-name="lacute" unicode="ĺ" horiz-adv-x="625" d="M465 0H160v1556h305V0zM179 1636v27q172 200 235 301h342v-21q-52-52-177.5-154.5T382 1636H179z"/><glyph glyph-name="Lcommaaccent" unicode="Ļ" horiz-adv-x="1157" d="M184 0v1462h310V256h593V0H184zm240-426q15 49 34.5 143T486-125h282v-20q-75-168-166-308H424v27z"/><glyph glyph-name="lcommaaccent" unicode="ļ" horiz-adv-x="625" d="M465 0H160v1556h305V0zM99-426q15 49 34.5 143T161-125h282v-20q-75-168-166-308H99v27z"/><glyph glyph-name="Lcaron" unicode="Ľ" horiz-adv-x="1157" d="M184 0v1462h310V256h593V0H184zm539 1162q15 49 34.5 143t27.5 158h282v-20q-80-176-166-307H723v26z"/><glyph glyph-name="lcaron" unicode="ľ" horiz-adv-x="625" d="M465 0H160v1556h305V0zm92 1255q15 49 34.5 143t27.5 158h282v-20q-80-176-166-307H557v26z"/><glyph glyph-name="Ldot" unicode="Ŀ" horiz-adv-x="1157" d="M184 0v1462h310V256h593V0H184zm522 751q0 149 166 149t166-149q0-71-41.5-110.5T872 601q-166 0-166 150z"/><glyph glyph-name="ldot" unicode="ŀ" horiz-adv-x="877" d="M465 0H160v1556h305V0zm122 695q0 149 166 149t166-149q0-71-41.5-110.5T753 545q-166 0-166 150z"/><glyph glyph-name="Lslash" unicode="Ł" horiz-adv-x="1157" d="M184 0v492l-69-41L2 647l182 111v704h310V946l143 88 117-196-260-158V256h593V0H184z"/><glyph glyph-name="lslash" unicode="ł" horiz-adv-x="676" d="M489 930l70 43 117-197-187-112V0H184v477l-71-43L0 631l184 112v813h305V930z"/><glyph glyph-name="Nacute" unicode="Ń" horiz-adv-x="1665" d="M1481 0h-394L451 1106h-9q19-293 19-418V0H184v1462h391l635-1095h7q-15 285-15 403v692h279V0zM656 1579v27q172 200 235 301h342v-21q-52-52-177.5-154.5T859 1579H656z"/><glyph glyph-name="nacute" unicode="ń" horiz-adv-x="1346" d="M1192 0H887v653q0 121-43 181.5T707 895q-128 0-185-85.5T465 526V0H160v1118h233l41-143h17q51 81 140.5 122.5T795 1139q195 0 296-105.5T1192 729V0zM502 1241v27q172 200 235 301h342v-21q-52-52-177.5-154.5T705 1241H502z"/><glyph glyph-name="Ncommaaccent" unicode="Ņ" horiz-adv-x="1665" d="M1481 0h-394L451 1106h-9q19-293 19-418V0H184v1462h391l635-1095h7q-15 285-15 403v692h279V0zM598-426q15 49 34.5 143T660-125h282v-20q-75-168-166-308H598v27z"/><glyph glyph-name="ncommaaccent" unicode="ņ" horiz-adv-x="1346" d="M1192 0H887v653q0 121-43 181.5T707 895q-128 0-185-85.5T465 526V0H160v1118h233l41-143h17q51 81 140.5 122.5T795 1139q195 0 296-105.5T1192 729V0zM467-426q15 49 34.5 143T529-125h282v-20q-75-168-166-308H467v27z"/><glyph glyph-name="Ncaron" unicode="Ň" horiz-adv-x="1665" d="M1481 0h-394L451 1106h-9q19-293 19-418V0H184v1462h391l635-1095h7q-15 285-15 403v692h279V0zm-188 1907v-27q-84-84-154.5-167.5T1037 1579H680q-29 47-83 112.5T424 1880v27h203q147-93 229-176 84 87 234 176h203z"/><glyph glyph-name="ncaron" unicode="ň" horiz-adv-x="1346" d="M1192 0H887v653q0 121-43 181.5T707 895q-128 0-185-85.5T465 526V0H160v1118h233l41-143h17q51 81 140.5 122.5T795 1139q195 0 296-105.5T1192 729V0zm-59 1569v-27q-84-84-154.5-167.5T877 1241H520q-29 47-83 112.5T264 1542v27h203q147-93 229-176 84 87 234 176h203z"/><glyph glyph-name="napostrophe" unicode="ŉ" horiz-adv-x="1595" d="M1442 0h-305v653q0 121-43 181.5T957 895q-128 0-185-85.5T715 526V0H410v1118h233l41-143h17q51 81 140.5 122.5T1045 1139q195 0 296-105.5T1442 729V0zM387 1462l14-22q-50-197-176-479H6q69 296 100 501h281z"/><glyph glyph-name="Eng" unicode="Ŋ" horiz-adv-x="1665" d="M1016-430q-114 0-197 22v258q93-20 166-20 109 0 168 45.5T1221 4L451 1106h-9q19-293 19-418V0H184v1462h391l635-891h7l-8 151q-7 109-7 253v487h279V0q0-207-120.5-318.5T1016-430z"/><glyph glyph-name="eng" unicode="ŋ" horiz-adv-x="1346" d="M829-492q-107 0-184 25v240q59-19 119-19 123 0 123 170v752q0 219-180 219-128 0-185-85.5T465 526V0H160v1118h233l41-143h19q50 79 138 121.5t204 42.5q195 0 296-105.5T1192 729v-850q0-179-94-275t-269-96z"/><glyph glyph-name="Omacron" unicode="Ō" horiz-adv-x="1630" d="M1511 733q0-363-180-558T815-20 299 175 119 735t180.5 557.5T817 1485t515.5-194T1511 733zm-1067 0q0-245 93-369t278-124q371 0 371 493 0 494-369 494-185 0-279-124.5T444 733zm34 1057h678v-211H478v211z"/><glyph glyph-name="omacron" unicode="ō" horiz-adv-x="1268" d="M403 561q0-166 54.5-251T635 225q122 0 175.5 84.5T864 561q0 166-54 249t-177 83q-122 0-176-82.5T403 561zm773 0q0-273-144-427T631-20q-161 0-284 70.5T158 253 92 561q0 274 143 426t402 152q161 0 284-70t189-201 66-307zm-881 891h678v-211H295v211z"/><glyph glyph-name="Obreve" unicode="Ŏ" horiz-adv-x="1630" d="M1511 733q0-363-180-558T815-20 299 175 119 735t180.5 557.5T817 1485t515.5-194T1511 733zm-1067 0q0-245 93-369t278-124q371 0 371 493 0 494-369 494-185 0-279-124.5T444 733zm767 1184q-12-154-122-246t-276-92q-174 0-277.5 91T424 1917h170q4-47 27.5-74t66-39 127.5-12q206 0 222 125h174z"/><glyph glyph-name="obreve" unicode="ŏ" horiz-adv-x="1268" d="M403 561q0-166 54.5-251T635 225q122 0 175.5 84.5T864 561q0 166-54 249t-177 83q-122 0-176-82.5T403 561zm773 0q0-273-144-427T631-20q-161 0-284 70.5T158 253 92 561q0 274 143 426t402 152q161 0 284-70t189-201 66-307zm-150 1018q-12-154-122-246t-276-92q-174 0-277.5 91T239 1579h170q4-47 27.5-74t66-39 127.5-12q206 0 222 125h174z"/><glyph glyph-name="Ohungarumlaut" unicode="Ő" horiz-adv-x="1630" d="M1511 733q0-363-180-558T815-20 299 175 119 735t180.5 557.5T817 1485t515.5-194T1511 733zm-1067 0q0-245 93-369t278-124q371 0 371 493 0 494-369 494-185 0-279-124.5T444 733zm34 846v27q62 85 117.5 172.5T672 1907h301v-21q-32-53-146-153t-188-154H478zm397 0v27q139 192 195 301h301v-21q-25-43-125.5-134.5T1037 1579H875z"/><glyph glyph-name="ohungarumlaut" unicode="ő" horiz-adv-x="1268" d="M403 561q0-166 54.5-251T635 225q122 0 175.5 84.5T864 561q0 166-54 249t-177 83q-122 0-176-82.5T403 561zm773 0q0-273-144-427T631-20q-161 0-284 70.5T158 253 92 561q0 274 143 426t402 152q161 0 284-70t189-201 66-307zm-897 680v27q62 85 117.5 172.5T473 1569h301v-21q-32-53-146-153t-188-154H279zm397 0v27q139 192 195 301h301v-21q-25-43-125.5-134.5T838 1241H676z"/><glyph glyph-name="OE" unicode="Œ" horiz-adv-x="1993" d="M1872 0H999q-38-9-109-14.5T774-20q-319 0-487 197T119 735q0 363 169.5 556.5T776 1485q61 0 127-7t101-16h868v-254h-563V887h526V633h-526V256h563V0zM776 1227q-166 0-252-125.5T438 733q0-244 86-368.5T774 240q65 0 126 10.5t99 28.5v907q-35 19-101.5 30T776 1227z"/><glyph glyph-name="oe" unicode="œ" horiz-adv-x="2003" d="M1446-20q-271 0-420 155Q885-20 635-20q-162 0-286 70T158.5 252 92 561q0 277 141.5 427.5T633 1139q112 0 212-39.5T1016 983q144 156 383 156 244 0 380-135t136-373V483h-746v-8q7-127 81.5-197.5T1458 207q107 0 200 21t193 67V59q-81-39-175.5-59T1446-20zM403 561q0-166 54.5-251T635 225q122 0 175.5 84.5T864 561q0 166-54 249t-177 83q-122 0-176-82.5T403 561zm1002 361q-94 0-156-57.5T1178 686h450q-2 111-60.5 173.5T1405 922z"/><glyph glyph-name="Racute" unicode="Ŕ" horiz-adv-x="1352" d="M494 813h100q147 0 217 49t70 154q0 104-71.5 148T588 1208h-94V813zm0-252V0H184v1462h426q298 0 441-108.5t143-329.5q0-129-71-229.5T922 637q330-493 430-637h-344L659 561H494zm-17 1018v27q172 200 235 301h342v-21q-52-52-177.5-154.5T680 1579H477z"/><glyph glyph-name="racute" unicode="ŕ" horiz-adv-x="930" d="M784 1139q62 0 103-9l-23-286q-37 10-90 10-146 0-227.5-75T465 569V0H160v1118h231l45-188h15q52 94 140.5 151.5T784 1139zm-446 102v27q172 200 235 301h342v-21q-52-52-177.5-154.5T541 1241H338z"/><glyph glyph-name="Rcommaaccent" unicode="Ŗ" horiz-adv-x="1352" d="M494 813h100q147 0 217 49t70 154q0 104-71.5 148T588 1208h-94V813zm0-252V0H184v1462h426q298 0 441-108.5t143-329.5q0-129-71-229.5T922 637q330-493 430-637h-344L659 561H494zm36-987q15 49 34.5 143T592-125h282v-20q-75-168-166-308H530v27z"/><glyph glyph-name="rcommaaccent" unicode="ŗ" horiz-adv-x="930" d="M784 1139q62 0 103-9l-23-286q-37 10-90 10-146 0-227.5-75T465 569V0H160v1118h231l45-188h15q52 94 140.5 151.5T784 1139zM99-426q15 49 34.5 143T161-125h282v-20q-75-168-166-308H99v27z"/><glyph glyph-name="Rcaron" unicode="Ř" horiz-adv-x="1352" d="M494 813h100q147 0 217 49t70 154q0 104-71.5 148T588 1208h-94V813zm0-252V0H184v1462h426q298 0 441-108.5t143-329.5q0-129-71-229.5T922 637q330-493 430-637h-344L659 561H494zm612 1346v-27q-84-84-154.5-167.5T850 1579H493q-29 47-83 112.5T237 1880v27h203q147-93 229-176 84 87 234 176h203z"/><glyph glyph-name="rcaron" unicode="ř" horiz-adv-x="930" d="M784 1139q62 0 103-9l-23-286q-37 10-90 10-146 0-227.5-75T465 569V0H160v1118h231l45-188h15q52 94 140.5 151.5T784 1139zm168 430v-27q-84-84-154.5-167.5T696 1241H339q-29 47-83 112.5T83 1542v27h203q147-93 229-176 84 87 234 176h203z"/><glyph glyph-name="Sacute" unicode="Ś" horiz-adv-x="1128" d="M1047 406q0-198-142.5-312T508-20Q274-20 94 68v288q148-66 250.5-93T532 236q102 0 156.5 39T743 391q0 43-24 76.5T648.5 532 459 631q-134 63-201 121T151 887t-40 180q0 194 131.5 305T606 1483q114 0 217.5-27t216.5-76l-100-241q-117 48-193.5 67T596 1225q-88 0-135-41t-47-107q0-41 19-71.5t60.5-59T690 844q205-98 281-196.5t76-241.5zM410 1579v27q172 200 235 301h342v-21q-52-52-177.5-154.5T613 1579H410z"/><glyph glyph-name="sacute" unicode="ś" horiz-adv-x="1018" d="M940 332q0-172-119.5-262T463-20Q341-20 255-3.5T94 45v252q85-40 191.5-67T473 203q166 0 166 96 0 36-22 58.5t-76 51T397 475q-129 54-189.5 100t-88 105.5T92 827q0 149 115.5 230.5T535 1139q202 0 393-88l-92-220q-84 36-157 59t-149 23q-135 0-135-73 0-41 43.5-71T629 680q131-53 192-99t90-106 29-143zm-598 909v27q172 200 235 301h342v-21q-52-52-177.5-154.5T545 1241H342z"/><glyph glyph-name="Scircumflex" unicode="Ŝ" horiz-adv-x="1128" d="M1047 406q0-198-142.5-312T508-20Q274-20 94 68v288q148-66 250.5-93T532 236q102 0 156.5 39T743 391q0 43-24 76.5T648.5 532 459 631q-134 63-201 121T151 887t-40 180q0 194 131.5 305T606 1483q114 0 217.5-27t216.5-76l-100-241q-117 48-193.5 67T596 1225q-88 0-135-41t-47-107q0-41 19-71.5t60.5-59T690 844q205-98 281-196.5t76-241.5zM830 1579q-157 93-234 176-78-81-229-176H164v27q189 189 256 301h357q31-52 107.5-141.5T1033 1606v-27H830z"/><glyph glyph-name="scircumflex" unicode="ŝ" horiz-adv-x="1018" d="M940 332q0-172-119.5-262T463-20Q341-20 255-3.5T94 45v252q85-40 191.5-67T473 203q166 0 166 96 0 36-22 58.5t-76 51T397 475q-129 54-189.5 100t-88 105.5T92 827q0 149 115.5 230.5T535 1139q202 0 393-88l-92-220q-84 36-157 59t-149 23q-135 0-135-73 0-41 43.5-71T629 680q131-53 192-99t90-106 29-143zm-181 909q-157 93-234 176-78-81-229-176H93v27q189 189 256 301h357q31-52 107.5-141.5T962 1268v-27H759z"/><glyph glyph-name="Scedilla" unicode="Ş" horiz-adv-x="1128" d="M1047 406q0-198-142.5-312T508-20Q274-20 94 68v288q148-66 250.5-93T532 236q102 0 156.5 39T743 391q0 43-24 76.5T648.5 532 459 631q-134 63-201 121T151 887t-40 180q0 194 131.5 305T606 1483q114 0 217.5-27t216.5-76l-100-241q-117 48-193.5 67T596 1225q-88 0-135-41t-47-107q0-41 19-71.5t60.5-59T690 844q205-98 281-196.5t76-241.5zM772-250q0-128-75.5-185T463-492q-78 0-146 21v168q27-7 72.5-14t70.5-7q72 0 72 62 0 83-166 108L444 0h193l-27-61q74-24 118-74.5T772-250z"/><glyph glyph-name="scedilla" unicode="ş" horiz-adv-x="1018" d="M940 332q0-172-119.5-262T463-20Q341-20 255-3.5T94 45v252q85-40 191.5-67T473 203q166 0 166 96 0 36-22 58.5t-76 51T397 475q-129 54-189.5 100t-88 105.5T92 827q0 149 115.5 230.5T535 1139q202 0 393-88l-92-220q-84 36-157 59t-149 23q-135 0-135-73 0-41 43.5-71T629 680q131-53 192-99t90-106 29-143zM719-250q0-128-75.5-185T410-492q-78 0-146 21v168q27-7 72.5-14t70.5-7q72 0 72 62 0 83-166 108L391 0h193l-27-61q74-24 118-74.5T719-250z"/><glyph glyph-name="Scaron" unicode="Š" horiz-adv-x="1128" d="M1047 406q0-198-142.5-312T508-20Q274-20 94 68v288q148-66 250.5-93T532 236q102 0 156.5 39T743 391q0 43-24 76.5T648.5 532 459 631q-134 63-201 121T151 887t-40 180q0 194 131.5 305T606 1483q114 0 217.5-27t216.5-76l-100-241q-117 48-193.5 67T596 1225q-88 0-135-41t-47-107q0-41 19-71.5t60.5-59T690 844q205-98 281-196.5t76-241.5zm-14 1501v-27q-84-84-154.5-167.5T777 1579H420q-29 47-83 112.5T164 1880v27h203q147-93 229-176 84 87 234 176h203z"/><glyph glyph-name="scaron" unicode="š" horiz-adv-x="1018" d="M940 332q0-172-119.5-262T463-20Q341-20 255-3.5T94 45v252q85-40 191.5-67T473 203q166 0 166 96 0 36-22 58.5t-76 51T397 475q-129 54-189.5 100t-88 105.5T92 827q0 149 115.5 230.5T535 1139q202 0 393-88l-92-220q-84 36-157 59t-149 23q-135 0-135-73 0-41 43.5-71T629 680q131-53 192-99t90-106 29-143zm32 1237v-27q-84-84-154.5-167.5T716 1241H359q-29 47-83 112.5T103 1542v27h203q147-93 229-176 84 87 234 176h203z"/><glyph glyph-name="Tcedilla" unicode="Ţ" horiz-adv-x="1186" d="M748 0H438v1204H41v258h1104v-258H748V0zm82-250q0-128-75.5-185T521-492q-78 0-146 21v168q27-7 72.5-14t70.5-7q72 0 72 62 0 83-166 108L502 0h193l-27-61q74-24 118-74.5T830-250z"/><glyph glyph-name="tcedilla" unicode="ţ" horiz-adv-x="889" d="M631 223q80 0 192 35V31Q709-20 543-20q-183 0-266.5 92.5T193 350v539H47v129l168 102 88 236h195v-238h313V889H498V350q0-65 36.5-96t96.5-31zm109-473q0-128-75.5-185T431-492q-78 0-146 21v168q27-7 72.5-14t70.5-7q72 0 72 62 0 83-166 108L412 0h193l-27-61q74-24 118-74.5T740-250z"/><glyph glyph-name="Tcaron" unicode="Ť" horiz-adv-x="1186" d="M748 0H438v1204H41v258h1104v-258H748V0zm281 1907v-27q-84-84-154.5-167.5T773 1579H416q-29 47-83 112.5T160 1880v27h203q147-93 229-176 84 87 234 176h203z"/><glyph glyph-name="tcaron" unicode="ť" horiz-adv-x="889" d="M631 223q80 0 192 35V31Q709-20 543-20q-183 0-266.5 92.5T193 350v539H47v129l168 102 88 236h195v-238h313V889H498V350q0-65 36.5-96t96.5-31zm-11 1052q15 49 34.5 143t27.5 158h282v-20q-80-176-166-307H620v26z"/><glyph glyph-name="Tbar" unicode="Ŧ" horiz-adv-x="1186" d="M748 0H438v596H190v254h248v354H41v258h1104v-258H748V850h247V596H748V0z"/><glyph glyph-name="tbar" unicode="ŧ" horiz-adv-x="889" d="M631 223q80 0 192 35V31Q771 6 696.5-7T549-20q-186 0-271 91t-85 279v148H66v198h127v193H47v129l168 102 88 236h195v-238h313V889H498V696h278V498H498V350q0-65 36.5-96t96.5-31z"/><glyph glyph-name="Utilde" unicode="Ũ" horiz-adv-x="1548" d="M1374 1462V516q0-162-72.5-284T1092 45 768-20q-282 0-438 144.5T174 520v942h309V567q0-169 68-248t225-79q152 0 220.5 79.5T1065 569v893h309zm-761 222q-31 0-59.5-26.5T512 1577H363q11 145 82.5 227t189.5 82q41 0 80.5-16.5t78-36T869 1798t73-16q31 0 59.5 26t41.5 80h149q-11-145-83.5-227T920 1579q-41 0-80.5 16.5t-78 36-75.5 36-73 16.5z"/><glyph glyph-name="utilde" unicode="ũ" horiz-adv-x="1346" d="M952 0l-41 143h-16Q846 65 756 22.5T551-20Q354-20 254 85.5T154 389v729h305V465q0-121 43-181.5T639 223q128 0 185 85.5T881 592v526h305V0H952zM506 1346q-31 0-59.5-26.5T405 1239H256q11 145 82.5 227t189.5 82q41 0 80.5-16.5t78-36T762 1460t73-16q31 0 59.5 26t41.5 80h149q-11-145-83.5-227T813 1241q-41 0-80.5 16.5t-78 36-75.5 36-73 16.5z"/><glyph glyph-name="Umacron" unicode="Ū" horiz-adv-x="1548" d="M1374 1462V516q0-162-72.5-284T1092 45 768-20q-282 0-438 144.5T174 520v942h309V567q0-169 68-248t225-79q152 0 220.5 79.5T1065 569v893h309zm-937 328h678v-211H437v211z"/><glyph glyph-name="umacron" unicode="ū" horiz-adv-x="1346" d="M952 0l-41 143h-16Q846 65 756 22.5T551-20Q354-20 254 85.5T154 389v729h305V465q0-121 43-181.5T639 223q128 0 185 85.5T881 592v526h305V0H952zM330 1452h678v-211H330v211z"/><glyph glyph-name="Ubreve" unicode="Ŭ" horiz-adv-x="1548" d="M1374 1462V516q0-162-72.5-284T1092 45 768-20q-282 0-438 144.5T174 520v942h309V567q0-169 68-248t225-79q152 0 220.5 79.5T1065 569v893h309zm-206 455q-12-154-122-246t-276-92q-174 0-277.5 91T381 1917h170q4-47 27.5-74t66-39 127.5-12q206 0 222 125h174z"/><glyph glyph-name="ubreve" unicode="ŭ" horiz-adv-x="1346" d="M952 0l-41 143h-16Q846 65 756 22.5T551-20Q354-20 254 85.5T154 389v729h305V465q0-121 43-181.5T639 223q128 0 185 85.5T881 592v526h305V0H952zm111 1579q-12-154-122-246t-276-92q-174 0-277.5 91T276 1579h170q4-47 27.5-74t66-39 127.5-12q206 0 222 125h174z"/><glyph glyph-name="Uring" unicode="Ů" horiz-adv-x="1548" d="M1374 1462V516q0-162-72.5-284T1092 45 768-20q-282 0-438 144.5T174 520v942h309V567q0-169 68-248t225-79q152 0 220.5 79.5T1065 569v893h309zm-348 355q0-108-71-174t-183-66-180 64-68 174q0 108 67.5 172.5T772 2052q110 0 182-66t72-169zm-158-2q0 45-27 70.5t-69 25.5-69-25.5-27-70.5 24-71 72-26q42 0 69 26t27 71z"/><glyph glyph-name="uring" unicode="ů" horiz-adv-x="1346" d="M952 0l-41 143h-16Q846 65 756 22.5T551-20Q354-20 254 85.5T154 389v729h305V465q0-121 43-181.5T639 223q128 0 185 85.5T881 592v526h305V0H952zm-32 1479q0-108-71-174t-183-66-180 64-68 174q0 108 67.5 172.5T666 1714q110 0 182-66t72-169zm-158-2q0 45-27 70.5t-69 25.5-69-25.5-27-70.5 24-71 72-26q42 0 69 26t27 71z"/><glyph glyph-name="Uhungarumlaut" unicode="Ű" horiz-adv-x="1548" d="M1374 1462V516q0-162-72.5-284T1092 45 768-20q-282 0-438 144.5T174 520v942h309V567q0-169 68-248t225-79q152 0 220.5 79.5T1065 569v893h309zm-933 117v27q62 85 117.5 172.5T635 1907h301v-21q-32-53-146-153t-188-154H441zm397 0v27q139 192 195 301h301v-21q-25-43-125.5-134.5T1000 1579H838z"/><glyph glyph-name="uhungarumlaut" unicode="ű" horiz-adv-x="1346" d="M952 0l-41 143h-16Q846 65 756 22.5T551-20Q354-20 254 85.5T154 389v729h305V465q0-121 43-181.5T639 223q128 0 185 85.5T881 592v526h305V0H952zM344 1241v27q62 85 117.5 172.5T538 1569h301v-21q-32-53-146-153t-188-154H344zm397 0v27q139 192 195 301h301v-21q-25-43-125.5-134.5T903 1241H741z"/><glyph glyph-name="Uogonek" unicode="Ų" horiz-adv-x="1548" d="M1374 1462V516q0-162-72.5-284T1092 45 768-20q-282 0-438 144.5T174 520v942h309V567q0-169 68-248t225-79q152 0 220.5 79.5T1065 569v893h309zM805-227q0-42 22.5-62t57.5-20q55 0 115 18v-178q-82-23-156-23-113 0-181.5 63.5T594-262q0 67 38 126T774 0h179q-70-66-109-120.5T805-227z"/><glyph glyph-name="uogonek" unicode="ų" horiz-adv-x="1346" d="M952 0l-41 143h-16Q846 65 756 22.5T551-20Q354-20 254 85.5T154 389v729h305V465q0-121 43-181.5T639 223q128 0 185 85.5T881 592v526h305V0H952zm29-227q0-42 22.5-62t57.5-20q55 0 115 18v-178q-82-23-156-23-113 0-181.5 63.5T770-262q0 67 38 126T950 0h179q-70-66-109-120.5T981-227z"/><glyph glyph-name="Wcircumflex" unicode="Ŵ" horiz-adv-x="1980" d="M1608 0h-353l-198 768q-11 41-37.5 169.5T989 1110q-6-54-30-173.5T922 766L725 0H373L0 1462h305l187-798q49-221 71-383 6 57 27.5 176.5T631 643l213 819h293l213-819q14-55 35-168t32-194q10 78 32 194.5t40 188.5l186 798h305zm-387 1579q-157 93-234 176-78-81-229-176H555v27q189 189 256 301h357q31-52 107.5-141.5T1424 1606v-27h-203z"/><glyph glyph-name="wcircumflex" unicode="ŵ" horiz-adv-x="1753" d="M1079 0l-86 391-116 494h-7L666 0H338L20 1118h304l129-495q31-133 63-367h6q4 76 35 241l16 85 138 536h336l131-536q4-22 12.5-65t16.5-91.5 14.5-95 7.5-74.5h6q9 72 32 197.5t33 169.5l134 495h299L1411 0h-332zm29 1241q-157 93-234 176-78-81-229-176H442v27q189 189 256 301h357q31-52 107.5-141.5T1311 1268v-27h-203z"/><glyph glyph-name="Ycircumflex" unicode="Ŷ" horiz-adv-x="1278" d="M639 860l305 602h334L793 569V0H485v559L0 1462h336zm233 719q-157 93-234 176-78-81-229-176H206v27q189 189 256 301h357q31-52 107.5-141.5T1075 1606v-27H872z"/><glyph glyph-name="ycircumflex" unicode="ŷ" horiz-adv-x="1165" d="M0 1118h334l211-629q27-82 37-194h6q11 103 43 194l207 629h327L692-143q-65-175-185.5-262T225-492q-79 0-155 17v242q55-13 120-13 81 0 141.5 49.5T426-47l18 55zm816 123q-157 93-234 176-78-81-229-176H150v27q189 189 256 301h357q31-52 107.5-141.5T1019 1268v-27H816z"/><glyph glyph-name="Ydieresis" unicode="Ÿ" horiz-adv-x="1278" d="M639 860l305 602h334L793 569V0H485v559L0 1462h336zm-342 883q0 65 37.5 100t101.5 35q66 0 103.5-37t37.5-98q0-60-38-96.5T436 1610q-64 0-101.5 35t-37.5 98zm403 0q0 70 40.5 102.5T841 1878q65 0 103.5-36t38.5-99q0-61-39-97t-103-36q-60 0-100.5 32.5T700 1743z"/><glyph glyph-name="Zacute" unicode="Ź" horiz-adv-x="1186" d="M1137 0H49v201l701 1005H68v256h1050v-200L418 256h719V0zM410 1579v27q172 200 235 301h342v-21q-52-52-177.5-154.5T613 1579H410z"/><glyph glyph-name="zacute" unicode="ź" horiz-adv-x="999" d="M938 0H55v180l518 705H86v233h834V920L416 233h522V0zM352 1241v27q172 200 235 301h342v-21q-52-52-177.5-154.5T555 1241H352z"/><glyph glyph-name="Zdotaccent" unicode="Ż" horiz-adv-x="1186" d="M1137 0H49v201l701 1005H68v256h1050v-200L418 256h719V0zM426 1745q0 149 166 149t166-149q0-71-41.5-110.5T592 1595q-166 0-166 150z"/><glyph glyph-name="zdotaccent" unicode="ż" horiz-adv-x="999" d="M938 0H55v180l518 705H86v233h834V920L416 233h522V0zM329 1407q0 149 166 149t166-149q0-71-41.5-110.5T495 1257q-166 0-166 150z"/><glyph glyph-name="Zcaron" unicode="Ž" horiz-adv-x="1186" d="M1137 0H49v201l701 1005H68v256h1050v-200L418 256h719V0zm-97 1907v-27q-84-84-154.5-167.5T784 1579H427q-29 47-83 112.5T171 1880v27h203q147-93 229-176 84 87 234 176h203z"/><glyph glyph-name="zcaron" unicode="ž" horiz-adv-x="999" d="M938 0H55v180l518 705H86v233h834V920L416 233h522V0zm14 1569v-27q-84-84-154.5-167.5T696 1241H339q-29 47-83 112.5T83 1542v27h203q147-93 229-176 84 87 234 176h203z"/><glyph glyph-name="longs" unicode="ſ" horiz-adv-x="784" d="M592 1325q-127 0-127-137V0H160v1200q0 191 94 279t299 88q158 0 278-47l-71-224q-92 29-168 29z"/><glyph glyph-name="florin" unicode="ƒ" d="M745-121q0-177-94-274t-270-97q-107 0-184 25v240q59-19 118-19 125 0 125 170v881H272v147l168 82v82q0 189 87.5 278t281.5 89q150 0 262-47l-72-224q-82 29-145 29-109 0-109-137v-70h228V805H745v-926z"/><glyph glyph-name="Ohorn" unicode="Ơ" horiz-adv-x="1690" d="M1511 733q0-363-180-558T815-20 299 175 119 735q0 363 181 556.5T819 1485q346 0 524-203 93 61 93 274h301l14-22q-36-177-107-277.5T1450 1106q61-159 61-373zm-1067 0q0-245 93-369t278-124q371 0 371 493 0 494-369 494-185 0-279-124.5T444 733zM1630 0z"/><glyph glyph-name="ohorn" unicode="ơ" horiz-adv-x="1391" d="M1176 561q0-273-144-427T631-20q-161 0-284 70.5T158 253 92 561q0 274 143 426t402 152q112 0 212-34.5t171-103.5q149 45 149 285h301l15-22q-27-134-70.5-212.5t-114.5-132-176-79.5q52-125 52-279zm-773 0q0-166 54.5-251T635 225q122 0 175.5 84.5T864 561q0 166-54 249t-177 83q-122 0-176-82.5T403 561zM1268 0z"/><glyph glyph-name="Uhorn" unicode="Ư" horiz-adv-x="1812" d="M1374 1462v-188q74 26 109 101t35 181h301l14-22q-32-154-85.5-237.5t-144.5-135-229-71.5V516q0-162-72.5-284T1092 45 768-20q-282 0-438 144.5T174 520v942h309V543q0-156 70.5-229.5T776 240t220.5 76.5T1065 545v917h309zM1548 0z"/><glyph glyph-name="uhorn" unicode="ư" horiz-adv-x="1556" d="M952 0l-41 143h-18Q845 66 755.5 23T551-20Q354-20 254 85.5T154 389v729h305V465q0-121 43-181.5T639 223q128 0 185 85.5T881 592v526h305v-117q71 22 110 95.5t39 189.5h301l15-22q-32-156-86-240t-145.5-135-233.5-72V0H952zm394 0z"/><glyph glyph-name="uni01F0" unicode="ǰ" horiz-adv-x="625" d="M70-492q-117 0-201 25v240q70-19 143-19 77 0 112.5 43T160-76v1194h305V-121q0-178-103-274.5T70-492zm675 2061v-27q-84-84-154.5-167.5T489 1241H132q-29 47-83 112.5T-124 1542v27H79q147-93 229-176 84 87 234 176h203z"/><glyph glyph-name="Aringacute" unicode="Ǻ" horiz-adv-x="1413" d="M958 1462q0-85-47-147L1413 0h-332L975 330H440L332 0H0l500 1315q-43 58-43 145 0 110 68 174t180 64q109 0 181-64.5t72-171.5zm-49-872L807 879q-86 230-100 299-19-71-87-267L508 590h401zM584 1753v16q46 42 99 102t75 91h342v-12q-23-26-114.5-84T786 1753H584zm217-293q0 45-27 70.5t-69 25.5-69.5-25.5T608 1460q0-92 86-96h19q38 2 63 27.5t25 68.5z"/><glyph glyph-name="aringacute" unicode="ǻ" horiz-adv-x="1237" d="M870 0l-59 152h-8Q726 55 644.5 17.5T432-20q-161 0-253.5 92T86 334q0 178 124.5 262.5T586 690l194 6v49q0 170-174 170-134 0-315-81l-101 206q193 101 428 101 225 0 345-98t120-298V0H870zm-90 518l-118-4q-133-4-198-48t-65-134q0-129 148-129 106 0 169.5 61T780 426v92zM471 1753v16q46 42 99 102t75 91h342v-12q-21-24-103-76.5T674 1753H471zm410-315q0-108-71-174t-183-66-180 64-68 174q0 108 67.5 172.5T627 1673q110 0 182-66t72-169zm-158-2q0 45-27 70.5t-69 25.5-69.5-25.5T530 1436t24.5-71 72.5-26q42 0 69 26t27 71z"/><glyph glyph-name="AEacute" unicode="Ǽ" horiz-adv-x="1950" d="M1829 0H956v348H465L315 0H0l655 1462h1174v-254h-563V887h526V633h-526V256h563V0zM578 608h378v590H829zm426 971v27q172 200 235 301h342v-21q-52-52-177.5-154.5T1207 1579h-203z"/><glyph glyph-name="aeacute" unicode="ǽ" horiz-adv-x="1878" d="M1329-20q-137 0-249.5 50.5T895 186Q797 69 698.5 24.5T442-20q-161 0-258.5 94.5T86 334q0 178 121 262.5T569 690l191 6v84q0 69-44.5 102T594 915q-140 0-305-77l-99 202q189 101 422 101 227 0 342-131 66 64 152.5 96.5T1313 1139q221 0 349-137.5T1790 631V483h-723q5-130 77-203t202-73q196 0 380 88V59q-79-39-171-59t-226-20zM760 518l-113-4q-124-4-186-47.5T399 332q0-129 140-129 101 0 161 61t60 162v92zm547 404q-217 0-234-236h430q-2 112-55 174t-141 62zm-510 319v27q172 200 235 301h342v-21q-52-52-177.5-154.5T1000 1241H797z"/><glyph glyph-name="Oslashacute" unicode="Ǿ" horiz-adv-x="1630" d="M1511 733q0-363-180-558T815-20q-197 0-336 65L389-90 227 18l90 136Q119 348 119 735q0 365 180.5 557.5T817 1485q198 0 344-70l84 125 160-104-88-131q194-194 194-572zm-1067 0q0-191 56-307l506 756q-84 45-189 45-185 0-279-124.5T444 733zm742 0q0 180-51 297L635 279q76-39 180-39 371 0 371 493zm-549 846v27q172 200 235 301h342v-21q-52-52-177.5-154.5T840 1579H637z"/><glyph glyph-name="oslashacute" unicode="ǿ" horiz-adv-x="1268" d="M1176 561q0-273-144-427T631-20q-126 0-234 45L330-76 176 29l68 100Q92 285 92 561q0 274 143 426t402 152q132 0 248-52l55 82 152-108-58-84q142-155 142-416zm-773 0q0-94 19-166l317 475q-43 23-106 23-122 0-176-82.5T403 561zm461 0q0 81-12 141L543 240q38-15 92-15 122 0 175.5 84.5T864 561zm-409 680v27q172 200 235 301h342v-21q-52-52-177.5-154.5T658 1241H455z"/><glyph glyph-name="Scommaaccent" unicode="Ș" horiz-adv-x="1128" d="M1047 406q0-198-142.5-312T508-20Q274-20 94 68v288q148-66 250.5-93T532 236q102 0 156.5 39T743 391q0 43-24 76.5T648.5 532 459 631q-134 63-201 121T151 887t-40 180q0 194 131.5 305T606 1483q114 0 217.5-27t216.5-76l-100-241q-117 48-193.5 67T596 1225q-88 0-135-41t-47-107q0-41 19-71.5t60.5-59T690 844q205-98 281-196.5t76-241.5zM345-426q15 49 34.5 143T407-125h282v-20q-75-168-166-308H345v27z"/><glyph glyph-name="scommaaccent" unicode="ș" horiz-adv-x="1018" d="M940 332q0-172-119.5-262T463-20Q341-20 255-3.5T94 45v252q85-40 191.5-67T473 203q166 0 166 96 0 36-22 58.5t-76 51T397 475q-129 54-189.5 100t-88 105.5T92 827q0 149 115.5 230.5T535 1139q202 0 393-88l-92-220q-84 36-157 59t-149 23q-135 0-135-73 0-41 43.5-71T629 680q131-53 192-99t90-106 29-143zM294-426q15 49 34.5 143T356-125h282v-20q-75-168-166-308H294v27z"/><glyph glyph-name="Tcommaaccent" unicode="Ț" horiz-adv-x="1186" d="M748 0H438v1204H41v258h1104v-258H748V0zM391-426q15 49 34.5 143T453-125h282v-20q-75-168-166-308H391v27z"/><glyph glyph-name="tcommaaccent" unicode="ț" horiz-adv-x="889" d="M631 223q80 0 192 35V31Q709-20 543-20q-183 0-266.5 92.5T193 350v539H47v129l168 102 88 236h195v-238h313V889H498V350q0-65 36.5-96t96.5-31zM300-426q15 49 34.5 143T362-125h282v-20q-75-168-166-308H300v27z"/><glyph glyph-name="dotlessj" unicode="ȷ" horiz-adv-x="625" d="M70-492q-117 0-201 25v240q70-19 143-19 77 0 112.5 43T160-76v1194h305V-121q0-178-103-274.5T70-492z"/><glyph glyph-name="uni02BC" unicode="ʼ" horiz-adv-x="444" d="M406 1462l14-22q-50-197-176-479H25q69 296 100 501h281z"/><glyph glyph-name="circumflex" unicode="ˆ" horiz-adv-x="1243" d="M852 1241q-157 93-234 176-78-81-229-176H186v27q189 189 256 301h357q31-52 107.5-141.5T1055 1268v-27H852z"/><glyph glyph-name="caron" unicode="ˇ" horiz-adv-x="1243" d="M1055 1569v-27q-84-84-154.5-167.5T799 1241H442q-29 47-83 112.5T186 1542v27h203q147-93 229-176 84 87 234 176h203z"/><glyph glyph-name="macron" unicode="ˉ" horiz-adv-x="1243" d="M283 1452h678v-211H283v211z"/><glyph glyph-name="breve" unicode="˘" horiz-adv-x="1243" d="M1014 1579q-12-154-122-246t-276-92q-174 0-277.5 91T227 1579h170q4-47 27.5-74t66-39 127.5-12q206 0 222 125h174z"/><glyph glyph-name="dotaccent" unicode="˙" horiz-adv-x="625" d="M147 1407q0 149 166 149t166-149q0-71-41.5-110.5T313 1257q-166 0-166 150z"/><glyph glyph-name="ring" unicode="˚" horiz-adv-x="1182" d="M842 1479q0-108-71-174t-183-66-180 64-68 174q0 108 67.5 172.5T588 1714q110 0 182-66t72-169zm-158-2q0 45-27 70.5t-69 25.5-69-25.5-27-70.5 24-71 72-26q42 0 69 26t27 71z"/><glyph glyph-name="ogonek" unicode="˛" horiz-adv-x="422" d="M221-227q0-42 22.5-62t57.5-20q55 0 115 18v-178q-82-23-156-23-113 0-181.5 63.5T10-262q0 67 38 126T190 0h179q-70-66-109-120.5T221-227z"/><glyph glyph-name="tilde" unicode="˜" horiz-adv-x="1243" d="M457 1346q-31 0-59.5-26.5T356 1239H207q11 145 82.5 227t189.5 82q41 0 80.5-16.5t78-36T713 1460t73-16q31 0 59.5 26t41.5 80h149q-11-145-83.5-227T764 1241q-41 0-80.5 16.5t-78 36-75.5 36-73 16.5z"/><glyph glyph-name="hungarumlaut" unicode="˝" horiz-adv-x="1204" d="M156 1241v27q62 85 117.5 172.5T350 1569h301v-21q-32-53-146-153t-188-154H156zm397 0v27q139 192 195 301h301v-21q-25-43-125.5-134.5T715 1241H553z"/><glyph glyph-name="uni02F3" unicode="˳" horiz-adv-x="682" d="M590-360q0-108-71-174t-183-66-180 64-68 174q0 108 67.5 172.5T336-125q110 0 182-66t72-169zm-158-2q0 45-27 70.5T336-266t-69-25.5-27-70.5 24-71 72-26q42 0 69 26t27 71z"/><glyph glyph-name="uni0300" unicode="̀" horiz-adv-x="0" d="M-627 1241q-63 44-185 142.5t-190 164.5v21h342q63-101 235-301v-27h-202z"/><glyph glyph-name="uni0301" unicode="́" horiz-adv-x="0" d="M-816 1241v27q172 200 235 301h342v-21q-52-52-177.5-154.5T-613 1241h-203z"/><glyph glyph-name="uni0303" unicode="̃" horiz-adv-x="0" d="M-806 1346q-31 0-59.5-26.5T-907 1239h-149q11 145 82.5 227t189.5 82q41 0 80.5-16.5t78-36 75.5-35.5 73-16q31 0 59.5 26t41.5 80h149q-11-145-83.5-227t-188.5-82q-41 0-80.5 16.5t-78 36-75.5 36-73 16.5z"/><glyph glyph-name="hook" unicode="̉" horiz-adv-x="0" d="M-352 1487q0-156-162-197l-10-71h-174l-23 147q75 12 102 37.5t27 62.5q0 32-21 49t-55 17q-65 0-139-23v168q30 10 82.5 16.5t93.5 6.5q140 0 209.5-55.5T-352 1487z"/><glyph glyph-name="uni030F" unicode="̏" horiz-adv-x="0" d="M-442 1241q-62 49-171 150.5T-756 1548v21h301q33-72 83-158.5t91-142.5v-27h-161zm-398 0q-73 57-177.5 157t-135.5 150v21h301q33-72 83-158.5t91-142.5v-27h-162z"/><glyph glyph-name="dotbelow" unicode="̣" horiz-adv-x="0" d="M-807-281q0 150 166 150t166-150q0-71-42-110t-124-39q-166 0-166 149z"/><glyph glyph-name="tonos" unicode="΄" horiz-adv-x="1182" d="M471 1272q18 54 44.5 164t37.5 194h283v-24q-78-186-187-365H471v31z"/><glyph glyph-name="dieresistonos" unicode="΅" horiz-adv-x="1182" d="M186 1405q0 71 35.5 103t93.5 32q57 0 94-32t37-103q0-68-37-100.5t-94-32.5q-58 0-93.5 32.5T186 1405zm547 0q0 135 131 135 57 0 94-32t37-103q0-68-37-100.5t-94-32.5q-60 0-95.5 32.5T733 1405zm-246 10q15 49 34.5 143t27.5 158h262v-20q-58-128-186-307H487v26z"/><glyph glyph-name="Alphatonos" unicode="Ά" horiz-adv-x="1413" d="M1079 0L973 348H440L334 0H0l516 1468h379L1413 0h-334zM899 608q-147 473-165.5 535t-26.5 98q-33-128-189-633h381zm-955 559q18 54 44.5 164T26 1525h283v-24q-78-186-187-365H-56v31z"/><glyph glyph-name="anoteleia" unicode="·" horiz-adv-x="584" d="M117 721q0 84 45 127t131 43q83 0 128.5-44T467 721q0-79-46-124.5T293 551q-84 0-130 44.5T117 721z"/><glyph glyph-name="Epsilontonos" unicode="Έ" horiz-adv-x="1290" d="M1169 0H327v1462h842v-254H637V887h495V633H637V256h532V0zM-99 1167q18 54 44.5 164t37.5 194h283v-24q-78-186-187-365H-99v31z"/><glyph glyph-name="Etatonos" unicode="Ή" horiz-adv-x="1710" d="M1525 0h-309v631H637V0H327v1462h310V889h579v573h309V0zM-99 1167q18 54 44.5 164t37.5 194h283v-24q-78-186-187-365H-99v31z"/><glyph glyph-name="Iotatonos" unicode="Ί" horiz-adv-x="1049" d="M436 0v1462h310V0H436zM-99 1167q18 54 44.5 164t37.5 194h283v-24q-78-186-187-365H-99v31z"/><glyph glyph-name="Omicrontonos" unicode="Ό" horiz-adv-x="1712" d="M1593 733q0-363-180-558T897-20 381 175 201 735t180.5 557.5T899 1485t515.5-194T1593 733zm-1067 0q0-245 93-369t278-124q371 0 371 493 0 494-369 494-185 0-279-124.5T526 733zm-584 434q18 54 44.5 164T24 1525h283v-24q-78-186-187-365H-58v31z"/><glyph glyph-name="Upsilontonos" unicode="Ύ" horiz-adv-x="1565" d="M926 860l305 602h334l-485-893V0H772v559l-485 903h336zm-1046 307q18 54 44.5 164t37.5 194h283v-24q-78-186-187-365h-178v31z"/><glyph glyph-name="Omegatonos" unicode="Ώ" horiz-adv-x="1610" d="M895 1227q-181 0-279-110t-98-310q0-203 66-329.5T784 279V0H145v260h371q-152 93-234.5 253.5T199 872q0 184 85.5 323.5T528 1410t367 75q319 0 507.5-167T1591 870q0-198-83-356t-238-254h374V0h-643v279q139 72 205 201t66 329q0 199-98.5 308.5T895 1227zm-953-60q18 54 44.5 164T24 1525h283v-24q-78-186-187-365H-58v31z"/><glyph glyph-name="iotadieresistonos" unicode="ΐ" horiz-adv-x="834" d="M465 1118V350q0-65 36.5-96t96.5-31q81 0 193 35V31Q682-20 528-20q-190 0-279 92.5T160 350v768h305zm-520 287q0 71 35.5 103t93.5 32q57 0 94-32t37-103q0-68-37-100.5T74 1272q-58 0-93.5 32.5T-55 1405zm547 0q0 135 131 135 57 0 94-32t37-103q0-68-37-100.5t-94-32.5q-60 0-95.5 32.5T492 1405zm-246 10q15 49 34.5 143t27.5 158h262v-20q-58-128-186-307H246v26z"/><glyph glyph-name="Alpha" unicode="Α" horiz-adv-x="1413" d="M1079 0L973 348H440L334 0H0l516 1468h379L1413 0h-334zM899 608q-147 473-165.5 535t-26.5 98q-33-128-189-633h381z"/><glyph glyph-name="Beta" unicode="Β" horiz-adv-x="1376" d="M184 1462h455q311 0 451.5-88.5T1231 1092q0-131-61.5-215T1006 776v-10q139-31 200.5-116t61.5-226q0-200-144.5-312T731 0H184v1462zm310-579h180q126 0 182.5 39t56.5 129q0 84-61.5 120.5T657 1208H494V883zm0-246V256h202q128 0 189 49t61 150q0 182-260 182H494z"/><glyph glyph-name="Gamma" unicode="Γ" horiz-adv-x="1149" d="M1108 1462v-256H494V0H184v1462h924z"/><glyph glyph-name="uni0394" unicode="Δ" horiz-adv-x="1348" d="M57 178l443 1290h350l440-1292V0H57v178zm617 1036q-2-15-12.5-58.5T631 1043 373 258h602l-252 768-11 39q-36 129-38 149z"/><glyph glyph-name="Epsilon" unicode="Ε" horiz-adv-x="1147" d="M1026 0H184v1462h842v-254H494V887h495V633H494V256h532V0z"/><glyph glyph-name="Zeta" unicode="Ζ" horiz-adv-x="1186" d="M1137 0H49v201l701 1005H68v256h1050v-200L418 256h719V0z"/><glyph glyph-name="Eta" unicode="Η" horiz-adv-x="1567" d="M1382 0h-309v631H494V0H184v1462h310V889h579v573h309V0z"/><glyph glyph-name="Theta" unicode="Θ" horiz-adv-x="1630" d="M1075 870V616H555v254h520zm436-137q0-363-180-558T815-20 299 175 119 735t180.5 557.5T817 1485t515.5-194T1511 733zm-1073 0q0-242 95.5-367.5T815 240q189 0 283 125.5t94 367.5-94 368-281 126-283-125.5T438 733z"/><glyph glyph-name="Iota" unicode="Ι" horiz-adv-x="678" d="M184 0v1462h310V0H184z"/><glyph glyph-name="Kappa" unicode="Κ" horiz-adv-x="1360" d="M1360 0h-352L625 616l-131-94V0H184v1462h310V793l122 172 396 497h344L846 815z"/><glyph glyph-name="Lambda" unicode="Λ" horiz-adv-x="1331" d="M666 1202q-12-62-37.5-173T590 877L313 0H0l496 1462h338L1331 0h-313L745 879q-10 29-40 149t-39 174z"/><glyph glyph-name="Mu" unicode="Μ" horiz-adv-x="1931" d="M803 0L451 1147h-9q19-350 19-467V0H184v1462h422L952 344h6l367 1118h422V0h-289v692q0 49 1.5 113t13.5 340h-9L1087 0H803z"/><glyph glyph-name="Nu" unicode="Ν" horiz-adv-x="1665" d="M1481 0h-394L451 1106h-9q19-293 19-418V0H184v1462h391l635-1095h7q-15 285-15 403v692h279V0z"/><glyph glyph-name="Xi" unicode="Ξ" d="M205 887h760V633H205v254zm-82 575h924v-254H123v254zm964-1206V0H82v256h1005z"/><glyph glyph-name="Omicron" unicode="Ο" horiz-adv-x="1630" d="M1511 733q0-363-180-558T815-20 299 175 119 735t180.5 557.5T817 1485t515.5-194T1511 733zm-1067 0q0-245 93-369t278-124q371 0 371 493 0 494-369 494-185 0-279-124.5T444 733z"/><glyph glyph-name="Pi" unicode="Π" horiz-adv-x="1526" d="M1341 0h-309v1204H494V0H184v1462h1157V0z"/><glyph glyph-name="Rho" unicode="Ρ" horiz-adv-x="1286" d="M494 774h102q143 0 214 56.5T881 995q0 109-59.5 161T635 1208H494V774zm700 232q0-236-147.5-361T627 520H494V0H184v1462h467q266 0 404.5-114.5T1194 1006z"/><glyph glyph-name="Sigma" unicode="Σ" horiz-adv-x="1214" d="M78 0v244l471 522-459 459v237h995v-254H647q-51 0-227 11l454-451-477-524q240 12 285 12h463V0H78z"/><glyph glyph-name="Tau" unicode="Τ" horiz-adv-x="1186" d="M748 0H438v1204H41v258h1104v-258H748V0z"/><glyph glyph-name="Upsilon" unicode="Υ" horiz-adv-x="1278" d="M639 860l305 602h334L793 569V0H485v559L0 1462h336z"/><glyph glyph-name="Phi" unicode="Φ" horiz-adv-x="1761" d="M1020 444h14q161 0 252.5 84.5T1378 760q0 136-85 218.5t-232 82.5h-41V444zM741-20v225h-22q-186 0-326 65.5T172.5 467 92 758q0 155 71.5 279.5t206.5 195 318 70.5h53v180h279v-180h53q182 0 317-70.5t207-195 72-279.5q0-160-80.5-291T1368 270.5 1042 205h-22V-20H741zm0 1081h-41q-147 0-232-82t-85-219q0-144 90-230t254-86h14v617z"/><glyph glyph-name="Chi" unicode="Χ" horiz-adv-x="1366" d="M1366 0h-354L672 553 332 0H0l485 754-454 708h342l315-526 309 526h334L872 737z"/><glyph glyph-name="Psi" unicode="Ψ" horiz-adv-x="1794" d="M1686 983q0-281-149-414t-450-133h-51V0H758v436h-51q-305 0-451.5 132.5T109 979v483h290V983q0-157 75-227t253-70h31v776h278V686h31q174 0 251 72.5t77 220.5v483h291V983z"/><glyph glyph-name="uni03A9" unicode="Ω" horiz-adv-x="1610" d="M805 1227q-181 0-279-110t-98-310q0-203 66-329.5T694 279V0H55v260h371q-152 93-234.5 253.5T109 872q0 184 85.5 323.5T438 1410t367 75q319 0 507.5-167T1501 870q0-198-83-356t-238-254h374V0H911v279q139 72 205 201t66 329q0 199-98.5 308.5T805 1227z"/><glyph glyph-name="Iotadieresis" unicode="Ϊ" horiz-adv-x="678" d="M184 0v1462h310V0H184zM-3 1743q0 65 37.5 100t101.5 35q66 0 103.5-37t37.5-98q0-60-38-96.5T136 1610q-64 0-101.5 35T-3 1743zm403 0q0 70 40.5 102.5T541 1878q65 0 103.5-36t38.5-99q0-61-39-97t-103-36q-60 0-100.5 32.5T400 1743z"/><glyph glyph-name="Upsilondieresis" unicode="Ϋ" horiz-adv-x="1278" d="M639 860l305 602h334L793 569V0H485v559L0 1462h336zm-340 883q0 65 37.5 100t101.5 35q66 0 103.5-37t37.5-98q0-60-38-96.5T438 1610q-64 0-101.5 35t-37.5 98zm403 0q0 70 40.5 102.5T843 1878q65 0 103.5-36t38.5-99q0-61-39-97t-103-36q-60 0-100.5 32.5T702 1743z"/><glyph glyph-name="alphatonos" unicode="ά" horiz-adv-x="1325" d="M623 223q118 0 171.5 71.5T852 545v12q0 180-55.5 258T618 893q-215 0-215-340 0-165 53.5-247.5T623 223zM530-20q-205 0-321.5 152T92 555q0 278 121.5 430T553 1137q118 0 194.5-42T874 969h15q24 94 67 149h252q-32-97-51.5-222.5T1137 666V354q0-118 84-118 32 0 59 10V6q-16-10-61.5-18t-75.5-8q-112 0-171 38.5T879 147h-21Q748-20 530-20zm-10 1292q18 54 44.5 164t37.5 194h283v-24q-78-186-187-365H520v31z"/><glyph glyph-name="epsilontonos" unicode="έ" horiz-adv-x="1137" d="M840 688V477H672q-146 0-219.5-32.5T379 340q0-125 268-125 103 0 213 22.5t199 63.5V57Q887-20 625-20q-266 0-406.5 82.5T78 309q0 107 64 174t208 95v10q-213 49-213 258 0 141 127 217t361 76q115 0 231.5-23t204.5-61l-94-221q-119 48-188 63.5T633 913q-113 0-168-25t-55-79q0-66 66.5-93.5T686 688h154zm-332 584q18 54 44.5 164t37.5 194h283v-24q-78-186-187-365H508v31z"/><glyph glyph-name="etatonos" unicode="ή" horiz-adv-x="1346" d="M1192-492H887V653q0 121-43 181.5T707 895q-128 0-185-85.5T465 526V0H160v1118h233l41-143h17q51 81 140.5 122.5T795 1139q195 0 296-105.5T1192 729V-492zM590 1272q18 54 44.5 164t37.5 194h283v-24q-78-186-187-365H590v31z"/><glyph glyph-name="iotatonos" unicode="ί" horiz-adv-x="834" d="M465 1118V350q0-65 36.5-96t96.5-31q81 0 193 35V31Q682-20 528-20q-190 0-279 92.5T160 350v768h305zm-237 154q18 54 44.5 164t37.5 194h283v-24q-78-186-187-365H228v31z"/><glyph glyph-name="upsilondieresistonos" unicode="ΰ" horiz-adv-x="1321" d="M657-18q-259 0-386.5 129.5T143 510v608h306V500q0-146 52.5-210.5T668 225q125 0 182 93t57 296q0 107-14 214t-57 290h307q40-157 54.5-275.5T1212 606q0-314-136.5-469T657-18zM254 1405q0 71 35.5 103t93.5 32q57 0 94-32t37-103q0-68-37-100.5t-94-32.5q-58 0-93.5 32.5T254 1405zm547 0q0 135 131 135 57 0 94-32t37-103q0-68-37-100.5t-94-32.5q-60 0-95.5 32.5T801 1405zm-246 10q15 49 34.5 143t27.5 158h262v-20q-58-128-186-307H555v26z"/><glyph glyph-name="alpha" unicode="α" horiz-adv-x="1325" d="M623 223q118 0 171.5 71.5T852 545v12q0 180-55.5 258T618 893q-215 0-215-340 0-165 53.5-247.5T623 223zM530-20q-205 0-321.5 152T92 555q0 278 121.5 430T553 1137q118 0 194.5-42T874 969h15q24 94 67 149h252q-32-97-51.5-222.5T1137 666V354q0-118 84-118 32 0 59 10V6q-16-10-61.5-18t-75.5-8q-112 0-171 38.5T879 147h-21Q748-20 530-20z"/><glyph glyph-name="beta" unicode="β" horiz-adv-x="1352" d="M694 1567q235 0 370.5-104t135.5-289q0-149-76-235.5T907 829v-6q188-24 280.5-120.5T1280 432q0-210-130.5-331T791-20q-200 0-326 63v-535H160v1588q0 224 140 347.5T694 1567zm-8-238q-221 0-221-262V293q48-31 118-50.5T713 223q128 0 190 62t62 174q0 110-66.5 167.5T705 684h-72v242h53q99 0 154 54.5t55 156.5q0 92-55 142t-154 50z"/><glyph glyph-name="gamma" unicode="γ" horiz-adv-x="1163" d="M651-492H328q0 86 28 229t72 275L2 1118h317l164-493q21-62 54-183t47-194h6q4 44 32.5 158.5T682 610l164 508h317L750 18q-45-116-72-256.5T651-492z"/><glyph glyph-name="delta" unicode="δ" horiz-adv-x="1268" d="M485 918q-237 151-237 342 0 144 120.5 225.5T702 1567q111 0 215.5-22.5T1163 1456l-121-215q-92 45-178 72.5T690 1341q-73 0-110-27t-37-73q0-54 69-106.5T819 1012q184-94 270.5-217t86.5-283q0-259-141-395.5T629-20q-244 0-390.5 124T92 438q0 182 96.5 302T485 918zm379-426q0 93-47.5 168T664 793q-123-35-190.5-125.5T406 451q0-101 60-163.5T631 225q111 0 172 68t61 199z"/><glyph glyph-name="epsilon" unicode="ε" horiz-adv-x="1137" d="M840 688V477H672q-146 0-219.5-32.5T379 340q0-125 268-125 103 0 213 22.5t199 63.5V57Q887-20 625-20q-266 0-406.5 82.5T78 309q0 107 64 174t208 95v10q-213 49-213 258 0 141 127 217t361 76q115 0 231.5-23t204.5-61l-94-221q-119 48-188 63.5T633 913q-113 0-168-25t-55-79q0-66 66.5-93.5T686 688h154z"/><glyph glyph-name="zeta" unicode="ζ" horiz-adv-x="1020" d="M1010-37q0-149-138-342H565q69 93 108.5 170.5T713-84q0 32-39.5 52.5T532 8Q92 85 92 467q0 209 131 420t439 463q-28-7-99.5-12t-122.5-5H150v223h854v-182q-201-167-333-316T472.5 768.5 406 481q0-74 19.5-119t56-71.5 88-40.5T686 223q166-33 245-95.5T1010-37z"/><glyph glyph-name="eta" unicode="η" horiz-adv-x="1346" d="M1192-492H887V653q0 121-43 181.5T707 895q-128 0-185-85.5T465 526V0H160v1118h233l41-143h17q51 81 140.5 122.5T795 1139q195 0 296-105.5T1192 729V-492z"/><glyph glyph-name="theta" unicode="θ" horiz-adv-x="1266" d="M1174 780q0-405-134.5-602.5T631-20q-265 0-402 205.5T92 780q0 407 134 603t405 196q265 0 404-203.5T1174 780zM631 201q117 0 170.5 116.5T860 672H403q4-235 56.5-353T631 201zm2 1157q-108 0-163-106.5T406 899h454q-8 230-60.5 344.5T633 1358z"/><glyph glyph-name="iota" unicode="ι" horiz-adv-x="834" d="M465 1118V350q0-65 36.5-96t96.5-31q81 0 193 35V31Q682-20 528-20q-190 0-279 92.5T160 350v768h305z"/><glyph glyph-name="kappa" unicode="κ" horiz-adv-x="1270" d="M463 582l141 170 314 366h325L803 606 1270 0H922L608 426l-143-90V0H160v1118h305V825l-3-161-3-82h4z"/><glyph glyph-name="lambda" unicode="λ" horiz-adv-x="1260" d="M8 0l473 1057-35 92q-36 90-82 127t-141 37q-50 0-102-13v252q79 17 166 17 115 0 196.5-35t139-108.5T731 1210l281-772q37-104 75-153t93-49q33 0 69 10V10q-23-12-80-21t-96-9q-110 0-180 54T782 207Q668 530 646.5 596.5T612 715h-6q-46-154-76-230L324 0H8z"/><glyph glyph-name="uni03BC" unicode="μ" horiz-adv-x="1352" d="M465 465q0-121 44-181.5T647 223q126 0 183 86.5T887 592v526h305V0H961l-43 150h-15Q861 65 801 22.5T653-20q-62 0-114 23t-84 67l5-85 5-157v-320H160v1610h305V465z"/><glyph glyph-name="nu" unicode="ν" horiz-adv-x="1219" d="M6 1118h313l218-620 69-228h8q115 153 166 351t51 497h308q0-256-44-441.5t-139.5-351T700 0H426z"/><glyph glyph-name="xi" unicode="ξ" horiz-adv-x="1020" d="M92 438q0 126 73 221.5T375 809v10q-219 52-219 254 0 107 67.5 171.5T444 1346q-205-13-272-13h-22v223h804v-210h-75q-185 0-302.5-68.5T459 1092q0-95 64.5-136T735 915h166V705H733q-173 0-250-61.5T406 459q0-71 23.5-113.5t72-69T686 223q166-33 245-95.5T1010-37q0-149-138-342H565q69 93 108.5 170.5T713-84q0 32-39.5 52.5T532 8Q315 46 203.5 155T92 438z"/><glyph glyph-name="omicron" unicode="ο" horiz-adv-x="1268" d="M403 561q0-166 54.5-251T635 225q122 0 175.5 84.5T864 561q0 166-54 249t-177 83q-122 0-176-82.5T403 561zm773 0q0-273-144-427T631-20q-161 0-284 70.5T158 253 92 561q0 274 143 426t402 152q161 0 284-70t189-201 66-307z"/><glyph glyph-name="pi" unicode="π" horiz-adv-x="1513" d="M1300 219q67 0 130 35V35q-41-25-104.5-40T1208-20q-150 0-228.5 82T901 307v578H563V0H258v885H25v131l178 102h1239V885h-236V319q0-51 27-75.5t67-24.5z"/><glyph glyph-name="rho" unicode="ρ" horiz-adv-x="1266" d="M1174 559q0-273-122.5-426T711-20q-154 0-281 77h-18q16-172 16-268v-281H121V561q0 275 138.5 426.5T653 1139q155 0 273-70.5T1109 866t65-307zM647 893q-113 0-166-76.5T428 575V311q43-43 101-64.5T647 225q114 0 163.5 78.5T860 559q0 176-48.5 255T647 893z"/><glyph glyph-name="sigma1" unicode="ς" horiz-adv-x="1020" d="M92 494q0 328 134.5 486.5T651 1139q184 0 357-80l-88-232q-173 66-277 66-126 0-183-98t-57-293q0-74 25-121t75-75.5T686 248q167-35 245.5-100T1010-23q0-152-138-356H565Q713-165 713-68q0 36-41 57.5T532 31Q315 73 203.5 189.5T92 494z"/><glyph glyph-name="sigma" unicode="σ" horiz-adv-x="1337" d="M1192 475q0-146-67.5-259.5T931.5 41 639-20q-260 0-403.5 150.5T92 545q0 575 631 575h573V897h-284q180-190 180-422zm-786 70q0-156 59.5-238T643 225q116 0 176 76.5T879 522q0 111-29.5 201.5T752 897h-50q-162 0-229-82t-67-270z"/><glyph glyph-name="tau" unicode="τ" horiz-adv-x="1102" d="M627 889V350q0-65 36.5-96t96.5-31q80 0 192 35V31Q845-20 690-20q-190 0-279 92.5T322 350v539H41v127l176 102h807V889H627z"/><glyph glyph-name="upsilon" unicode="υ" horiz-adv-x="1321" d="M657-18q-259 0-386.5 129.5T143 510v608h306V500q0-146 52.5-210.5T668 225q125 0 182 93t57 296q0 107-14 214t-57 290h307q40-157 54.5-275.5T1212 606q0-314-136.5-469T657-18z"/><glyph glyph-name="phi" unicode="φ" horiz-adv-x="1622" d="M1237 590q0 156-47 239.5T1053 913q-57 0-89-39.5T932 737V219q137 12 221 114t84 257zM649-492v480Q374 18 233 163.5T92 555q0 155 55 298.5T322 1143l221-144q-90-122-127-225.5T379 549q0-278 270-330v516q0 185 107 292.5t293 107.5q225 0 353-146t128-397q0-171-74.5-301.5t-210-208T932-12v-480H649z"/><glyph glyph-name="chi" unicode="χ" horiz-adv-x="1212" d="M240 1133q90 0 147-25.5t97-82T565 846l74-221 279 493h307L770 356l195-475q28-64 63-90.5t96-26.5q49 0 101 13v-238q-85-31-195-31-125 0-204.5 67.5T694-199L590 127 276-492H-49l502 885-134 352q-25 70-60 101t-91 31-115-19v244q114 31 187 31z"/><glyph glyph-name="psi" unicode="ψ" horiz-adv-x="1714" d="M1008 1554V217q176 17 246.5 99.5T1325 578q0 224-80 540h283q78-281 78-543 0-274-150.5-425T1008-18v-474H725v474Q435-9 289 135.5T143 555v563h291V547q0-173 64-246.5T725 215v1339h283z"/><glyph glyph-name="omega" unicode="ω" horiz-adv-x="1767" d="M1208-20q-122 0-200 52.5T889 190h-10Q833 80 755.5 30T559-20q-214 0-332 151T109 543q0 154 24 284t88 291h293Q389 856 389 553q0-164 49.5-250T584 217q83 0 121 58t38 192v295h281V467q0-135 38-192.5t122-57.5q94 0 144 84.5t50 247.5q0 307-125 569h293q64-162 88.5-291t24.5-284q0-263-119-413T1208-20z"/><glyph glyph-name="iotadieresis" unicode="ϊ" horiz-adv-x="834" d="M465 1118V350q0-65 36.5-96t96.5-31q81 0 193 35V31Q682-20 528-20q-190 0-279 92.5T160 350v768h305zM12 1405q0 65 37.5 100t101.5 35q66 0 103.5-37t37.5-98q0-60-38-96.5T151 1272q-64 0-101.5 35T12 1405zm403 0q0 70 40.5 102.5T556 1540q65 0 103.5-36t38.5-99q0-61-39-97t-103-36q-60 0-100.5 32.5T415 1405z"/><glyph glyph-name="upsilondieresis" unicode="ϋ" horiz-adv-x="1321" d="M657-18q-259 0-386.5 129.5T143 510v608h306V500q0-146 52.5-210.5T668 225q125 0 182 93t57 296q0 107-14 214t-57 290h307q40-157 54.5-275.5T1212 606q0-314-136.5-469T657-18zM318 1405q0 65 37.5 100t101.5 35q66 0 103.5-37t37.5-98q0-60-38-96.5T457 1272q-64 0-101.5 35t-37.5 98zm403 0q0 70 40.5 102.5T862 1540q65 0 103.5-36t38.5-99q0-61-39-97t-103-36q-60 0-100.5 32.5T721 1405z"/><glyph glyph-name="omicrontonos" unicode="ό" horiz-adv-x="1268" d="M403 561q0-166 54.5-251T635 225q122 0 175.5 84.5T864 561q0 166-54 249t-177 83q-122 0-176-82.5T403 561zm773 0q0-273-144-427T631-20q-161 0-284 70.5T158 253 92 561q0 274 143 426t402 152q161 0 284-70t189-201 66-307zm-639 711q18 54 44.5 164t37.5 194h283v-24q-78-186-187-365H537v31z"/><glyph glyph-name="upsilontonos" unicode="ύ" horiz-adv-x="1321" d="M657-18q-259 0-386.5 129.5T143 510v608h306V500q0-146 52.5-210.5T668 225q125 0 182 93t57 296q0 107-14 214t-57 290h307q40-157 54.5-275.5T1212 606q0-314-136.5-469T657-18zM549 1272q18 54 44.5 164t37.5 194h283v-24q-78-186-187-365H549v31z"/><glyph glyph-name="omegatonos" unicode="ώ" horiz-adv-x="1767" d="M1208-20q-122 0-200 52.5T889 190h-10Q833 80 755.5 30T559-20q-214 0-332 151T109 543q0 154 24 284t88 291h293Q389 856 389 553q0-164 49.5-250T584 217q83 0 121 58t38 192v295h281V467q0-135 38-192.5t122-57.5q94 0 144 84.5t50 247.5q0 307-125 569h293q64-162 88.5-291t24.5-284q0-263-119-413T1208-20zM780 1272q18 54 44.5 164t37.5 194h283v-24q-78-186-187-365H780v31z"/><glyph glyph-name="uni03D1" unicode="ϑ" horiz-adv-x="1499" d="M991 991q-22 169-91.5 263T729 1348q-59 0-94-28t-35-85q0-114 103.5-178T991 991zm318-229l2-43v-45q0-338-158.5-516T688-20q-219 0-328.5 82.5T250 311q0 53 6 105.5t6 95.5q0 42-13.5 56T207 582q-42 0-90-29L41 735q149 86 301 86 90 0 141.5-47T535 639q0-63-7.5-130T520 371q0-75 48.5-114.5T709 217q145 0 218.5 115t73.5 362v31l-2 33q-224 2-380 60T382 980.5 301 1225q0 161 112.5 256.5T723 1577q241 0 383-146.5T1292 991h146V762h-129z"/><glyph glyph-name="uni03D2" unicode="ϒ" horiz-adv-x="1292" d="M637 852q62 136 122 258.5T871 1321t110.5 121 153.5 33q85 0 151-27v-229q-44 12-69 12-40 0-66.5-21.5T1098 1149q-67-96-158-274T795 555V0H487v559L0 1462h336z"/><glyph glyph-name="uni03D6" unicode="ϖ" horiz-adv-x="2046" d="M1350-20q-237 0-320 210h-10Q938-20 700-20q-221 0-335.5 135T250 502q0 178 63 387H51v127l174 102h1770V889h-258q63-209 63-387 0-252-114.5-387T1350-20zm170 528q0 169-64 381H592q-62-201-62-377 0-150 46-222.5T725 217q84 0 122 57.5T885 467v137h280V467q0-135 38-192.5t122-57.5q103 0 149 72t46 219z"/><glyph glyph-name="uni0400" unicode="Ѐ" horiz-adv-x="1147" d="M1026 0H184v1462h842v-254H494V887h495V633H494V256h532V0zM573 1579q-63 44-185 142.5T198 1886v21h342q63-101 235-301v-27H573z"/><glyph glyph-name="afii10023" unicode="Ё" horiz-adv-x="1147" d="M1026 0H184v1462h842v-254H494V887h495V633H494V256h532V0zM264 1743q0 65 37.5 100t101.5 35q66 0 103.5-37t37.5-98q0-60-38-96.5T403 1610q-64 0-101.5 35t-37.5 98zm403 0q0 70 40.5 102.5T808 1878q65 0 103.5-36t38.5-99q0-61-39-97t-103-36q-60 0-100.5 32.5T667 1743z"/><glyph glyph-name="afii10051" unicode="Ђ" horiz-adv-x="1649" d="M1133-18q-116 0-203 38v256q99-43 172-43 54 0 79 15.5t37.5 49.5 12.5 89v127q0 89-41.5 124.5T1053 674H717V0H408v1204H41v258h1114v-258H717V932h348q228 0 351.5-103T1540 537V408q0-209-102.5-317.5T1133-18z"/><glyph glyph-name="afii10052" unicode="Ѓ" horiz-adv-x="1149" d="M1108 1462v-256H494V0H184v1462h924zm-643 117v27q172 200 235 301h342v-21q-52-52-177.5-154.5T668 1579H465z"/><glyph glyph-name="afii10053" unicode="Є" horiz-adv-x="1386" d="M842 1225q-170 0-277-95.5T446 864h633V610H444q13-178 113.5-275T846 238q171 0 414 77V55q-106-40-208.5-57.5T827-20q-344 0-526 193.5T119 729q0 227 89 398.5T463.5 1391t392.5 92q130 0 240.5-27.5T1315 1380l-111-252-87 37q-142 60-275 60z"/><glyph glyph-name="afii10054" unicode="Ѕ" horiz-adv-x="1128" d="M1047 406q0-198-142.5-312T508-20Q274-20 94 68v288q148-66 250.5-93T532 236q102 0 156.5 39T743 391q0 43-24 76.5T648.5 532 459 631q-134 63-201 121T151 887t-40 180q0 194 131.5 305T606 1483q114 0 217.5-27t216.5-76l-100-241q-117 48-193.5 67T596 1225q-88 0-135-41t-47-107q0-41 19-71.5t60.5-59T690 844q205-98 281-196.5t76-241.5z"/><glyph glyph-name="afii10055" unicode="І" horiz-adv-x="678" d="M184 0v1462h310V0H184z"/><glyph glyph-name="afii10056" unicode="Ї" horiz-adv-x="678" d="M184 0v1462h310V0H184zM-3 1743q0 65 37.5 100t101.5 35q66 0 103.5-37t37.5-98q0-60-38-96.5T136 1610q-64 0-101.5 35T-3 1743zm403 0q0 70 40.5 102.5T541 1878q65 0 103.5-36t38.5-99q0-61-39-97t-103-36q-60 0-100.5 32.5T400 1743z"/><glyph glyph-name="afii10057" unicode="Ј" horiz-adv-x="678" d="M31-430q-105 0-183 22v258q80-20 146-20 102 0 146 63.5T184 92v1370h310V94q0-256-117-390T31-430z"/><glyph glyph-name="afii10058" unicode="Љ" horiz-adv-x="2046" d="M1274 901h115q270 0 417.5-116T1954 457q0-228-147-342.5T1372 0H965v1204H674l-16-134q-62-511-109.5-717.5T410 62 164-20Q80-20 16 2v254q58-20 109-20 53 0 84 48.5t58.5 180 73 431T418 1462h856V901zm0-647h94q141 0 206.5 50.5T1640 457q0 99-65.5 144.5T1346 647h-72V254z"/><glyph glyph-name="afii10059" unicode="Њ" horiz-adv-x="2052" d="M1960 457q0-228-147-342.5T1378 0H971v631H494V0H184v1462h310V889h477v573h309V901h115q270 0 417.5-116T1960 457zm-680-203h94q141 0 207 50.5t66 152.5q0 101-67.5 145.5T1352 647h-72V254z"/><glyph glyph-name="afii10060" unicode="Ћ" horiz-adv-x="1649" d="M1231 0v514q0 89-35 124.5T1081 674H717V0H408v1204H41v258h1114v-258H717V932h385q208 0 323-104.5T1540 537V0h-309z"/><glyph glyph-name="afii10061" unicode="Ќ" horiz-adv-x="1376" d="M1376 0h-352L494 741V0H184v1462h310V754l524 708h330L815 760zM580 1579v27q172 200 235 301h342v-21q-52-52-177.5-154.5T783 1579H580z"/><glyph glyph-name="uni040D" unicode="Ѝ" horiz-adv-x="1686" d="M184 1462h279V756l-4-189-10-215h6l675 1110h371V0h-276v702q0 141 18 418h-8L557 0H184v1462zm607 117q-63 44-185 142.5T416 1886v21h342q63-101 235-301v-27H791z"/><glyph glyph-name="afii10062" unicode="Ў" horiz-adv-x="1337" d="M1337 1462L885 428q-85-195-159.5-280T549 21.5 301-20Q176-20 68 10v266q88-36 219-36 83 0 134 38.5T506 412L0 1462h328l360-815h10l18 50 302 765h319zm-168 475q-19-187-141-272.5T676 1579q-237 0-350.5 82T198 1937h273q7-103 51.5-144.5T682 1751q101 0 150.5 45.5T893 1937h276z"/><glyph glyph-name="afii10145" unicode="Џ" horiz-adv-x="1526" d="M1341 0H913v-426H614V0H184v1462h310V258h538v1204h309V0z"/><glyph glyph-name="afii10017" unicode="А" horiz-adv-x="1413" d="M1079 0L973 348H440L334 0H0l516 1468h379L1413 0h-334zM899 608q-147 473-165.5 535t-26.5 98q-33-128-189-633h381z"/><glyph glyph-name="afii10018" unicode="Б" horiz-adv-x="1307" d="M494 901h122q286 0 442-116t156-328Q1214 0 610 0H184v1462h924v-256H494V901zm0-647h104q157 0 230 50.5T901 457q0 101-74 145.5T573 647h-79V254z"/><glyph glyph-name="afii10019" unicode="В" horiz-adv-x="1376" d="M184 1462h455q311 0 451.5-88.5T1231 1092q0-131-61.5-215T1006 776v-10q139-31 200.5-116t61.5-226q0-200-144.5-312T731 0H184v1462zm310-579h180q126 0 182.5 39t56.5 129q0 84-61.5 120.5T657 1208H494V883zm0-246V256h202q128 0 189 49t61 150q0 182-260 182H494z"/><glyph glyph-name="afii10020" unicode="Г" horiz-adv-x="1149" d="M1108 1462v-256H494V0H184v1462h924z"/><glyph glyph-name="afii10021" unicode="Д" horiz-adv-x="1565" d="M10 258h113q145 290 229 579.5T477 1462h852V258h195v-684h-299V0H309v-426H10v684zm713 946q-32-229-106.5-485T449 258h571v946H723z"/><glyph glyph-name="afii10022" unicode="Е" horiz-adv-x="1147" d="M1026 0H184v1462h842v-254H494V887h495V633H494V256h532V0z"/><glyph glyph-name="afii10024" unicode="Ж" horiz-adv-x="1931" d="M520 760L29 1462h319l473-708v708h289V754l473 708h320l-492-702L1931 0h-332l-489 741V0H821v741L332 0H0z"/><glyph glyph-name="afii10025" unicode="З" horiz-adv-x="1327" d="M1194 1120q0-141-100-233T823 770v-6q201-20 308.5-111T1239 416q0-202-163.5-319T623-20q-322 0-517 79v260q94-45 220.5-70.5T563 223q369 0 369 215 0 97-118.5 149T463 639H326v242h123q232 0 338 44t106 146q0 75-66.5 119.5T627 1235q-206 0-398-119L94 1323q125 83 265 121.5t311 38.5q239 0 381.5-100t142.5-263z"/><glyph glyph-name="afii10026" unicode="И" horiz-adv-x="1686" d="M184 1462h279V756l-4-189-10-215h6l675 1110h371V0h-276v702q0 141 18 418h-8L557 0H184v1462z"/><glyph glyph-name="afii10027" unicode="Й" horiz-adv-x="1686" d="M184 1462h279V756l-4-189-10-215h6l675 1110h371V0h-276v702q0 141 18 418h-8L557 0H184v1462zm1143 475q-19-187-141-272.5T834 1579q-237 0-350.5 82T356 1937h273q7-103 51.5-144.5T840 1751q101 0 150.5 45.5T1051 1937h276z"/><glyph glyph-name="afii10028" unicode="К" horiz-adv-x="1376" d="M1376 0h-352L494 741V0H184v1462h310V754l524 708h330L815 760z"/><glyph glyph-name="afii10029" unicode="Л" horiz-adv-x="1526" d="M1341 0h-309v1204H674l-16-134q-62-511-109.5-717.5T410 62 164-20Q80-20 16 2v254q58-20 109-20 53 0 84 48.5t58.5 180 73 431T418 1462h923V0z"/><glyph glyph-name="afii10030" unicode="М" horiz-adv-x="1931" d="M803 0L451 1147h-9q19-350 19-467V0H184v1462h422L952 344h6l367 1118h422V0h-289v692q0 49 1.5 113t13.5 340h-9L1087 0H803z"/><glyph glyph-name="afii10031" unicode="Н" horiz-adv-x="1567" d="M1382 0h-309v631H494V0H184v1462h310V889h579v573h309V0z"/><glyph glyph-name="afii10032" unicode="О" horiz-adv-x="1630" d="M1511 733q0-363-180-558T815-20 299 175 119 735t180.5 557.5T817 1485t515.5-194T1511 733zm-1067 0q0-245 93-369t278-124q371 0 371 493 0 494-369 494-185 0-279-124.5T444 733z"/><glyph glyph-name="afii10033" unicode="П" horiz-adv-x="1526" d="M1341 0h-309v1204H494V0H184v1462h1157V0z"/><glyph glyph-name="afii10034" unicode="Р" horiz-adv-x="1286" d="M494 774h102q143 0 214 56.5T881 995q0 109-59.5 161T635 1208H494V774zm700 232q0-236-147.5-361T627 520H494V0H184v1462h467q266 0 404.5-114.5T1194 1006z"/><glyph glyph-name="afii10035" unicode="С" horiz-adv-x="1305" d="M805 1225q-175 0-271-131.5T438 727q0-489 367-489 154 0 373 77V55Q998-20 776-20q-319 0-488 193.5T119 729q0 228 83 399.5t238.5 263T805 1483q213 0 428-103l-100-252q-82 39-165 68t-163 29z"/><glyph glyph-name="afii10036" unicode="Т" horiz-adv-x="1186" d="M748 0H438v1204H41v258h1104v-258H748V0z"/><glyph glyph-name="afii10037" unicode="У" horiz-adv-x="1337" d="M1337 1462L885 428q-85-195-159.5-280T549 21.5 301-20Q176-20 68 10v266q88-36 219-36 83 0 134 38.5T506 412L0 1462h328l360-815h10l18 50 302 765h319z"/><glyph glyph-name="afii10038" unicode="Ф" horiz-adv-x="1761" d="M1020 444h14q161 0 252.5 84.5T1378 760q0 136-85 218.5t-232 82.5h-41V444zM741-20v225h-22q-186 0-326 65.5T172.5 467 92 758q0 155 71.5 279.5t206.5 195 318 70.5h53v180h279v-180h53q182 0 317-70.5t207-195 72-279.5q0-160-80.5-291T1368 270.5 1042 205h-22V-20H741zm0 1081h-41q-147 0-232-82t-85-219q0-144 90-230t254-86h14v617z"/><glyph glyph-name="afii10039" unicode="Х" horiz-adv-x="1366" d="M1366 0h-354L672 553 332 0H0l485 754-454 708h342l315-526 309 526h334L872 737z"/><glyph glyph-name="afii10040" unicode="Ц" horiz-adv-x="1599" d="M1341 246h218v-672h-299V0H184v1462h310V258h538v1204h309V246z"/><glyph glyph-name="afii10041" unicode="Ч" horiz-adv-x="1491" d="M1307 0H997v565q-154-52-256.5-71T545 475q-209 0-322.5 100.5T109 858v604h309V946q0-106 49-159.5T633 733q82 0 163.5 16.5T997 807v655h310V0z"/><glyph glyph-name="afii10042" unicode="Ш" horiz-adv-x="2208" d="M1260 258h454v1204h309V0H184v1462h310V258h454v1204h312V258z"/><glyph glyph-name="afii10043" unicode="Щ" horiz-adv-x="2281" d="M1260 258h454v1204h309V246h218v-672h-299V0H184v1462h310V258h454v1204h312V258zM2208 0z"/><glyph glyph-name="afii10044" unicode="Ъ" horiz-adv-x="1489" d="M1397 457q0-228-152.5-342.5T793 0H367v1204H0v258h676V901h123q286 0 442-116t156-328zM676 254h104q157 0 230 50.5t73 152.5q0 101-74 145.5T756 647h-80V254z"/><glyph glyph-name="afii10045" unicode="Ы" horiz-adv-x="1855" d="M1184 457q0-228-151.5-342.5T584 0H184v1462h310V901h100q281 0 435.5-116.5T1184 457zM494 254h81q153 0 224 50.5T870 457t-68.5 146T561 647h-67V254zM1671 0h-309v1462h309V0z"/><glyph glyph-name="afii10046" unicode="Ь" horiz-adv-x="1307" d="M1214 457Q1214 0 610 0H184v1462h310V901h122q286 0 442-116t156-328zM494 254h104q157 0 230 50.5T901 457q0 101-74 145.5T573 647h-79V254z"/><glyph glyph-name="afii10047" unicode="Э" horiz-adv-x="1358" d="M553 1225q-99 0-194.5-28T170 1130l-98 250q232 103 487 103 325 0 502.5-199.5T1239 729q0-362-182.5-555.5T530-20Q293-20 98 55v260q243-77 414-77 191 0 291.5 93T913 610H279v254h632q-6 170-102 265.5T553 1225z"/><glyph glyph-name="afii10048" unicode="Ю" horiz-adv-x="2191" d="M2073 733q0-360-168.5-556.5T1421-20q-289 0-455 166.5T774 631H494V0H184v1462h310V889h286q34 289 198.5 442.5T1423 1485q316 0 483-196t167-556zm-981 0q0-244 84-368.5T1421 240q332 0 332 493 0 244-82.5 369T1425 1227q-164 0-248.5-125T1092 733z"/><glyph glyph-name="afii10049" unicode="Я" horiz-adv-x="1362" d="M676 561L334 0H-10l416 643q-124 50-190 154.5T150 1044q0 201 142.5 309.5T702 1462h476V0H868v561H676zm192 647H715q-120 0-186-43t-66-143q0-97 64-153t196-56h145v395z"/><glyph glyph-name="afii10065" unicode="а" horiz-adv-x="1237" d="M870 0l-59 152h-8Q726 55 644.5 17.5T432-20q-161 0-253.5 92T86 334q0 178 124.5 262.5T586 690l194 6v49q0 170-174 170-134 0-315-81l-101 206q193 101 428 101 225 0 345-98t120-298V0H870zm-90 518l-118-4q-133-4-198-48t-65-134q0-129 148-129 106 0 169.5 61T780 426v92z"/><glyph glyph-name="afii10066" unicode="б" horiz-adv-x="1274" d="M92 670q0 385 146.5 584.5T696 1507q151 26 451 66l35-266q-130-15-461-64-126-20-188-60t-92.5-114T403 872h15q53 82 140 126t187 44q207 0 322-126.5T1182 553q0-272-145.5-422.5T635-20 235.5 163.5 92 670zm561-443q217 0 217 299 0 291-196 291-54 0-107.5-25t-98-65.5T403 645q0-203 65-310.5T653 227z"/><glyph glyph-name="afii10067" unicode="в" horiz-adv-x="1309" d="M1192 825q0-90-56.5-153.5T969 590v-8q119-14 188.5-81.5T1227 334q0-163-128-248.5T733 0H160v1118h573q230 0 344.5-74.5T1192 825zM911 350q0 66-51 95.5T707 475H465V211h248q97 0 147.5 36.5T911 350zm-28 451q0 102-162 102H465V682h221q97 0 147 28t50 91z"/><glyph glyph-name="afii10068" unicode="г" horiz-adv-x="979" d="M932 1118V889H465V0H160v1118h772z"/><glyph glyph-name="afii10069" unicode="д" horiz-adv-x="1360" d="M860 223v666H631q-25-186-68.5-353T442 223h418zm469-624h-274V0H303v-401H29v624h94q96 149 161 376t91 519h790V223h164v-624z"/><glyph glyph-name="afii10070" unicode="е" horiz-adv-x="1210" d="M623 922q-97 0-152-61.5T408 686h428q-2 113-59 174.5T623 922zm43-942q-270 0-422 149T92 551q0 281 140.5 434.5T621 1139q237 0 369-135t132-373V483H401q5-130 77-203t202-73q101 0 191 21t188 67V59Q979 19 888-.5T666-20z"/><glyph glyph-name="afii10072" unicode="ж" horiz-adv-x="1788" d="M752 575v543h284V575l398 543h315l-412-536L1788 0h-326l-426 567V0H752v567L326 0H0l451 582-412 536h315z"/><glyph glyph-name="afii10073" unicode="з" horiz-adv-x="1137" d="M438 688q173 0 245.5 28t72.5 89q0 54-53 81t-175 27q-77 0-174.5-19T176 842l-90 213q119 45 231 64.5t250 19.5q209 0 335-80t126-217q0-189-223-246v-10q137-34 195.5-96.5T1059 326q0-102-66-181T802 23 508-20Q228-20 78 49v252q86-40 188.5-63T465 215q149 0 223 33.5t74 95.5q0 68-78 100.5T444 477H326v211h112z"/><glyph glyph-name="afii10074" unicode="и" horiz-adv-x="1475" d="M455 1118V676q0-70-23-342l516 784h367V0h-295v446q0 119 20 336L526 0H160v1118h295z"/><glyph glyph-name="afii10075" unicode="й" horiz-adv-x="1475" d="M455 1118V676q0-70-23-342l516 784h367V0h-295v446q0 119 20 336L526 0H160v1118h295zm770 481q-19-187-141-272.5T732 1241q-237 0-350.5 82T254 1599h273q7-103 51.5-144.5T738 1413q101 0 150.5 45.5T949 1599h276z"/><glyph glyph-name="afii10076" unicode="к" horiz-adv-x="1268" d="M893 1118h336L786 582 1268 0H922L465 567V0H160v1118h305V575z"/><glyph glyph-name="afii10077" unicode="л" horiz-adv-x="1321" d="M1161 0H856v889H575q-32-375-78-559.5t-122.5-267T174-20Q68-20 0 12v244q49-20 98-20 57 0 95.5 82t69 273.5T315 1118h846V0z"/><glyph glyph-name="afii10078" unicode="м" horiz-adv-x="1729" d="M1569 0h-285v881l-16-62q-54-211-97-319L973 0H756L555 504q-43 110-92 309l-19 68V0H160v1118h420l192-477q30-77 55.5-177T862 293q33 150 51.5 215.5T954 629t199 489h416V0z"/><glyph glyph-name="afii10079" unicode="н" horiz-adv-x="1356" d="M465 1118V688h426v430h305V0H891v461H465V0H160v1118h305z"/><glyph glyph-name="afii10080" unicode="о" horiz-adv-x="1268" d="M403 561q0-166 54.5-251T635 225q122 0 175.5 84.5T864 561q0 166-54 249t-177 83q-122 0-176-82.5T403 561zm773 0q0-273-144-427T631-20q-161 0-284 70.5T158 253 92 561q0 274 143 426t402 152q161 0 284-70t189-201 66-307z"/><glyph glyph-name="afii10081" unicode="п" horiz-adv-x="1335" d="M1176 1118V0H870v889H465V0H160v1118h1016z"/><glyph glyph-name="afii10082" unicode="р" horiz-adv-x="1296" d="M774-20q-197 0-309 143h-16q16-140 16-162v-453H160v1610h248l43-145h14q107 166 317 166 198 0 310-153t112-425q0-179-52.5-311T1002 49 774-20zm-90 915q-113 0-165-69.5T465 596v-33q0-180 53.5-258T688 227q205 0 205 338 0 165-50.5 247.5T684 895z"/><glyph glyph-name="afii10083" unicode="с" horiz-adv-x="1053" d="M614-20Q92-20 92 553q0 285 142 435.5T641 1139q194 0 348-76l-90-236q-72 29-134 47.5T641 893q-238 0-238-338 0-328 238-328 88 0 163 23.5T954 324V63Q880 16 804.5-2T614-20z"/><glyph glyph-name="afii10084" unicode="т" horiz-adv-x="1133" d="M1085 1118V889H719V0H414v889H47v229h1038z"/><glyph glyph-name="afii10085" unicode="у" horiz-adv-x="1165" d="M0 1118h334l211-629q27-82 37-194h6q11 103 43 194l207 629h327L692-143q-65-175-185.5-262T225-492q-79 0-155 17v242q55-13 120-13 81 0 141.5 49.5T426-47l18 55z"/><glyph glyph-name="afii10086" unicode="ф" horiz-adv-x="1667" d="M977 1124q280-23 439-173t159-392q0-247-157-395.5T977-8v-484H694V-8Q411 18 251.5 169.5T92 559q0 253 154 399.5T694 1124v432h283v-432zM406 559q0-141 77-229.5T694 223v672q-129-17-208.5-109T406 559zm856 0q0 132-75 222.5T977 891V223q133 18 209 107t76 229z"/><glyph glyph-name="afii10087" unicode="х" horiz-adv-x="1184" d="M389 571L29 1118h346l217-356 219 356h346L793 571 1174 0H827L592 383 356 0H10z"/><glyph glyph-name="afii10088" unicode="ц" horiz-adv-x="1409" d="M1217 223h163v-624h-274V0H160v1118h305V229h446v889h306V223z"/><glyph glyph-name="afii10089" unicode="ч" horiz-adv-x="1343" d="M428 1118V709q0-146 135-146 88 0 163.5 20T879 635v483h305V0H879v444q-106-56-197-79t-176-23q-183 0-283 93.5T123 702v416h305z"/><glyph glyph-name="afii10090" unicode="ш" horiz-adv-x="1985" d="M1825 0H160v1118h305V229h375v889h305V229h375v889h305V0z"/><glyph glyph-name="afii10091" unicode="щ" horiz-adv-x="2017" d="M1825 223h164v-624h-275V0H160v1118h305V229h375v889h305V229h375v889h305V223zM1985 0z"/><glyph glyph-name="afii10092" unicode="ъ" horiz-adv-x="1454" d="M662 1118V686h215q258 0 381.5-82T1382 356Q1382 0 889 0H356v889H0v229h662zm415-766q0 65-51.5 94T870 475H662V211h212q203 0 203 141z"/><glyph glyph-name="afii10093" unicode="ы" horiz-adv-x="1741" d="M465 686h147q256 0 379-82t123-248q0-177-123-266.5T623 0H160v1118h305V686zm344-334q0 65-52 94t-155 29H465V211h141q203 0 203 141zM1581 0h-305v1118h305V0z"/><glyph glyph-name="afii10094" unicode="ь" horiz-adv-x="1257" d="M465 686h215q258 0 382-82t124-248Q1186 0 692 0H160v1118h305V686zm416-334q0 65-52 94t-155 29H465V211h213q203 0 203 141z"/><glyph glyph-name="afii10095" unicode="э" horiz-adv-x="1049" d="M418-20Q208-20 74 49v238q174-80 327-80 110 0 170 64t70 192H219v203h422q-8 123-61.5 185T426 913q-119 0-260-63l-86 209q75 35 169.5 57.5T438 1139q262 0 390-142t128-426q0-292-135.5-441.5T418-20z"/><glyph glyph-name="afii10096" unicode="ю" horiz-adv-x="1796" d="M1704 561q0-275-139-428T1180-20q-221 0-353.5 124T666 461H465V0H160v1118h305V688h205q29 214 165.5 332.5T1186 1139q237 0 377.5-155.5T1704 561zm-731 0q0-167 49-251.5t162-84.5q111 0 160 84.5t49 251.5-49.5 249.5T1182 893q-111 0-160-83t-49-249z"/><glyph glyph-name="afii10097" unicode="я" horiz-adv-x="1214" d="M330 0H0l301 442q-108 45-163.5 130T82 772q0 162 121.5 254t331.5 92h520V0H750v416H582zm51 770q0-70 55-109.5T580 621h170v282H541q-75 0-117.5-36.5T381 770z"/><glyph glyph-name="uni0450" unicode="ѐ" horiz-adv-x="1210" d="M623 922q-97 0-152-61.5T408 686h428q-2 113-59 174.5T623 922zm43-942q-270 0-422 149T92 551q0 281 140.5 434.5T621 1139q237 0 369-135t132-373V483H401q5-130 77-203t202-73q101 0 191 21t188 67V59Q979 19 888-.5T666-20zm-46 1261q-63 44-185 142.5T245 1548v21h342q63-101 235-301v-27H620z"/><glyph glyph-name="afii10071" unicode="ё" horiz-adv-x="1210" d="M623 922q-97 0-152-61.5T408 686h428q-2 113-59 174.5T623 922zm43-942q-270 0-422 149T92 551q0 281 140.5 434.5T621 1139q237 0 369-135t132-373V483H401q5-130 77-203t202-73q101 0 191 21t188 67V59Q979 19 888-.5T666-20zM281 1405q0 65 37.5 100t101.5 35q66 0 103.5-37t37.5-98q0-60-38-96.5T420 1272q-64 0-101.5 35t-37.5 98zm403 0q0 70 40.5 102.5T825 1540q65 0 103.5-36t38.5-99q0-61-39-97t-103-36q-60 0-100.5 32.5T684 1405z"/><glyph glyph-name="afii10099" unicode="ђ" horiz-adv-x="1346" d="M829-492q-107 0-184 25v240q59-19 119-19 123 0 123 170v690q0 110-47 165t-133 55q-127 0-184.5-87.5T465 465V0H160v1196H4v199h156v161h305v-161h315v-199H465v-18q0-83-14-265h18q102 164 324 164 197 0 298-105t101-304v-789q0-179-94-275t-269-96z"/><glyph glyph-name="afii10100" unicode="ѓ" horiz-adv-x="979" d="M932 1118V889H465V0H160v1118h772zm-571 123v27q172 200 235 301h342v-21q-52-52-177.5-154.5T564 1241H361z"/><glyph glyph-name="afii10101" unicode="є" horiz-adv-x="1073" d="M653-20q-278 0-419.5 145.5T92 553q0 298 135 442t424 144q184 0 357-74l-88-217q-170 65-277 65-105 0-162.5-61T408 666h421V463H408q14-131 69-193.5T635 207q79 0 158.5 18T975 287V53Q833-20 653-20z"/><glyph glyph-name="afii10102" unicode="ѕ" horiz-adv-x="1018" d="M940 332q0-172-119.5-262T463-20Q341-20 255-3.5T94 45v252q85-40 191.5-67T473 203q166 0 166 96 0 36-22 58.5t-76 51T397 475q-129 54-189.5 100t-88 105.5T92 827q0 149 115.5 230.5T535 1139q202 0 393-88l-92-220q-84 36-157 59t-149 23q-135 0-135-73 0-41 43.5-71T629 680q131-53 192-99t90-106 29-143z"/><glyph glyph-name="afii10103" unicode="і" horiz-adv-x="625" d="M147 1407q0 149 166 149t166-149q0-71-41.5-110.5T313 1257q-166 0-166 150zM465 0H160v1118h305V0z"/><glyph glyph-name="afii10104" unicode="ї" horiz-adv-x="625" d="M465 0H160v1118h305V0zM-27 1405q0 65 37.5 100t101.5 35q66 0 103.5-37t37.5-98q0-60-38-96.5T112 1272q-64 0-101.5 35t-37.5 98zm403 0q0 70 40.5 102.5T517 1540q65 0 103.5-36t38.5-99q0-61-39-97t-103-36q-60 0-100.5 32.5T376 1405z"/><glyph glyph-name="afii10105" unicode="ј" horiz-adv-x="625" d="M70-492q-117 0-201 25v240q70-19 143-19 77 0 112.5 43T160-76v1194h305V-121q0-178-103-274.5T70-492zm77 1899q0 149 166 149t166-149q0-71-41.5-110.5T313 1257q-166 0-166 150z"/><glyph glyph-name="afii10106" unicode="љ" horiz-adv-x="1819" d="M813 0v889H575q-32-375-78-559.5t-122.5-267T174-20Q68-20 0 12v244q49-20 98-20 57 0 95.5 82t69 273.5T315 1118h803V686h142q248 0 367.5-82T1747 356q0-356-481-356H813zm629 352q0 65-49 94t-146 29h-129V211h133q191 0 191 141z"/><glyph glyph-name="afii10107" unicode="њ" horiz-adv-x="1819" d="M1118 686h142q248 0 367.5-82T1747 356q0-356-481-356H813v461H465V0H160v1118h305V688h348v430h305V686zm324-334q0 65-49 94t-146 29h-129V211h133q191 0 191 141z"/><glyph glyph-name="afii10108" unicode="ћ" horiz-adv-x="1346" d="M1192 0H887v592q0 242-180 242-127 0-184.5-87.5T465 465V0H160v1196H4v199h156v161h305v-161h315v-199H465v-18q0-83-14-265h18q102 164 324 164 197 0 298-105t101-304V0z"/><glyph glyph-name="afii10109" unicode="ќ" horiz-adv-x="1268" d="M893 1118h336L786 582 1268 0H922L465 567V0H160v1118h305V575zm-387 123v27q172 200 235 301h342v-21q-52-52-177.5-154.5T709 1241H506z"/><glyph glyph-name="uni045D" unicode="ѝ" horiz-adv-x="1475" d="M455 1118V676q0-70-23-342l516 784h367V0h-295v446q0 119 20 336L526 0H160v1118h295zm264 123q-63 44-185 142.5T344 1548v21h342q63-101 235-301v-27H719z"/><glyph glyph-name="afii10110" unicode="ў" horiz-adv-x="1165" d="M0 1118h334l211-629q27-82 37-194h6q11 103 43 194l207 629h327L692-143q-65-175-185.5-262T225-492q-79 0-155 17v242q55-13 120-13 81 0 141.5 49.5T426-47l18 55zm1070 481q-19-187-141-272.5T577 1241q-237 0-350.5 82T99 1599h273q7-103 51.5-144.5T583 1413q101 0 150.5 45.5T794 1599h276z"/><glyph glyph-name="afii10193" unicode="џ" horiz-adv-x="1376" d="M160 0v1118h305V229h446v889h306V0H825v-401H551V0H160z"/><glyph glyph-name="uni0460" unicode="Ѡ" horiz-adv-x="2228" d="M1534 1235q-39 0-84-16.5t-113-61.5l-108 215q64 49 152 79t163 30q268 0 416.5-187T2109 768q0-375-164-581.5T1483-20q-116 0-205 36t-166 111q-77-75-164-111T745-20q-297 0-461.5 206T119 768q0 338 148.5 525.5T684 1481q74 0 161.5-29t153.5-80l-108-215q-68 45-113.5 61.5T694 1235q-128 0-199-121.5T424 766q0-251 93-383.5T786 250q83 0 168 69v396h310V319q72-69 180-69 176 0 268 132.5t92 383.5q0 225-71.5 347T1534 1235z"/><glyph glyph-name="uni0461" unicode="ѡ" horiz-adv-x="1812" d="M401 0L6 1118h320l194-641q33-100 45-229h8q16 83 76 229l109 277-127 364h344l184-620 62-228h8q103 155 149.5 356.5T1425 1118h308q0-368-100-641T1325 0h-274L887 381 715 0H401z"/><glyph glyph-name="uni0462" unicode="Ѣ" horiz-adv-x="1378" d="M565 1124V901h123q286 0 442-116t156-328Q1286 0 682 0H256v1124H0v230h256v202h309v-202h377v-230H565zm0-870h105q157 0 230 50.5T973 457q0 101-74 145.5T645 647h-80V254z"/><glyph glyph-name="uni0463" unicode="ѣ" horiz-adv-x="1356" d="M563 889V686h215q258 0 382-82t124-248Q1284 0 791 0H258v889H0v229h258v201h305v-201h359V889H563zm416-537q0 65-52 94t-155 29H563V211h213q203 0 203 141z"/><glyph glyph-name="uni0464" unicode="Ѥ" horiz-adv-x="1946" d="M1638 631h-614q13-181 117-287t274-106q97 0 193.5 20t210.5 57V55q-104-40-204.5-57.5T1395-20q-315 0-492.5 167T700 631H494V0H184v1462h310V889h215q44 280 234 437t482 157q230 0 449-103l-100-252q-90 39-180 68t-177 29q-163 0-267-87t-124-249h612V631z"/><glyph glyph-name="uni0465" unicode="ѥ" horiz-adv-x="1638" d="M1221-20q-240 0-375 121T686 461H465V0H160v1118h305V688h221q24 225 152.5 338t361.5 113q91 0 186.5-22t172.5-58l-86-209q-141 63-261 63-100 0-153.5-56.5T997 688h422V461H997q9-128 67-191t173-63q152 0 328 80V49q-136-69-344-69z"/><glyph glyph-name="uni0466" unicode="Ѧ" horiz-adv-x="1495" d="M1194 0L985 631H885V0H612v631H510L303 0H0l557 1468h379L1495 0h-301zM588 868h313q-134 345-153 414-11-52-160-414z"/><glyph glyph-name="uni0467" unicode="ѧ" horiz-adv-x="1311" d="M866 422h-78V0H524v422h-80L293 0H0l471 1118h367L1311 0h-293zM522 629h269l-35 80q-72 156-101 243-26-93-133-323z"/><glyph glyph-name="uni0468" unicode="Ѩ" horiz-adv-x="2058" d="M1757 0l-209 631h-100V0h-272v631h-103L866 0H563l240 631H494V0H184v1462h310V889h407l219 579h379L2058 0h-301zm-606 868h313l-51 137q-92 238-102 277-11-52-160-414z"/><glyph glyph-name="uni0469" unicode="ѩ" horiz-adv-x="1847" d="M1391 459h-66V0h-264v459h-66L829 0H537l194 461H424V0H160v1118h264V688h401l183 430h366L1847 0h-293zm-314 207h234q-96 218-119 286-21-73-115-286z"/><glyph glyph-name="uni046A" unicode="Ѫ" horiz-adv-x="1647" d="M41 0l152 453q58 179 142 272t216 129l-375 469v139h1301v-139l-383-469q135-37 219-132.5T1454 453L1606 0h-312l-123 385q-41 124-83 174t-109 66V0H672v625q-71-16-114-66.5T475 385L352 0H41zm782 891l254 313H571z"/><glyph glyph-name="uni046B" unicode="ѫ" horiz-adv-x="1276" d="M20 0l117 346q40 125 102.5 197T393 647l-289 365v106h1076v-106L887 645q89-32 149.5-104T1139 346L1255 0H997l-94 295q-26 77-54 110t-75 44V0H510v451q-54-10-84-44t-53-112L279 0H20zm619 686l180 225H461z"/><glyph glyph-name="uni046C" unicode="Ѭ" horiz-adv-x="2198" d="M592 0l151 453q44 127 95 178H494V0H184v1462h310V889h579l-346 434v139h1301v-139l-383-469q135-37 219-132.5T2005 453L2157 0h-312l-123 385q-41 124-83 174t-109 66V0h-307v625q-71-16-114-66.5T1026 385L903 0H592zm782 891l254 313h-506zM551 0z"/><glyph glyph-name="uni046D" unicode="ѭ" horiz-adv-x="1802" d="M547 0l117 346q29 85 61 115H424V0H160v1118h264V688h463l-256 324v106h1075v-106l-293-367q89-32 150-104t102-195L1782 0h-258l-94 295q-23 72-53 108t-77 46V0h-264v451q-54-10-84-44t-53-112L805 0H547zm618 686l181 225H987zM527 0z"/><glyph glyph-name="uni046E" unicode="Ѯ" horiz-adv-x="1294" d="M963 1776q74 0 122-17v-151q-26 12-88 12-93 0-188-154 168-34 260-126t92-220q0-140-91.5-232.5T819 770v-6q184-20 285.5-111.5T1206 416q0-201-168.5-318.5T573-20q-92 0-141-8.5t-69.5-28T342-117q0-88 145-88 89 0 193 5l154 5q140 0 170-41v-229q-16 16-61 28.5T844-424l-181-4-239-4q-178 0-280.5 86T41-113q0 173 118 251t373 85q195 4 281 54.5T899 438q0 97-118.5 149T430 639H293v242h123q232 0 338 44t106 146q0 75-66.5 119.5T594 1235q-207 0-397-119L61 1323q83 54 174.5 92t210.5 55q-96 119-227 250v27h209q54-40 209-195 78 100 121.5 139t94 62 110.5 23z"/><glyph glyph-name="uni046F" unicode="ѯ" horiz-adv-x="1137" d="M891 1380q72 0 123-16v-152q-34 13-88 13-84 0-158-111 126-34 193-104.5t67-167.5q0-95-52.5-156.5T819 596v-10q129-34 184.5-96.5T1059 326q0-168-146-257T496-20q-108 0-156.5-19.5T291-111t37.5-73T455-205q85 0 164 5 78 5 126 5 136 0 166-41v-229q-17 17-60 29t-95 12q-68 0-157.5-4T385-432q-177 0-265.5 76.5T31-125q0 175 115 257.5T498 215q132 0 198 32t66 97q0 68-78 100.5T444 477H326v211h112q173 0 245.5 28t72.5 89q0 54-53 81t-175 27q-77 0-174.5-19T176 842l-90 213q65 24 128.5 40.5T340 1122l-93 108-87 95v27h196q57-41 209-195 82 102 125 140t92.5 60.5T891 1380z"/><glyph glyph-name="uni0470" unicode="Ѱ" horiz-adv-x="1794" d="M1686 983q0-281-149-414t-450-133h-51V0H758v436h-51q-305 0-451.5 132.5T109 979v483h290V983q0-157 75-227t253-70h31v776h278V686h31q174 0 251 72.5t77 220.5v483h291V983z"/><glyph glyph-name="uni0471" unicode="ѱ" horiz-adv-x="1714" d="M1008 1554V217q176 17 246.5 99.5T1325 578q0 224-80 540h283q78-281 78-543 0-274-150.5-425T1008-18v-474H725v474Q435-9 289 135.5T143 555v563h291V547q0-173 64-246.5T725 215v1339h283z"/><glyph glyph-name="uni0472" unicode="Ѳ" horiz-adv-x="1630" d="M1511 733q0-363-180-558T815-20 299 175 119 735t180.5 557.5T817 1485t515.5-194T1511 733zM815 240q163 0 257.5 96T1186 621H442q20-180 111.5-280.5T815 240zm2 987q-158 0-251-87T446 879h736q-25 169-116.5 258.5T817 1227z"/><glyph glyph-name="uni0473" unicode="ѳ" horiz-adv-x="1268" d="M1176 561q0-273-144-427T631-20q-161 0-284 70.5T158 253 92 561q0 274 143 426t402 152q161 0 284-70t189-201 66-307zM635 225q97 0 153 58t70 174H408q15-116 70-174t157-58zm-2 668q-98 0-154-56.5T408 668h450q-14 112-68.5 168.5T633 893z"/><glyph glyph-name="uni0474" unicode="Ѵ" horiz-adv-x="1468" d="M1346 1217q-46 0-78-35.5t-74-153.5L834 0H496L0 1462h313l289-909q43-160 64-299 17 128 71 299l170 520q55 171 101 249t106 115.5 146 37.5q116 0 186-39v-242q-51 23-100 23z"/><glyph glyph-name="uni0475" unicode="ѵ" horiz-adv-x="1239" d="M0 1118h319l205-626q50-163 58-242h4q13 111 57 235l123 344q51 142 89 195t91.5 77.5T1085 1126q76 0 148-28V862q-43 19-82 19-32 0-57.5-22t-46.5-77L739 0H428z"/><glyph glyph-name="uni0476" unicode="Ѷ" horiz-adv-x="1468" d="M1346 1217q-46 0-78-35.5t-74-153.5L834 0H496L0 1462h313l289-909q43-160 64-299 17 128 71 299l170 520q55 171 101 249t106 115.5 146 37.5q116 0 186-39v-242q-51 23-100 23zm-469 362q-62 49-171 150.5T563 1886v21h301q33-72 83-158.5t91-142.5v-27H877zm-398 0q-73 57-177.5 157T166 1886v21h301q33-72 83-158.5t91-142.5v-27H479z"/><glyph glyph-name="uni0477" unicode="ѷ" horiz-adv-x="1239" d="M0 1118h319l205-626q50-163 58-242h4q13 111 57 235l123 344q51 142 89 195t91.5 77.5T1085 1126q76 0 148-28V862q-43 19-82 19-32 0-57.5-22t-46.5-77L739 0H428zm785 123q-62 49-171 150.5T471 1548v21h301q33-72 83-158.5t91-142.5v-27H785zm-398 0q-73 57-177.5 157T74 1548v21h301q33-72 83-158.5t91-142.5v-27H387z"/><glyph glyph-name="uni0478" unicode="Ѹ" horiz-adv-x="2701" d="M1536 1118h334l211-629q27-82 37-194h6q11 103 43 194l207 629h327L2228-143q-65-175-185.5-262T1761-492q-78 0-155 17v242q55-13 120-13 81 0 141.5 49.5T1962-47l18 55zm-106-385q0-371-165-562T774-20q-324 0-489.5 189.5T119 735t166 563 491 187q323 0 488.5-188.5T1430 733zm-992 0q0-257 82-375t254-118q173 0 254.5 114.5T1110 733q0 261-80.5 377.5T776 1227q-175 0-256.5-119T438 733z"/><glyph glyph-name="uni0479" unicode="ѹ" horiz-adv-x="2345" d="M1180 1118h333l211-629q26-75 37-194h6q13 103 43 194l207 629h328L1872-143q-65-175-185.5-262T1405-492q-77 0-156 17v242q57-13 121-13 81 0 141.5 49.5T1606-47l18 55zM403 561q0-166 54.5-251T635 225q122 0 175.5 84.5T864 561q0 166-54 249t-177 83q-122 0-176-82.5T403 561zm773 0q0-273-144-427T631-20q-161 0-284 70.5T158 253 92 561q0 274 143 426t402 152q161 0 284-70t189-201 66-307z"/><glyph glyph-name="uni047A" unicode="Ѻ" horiz-adv-x="1712" d="M1593 733q0-321-150.5-512T1006-10q-35-115-148-115-118 0-147 115-287 36-439.5 227.5T119 735q0 323 151 512.5T713 1475q16 60 50 85t95 25q53 0 89-22t54-88q287-38 439.5-228T1593 733zm-1155 0q0-198 71-319t210-158q22 42 56.5 57t82.5 15q45 0 79.5-15t57.5-57q279 74 279 477 0 398-275 475-39-75-141-75t-143 75q-277-77-277-475z"/><glyph glyph-name="uni047B" unicode="ѻ" horiz-adv-x="1391" d="M1298 561q0-235-119.5-379T829 0q-9-53-45-82t-90-29q-57 0-92.5 29.5T557 2Q334 41 213 187.5T92 561q0 237 121.5 382.5T565 1122q19 82 129 82 106 0 127-82 224-34 350.5-180.5T1298 561zm-895 0q0-270 158-332 19 39 47.5 60.5T694 311q43 0 74-16.5t57-67.5q83 31 122.5 119.5T987 561q0 130-40 212.5T834 885q-17-47-48-75t-92-28q-54 0-88 24.5T553 885q-150-65-150-324z"/><glyph glyph-name="uni047C" unicode="Ѽ" horiz-adv-x="2228" d="M1534 1235q-39 0-84-16.5t-113-61.5l-88 215q60 47 137.5 78t157.5 31q268 0 416.5-187T2109 768q0-375-164-581.5T1483-20q-107 0-196 35.5T1114 133q-77-75-165-114T745-20q-297 0-461.5 206T119 768q0 338 148.5 525.5T684 1481q81 0 158-31t137-78l-88-215q-68 45-113.5 61.5T694 1235q-128 0-199-121.5T424 766q0-248 87-384t247-136q96 0 189 56t167 155q75-101 168-156t188-55q162 0 248 137t86 383q0 225-71.5 347T1534 1235zm14 833v-194h-16q-180 0-316 54-103 41-128 47.5t-50 6.5q-46 0-67.5-25.5T938 1872H756v49q0 98 31.5 156t86.5 85 160 27q58 0 114-19t115.5-41.5 126-41.5 144.5-19h14zm-272-333q0-93-89.5-163T967 1495v86q52 14 84 43t32 59q0 19-18.5 28t-40.5 17-40.5 21-18.5 41q0 53 39 82t110 29q78 0 120-45t42-121z"/><glyph glyph-name="uni047D" unicode="ѽ" horiz-adv-x="1823" d="M614-20q-258 0-390 148.5T92 571q0 282 118 425t363 143q149 0 273-60l-86-209q-63 30-96 36.5t-70 6.5q-186 0-186-342 0-178 59.5-271T635 207q146 0 276 135 130-135 277-135 109 0 168 93.5t59 270.5q0 342-186 342-39 0-71.5-7t-94.5-36l-86 209q124 60 272 60 246 0 364-143t118-425q0-291-131-441T1208-20q-173 0-297 112Q789-20 614-20zm725 1773v-194h-16q-180 0-316 54-103 41-128 47.5t-50 6.5q-46 0-67.5-26t-32.5-85H547v50q0 69 17 119.5t46 81.5 80 49 135 18q58 0 114-19t115.5-41.5 126-41.5 144.5-19h14zm-272-334q0-94-91-163.5T758 1180v86q50 12 83 41.5t33 60.5q0 19-18.5 28t-40.5 17-40.5 21-18.5 41q0 52 39 81t110 29q78 0 120-44.5t42-121.5z"/><glyph glyph-name="uni047E" unicode="Ѿ" horiz-adv-x="2228" d="M1534 1235q-39 0-84-16.5t-113-61.5l-88 215q60 47 137.5 78t157.5 31q268 0 416.5-187T2109 768q0-375-164-581.5T1483-20q-107 0-196 35.5T1114 133q-77-75-165-114T745-20q-297 0-461.5 206T119 768q0 338 148.5 525.5T684 1481q81 0 158-31t137-78l-88-215q-68 45-113.5 61.5T694 1235q-128 0-199-121.5T424 766q0-251 93-383.5T786 250q80 0 168 74v391h310V334q89-84 180-84 176 0 268 132.5t92 383.5q0 225-71.5 347T1534 1235zm-6 623v-89l-82-172h-55l-50 103h-153l-49-103h-56l-49 103H881l-50-103h-55l-80 172v89h832z"/><glyph glyph-name="uni047F" unicode="ѿ" horiz-adv-x="1812" d="M416 0L6 1118h320l194-637q37-111 49-229h6q6 27 15 54t174 439l-139 373h319l201-620q7-23 17-54t19.5-62.5 18.5-61 14-50.5h9q106 151 154 348t48 500h308q0-372-99.5-628.5T1311 0h-285L893 385 741 0H416zm876 1444v-88l-82-172h-55l-49 102H952l-49-102h-55l-49 102H645l-49-102h-55l-80 172v88h831z"/><glyph glyph-name="uni0480" unicode="Ҁ" horiz-adv-x="1386" d="M858-20q-359 0-549 193.5T119 729q0 227 89 398.5T463.5 1391t392.5 92q225 0 459-103l-101-252q-91 39-183.5 68T848 1225q-195 0-302.5-131T438 727q0-489 414-489 58 0 147.5 9.5T1167 274v-766H858v472z"/><glyph glyph-name="uni0481" unicode="ҁ" horiz-adv-x="1073" d="M602-16Q350 3 221 146.5T92 553q0 298 135 442t424 144q184 0 357-80l-88-232q-173 66-277 66-126 0-183-84.5T403 555q0-156 64.5-242T651 227q125 0 256 37v-756H602v476z"/><glyph glyph-name="uni0482" unicode="҂" horiz-adv-x="1247" d="M588 432l284-166-71-123-285 164L336-6 207 68l180 315-283 164 70 123 287-164 198 346-284 164 71 125 285-164 182 313 127-73-182-316 287-164-74-123-283 164z"/><glyph glyph-name="uni0483" unicode="҃" horiz-adv-x="1141" d="M395 1241q-6-43-33-68.5t-75-25.5q-56 0-81.5 35.5T180 1274q0 117 109 117h459q10 94 108 94 109 0 109-115 0-57-27-93t-84-36H395z"/><glyph glyph-name="uni0484" unicode="҄" horiz-adv-x="1182" d="M258 1436q78 0 144.5 18.5t126 41T644 1537t114 19q105 0 160-27t86.5-85.5T1036 1288v-49H854q-11 59-32.5 85t-67.5 26q-30 0-66.5-12T577 1296q-134-55-317-55h-16v195h14z"/><glyph glyph-name="uni0485" unicode="҅" horiz-adv-x="1182" d="M623 1624q71 0 110-29t39-82q0-27-18.5-40t-41-21.5-41-17T653 1407q0-32 34-61t83-41v-86q-126 6-217.5 74.5T461 1458q0 77 42.5 121.5T623 1624z"/><glyph glyph-name="uni0486" unicode="҆" horiz-adv-x="1182" d="M770 1458q0-94-91-163.5T461 1219v86q48 11 82.5 40.5T578 1407q0 19-18.5 27.5t-41 17-41 21.5-18.5 40q0 53 39 82t110 29q78 0 120-44.5t42-121.5z"/><glyph glyph-name="uni0488" unicode="҈" horiz-adv-x="2025" d="M1001 1425q93 0 149.5-50.5T1214 1231h-79q-5 44-35 66t-99 22q-78 0-103-20.5t-30-67.5h-75q11 194 208 194zm0-1550q92 0 149.5-51t63.5-143h-79q-5 44-35 66t-99 22q-78 0-103-20.5T868-319h-75q5 89 55 141.5t153 52.5zm580 279q92 0 149.5-51T1794-41h-80q-5 45-35 66.5T1581 47q-78 0-103-19.5T1448-41h-76q5 90 55.5 142.5T1581 154zm-1153 0q92 0 149.5-51T641-41h-80q-5 45-35 66.5T428 47q-78 0-103-19.5T295-41h-76q5 90 55.5 142.5T428 154zm1153 987q92 0 149.5-51t63.5-144h-80q-5 45-35 66.5t-98 21.5q-78 0-103-19.5t-30-68.5h-76q5 90 55.5 142.5T1581 1141zm-1153 0q92 0 149.5-51T641 946h-80q-5 45-35 66.5t-98 21.5q-78 0-103-19.5T295 946h-76q5 90 55.5 142.5T428 1141zm1344-488q92 0 149.5-52t63.5-142h-80q-5 44-35 66t-98 22q-78 0-103.5-20t-30.5-68h-75q11 194 209 194zm-1522 0q92 0 149.5-51T463 459h-80q-5 45-35 66.5T250 547q-78 0-103-19.5T117 459H41q5 90 55.5 142T250 653z"/><glyph glyph-name="uni0489" unicode="҉" horiz-adv-x="1958" d="M1090-49q-17-66-52-161.5T967-385h-97q53 221 70 350h139zM870 1155q19 71 55.5 171t67.5 165h97q-52-220-70-350H881zm711-493q71-19 171-55.5t165-67.5v-97q-221 53-350 70v139zM377 442q-66 17-161.5 52T41 565v97q221-53 350-70V453zm1274 744l69-68q-177-110-297-198l-98 98 2 16q67 39 162 83t162 69zM307-123l-69 68Q415 55 535 143l98-98-2-16Q476-60 307-123zm17 1325l67 70q123-198 199-297l-98-98-17 2q-82 140-151 323zM1632-141l-67-70q-31 50-96 147.5T1366 86l98 98 17-2q39-69 84-166t67-157z"/><glyph glyph-name="uni048A" unicode="Ҋ" horiz-adv-x="1876" d="M184 1462h279V756l-4-189-10-215h6l675 1110h371V266h334l-178-692h-344L1501 0h-276v702q0 141 18 418h-8L557 0H184v1462zm1143 475q-19-187-141-272.5T834 1579q-237 0-350.5 82T356 1937h273q7-103 51.5-144.5T840 1751q99 0 149.5 45.5T1051 1937h276zM1686 0z"/><glyph glyph-name="uni048B" unicode="ҋ" horiz-adv-x="1642" d="M455 1118V676q0-70-23-342l516 784h367V223h299l-146-624h-290L1315 0h-295v446q0 119 20 336L526 0H160v1118h295zm770 481q-21-189-142.5-273.5T731 1241q-161 0-262.5 37t-153 112-61.5 209h272q9-108 53.5-147t157.5-39q103 0 153 47.5t58 138.5h277zM1475 0z"/><glyph glyph-name="uni048C" unicode="Ҍ" horiz-adv-x="1262" d="M494 1311h299v-254H494V901h122q286 0 442-116t156-328Q1214 0 610 0H184v1057H47v254h137v151h310v-151zm0-1057h104q157 0 230 50.5T901 457q0 101-74 145.5T573 647h-79V254z"/><glyph glyph-name="uni048D" unicode="ҍ" horiz-adv-x="1257" d="M4 1333h156v223h305v-223h377v-198H465V686h215q258 0 382-82t124-248Q1186 0 692 0H160v1135H4v198zm877-981q0 65-52 94t-155 29H465V211h213q203 0 203 141z"/><glyph glyph-name="uni048E" unicode="Ҏ" horiz-adv-x="1286" d="M1194 1006q0-129-47.5-229.5T1006 614l88-125-152-112-115 164q-86-21-200-21H494V0H184v1462h467q266 0 404.5-114.5T1194 1006zM494 774h145l23 2-58 82 154 111 82-117q41 53 41 143 0 109-59.5 161T635 1208H494V774z"/><glyph glyph-name="uni048F" unicode="ҏ" horiz-adv-x="1296" d="M774-20q-197 0-309 143h-16q16-140 16-162v-453H160v1610h248l43-145h16q54 83 135 124.5t180 41.5q198 0 310-153t112-425q0-303-145-463l94-123-158-118L887-4q-52-16-113-16zm-90 915q-113 0-165-69.5T465 596v-33q0-180 53.5-258T688 227h17l18 2-102 127 167 123 82-100q23 78 23 186 0 165-50.5 247.5T684 895z"/><glyph glyph-name="afii10050" unicode="Ґ" horiz-adv-x="1190" d="M494 0H184v1462h697v310h268v-566H494V0z"/><glyph glyph-name="afii10098" unicode="ґ" horiz-adv-x="1049" d="M465 0H160v1118h540v305h275V889H465V0z"/><glyph glyph-name="uni0492" unicode="Ғ" horiz-adv-x="1145" d="M1104 1462v-254H494V850h401V596H494V0H184v596H47v254h137v612h920z"/><glyph glyph-name="uni0493" unicode="ғ" horiz-adv-x="1006" d="M958 1118V870H446V653h332V418H446V0H141v418H4v235h137v465h817z"/><glyph glyph-name="uni0494" unicode="Ҕ" horiz-adv-x="1503" d="M621 537q-53 0-127-13V0H184v1462h920v-254H494V807q107 12 256 12 193 0 345.5-85t229-236.5T1401 141q0-195-69.5-343.5t-195-229T858-512q-110 0-179.5 11T535-465v272q129-47 262-47 139 0 220 102.5t81 278.5q0 196-115 296T621 537z"/><glyph glyph-name="uni0495" unicode="ҕ" horiz-adv-x="1233" d="M1161 68q0-179-61-308T927-435.5 668-502q-142 0-256 51v263q45-24 105.5-39T627-242q116 0 178.5 81.5T868 72q0 305-315 305-42 0-88-6V0H160v1118h817V870H465V629q74 12 149 12 158 0 283.5-70T1092 371t69-303z"/><glyph glyph-name="uni0496" unicode="Җ" horiz-adv-x="2107" d="M520 760L29 1462h319l473-708v708h289V754l473 708h320l-492-702 338-494h317v-692h-299V0h-168l-489 741V0H821v741L332 0H0zM1931 0z"/><glyph glyph-name="uni0497" unicode="җ" horiz-adv-x="1929" d="M752 575v543h284V575l398 543h315l-412-536 277-359h266v-624h-274V0h-144l-426 567V0H752v567L326 0H0l451 582-412 536h315zM1788 0z"/><glyph glyph-name="uni0498" unicode="Ҙ" horiz-adv-x="1327" d="M1194 1120q0-141-100-233T823 770v-6q201-20 308.5-111T1239 416q0-202-163.5-319T623-20q-322 0-517 79v260q94-45 220.5-70.5T563 223q369 0 369 215 0 97-118.5 149T463 639H326v242h123q232 0 338 44t106 146q0 75-66.5 119.5T627 1235q-206 0-398-119L94 1323q125 83 265 121.5t311 38.5q239 0 381.5-100t142.5-263zM619-227q0 52-39 106.5T471 0h179q79-60 112-97.5t50.5-77.5 17.5-87q0-103-69-166.5T580-492q-74 0-156 23v178q60-18 115-18 35 0 57.5 20t22.5 62z"/><glyph glyph-name="uni0499" unicode="ҙ" horiz-adv-x="1137" d="M438 688q173 0 245.5 28t72.5 89q0 54-53 81t-175 27q-77 0-174.5-19T176 842l-90 213q119 45 231 64.5t250 19.5q209 0 335-80t126-217q0-189-223-246v-10q137-34 195.5-96.5T1059 326q0-102-66-181T802 23 508-20Q228-20 78 49v252q86-40 188.5-63T465 215q149 0 223 33.5t74 95.5q0 68-78 100.5T444 477H326v211h112zm72-915q0 52-39 106.5T362 0h179q79-60 112-97.5t50.5-77.5 17.5-87q0-103-69-166.5T471-492q-74 0-156 23v178q60-18 115-18 35 0 57.5 20t22.5 62z"/><glyph glyph-name="uni049A" unicode="Қ" horiz-adv-x="1548" d="M1180 266h327v-692h-299V0h-184L494 741V0H184v1462h310V754l524 708h330L815 760zM1376 0z"/><glyph glyph-name="uni049B" unicode="қ" horiz-adv-x="1362" d="M893 1118h336L786 582l297-359h250v-624h-274V0H922L465 567V0H160v1118h305V575zM1268 0z"/><glyph glyph-name="uni049C" unicode="Ҝ" horiz-adv-x="1360" d="M618 612l-124-90V0H184v1462h310V793l122 172 2 2v354h134v-186l260 327h344L846 815 1360 0h-352L752 412V190H618v422z"/><glyph glyph-name="uni049D" unicode="ҝ" horiz-adv-x="1227" d="M160 1118h284V575l99 123v316h145V885l184 233h316L745 582 1227 0H901L686 266V90H541v356l-97 121V0H160v1118z"/><glyph glyph-name="uni049E" unicode="Ҟ" horiz-adv-x="1317" d="M4 1327h137v135h310v-135h137v-254H451V793l122 172 396 497h344L803 815 1317 0H965L582 616l-131-94V0H141v1073H4v254z"/><glyph glyph-name="uni049F" unicode="ҟ" horiz-adv-x="1270" d="M4 1395h156v161h305v-161h315v-199H465V862l-16-254h4l133 170 313 340h344L799 633 1270 0H918L596 453 465 348V0H160v1196H4v199z"/><glyph glyph-name="uni04A0" unicode="Ҡ" horiz-adv-x="1501" d="M0 1462h635V793l123 172 395 497h344L987 815 1501 0h-352L766 616l-131-94V0H326v1204H0v258zM141 0z"/><glyph glyph-name="uni04A1" unicode="ҡ" horiz-adv-x="1423" d="M0 1118h641V575l428 543h315L942 582 1423 0h-325L641 567V0H356v889H0v229zM196 0z"/><glyph glyph-name="uni04A2" unicode="Ң" horiz-adv-x="1722" d="M1382 266h299v-692h-299V0h-309v631H494V0H184v1462h310V889h579v573h309V266zM1567 0z"/><glyph glyph-name="uni04A3" unicode="ң" horiz-adv-x="1522" d="M465 1118V688h426v430h305V223h277v-624h-275V0H891v461H465V0H160v1118h305zM1356 0z"/><glyph glyph-name="uni04A4" unicode="Ҥ" horiz-adv-x="1708" d="M1708 1204h-326V0h-309v631H494V0H184v1462h310V889h579v573h635v-258zM1567 0z"/><glyph glyph-name="uni04A5" unicode="ҥ" horiz-adv-x="1552" d="M465 1118V688h426v430h661V889h-356V0H891v461H465V0H160v1118h305zM1356 0z"/><glyph glyph-name="uni04A6" unicode="Ҧ" horiz-adv-x="2304" d="M1300 803q115 16 281 16 185 0 330-85.5t218-236 73-356.5q0-195-69.5-343.5t-195-229T1659-512q-109 0-176.5 10T1335-465v272q129-47 262-47 131 0 216 106.5t85 274.5q0 196-106.5 296T1456 537q-58 0-156-21V0H991v1204H494V0H184v1462h1116V803z"/><glyph glyph-name="uni04A7" unicode="ҧ" horiz-adv-x="1821" d="M1749 68q0-179-60.5-307T1516-434.5 1255-502q-142 0-256 51v263q45-24 105.5-39t109.5-15q115 0 178.5 81.5T1456 72q0 149-77.5 227T1151 377h-6V0H840v889H465V0H160v1118h985V637l80 4q151 0 271.5-70.5t186.5-200T1749 68z"/><glyph glyph-name="uni04A8" unicode="Ҩ" horiz-adv-x="1591" d="M1485 678q0-143-49-266.5T1274 176q46-16 112-16 76 0 144 22V-59q-62-25-178-25-173 0-318 98-104-34-250-34-310 0-487.5 195T119 713q0 381 162.5 576.5T762 1485q56 0 129-12.5t119-30.5l-78-240q-92 29-170 29-330 0-330-508 0-230 100-355.5T809 242q25 0 31 4-63 76-101.5 197.5T700 690q0 218 99.5 331.5T1090 1135q187 0 291-121t104-336zm-277-8q0 233-112 233-55 0-86-61.5T979 674q0-122 28-209.5t66-136.5q61 56 98 148.5t37 193.5z"/><glyph glyph-name="uni04A9" unicode="ҩ" horiz-adv-x="1343" d="M1245 508q0-118-43-211t-121-145q28-7 70-7 59 0 123 17V-49q-72-23-156-23-147 0-274 86-98-34-232-34-237 0-378.5 155.5T92 555q0 276 136.5 430T614 1139q42 0 102.5-11t108.5-30l-67-228q-88 25-144 25-111 0-163-83t-52-267q0-152 55.5-236T618 225q25 0 37 4-42 79-56.5 143.5T584 514q0 167 83 255.5T915 858q152 0 241-92.5t89-257.5zm-241 0q0 57-22 93t-67 36q-90 0-90-131 0-126 76-213 103 64 103 215z"/><glyph glyph-name="uni04AA" unicode="Ҫ" horiz-adv-x="1305" d="M805 1225q-175 0-271-131.5T438 727q0-489 367-489 154 0 373 77V55Q998-20 776-20q-319 0-488 193.5T119 729q0 228 83 399.5t238.5 263T805 1483q213 0 428-103l-100-252q-82 39-165 68t-163 29zM774-227q0 52-39 106.5T626 0h179q79-60 112-97.5t50.5-77.5 17.5-87q0-103-69-166.5T735-492q-74 0-156 23v178q60-18 115-18 35 0 57.5 20t22.5 62z"/><glyph glyph-name="uni04AB" unicode="ҫ" horiz-adv-x="1053" d="M614-20Q92-20 92 553q0 285 142 435.5T641 1139q194 0 348-76l-90-236q-72 29-134 47.5T641 893q-238 0-238-338 0-328 238-328 88 0 163 23.5T954 324V63Q880 16 804.5-2T614-20zm7-207q0 52-39 106.5T473 0h179q79-60 112-97.5t50.5-77.5 17.5-87q0-103-69-166.5T582-492q-74 0-156 23v178q60-18 115-18 35 0 57.5 20t22.5 62z"/><glyph glyph-name="uni04AC" unicode="Ҭ" horiz-adv-x="1186" d="M748 266h299v-692H748V0H438v1204H41v258h1104v-258H748V266z"/><glyph glyph-name="uni04AD" unicode="ҭ" horiz-adv-x="1126" d="M1085 1118V889H719V223h274v-624H719V0H414v889H47v229h1038z"/><glyph glyph-name="uni04AE" unicode="Ү" horiz-adv-x="1278" d="M639 860l305 602h334L793 569V0H485v559L0 1462h336z"/><glyph glyph-name="uni04AF" unicode="ү" horiz-adv-x="1176" d="M741-492H434V0L0 1118h336l176-504q26-73 57-216l13-60h12q36 180 70 276l178 504h334L741 0v-492z"/><glyph glyph-name="uni04B0" unicode="Ұ" horiz-adv-x="1278" d="M639 860l305 602h334L793 569v-41h319V270H793V0H485v270H166v258h319v31L0 1462h336z"/><glyph glyph-name="uni04B1" unicode="ұ" horiz-adv-x="1176" d="M1032 0v-229H741v-263H434v263H143V0h291L0 1118h336l176-504q26-73 57-216l13-60h12q36 180 70 276l178 504h334L741 0h291z"/><glyph glyph-name="uni04B2" unicode="Ҳ" horiz-adv-x="1522" d="M1188 266h293v-692h-299V0h-170L672 553 332 0H0l485 754-454 708h342l315-526 309 526h334L872 737zM1366 0z"/><glyph glyph-name="uni04B3" unicode="ҳ" horiz-adv-x="1311" d="M389 571L29 1118h346l217-356 219 356h346L793 571l231-348h258v-624h-274V0H827L592 383 356 0H10zM1174 0zm10 0z"/><glyph glyph-name="uni04B4" unicode="Ҵ" horiz-adv-x="1905" d="M408 0v1204H41v258h1083v-258H717V258h538v1204h310V266h299v-692h-299V0H408z"/><glyph glyph-name="uni04B5" unicode="ҵ" horiz-adv-x="1620" d="M901 1118V889H606V229h406v889h305V223h274v-624h-274V0H301v889H47v229h854z"/><glyph glyph-name="uni04B6" unicode="Ҷ" horiz-adv-x="1647" d="M1307 266h299v-692h-299V0H997v565q-154-52-256.5-71T545 475q-209 0-322.5 100.5T109 858v604h309V946q0-106 49-159.5T633 733q82 0 163.5 16.5T997 807v655h310V266zM1491 0z"/><glyph glyph-name="uni04B7" unicode="ҷ" horiz-adv-x="1487" d="M428 1118V709q0-146 135-146 88 0 163.5 20T879 635v483h305V223h274v-624h-274V0H879v444q-106-56-197-79t-176-23q-183 0-283 93.5T123 702v416h305zM1343 0z"/><glyph glyph-name="uni04B8" unicode="Ҹ" horiz-adv-x="1491" d="M625 477l-40-2h-40q-209 0-322.5 100.5T109 858v604h309V946q0-110 49-160.5T625 733v328h133V743q89 13 239 64v655h310V0H997v565q-129-45-239-69V172H625v305z"/><glyph glyph-name="uni04B9" unicode="ҹ" horiz-adv-x="1343" d="M582 346q-25-4-76-4-183 0-283 93.5T123 702v416h305V709q0-146 135-146h19v256h125V578q78 16 172 57v483h305V0H879v444q-105-54-172-73V129H582v217z"/><glyph glyph-name="uni04BA" unicode="Һ" horiz-adv-x="1491" d="M184 1462h310V897q147 51 254 70.5T946 987q206 0 321-99.5T1382 604V0h-309v516q0 106-49 159.5T858 729q-79 0-162.5-16T494 655V0H184v1462z"/><glyph glyph-name="uni04BB" unicode="һ" horiz-adv-x="1364" d="M915 0v420q0 135-135 135-144 0-315-72V0H160v1118h305V674q106 56 196 79t177 23q183 0 283-93.5T1221 416V0H915z"/><glyph glyph-name="uni04BC" unicode="Ҽ" horiz-adv-x="1942" d="M1122 238q138 0 304 46.5T1702 399V121q-125-75-267.5-108T1120-20q-318 0-509 170.5T391 631h-63q-163 0-245.5 69T0 891q0 116 53 205h234q-8-17-17.5-53t-9.5-66q0-88 96-88h41q37 284 215 440t471 156q348 0 521.5-197.5T1778 702v-71H711q13-193 118-293t293-100zm-39 989q-159 0-257.5-89.5T715 889h741q0 176-91 257t-282 81z"/><glyph glyph-name="uni04BD" unicode="ҽ" horiz-adv-x="1464" d="M334 686q33 219 172 336t358 117q242 0 377-134.5T1376 631V483H633q5-130 79.5-203T922 207q106 0 199.5 21.5T1313 295V59q-78-39-173-59T911-20q-259 0-411.5 130.5T328 483Q0 483 0 707q0 96 41 165h205q-25-55-25-108 0-78 96-78h17zm532 236q-94 0-156-57.5T639 686h451q-2 112-61.5 174T866 922z"/><glyph glyph-name="uni04BE" unicode="Ҿ" horiz-adv-x="1942" d="M956-8Q710 32 563.5 196.5T391 631h-63q-163 0-245.5 69T0 891q0 116 53 205h234q-8-17-17.5-53t-9.5-66q0-88 96-88h41q37 284 215 440t471 156q348 0 521.5-197.5T1778 702v-71H711q13-193 118-293t293-100q138 0 304 46.5T1702 399V121q-109-64-216-95t-233-40v-412H956V-8zm127 1235q-159 0-257.5-89.5T715 889h741q0 176-91 257t-282 81z"/><glyph glyph-name="uni04BF" unicode="ҿ" horiz-adv-x="1464" d="M733-2Q552 38 447.5 162T328 483Q0 483 0 707q0 96 41 165h205q-25-55-25-108 0-78 96-78h17q33 219 172 336t358 117q242 0 377-134.5T1376 631V483H633q5-130 79.5-203T922 207q106 0 199.5 21.5T1313 295V59q-127-63-305-75v-385H733V-2zm133 924q-94 0-156-57.5T639 686h451q-2 112-61.5 174T866 922z"/><glyph glyph-name="uni04C0" unicode="Ӏ" horiz-adv-x="678" d="M184 0v1462h310V0H184z"/><glyph glyph-name="uni04C1" unicode="Ӂ" horiz-adv-x="1931" d="M520 760L29 1462h319l473-708v708h289V754l473 708h320l-492-702L1931 0h-332l-489 741V0H821v741L332 0H0zm928 1177q-19-187-141-272.5T955 1579q-237 0-350.5 82T477 1937h273q7-103 51.5-144.5T961 1751q101 0 150.5 45.5T1172 1937h276z"/><glyph glyph-name="uni04C2" unicode="ӂ" horiz-adv-x="1788" d="M752 575v543h284V575l398 543h315l-412-536L1788 0h-326l-426 567V0H752v567L326 0H0l451 582-412 536h315zm626 1024q-19-187-141-272.5T885 1241q-237 0-350.5 82T407 1599h273q7-103 51.5-144.5T891 1413q101 0 150.5 45.5T1102 1599h276z"/><glyph glyph-name="uni04C3" unicode="Ӄ" horiz-adv-x="1556" d="M680 537q-75 0-186-25V0H184v1462h310V758l145 207 393 497h344L799 774h4q200 0 351.5-78T1380 476t74-335q0-195-69.5-343.5t-195-229T911-512q-110 0-179.5 11T588-465v272q129-47 262-47 142 0 221.5 102.5T1151 141q0 195-113 295.5T680 537z"/><glyph glyph-name="uni04C4" unicode="ӄ" horiz-adv-x="1354" d="M1272 68q0-179-60.5-307T1039-434.5 778-502q-142 0-256 51v263q45-24 105.5-39T737-242q116 0 179 82.5T979 72q0 148-79 226.5T668 377q-50 0-111-10.5T465 344V0H160v1118h305V625l434 493h344L770 618q229 0 365.5-146.5T1272 68z"/><glyph glyph-name="uni04C5" unicode="Ӆ" horiz-adv-x="1716" d="M1341 0h-309v1204H674l-16-134q-62-511-109.5-717.5T410 62 164-20Q80-20 16 2v254q58-20 109-20 53 0 84 48.5t58.5 180 73 431T418 1462h923V266h334l-178-692h-344zm185 0z"/><glyph glyph-name="uni04C6" unicode="ӆ" horiz-adv-x="1489" d="M1161 223h299l-145-624h-291L1161 0H856v889H575q-32-375-78-559.5t-122.5-267T174-20Q68-20 0 12v244q49-20 98-20 57 0 95.5 82t69 273.5T315 1118h846V223zM1321 0z"/><glyph glyph-name="uni04C7" unicode="Ӈ" horiz-adv-x="1567" d="M1382 90q0-177-67-315t-190.5-212.5T840-512q-191 0-324 47v272q75-26 141-36.5T805-240q126 0 197 96.5t71 268.5v506H494V0H184v1462h310V889h579v573h309V90z"/><glyph glyph-name="uni04C8" unicode="ӈ" horiz-adv-x="1356" d="M465 461V0H160v1118h305V688h426v430h305V23q0-247-132-386T700-502q-76 0-135 12t-123 44v262q112-58 226-58 108 0 163.5 74T891 47v414H465z"/><glyph glyph-name="uni04C9" unicode="Ӊ" horiz-adv-x="1757" d="M1382 266h334l-178-692h-344L1382 0h-309v631H494V0H184v1462h310V889h579v573h309V266zM1567 0z"/><glyph glyph-name="uni04CA" unicode="ӊ" horiz-adv-x="1524" d="M465 1118V688h426v430h305V223h299l-145-624h-291L1196 0H891v461H465V0H160v1118h305zM1356 0z"/><glyph glyph-name="uni04CB" unicode="Ӌ" horiz-adv-x="1491" d="M1307 0h-258v-426H750v692h247v299q-154-52-256.5-71T545 475q-209 0-322.5 100.5T109 858v604h309V946q0-106 49-159.5T633 733q82 0 163.5 16.5T997 807v655h310V0z"/><glyph glyph-name="uni04CC" unicode="ӌ" horiz-adv-x="1343" d="M428 1118V709q0-146 135-146 88 0 163.5 20T879 635v483h305V0H924v-401H649v624h230v221q-106-56-197-79t-176-23q-183 0-283 93.5T123 702v416h305z"/><glyph glyph-name="uni04CD" unicode="Ӎ" horiz-adv-x="2122" d="M803 0L451 1147h-9q19-350 19-467V0H184v1462h422L952 344h6l367 1118h422V266h334l-178-692h-344L1747 0h-289v692q0 49 1.5 113t13.5 340h-9L1087 0H803zm1128 0z"/><glyph glyph-name="uni04CE" unicode="ӎ" horiz-adv-x="1896" d="M1569 223h299l-146-624h-290L1569 0h-285v881l-16-62q-54-211-97-319L973 0H756L555 504q-43 110-92 309l-19 68V0H160v1118h420l192-477q30-77 55.5-177T862 293q33 150 51.5 215.5T954 629t199 489h416V223zM1729 0z"/><glyph glyph-name="uni04CF" unicode="ӏ" horiz-adv-x="678" d="M184 0v1462h310V0H184z"/><glyph glyph-name="uni04D0" unicode="Ӑ" horiz-adv-x="1413" d="M1079 0L973 348H440L334 0H0l516 1468h379L1413 0h-334zM899 608q-147 473-165.5 535t-26.5 98q-33-128-189-633h381zm293 1329q-19-187-141-272.5T699 1579q-237 0-350.5 82T221 1937h273q7-103 51.5-144.5T705 1751q101 0 150.5 45.5T916 1937h276z"/><glyph glyph-name="uni04D1" unicode="ӑ" horiz-adv-x="1237" d="M870 0l-59 152h-8Q726 55 644.5 17.5T432-20q-161 0-253.5 92T86 334q0 178 124.5 262.5T586 690l194 6v49q0 170-174 170-134 0-315-81l-101 206q193 101 428 101 225 0 345-98t120-298V0H870zm-90 518l-118-4q-133-4-198-48t-65-134q0-129 148-129 106 0 169.5 61T780 426v92zm336 1081q-19-187-141-272.5T623 1241q-237 0-350.5 82T145 1599h273q7-103 51.5-144.5T629 1413q101 0 150.5 45.5T840 1599h276z"/><glyph glyph-name="uni04D2" unicode="Ӓ" horiz-adv-x="1413" d="M1079 0L973 348H440L334 0H0l516 1468h379L1413 0h-334zM899 608q-147 473-165.5 535t-26.5 98q-33-128-189-633h381zM365 1743q0 65 37.5 100t101.5 35q66 0 103.5-37t37.5-98q0-60-38-96.5T504 1610q-64 0-101.5 35t-37.5 98zm403 0q0 70 40.5 102.5T909 1878q65 0 103.5-36t38.5-99q0-61-39-97t-103-36q-60 0-100.5 32.5T768 1743z"/><glyph glyph-name="uni04D3" unicode="ӓ" horiz-adv-x="1237" d="M870 0l-59 152h-8Q726 55 644.5 17.5T432-20q-161 0-253.5 92T86 334q0 178 124.5 262.5T586 690l194 6v49q0 170-174 170-134 0-315-81l-101 206q193 101 428 101 225 0 345-98t120-298V0H870zm-90 518l-118-4q-133-4-198-48t-65-134q0-129 148-129 106 0 169.5 61T780 426v92zm-506 887q0 65 37.5 100t101.5 35q66 0 103.5-37t37.5-98q0-60-38-96.5T413 1272q-64 0-101.5 35t-37.5 98zm403 0q0 70 40.5 102.5T818 1540q65 0 103.5-36t38.5-99q0-61-39-97t-103-36q-60 0-100.5 32.5T677 1405z"/><glyph glyph-name="uni04D4" unicode="Ӕ" horiz-adv-x="1950" d="M1829 0H956v348H465L315 0H0l655 1462h1174v-254h-563V887h526V633h-526V256h563V0zM578 608h378v590H829z"/><glyph glyph-name="uni04D5" unicode="ӕ" horiz-adv-x="1878" d="M1329-20q-137 0-249.5 50.5T895 186Q797 69 698.5 24.5T442-20q-161 0-258.5 94.5T86 334q0 178 121 262.5T569 690l191 6v84q0 69-44.5 102T594 915q-140 0-305-77l-99 202q189 101 422 101 227 0 342-131 66 64 152.5 96.5T1313 1139q221 0 349-137.5T1790 631V483h-723q5-130 77-203t202-73q196 0 380 88V59q-79-39-171-59t-226-20zM760 518l-113-4q-124-4-186-47.5T399 332q0-129 140-129 101 0 161 61t60 162v92zm547 404q-217 0-234-236h430q-2 112-55 174t-141 62z"/><glyph glyph-name="uni04D6" unicode="Ӗ" horiz-adv-x="1147" d="M1026 0H184v1462h842v-254H494V887h495V633H494V256h532V0zm63 1937q-19-187-141-272.5T596 1579q-237 0-350.5 82T118 1937h273q7-103 51.5-144.5T602 1751q101 0 150.5 45.5T813 1937h276z"/><glyph glyph-name="uni04D7" unicode="ӗ" horiz-adv-x="1210" d="M623 922q-97 0-152-61.5T408 686h428q-2 113-59 174.5T623 922zm43-942q-270 0-422 149T92 551q0 281 140.5 434.5T621 1139q237 0 369-135t132-373V483H401q5-130 77-203t202-73q101 0 191 21t188 67V59Q979 19 888-.5T666-20zm438 1619q-19-187-141-272.5T611 1241q-237 0-350.5 82T133 1599h273q7-103 51.5-144.5T617 1413q101 0 150.5 45.5T828 1599h276z"/><glyph glyph-name="uni04D8" unicode="Ә" horiz-adv-x="1673" d="M819 1227q-148 0-307.5-45.5T240 1065v268q139 83 278.5 117.5T821 1485q346 0 539.5-201T1554 729t-182-551.5T858-20q-344 0-519 195.5T164 762v72h1067q-13 192-118.5 292.5T819 1227zm39-989q163 0 260.5 91T1227 575H485q0-175 90-256t283-81z"/><glyph glyph-name="uni04D9" unicode="ә" horiz-adv-x="1231" d="M602 197q99 0 158 59t69 176H379q2-110 60-172.5T602 197zm-45 942q276 0 431-149.5T1143 567q0-279-141.5-433T604-20q-241 0-376.5 133.5T92 487v148h744q-5 130-80 203t-209 73q-99 0-191.5-19T156 823v236q88 44 183 62t218 18z"/><glyph glyph-name="uni04DA" unicode="Ӛ" horiz-adv-x="1673" d="M819 1227q-148 0-307.5-45.5T240 1065v268q139 83 278.5 117.5T821 1485q346 0 539.5-201T1554 729t-182-551.5T858-20q-344 0-519 195.5T164 762v72h1067q-13 192-118.5 292.5T819 1227zm39-989q163 0 260.5 91T1227 575H485q0-175 90-256t283-81zM517 1743q0 65 37.5 100t101.5 35q66 0 103.5-37t37.5-98q0-60-38-96.5T656 1610q-64 0-101.5 35t-37.5 98zm403 0q0 70 40.5 102.5T1061 1878q65 0 103.5-36t38.5-99q0-61-39-97t-103-36q-60 0-100.5 32.5T920 1743z"/><glyph glyph-name="uni04DB" unicode="ӛ" horiz-adv-x="1231" d="M602 197q99 0 158 59t69 176H379q2-110 60-172.5T602 197zm-45 942q276 0 431-149.5T1143 567q0-279-141.5-433T604-20q-241 0-376.5 133.5T92 487v148h744q-5 130-80 203t-209 73q-99 0-191.5-19T156 823v236q88 44 183 62t218 18zm-279 266q0 65 37.5 100t101.5 35q66 0 103.5-37t37.5-98q0-60-38-96.5T417 1272q-64 0-101.5 35t-37.5 98zm403 0q0 70 40.5 102.5T822 1540q65 0 103.5-36t38.5-99q0-61-39-97t-103-36q-60 0-100.5 32.5T681 1405z"/><glyph glyph-name="uni04DC" unicode="Ӝ" horiz-adv-x="1931" d="M520 760L29 1462h319l473-708v708h289V754l473 708h320l-492-702L1931 0h-332l-489 741V0H821v741L332 0H0zm103 983q0 65 37.5 100t101.5 35q66 0 103.5-37t37.5-98q0-60-38-96.5T762 1610q-64 0-101.5 35t-37.5 98zm403 0q0 70 40.5 102.5T1167 1878q65 0 103.5-36t38.5-99q0-61-39-97t-103-36q-60 0-100.5 32.5T1026 1743z"/><glyph glyph-name="uni04DD" unicode="ӝ" horiz-adv-x="1788" d="M752 575v543h284V575l398 543h315l-412-536L1788 0h-326l-426 567V0H752v567L326 0H0l451 582-412 536h315zm-201 830q0 65 37.5 100t101.5 35q66 0 103.5-37t37.5-98q0-60-38-96.5T690 1272q-64 0-101.5 35t-37.5 98zm403 0q0 70 40.5 102.5T1095 1540q65 0 103.5-36t38.5-99q0-61-39-97t-103-36q-60 0-100.5 32.5T954 1405z"/><glyph glyph-name="uni04DE" unicode="Ӟ" horiz-adv-x="1327" d="M1194 1120q0-141-100-233T823 770v-6q201-20 308.5-111T1239 416q0-202-163.5-319T623-20q-322 0-517 79v260q94-45 220.5-70.5T563 223q369 0 369 215 0 97-118.5 149T463 639H326v242h123q232 0 338 44t106 146q0 75-66.5 119.5T627 1235q-206 0-398-119L94 1323q125 83 265 121.5t311 38.5q239 0 381.5-100t142.5-263zm-870 623q0 65 37.5 100t101.5 35q66 0 103.5-37t37.5-98q0-60-38-96.5T463 1610q-64 0-101.5 35t-37.5 98zm403 0q0 70 40.5 102.5T868 1878q65 0 103.5-36t38.5-99q0-61-39-97t-103-36q-60 0-100.5 32.5T727 1743z"/><glyph glyph-name="uni04DF" unicode="ӟ" horiz-adv-x="1137" d="M438 688q173 0 245.5 28t72.5 89q0 54-53 81t-175 27q-77 0-174.5-19T176 842l-90 213q119 45 231 64.5t250 19.5q209 0 335-80t126-217q0-189-223-246v-10q137-34 195.5-96.5T1059 326q0-102-66-181T802 23 508-20Q228-20 78 49v252q86-40 188.5-63T465 215q149 0 223 33.5t74 95.5q0 68-78 100.5T444 477H326v211h112zm-209 717q0 65 37.5 100t101.5 35q66 0 103.5-37t37.5-98q0-60-38-96.5T368 1272q-64 0-101.5 35t-37.5 98zm403 0q0 70 40.5 102.5T773 1540q65 0 103.5-36t38.5-99q0-61-39-97t-103-36q-60 0-100.5 32.5T632 1405z"/><glyph glyph-name="uni04E0" unicode="Ӡ" horiz-adv-x="1210" d="M283 858l360 348H106v256h959v-198L633 852q241-10 369-120t128-306q0-208-162.5-327T508-20Q249-20 57 59v263q93-44 210.5-70.5T489 225q167 0 249.5 52.5T821 444q0 102-104 149.5T406 641H283v217z"/><glyph glyph-name="uni04E1" unicode="ӡ" horiz-adv-x="1190" d="M283 502l405 383H98v233h967V920L623 506q237-26 362-153T1110 2q0-151-71.5-262.5T830-432t-330-60q-251 0-443 80v262q92-45 205.5-70.5T477-246q158 0 241 67.5T801 16q0 138-101 203.5T401 285H283v217z"/><glyph glyph-name="uni04E2" unicode="Ӣ" horiz-adv-x="1686" d="M184 1462h279V756l-4-189-10-215h6l675 1110h371V0h-276v702q0 141 18 418h-8L557 0H184v1462zm318 328h678v-211H502v211z"/><glyph glyph-name="uni04E3" unicode="ӣ" horiz-adv-x="1475" d="M455 1118V676q0-70-23-342l516 784h367V0h-295v446q0 119 20 336L526 0H160v1118h295zm-55 334h678v-211H400v211z"/><glyph glyph-name="uni04E4" unicode="Ӥ" horiz-adv-x="1686" d="M184 1462h279V756l-4-189-10-215h6l675 1110h371V0h-276v702q0 141 18 418h-8L557 0H184v1462zm316 281q0 65 37.5 100t101.5 35q66 0 103.5-37t37.5-98q0-60-38-96.5T639 1610q-64 0-101.5 35t-37.5 98zm403 0q0 70 40.5 102.5T1044 1878q65 0 103.5-36t38.5-99q0-61-39-97t-103-36q-60 0-100.5 32.5T903 1743z"/><glyph glyph-name="uni04E5" unicode="ӥ" horiz-adv-x="1475" d="M455 1118V676q0-70-23-342l516 784h367V0h-295v446q0 119 20 336L526 0H160v1118h295zm-59 287q0 65 37.5 100t101.5 35q66 0 103.5-37t37.5-98q0-60-38-96.5T535 1272q-64 0-101.5 35t-37.5 98zm403 0q0 70 40.5 102.5T940 1540q65 0 103.5-36t38.5-99q0-61-39-97t-103-36q-60 0-100.5 32.5T799 1405z"/><glyph glyph-name="uni04E6" unicode="Ӧ" horiz-adv-x="1630" d="M1511 733q0-363-180-558T815-20 299 175 119 735t180.5 557.5T817 1485t515.5-194T1511 733zm-1067 0q0-245 93-369t278-124q371 0 371 493 0 494-369 494-185 0-279-124.5T444 733zm30 1010q0 65 37.5 100t101.5 35q66 0 103.5-37t37.5-98q0-60-38-96.5T613 1610q-64 0-101.5 35t-37.5 98zm403 0q0 70 40.5 102.5T1018 1878q65 0 103.5-36t38.5-99q0-61-39-97t-103-36q-60 0-100.5 32.5T877 1743z"/><glyph glyph-name="uni04E7" unicode="ӧ" horiz-adv-x="1268" d="M403 561q0-166 54.5-251T635 225q122 0 175.5 84.5T864 561q0 166-54 249t-177 83q-122 0-176-82.5T403 561zm773 0q0-273-144-427T631-20q-161 0-284 70.5T158 253 92 561q0 274 143 426t402 152q161 0 284-70t189-201 66-307zm-883 844q0 65 37.5 100t101.5 35q66 0 103.5-37t37.5-98q0-60-38-96.5T432 1272q-64 0-101.5 35t-37.5 98zm403 0q0 70 40.5 102.5T837 1540q65 0 103.5-36t38.5-99q0-61-39-97t-103-36q-60 0-100.5 32.5T696 1405z"/><glyph glyph-name="uni04E8" unicode="Ө" horiz-adv-x="1630" d="M1511 733q0-363-180-558T815-20 299 175 119 735t180.5 557.5T817 1485t515.5-194T1511 733zM815 240q163 0 257.5 96T1186 621H442q20-180 111.5-280.5T815 240zm2 987q-158 0-251-87T446 879h736q-25 169-116.5 258.5T817 1227z"/><glyph glyph-name="uni04E9" unicode="ө" horiz-adv-x="1268" d="M1176 561q0-273-144-427T631-20q-161 0-284 70.5T158 253 92 561q0 274 143 426t402 152q161 0 284-70t189-201 66-307zM635 225q97 0 153 58t70 174H408q15-116 70-174t157-58zm-2 668q-98 0-154-56.5T408 668h450q-14 112-68.5 168.5T633 893z"/><glyph glyph-name="uni04EA" unicode="Ӫ" horiz-adv-x="1630" d="M1511 733q0-363-180-558T815-20 299 175 119 735t180.5 557.5T817 1485t515.5-194T1511 733zM815 240q163 0 257.5 96T1186 621H442q20-180 111.5-280.5T815 240zm2 987q-158 0-251-87T446 879h736q-25 169-116.5 258.5T817 1227zm-341 516q0 65 37.5 100t101.5 35q66 0 103.5-37t37.5-98q0-60-38-96.5T615 1610q-64 0-101.5 35t-37.5 98zm403 0q0 70 40.5 102.5T1020 1878q65 0 103.5-36t38.5-99q0-61-39-97t-103-36q-60 0-100.5 32.5T879 1743z"/><glyph glyph-name="uni04EB" unicode="ӫ" horiz-adv-x="1268" d="M1176 561q0-273-144-427T631-20q-161 0-284 70.5T158 253 92 561q0 274 143 426t402 152q161 0 284-70t189-201 66-307zM635 225q97 0 153 58t70 174H408q15-116 70-174t157-58zm-2 668q-98 0-154-56.5T408 668h450q-14 112-68.5 168.5T633 893zm-342 512q0 65 37.5 100t101.5 35q66 0 103.5-37t37.5-98q0-60-38-96.5T430 1272q-64 0-101.5 35t-37.5 98zm403 0q0 70 40.5 102.5T835 1540q65 0 103.5-36t38.5-99q0-61-39-97t-103-36q-60 0-100.5 32.5T694 1405z"/><glyph glyph-name="uni04EC" unicode="Ӭ" horiz-adv-x="1358" d="M553 1225q-99 0-194.5-28T170 1130l-98 250q232 103 487 103 325 0 502.5-199.5T1239 729q0-362-182.5-555.5T530-20Q293-20 98 55v260q243-77 414-77 191 0 291.5 93T913 610H279v254h632q-6 170-102 265.5T553 1225zm-239 518q0 65 37.5 100t101.5 35q66 0 103.5-37t37.5-98q0-60-38-96.5T453 1610q-64 0-101.5 35t-37.5 98zm403 0q0 70 40.5 102.5T858 1878q65 0 103.5-36t38.5-99q0-61-39-97t-103-36q-60 0-100.5 32.5T717 1743z"/><glyph glyph-name="uni04ED" unicode="ӭ" horiz-adv-x="1049" d="M418-20Q208-20 74 49v238q174-80 327-80 110 0 170 64t70 192H219v203h422q-8 123-61.5 185T426 913q-119 0-260-63l-86 209q75 35 169.5 57.5T438 1139q262 0 390-142t128-426q0-292-135.5-441.5T418-20zM174 1405q0 65 37.5 100t101.5 35q66 0 103.5-37t37.5-98q0-60-38-96.5T313 1272q-64 0-101.5 35t-37.5 98zm403 0q0 70 40.5 102.5T718 1540q65 0 103.5-36t38.5-99q0-61-39-97t-103-36q-60 0-100.5 32.5T577 1405z"/><glyph glyph-name="uni04EE" unicode="Ӯ" horiz-adv-x="1337" d="M1337 1462L885 428q-85-195-159.5-280T549 21.5 301-20Q176-20 68 10v266q88-36 219-36 83 0 134 38.5T506 412L0 1462h328l360-815h10l18 50 302 765h319zM332 1790h678v-211H332v211z"/><glyph glyph-name="uni04EF" unicode="ӯ" horiz-adv-x="1165" d="M0 1118h334l211-629q27-82 37-194h6q11 103 43 194l207 629h327L692-143q-65-175-185.5-262T225-492q-79 0-155 17v242q55-13 120-13 81 0 141.5 49.5T426-47l18 55zm247 334h678v-211H247v211z"/><glyph glyph-name="uni04F0" unicode="Ӱ" horiz-adv-x="1337" d="M1337 1462L885 428q-85-195-159.5-280T549 21.5 301-20Q176-20 68 10v266q88-36 219-36 83 0 134 38.5T506 412L0 1462h328l360-815h10l18 50 302 765h319zM328 1743q0 65 37.5 100t101.5 35q66 0 103.5-37t37.5-98q0-60-38-96.5T467 1610q-64 0-101.5 35t-37.5 98zm403 0q0 70 40.5 102.5T872 1878q65 0 103.5-36t38.5-99q0-61-39-97t-103-36q-60 0-100.5 32.5T731 1743z"/><glyph glyph-name="uni04F1" unicode="ӱ" horiz-adv-x="1165" d="M0 1118h334l211-629q27-82 37-194h6q11 103 43 194l207 629h327L692-143q-65-175-185.5-262T225-492q-79 0-155 17v242q55-13 120-13 81 0 141.5 49.5T426-47l18 55zm243 287q0 65 37.5 100t101.5 35q66 0 103.5-37t37.5-98q0-60-38-96.5T382 1272q-64 0-101.5 35t-37.5 98zm403 0q0 70 40.5 102.5T787 1540q65 0 103.5-36t38.5-99q0-61-39-97t-103-36q-60 0-100.5 32.5T646 1405z"/><glyph glyph-name="uni04F2" unicode="Ӳ" horiz-adv-x="1337" d="M1337 1462L885 428q-85-195-159.5-280T549 21.5 301-20Q176-20 68 10v266q88-36 219-36 83 0 134 38.5T506 412L0 1462h328l360-815h10l18 50 302 765h319zm-997 117v27q62 85 117.5 172.5T534 1907h301v-21q-32-53-146-153t-188-154H340zm397 0v27q139 192 195 301h301v-21q-25-43-125.5-134.5T899 1579H737z"/><glyph glyph-name="uni04F3" unicode="ӳ" horiz-adv-x="1165" d="M0 1118h334l211-629q27-82 37-194h6q11 103 43 194l207 629h327L692-143q-65-175-185.5-262T225-492q-79 0-155 17v242q55-13 120-13 81 0 141.5 49.5T426-47l18 55zm238 123v27q62 85 117.5 172.5T432 1569h301v-21q-32-53-146-153t-188-154H238zm397 0v27q139 192 195 301h301v-21q-25-43-125.5-134.5T797 1241H635z"/><glyph glyph-name="uni04F4" unicode="Ӵ" horiz-adv-x="1491" d="M1307 0H997v565q-154-52-256.5-71T545 475q-209 0-322.5 100.5T109 858v604h309V946q0-106 49-159.5T633 733q82 0 163.5 16.5T997 807v655h310V0zM365 1743q0 65 37.5 100t101.5 35q66 0 103.5-37t37.5-98q0-60-38-96.5T504 1610q-64 0-101.5 35t-37.5 98zm403 0q0 70 40.5 102.5T909 1878q65 0 103.5-36t38.5-99q0-61-39-97t-103-36q-60 0-100.5 32.5T768 1743z"/><glyph glyph-name="uni04F5" unicode="ӵ" horiz-adv-x="1343" d="M428 1118V709q0-146 135-146 88 0 163.5 20T879 635v483h305V0H879v444q-106-56-197-79t-176-23q-183 0-283 93.5T123 702v416h305zm-114 287q0 65 37.5 100t101.5 35q66 0 103.5-37t37.5-98q0-60-38-96.5T453 1272q-64 0-101.5 35t-37.5 98zm403 0q0 70 40.5 102.5T858 1540q65 0 103.5-36t38.5-99q0-61-39-97t-103-36q-60 0-100.5 32.5T717 1405z"/><glyph glyph-name="uni04F6" unicode="Ӷ" horiz-adv-x="1149" d="M1108 1462v-256H494V266h299v-692H494V0H184v1462h924z"/><glyph glyph-name="uni04F7" unicode="ӷ" horiz-adv-x="979" d="M932 1118V889H465V223h274v-624H465V0H160v1118h772z"/><glyph glyph-name="uni04F8" unicode="Ӹ" horiz-adv-x="1855" d="M1184 457q0-228-151.5-342.5T584 0H184v1462h310V901h100q281 0 435.5-116.5T1184 457zM494 254h81q153 0 224 50.5T870 457t-68.5 146T561 647h-67V254zM1671 0h-309v1462h309V0zM588 1743q0 65 37.5 100t101.5 35q66 0 103.5-37t37.5-98q0-60-38-96.5T727 1610q-64 0-101.5 35t-37.5 98zm403 0q0 70 40.5 102.5T1132 1878q65 0 103.5-36t38.5-99q0-61-39-97t-103-36q-60 0-100.5 32.5T991 1743z"/><glyph glyph-name="uni04F9" unicode="ӹ" horiz-adv-x="1741" d="M465 686h147q256 0 379-82t123-248q0-177-123-266.5T623 0H160v1118h305V686zm344-334q0 65-52 94t-155 29H465V211h141q203 0 203 141zM1581 0h-305v1118h305V0zM529 1405q0 65 37.5 100t101.5 35q66 0 103.5-37t37.5-98q0-60-38-96.5T668 1272q-64 0-101.5 35t-37.5 98zm403 0q0 70 40.5 102.5T1073 1540q65 0 103.5-36t38.5-99q0-61-39-97t-103-36q-60 0-100.5 32.5T932 1405z"/><glyph glyph-name="uni04FA" unicode="Ӻ" horiz-adv-x="1145" d="M1104 1462v-254H494V850h401V596H494V0H184v596H47v254h137v612h920zM437-496q-100 0-185 25v240q59-19 119-19 123 0 123 170v383h295v-428q0-177-91.5-274T437-496z"/><glyph glyph-name="uni04FB" unicode="ӻ" horiz-adv-x="1006" d="M958 1118V870H446V653h332V418H446V0H141v418H4v235h137v465h817zM389-496q-100 0-185 25v240q59-19 119-19 123 0 123 170v342h295v-387q0-177-91.5-274T389-496z"/><glyph glyph-name="uni04FC" unicode="Ӽ" horiz-adv-x="1499" d="M1366 0h-354L672 553 332 0H0l485 754-454 708h342l315-526 309 526h334L872 737zm-260-496q-100 0-185 25v240q59-19 119-19 123 0 123 170v383h295v-428q0-177-91.5-274T1106-496z"/><glyph glyph-name="uni04FD" unicode="ӽ" horiz-adv-x="1321" d="M389 571L29 1118h346l217-356 219 356h346L793 571 1174 0H827L592 383 356 0H10zM940-496q-100 0-185 25v240q59-19 119-19 123 0 123 170v342h295v-387q0-177-91.5-274T940-496z"/><glyph glyph-name="uni04FE" unicode="Ӿ" horiz-adv-x="1366" d="M113 872h297L31 1462h342l315-526 309 526h334L958 872h295V618H952L1366 0h-354L672 553 332 0H0l397 618H113v254z"/><glyph glyph-name="uni04FF" unicode="ӿ" horiz-adv-x="1184" d="M102 680h215L29 1118h346l217-356 219 356h346L864 680h217V451H872L1174 0H827L592 383 356 0H10l299 451H102v229z"/><glyph glyph-name="uni0500" unicode="Ԁ" horiz-adv-x="1307" d="M92 457q0 212 156 328t442 116h123v561h309V0H696Q92 0 92 457zm721 190h-80q-180 0-253.5-44.5T406 457q0-102 73-152.5T709 254h104v393z"/><glyph glyph-name="uni0501" unicode="ԁ" horiz-adv-x="1296" d="M514-20q-197 0-309.5 153T92 557q0 275 114.5 428.5T522 1139q211 0 322-164h10q-23 125-23 223v358h306V0H903l-59 145h-13Q727-20 514-20zm107 243q117 0 171.5 68T852 522v33q0 180-55.5 258T616 891q-102 0-158.5-86.5T401 553t57-247.5T621 223z"/><glyph glyph-name="uni0502" unicode="Ԃ" horiz-adv-x="1896" d="M92 438q0 216 149 339.5T657 901h115v561h309V367q3-66 42.5-98.5T1249 236q90 0 129 51t39 164v397h305V381q0-195-120-298T1245-20q-108 0-204.5 39T905 119Q862 56 775 19T563-18Q331-18 211.5 99.5T92 438zm680 209h-72q-157 0-225.5-52.5T406 434q0-96 46.5-147T590 236q84 0 133 32.5t49 91.5v287z"/><glyph glyph-name="uni0503" unicode="ԃ" horiz-adv-x="1890" d="M606-20q-247 0-380.5 148T92 557q0 272 108.5 427T504 1139q203 0 309-164h10q-7 38-14.5 109.5T801 1198v358h305V381q0-75 40-110t128-35q87 0 124.5 51t37.5 164v249h301V381q0-196-117.5-298.5T1270-20q-120 0-196 30.5T936 117q-46-55-144-96T606-20zm-2 243q111 0 162 68.5T821 522v33q0 182-53 259t-166 77q-201 0-201-338 0-165 49-247.5T604 223z"/><glyph glyph-name="uni0504" unicode="Ԅ" horiz-adv-x="1870" d="M1012 1135q0-137-83-233T696 770v-6q177-22 268-107.5t91-230.5q0-101 41.5-145.5T1223 236q89 0 128.5 51t39.5 164v397h305V381q0-197-120-299T1223-20Q989-20 867 94T745 426q0 106-97.5 160.5T365 641H195v217h170q344 0 344 209 0 78-53.5 122T489 1233q-156 0-309-100L25 1339q200 144 487 144 230 0 365-93.5t135-254.5z"/><glyph glyph-name="uni0505" unicode="ԅ" horiz-adv-x="1782" d="M403 688q158 0 225.5 28t67.5 89q0 54-50.5 81T481 913q-77 0-166-18.5T147 842l-90 213q120 46 227.5 65t239.5 19q203 0 324-80t121-217q0-189-209-246v-10q237-39 237-228 0-122 168-122 87 0 124.5 51t37.5 164v249h301V381q0-197-117.5-299T1165-20q-221 0-347 76.5T692 274q0 101-73 152t-209 51H256v211h147z"/><glyph glyph-name="uni0506" unicode="Ԇ" horiz-adv-x="1436" d="M1053 1135q0-137-83-233T737 770v-6q177-22 268-107.5t91-230.5V266h299v-692h-299V0H786v426q0 106-104.5 160.5T377 641H195v217h182q373 0 373 209 0 166-238 166-167 0-332-100L25 1339q209 144 507 144 241 0 381-93.5t140-254.5z"/><glyph glyph-name="uni0507" unicode="ԇ" horiz-adv-x="1354" d="M434 688q170 0 242 28t72 89q0 54-53 81t-175 27q-77 0-174.5-19T168 842l-90 213q119 45 231 64.5t250 19.5q209 0 335-80t126-217q0-189-209-246v-10q129-34 184.5-96.5T1051 326V223h274v-624h-274V0H754v326q0 78-76.5 114.5T440 477H276v211h158z"/><glyph glyph-name="uni0508" unicode="Ԉ" horiz-adv-x="2116" d="M1300 375q2-72 41.5-105.5T1468 236q90 0 129 51t39 164v397h306V381q0-197-120-299T1468-20q-235 0-356 100T991 375v829H674l-16-134q-62-511-109.5-717.5T410 62 164-20Q80-20 16 2v254q58-20 109-20 53 0 84 48.5t58.5 180 73 431T418 1462h882V375z"/><glyph glyph-name="uni0509" unicode="ԉ" horiz-adv-x="1915" d="M1130 377q0-74 40-107.5t128-33.5q87 0 124.5 51t37.5 164v249h301V381q0-197-117.5-299T1298-20q-235 0-354 100T825 377v512H575q-32-375-78-559.5t-122.5-267T174-20Q68-20 0 12v244q49-20 98-20 57 0 95.5 82t69 273.5T315 1118h815V377z"/><glyph glyph-name="uni050A" unicode="Ԋ" horiz-adv-x="2136" d="M1341 381q0-75 36.5-110t121.5-35 121.5 51 36.5 164v397h305V381q0-196-117.5-298.5T1499-20q-230 0-347.5 100T1032 373v258H494V0H184v1462h310V889h538v573h309V381z"/><glyph glyph-name="uni050B" unicode="ԋ" horiz-adv-x="1950" d="M465 1118V688h405v430h306V375q2-72 41-105.5t120-33.5q85 0 121.5 51t36.5 164v249h301V381q0-198-116.5-299.5T1337-20q-231 0-348 100.5T870 375v86H465V0H160v1118h305z"/><glyph glyph-name="uni050C" unicode="Ԍ" horiz-adv-x="1638" d="M821 821h699V698q0-358-168.5-538T858-20q-356 0-547.5 197T119 733q0 229 87.5 399t254 260.5T854 1483q276 0 504-107l-107-250q-114 57-209.5 78T842 1225q-189 0-296.5-132T438 727q0-235 108.5-362T866 238q154 0 241 83.5t87 234.5v7H821v258z"/><glyph glyph-name="uni050D" unicode="ԍ" horiz-adv-x="1358" d="M662 664h604v-93q0-591-580-591-282 0-438 149T92 551q0 284 162.5 436T717 1139q226 0 422-86l-92-234q-75 35-165.5 54.5T719 893q-163 0-240.5-83.5T401 547q0-326 277-326 129 0 202.5 58T954 436H662v228z"/><glyph glyph-name="uni050E" unicode="Ԏ" horiz-adv-x="1552" d="M748 381q0-75 37.5-110T909 236q88 0 126 51t38 164v397h305V381q0-197-118.5-299T911-20Q676-20 557 81.5T438 373v831H41v258h1104v-258H748V381z"/><glyph glyph-name="uni050F" unicode="ԏ" horiz-adv-x="1503" d="M1085 1118V889H719V381q0-75 40-110t128-35q86 0 124 51t38 164v249h301V381q0-197-117.5-299T887-20q-233 0-352 99.5T414 375v514H47v229h1038z"/><glyph glyph-name="uni0510" unicode="Ԑ" horiz-adv-x="1327" d="M133 1120q0 105 69 188.5t194 129 284 45.5q176 0 305.5-33.5T1233 1337l-135-229q-192 119-398 119-133 0-199.5-40.5T434 1071q0-102 106.5-146T879 881h122V639H864q-234 0-351.5-52T395 438q0-103 83-151.5T731 238q128 0 260.5 24.5T1221 334V59q-193-79-514-79-289 0-454 117T88 416q0 146 102 237.5T475 764v6q-159 25-250.5 117.5T133 1120z"/><glyph glyph-name="uni0511" unicode="ԑ" horiz-adv-x="1139" d="M840 688V477H672q-146 0-219.5-34T379 336q0-121 256-121 111 0 223.5 23t200.5 63V57Q887-20 625-20q-266 0-406.5 82.5T78 309q0 107 64 174t208 95v10q-213 49-213 258 0 141 128.5 217t363.5 76q111 0 226-22t206-62l-82-213q-169 71-342 71-227 0-227-104 0-66 66.5-93.5T686 688h154z"/><glyph glyph-name="uni0512" unicode="Ԓ" horiz-adv-x="1675" d="M1341 0h-309v1204H674l-16-134q-62-511-109.5-717.5T410 62 164-20Q80-20 16 2v254q58-20 109-20 53 0 84 48.5t58.5 180 73 431T418 1462h923V0zm-59-496q-100 0-185 25v240q59-19 119-19 123 0 123 170v383h295v-428q0-177-91.5-274T1282-496z"/><glyph glyph-name="uni0513" unicode="ԓ" horiz-adv-x="1483" d="M1161 0H856v889H575q-32-375-78-559.5t-122.5-267T174-20Q68-20 0 12v244q49-20 98-20 57 0 95.5 82t69 273.5T315 1118h846V0zm-59-496q-100 0-185 25v240q59-19 119-19 123 0 123 170v342h295v-387q0-177-91.5-274T1102-496z"/><glyph glyph-name="uni1E00" unicode="Ḁ" horiz-adv-x="1413" d="M1079 0L973 348H440L334 0H0l516 1468h379L1413 0h-334zM899 608q-147 473-165.5 535t-26.5 98q-33-128-189-633h381zm62-968q0-108-71-174t-183-66-180 64-68 174q0 108 67.5 172.5T707-125q110 0 182-66t72-169zm-158-2q0 45-27 70.5T707-266t-69-25.5-27-70.5 24-71 72-26q42 0 69 26t27 71z"/><glyph glyph-name="uni1E01" unicode="ḁ" horiz-adv-x="1237" d="M870 0l-59 152h-8Q726 55 644.5 17.5T432-20q-161 0-253.5 92T86 334q0 178 124.5 262.5T586 690l194 6v49q0 170-174 170-134 0-315-81l-101 206q193 101 428 101 225 0 345-98t120-298V0H870zm-90 518l-118-4q-133-4-198-48t-65-134q0-129 148-129 106 0 169.5 61T780 426v92zm66-878q0-108-71-174t-183-66-180 64-68 174q0 108 67.5 172.5T592-125q110 0 182-66t72-169zm-158-2q0 45-27 70.5T592-266t-69-25.5-27-70.5 24-71 72-26q42 0 69 26t27 71z"/><glyph glyph-name="uni1E3E" unicode="Ḿ" horiz-adv-x="1931" d="M803 0L451 1147h-9q19-350 19-467V0H184v1462h422L952 344h6l367 1118h422V0h-289v692q0 49 1.5 113t13.5 340h-9L1087 0H803zm-20 1581v27q172 200 235 301h342v-21q-52-52-177.5-154.5T986 1581H783z"/><glyph glyph-name="uni1E3F" unicode="ḿ" horiz-adv-x="2011" d="M1161 0H856v653q0 121-40.5 181.5T688 895q-117 0-170-86t-53-283V0H160v1118h233l41-143h17q45 77 130 120.5t195 43.5q251 0 340-164h27q45 78 132.5 121t197.5 43q190 0 287.5-97.5T1858 729V0h-306v653q0 121-40.5 181.5T1384 895q-112 0-167.5-80T1161 561V0zM826 1241v27q172 200 235 301h342v-21q-52-52-177.5-154.5T1029 1241H826z"/><glyph glyph-name="Wgrave" unicode="Ẁ" horiz-adv-x="1980" d="M1608 0h-353l-198 768q-11 41-37.5 169.5T989 1110q-6-54-30-173.5T922 766L725 0H373L0 1462h305l187-798q49-221 71-383 6 57 27.5 176.5T631 643l213 819h293l213-819q14-55 35-168t32-194q10 78 32 194.5t40 188.5l186 798h305zM959 1579q-63 44-185 142.5T584 1886v21h342q63-101 235-301v-27H959z"/><glyph glyph-name="wgrave" unicode="ẁ" horiz-adv-x="1753" d="M1079 0l-86 391-116 494h-7L666 0H338L20 1118h304l129-495q31-133 63-367h6q4 76 35 241l16 85 138 536h336l131-536q4-22 12.5-65t16.5-91.5 14.5-95 7.5-74.5h6q9 72 32 197.5t33 169.5l134 495h299L1411 0h-332zM842 1241q-63 44-185 142.5T467 1548v21h342q63-101 235-301v-27H842z"/><glyph glyph-name="Wacute" unicode="Ẃ" horiz-adv-x="1980" d="M1608 0h-353l-198 768q-11 41-37.5 169.5T989 1110q-6-54-30-173.5T922 766L725 0H373L0 1462h305l187-798q49-221 71-383 6 57 27.5 176.5T631 643l213 819h293l213-819q14-55 35-168t32-194q10 78 32 194.5t40 188.5l186 798h305zM774 1579v27q172 200 235 301h342v-21q-52-52-177.5-154.5T977 1579H774z"/><glyph glyph-name="wacute" unicode="ẃ" horiz-adv-x="1753" d="M1079 0l-86 391-116 494h-7L666 0H338L20 1118h304l129-495q31-133 63-367h6q4 76 35 241l16 85 138 536h336l131-536q4-22 12.5-65t16.5-91.5 14.5-95 7.5-74.5h6q9 72 32 197.5t33 169.5l134 495h299L1411 0h-332zM688 1241v27q172 200 235 301h342v-21q-52-52-177.5-154.5T891 1241H688z"/><glyph glyph-name="Wdieresis" unicode="Ẅ" horiz-adv-x="1980" d="M1608 0h-353l-198 768q-11 41-37.5 169.5T989 1110q-6-54-30-173.5T922 766L725 0H373L0 1462h305l187-798q49-221 71-383 6 57 27.5 176.5T631 643l213 819h293l213-819q14-55 35-168t32-194q10 78 32 194.5t40 188.5l186 798h305zM646 1743q0 65 37.5 100t101.5 35q66 0 103.5-37t37.5-98q0-60-38-96.5T785 1610q-64 0-101.5 35t-37.5 98zm403 0q0 70 40.5 102.5T1190 1878q65 0 103.5-36t38.5-99q0-61-39-97t-103-36q-60 0-100.5 32.5T1049 1743z"/><glyph glyph-name="wdieresis" unicode="ẅ" horiz-adv-x="1753" d="M1079 0l-86 391-116 494h-7L666 0H338L20 1118h304l129-495q31-133 63-367h6q4 76 35 241l16 85 138 536h336l131-536q4-22 12.5-65t16.5-91.5 14.5-95 7.5-74.5h6q9 72 32 197.5t33 169.5l134 495h299L1411 0h-332zM533 1405q0 65 37.5 100t101.5 35q66 0 103.5-37t37.5-98q0-60-38-96.5T672 1272q-64 0-101.5 35t-37.5 98zm403 0q0 70 40.5 102.5T1077 1540q65 0 103.5-36t38.5-99q0-61-39-97t-103-36q-60 0-100.5 32.5T936 1405z"/><glyph glyph-name="uni1EA0" unicode="Ạ" horiz-adv-x="1413" d="M1079 0L973 348H440L334 0H0l516 1468h379L1413 0h-334zM899 608q-147 473-165.5 535t-26.5 98q-33-128-189-633h381zM541-281q0 150 166 150t166-150q0-71-42-110t-124-39q-166 0-166 149z"/><glyph glyph-name="uni1EA1" unicode="ạ" horiz-adv-x="1237" d="M870 0l-59 152h-8Q726 55 644.5 17.5T432-20q-161 0-253.5 92T86 334q0 178 124.5 262.5T586 690l194 6v49q0 170-174 170-134 0-315-81l-101 206q193 101 428 101 225 0 345-98t120-298V0H870zm-90 518l-118-4q-133-4-198-48t-65-134q0-129 148-129 106 0 169.5 61T780 426v92zM416-281q0 150 166 150t166-150q0-71-42-110t-124-39q-166 0-166 149z"/><glyph glyph-name="uni1EA2" unicode="Ả" horiz-adv-x="1413" d="M1079 0L973 348H440L334 0H0l516 1468h379L1413 0h-334zM899 608q-147 473-165.5 535t-26.5 98q-33-128-189-633h381zm64 1217q0-156-162-197l-10-71H617l-23 147q75 12 102 37.5t27 62.5q0 32-21 49t-55 17q-65 0-139-23v168q30 10 82.5 16.5t93.5 6.5q140 0 209.5-55.5T963 1825z"/><glyph glyph-name="uni1EA3" unicode="ả" horiz-adv-x="1237" d="M870 0l-59 152h-8Q726 55 644.5 17.5T432-20q-161 0-253.5 92T86 334q0 178 124.5 262.5T586 690l194 6v49q0 170-174 170-134 0-315-81l-101 206q193 101 428 101 225 0 345-98t120-298V0H870zm-90 518l-118-4q-133-4-198-48t-65-134q0-129 148-129 106 0 169.5 61T780 426v92zm95 969q0-156-162-197l-10-71H529l-23 147q75 12 102 37.5t27 62.5q0 32-21 49t-55 17q-65 0-139-23v168q30 10 82.5 16.5t93.5 6.5q140 0 209.5-55.5T875 1487z"/><glyph glyph-name="uni1EA4" unicode="Ấ" horiz-adv-x="1413" d="M1079 0L973 348H440L334 0H0l516 1468h379L1413 0h-334zM899 608q-147 473-165.5 535t-26.5 98q-33-128-189-633h381zm181 971H918q-112 75-211 166-114-101-211-166H334v27q112 130 215 280h315q53-78 120.5-163.5T1080 1606v-27zm-89 221q85 91 138 201h241v-21q-67-89-227-206H991v26z"/><glyph glyph-name="uni1EA5" unicode="ấ" horiz-adv-x="1237" d="M870 0l-59 152h-8Q726 55 644.5 17.5T432-20q-161 0-253.5 92T86 334q0 178 124.5 262.5T586 690l194 6v49q0 170-174 170-134 0-315-81l-101 206q193 101 428 101 225 0 345-98t120-298V0H870zm-90 518l-118-4q-133-4-198-48t-65-134q0-129 148-129 106 0 169.5 61T780 426v92zm208 723H826q-112 75-211 166-114-101-211-166H242v27q112 130 215 280h315q53-78 120.5-163.5T988 1268v-27zm-89 221q85 91 138 201h241v-21q-67-89-227-206H899v26z"/><glyph glyph-name="uni1EA6" unicode="Ầ" horiz-adv-x="1413" d="M1079 0L973 348H440L334 0H0l516 1468h379L1413 0h-334zM899 608q-147 473-165.5 535t-26.5 98q-33-128-189-633h381zm-565 998q112 130 215 280h316q49-72 112-154t103-126v-27H918q-97 65-211 166-106-96-211-166H334v27zm88 168H271q-164 119-228 206v21h242q54-112 137-201v-26z"/><glyph glyph-name="uni1EA7" unicode="ầ" horiz-adv-x="1237" d="M870 0l-59 152h-8Q726 55 644.5 17.5T432-20q-161 0-253.5 92T86 334q0 178 124.5 262.5T586 690l194 6v49q0 170-174 170-134 0-315-81l-101 206q193 101 428 101 225 0 345-98t120-298V0H870zm-90 518l-118-4q-133-4-198-48t-65-134q0-129 148-129 106 0 169.5 61T780 426v92zm-534 750q112 130 215 280h316q49-72 112-154t103-126v-27H830q-97 65-211 166-106-96-211-166H246v27zm88 168H183Q19 1555-45 1642v21h242q54-112 137-201v-26z"/><glyph glyph-name="uni1EA8" unicode="Ẩ" horiz-adv-x="1413" d="M1079 0L973 348H440L334 0H0l516 1468h379L1413 0h-334zM899 608q-147 473-165.5 535t-26.5 98q-33-128-189-633h381zm381 1362q0-114-125-139l-6-61h-127l-10 116q55 2 88 17.5t33 44.5q0 21-18.5 36t-61.5 15q-35 0-72-10v127q22 6 92 6 94 0 150.5-36t56.5-116zm-200-391H918q-112 75-211 166-114-101-211-166H334v27q112 130 215 280h315q53-78 120.5-163.5T1080 1606v-27z"/><glyph glyph-name="uni1EA9" unicode="ẩ" horiz-adv-x="1237" d="M870 0l-59 152h-8Q726 55 644.5 17.5T432-20q-161 0-253.5 92T86 334q0 178 124.5 262.5T586 690l194 6v49q0 170-174 170-134 0-315-81l-101 206q193 101 428 101 225 0 345-98t120-298V0H870zm-90 518l-118-4q-133-4-198-48t-65-134q0-129 148-129 106 0 169.5 61T780 426v92zm412 1114q0-114-125-139l-6-61H934l-10 116q55 2 88 17.5t33 44.5q0 21-18.5 36t-61.5 15q-35 0-72-10v127q22 6 92 6 94 0 150.5-36t56.5-116zm-200-391H830q-112 75-211 166-114-101-211-166H246v27q112 130 215 280h315q53-78 120.5-163.5T992 1268v-27z"/><glyph glyph-name="uni1EAA" unicode="Ẫ" horiz-adv-x="1413" d="M1079 0L973 348H440L334 0H0l516 1468h379L1413 0h-334zM899 608q-147 473-165.5 535t-26.5 98q-33-128-189-633h381zm-47 1297q-36 0-73.5 12.5T705 1945t-69.5 27.5T574 1985q-40 0-61.5-16.5T478 1903H365q9 111 62.5 176t136.5 65q37 0 75.5-13t74.5-28 69-28 59-13q41 0 61.5 18t34.5 66h113q-12-116-65-178.5T852 1905zm228-326H938q-141 71-231 152-83-74-232-152H334v27q170 164 236 260h274q48-69 112-135t124-125v-27z"/><glyph glyph-name="uni1EAB" unicode="ẫ" horiz-adv-x="1237" d="M870 0l-59 152h-8Q726 55 644.5 17.5T432-20q-161 0-253.5 92T86 334q0 178 124.5 262.5T586 690l194 6v49q0 170-174 170-134 0-315-81l-101 206q193 101 428 101 225 0 345-98t120-298V0H870zm-90 518l-118-4q-133-4-198-48t-65-134q0-129 148-129 106 0 169.5 61T780 426v92zm-16 1049q-36 0-73.5 12.5T617 1607t-69.5 27.5T486 1647q-40 0-61.5-16.5T390 1565H277q9 111 62.5 176t136.5 65q37 0 75.5-13t74.5-28 69-28 59-13q41 0 61.5 18t34.5 66h113q-12-116-65-178.5T764 1567zm228-326H850q-141 71-231 152-83-74-232-152H246v27q170 164 236 260h274q48-69 112-135t124-125v-27z"/><glyph glyph-name="uni1EAC" unicode="Ậ" horiz-adv-x="1413" d="M1079 0L973 348H440L334 0H0l516 1468h379L1413 0h-334zM899 608q-147 473-165.5 535t-26.5 98q-33-128-189-633h381zm41 971q-157 93-234 176-78-81-229-176H274v27q189 189 256 301h357q31-52 107.5-141.5T1143 1606v-27H940zM541-281q0 150 166 150t166-150q0-71-42-110t-124-39q-166 0-166 149z"/><glyph glyph-name="uni1EAD" unicode="ậ" horiz-adv-x="1237" d="M870 0l-59 152h-8Q726 55 644.5 17.5T432-20q-161 0-253.5 92T86 334q0 178 124.5 262.5T586 690l194 6v49q0 170-174 170-134 0-315-81l-101 206q193 101 428 101 225 0 345-98t120-298V0H870zm-90 518l-118-4q-133-4-198-48t-65-134q0-129 148-129 106 0 169.5 61T780 426v92zm67 722q-157 93-234 176-78-81-229-176H181v27q189 189 256 301h357q31-52 107.5-141.5T1050 1267v-27H847zM428-281q0 150 166 150t166-150q0-71-42-110t-124-39q-166 0-166 149z"/><glyph glyph-name="uni1EAE" unicode="Ắ" horiz-adv-x="1413" d="M1079 0L973 348H440L334 0H0l516 1468h379L1413 0h-334zM899 608q-147 473-165.5 535t-26.5 98q-33-128-189-633h381zM608 1866q70 105 117 201h221v-21q-92-110-207-207H608v27zm463 51q-11-158-108.5-248T705 1579q-165 0-258 86t-101 252h150q8-87 65.5-128.5T707 1747t145 47 66 123h153z"/></font>
</defs>
</svg>
